solid OpenSCAD_Model
  facet normal -1 0 0
    outer loop
      vertex -5 -2.5 -2.5
      vertex -5 2.5 2.5
      vertex -5 2.5 -2.5
    endloop
  endfacet
  facet normal -1 -0 0
    outer loop
      vertex -5 2.5 2.5
      vertex -5 -2.5 -2.5
      vertex -5 -2.5 2.5
    endloop
  endfacet
  facet normal -0 0 1
    outer loop
      vertex -5 2.5 2.5
      vertex 5 -2.5 2.5
      vertex 5 2.5 2.5
    endloop
  endfacet
  facet normal 0 0 1
    outer loop
      vertex 5 -2.5 2.5
      vertex -5 2.5 2.5
      vertex -5 -2.5 2.5
    endloop
  endfacet
  facet normal 1 -0 0
    outer loop
      vertex 5 -2.5 2.5
      vertex 5 2.5 -2.5
      vertex 5 2.5 2.5
    endloop
  endfacet
  facet normal 1 0 0
    outer loop
      vertex 5 2.5 -2.5
      vertex 5 -2.5 2.5
      vertex 5 -2.5 -2.5
    endloop
  endfacet
  facet normal 0 1 0
    outer loop
      vertex 5 2.5 2.5
      vertex 0 2.5 0.799999
      vertex -5 2.5 2.5
    endloop
  endfacet
  facet normal 0 1 0
    outer loop
      vertex 5 2.5 2.5
      vertex 0.20093 2.5 0.793685
      vertex 0 2.5 0.799999
    endloop
  endfacet
  facet normal 0 1 0
    outer loop
      vertex 5 2.5 2.5
      vertex 0.401066 2.5 0.774767
      vertex 0.20093 2.5 0.793685
    endloop
  endfacet
  facet normal 0 1 0
    outer loop
      vertex 5 2.5 2.5
      vertex 0.59962 2.5 0.743319
      vertex 0.401066 2.5 0.774767
    endloop
  endfacet
  facet normal 0 1 0
    outer loop
      vertex 5 2.5 2.5
      vertex 0.795807 2.5 0.699466
      vertex 0.59962 2.5 0.743319
    endloop
  endfacet
  facet normal 0 1 0
    outer loop
      vertex 5 2.5 2.5
      vertex 0.988853 2.5 0.64338
      vertex 0.795807 2.5 0.699466
    endloop
  endfacet
  facet normal 0 1 0
    outer loop
      vertex 5 2.5 2.5
      vertex 1.178 2.5 0.575284
      vertex 0.988853 2.5 0.64338
    endloop
  endfacet
  facet normal 0 1 0
    outer loop
      vertex 5 2.5 2.5
      vertex 1.36249 2.5 0.495446
      vertex 1.178 2.5 0.575284
    endloop
  endfacet
  facet normal 0 1 0
    outer loop
      vertex 5 2.5 2.5
      vertex 1.54161 2.5 0.404181
      vertex 1.36249 2.5 0.495446
    endloop
  endfacet
  facet normal 0 1 0
    outer loop
      vertex 5 2.5 2.5
      vertex 1.71465 2.5 0.301848
      vertex 1.54161 2.5 0.404181
    endloop
  endfacet
  facet normal 0 1 0
    outer loop
      vertex 5 2.5 2.5
      vertex 1.88091 2.5 0.188854
      vertex 1.71465 2.5 0.301848
    endloop
  endfacet
  facet normal 0 1 0
    outer loop
      vertex 5 2.5 2.5
      vertex 2.03976 2.5 0.0656424
      vertex 1.88091 2.5 0.188854
    endloop
  endfacet
  facet normal 0 1 0
    outer loop
      vertex 5 2.5 2.5
      vertex 2.19055 2.5 -0.0672998
      vertex 2.03976 2.5 0.0656424
    endloop
  endfacet
  facet normal 0 1 0
    outer loop
      vertex 5 2.5 2.5
      vertex 2.3327 2.5 -0.209449
      vertex 2.19055 2.5 -0.0672998
    endloop
  endfacet
  facet normal 0 1 0
    outer loop
      vertex 5 2.5 2.5
      vertex 2.46564 2.5 -0.360243
      vertex 2.3327 2.5 -0.209449
    endloop
  endfacet
  facet normal 0 1 0
    outer loop
      vertex 5 2.5 2.5
      vertex 2.58885 2.5 -0.519087
      vertex 2.46564 2.5 -0.360243
    endloop
  endfacet
  facet normal 0 1 0
    outer loop
      vertex 5 2.5 2.5
      vertex 2.70185 2.5 -0.685354
      vertex 2.58885 2.5 -0.519087
    endloop
  endfacet
  facet normal 0 1 0
    outer loop
      vertex 5 2.5 2.5
      vertex 2.80418 2.5 -0.858388
      vertex 2.70185 2.5 -0.685354
    endloop
  endfacet
  facet normal 0 1 0
    outer loop
      vertex 5 2.5 2.5
      vertex 2.89545 2.5 -1.03751
      vertex 2.80418 2.5 -0.858388
    endloop
  endfacet
  facet normal 0 1 -0
    outer loop
      vertex 5 2.5 -2.5
      vertex 2.89545 2.5 -1.03751
      vertex 5 2.5 2.5
    endloop
  endfacet
  facet normal 0 1 0
    outer loop
      vertex 2.89545 2.5 -1.03751
      vertex 5 2.5 -2.5
      vertex 2.97528 2.5 -1.222
    endloop
  endfacet
  facet normal 0 1 0
    outer loop
      vertex 2.97528 2.5 -1.222
      vertex 5 2.5 -2.5
      vertex 3.04338 2.5 -1.41115
    endloop
  endfacet
  facet normal 0 1 0
    outer loop
      vertex 3.04338 2.5 -1.41115
      vertex 5 2.5 -2.5
      vertex 3.09947 2.5 -1.60419
    endloop
  endfacet
  facet normal 0 1 0
    outer loop
      vertex 3.09947 2.5 -1.60419
      vertex 5 2.5 -2.5
      vertex 3.14332 2.5 -1.80038
    endloop
  endfacet
  facet normal 0 1 0
    outer loop
      vertex 3.14332 2.5 -1.80038
      vertex 5 2.5 -2.5
      vertex 3.17477 2.5 -1.99893
    endloop
  endfacet
  facet normal 0 1 0
    outer loop
      vertex 3.17477 2.5 -1.99893
      vertex 5 2.5 -2.5
      vertex 3.19368 2.5 -2.19907
    endloop
  endfacet
  facet normal 0 1 0
    outer loop
      vertex 3.19368 2.5 -2.19907
      vertex 5 2.5 -2.5
      vertex 3.2 2.5 -2.4
    endloop
  endfacet
  facet normal 0 1 0
    outer loop
      vertex 3.2 2.5 -2.4
      vertex 5 2.5 -2.5
      vertex 3.19686 2.5 -2.5
    endloop
  endfacet
  facet normal 0 1 -0
    outer loop
      vertex -0.20093 2.5 0.793685
      vertex -5 2.5 2.5
      vertex 0 2.5 0.799999
    endloop
  endfacet
  facet normal 0 1 -0
    outer loop
      vertex -0.401066 2.5 0.774767
      vertex -5 2.5 2.5
      vertex -0.20093 2.5 0.793685
    endloop
  endfacet
  facet normal 0 1 -0
    outer loop
      vertex -0.59962 2.5 0.743319
      vertex -5 2.5 2.5
      vertex -0.401066 2.5 0.774767
    endloop
  endfacet
  facet normal 0 1 -0
    outer loop
      vertex -0.795807 2.5 0.699466
      vertex -5 2.5 2.5
      vertex -0.59962 2.5 0.743319
    endloop
  endfacet
  facet normal 0 1 -0
    outer loop
      vertex -0.988853 2.5 0.64338
      vertex -5 2.5 2.5
      vertex -0.795807 2.5 0.699466
    endloop
  endfacet
  facet normal 0 1 -0
    outer loop
      vertex -1.178 2.5 0.575284
      vertex -5 2.5 2.5
      vertex -0.988853 2.5 0.64338
    endloop
  endfacet
  facet normal 0 1 -0
    outer loop
      vertex -1.36249 2.5 0.495446
      vertex -5 2.5 2.5
      vertex -1.178 2.5 0.575284
    endloop
  endfacet
  facet normal 0 1 -0
    outer loop
      vertex -1.54161 2.5 0.404181
      vertex -5 2.5 2.5
      vertex -1.36249 2.5 0.495446
    endloop
  endfacet
  facet normal 0 1 -0
    outer loop
      vertex -1.71465 2.5 0.301848
      vertex -5 2.5 2.5
      vertex -1.54161 2.5 0.404181
    endloop
  endfacet
  facet normal 0 1 -0
    outer loop
      vertex -1.88091 2.5 0.188854
      vertex -5 2.5 2.5
      vertex -1.71465 2.5 0.301848
    endloop
  endfacet
  facet normal 0 1 -0
    outer loop
      vertex -2.03976 2.5 0.0656424
      vertex -5 2.5 2.5
      vertex -1.88091 2.5 0.188854
    endloop
  endfacet
  facet normal 0 1 -0
    outer loop
      vertex -2.19055 2.5 -0.0672998
      vertex -5 2.5 2.5
      vertex -2.03976 2.5 0.0656424
    endloop
  endfacet
  facet normal 0 1 -0
    outer loop
      vertex -2.3327 2.5 -0.209449
      vertex -5 2.5 2.5
      vertex -2.19055 2.5 -0.0672998
    endloop
  endfacet
  facet normal 0 1 -0
    outer loop
      vertex -2.46564 2.5 -0.360243
      vertex -5 2.5 2.5
      vertex -2.3327 2.5 -0.209449
    endloop
  endfacet
  facet normal 0 1 -0
    outer loop
      vertex -2.58885 2.5 -0.519087
      vertex -5 2.5 2.5
      vertex -2.46564 2.5 -0.360243
    endloop
  endfacet
  facet normal 0 1 -0
    outer loop
      vertex -2.70185 2.5 -0.685354
      vertex -5 2.5 2.5
      vertex -2.58885 2.5 -0.519087
    endloop
  endfacet
  facet normal 0 1 -0
    outer loop
      vertex -2.80418 2.5 -0.858388
      vertex -5 2.5 2.5
      vertex -2.70185 2.5 -0.685354
    endloop
  endfacet
  facet normal 0 1 -0
    outer loop
      vertex -2.89545 2.5 -1.03751
      vertex -5 2.5 2.5
      vertex -2.80418 2.5 -0.858388
    endloop
  endfacet
  facet normal 0 1 0
    outer loop
      vertex -5 2.5 -2.5
      vertex -2.89545 2.5 -1.03751
      vertex -2.97528 2.5 -1.222
    endloop
  endfacet
  facet normal 0 1 0
    outer loop
      vertex -5 2.5 -2.5
      vertex -2.97528 2.5 -1.222
      vertex -3.04338 2.5 -1.41115
    endloop
  endfacet
  facet normal 0 1 0
    outer loop
      vertex -5 2.5 -2.5
      vertex -3.04338 2.5 -1.41115
      vertex -3.09947 2.5 -1.60419
    endloop
  endfacet
  facet normal 0 1 0
    outer loop
      vertex -5 2.5 -2.5
      vertex -3.09947 2.5 -1.60419
      vertex -3.14332 2.5 -1.80038
    endloop
  endfacet
  facet normal 0 1 0
    outer loop
      vertex -5 2.5 -2.5
      vertex -3.14332 2.5 -1.80038
      vertex -3.17477 2.5 -1.99893
    endloop
  endfacet
  facet normal 0 1 0
    outer loop
      vertex -5 2.5 -2.5
      vertex -3.17477 2.5 -1.99893
      vertex -3.19368 2.5 -2.19907
    endloop
  endfacet
  facet normal 0 1 0
    outer loop
      vertex -5 2.5 -2.5
      vertex -3.19368 2.5 -2.19907
      vertex -3.2 2.5 -2.4
    endloop
  endfacet
  facet normal 0 1 0
    outer loop
      vertex -5 2.5 -2.5
      vertex -3.2 2.5 -2.4
      vertex -3.19686 2.5 -2.5
    endloop
  endfacet
  facet normal 0 1 0
    outer loop
      vertex -2.89545 2.5 -1.03751
      vertex -5 2.5 -2.5
      vertex -5 2.5 2.5
    endloop
  endfacet
  facet normal 0 0 -1
    outer loop
      vertex -5 -2.5 -2.5
      vertex -3.19686 2.5 -2.5
      vertex -3.19686 -2.5 -2.5
    endloop
  endfacet
  facet normal -0 0 -1
    outer loop
      vertex -3.19686 2.5 -2.5
      vertex -5 -2.5 -2.5
      vertex -5 2.5 -2.5
    endloop
  endfacet
  facet normal 0 0 -1
    outer loop
      vertex 3.19686 -2.5 -2.5
      vertex 5 2.5 -2.5
      vertex 5 -2.5 -2.5
    endloop
  endfacet
  facet normal -0 0 -1
    outer loop
      vertex 5 2.5 -2.5
      vertex 3.19686 -2.5 -2.5
      vertex 3.19686 2.5 -2.5
    endloop
  endfacet
  facet normal 0 -1 0
    outer loop
      vertex -5 -2.5 2.5
      vertex 0 -2.5 0.799999
      vertex 5 -2.5 2.5
    endloop
  endfacet
  facet normal 0 -1 0
    outer loop
      vertex -5 -2.5 2.5
      vertex -0.20093 -2.5 0.793685
      vertex 0 -2.5 0.799999
    endloop
  endfacet
  facet normal 0 -1 0
    outer loop
      vertex -5 -2.5 2.5
      vertex -0.401066 -2.5 0.774767
      vertex -0.20093 -2.5 0.793685
    endloop
  endfacet
  facet normal 0 -1 0
    outer loop
      vertex -5 -2.5 2.5
      vertex -0.59962 -2.5 0.743319
      vertex -0.401066 -2.5 0.774767
    endloop
  endfacet
  facet normal 0 -1 0
    outer loop
      vertex -5 -2.5 2.5
      vertex -0.795807 -2.5 0.699466
      vertex -0.59962 -2.5 0.743319
    endloop
  endfacet
  facet normal 0 -1 0
    outer loop
      vertex -5 -2.5 2.5
      vertex -0.988853 -2.5 0.64338
      vertex -0.795807 -2.5 0.699466
    endloop
  endfacet
  facet normal 0 -1 0
    outer loop
      vertex -5 -2.5 2.5
      vertex -1.178 -2.5 0.575284
      vertex -0.988853 -2.5 0.64338
    endloop
  endfacet
  facet normal 0 -1 0
    outer loop
      vertex -5 -2.5 2.5
      vertex -1.36249 -2.5 0.495446
      vertex -1.178 -2.5 0.575284
    endloop
  endfacet
  facet normal 0 -1 0
    outer loop
      vertex -5 -2.5 2.5
      vertex -1.54161 -2.5 0.404181
      vertex -1.36249 -2.5 0.495446
    endloop
  endfacet
  facet normal 0 -1 0
    outer loop
      vertex -5 -2.5 2.5
      vertex -1.71465 -2.5 0.301848
      vertex -1.54161 -2.5 0.404181
    endloop
  endfacet
  facet normal 0 -1 0
    outer loop
      vertex -5 -2.5 2.5
      vertex -1.88091 -2.5 0.188854
      vertex -1.71465 -2.5 0.301848
    endloop
  endfacet
  facet normal 0 -1 0
    outer loop
      vertex -5 -2.5 2.5
      vertex -2.03976 -2.5 0.0656424
      vertex -1.88091 -2.5 0.188854
    endloop
  endfacet
  facet normal 0 -1 0
    outer loop
      vertex -5 -2.5 2.5
      vertex -2.19055 -2.5 -0.0672998
      vertex -2.03976 -2.5 0.0656424
    endloop
  endfacet
  facet normal 0 -1 0
    outer loop
      vertex -5 -2.5 2.5
      vertex -2.3327 -2.5 -0.209449
      vertex -2.19055 -2.5 -0.0672998
    endloop
  endfacet
  facet normal 0 -1 0
    outer loop
      vertex -5 -2.5 2.5
      vertex -2.46564 -2.5 -0.360243
      vertex -2.3327 -2.5 -0.209449
    endloop
  endfacet
  facet normal 0 -1 0
    outer loop
      vertex -5 -2.5 2.5
      vertex -2.58885 -2.5 -0.519087
      vertex -2.46564 -2.5 -0.360243
    endloop
  endfacet
  facet normal 0 -1 0
    outer loop
      vertex -5 -2.5 2.5
      vertex -2.70185 -2.5 -0.685354
      vertex -2.58885 -2.5 -0.519087
    endloop
  endfacet
  facet normal 0 -1 0
    outer loop
      vertex -5 -2.5 2.5
      vertex -2.80418 -2.5 -0.858388
      vertex -2.70185 -2.5 -0.685354
    endloop
  endfacet
  facet normal 0 -1 0
    outer loop
      vertex -5 -2.5 2.5
      vertex -2.89545 -2.5 -1.03751
      vertex -2.80418 -2.5 -0.858388
    endloop
  endfacet
  facet normal 0 -1 0
    outer loop
      vertex -5 -2.5 -2.5
      vertex -2.89545 -2.5 -1.03751
      vertex -5 -2.5 2.5
    endloop
  endfacet
  facet normal 0 -1 0
    outer loop
      vertex -2.89545 -2.5 -1.03751
      vertex -5 -2.5 -2.5
      vertex -2.97528 -2.5 -1.222
    endloop
  endfacet
  facet normal 0 -1 0
    outer loop
      vertex -2.97528 -2.5 -1.222
      vertex -5 -2.5 -2.5
      vertex -3.04338 -2.5 -1.41115
    endloop
  endfacet
  facet normal 0 -1 0
    outer loop
      vertex -3.04338 -2.5 -1.41115
      vertex -5 -2.5 -2.5
      vertex -3.09947 -2.5 -1.60419
    endloop
  endfacet
  facet normal 0 -1 0
    outer loop
      vertex -3.09947 -2.5 -1.60419
      vertex -5 -2.5 -2.5
      vertex -3.14332 -2.5 -1.80038
    endloop
  endfacet
  facet normal 0 -1 0
    outer loop
      vertex -3.14332 -2.5 -1.80038
      vertex -5 -2.5 -2.5
      vertex -3.17477 -2.5 -1.99893
    endloop
  endfacet
  facet normal 0 -1 0
    outer loop
      vertex -3.17477 -2.5 -1.99893
      vertex -5 -2.5 -2.5
      vertex -3.19368 -2.5 -2.19907
    endloop
  endfacet
  facet normal 0 -1 0
    outer loop
      vertex -3.19368 -2.5 -2.19907
      vertex -5 -2.5 -2.5
      vertex -3.2 -2.5 -2.4
    endloop
  endfacet
  facet normal 0 -1 -0
    outer loop
      vertex -3.2 -2.5 -2.4
      vertex -5 -2.5 -2.5
      vertex -3.19686 -2.5 -2.5
    endloop
  endfacet
  facet normal 0 -1 0
    outer loop
      vertex 0.20093 -2.5 0.793685
      vertex 5 -2.5 2.5
      vertex 0 -2.5 0.799999
    endloop
  endfacet
  facet normal 0 -1 0
    outer loop
      vertex 0.401066 -2.5 0.774767
      vertex 5 -2.5 2.5
      vertex 0.20093 -2.5 0.793685
    endloop
  endfacet
  facet normal 0 -1 0
    outer loop
      vertex 0.59962 -2.5 0.743319
      vertex 5 -2.5 2.5
      vertex 0.401066 -2.5 0.774767
    endloop
  endfacet
  facet normal 0 -1 0
    outer loop
      vertex 0.795807 -2.5 0.699466
      vertex 5 -2.5 2.5
      vertex 0.59962 -2.5 0.743319
    endloop
  endfacet
  facet normal 0 -1 0
    outer loop
      vertex 0.988853 -2.5 0.64338
      vertex 5 -2.5 2.5
      vertex 0.795807 -2.5 0.699466
    endloop
  endfacet
  facet normal 0 -1 0
    outer loop
      vertex 1.178 -2.5 0.575284
      vertex 5 -2.5 2.5
      vertex 0.988853 -2.5 0.64338
    endloop
  endfacet
  facet normal 0 -1 0
    outer loop
      vertex 1.36249 -2.5 0.495446
      vertex 5 -2.5 2.5
      vertex 1.178 -2.5 0.575284
    endloop
  endfacet
  facet normal 0 -1 0
    outer loop
      vertex 1.54161 -2.5 0.404181
      vertex 5 -2.5 2.5
      vertex 1.36249 -2.5 0.495446
    endloop
  endfacet
  facet normal 0 -1 0
    outer loop
      vertex 1.71465 -2.5 0.301848
      vertex 5 -2.5 2.5
      vertex 1.54161 -2.5 0.404181
    endloop
  endfacet
  facet normal 0 -1 0
    outer loop
      vertex 1.88091 -2.5 0.188854
      vertex 5 -2.5 2.5
      vertex 1.71465 -2.5 0.301848
    endloop
  endfacet
  facet normal 0 -1 0
    outer loop
      vertex 2.03976 -2.5 0.0656424
      vertex 5 -2.5 2.5
      vertex 1.88091 -2.5 0.188854
    endloop
  endfacet
  facet normal 0 -1 0
    outer loop
      vertex 2.19055 -2.5 -0.0672998
      vertex 5 -2.5 2.5
      vertex 2.03976 -2.5 0.0656424
    endloop
  endfacet
  facet normal 0 -1 0
    outer loop
      vertex 2.3327 -2.5 -0.209449
      vertex 5 -2.5 2.5
      vertex 2.19055 -2.5 -0.0672998
    endloop
  endfacet
  facet normal 0 -1 0
    outer loop
      vertex 2.46564 -2.5 -0.360243
      vertex 5 -2.5 2.5
      vertex 2.3327 -2.5 -0.209449
    endloop
  endfacet
  facet normal 0 -1 0
    outer loop
      vertex 2.58885 -2.5 -0.519087
      vertex 5 -2.5 2.5
      vertex 2.46564 -2.5 -0.360243
    endloop
  endfacet
  facet normal 0 -1 0
    outer loop
      vertex 2.70185 -2.5 -0.685354
      vertex 5 -2.5 2.5
      vertex 2.58885 -2.5 -0.519087
    endloop
  endfacet
  facet normal 0 -1 0
    outer loop
      vertex 2.80418 -2.5 -0.858388
      vertex 5 -2.5 2.5
      vertex 2.70185 -2.5 -0.685354
    endloop
  endfacet
  facet normal 0 -1 0
    outer loop
      vertex 2.89545 -2.5 -1.03751
      vertex 5 -2.5 2.5
      vertex 2.80418 -2.5 -0.858388
    endloop
  endfacet
  facet normal 0 -1 0
    outer loop
      vertex 5 -2.5 -2.5
      vertex 2.89545 -2.5 -1.03751
      vertex 2.97528 -2.5 -1.222
    endloop
  endfacet
  facet normal 0 -1 0
    outer loop
      vertex 5 -2.5 -2.5
      vertex 2.97528 -2.5 -1.222
      vertex 3.04338 -2.5 -1.41115
    endloop
  endfacet
  facet normal 0 -1 0
    outer loop
      vertex 5 -2.5 -2.5
      vertex 3.04338 -2.5 -1.41115
      vertex 3.09947 -2.5 -1.60419
    endloop
  endfacet
  facet normal 0 -1 0
    outer loop
      vertex 5 -2.5 -2.5
      vertex 3.09947 -2.5 -1.60419
      vertex 3.14332 -2.5 -1.80038
    endloop
  endfacet
  facet normal 0 -1 0
    outer loop
      vertex 5 -2.5 -2.5
      vertex 3.14332 -2.5 -1.80038
      vertex 3.17477 -2.5 -1.99893
    endloop
  endfacet
  facet normal 0 -1 0
    outer loop
      vertex 5 -2.5 -2.5
      vertex 3.17477 -2.5 -1.99893
      vertex 3.19368 -2.5 -2.19907
    endloop
  endfacet
  facet normal 0 -1 0
    outer loop
      vertex 5 -2.5 -2.5
      vertex 3.19368 -2.5 -2.19907
      vertex 3.2 -2.5 -2.4
    endloop
  endfacet
  facet normal 0 -1 0
    outer loop
      vertex 5 -2.5 -2.5
      vertex 3.2 -2.5 -2.4
      vertex 3.19686 -2.5 -2.5
    endloop
  endfacet
  facet normal 0 -1 0
    outer loop
      vertex 2.89545 -2.5 -1.03751
      vertex 5 -2.5 -2.5
      vertex 5 -2.5 2.5
    endloop
  endfacet
  facet normal -0.999506 0 -0.0314382
    outer loop
      vertex 3.2 -2.5 -2.4
      vertex 3.19368 2.5 -2.19907
      vertex 3.2 2.5 -2.4
    endloop
  endfacet
  facet normal -0.999506 -0 -0.0314382
    outer loop
      vertex 3.19368 2.5 -2.19907
      vertex 3.2 -2.5 -2.4
      vertex 3.19368 -2.5 -2.19907
    endloop
  endfacet
  facet normal -0.995566 0 -0.0940649
    outer loop
      vertex 3.19368 -2.5 -2.19907
      vertex 3.17477 2.5 -1.99893
      vertex 3.19368 2.5 -2.19907
    endloop
  endfacet
  facet normal -0.995566 -0 -0.0940649
    outer loop
      vertex 3.17477 2.5 -1.99893
      vertex 3.19368 -2.5 -2.19907
      vertex 3.17477 -2.5 -1.99893
    endloop
  endfacet
  facet normal 0.999506 0 -0.0314382
    outer loop
      vertex -3.19368 -2.5 -2.19907
      vertex -3.2 2.5 -2.4
      vertex -3.19368 2.5 -2.19907
    endloop
  endfacet
  facet normal 0.999506 0 -0.0314382
    outer loop
      vertex -3.2 2.5 -2.4
      vertex -3.19368 -2.5 -2.19907
      vertex -3.2 -2.5 -2.4
    endloop
  endfacet
  facet normal 0.0314084 0 -0.999507
    outer loop
      vertex -0.20093 -2.5 0.793685
      vertex 0 2.5 0.799999
      vertex 0 -2.5 0.799999
    endloop
  endfacet
  facet normal 0.0314084 0 -0.999507
    outer loop
      vertex 0 2.5 0.799999
      vertex -0.20093 -2.5 0.793685
      vertex -0.20093 2.5 0.793685
    endloop
  endfacet
  facet normal -0.707105 0 -0.707109
    outer loop
      vertex 2.3327 -2.5 -0.209449
      vertex 2.19055 2.5 -0.0672998
      vertex 2.3327 2.5 -0.209449
    endloop
  endfacet
  facet normal -0.707105 -0 -0.707109
    outer loop
      vertex 2.19055 2.5 -0.0672998
      vertex 2.3327 -2.5 -0.209449
      vertex 2.19055 -2.5 -0.0672998
    endloop
  endfacet
  facet normal 0.707105 0 -0.707109
    outer loop
      vertex -2.19055 -2.5 -0.0672998
      vertex -2.3327 2.5 -0.209449
      vertex -2.19055 2.5 -0.0672998
    endloop
  endfacet
  facet normal 0.707105 0 -0.707109
    outer loop
      vertex -2.3327 2.5 -0.209449
      vertex -2.19055 -2.5 -0.0672998
      vertex -2.3327 -2.5 -0.209449
    endloop
  endfacet
  facet normal 0.397156 0 -0.917751
    outer loop
      vertex -1.36249 -2.5 0.495446
      vertex -1.178 2.5 0.575284
      vertex -1.178 -2.5 0.575284
    endloop
  endfacet
  facet normal 0.397156 0 -0.917751
    outer loop
      vertex -1.178 2.5 0.575284
      vertex -1.36249 -2.5 0.495446
      vertex -1.36249 2.5 0.495446
    endloop
  endfacet
  facet normal -0.917765 0 -0.397123
    outer loop
      vertex 2.97528 -2.5 -1.222
      vertex 2.89545 2.5 -1.03751
      vertex 2.97528 2.5 -1.222
    endloop
  endfacet
  facet normal -0.917765 -0 -0.397123
    outer loop
      vertex 2.89545 2.5 -1.03751
      vertex 2.97528 -2.5 -1.222
      vertex 2.89545 -2.5 -1.03751
    endloop
  endfacet
  facet normal -0.397156 0 -0.917751
    outer loop
      vertex 1.178 -2.5 0.575284
      vertex 1.36249 2.5 0.495446
      vertex 1.36249 -2.5 0.495446
    endloop
  endfacet
  facet normal -0.397156 0 -0.917751
    outer loop
      vertex 1.36249 2.5 0.495446
      vertex 1.178 -2.5 0.575284
      vertex 1.178 2.5 0.575284
    endloop
  endfacet
  facet normal -0.562096 0 -0.827072
    outer loop
      vertex 1.71465 -2.5 0.301848
      vertex 1.88091 2.5 0.188854
      vertex 1.88091 -2.5 0.188854
    endloop
  endfacet
  facet normal -0.562096 0 -0.827072
    outer loop
      vertex 1.88091 2.5 0.188854
      vertex 1.71465 -2.5 0.301848
      vertex 1.71465 2.5 0.301848
    endloop
  endfacet
  facet normal -0.975921 0 -0.218126
    outer loop
      vertex 3.14332 -2.5 -1.80038
      vertex 3.09947 2.5 -1.60419
      vertex 3.14332 2.5 -1.80038
    endloop
  endfacet
  facet normal -0.975921 -0 -0.218126
    outer loop
      vertex 3.09947 2.5 -1.60419
      vertex 3.14332 -2.5 -1.80038
      vertex 3.09947 -2.5 -1.60419
    endloop
  endfacet
  facet normal -0.612891 0 -0.790167
    outer loop
      vertex 1.88091 -2.5 0.188854
      vertex 2.03976 2.5 0.0656424
      vertex 2.03976 -2.5 0.0656424
    endloop
  endfacet
  facet normal -0.612891 0 -0.790167
    outer loop
      vertex 2.03976 2.5 0.0656424
      vertex 1.88091 -2.5 0.188854
      vertex 1.88091 2.5 0.188854
    endloop
  endfacet
  facet normal 0.827069 0 -0.562101
    outer loop
      vertex -2.58885 -2.5 -0.519087
      vertex -2.70185 2.5 -0.685354
      vertex -2.58885 2.5 -0.519087
    endloop
  endfacet
  facet normal 0.827069 0 -0.562101
    outer loop
      vertex -2.70185 2.5 -0.685354
      vertex -2.58885 -2.5 -0.519087
      vertex -2.70185 -2.5 -0.685354
    endloop
  endfacet
  facet normal 0.860746 0 -0.509034
    outer loop
      vertex -2.70185 -2.5 -0.685354
      vertex -2.80418 2.5 -0.858388
      vertex -2.70185 2.5 -0.685354
    endloop
  endfacet
  facet normal 0.860746 0 -0.509034
    outer loop
      vertex -2.80418 2.5 -0.858388
      vertex -2.70185 -2.5 -0.685354
      vertex -2.80418 -2.5 -0.858388
    endloop
  endfacet
  facet normal 0.975921 0 -0.218126
    outer loop
      vertex -3.09947 -2.5 -1.60419
      vertex -3.14332 2.5 -1.80038
      vertex -3.09947 2.5 -1.60419
    endloop
  endfacet
  facet normal 0.975921 0 -0.218126
    outer loop
      vertex -3.14332 2.5 -1.80038
      vertex -3.09947 -2.5 -1.60419
      vertex -3.14332 -2.5 -1.80038
    endloop
  endfacet
  facet normal 0.562096 0 -0.827072
    outer loop
      vertex -1.88091 -2.5 0.188854
      vertex -1.71465 2.5 0.301848
      vertex -1.71465 -2.5 0.301848
    endloop
  endfacet
  facet normal 0.562096 0 -0.827072
    outer loop
      vertex -1.71465 2.5 0.301848
      vertex -1.88091 -2.5 0.188854
      vertex -1.88091 2.5 0.188854
    endloop
  endfacet
  facet normal 0.66132 0 -0.750104
    outer loop
      vertex -2.19055 -2.5 -0.0672998
      vertex -2.03976 2.5 0.0656424
      vertex -2.03976 -2.5 0.0656424
    endloop
  endfacet
  facet normal 0.66132 0 -0.750104
    outer loop
      vertex -2.03976 2.5 0.0656424
      vertex -2.19055 -2.5 -0.0672998
      vertex -2.19055 2.5 -0.0672998
    endloop
  endfacet
  facet normal 0.0941062 0 -0.995562
    outer loop
      vertex -0.401066 -2.5 0.774767
      vertex -0.20093 2.5 0.793685
      vertex -0.20093 -2.5 0.793685
    endloop
  endfacet
  facet normal 0.0941062 0 -0.995562
    outer loop
      vertex -0.20093 2.5 0.793685
      vertex -0.401066 -2.5 0.774767
      vertex -0.401066 2.5 0.774767
    endloop
  endfacet
  facet normal -0.987686 0 -0.156448
    outer loop
      vertex 3.17477 -2.5 -1.99893
      vertex 3.14332 2.5 -1.80038
      vertex 3.17477 2.5 -1.99893
    endloop
  endfacet
  facet normal -0.987686 -0 -0.156448
    outer loop
      vertex 3.14332 2.5 -1.80038
      vertex 3.17477 -2.5 -1.99893
      vertex 3.14332 -2.5 -1.80038
    endloop
  endfacet
  facet normal -0.960285 0 -0.279022
    outer loop
      vertex 3.09947 -2.5 -1.60419
      vertex 3.04338 2.5 -1.41115
      vertex 3.09947 2.5 -1.60419
    endloop
  endfacet
  facet normal -0.960285 -0 -0.279022
    outer loop
      vertex 3.04338 2.5 -1.41115
      vertex 3.09947 -2.5 -1.60419
      vertex 3.04338 -2.5 -1.41115
    endloop
  endfacet
  facet normal -0.79016 0 -0.612901
    outer loop
      vertex 2.58885 -2.5 -0.519087
      vertex 2.46564 2.5 -0.360243
      vertex 2.58885 2.5 -0.519087
    endloop
  endfacet
  facet normal -0.79016 -0 -0.612901
    outer loop
      vertex 2.46564 2.5 -0.360243
      vertex 2.58885 -2.5 -0.519087
      vertex 2.46564 -2.5 -0.360243
    endloop
  endfacet
  facet normal -0.827069 0 -0.562101
    outer loop
      vertex 2.70185 -2.5 -0.685354
      vertex 2.58885 2.5 -0.519087
      vertex 2.70185 2.5 -0.685354
    endloop
  endfacet
  facet normal -0.827069 -0 -0.562101
    outer loop
      vertex 2.58885 2.5 -0.519087
      vertex 2.70185 -2.5 -0.685354
      vertex 2.58885 -2.5 -0.519087
    endloop
  endfacet
  facet normal -0.891001 0 -0.454001
    outer loop
      vertex 2.89545 -2.5 -1.03751
      vertex 2.80418 2.5 -0.858388
      vertex 2.89545 2.5 -1.03751
    endloop
  endfacet
  facet normal -0.891001 -0 -0.454001
    outer loop
      vertex 2.80418 2.5 -0.858388
      vertex 2.89545 -2.5 -1.03751
      vertex 2.80418 -2.5 -0.858388
    endloop
  endfacet
  facet normal -0.0941062 0 -0.995562
    outer loop
      vertex 0.20093 -2.5 0.793685
      vertex 0.401066 2.5 0.774767
      vertex 0.401066 -2.5 0.774767
    endloop
  endfacet
  facet normal -0.0941062 0 -0.995562
    outer loop
      vertex 0.401066 2.5 0.774767
      vertex 0.20093 -2.5 0.793685
      vertex 0.20093 2.5 0.793685
    endloop
  endfacet
  facet normal -0.278995 0 -0.960292
    outer loop
      vertex 0.795807 -2.5 0.699466
      vertex 0.988853 2.5 0.64338
      vertex 0.988853 -2.5 0.64338
    endloop
  endfacet
  facet normal -0.278995 0 -0.960292
    outer loop
      vertex 0.988853 2.5 0.64338
      vertex 0.795807 -2.5 0.699466
      vertex 0.795807 2.5 0.699466
    endloop
  endfacet
  facet normal -0.509032 0 -0.860748
    outer loop
      vertex 1.54161 -2.5 0.404181
      vertex 1.71465 2.5 0.301848
      vertex 1.71465 -2.5 0.301848
    endloop
  endfacet
  facet normal -0.509032 0 -0.860748
    outer loop
      vertex 1.71465 2.5 0.301848
      vertex 1.54161 -2.5 0.404181
      vertex 1.54161 2.5 0.404181
    endloop
  endfacet
  facet normal -0.453986 0 -0.891009
    outer loop
      vertex 1.36249 -2.5 0.495446
      vertex 1.54161 2.5 0.404181
      vertex 1.54161 -2.5 0.404181
    endloop
  endfacet
  facet normal -0.453986 0 -0.891009
    outer loop
      vertex 1.54161 2.5 0.404181
      vertex 1.36249 -2.5 0.495446
      vertex 1.36249 2.5 0.495446
    endloop
  endfacet
  facet normal -0.66132 0 -0.750104
    outer loop
      vertex 2.03976 -2.5 0.0656424
      vertex 2.19055 2.5 -0.0672998
      vertex 2.19055 -2.5 -0.0672998
    endloop
  endfacet
  facet normal -0.66132 0 -0.750104
    outer loop
      vertex 2.19055 2.5 -0.0672998
      vertex 2.03976 -2.5 0.0656424
      vertex 2.03976 2.5 0.0656424
    endloop
  endfacet
  facet normal 0.987686 0 -0.156448
    outer loop
      vertex -3.14332 -2.5 -1.80038
      vertex -3.17477 2.5 -1.99893
      vertex -3.14332 2.5 -1.80038
    endloop
  endfacet
  facet normal 0.987686 0 -0.156448
    outer loop
      vertex -3.17477 2.5 -1.99893
      vertex -3.14332 -2.5 -1.80038
      vertex -3.17477 -2.5 -1.99893
    endloop
  endfacet
  facet normal 0.917765 0 -0.397123
    outer loop
      vertex -2.89545 -2.5 -1.03751
      vertex -2.97528 2.5 -1.222
      vertex -2.89545 2.5 -1.03751
    endloop
  endfacet
  facet normal 0.917765 0 -0.397123
    outer loop
      vertex -2.97528 2.5 -1.222
      vertex -2.89545 -2.5 -1.03751
      vertex -2.97528 -2.5 -1.222
    endloop
  endfacet
  facet normal 0.940878 0 -0.338746
    outer loop
      vertex -2.97528 -2.5 -1.222
      vertex -3.04338 2.5 -1.41115
      vertex -2.97528 2.5 -1.222
    endloop
  endfacet
  facet normal 0.940878 0 -0.338746
    outer loop
      vertex -3.04338 2.5 -1.41115
      vertex -2.97528 -2.5 -1.222
      vertex -3.04338 -2.5 -1.41115
    endloop
  endfacet
  facet normal 0.612891 0 -0.790167
    outer loop
      vertex -2.03976 -2.5 0.0656424
      vertex -1.88091 2.5 0.188854
      vertex -1.88091 -2.5 0.188854
    endloop
  endfacet
  facet normal 0.612891 0 -0.790167
    outer loop
      vertex -1.88091 2.5 0.188854
      vertex -2.03976 -2.5 0.0656424
      vertex -2.03976 2.5 0.0656424
    endloop
  endfacet
  facet normal 0.453986 0 -0.891009
    outer loop
      vertex -1.54161 -2.5 0.404181
      vertex -1.36249 2.5 0.495446
      vertex -1.36249 -2.5 0.495446
    endloop
  endfacet
  facet normal 0.453986 0 -0.891009
    outer loop
      vertex -1.36249 2.5 0.495446
      vertex -1.54161 -2.5 0.404181
      vertex -1.54161 2.5 0.404181
    endloop
  endfacet
  facet normal 0.278995 0 -0.960292
    outer loop
      vertex -0.988853 -2.5 0.64338
      vertex -0.795807 2.5 0.699466
      vertex -0.795807 -2.5 0.699466
    endloop
  endfacet
  facet normal 0.278995 0 -0.960292
    outer loop
      vertex -0.795807 2.5 0.699466
      vertex -0.988853 -2.5 0.64338
      vertex -0.988853 2.5 0.64338
    endloop
  endfacet
  facet normal 0.338733 0 -0.940883
    outer loop
      vertex -1.178 -2.5 0.575284
      vertex -0.988853 2.5 0.64338
      vertex -0.988853 -2.5 0.64338
    endloop
  endfacet
  facet normal 0.338733 0 -0.940883
    outer loop
      vertex -0.988853 2.5 0.64338
      vertex -1.178 -2.5 0.575284
      vertex -1.178 2.5 0.575284
    endloop
  endfacet
  facet normal 0.218143 0 -0.975917
    outer loop
      vertex -0.795807 -2.5 0.699466
      vertex -0.59962 2.5 0.743319
      vertex -0.59962 -2.5 0.743319
    endloop
  endfacet
  facet normal 0.218143 0 -0.975917
    outer loop
      vertex -0.59962 2.5 0.743319
      vertex -0.795807 -2.5 0.699466
      vertex -0.795807 2.5 0.699466
    endloop
  endfacet
  facet normal -0.940878 0 -0.338746
    outer loop
      vertex 3.04338 -2.5 -1.41115
      vertex 2.97528 2.5 -1.222
      vertex 3.04338 2.5 -1.41115
    endloop
  endfacet
  facet normal -0.940878 -0 -0.338746
    outer loop
      vertex 2.97528 2.5 -1.222
      vertex 3.04338 -2.5 -1.41115
      vertex 2.97528 -2.5 -1.222
    endloop
  endfacet
  facet normal -0.750118 0 -0.661304
    outer loop
      vertex 2.46564 -2.5 -0.360243
      vertex 2.3327 2.5 -0.209449
      vertex 2.46564 2.5 -0.360243
    endloop
  endfacet
  facet normal -0.750118 -0 -0.661304
    outer loop
      vertex 2.3327 2.5 -0.209449
      vertex 2.46564 -2.5 -0.360243
      vertex 2.3327 -2.5 -0.209449
    endloop
  endfacet
  facet normal -0.860746 0 -0.509034
    outer loop
      vertex 2.80418 -2.5 -0.858388
      vertex 2.70185 2.5 -0.685354
      vertex 2.80418 2.5 -0.858388
    endloop
  endfacet
  facet normal -0.860746 -0 -0.509034
    outer loop
      vertex 2.70185 2.5 -0.685354
      vertex 2.80418 -2.5 -0.858388
      vertex 2.70185 -2.5 -0.685354
    endloop
  endfacet
  facet normal -0.338733 0 -0.940883
    outer loop
      vertex 0.988853 -2.5 0.64338
      vertex 1.178 2.5 0.575284
      vertex 1.178 -2.5 0.575284
    endloop
  endfacet
  facet normal -0.338733 0 -0.940883
    outer loop
      vertex 1.178 2.5 0.575284
      vertex 0.988853 -2.5 0.64338
      vertex 0.988853 2.5 0.64338
    endloop
  endfacet
  facet normal -0.218143 0 -0.975917
    outer loop
      vertex 0.59962 -2.5 0.743319
      vertex 0.795807 2.5 0.699466
      vertex 0.795807 -2.5 0.699466
    endloop
  endfacet
  facet normal -0.218143 0 -0.975917
    outer loop
      vertex 0.795807 2.5 0.699466
      vertex 0.59962 -2.5 0.743319
      vertex 0.59962 2.5 0.743319
    endloop
  endfacet
  facet normal -0.156435 0 -0.987688
    outer loop
      vertex 0.401066 -2.5 0.774767
      vertex 0.59962 2.5 0.743319
      vertex 0.59962 -2.5 0.743319
    endloop
  endfacet
  facet normal -0.156435 0 -0.987688
    outer loop
      vertex 0.59962 2.5 0.743319
      vertex 0.401066 -2.5 0.774767
      vertex 0.401066 2.5 0.774767
    endloop
  endfacet
  facet normal -0.0314084 0 -0.999507
    outer loop
      vertex 0 -2.5 0.799999
      vertex 0.20093 2.5 0.793685
      vertex 0.20093 -2.5 0.793685
    endloop
  endfacet
  facet normal -0.0314084 0 -0.999507
    outer loop
      vertex 0.20093 2.5 0.793685
      vertex 0 -2.5 0.799999
      vertex 0 2.5 0.799999
    endloop
  endfacet
  facet normal 0.79016 0 -0.612901
    outer loop
      vertex -2.46564 -2.5 -0.360243
      vertex -2.58885 2.5 -0.519087
      vertex -2.46564 2.5 -0.360243
    endloop
  endfacet
  facet normal 0.79016 0 -0.612901
    outer loop
      vertex -2.58885 2.5 -0.519087
      vertex -2.46564 -2.5 -0.360243
      vertex -2.58885 -2.5 -0.519087
    endloop
  endfacet
  facet normal 0.750118 0 -0.661304
    outer loop
      vertex -2.3327 -2.5 -0.209449
      vertex -2.46564 2.5 -0.360243
      vertex -2.3327 2.5 -0.209449
    endloop
  endfacet
  facet normal 0.750118 0 -0.661304
    outer loop
      vertex -2.46564 2.5 -0.360243
      vertex -2.3327 -2.5 -0.209449
      vertex -2.46564 -2.5 -0.360243
    endloop
  endfacet
  facet normal 0.891001 0 -0.454001
    outer loop
      vertex -2.80418 -2.5 -0.858388
      vertex -2.89545 2.5 -1.03751
      vertex -2.80418 2.5 -0.858388
    endloop
  endfacet
  facet normal 0.891001 0 -0.454001
    outer loop
      vertex -2.89545 2.5 -1.03751
      vertex -2.80418 -2.5 -0.858388
      vertex -2.89545 -2.5 -1.03751
    endloop
  endfacet
  facet normal 0.960285 0 -0.279022
    outer loop
      vertex -3.04338 -2.5 -1.41115
      vertex -3.09947 2.5 -1.60419
      vertex -3.04338 2.5 -1.41115
    endloop
  endfacet
  facet normal 0.960285 0 -0.279022
    outer loop
      vertex -3.09947 2.5 -1.60419
      vertex -3.04338 -2.5 -1.41115
      vertex -3.09947 -2.5 -1.60419
    endloop
  endfacet
  facet normal 0.995566 0 -0.0940649
    outer loop
      vertex -3.17477 -2.5 -1.99893
      vertex -3.19368 2.5 -2.19907
      vertex -3.17477 2.5 -1.99893
    endloop
  endfacet
  facet normal 0.995566 0 -0.0940649
    outer loop
      vertex -3.19368 2.5 -2.19907
      vertex -3.17477 -2.5 -1.99893
      vertex -3.19368 -2.5 -2.19907
    endloop
  endfacet
  facet normal 0.509032 0 -0.860748
    outer loop
      vertex -1.71465 -2.5 0.301848
      vertex -1.54161 2.5 0.404181
      vertex -1.54161 -2.5 0.404181
    endloop
  endfacet
  facet normal 0.509032 0 -0.860748
    outer loop
      vertex -1.54161 2.5 0.404181
      vertex -1.71465 -2.5 0.301848
      vertex -1.71465 2.5 0.301848
    endloop
  endfacet
  facet normal 0.156435 0 -0.987688
    outer loop
      vertex -0.59962 -2.5 0.743319
      vertex -0.401066 2.5 0.774767
      vertex -0.401066 -2.5 0.774767
    endloop
  endfacet
  facet normal 0.156435 0 -0.987688
    outer loop
      vertex -0.401066 2.5 0.774767
      vertex -0.59962 -2.5 0.743319
      vertex -0.59962 2.5 0.743319
    endloop
  endfacet
  facet normal -0.999507 0 0.0313845
    outer loop
      vertex 3.19686 -2.5 -2.5
      vertex 3.2 2.5 -2.4
      vertex 3.19686 2.5 -2.5
    endloop
  endfacet
  facet normal -0.999507 0 0.0313845
    outer loop
      vertex 3.2 2.5 -2.4
      vertex 3.19686 -2.5 -2.5
      vertex 3.2 -2.5 -2.4
    endloop
  endfacet
  facet normal 0.999507 -0 0.0313845
    outer loop
      vertex -3.2 -2.5 -2.4
      vertex -3.19686 2.5 -2.5
      vertex -3.2 2.5 -2.4
    endloop
  endfacet
  facet normal 0.999507 0 0.0313845
    outer loop
      vertex -3.19686 2.5 -2.5
      vertex -3.2 -2.5 -2.4
      vertex -3.19686 -2.5 -2.5
    endloop
  endfacet
endsolid OpenSCAD_Model
