solid OpenSCAD_Model
  facet normal -1 0 0
    outer loop
      vertex -5 -2.5 -2.5
      vertex -5 2.5 2.5
      vertex -5 2.5 -2.5
    endloop
  endfacet
  facet normal -1 -0 0
    outer loop
      vertex -5 2.5 2.5
      vertex -5 -2.5 -2.5
      vertex -5 -2.5 2.5
    endloop
  endfacet
  facet normal -0 0 1
    outer loop
      vertex -5 2.5 2.5
      vertex 5 -2.5 2.5
      vertex 5 2.5 2.5
    endloop
  endfacet
  facet normal 0 0 1
    outer loop
      vertex 5 -2.5 2.5
      vertex -5 2.5 2.5
      vertex -5 -2.5 2.5
    endloop
  endfacet
  facet normal 1 -0 0
    outer loop
      vertex 5 -2.5 2.5
      vertex 5 2.5 -2.5
      vertex 5 2.5 2.5
    endloop
  endfacet
  facet normal 1 0 0
    outer loop
      vertex 5 2.5 -2.5
      vertex 5 -2.5 2.5
      vertex 5 -2.5 -2.5
    endloop
  endfacet
  facet normal 0 1 0
    outer loop
      vertex 5 2.5 2.5
      vertex 0 2.5 1.3
      vertex -5 2.5 2.5
    endloop
  endfacet
  facet normal 0 1 0
    outer loop
      vertex 5 2.5 2.5
      vertex 0.213488 2.5 1.29329
      vertex 0 2.5 1.3
    endloop
  endfacet
  facet normal 0 1 0
    outer loop
      vertex 5 2.5 2.5
      vertex 0.426132 2.5 1.27319
      vertex 0.213488 2.5 1.29329
    endloop
  endfacet
  facet normal 0 1 0
    outer loop
      vertex 5 2.5 2.5
      vertex 0.637096 2.5 1.23978
      vertex 0.426132 2.5 1.27319
    endloop
  endfacet
  facet normal 0 1 0
    outer loop
      vertex 5 2.5 2.5
      vertex 0.845545 2.5 1.19318
      vertex 0.637096 2.5 1.23978
    endloop
  endfacet
  facet normal 0 1 0
    outer loop
      vertex 5 2.5 2.5
      vertex 1.05066 2.5 1.13359
      vertex 0.845545 2.5 1.19318
    endloop
  endfacet
  facet normal 0 1 0
    outer loop
      vertex 5 2.5 2.5
      vertex 1.25162 2.5 1.06124
      vertex 1.05066 2.5 1.13359
    endloop
  endfacet
  facet normal 0 1 0
    outer loop
      vertex 5 2.5 2.5
      vertex 1.44765 2.5 0.976412
      vertex 1.25162 2.5 1.06124
    endloop
  endfacet
  facet normal 0 1 0
    outer loop
      vertex 5 2.5 2.5
      vertex 1.63796 2.5 0.879442
      vertex 1.44765 2.5 0.976412
    endloop
  endfacet
  facet normal 0 1 0
    outer loop
      vertex 5 2.5 2.5
      vertex 1.82181 2.5 0.770715
      vertex 1.63796 2.5 0.879442
    endloop
  endfacet
  facet normal 0 1 0
    outer loop
      vertex 5 2.5 2.5
      vertex 1.99847 2.5 0.650658
      vertex 1.82181 2.5 0.770715
    endloop
  endfacet
  facet normal 0 1 0
    outer loop
      vertex 5 2.5 2.5
      vertex 2.16724 2.5 0.519745
      vertex 1.99847 2.5 0.650658
    endloop
  endfacet
  facet normal 0 1 0
    outer loop
      vertex 5 2.5 2.5
      vertex 2.32746 2.5 0.378493
      vertex 2.16724 2.5 0.519745
    endloop
  endfacet
  facet normal 0 1 0
    outer loop
      vertex 5 2.5 2.5
      vertex 2.47849 2.5 0.22746
      vertex 2.32746 2.5 0.378493
    endloop
  endfacet
  facet normal 0 1 0
    outer loop
      vertex 5 2.5 2.5
      vertex 2.61974 2.5 0.0672407
      vertex 2.47849 2.5 0.22746
    endloop
  endfacet
  facet normal 0 1 0
    outer loop
      vertex 5 2.5 2.5
      vertex 2.75066 2.5 -0.10153
      vertex 2.61974 2.5 0.0672407
    endloop
  endfacet
  facet normal 0 1 0
    outer loop
      vertex 5 2.5 2.5
      vertex 2.87071 2.5 -0.278189
      vertex 2.75066 2.5 -0.10153
    endloop
  endfacet
  facet normal 0 1 0
    outer loop
      vertex 5 2.5 2.5
      vertex 2.97944 2.5 -0.462037
      vertex 2.87071 2.5 -0.278189
    endloop
  endfacet
  facet normal 0 1 0
    outer loop
      vertex 5 2.5 2.5
      vertex 3.07641 2.5 -0.652349
      vertex 2.97944 2.5 -0.462037
    endloop
  endfacet
  facet normal 0 1 0
    outer loop
      vertex 5 2.5 2.5
      vertex 3.16124 2.5 -0.848376
      vertex 3.07641 2.5 -0.652349
    endloop
  endfacet
  facet normal 0 1 -0
    outer loop
      vertex 5 2.5 -2.5
      vertex 3.16124 2.5 -0.848376
      vertex 5 2.5 2.5
    endloop
  endfacet
  facet normal 0 1 0
    outer loop
      vertex 3.16124 2.5 -0.848376
      vertex 5 2.5 -2.5
      vertex 3.23359 2.5 -1.04934
    endloop
  endfacet
  facet normal 0 1 0
    outer loop
      vertex 3.23359 2.5 -1.04934
      vertex 5 2.5 -2.5
      vertex 3.29318 2.5 -1.25445
    endloop
  endfacet
  facet normal 0 1 0
    outer loop
      vertex 3.29318 2.5 -1.25445
      vertex 5 2.5 -2.5
      vertex 3.33978 2.5 -1.4629
    endloop
  endfacet
  facet normal 0 1 0
    outer loop
      vertex 3.33978 2.5 -1.4629
      vertex 5 2.5 -2.5
      vertex 3.37319 2.5 -1.67387
    endloop
  endfacet
  facet normal 0 1 0
    outer loop
      vertex 3.37319 2.5 -1.67387
      vertex 5 2.5 -2.5
      vertex 3.39329 2.5 -1.88651
    endloop
  endfacet
  facet normal 0 1 0
    outer loop
      vertex 3.39329 2.5 -1.88651
      vertex 5 2.5 -2.5
      vertex 3.4 2.5 -2.1
    endloop
  endfacet
  facet normal 0 1 0
    outer loop
      vertex 3.4 2.5 -2.1
      vertex 5 2.5 -2.5
      vertex 3.39329 2.5 -2.31349
    endloop
  endfacet
  facet normal 0 1 0
    outer loop
      vertex 3.39329 2.5 -2.31349
      vertex 5 2.5 -2.5
      vertex 3.37566 2.5 -2.5
    endloop
  endfacet
  facet normal 0 1 -0
    outer loop
      vertex -0.213488 2.5 1.29329
      vertex -5 2.5 2.5
      vertex 0 2.5 1.3
    endloop
  endfacet
  facet normal 0 1 -0
    outer loop
      vertex -0.426132 2.5 1.27319
      vertex -5 2.5 2.5
      vertex -0.213488 2.5 1.29329
    endloop
  endfacet
  facet normal 0 1 -0
    outer loop
      vertex -0.637096 2.5 1.23978
      vertex -5 2.5 2.5
      vertex -0.426132 2.5 1.27319
    endloop
  endfacet
  facet normal 0 1 -0
    outer loop
      vertex -0.845545 2.5 1.19318
      vertex -5 2.5 2.5
      vertex -0.637096 2.5 1.23978
    endloop
  endfacet
  facet normal 0 1 -0
    outer loop
      vertex -1.05066 2.5 1.13359
      vertex -5 2.5 2.5
      vertex -0.845545 2.5 1.19318
    endloop
  endfacet
  facet normal 0 1 -0
    outer loop
      vertex -1.25162 2.5 1.06124
      vertex -5 2.5 2.5
      vertex -1.05066 2.5 1.13359
    endloop
  endfacet
  facet normal 0 1 -0
    outer loop
      vertex -1.44765 2.5 0.976412
      vertex -5 2.5 2.5
      vertex -1.25162 2.5 1.06124
    endloop
  endfacet
  facet normal 0 1 -0
    outer loop
      vertex -1.63796 2.5 0.879442
      vertex -5 2.5 2.5
      vertex -1.44765 2.5 0.976412
    endloop
  endfacet
  facet normal 0 1 -0
    outer loop
      vertex -1.82181 2.5 0.770715
      vertex -5 2.5 2.5
      vertex -1.63796 2.5 0.879442
    endloop
  endfacet
  facet normal 0 1 -0
    outer loop
      vertex -1.99847 2.5 0.650658
      vertex -5 2.5 2.5
      vertex -1.82181 2.5 0.770715
    endloop
  endfacet
  facet normal 0 1 -0
    outer loop
      vertex -2.16724 2.5 0.519745
      vertex -5 2.5 2.5
      vertex -1.99847 2.5 0.650658
    endloop
  endfacet
  facet normal 0 1 -0
    outer loop
      vertex -2.32746 2.5 0.378493
      vertex -5 2.5 2.5
      vertex -2.16724 2.5 0.519745
    endloop
  endfacet
  facet normal 0 1 -0
    outer loop
      vertex -2.47849 2.5 0.22746
      vertex -5 2.5 2.5
      vertex -2.32746 2.5 0.378493
    endloop
  endfacet
  facet normal 0 1 -0
    outer loop
      vertex -2.61974 2.5 0.0672407
      vertex -5 2.5 2.5
      vertex -2.47849 2.5 0.22746
    endloop
  endfacet
  facet normal 0 1 -0
    outer loop
      vertex -2.75066 2.5 -0.10153
      vertex -5 2.5 2.5
      vertex -2.61974 2.5 0.0672407
    endloop
  endfacet
  facet normal 0 1 -0
    outer loop
      vertex -2.87071 2.5 -0.278189
      vertex -5 2.5 2.5
      vertex -2.75066 2.5 -0.10153
    endloop
  endfacet
  facet normal 0 1 -0
    outer loop
      vertex -2.97944 2.5 -0.462037
      vertex -5 2.5 2.5
      vertex -2.87071 2.5 -0.278189
    endloop
  endfacet
  facet normal 0 1 -0
    outer loop
      vertex -3.07641 2.5 -0.652349
      vertex -5 2.5 2.5
      vertex -2.97944 2.5 -0.462037
    endloop
  endfacet
  facet normal 0 1 -0
    outer loop
      vertex -3.16124 2.5 -0.848376
      vertex -5 2.5 2.5
      vertex -3.07641 2.5 -0.652349
    endloop
  endfacet
  facet normal 0 1 0
    outer loop
      vertex -5 2.5 -2.5
      vertex -3.16124 2.5 -0.848376
      vertex -3.23359 2.5 -1.04934
    endloop
  endfacet
  facet normal 0 1 0
    outer loop
      vertex -5 2.5 -2.5
      vertex -3.23359 2.5 -1.04934
      vertex -3.29318 2.5 -1.25445
    endloop
  endfacet
  facet normal 0 1 0
    outer loop
      vertex -5 2.5 -2.5
      vertex -3.29318 2.5 -1.25445
      vertex -3.33978 2.5 -1.4629
    endloop
  endfacet
  facet normal 0 1 0
    outer loop
      vertex -5 2.5 -2.5
      vertex -3.33978 2.5 -1.4629
      vertex -3.37319 2.5 -1.67387
    endloop
  endfacet
  facet normal 0 1 0
    outer loop
      vertex -5 2.5 -2.5
      vertex -3.37319 2.5 -1.67387
      vertex -3.39329 2.5 -1.88651
    endloop
  endfacet
  facet normal 0 1 0
    outer loop
      vertex -5 2.5 -2.5
      vertex -3.39329 2.5 -1.88651
      vertex -3.4 2.5 -2.1
    endloop
  endfacet
  facet normal 0 1 0
    outer loop
      vertex -5 2.5 -2.5
      vertex -3.4 2.5 -2.1
      vertex -3.39329 2.5 -2.31349
    endloop
  endfacet
  facet normal 0 1 0
    outer loop
      vertex -5 2.5 -2.5
      vertex -3.39329 2.5 -2.31349
      vertex -3.37566 2.5 -2.5
    endloop
  endfacet
  facet normal 0 1 0
    outer loop
      vertex -3.16124 2.5 -0.848376
      vertex -5 2.5 -2.5
      vertex -5 2.5 2.5
    endloop
  endfacet
  facet normal 0 0 -1
    outer loop
      vertex -5 -2.5 -2.5
      vertex -3.37566 2.5 -2.5
      vertex -3.37566 -2.5 -2.5
    endloop
  endfacet
  facet normal -0 0 -1
    outer loop
      vertex -3.37566 2.5 -2.5
      vertex -5 -2.5 -2.5
      vertex -5 2.5 -2.5
    endloop
  endfacet
  facet normal 0 0 -1
    outer loop
      vertex 3.37566 -2.5 -2.5
      vertex 5 2.5 -2.5
      vertex 5 -2.5 -2.5
    endloop
  endfacet
  facet normal -0 0 -1
    outer loop
      vertex 5 2.5 -2.5
      vertex 3.37566 -2.5 -2.5
      vertex 3.37566 2.5 -2.5
    endloop
  endfacet
  facet normal 0 -1 0
    outer loop
      vertex -5 -2.5 2.5
      vertex 0 -2.5 1.3
      vertex 5 -2.5 2.5
    endloop
  endfacet
  facet normal 0 -1 0
    outer loop
      vertex -5 -2.5 2.5
      vertex -0.213488 -2.5 1.29329
      vertex 0 -2.5 1.3
    endloop
  endfacet
  facet normal 0 -1 0
    outer loop
      vertex -5 -2.5 2.5
      vertex -0.426132 -2.5 1.27319
      vertex -0.213488 -2.5 1.29329
    endloop
  endfacet
  facet normal 0 -1 0
    outer loop
      vertex -5 -2.5 2.5
      vertex -0.637096 -2.5 1.23978
      vertex -0.426132 -2.5 1.27319
    endloop
  endfacet
  facet normal 0 -1 0
    outer loop
      vertex -5 -2.5 2.5
      vertex -0.845545 -2.5 1.19318
      vertex -0.637096 -2.5 1.23978
    endloop
  endfacet
  facet normal 0 -1 0
    outer loop
      vertex -5 -2.5 2.5
      vertex -1.05066 -2.5 1.13359
      vertex -0.845545 -2.5 1.19318
    endloop
  endfacet
  facet normal 0 -1 0
    outer loop
      vertex -5 -2.5 2.5
      vertex -1.25162 -2.5 1.06124
      vertex -1.05066 -2.5 1.13359
    endloop
  endfacet
  facet normal 0 -1 0
    outer loop
      vertex -5 -2.5 2.5
      vertex -1.44765 -2.5 0.976412
      vertex -1.25162 -2.5 1.06124
    endloop
  endfacet
  facet normal 0 -1 0
    outer loop
      vertex -5 -2.5 2.5
      vertex -1.63796 -2.5 0.879442
      vertex -1.44765 -2.5 0.976412
    endloop
  endfacet
  facet normal 0 -1 0
    outer loop
      vertex -5 -2.5 2.5
      vertex -1.82181 -2.5 0.770715
      vertex -1.63796 -2.5 0.879442
    endloop
  endfacet
  facet normal 0 -1 0
    outer loop
      vertex -5 -2.5 2.5
      vertex -1.99847 -2.5 0.650658
      vertex -1.82181 -2.5 0.770715
    endloop
  endfacet
  facet normal 0 -1 0
    outer loop
      vertex -5 -2.5 2.5
      vertex -2.16724 -2.5 0.519745
      vertex -1.99847 -2.5 0.650658
    endloop
  endfacet
  facet normal 0 -1 0
    outer loop
      vertex -5 -2.5 2.5
      vertex -2.32746 -2.5 0.378493
      vertex -2.16724 -2.5 0.519745
    endloop
  endfacet
  facet normal 0 -1 0
    outer loop
      vertex -5 -2.5 2.5
      vertex -2.47849 -2.5 0.22746
      vertex -2.32746 -2.5 0.378493
    endloop
  endfacet
  facet normal 0 -1 0
    outer loop
      vertex -5 -2.5 2.5
      vertex -2.61974 -2.5 0.0672407
      vertex -2.47849 -2.5 0.22746
    endloop
  endfacet
  facet normal 0 -1 0
    outer loop
      vertex -5 -2.5 2.5
      vertex -2.75066 -2.5 -0.10153
      vertex -2.61974 -2.5 0.0672407
    endloop
  endfacet
  facet normal 0 -1 0
    outer loop
      vertex -5 -2.5 2.5
      vertex -2.87071 -2.5 -0.278189
      vertex -2.75066 -2.5 -0.10153
    endloop
  endfacet
  facet normal 0 -1 0
    outer loop
      vertex -5 -2.5 2.5
      vertex -2.97944 -2.5 -0.462037
      vertex -2.87071 -2.5 -0.278189
    endloop
  endfacet
  facet normal 0 -1 0
    outer loop
      vertex -5 -2.5 2.5
      vertex -3.07641 -2.5 -0.652349
      vertex -2.97944 -2.5 -0.462037
    endloop
  endfacet
  facet normal 0 -1 0
    outer loop
      vertex -5 -2.5 2.5
      vertex -3.16124 -2.5 -0.848376
      vertex -3.07641 -2.5 -0.652349
    endloop
  endfacet
  facet normal 0 -1 0
    outer loop
      vertex -5 -2.5 -2.5
      vertex -3.16124 -2.5 -0.848376
      vertex -5 -2.5 2.5
    endloop
  endfacet
  facet normal 0 -1 0
    outer loop
      vertex -3.16124 -2.5 -0.848376
      vertex -5 -2.5 -2.5
      vertex -3.23359 -2.5 -1.04934
    endloop
  endfacet
  facet normal 0 -1 0
    outer loop
      vertex -3.23359 -2.5 -1.04934
      vertex -5 -2.5 -2.5
      vertex -3.29318 -2.5 -1.25445
    endloop
  endfacet
  facet normal 0 -1 0
    outer loop
      vertex -3.29318 -2.5 -1.25445
      vertex -5 -2.5 -2.5
      vertex -3.33978 -2.5 -1.4629
    endloop
  endfacet
  facet normal 0 -1 0
    outer loop
      vertex -3.33978 -2.5 -1.4629
      vertex -5 -2.5 -2.5
      vertex -3.37319 -2.5 -1.67387
    endloop
  endfacet
  facet normal 0 -1 0
    outer loop
      vertex -3.37319 -2.5 -1.67387
      vertex -5 -2.5 -2.5
      vertex -3.39329 -2.5 -1.88651
    endloop
  endfacet
  facet normal 0 -1 0
    outer loop
      vertex -3.39329 -2.5 -1.88651
      vertex -5 -2.5 -2.5
      vertex -3.4 -2.5 -2.1
    endloop
  endfacet
  facet normal 0 -1 -0
    outer loop
      vertex -3.4 -2.5 -2.1
      vertex -5 -2.5 -2.5
      vertex -3.39329 -2.5 -2.31349
    endloop
  endfacet
  facet normal 0 -1 -0
    outer loop
      vertex -3.39329 -2.5 -2.31349
      vertex -5 -2.5 -2.5
      vertex -3.37566 -2.5 -2.5
    endloop
  endfacet
  facet normal 0 -1 0
    outer loop
      vertex 0.213488 -2.5 1.29329
      vertex 5 -2.5 2.5
      vertex 0 -2.5 1.3
    endloop
  endfacet
  facet normal 0 -1 0
    outer loop
      vertex 0.426132 -2.5 1.27319
      vertex 5 -2.5 2.5
      vertex 0.213488 -2.5 1.29329
    endloop
  endfacet
  facet normal 0 -1 0
    outer loop
      vertex 0.637096 -2.5 1.23978
      vertex 5 -2.5 2.5
      vertex 0.426132 -2.5 1.27319
    endloop
  endfacet
  facet normal 0 -1 0
    outer loop
      vertex 0.845545 -2.5 1.19318
      vertex 5 -2.5 2.5
      vertex 0.637096 -2.5 1.23978
    endloop
  endfacet
  facet normal 0 -1 0
    outer loop
      vertex 1.05066 -2.5 1.13359
      vertex 5 -2.5 2.5
      vertex 0.845545 -2.5 1.19318
    endloop
  endfacet
  facet normal 0 -1 0
    outer loop
      vertex 1.25162 -2.5 1.06124
      vertex 5 -2.5 2.5
      vertex 1.05066 -2.5 1.13359
    endloop
  endfacet
  facet normal 0 -1 0
    outer loop
      vertex 1.44765 -2.5 0.976412
      vertex 5 -2.5 2.5
      vertex 1.25162 -2.5 1.06124
    endloop
  endfacet
  facet normal 0 -1 0
    outer loop
      vertex 1.63796 -2.5 0.879442
      vertex 5 -2.5 2.5
      vertex 1.44765 -2.5 0.976412
    endloop
  endfacet
  facet normal 0 -1 0
    outer loop
      vertex 1.82181 -2.5 0.770715
      vertex 5 -2.5 2.5
      vertex 1.63796 -2.5 0.879442
    endloop
  endfacet
  facet normal 0 -1 0
    outer loop
      vertex 1.99847 -2.5 0.650658
      vertex 5 -2.5 2.5
      vertex 1.82181 -2.5 0.770715
    endloop
  endfacet
  facet normal 0 -1 0
    outer loop
      vertex 2.16724 -2.5 0.519745
      vertex 5 -2.5 2.5
      vertex 1.99847 -2.5 0.650658
    endloop
  endfacet
  facet normal 0 -1 0
    outer loop
      vertex 2.32746 -2.5 0.378493
      vertex 5 -2.5 2.5
      vertex 2.16724 -2.5 0.519745
    endloop
  endfacet
  facet normal 0 -1 0
    outer loop
      vertex 2.47849 -2.5 0.22746
      vertex 5 -2.5 2.5
      vertex 2.32746 -2.5 0.378493
    endloop
  endfacet
  facet normal 0 -1 0
    outer loop
      vertex 2.61974 -2.5 0.0672407
      vertex 5 -2.5 2.5
      vertex 2.47849 -2.5 0.22746
    endloop
  endfacet
  facet normal 0 -1 0
    outer loop
      vertex 2.75066 -2.5 -0.10153
      vertex 5 -2.5 2.5
      vertex 2.61974 -2.5 0.0672407
    endloop
  endfacet
  facet normal 0 -1 0
    outer loop
      vertex 2.87071 -2.5 -0.278189
      vertex 5 -2.5 2.5
      vertex 2.75066 -2.5 -0.10153
    endloop
  endfacet
  facet normal 0 -1 0
    outer loop
      vertex 2.97944 -2.5 -0.462037
      vertex 5 -2.5 2.5
      vertex 2.87071 -2.5 -0.278189
    endloop
  endfacet
  facet normal 0 -1 0
    outer loop
      vertex 3.07641 -2.5 -0.652349
      vertex 5 -2.5 2.5
      vertex 2.97944 -2.5 -0.462037
    endloop
  endfacet
  facet normal 0 -1 0
    outer loop
      vertex 3.16124 -2.5 -0.848376
      vertex 5 -2.5 2.5
      vertex 3.07641 -2.5 -0.652349
    endloop
  endfacet
  facet normal 0 -1 0
    outer loop
      vertex 5 -2.5 -2.5
      vertex 3.16124 -2.5 -0.848376
      vertex 3.23359 -2.5 -1.04934
    endloop
  endfacet
  facet normal 0 -1 0
    outer loop
      vertex 5 -2.5 -2.5
      vertex 3.23359 -2.5 -1.04934
      vertex 3.29318 -2.5 -1.25445
    endloop
  endfacet
  facet normal 0 -1 0
    outer loop
      vertex 5 -2.5 -2.5
      vertex 3.29318 -2.5 -1.25445
      vertex 3.33978 -2.5 -1.4629
    endloop
  endfacet
  facet normal 0 -1 0
    outer loop
      vertex 5 -2.5 -2.5
      vertex 3.33978 -2.5 -1.4629
      vertex 3.37319 -2.5 -1.67387
    endloop
  endfacet
  facet normal 0 -1 0
    outer loop
      vertex 5 -2.5 -2.5
      vertex 3.37319 -2.5 -1.67387
      vertex 3.39329 -2.5 -1.88651
    endloop
  endfacet
  facet normal 0 -1 0
    outer loop
      vertex 5 -2.5 -2.5
      vertex 3.39329 -2.5 -1.88651
      vertex 3.4 -2.5 -2.1
    endloop
  endfacet
  facet normal 0 -1 0
    outer loop
      vertex 5 -2.5 -2.5
      vertex 3.4 -2.5 -2.1
      vertex 3.39329 -2.5 -2.31349
    endloop
  endfacet
  facet normal 0 -1 0
    outer loop
      vertex 5 -2.5 -2.5
      vertex 3.39329 -2.5 -2.31349
      vertex 3.37566 -2.5 -2.5
    endloop
  endfacet
  facet normal 0 -1 0
    outer loop
      vertex 3.16124 -2.5 -0.848376
      vertex 5 -2.5 -2.5
      vertex 5 -2.5 2.5
    endloop
  endfacet
  facet normal -0.999506 0 -0.0314145
    outer loop
      vertex 3.4 -2.5 -2.1
      vertex 3.39329 2.5 -1.88651
      vertex 3.4 2.5 -2.1
    endloop
  endfacet
  facet normal -0.999506 -0 -0.0314145
    outer loop
      vertex 3.39329 2.5 -1.88651
      vertex 3.4 -2.5 -2.1
      vertex 3.39329 -2.5 -1.88651
    endloop
  endfacet
  facet normal -0.995562 0 -0.0941065
    outer loop
      vertex 3.39329 -2.5 -1.88651
      vertex 3.37319 2.5 -1.67387
      vertex 3.39329 2.5 -1.88651
    endloop
  endfacet
  facet normal -0.995562 -0 -0.0941065
    outer loop
      vertex 3.37319 2.5 -1.67387
      vertex 3.39329 -2.5 -1.88651
      vertex 3.37319 -2.5 -1.67387
    endloop
  endfacet
  facet normal 0.999506 0 -0.0314145
    outer loop
      vertex -3.39329 -2.5 -1.88651
      vertex -3.4 2.5 -2.1
      vertex -3.39329 2.5 -1.88651
    endloop
  endfacet
  facet normal 0.999506 0 -0.0314145
    outer loop
      vertex -3.4 2.5 -2.1
      vertex -3.39329 -2.5 -1.88651
      vertex -3.4 -2.5 -2.1
    endloop
  endfacet
  facet normal 0.0314148 0 -0.999506
    outer loop
      vertex -0.213488 -2.5 1.29329
      vertex 0 2.5 1.3
      vertex 0 -2.5 1.3
    endloop
  endfacet
  facet normal 0.0314148 0 -0.999506
    outer loop
      vertex 0 2.5 1.3
      vertex -0.213488 -2.5 1.29329
      vertex -0.213488 2.5 1.29329
    endloop
  endfacet
  facet normal -0.661309 0 -0.750113
    outer loop
      vertex 2.16724 -2.5 0.519745
      vertex 2.32746 2.5 0.378493
      vertex 2.32746 -2.5 0.378493
    endloop
  endfacet
  facet normal -0.661309 0 -0.750113
    outer loop
      vertex 2.32746 2.5 0.378493
      vertex 2.16724 -2.5 0.519745
      vertex 2.16724 2.5 0.519745
    endloop
  endfacet
  facet normal 0.707114 0 -0.7071
    outer loop
      vertex -2.32746 -2.5 0.378493
      vertex -2.47849 2.5 0.22746
      vertex -2.32746 2.5 0.378493
    endloop
  endfacet
  facet normal 0.707114 0 -0.7071
    outer loop
      vertex -2.47849 2.5 0.22746
      vertex -2.32746 -2.5 0.378493
      vertex -2.47849 -2.5 0.22746
    endloop
  endfacet
  facet normal -0.891004 0 -0.453995
    outer loop
      vertex 3.07641 -2.5 -0.652349
      vertex 2.97944 2.5 -0.462037
      vertex 3.07641 2.5 -0.652349
    endloop
  endfacet
  facet normal -0.891004 -0 -0.453995
    outer loop
      vertex 2.97944 2.5 -0.462037
      vertex 3.07641 -2.5 -0.652349
      vertex 2.97944 -2.5 -0.462037
    endloop
  endfacet
  facet normal 0.827097 0 -0.56206
    outer loop
      vertex -2.75066 -2.5 -0.10153
      vertex -2.87071 2.5 -0.278189
      vertex -2.75066 2.5 -0.10153
    endloop
  endfacet
  facet normal 0.827097 0 -0.56206
    outer loop
      vertex -2.87071 2.5 -0.278189
      vertex -2.75066 -2.5 -0.10153
      vertex -2.87071 -2.5 -0.278189
    endloop
  endfacet
  facet normal 0.218171 0 -0.975911
    outer loop
      vertex -0.845545 -2.5 1.19318
      vertex -0.637096 2.5 1.23978
      vertex -0.637096 -2.5 1.23978
    endloop
  endfacet
  facet normal 0.218171 0 -0.975911
    outer loop
      vertex -0.637096 2.5 1.23978
      vertex -0.845545 -2.5 1.19318
      vertex -0.845545 2.5 1.19318
    endloop
  endfacet
  facet normal -0.940883 0 -0.338732
    outer loop
      vertex 3.23359 -2.5 -1.04934
      vertex 3.16124 2.5 -0.848376
      vertex 3.23359 2.5 -1.04934
    endloop
  endfacet
  facet normal -0.940883 -0 -0.338732
    outer loop
      vertex 3.16124 2.5 -0.848376
      vertex 3.23359 -2.5 -1.04934
      vertex 3.16124 -2.5 -0.848376
    endloop
  endfacet
  facet normal -0.156419 0 -0.987691
    outer loop
      vertex 0.426132 -2.5 1.27319
      vertex 0.637096 2.5 1.23978
      vertex 0.637096 -2.5 1.23978
    endloop
  endfacet
  facet normal -0.156419 0 -0.987691
    outer loop
      vertex 0.637096 2.5 1.23978
      vertex 0.426132 -2.5 1.27319
      vertex 0.426132 2.5 1.27319
    endloop
  endfacet
  facet normal -0.0941047 0 -0.995562
    outer loop
      vertex 0.213488 -2.5 1.29329
      vertex 0.426132 2.5 1.27319
      vertex 0.426132 -2.5 1.27319
    endloop
  endfacet
  facet normal -0.0941047 0 -0.995562
    outer loop
      vertex 0.426132 2.5 1.27319
      vertex 0.213488 -2.5 1.29329
      vertex 0.213488 2.5 1.29329
    endloop
  endfacet
  facet normal 0.860737 0 -0.50905
    outer loop
      vertex -2.87071 -2.5 -0.278189
      vertex -2.97944 2.5 -0.462037
      vertex -2.87071 2.5 -0.278189
    endloop
  endfacet
  facet normal 0.860737 0 -0.50905
    outer loop
      vertex -2.97944 2.5 -0.462037
      vertex -2.87071 -2.5 -0.278189
      vertex -2.97944 -2.5 -0.462037
    endloop
  endfacet
  facet normal 0.975911 0 -0.21817
    outer loop
      vertex -3.29318 -2.5 -1.25445
      vertex -3.33978 2.5 -1.4629
      vertex -3.29318 2.5 -1.25445
    endloop
  endfacet
  facet normal 0.975911 0 -0.21817
    outer loop
      vertex -3.33978 2.5 -1.4629
      vertex -3.29318 -2.5 -1.25445
      vertex -3.33978 -2.5 -1.4629
    endloop
  endfacet
  facet normal 0.56208 0 -0.827083
    outer loop
      vertex -1.99847 -2.5 0.650658
      vertex -1.82181 2.5 0.770715
      vertex -1.82181 -2.5 0.770715
    endloop
  endfacet
  facet normal 0.56208 0 -0.827083
    outer loop
      vertex -1.82181 2.5 0.770715
      vertex -1.99847 -2.5 0.650658
      vertex -1.99847 2.5 0.650658
    endloop
  endfacet
  facet normal 0.156419 0 -0.987691
    outer loop
      vertex -0.637096 -2.5 1.23978
      vertex -0.426132 2.5 1.27319
      vertex -0.426132 -2.5 1.27319
    endloop
  endfacet
  facet normal 0.156419 0 -0.987691
    outer loop
      vertex -0.426132 2.5 1.27319
      vertex -0.637096 -2.5 1.23978
      vertex -0.637096 2.5 1.23978
    endloop
  endfacet
  facet normal -0.987691 0 -0.156415
    outer loop
      vertex 3.37319 -2.5 -1.67387
      vertex 3.33978 2.5 -1.4629
      vertex 3.37319 2.5 -1.67387
    endloop
  endfacet
  facet normal -0.987691 -0 -0.156415
    outer loop
      vertex 3.33978 2.5 -1.4629
      vertex 3.37319 -2.5 -1.67387
      vertex 3.33978 -2.5 -1.4629
    endloop
  endfacet
  facet normal -0.960294 0 -0.278991
    outer loop
      vertex 3.29318 -2.5 -1.25445
      vertex 3.23359 2.5 -1.04934
      vertex 3.29318 2.5 -1.25445
    endloop
  endfacet
  facet normal -0.960294 -0 -0.278991
    outer loop
      vertex 3.23359 2.5 -1.04934
      vertex 3.29318 -2.5 -1.25445
      vertex 3.23359 -2.5 -1.04934
    endloop
  endfacet
  facet normal -0.750116 0 -0.661306
    outer loop
      vertex 2.61974 -2.5 0.0672407
      vertex 2.47849 2.5 0.22746
      vertex 2.61974 2.5 0.0672407
    endloop
  endfacet
  facet normal -0.750116 -0 -0.661306
    outer loop
      vertex 2.47849 2.5 0.22746
      vertex 2.61974 -2.5 0.0672407
      vertex 2.47849 -2.5 0.22746
    endloop
  endfacet
  facet normal -0.790137 0 -0.612931
    outer loop
      vertex 2.75066 -2.5 -0.10153
      vertex 2.61974 2.5 0.0672407
      vertex 2.75066 2.5 -0.10153
    endloop
  endfacet
  facet normal -0.790137 -0 -0.612931
    outer loop
      vertex 2.61974 2.5 0.0672407
      vertex 2.75066 -2.5 -0.10153
      vertex 2.61974 -2.5 0.0672407
    endloop
  endfacet
  facet normal -0.218171 0 -0.975911
    outer loop
      vertex 0.637096 -2.5 1.23978
      vertex 0.845545 2.5 1.19318
      vertex 0.845545 -2.5 1.19318
    endloop
  endfacet
  facet normal -0.218171 0 -0.975911
    outer loop
      vertex 0.845545 2.5 1.19318
      vertex 0.637096 -2.5 1.23978
      vertex 0.637096 2.5 1.23978
    endloop
  endfacet
  facet normal -0.0314148 0 -0.999506
    outer loop
      vertex 0 -2.5 1.3
      vertex 0.213488 2.5 1.29329
      vertex 0.213488 -2.5 1.29329
    endloop
  endfacet
  facet normal -0.0314148 0 -0.999506
    outer loop
      vertex 0.213488 2.5 1.29329
      vertex 0 -2.5 1.3
      vertex 0 2.5 1.3
    endloop
  endfacet
  facet normal -0.338738 0 -0.940881
    outer loop
      vertex 1.05066 -2.5 1.13359
      vertex 1.25162 2.5 1.06124
      vertex 1.25162 -2.5 1.06124
    endloop
  endfacet
  facet normal -0.338738 0 -0.940881
    outer loop
      vertex 1.25162 2.5 1.06124
      vertex 1.05066 -2.5 1.13359
      vertex 1.05066 2.5 1.13359
    endloop
  endfacet
  facet normal -0.453999 0 -0.891002
    outer loop
      vertex 1.44765 -2.5 0.976412
      vertex 1.63796 2.5 0.879442
      vertex 1.63796 -2.5 0.879442
    endloop
  endfacet
  facet normal -0.453999 0 -0.891002
    outer loop
      vertex 1.63796 2.5 0.879442
      vertex 1.44765 -2.5 0.976412
      vertex 1.44765 2.5 0.976412
    endloop
  endfacet
  facet normal -0.509036 0 -0.860745
    outer loop
      vertex 1.63796 -2.5 0.879442
      vertex 1.82181 2.5 0.770715
      vertex 1.82181 -2.5 0.770715
    endloop
  endfacet
  facet normal -0.509036 0 -0.860745
    outer loop
      vertex 1.82181 2.5 0.770715
      vertex 1.63796 -2.5 0.879442
      vertex 1.63796 2.5 0.879442
    endloop
  endfacet
  facet normal 0.987691 0 -0.156415
    outer loop
      vertex -3.33978 -2.5 -1.4629
      vertex -3.37319 2.5 -1.67387
      vertex -3.33978 2.5 -1.4629
    endloop
  endfacet
  facet normal 0.987691 0 -0.156415
    outer loop
      vertex -3.37319 2.5 -1.67387
      vertex -3.33978 -2.5 -1.4629
      vertex -3.37319 -2.5 -1.67387
    endloop
  endfacet
  facet normal 0.790137 0 -0.612931
    outer loop
      vertex -2.61974 -2.5 0.0672407
      vertex -2.75066 2.5 -0.10153
      vertex -2.61974 2.5 0.0672407
    endloop
  endfacet
  facet normal 0.790137 0 -0.612931
    outer loop
      vertex -2.75066 2.5 -0.10153
      vertex -2.61974 -2.5 0.0672407
      vertex -2.75066 -2.5 -0.10153
    endloop
  endfacet
  facet normal 0.917752 0 -0.397154
    outer loop
      vertex -3.07641 -2.5 -0.652349
      vertex -3.16124 2.5 -0.848376
      vertex -3.07641 2.5 -0.652349
    endloop
  endfacet
  facet normal 0.917752 0 -0.397154
    outer loop
      vertex -3.16124 2.5 -0.848376
      vertex -3.07641 -2.5 -0.652349
      vertex -3.16124 -2.5 -0.848376
    endloop
  endfacet
  facet normal 0.940883 0 -0.338732
    outer loop
      vertex -3.16124 -2.5 -0.848376
      vertex -3.23359 2.5 -1.04934
      vertex -3.16124 2.5 -0.848376
    endloop
  endfacet
  facet normal 0.940883 0 -0.338732
    outer loop
      vertex -3.23359 2.5 -1.04934
      vertex -3.16124 -2.5 -0.848376
      vertex -3.23359 -2.5 -1.04934
    endloop
  endfacet
  facet normal 0.612912 0 -0.790151
    outer loop
      vertex -2.16724 -2.5 0.519745
      vertex -1.99847 2.5 0.650658
      vertex -1.99847 -2.5 0.650658
    endloop
  endfacet
  facet normal 0.612912 0 -0.790151
    outer loop
      vertex -1.99847 2.5 0.650658
      vertex -2.16724 -2.5 0.519745
      vertex -2.16724 2.5 0.519745
    endloop
  endfacet
  facet normal 0.509036 0 -0.860745
    outer loop
      vertex -1.82181 -2.5 0.770715
      vertex -1.63796 2.5 0.879442
      vertex -1.63796 -2.5 0.879442
    endloop
  endfacet
  facet normal 0.509036 0 -0.860745
    outer loop
      vertex -1.63796 2.5 0.879442
      vertex -1.82181 -2.5 0.770715
      vertex -1.82181 2.5 0.770715
    endloop
  endfacet
  facet normal 0.397141 0 -0.917758
    outer loop
      vertex -1.44765 -2.5 0.976412
      vertex -1.25162 2.5 1.06124
      vertex -1.25162 -2.5 1.06124
    endloop
  endfacet
  facet normal 0.397141 0 -0.917758
    outer loop
      vertex -1.25162 2.5 1.06124
      vertex -1.44765 -2.5 0.976412
      vertex -1.44765 2.5 0.976412
    endloop
  endfacet
  facet normal 0.278985 0 -0.960295
    outer loop
      vertex -1.05066 -2.5 1.13359
      vertex -0.845545 2.5 1.19318
      vertex -0.845545 -2.5 1.19318
    endloop
  endfacet
  facet normal 0.278985 0 -0.960295
    outer loop
      vertex -0.845545 2.5 1.19318
      vertex -1.05066 -2.5 1.13359
      vertex -1.05066 2.5 1.13359
    endloop
  endfacet
  facet normal 0.0941047 0 -0.995562
    outer loop
      vertex -0.426132 -2.5 1.27319
      vertex -0.213488 2.5 1.29329
      vertex -0.213488 -2.5 1.29329
    endloop
  endfacet
  facet normal 0.0941047 0 -0.995562
    outer loop
      vertex -0.213488 2.5 1.29329
      vertex -0.426132 -2.5 1.27319
      vertex -0.426132 2.5 1.27319
    endloop
  endfacet
  facet normal 0.999506 -0 0.0314145
    outer loop
      vertex -3.4 -2.5 -2.1
      vertex -3.39329 2.5 -2.31349
      vertex -3.4 2.5 -2.1
    endloop
  endfacet
  facet normal 0.999506 0 0.0314145
    outer loop
      vertex -3.39329 2.5 -2.31349
      vertex -3.4 -2.5 -2.1
      vertex -3.39329 -2.5 -2.31349
    endloop
  endfacet
  facet normal -0.975911 0 -0.21817
    outer loop
      vertex 3.33978 -2.5 -1.4629
      vertex 3.29318 2.5 -1.25445
      vertex 3.33978 2.5 -1.4629
    endloop
  endfacet
  facet normal -0.975911 -0 -0.21817
    outer loop
      vertex 3.29318 2.5 -1.25445
      vertex 3.33978 -2.5 -1.4629
      vertex 3.29318 -2.5 -1.25445
    endloop
  endfacet
  facet normal -0.917752 0 -0.397154
    outer loop
      vertex 3.16124 -2.5 -0.848376
      vertex 3.07641 2.5 -0.652349
      vertex 3.16124 2.5 -0.848376
    endloop
  endfacet
  facet normal -0.917752 -0 -0.397154
    outer loop
      vertex 3.07641 2.5 -0.652349
      vertex 3.16124 -2.5 -0.848376
      vertex 3.07641 -2.5 -0.652349
    endloop
  endfacet
  facet normal -0.707114 0 -0.7071
    outer loop
      vertex 2.47849 -2.5 0.22746
      vertex 2.32746 2.5 0.378493
      vertex 2.47849 2.5 0.22746
    endloop
  endfacet
  facet normal -0.707114 -0 -0.7071
    outer loop
      vertex 2.32746 2.5 0.378493
      vertex 2.47849 -2.5 0.22746
      vertex 2.32746 -2.5 0.378493
    endloop
  endfacet
  facet normal -0.860737 0 -0.50905
    outer loop
      vertex 2.97944 -2.5 -0.462037
      vertex 2.87071 2.5 -0.278189
      vertex 2.97944 2.5 -0.462037
    endloop
  endfacet
  facet normal -0.860737 -0 -0.50905
    outer loop
      vertex 2.87071 2.5 -0.278189
      vertex 2.97944 -2.5 -0.462037
      vertex 2.87071 -2.5 -0.278189
    endloop
  endfacet
  facet normal -0.827097 0 -0.56206
    outer loop
      vertex 2.87071 -2.5 -0.278189
      vertex 2.75066 2.5 -0.10153
      vertex 2.87071 2.5 -0.278189
    endloop
  endfacet
  facet normal -0.827097 -0 -0.56206
    outer loop
      vertex 2.75066 2.5 -0.10153
      vertex 2.87071 -2.5 -0.278189
      vertex 2.75066 -2.5 -0.10153
    endloop
  endfacet
  facet normal -0.278985 0 -0.960295
    outer loop
      vertex 0.845545 -2.5 1.19318
      vertex 1.05066 2.5 1.13359
      vertex 1.05066 -2.5 1.13359
    endloop
  endfacet
  facet normal -0.278985 0 -0.960295
    outer loop
      vertex 1.05066 2.5 1.13359
      vertex 0.845545 -2.5 1.19318
      vertex 0.845545 2.5 1.19318
    endloop
  endfacet
  facet normal -0.397141 0 -0.917758
    outer loop
      vertex 1.25162 -2.5 1.06124
      vertex 1.44765 2.5 0.976412
      vertex 1.44765 -2.5 0.976412
    endloop
  endfacet
  facet normal -0.397141 0 -0.917758
    outer loop
      vertex 1.44765 2.5 0.976412
      vertex 1.25162 -2.5 1.06124
      vertex 1.25162 2.5 1.06124
    endloop
  endfacet
  facet normal -0.612912 0 -0.790151
    outer loop
      vertex 1.99847 -2.5 0.650658
      vertex 2.16724 2.5 0.519745
      vertex 2.16724 -2.5 0.519745
    endloop
  endfacet
  facet normal -0.612912 0 -0.790151
    outer loop
      vertex 2.16724 2.5 0.519745
      vertex 1.99847 -2.5 0.650658
      vertex 1.99847 2.5 0.650658
    endloop
  endfacet
  facet normal -0.56208 0 -0.827083
    outer loop
      vertex 1.82181 -2.5 0.770715
      vertex 1.99847 2.5 0.650658
      vertex 1.99847 -2.5 0.650658
    endloop
  endfacet
  facet normal -0.56208 0 -0.827083
    outer loop
      vertex 1.99847 2.5 0.650658
      vertex 1.82181 -2.5 0.770715
      vertex 1.82181 2.5 0.770715
    endloop
  endfacet
  facet normal 0.750116 0 -0.661306
    outer loop
      vertex -2.47849 -2.5 0.22746
      vertex -2.61974 2.5 0.0672407
      vertex -2.47849 2.5 0.22746
    endloop
  endfacet
  facet normal 0.750116 0 -0.661306
    outer loop
      vertex -2.61974 2.5 0.0672407
      vertex -2.47849 -2.5 0.22746
      vertex -2.61974 -2.5 0.0672407
    endloop
  endfacet
  facet normal 0.891004 0 -0.453995
    outer loop
      vertex -2.97944 -2.5 -0.462037
      vertex -3.07641 2.5 -0.652349
      vertex -2.97944 2.5 -0.462037
    endloop
  endfacet
  facet normal 0.891004 0 -0.453995
    outer loop
      vertex -3.07641 2.5 -0.652349
      vertex -2.97944 -2.5 -0.462037
      vertex -3.07641 -2.5 -0.652349
    endloop
  endfacet
  facet normal 0.960294 0 -0.278991
    outer loop
      vertex -3.23359 -2.5 -1.04934
      vertex -3.29318 2.5 -1.25445
      vertex -3.23359 2.5 -1.04934
    endloop
  endfacet
  facet normal 0.960294 0 -0.278991
    outer loop
      vertex -3.29318 2.5 -1.25445
      vertex -3.23359 -2.5 -1.04934
      vertex -3.29318 -2.5 -1.25445
    endloop
  endfacet
  facet normal 0.995562 0 -0.0941065
    outer loop
      vertex -3.37319 -2.5 -1.67387
      vertex -3.39329 2.5 -1.88651
      vertex -3.37319 2.5 -1.67387
    endloop
  endfacet
  facet normal 0.995562 0 -0.0941065
    outer loop
      vertex -3.39329 2.5 -1.88651
      vertex -3.37319 -2.5 -1.67387
      vertex -3.39329 -2.5 -1.88651
    endloop
  endfacet
  facet normal 0.661309 0 -0.750113
    outer loop
      vertex -2.32746 -2.5 0.378493
      vertex -2.16724 2.5 0.519745
      vertex -2.16724 -2.5 0.519745
    endloop
  endfacet
  facet normal 0.661309 0 -0.750113
    outer loop
      vertex -2.16724 2.5 0.519745
      vertex -2.32746 -2.5 0.378493
      vertex -2.32746 2.5 0.378493
    endloop
  endfacet
  facet normal 0.453999 0 -0.891002
    outer loop
      vertex -1.63796 -2.5 0.879442
      vertex -1.44765 2.5 0.976412
      vertex -1.44765 -2.5 0.976412
    endloop
  endfacet
  facet normal 0.453999 0 -0.891002
    outer loop
      vertex -1.44765 2.5 0.976412
      vertex -1.63796 -2.5 0.879442
      vertex -1.63796 2.5 0.879442
    endloop
  endfacet
  facet normal 0.338738 0 -0.940881
    outer loop
      vertex -1.25162 -2.5 1.06124
      vertex -1.05066 2.5 1.13359
      vertex -1.05066 -2.5 1.13359
    endloop
  endfacet
  facet normal 0.338738 0 -0.940881
    outer loop
      vertex -1.05066 2.5 1.13359
      vertex -1.25162 -2.5 1.06124
      vertex -1.25162 2.5 1.06124
    endloop
  endfacet
  facet normal -0.995562 0 0.0941063
    outer loop
      vertex 3.37566 -2.5 -2.5
      vertex 3.39329 2.5 -2.31349
      vertex 3.37566 2.5 -2.5
    endloop
  endfacet
  facet normal -0.995562 0 0.0941063
    outer loop
      vertex 3.39329 2.5 -2.31349
      vertex 3.37566 -2.5 -2.5
      vertex 3.39329 -2.5 -2.31349
    endloop
  endfacet
  facet normal -0.999506 0 0.0314145
    outer loop
      vertex 3.39329 -2.5 -2.31349
      vertex 3.4 2.5 -2.1
      vertex 3.39329 2.5 -2.31349
    endloop
  endfacet
  facet normal -0.999506 0 0.0314145
    outer loop
      vertex 3.4 2.5 -2.1
      vertex 3.39329 -2.5 -2.31349
      vertex 3.4 -2.5 -2.1
    endloop
  endfacet
  facet normal 0.995562 -0 0.0941063
    outer loop
      vertex -3.39329 -2.5 -2.31349
      vertex -3.37566 2.5 -2.5
      vertex -3.39329 2.5 -2.31349
    endloop
  endfacet
  facet normal 0.995562 0 0.0941063
    outer loop
      vertex -3.37566 2.5 -2.5
      vertex -3.39329 -2.5 -2.31349
      vertex -3.37566 -2.5 -2.5
    endloop
  endfacet
endsolid OpenSCAD_Model
