solid OpenSCAD_Model
  facet normal -1 0 0
    outer loop
      vertex -5 -2.5 -2.5
      vertex -5 2.5 2.5
      vertex -5 2.5 -2.5
    endloop
  endfacet
  facet normal -1 -0 0
    outer loop
      vertex -5 2.5 2.5
      vertex -5 -2.5 -2.5
      vertex -5 -2.5 2.5
    endloop
  endfacet
  facet normal -0 0 1
    outer loop
      vertex -5 2.5 2.5
      vertex 5 -2.5 2.5
      vertex 5 2.5 2.5
    endloop
  endfacet
  facet normal 0 0 1
    outer loop
      vertex 5 -2.5 2.5
      vertex -5 2.5 2.5
      vertex -5 -2.5 2.5
    endloop
  endfacet
  facet normal 1 -0 0
    outer loop
      vertex 5 -2.5 2.5
      vertex 5 2.5 -2.5
      vertex 5 2.5 2.5
    endloop
  endfacet
  facet normal 1 0 0
    outer loop
      vertex 5 2.5 -2.5
      vertex 5 -2.5 2.5
      vertex 5 -2.5 -2.5
    endloop
  endfacet
  facet normal 0 0 -1
    outer loop
      vertex -5 -2.5 -2.5
      vertex -3.79371 2.5 -2.5
      vertex -3.79371 -2.5 -2.5
    endloop
  endfacet
  facet normal -0 0 -1
    outer loop
      vertex -3.79371 2.5 -2.5
      vertex -5 -2.5 -2.5
      vertex -5 2.5 -2.5
    endloop
  endfacet
  facet normal 0 0 -1
    outer loop
      vertex 3.79371 -2.5 -2.5
      vertex 5 2.5 -2.5
      vertex 5 -2.5 -2.5
    endloop
  endfacet
  facet normal -0 0 -1
    outer loop
      vertex 5 2.5 -2.5
      vertex 3.79371 -2.5 -2.5
      vertex 3.79371 2.5 -2.5
    endloop
  endfacet
  facet normal 0 -1 0
    outer loop
      vertex -5 -2.5 2.5
      vertex 0 -2.5 1.5
      vertex 5 -2.5 2.5
    endloop
  endfacet
  facet normal 0 -1 0
    outer loop
      vertex -5 -2.5 2.5
      vertex -0.238604 -2.5 1.4925
      vertex 0 -2.5 1.5
    endloop
  endfacet
  facet normal 0 -1 0
    outer loop
      vertex -5 -2.5 2.5
      vertex -0.476266 -2.5 1.47004
      vertex -0.238604 -2.5 1.4925
    endloop
  endfacet
  facet normal 0 -1 0
    outer loop
      vertex -5 -2.5 2.5
      vertex -0.712049 -2.5 1.43269
      vertex -0.476266 -2.5 1.47004
    endloop
  endfacet
  facet normal 0 -1 0
    outer loop
      vertex -5 -2.5 2.5
      vertex -0.945021 -2.5 1.38062
      vertex -0.712049 -2.5 1.43269
    endloop
  endfacet
  facet normal 0 -1 0
    outer loop
      vertex -5 -2.5 2.5
      vertex -1.17426 -2.5 1.31401
      vertex -0.945021 -2.5 1.38062
    endloop
  endfacet
  facet normal 0 -1 0
    outer loop
      vertex -5 -2.5 2.5
      vertex -1.39887 -2.5 1.23315
      vertex -1.17426 -2.5 1.31401
    endloop
  endfacet
  facet normal 0 -1 0
    outer loop
      vertex -5 -2.5 2.5
      vertex -1.61796 -2.5 1.13834
      vertex -1.39887 -2.5 1.23315
    endloop
  endfacet
  facet normal 0 -1 0
    outer loop
      vertex -5 -2.5 2.5
      vertex -1.83066 -2.5 1.02996
      vertex -1.61796 -2.5 1.13834
    endloop
  endfacet
  facet normal 0 -1 0
    outer loop
      vertex -5 -2.5 2.5
      vertex -2.03614 -2.5 0.908445
      vertex -1.83066 -2.5 1.02996
    endloop
  endfacet
  facet normal 0 -1 0
    outer loop
      vertex -5 -2.5 2.5
      vertex -2.23358 -2.5 0.774264
      vertex -2.03614 -2.5 0.908445
    endloop
  endfacet
  facet normal 0 -1 0
    outer loop
      vertex -5 -2.5 2.5
      vertex -2.42221 -2.5 0.62795
      vertex -2.23358 -2.5 0.774264
    endloop
  endfacet
  facet normal 0 -1 0
    outer loop
      vertex -5 -2.5 2.5
      vertex -2.60128 -2.5 0.47008
      vertex -2.42221 -2.5 0.62795
    endloop
  endfacet
  facet normal 0 -1 0
    outer loop
      vertex -5 -2.5 2.5
      vertex -2.77008 -2.5 0.301278
      vertex -2.60128 -2.5 0.47008
    endloop
  endfacet
  facet normal 0 -1 0
    outer loop
      vertex -5 -2.5 2.5
      vertex -2.92795 -2.5 0.122211
      vertex -2.77008 -2.5 0.301278
    endloop
  endfacet
  facet normal 0 -1 0
    outer loop
      vertex -5 -2.5 2.5
      vertex -3.07426 -2.5 -0.0664158
      vertex -2.92795 -2.5 0.122211
    endloop
  endfacet
  facet normal 0 -1 0
    outer loop
      vertex -5 -2.5 2.5
      vertex -3.20845 -2.5 -0.263858
      vertex -3.07426 -2.5 -0.0664158
    endloop
  endfacet
  facet normal 0 -1 0
    outer loop
      vertex -5 -2.5 2.5
      vertex -3.32996 -2.5 -0.469336
      vertex -3.20845 -2.5 -0.263858
    endloop
  endfacet
  facet normal 0 -1 0
    outer loop
      vertex -5 -2.5 2.5
      vertex -3.43834 -2.5 -0.682038
      vertex -3.32996 -2.5 -0.469336
    endloop
  endfacet
  facet normal 0 -1 0
    outer loop
      vertex -5 -2.5 2.5
      vertex -3.53315 -2.5 -0.901126
      vertex -3.43834 -2.5 -0.682038
    endloop
  endfacet
  facet normal 0 -1 0
    outer loop
      vertex -5 -2.5 -2.5
      vertex -3.53315 -2.5 -0.901126
      vertex -5 -2.5 2.5
    endloop
  endfacet
  facet normal 0 -1 0
    outer loop
      vertex -3.53315 -2.5 -0.901126
      vertex -5 -2.5 -2.5
      vertex -3.61401 -2.5 -1.12574
    endloop
  endfacet
  facet normal 0 -1 0
    outer loop
      vertex -3.61401 -2.5 -1.12574
      vertex -5 -2.5 -2.5
      vertex -3.68062 -2.5 -1.35498
    endloop
  endfacet
  facet normal 0 -1 0
    outer loop
      vertex -3.68062 -2.5 -1.35498
      vertex -5 -2.5 -2.5
      vertex -3.73269 -2.5 -1.58795
    endloop
  endfacet
  facet normal 0 -1 0
    outer loop
      vertex -3.73269 -2.5 -1.58795
      vertex -5 -2.5 -2.5
      vertex -3.77004 -2.5 -1.82373
    endloop
  endfacet
  facet normal 0 -1 0
    outer loop
      vertex -3.77004 -2.5 -1.82373
      vertex -5 -2.5 -2.5
      vertex -3.7925 -2.5 -2.0614
    endloop
  endfacet
  facet normal 0 -1 0
    outer loop
      vertex -3.7925 -2.5 -2.0614
      vertex -5 -2.5 -2.5
      vertex -3.8 -2.5 -2.3
    endloop
  endfacet
  facet normal 0 -1 -0
    outer loop
      vertex -3.8 -2.5 -2.3
      vertex -5 -2.5 -2.5
      vertex -3.79371 -2.5 -2.5
    endloop
  endfacet
  facet normal 0 -1 0
    outer loop
      vertex 0.238604 -2.5 1.4925
      vertex 5 -2.5 2.5
      vertex 0 -2.5 1.5
    endloop
  endfacet
  facet normal 0 -1 0
    outer loop
      vertex 0.476266 -2.5 1.47004
      vertex 5 -2.5 2.5
      vertex 0.238604 -2.5 1.4925
    endloop
  endfacet
  facet normal 0 -1 0
    outer loop
      vertex 0.712049 -2.5 1.43269
      vertex 5 -2.5 2.5
      vertex 0.476266 -2.5 1.47004
    endloop
  endfacet
  facet normal 0 -1 0
    outer loop
      vertex 0.945021 -2.5 1.38062
      vertex 5 -2.5 2.5
      vertex 0.712049 -2.5 1.43269
    endloop
  endfacet
  facet normal 0 -1 0
    outer loop
      vertex 1.17426 -2.5 1.31401
      vertex 5 -2.5 2.5
      vertex 0.945021 -2.5 1.38062
    endloop
  endfacet
  facet normal 0 -1 0
    outer loop
      vertex 1.39887 -2.5 1.23315
      vertex 5 -2.5 2.5
      vertex 1.17426 -2.5 1.31401
    endloop
  endfacet
  facet normal 0 -1 0
    outer loop
      vertex 1.61796 -2.5 1.13834
      vertex 5 -2.5 2.5
      vertex 1.39887 -2.5 1.23315
    endloop
  endfacet
  facet normal 0 -1 0
    outer loop
      vertex 1.83066 -2.5 1.02996
      vertex 5 -2.5 2.5
      vertex 1.61796 -2.5 1.13834
    endloop
  endfacet
  facet normal 0 -1 0
    outer loop
      vertex 2.03614 -2.5 0.908445
      vertex 5 -2.5 2.5
      vertex 1.83066 -2.5 1.02996
    endloop
  endfacet
  facet normal 0 -1 0
    outer loop
      vertex 2.23358 -2.5 0.774264
      vertex 5 -2.5 2.5
      vertex 2.03614 -2.5 0.908445
    endloop
  endfacet
  facet normal 0 -1 0
    outer loop
      vertex 2.42221 -2.5 0.62795
      vertex 5 -2.5 2.5
      vertex 2.23358 -2.5 0.774264
    endloop
  endfacet
  facet normal 0 -1 0
    outer loop
      vertex 2.60128 -2.5 0.47008
      vertex 5 -2.5 2.5
      vertex 2.42221 -2.5 0.62795
    endloop
  endfacet
  facet normal 0 -1 0
    outer loop
      vertex 2.77008 -2.5 0.301278
      vertex 5 -2.5 2.5
      vertex 2.60128 -2.5 0.47008
    endloop
  endfacet
  facet normal 0 -1 0
    outer loop
      vertex 2.92795 -2.5 0.122211
      vertex 5 -2.5 2.5
      vertex 2.77008 -2.5 0.301278
    endloop
  endfacet
  facet normal 0 -1 0
    outer loop
      vertex 3.07426 -2.5 -0.0664158
      vertex 5 -2.5 2.5
      vertex 2.92795 -2.5 0.122211
    endloop
  endfacet
  facet normal 0 -1 0
    outer loop
      vertex 3.20845 -2.5 -0.263858
      vertex 5 -2.5 2.5
      vertex 3.07426 -2.5 -0.0664158
    endloop
  endfacet
  facet normal 0 -1 0
    outer loop
      vertex 3.32996 -2.5 -0.469336
      vertex 5 -2.5 2.5
      vertex 3.20845 -2.5 -0.263858
    endloop
  endfacet
  facet normal 0 -1 0
    outer loop
      vertex 3.43834 -2.5 -0.682038
      vertex 5 -2.5 2.5
      vertex 3.32996 -2.5 -0.469336
    endloop
  endfacet
  facet normal 0 -1 0
    outer loop
      vertex 3.53315 -2.5 -0.901126
      vertex 5 -2.5 2.5
      vertex 3.43834 -2.5 -0.682038
    endloop
  endfacet
  facet normal 0 -1 0
    outer loop
      vertex 5 -2.5 -2.5
      vertex 3.53315 -2.5 -0.901126
      vertex 3.61401 -2.5 -1.12574
    endloop
  endfacet
  facet normal 0 -1 0
    outer loop
      vertex 5 -2.5 -2.5
      vertex 3.61401 -2.5 -1.12574
      vertex 3.68062 -2.5 -1.35498
    endloop
  endfacet
  facet normal 0 -1 0
    outer loop
      vertex 5 -2.5 -2.5
      vertex 3.68062 -2.5 -1.35498
      vertex 3.73269 -2.5 -1.58795
    endloop
  endfacet
  facet normal 0 -1 0
    outer loop
      vertex 5 -2.5 -2.5
      vertex 3.73269 -2.5 -1.58795
      vertex 3.77004 -2.5 -1.82373
    endloop
  endfacet
  facet normal 0 -1 0
    outer loop
      vertex 5 -2.5 -2.5
      vertex 3.77004 -2.5 -1.82373
      vertex 3.7925 -2.5 -2.0614
    endloop
  endfacet
  facet normal 0 -1 0
    outer loop
      vertex 5 -2.5 -2.5
      vertex 3.7925 -2.5 -2.0614
      vertex 3.8 -2.5 -2.3
    endloop
  endfacet
  facet normal 0 -1 0
    outer loop
      vertex 5 -2.5 -2.5
      vertex 3.8 -2.5 -2.3
      vertex 3.79371 -2.5 -2.5
    endloop
  endfacet
  facet normal 0 -1 0
    outer loop
      vertex 3.53315 -2.5 -0.901126
      vertex 5 -2.5 -2.5
      vertex 5 -2.5 2.5
    endloop
  endfacet
  facet normal 0 1 0
    outer loop
      vertex 5 2.5 2.5
      vertex 0 2.5 1.5
      vertex -5 2.5 2.5
    endloop
  endfacet
  facet normal 0 1 0
    outer loop
      vertex 5 2.5 2.5
      vertex 0.238604 2.5 1.4925
      vertex 0 2.5 1.5
    endloop
  endfacet
  facet normal 0 1 0
    outer loop
      vertex 5 2.5 2.5
      vertex 0.476266 2.5 1.47004
      vertex 0.238604 2.5 1.4925
    endloop
  endfacet
  facet normal 0 1 0
    outer loop
      vertex 5 2.5 2.5
      vertex 0.712049 2.5 1.43269
      vertex 0.476266 2.5 1.47004
    endloop
  endfacet
  facet normal 0 1 0
    outer loop
      vertex 5 2.5 2.5
      vertex 0.945021 2.5 1.38062
      vertex 0.712049 2.5 1.43269
    endloop
  endfacet
  facet normal 0 1 0
    outer loop
      vertex 5 2.5 2.5
      vertex 1.17426 2.5 1.31401
      vertex 0.945021 2.5 1.38062
    endloop
  endfacet
  facet normal 0 1 0
    outer loop
      vertex 5 2.5 2.5
      vertex 1.39887 2.5 1.23315
      vertex 1.17426 2.5 1.31401
    endloop
  endfacet
  facet normal 0 1 0
    outer loop
      vertex 5 2.5 2.5
      vertex 1.61796 2.5 1.13834
      vertex 1.39887 2.5 1.23315
    endloop
  endfacet
  facet normal 0 1 0
    outer loop
      vertex 5 2.5 2.5
      vertex 1.83066 2.5 1.02996
      vertex 1.61796 2.5 1.13834
    endloop
  endfacet
  facet normal 0 1 0
    outer loop
      vertex 5 2.5 2.5
      vertex 2.03614 2.5 0.908445
      vertex 1.83066 2.5 1.02996
    endloop
  endfacet
  facet normal 0 1 0
    outer loop
      vertex 5 2.5 2.5
      vertex 2.23358 2.5 0.774264
      vertex 2.03614 2.5 0.908445
    endloop
  endfacet
  facet normal 0 1 0
    outer loop
      vertex 5 2.5 2.5
      vertex 2.42221 2.5 0.62795
      vertex 2.23358 2.5 0.774264
    endloop
  endfacet
  facet normal 0 1 0
    outer loop
      vertex 5 2.5 2.5
      vertex 2.60128 2.5 0.47008
      vertex 2.42221 2.5 0.62795
    endloop
  endfacet
  facet normal 0 1 0
    outer loop
      vertex 5 2.5 2.5
      vertex 2.77008 2.5 0.301278
      vertex 2.60128 2.5 0.47008
    endloop
  endfacet
  facet normal 0 1 0
    outer loop
      vertex 5 2.5 2.5
      vertex 2.92795 2.5 0.122211
      vertex 2.77008 2.5 0.301278
    endloop
  endfacet
  facet normal 0 1 0
    outer loop
      vertex 5 2.5 2.5
      vertex 3.07426 2.5 -0.0664158
      vertex 2.92795 2.5 0.122211
    endloop
  endfacet
  facet normal 0 1 0
    outer loop
      vertex 5 2.5 2.5
      vertex 3.20845 2.5 -0.263858
      vertex 3.07426 2.5 -0.0664158
    endloop
  endfacet
  facet normal 0 1 0
    outer loop
      vertex 5 2.5 2.5
      vertex 3.32996 2.5 -0.469336
      vertex 3.20845 2.5 -0.263858
    endloop
  endfacet
  facet normal 0 1 0
    outer loop
      vertex 5 2.5 2.5
      vertex 3.43834 2.5 -0.682038
      vertex 3.32996 2.5 -0.469336
    endloop
  endfacet
  facet normal 0 1 0
    outer loop
      vertex 5 2.5 2.5
      vertex 3.53315 2.5 -0.901126
      vertex 3.43834 2.5 -0.682038
    endloop
  endfacet
  facet normal 0 1 -0
    outer loop
      vertex 5 2.5 -2.5
      vertex 3.53315 2.5 -0.901126
      vertex 5 2.5 2.5
    endloop
  endfacet
  facet normal 0 1 0
    outer loop
      vertex 3.53315 2.5 -0.901126
      vertex 5 2.5 -2.5
      vertex 3.61401 2.5 -1.12574
    endloop
  endfacet
  facet normal 0 1 0
    outer loop
      vertex 3.61401 2.5 -1.12574
      vertex 5 2.5 -2.5
      vertex 3.68062 2.5 -1.35498
    endloop
  endfacet
  facet normal 0 1 0
    outer loop
      vertex 3.68062 2.5 -1.35498
      vertex 5 2.5 -2.5
      vertex 3.73269 2.5 -1.58795
    endloop
  endfacet
  facet normal 0 1 0
    outer loop
      vertex 3.73269 2.5 -1.58795
      vertex 5 2.5 -2.5
      vertex 3.77004 2.5 -1.82373
    endloop
  endfacet
  facet normal 0 1 0
    outer loop
      vertex 3.77004 2.5 -1.82373
      vertex 5 2.5 -2.5
      vertex 3.7925 2.5 -2.0614
    endloop
  endfacet
  facet normal 0 1 0
    outer loop
      vertex 3.7925 2.5 -2.0614
      vertex 5 2.5 -2.5
      vertex 3.8 2.5 -2.3
    endloop
  endfacet
  facet normal 0 1 0
    outer loop
      vertex 3.8 2.5 -2.3
      vertex 5 2.5 -2.5
      vertex 3.79371 2.5 -2.5
    endloop
  endfacet
  facet normal 0 1 -0
    outer loop
      vertex -0.238604 2.5 1.4925
      vertex -5 2.5 2.5
      vertex 0 2.5 1.5
    endloop
  endfacet
  facet normal 0 1 -0
    outer loop
      vertex -0.476266 2.5 1.47004
      vertex -5 2.5 2.5
      vertex -0.238604 2.5 1.4925
    endloop
  endfacet
  facet normal 0 1 -0
    outer loop
      vertex -0.712049 2.5 1.43269
      vertex -5 2.5 2.5
      vertex -0.476266 2.5 1.47004
    endloop
  endfacet
  facet normal 0 1 -0
    outer loop
      vertex -0.945021 2.5 1.38062
      vertex -5 2.5 2.5
      vertex -0.712049 2.5 1.43269
    endloop
  endfacet
  facet normal 0 1 -0
    outer loop
      vertex -1.17426 2.5 1.31401
      vertex -5 2.5 2.5
      vertex -0.945021 2.5 1.38062
    endloop
  endfacet
  facet normal 0 1 -0
    outer loop
      vertex -1.39887 2.5 1.23315
      vertex -5 2.5 2.5
      vertex -1.17426 2.5 1.31401
    endloop
  endfacet
  facet normal 0 1 -0
    outer loop
      vertex -1.61796 2.5 1.13834
      vertex -5 2.5 2.5
      vertex -1.39887 2.5 1.23315
    endloop
  endfacet
  facet normal 0 1 -0
    outer loop
      vertex -1.83066 2.5 1.02996
      vertex -5 2.5 2.5
      vertex -1.61796 2.5 1.13834
    endloop
  endfacet
  facet normal 0 1 -0
    outer loop
      vertex -2.03614 2.5 0.908445
      vertex -5 2.5 2.5
      vertex -1.83066 2.5 1.02996
    endloop
  endfacet
  facet normal 0 1 -0
    outer loop
      vertex -2.23358 2.5 0.774264
      vertex -5 2.5 2.5
      vertex -2.03614 2.5 0.908445
    endloop
  endfacet
  facet normal 0 1 -0
    outer loop
      vertex -2.42221 2.5 0.62795
      vertex -5 2.5 2.5
      vertex -2.23358 2.5 0.774264
    endloop
  endfacet
  facet normal 0 1 -0
    outer loop
      vertex -2.60128 2.5 0.47008
      vertex -5 2.5 2.5
      vertex -2.42221 2.5 0.62795
    endloop
  endfacet
  facet normal 0 1 -0
    outer loop
      vertex -2.77008 2.5 0.301278
      vertex -5 2.5 2.5
      vertex -2.60128 2.5 0.47008
    endloop
  endfacet
  facet normal 0 1 -0
    outer loop
      vertex -2.92795 2.5 0.122211
      vertex -5 2.5 2.5
      vertex -2.77008 2.5 0.301278
    endloop
  endfacet
  facet normal 0 1 -0
    outer loop
      vertex -3.07426 2.5 -0.0664158
      vertex -5 2.5 2.5
      vertex -2.92795 2.5 0.122211
    endloop
  endfacet
  facet normal 0 1 -0
    outer loop
      vertex -3.20845 2.5 -0.263858
      vertex -5 2.5 2.5
      vertex -3.07426 2.5 -0.0664158
    endloop
  endfacet
  facet normal 0 1 -0
    outer loop
      vertex -3.32996 2.5 -0.469336
      vertex -5 2.5 2.5
      vertex -3.20845 2.5 -0.263858
    endloop
  endfacet
  facet normal 0 1 -0
    outer loop
      vertex -3.43834 2.5 -0.682038
      vertex -5 2.5 2.5
      vertex -3.32996 2.5 -0.469336
    endloop
  endfacet
  facet normal 0 1 -0
    outer loop
      vertex -3.53315 2.5 -0.901126
      vertex -5 2.5 2.5
      vertex -3.43834 2.5 -0.682038
    endloop
  endfacet
  facet normal 0 1 0
    outer loop
      vertex -5 2.5 -2.5
      vertex -3.53315 2.5 -0.901126
      vertex -3.61401 2.5 -1.12574
    endloop
  endfacet
  facet normal 0 1 0
    outer loop
      vertex -5 2.5 -2.5
      vertex -3.61401 2.5 -1.12574
      vertex -3.68062 2.5 -1.35498
    endloop
  endfacet
  facet normal 0 1 0
    outer loop
      vertex -5 2.5 -2.5
      vertex -3.68062 2.5 -1.35498
      vertex -3.73269 2.5 -1.58795
    endloop
  endfacet
  facet normal 0 1 0
    outer loop
      vertex -5 2.5 -2.5
      vertex -3.73269 2.5 -1.58795
      vertex -3.77004 2.5 -1.82373
    endloop
  endfacet
  facet normal 0 1 0
    outer loop
      vertex -5 2.5 -2.5
      vertex -3.77004 2.5 -1.82373
      vertex -3.7925 2.5 -2.0614
    endloop
  endfacet
  facet normal 0 1 0
    outer loop
      vertex -5 2.5 -2.5
      vertex -3.7925 2.5 -2.0614
      vertex -3.8 2.5 -2.3
    endloop
  endfacet
  facet normal 0 1 0
    outer loop
      vertex -5 2.5 -2.5
      vertex -3.8 2.5 -2.3
      vertex -3.79371 2.5 -2.5
    endloop
  endfacet
  facet normal 0 1 0
    outer loop
      vertex -3.53315 2.5 -0.901126
      vertex -5 2.5 -2.5
      vertex -5 2.5 2.5
    endloop
  endfacet
  facet normal -0.999506 0 -0.0314178
    outer loop
      vertex 3.8 -2.5 -2.3
      vertex 3.7925 2.5 -2.0614
      vertex 3.8 2.5 -2.3
    endloop
  endfacet
  facet normal -0.999506 -0 -0.0314178
    outer loop
      vertex 3.7925 2.5 -2.0614
      vertex 3.8 -2.5 -2.3
      vertex 3.7925 -2.5 -2.0614
    endloop
  endfacet
  facet normal -0.995564 0 -0.0940816
    outer loop
      vertex 3.7925 -2.5 -2.0614
      vertex 3.77004 2.5 -1.82373
      vertex 3.7925 2.5 -2.0614
    endloop
  endfacet
  facet normal -0.995564 -0 -0.0940816
    outer loop
      vertex 3.77004 2.5 -1.82373
      vertex 3.7925 -2.5 -2.0614
      vertex 3.77004 -2.5 -1.82373
    endloop
  endfacet
  facet normal 0.0314173 0 -0.999506
    outer loop
      vertex -0.238604 -2.5 1.4925
      vertex 0 2.5 1.5
      vertex 0 -2.5 1.5
    endloop
  endfacet
  facet normal 0.0314173 0 -0.999506
    outer loop
      vertex 0 2.5 1.5
      vertex -0.238604 -2.5 1.4925
      vertex -0.238604 2.5 1.4925
    endloop
  endfacet
  facet normal -0.661308 0 -0.750114
    outer loop
      vertex 2.42221 -2.5 0.62795
      vertex 2.60128 2.5 0.47008
      vertex 2.60128 -2.5 0.47008
    endloop
  endfacet
  facet normal -0.661308 0 -0.750114
    outer loop
      vertex 2.60128 2.5 0.47008
      vertex 2.42221 -2.5 0.62795
      vertex 2.42221 2.5 0.62795
    endloop
  endfacet
  facet normal 0.707111 0 -0.707103
    outer loop
      vertex -2.60128 -2.5 0.47008
      vertex -2.77008 2.5 0.301278
      vertex -2.60128 2.5 0.47008
    endloop
  endfacet
  facet normal 0.707111 0 -0.707103
    outer loop
      vertex -2.77008 2.5 0.301278
      vertex -2.60128 -2.5 0.47008
      vertex -2.77008 -2.5 0.301278
    endloop
  endfacet
  facet normal 0.397152 0 -0.917753
    outer loop
      vertex -1.61796 -2.5 1.13834
      vertex -1.39887 2.5 1.23315
      vertex -1.39887 -2.5 1.23315
    endloop
  endfacet
  facet normal 0.397152 0 -0.917753
    outer loop
      vertex -1.39887 2.5 1.23315
      vertex -1.61796 -2.5 1.13834
      vertex -1.61796 2.5 1.13834
    endloop
  endfacet
  facet normal -0.891002 0 -0.454
    outer loop
      vertex 3.43834 -2.5 -0.682038
      vertex 3.32996 2.5 -0.469336
      vertex 3.43834 2.5 -0.682038
    endloop
  endfacet
  facet normal -0.891002 -0 -0.454
    outer loop
      vertex 3.32996 2.5 -0.469336
      vertex 3.43834 -2.5 -0.682038
      vertex 3.32996 -2.5 -0.469336
    endloop
  endfacet
  facet normal -0.338721 0 -0.940887
    outer loop
      vertex 1.17426 -2.5 1.31401
      vertex 1.39887 2.5 1.23315
      vertex 1.39887 -2.5 1.23315
    endloop
  endfacet
  facet normal -0.338721 0 -0.940887
    outer loop
      vertex 1.39887 2.5 1.23315
      vertex 1.17426 -2.5 1.31401
      vertex 1.17426 2.5 1.31401
    endloop
  endfacet
  facet normal 0.827064 0 -0.562108
    outer loop
      vertex -3.07426 -2.5 -0.0664158
      vertex -3.20845 2.5 -0.263858
      vertex -3.07426 2.5 -0.0664158
    endloop
  endfacet
  facet normal 0.827064 0 -0.562108
    outer loop
      vertex -3.20845 2.5 -0.263858
      vertex -3.07426 -2.5 -0.0664158
      vertex -3.20845 -2.5 -0.263858
    endloop
  endfacet
  facet normal -0.790163 0 -0.612897
    outer loop
      vertex 3.07426 -2.5 -0.0664158
      vertex 2.92795 2.5 0.122211
      vertex 3.07426 2.5 -0.0664158
    endloop
  endfacet
  facet normal -0.790163 -0 -0.612897
    outer loop
      vertex 2.92795 2.5 0.122211
      vertex 3.07426 -2.5 -0.0664158
      vertex 2.92795 -2.5 0.122211
    endloop
  endfacet
  facet normal -0.156458 0 -0.987685
    outer loop
      vertex 0.476266 -2.5 1.47004
      vertex 0.712049 2.5 1.43269
      vertex 0.712049 -2.5 1.43269
    endloop
  endfacet
  facet normal -0.156458 0 -0.987685
    outer loop
      vertex 0.712049 2.5 1.43269
      vertex 0.476266 -2.5 1.47004
      vertex 0.476266 2.5 1.47004
    endloop
  endfacet
  facet normal -0.0940848 0 -0.995564
    outer loop
      vertex 0.238604 -2.5 1.4925
      vertex 0.476266 2.5 1.47004
      vertex 0.476266 -2.5 1.47004
    endloop
  endfacet
  facet normal -0.0940848 0 -0.995564
    outer loop
      vertex 0.476266 2.5 1.47004
      vertex 0.238604 -2.5 1.4925
      vertex 0.238604 2.5 1.4925
    endloop
  endfacet
  facet normal -0.612901 0 -0.79016
    outer loop
      vertex 2.23358 -2.5 0.774264
      vertex 2.42221 2.5 0.62795
      vertex 2.42221 -2.5 0.62795
    endloop
  endfacet
  facet normal -0.612901 0 -0.79016
    outer loop
      vertex 2.42221 2.5 0.62795
      vertex 2.23358 -2.5 0.774264
      vertex 2.23358 2.5 0.774264
    endloop
  endfacet
  facet normal 0.860759 0 -0.509012
    outer loop
      vertex -3.20845 -2.5 -0.263858
      vertex -3.32996 2.5 -0.469336
      vertex -3.20845 2.5 -0.263858
    endloop
  endfacet
  facet normal 0.860759 0 -0.509012
    outer loop
      vertex -3.32996 2.5 -0.469336
      vertex -3.20845 -2.5 -0.263858
      vertex -3.32996 -2.5 -0.469336
    endloop
  endfacet
  facet normal 0.987684 0 -0.156459
    outer loop
      vertex -3.73269 -2.5 -1.58795
      vertex -3.77004 2.5 -1.82373
      vertex -3.73269 2.5 -1.58795
    endloop
  endfacet
  facet normal 0.987684 0 -0.156459
    outer loop
      vertex -3.77004 2.5 -1.82373
      vertex -3.73269 -2.5 -1.58795
      vertex -3.77004 -2.5 -1.82373
    endloop
  endfacet
  facet normal 0.562086 0 -0.827079
    outer loop
      vertex -2.23358 -2.5 0.774264
      vertex -2.03614 2.5 0.908445
      vertex -2.03614 -2.5 0.908445
    endloop
  endfacet
  facet normal 0.562086 0 -0.827079
    outer loop
      vertex -2.03614 2.5 0.908445
      vertex -2.23358 -2.5 0.774264
      vertex -2.23358 2.5 0.774264
    endloop
  endfacet
  facet normal 0.661308 0 -0.750114
    outer loop
      vertex -2.60128 -2.5 0.47008
      vertex -2.42221 2.5 0.62795
      vertex -2.42221 -2.5 0.62795
    endloop
  endfacet
  facet normal 0.661308 0 -0.750114
    outer loop
      vertex -2.42221 2.5 0.62795
      vertex -2.60128 -2.5 0.47008
      vertex -2.60128 2.5 0.47008
    endloop
  endfacet
  facet normal 0.0940848 0 -0.995564
    outer loop
      vertex -0.476266 -2.5 1.47004
      vertex -0.238604 2.5 1.4925
      vertex -0.238604 -2.5 1.4925
    endloop
  endfacet
  facet normal 0.0940848 0 -0.995564
    outer loop
      vertex -0.238604 2.5 1.4925
      vertex -0.476266 -2.5 1.47004
      vertex -0.476266 2.5 1.47004
    endloop
  endfacet
  facet normal -0.987684 0 -0.156459
    outer loop
      vertex 3.77004 -2.5 -1.82373
      vertex 3.73269 2.5 -1.58795
      vertex 3.77004 2.5 -1.82373
    endloop
  endfacet
  facet normal -0.987684 -0 -0.156459
    outer loop
      vertex 3.73269 2.5 -1.58795
      vertex 3.77004 -2.5 -1.82373
      vertex 3.73269 -2.5 -1.58795
    endloop
  endfacet
  facet normal -0.960283 0 -0.279028
    outer loop
      vertex 3.68062 -2.5 -1.35498
      vertex 3.61401 2.5 -1.12574
      vertex 3.68062 2.5 -1.35498
    endloop
  endfacet
  facet normal -0.960283 -0 -0.279028
    outer loop
      vertex 3.61401 2.5 -1.12574
      vertex 3.68062 -2.5 -1.35498
      vertex 3.61401 -2.5 -1.12574
    endloop
  endfacet
  facet normal -0.975921 0 -0.218123
    outer loop
      vertex 3.73269 -2.5 -1.58795
      vertex 3.68062 2.5 -1.35498
      vertex 3.73269 2.5 -1.58795
    endloop
  endfacet
  facet normal -0.975921 -0 -0.218123
    outer loop
      vertex 3.68062 2.5 -1.35498
      vertex 3.73269 -2.5 -1.58795
      vertex 3.68062 -2.5 -1.35498
    endloop
  endfacet
  facet normal -0.750109 0 -0.661315
    outer loop
      vertex 2.92795 -2.5 0.122211
      vertex 2.77008 2.5 0.301278
      vertex 2.92795 2.5 0.122211
    endloop
  endfacet
  facet normal -0.750109 -0 -0.661315
    outer loop
      vertex 2.77008 2.5 0.301278
      vertex 2.92795 -2.5 0.122211
      vertex 2.77008 -2.5 0.301278
    endloop
  endfacet
  facet normal -0.279029 0 -0.960283
    outer loop
      vertex 0.945021 -2.5 1.38062
      vertex 1.17426 2.5 1.31401
      vertex 1.17426 -2.5 1.31401
    endloop
  endfacet
  facet normal -0.279029 0 -0.960283
    outer loop
      vertex 1.17426 2.5 1.31401
      vertex 0.945021 -2.5 1.38062
      vertex 0.945021 2.5 1.38062
    endloop
  endfacet
  facet normal -0.0314173 0 -0.999506
    outer loop
      vertex 0 -2.5 1.5
      vertex 0.238604 2.5 1.4925
      vertex 0.238604 -2.5 1.4925
    endloop
  endfacet
  facet normal -0.0314173 0 -0.999506
    outer loop
      vertex 0.238604 2.5 1.4925
      vertex 0 -2.5 1.5
      vertex 0 2.5 1.5
    endloop
  endfacet
  facet normal -0.454004 0 -0.891
    outer loop
      vertex 1.61796 -2.5 1.13834
      vertex 1.83066 2.5 1.02996
      vertex 1.83066 -2.5 1.02996
    endloop
  endfacet
  facet normal -0.454004 0 -0.891
    outer loop
      vertex 1.83066 2.5 1.02996
      vertex 1.61796 -2.5 1.13834
      vertex 1.61796 2.5 1.13834
    endloop
  endfacet
  facet normal -0.397152 0 -0.917753
    outer loop
      vertex 1.39887 -2.5 1.23315
      vertex 1.61796 2.5 1.13834
      vertex 1.61796 -2.5 1.13834
    endloop
  endfacet
  facet normal -0.397152 0 -0.917753
    outer loop
      vertex 1.61796 2.5 1.13834
      vertex 1.39887 -2.5 1.23315
      vertex 1.39887 2.5 1.23315
    endloop
  endfacet
  facet normal 0.995564 0 -0.0940816
    outer loop
      vertex -3.77004 -2.5 -1.82373
      vertex -3.7925 2.5 -2.0614
      vertex -3.77004 2.5 -1.82373
    endloop
  endfacet
  facet normal 0.995564 0 -0.0940816
    outer loop
      vertex -3.7925 2.5 -2.0614
      vertex -3.77004 -2.5 -1.82373
      vertex -3.7925 -2.5 -2.0614
    endloop
  endfacet
  facet normal 0.790163 0 -0.612897
    outer loop
      vertex -2.92795 -2.5 0.122211
      vertex -3.07426 2.5 -0.0664158
      vertex -2.92795 2.5 0.122211
    endloop
  endfacet
  facet normal 0.790163 0 -0.612897
    outer loop
      vertex -3.07426 2.5 -0.0664158
      vertex -2.92795 -2.5 0.122211
      vertex -3.07426 -2.5 -0.0664158
    endloop
  endfacet
  facet normal 0.891002 0 -0.454
    outer loop
      vertex -3.32996 -2.5 -0.469336
      vertex -3.43834 2.5 -0.682038
      vertex -3.32996 2.5 -0.469336
    endloop
  endfacet
  facet normal 0.891002 0 -0.454
    outer loop
      vertex -3.43834 2.5 -0.682038
      vertex -3.32996 -2.5 -0.469336
      vertex -3.43834 -2.5 -0.682038
    endloop
  endfacet
  facet normal 0.940889 0 -0.338716
    outer loop
      vertex -3.53315 -2.5 -0.901126
      vertex -3.61401 2.5 -1.12574
      vertex -3.53315 2.5 -0.901126
    endloop
  endfacet
  facet normal 0.940889 0 -0.338716
    outer loop
      vertex -3.61401 2.5 -1.12574
      vertex -3.53315 -2.5 -0.901126
      vertex -3.61401 -2.5 -1.12574
    endloop
  endfacet
  facet normal 0.960283 0 -0.279028
    outer loop
      vertex -3.61401 -2.5 -1.12574
      vertex -3.68062 2.5 -1.35498
      vertex -3.61401 2.5 -1.12574
    endloop
  endfacet
  facet normal 0.960283 0 -0.279028
    outer loop
      vertex -3.68062 2.5 -1.35498
      vertex -3.61401 -2.5 -1.12574
      vertex -3.68062 -2.5 -1.35498
    endloop
  endfacet
  facet normal 0.612901 0 -0.79016
    outer loop
      vertex -2.42221 -2.5 0.62795
      vertex -2.23358 2.5 0.774264
      vertex -2.23358 -2.5 0.774264
    endloop
  endfacet
  facet normal 0.612901 0 -0.79016
    outer loop
      vertex -2.23358 2.5 0.774264
      vertex -2.42221 -2.5 0.62795
      vertex -2.42221 2.5 0.62795
    endloop
  endfacet
  facet normal 0.454004 0 -0.891
    outer loop
      vertex -1.83066 -2.5 1.02996
      vertex -1.61796 2.5 1.13834
      vertex -1.61796 -2.5 1.13834
    endloop
  endfacet
  facet normal 0.454004 0 -0.891
    outer loop
      vertex -1.61796 2.5 1.13834
      vertex -1.83066 -2.5 1.02996
      vertex -1.83066 2.5 1.02996
    endloop
  endfacet
  facet normal 0.279029 0 -0.960283
    outer loop
      vertex -1.17426 -2.5 1.31401
      vertex -0.945021 2.5 1.38062
      vertex -0.945021 -2.5 1.38062
    endloop
  endfacet
  facet normal 0.279029 0 -0.960283
    outer loop
      vertex -0.945021 2.5 1.38062
      vertex -1.17426 -2.5 1.31401
      vertex -1.17426 2.5 1.31401
    endloop
  endfacet
  facet normal 0.338721 0 -0.940887
    outer loop
      vertex -1.39887 -2.5 1.23315
      vertex -1.17426 2.5 1.31401
      vertex -1.17426 -2.5 1.31401
    endloop
  endfacet
  facet normal 0.338721 0 -0.940887
    outer loop
      vertex -1.17426 2.5 1.31401
      vertex -1.39887 -2.5 1.23315
      vertex -1.39887 2.5 1.23315
    endloop
  endfacet
  facet normal 0.218122 0 -0.975922
    outer loop
      vertex -0.945021 -2.5 1.38062
      vertex -0.712049 2.5 1.43269
      vertex -0.712049 -2.5 1.43269
    endloop
  endfacet
  facet normal 0.218122 0 -0.975922
    outer loop
      vertex -0.712049 2.5 1.43269
      vertex -0.945021 -2.5 1.38062
      vertex -0.945021 2.5 1.38062
    endloop
  endfacet
  facet normal -0.999506 0 0.0314345
    outer loop
      vertex 3.79371 -2.5 -2.5
      vertex 3.8 2.5 -2.3
      vertex 3.79371 2.5 -2.5
    endloop
  endfacet
  facet normal -0.999506 0 0.0314345
    outer loop
      vertex 3.8 2.5 -2.3
      vertex 3.79371 -2.5 -2.5
      vertex 3.8 -2.5 -2.3
    endloop
  endfacet
  facet normal -0.940889 0 -0.338716
    outer loop
      vertex 3.61401 -2.5 -1.12574
      vertex 3.53315 2.5 -0.901126
      vertex 3.61401 2.5 -1.12574
    endloop
  endfacet
  facet normal -0.940889 -0 -0.338716
    outer loop
      vertex 3.53315 2.5 -0.901126
      vertex 3.61401 -2.5 -1.12574
      vertex 3.53315 -2.5 -0.901126
    endloop
  endfacet
  facet normal -0.917751 0 -0.397155
    outer loop
      vertex 3.53315 -2.5 -0.901126
      vertex 3.43834 2.5 -0.682038
      vertex 3.53315 2.5 -0.901126
    endloop
  endfacet
  facet normal -0.917751 -0 -0.397155
    outer loop
      vertex 3.43834 2.5 -0.682038
      vertex 3.53315 -2.5 -0.901126
      vertex 3.43834 -2.5 -0.682038
    endloop
  endfacet
  facet normal -0.707111 0 -0.707103
    outer loop
      vertex 2.77008 -2.5 0.301278
      vertex 2.60128 2.5 0.47008
      vertex 2.77008 2.5 0.301278
    endloop
  endfacet
  facet normal -0.707111 -0 -0.707103
    outer loop
      vertex 2.60128 2.5 0.47008
      vertex 2.77008 -2.5 0.301278
      vertex 2.60128 -2.5 0.47008
    endloop
  endfacet
  facet normal -0.860759 0 -0.509012
    outer loop
      vertex 3.32996 -2.5 -0.469336
      vertex 3.20845 2.5 -0.263858
      vertex 3.32996 2.5 -0.469336
    endloop
  endfacet
  facet normal -0.860759 -0 -0.509012
    outer loop
      vertex 3.20845 2.5 -0.263858
      vertex 3.32996 -2.5 -0.469336
      vertex 3.20845 -2.5 -0.263858
    endloop
  endfacet
  facet normal -0.827064 0 -0.562108
    outer loop
      vertex 3.20845 -2.5 -0.263858
      vertex 3.07426 2.5 -0.0664158
      vertex 3.20845 2.5 -0.263858
    endloop
  endfacet
  facet normal -0.827064 -0 -0.562108
    outer loop
      vertex 3.07426 2.5 -0.0664158
      vertex 3.20845 -2.5 -0.263858
      vertex 3.07426 -2.5 -0.0664158
    endloop
  endfacet
  facet normal -0.218122 0 -0.975922
    outer loop
      vertex 0.712049 -2.5 1.43269
      vertex 0.945021 2.5 1.38062
      vertex 0.945021 -2.5 1.38062
    endloop
  endfacet
  facet normal -0.218122 0 -0.975922
    outer loop
      vertex 0.945021 2.5 1.38062
      vertex 0.712049 -2.5 1.43269
      vertex 0.712049 2.5 1.43269
    endloop
  endfacet
  facet normal -0.562086 0 -0.827079
    outer loop
      vertex 2.03614 -2.5 0.908445
      vertex 2.23358 2.5 0.774264
      vertex 2.23358 -2.5 0.774264
    endloop
  endfacet
  facet normal -0.562086 0 -0.827079
    outer loop
      vertex 2.23358 2.5 0.774264
      vertex 2.03614 -2.5 0.908445
      vertex 2.03614 2.5 0.908445
    endloop
  endfacet
  facet normal -0.509024 0 -0.860752
    outer loop
      vertex 1.83066 -2.5 1.02996
      vertex 2.03614 2.5 0.908445
      vertex 2.03614 -2.5 0.908445
    endloop
  endfacet
  facet normal -0.509024 0 -0.860752
    outer loop
      vertex 2.03614 2.5 0.908445
      vertex 1.83066 -2.5 1.02996
      vertex 1.83066 2.5 1.02996
    endloop
  endfacet
  facet normal 0.750109 0 -0.661315
    outer loop
      vertex -2.77008 -2.5 0.301278
      vertex -2.92795 2.5 0.122211
      vertex -2.77008 2.5 0.301278
    endloop
  endfacet
  facet normal 0.750109 0 -0.661315
    outer loop
      vertex -2.92795 2.5 0.122211
      vertex -2.77008 -2.5 0.301278
      vertex -2.92795 -2.5 0.122211
    endloop
  endfacet
  facet normal 0.917751 0 -0.397155
    outer loop
      vertex -3.43834 -2.5 -0.682038
      vertex -3.53315 2.5 -0.901126
      vertex -3.43834 2.5 -0.682038
    endloop
  endfacet
  facet normal 0.917751 0 -0.397155
    outer loop
      vertex -3.53315 2.5 -0.901126
      vertex -3.43834 -2.5 -0.682038
      vertex -3.53315 -2.5 -0.901126
    endloop
  endfacet
  facet normal 0.975921 0 -0.218123
    outer loop
      vertex -3.68062 -2.5 -1.35498
      vertex -3.73269 2.5 -1.58795
      vertex -3.68062 2.5 -1.35498
    endloop
  endfacet
  facet normal 0.975921 0 -0.218123
    outer loop
      vertex -3.73269 2.5 -1.58795
      vertex -3.68062 -2.5 -1.35498
      vertex -3.73269 -2.5 -1.58795
    endloop
  endfacet
  facet normal 0.999506 0 -0.0314178
    outer loop
      vertex -3.7925 -2.5 -2.0614
      vertex -3.8 2.5 -2.3
      vertex -3.7925 2.5 -2.0614
    endloop
  endfacet
  facet normal 0.999506 0 -0.0314178
    outer loop
      vertex -3.8 2.5 -2.3
      vertex -3.7925 -2.5 -2.0614
      vertex -3.8 -2.5 -2.3
    endloop
  endfacet
  facet normal 0.999506 -0 0.0314345
    outer loop
      vertex -3.8 -2.5 -2.3
      vertex -3.79371 2.5 -2.5
      vertex -3.8 2.5 -2.3
    endloop
  endfacet
  facet normal 0.999506 0 0.0314345
    outer loop
      vertex -3.79371 2.5 -2.5
      vertex -3.8 -2.5 -2.3
      vertex -3.79371 -2.5 -2.5
    endloop
  endfacet
  facet normal 0.509024 0 -0.860752
    outer loop
      vertex -2.03614 -2.5 0.908445
      vertex -1.83066 2.5 1.02996
      vertex -1.83066 -2.5 1.02996
    endloop
  endfacet
  facet normal 0.509024 0 -0.860752
    outer loop
      vertex -1.83066 2.5 1.02996
      vertex -2.03614 -2.5 0.908445
      vertex -2.03614 2.5 0.908445
    endloop
  endfacet
  facet normal 0.156458 0 -0.987685
    outer loop
      vertex -0.712049 -2.5 1.43269
      vertex -0.476266 2.5 1.47004
      vertex -0.476266 -2.5 1.47004
    endloop
  endfacet
  facet normal 0.156458 0 -0.987685
    outer loop
      vertex -0.476266 2.5 1.47004
      vertex -0.712049 -2.5 1.43269
      vertex -0.712049 2.5 1.43269
    endloop
  endfacet
endsolid OpenSCAD_Model
