solid OpenSCAD_Model
  facet normal -1 0 0
    outer loop
      vertex -5 -2.5 -2.5
      vertex -5 2.5 2.5
      vertex -5 2.5 -2.5
    endloop
  endfacet
  facet normal -1 -0 0
    outer loop
      vertex -5 2.5 2.5
      vertex -5 -2.5 -2.5
      vertex -5 -2.5 2.5
    endloop
  endfacet
  facet normal -0 0 1
    outer loop
      vertex -5 2.5 2.5
      vertex 5 -2.5 2.5
      vertex 5 2.5 2.5
    endloop
  endfacet
  facet normal 0 0 1
    outer loop
      vertex 5 -2.5 2.5
      vertex -5 2.5 2.5
      vertex -5 -2.5 2.5
    endloop
  endfacet
  facet normal 1 -0 0
    outer loop
      vertex 5 -2.5 2.5
      vertex 5 2.5 -2.5
      vertex 5 2.5 2.5
    endloop
  endfacet
  facet normal 1 0 0
    outer loop
      vertex 5 2.5 -2.5
      vertex 5 -2.5 2.5
      vertex 5 -2.5 -2.5
    endloop
  endfacet
  facet normal 0 1 0
    outer loop
      vertex 5 2.5 2.5
      vertex 0 2.5 1.6
      vertex -5 2.5 2.5
    endloop
  endfacet
  facet normal 0 1 0
    outer loop
      vertex 5 2.5 2.5
      vertex 0.238604 2.5 1.5925
      vertex 0 2.5 1.6
    endloop
  endfacet
  facet normal 0 1 0
    outer loop
      vertex 5 2.5 2.5
      vertex 0.476266 2.5 1.57003
      vertex 0.238604 2.5 1.5925
    endloop
  endfacet
  facet normal 0 1 0
    outer loop
      vertex 5 2.5 2.5
      vertex 0.712049 2.5 1.53269
      vertex 0.476266 2.5 1.57003
    endloop
  endfacet
  facet normal 0 1 0
    outer loop
      vertex 5 2.5 2.5
      vertex 0.945021 2.5 1.48062
      vertex 0.712049 2.5 1.53269
    endloop
  endfacet
  facet normal 0 1 0
    outer loop
      vertex 5 2.5 2.5
      vertex 1.17426 2.5 1.41401
      vertex 0.945021 2.5 1.48062
    endloop
  endfacet
  facet normal 0 1 0
    outer loop
      vertex 5 2.5 2.5
      vertex 1.39887 2.5 1.33315
      vertex 1.17426 2.5 1.41401
    endloop
  endfacet
  facet normal 0 1 0
    outer loop
      vertex 5 2.5 2.5
      vertex 1.61796 2.5 1.23834
      vertex 1.39887 2.5 1.33315
    endloop
  endfacet
  facet normal 0 1 0
    outer loop
      vertex 5 2.5 2.5
      vertex 1.83066 2.5 1.12996
      vertex 1.61796 2.5 1.23834
    endloop
  endfacet
  facet normal 0 1 0
    outer loop
      vertex 5 2.5 2.5
      vertex 2.03614 2.5 1.00845
      vertex 1.83066 2.5 1.12996
    endloop
  endfacet
  facet normal 0 1 0
    outer loop
      vertex 5 2.5 2.5
      vertex 2.23358 2.5 0.874264
      vertex 2.03614 2.5 1.00845
    endloop
  endfacet
  facet normal 0 1 0
    outer loop
      vertex 5 2.5 2.5
      vertex 2.42221 2.5 0.72795
      vertex 2.23358 2.5 0.874264
    endloop
  endfacet
  facet normal 0 1 0
    outer loop
      vertex 5 2.5 2.5
      vertex 2.60128 2.5 0.570081
      vertex 2.42221 2.5 0.72795
    endloop
  endfacet
  facet normal 0 1 0
    outer loop
      vertex 5 2.5 2.5
      vertex 2.77008 2.5 0.401278
      vertex 2.60128 2.5 0.570081
    endloop
  endfacet
  facet normal 0 1 0
    outer loop
      vertex 5 2.5 2.5
      vertex 2.92795 2.5 0.222211
      vertex 2.77008 2.5 0.401278
    endloop
  endfacet
  facet normal 0 1 0
    outer loop
      vertex 5 2.5 2.5
      vertex 3.07426 2.5 0.0335836
      vertex 2.92795 2.5 0.222211
    endloop
  endfacet
  facet normal 0 1 0
    outer loop
      vertex 5 2.5 2.5
      vertex 3.20845 2.5 -0.163857
      vertex 3.07426 2.5 0.0335836
    endloop
  endfacet
  facet normal 0 1 0
    outer loop
      vertex 5 2.5 2.5
      vertex 3.32996 2.5 -0.369335
      vertex 3.20845 2.5 -0.163857
    endloop
  endfacet
  facet normal 0 1 0
    outer loop
      vertex 5 2.5 2.5
      vertex 3.43834 2.5 -0.582038
      vertex 3.32996 2.5 -0.369335
    endloop
  endfacet
  facet normal 0 1 0
    outer loop
      vertex 5 2.5 2.5
      vertex 3.53315 2.5 -0.801126
      vertex 3.43834 2.5 -0.582038
    endloop
  endfacet
  facet normal 0 1 0
    outer loop
      vertex 5 2.5 2.5
      vertex 3.61401 2.5 -1.02573
      vertex 3.53315 2.5 -0.801126
    endloop
  endfacet
  facet normal 0 1 -0
    outer loop
      vertex 5 2.5 -2.5
      vertex 3.61401 2.5 -1.02573
      vertex 5 2.5 2.5
    endloop
  endfacet
  facet normal 0 1 0
    outer loop
      vertex 3.61401 2.5 -1.02573
      vertex 5 2.5 -2.5
      vertex 3.68062 2.5 -1.25498
    endloop
  endfacet
  facet normal 0 1 0
    outer loop
      vertex 3.68062 2.5 -1.25498
      vertex 5 2.5 -2.5
      vertex 3.73269 2.5 -1.48795
    endloop
  endfacet
  facet normal 0 1 0
    outer loop
      vertex 3.73269 2.5 -1.48795
      vertex 5 2.5 -2.5
      vertex 3.77004 2.5 -1.72373
    endloop
  endfacet
  facet normal 0 1 0
    outer loop
      vertex 3.77004 2.5 -1.72373
      vertex 5 2.5 -2.5
      vertex 3.7925 2.5 -1.9614
    endloop
  endfacet
  facet normal 0 1 0
    outer loop
      vertex 3.7925 2.5 -1.9614
      vertex 5 2.5 -2.5
      vertex 3.8 2.5 -2.2
    endloop
  endfacet
  facet normal 0 1 0
    outer loop
      vertex 3.8 2.5 -2.2
      vertex 5 2.5 -2.5
      vertex 3.7925 2.5 -2.4386
    endloop
  endfacet
  facet normal 0 1 0
    outer loop
      vertex 3.7925 2.5 -2.4386
      vertex 5 2.5 -2.5
      vertex 3.7867 2.5 -2.5
    endloop
  endfacet
  facet normal 0 1 -0
    outer loop
      vertex -0.238604 2.5 1.5925
      vertex -5 2.5 2.5
      vertex 0 2.5 1.6
    endloop
  endfacet
  facet normal 0 1 -0
    outer loop
      vertex -0.476266 2.5 1.57003
      vertex -5 2.5 2.5
      vertex -0.238604 2.5 1.5925
    endloop
  endfacet
  facet normal 0 1 -0
    outer loop
      vertex -0.712049 2.5 1.53269
      vertex -5 2.5 2.5
      vertex -0.476266 2.5 1.57003
    endloop
  endfacet
  facet normal 0 1 -0
    outer loop
      vertex -0.945021 2.5 1.48062
      vertex -5 2.5 2.5
      vertex -0.712049 2.5 1.53269
    endloop
  endfacet
  facet normal 0 1 -0
    outer loop
      vertex -1.17426 2.5 1.41401
      vertex -5 2.5 2.5
      vertex -0.945021 2.5 1.48062
    endloop
  endfacet
  facet normal 0 1 -0
    outer loop
      vertex -1.39887 2.5 1.33315
      vertex -5 2.5 2.5
      vertex -1.17426 2.5 1.41401
    endloop
  endfacet
  facet normal 0 1 -0
    outer loop
      vertex -1.61796 2.5 1.23834
      vertex -5 2.5 2.5
      vertex -1.39887 2.5 1.33315
    endloop
  endfacet
  facet normal 0 1 -0
    outer loop
      vertex -1.83066 2.5 1.12996
      vertex -5 2.5 2.5
      vertex -1.61796 2.5 1.23834
    endloop
  endfacet
  facet normal 0 1 -0
    outer loop
      vertex -2.03614 2.5 1.00845
      vertex -5 2.5 2.5
      vertex -1.83066 2.5 1.12996
    endloop
  endfacet
  facet normal 0 1 -0
    outer loop
      vertex -2.23358 2.5 0.874264
      vertex -5 2.5 2.5
      vertex -2.03614 2.5 1.00845
    endloop
  endfacet
  facet normal 0 1 -0
    outer loop
      vertex -2.42221 2.5 0.72795
      vertex -5 2.5 2.5
      vertex -2.23358 2.5 0.874264
    endloop
  endfacet
  facet normal 0 1 -0
    outer loop
      vertex -2.60128 2.5 0.570081
      vertex -5 2.5 2.5
      vertex -2.42221 2.5 0.72795
    endloop
  endfacet
  facet normal 0 1 -0
    outer loop
      vertex -2.77008 2.5 0.401278
      vertex -5 2.5 2.5
      vertex -2.60128 2.5 0.570081
    endloop
  endfacet
  facet normal 0 1 -0
    outer loop
      vertex -2.92795 2.5 0.222211
      vertex -5 2.5 2.5
      vertex -2.77008 2.5 0.401278
    endloop
  endfacet
  facet normal 0 1 -0
    outer loop
      vertex -3.07426 2.5 0.0335836
      vertex -5 2.5 2.5
      vertex -2.92795 2.5 0.222211
    endloop
  endfacet
  facet normal 0 1 -0
    outer loop
      vertex -3.20845 2.5 -0.163857
      vertex -5 2.5 2.5
      vertex -3.07426 2.5 0.0335836
    endloop
  endfacet
  facet normal 0 1 -0
    outer loop
      vertex -3.32996 2.5 -0.369335
      vertex -5 2.5 2.5
      vertex -3.20845 2.5 -0.163857
    endloop
  endfacet
  facet normal 0 1 -0
    outer loop
      vertex -3.43834 2.5 -0.582038
      vertex -5 2.5 2.5
      vertex -3.32996 2.5 -0.369335
    endloop
  endfacet
  facet normal 0 1 -0
    outer loop
      vertex -3.53315 2.5 -0.801126
      vertex -5 2.5 2.5
      vertex -3.43834 2.5 -0.582038
    endloop
  endfacet
  facet normal 0 1 -0
    outer loop
      vertex -3.61401 2.5 -1.02573
      vertex -5 2.5 2.5
      vertex -3.53315 2.5 -0.801126
    endloop
  endfacet
  facet normal 0 1 0
    outer loop
      vertex -5 2.5 -2.5
      vertex -3.61401 2.5 -1.02573
      vertex -3.68062 2.5 -1.25498
    endloop
  endfacet
  facet normal 0 1 0
    outer loop
      vertex -5 2.5 -2.5
      vertex -3.68062 2.5 -1.25498
      vertex -3.73269 2.5 -1.48795
    endloop
  endfacet
  facet normal 0 1 0
    outer loop
      vertex -5 2.5 -2.5
      vertex -3.73269 2.5 -1.48795
      vertex -3.77004 2.5 -1.72373
    endloop
  endfacet
  facet normal 0 1 0
    outer loop
      vertex -5 2.5 -2.5
      vertex -3.77004 2.5 -1.72373
      vertex -3.7925 2.5 -1.9614
    endloop
  endfacet
  facet normal 0 1 0
    outer loop
      vertex -5 2.5 -2.5
      vertex -3.7925 2.5 -1.9614
      vertex -3.8 2.5 -2.2
    endloop
  endfacet
  facet normal 0 1 0
    outer loop
      vertex -5 2.5 -2.5
      vertex -3.8 2.5 -2.2
      vertex -3.7925 2.5 -2.4386
    endloop
  endfacet
  facet normal 0 1 0
    outer loop
      vertex -5 2.5 -2.5
      vertex -3.7925 2.5 -2.4386
      vertex -3.7867 2.5 -2.5
    endloop
  endfacet
  facet normal 0 1 0
    outer loop
      vertex -3.61401 2.5 -1.02573
      vertex -5 2.5 -2.5
      vertex -5 2.5 2.5
    endloop
  endfacet
  facet normal 0 0 -1
    outer loop
      vertex -5 -2.5 -2.5
      vertex -3.7867 2.5 -2.5
      vertex -3.7867 -2.5 -2.5
    endloop
  endfacet
  facet normal -0 0 -1
    outer loop
      vertex -3.7867 2.5 -2.5
      vertex -5 -2.5 -2.5
      vertex -5 2.5 -2.5
    endloop
  endfacet
  facet normal 0 0 -1
    outer loop
      vertex 3.7867 -2.5 -2.5
      vertex 5 2.5 -2.5
      vertex 5 -2.5 -2.5
    endloop
  endfacet
  facet normal -0 0 -1
    outer loop
      vertex 5 2.5 -2.5
      vertex 3.7867 -2.5 -2.5
      vertex 3.7867 2.5 -2.5
    endloop
  endfacet
  facet normal 0 -1 0
    outer loop
      vertex -5 -2.5 2.5
      vertex 0 -2.5 1.6
      vertex 5 -2.5 2.5
    endloop
  endfacet
  facet normal 0 -1 0
    outer loop
      vertex -5 -2.5 2.5
      vertex -0.238604 -2.5 1.5925
      vertex 0 -2.5 1.6
    endloop
  endfacet
  facet normal 0 -1 0
    outer loop
      vertex -5 -2.5 2.5
      vertex -0.476266 -2.5 1.57003
      vertex -0.238604 -2.5 1.5925
    endloop
  endfacet
  facet normal 0 -1 0
    outer loop
      vertex -5 -2.5 2.5
      vertex -0.712049 -2.5 1.53269
      vertex -0.476266 -2.5 1.57003
    endloop
  endfacet
  facet normal 0 -1 0
    outer loop
      vertex -5 -2.5 2.5
      vertex -0.945021 -2.5 1.48062
      vertex -0.712049 -2.5 1.53269
    endloop
  endfacet
  facet normal 0 -1 0
    outer loop
      vertex -5 -2.5 2.5
      vertex -1.17426 -2.5 1.41401
      vertex -0.945021 -2.5 1.48062
    endloop
  endfacet
  facet normal 0 -1 0
    outer loop
      vertex -5 -2.5 2.5
      vertex -1.39887 -2.5 1.33315
      vertex -1.17426 -2.5 1.41401
    endloop
  endfacet
  facet normal 0 -1 0
    outer loop
      vertex -5 -2.5 2.5
      vertex -1.61796 -2.5 1.23834
      vertex -1.39887 -2.5 1.33315
    endloop
  endfacet
  facet normal 0 -1 0
    outer loop
      vertex -5 -2.5 2.5
      vertex -1.83066 -2.5 1.12996
      vertex -1.61796 -2.5 1.23834
    endloop
  endfacet
  facet normal 0 -1 0
    outer loop
      vertex -5 -2.5 2.5
      vertex -2.03614 -2.5 1.00845
      vertex -1.83066 -2.5 1.12996
    endloop
  endfacet
  facet normal 0 -1 0
    outer loop
      vertex -5 -2.5 2.5
      vertex -2.23358 -2.5 0.874264
      vertex -2.03614 -2.5 1.00845
    endloop
  endfacet
  facet normal 0 -1 0
    outer loop
      vertex -5 -2.5 2.5
      vertex -2.42221 -2.5 0.72795
      vertex -2.23358 -2.5 0.874264
    endloop
  endfacet
  facet normal 0 -1 0
    outer loop
      vertex -5 -2.5 2.5
      vertex -2.60128 -2.5 0.570081
      vertex -2.42221 -2.5 0.72795
    endloop
  endfacet
  facet normal 0 -1 0
    outer loop
      vertex -5 -2.5 2.5
      vertex -2.77008 -2.5 0.401278
      vertex -2.60128 -2.5 0.570081
    endloop
  endfacet
  facet normal 0 -1 0
    outer loop
      vertex -5 -2.5 2.5
      vertex -2.92795 -2.5 0.222211
      vertex -2.77008 -2.5 0.401278
    endloop
  endfacet
  facet normal 0 -1 0
    outer loop
      vertex -5 -2.5 2.5
      vertex -3.07426 -2.5 0.0335836
      vertex -2.92795 -2.5 0.222211
    endloop
  endfacet
  facet normal 0 -1 0
    outer loop
      vertex -5 -2.5 2.5
      vertex -3.20845 -2.5 -0.163857
      vertex -3.07426 -2.5 0.0335836
    endloop
  endfacet
  facet normal 0 -1 0
    outer loop
      vertex -5 -2.5 2.5
      vertex -3.32996 -2.5 -0.369335
      vertex -3.20845 -2.5 -0.163857
    endloop
  endfacet
  facet normal 0 -1 0
    outer loop
      vertex -5 -2.5 2.5
      vertex -3.43834 -2.5 -0.582038
      vertex -3.32996 -2.5 -0.369335
    endloop
  endfacet
  facet normal 0 -1 0
    outer loop
      vertex -5 -2.5 2.5
      vertex -3.53315 -2.5 -0.801126
      vertex -3.43834 -2.5 -0.582038
    endloop
  endfacet
  facet normal 0 -1 0
    outer loop
      vertex -5 -2.5 2.5
      vertex -3.61401 -2.5 -1.02573
      vertex -3.53315 -2.5 -0.801126
    endloop
  endfacet
  facet normal 0 -1 0
    outer loop
      vertex -5 -2.5 -2.5
      vertex -3.61401 -2.5 -1.02573
      vertex -5 -2.5 2.5
    endloop
  endfacet
  facet normal 0 -1 0
    outer loop
      vertex -3.61401 -2.5 -1.02573
      vertex -5 -2.5 -2.5
      vertex -3.68062 -2.5 -1.25498
    endloop
  endfacet
  facet normal 0 -1 0
    outer loop
      vertex -3.68062 -2.5 -1.25498
      vertex -5 -2.5 -2.5
      vertex -3.73269 -2.5 -1.48795
    endloop
  endfacet
  facet normal 0 -1 0
    outer loop
      vertex -3.73269 -2.5 -1.48795
      vertex -5 -2.5 -2.5
      vertex -3.77004 -2.5 -1.72373
    endloop
  endfacet
  facet normal 0 -1 0
    outer loop
      vertex -3.77004 -2.5 -1.72373
      vertex -5 -2.5 -2.5
      vertex -3.7925 -2.5 -1.9614
    endloop
  endfacet
  facet normal 0 -1 0
    outer loop
      vertex -3.7925 -2.5 -1.9614
      vertex -5 -2.5 -2.5
      vertex -3.8 -2.5 -2.2
    endloop
  endfacet
  facet normal 0 -1 -0
    outer loop
      vertex -3.8 -2.5 -2.2
      vertex -5 -2.5 -2.5
      vertex -3.7925 -2.5 -2.4386
    endloop
  endfacet
  facet normal 0 -1 -0
    outer loop
      vertex -3.7925 -2.5 -2.4386
      vertex -5 -2.5 -2.5
      vertex -3.7867 -2.5 -2.5
    endloop
  endfacet
  facet normal 0 -1 0
    outer loop
      vertex 0.238604 -2.5 1.5925
      vertex 5 -2.5 2.5
      vertex 0 -2.5 1.6
    endloop
  endfacet
  facet normal 0 -1 0
    outer loop
      vertex 0.476266 -2.5 1.57003
      vertex 5 -2.5 2.5
      vertex 0.238604 -2.5 1.5925
    endloop
  endfacet
  facet normal 0 -1 0
    outer loop
      vertex 0.712049 -2.5 1.53269
      vertex 5 -2.5 2.5
      vertex 0.476266 -2.5 1.57003
    endloop
  endfacet
  facet normal 0 -1 0
    outer loop
      vertex 0.945021 -2.5 1.48062
      vertex 5 -2.5 2.5
      vertex 0.712049 -2.5 1.53269
    endloop
  endfacet
  facet normal 0 -1 0
    outer loop
      vertex 1.17426 -2.5 1.41401
      vertex 5 -2.5 2.5
      vertex 0.945021 -2.5 1.48062
    endloop
  endfacet
  facet normal 0 -1 0
    outer loop
      vertex 1.39887 -2.5 1.33315
      vertex 5 -2.5 2.5
      vertex 1.17426 -2.5 1.41401
    endloop
  endfacet
  facet normal 0 -1 0
    outer loop
      vertex 1.61796 -2.5 1.23834
      vertex 5 -2.5 2.5
      vertex 1.39887 -2.5 1.33315
    endloop
  endfacet
  facet normal 0 -1 0
    outer loop
      vertex 1.83066 -2.5 1.12996
      vertex 5 -2.5 2.5
      vertex 1.61796 -2.5 1.23834
    endloop
  endfacet
  facet normal 0 -1 0
    outer loop
      vertex 2.03614 -2.5 1.00845
      vertex 5 -2.5 2.5
      vertex 1.83066 -2.5 1.12996
    endloop
  endfacet
  facet normal 0 -1 0
    outer loop
      vertex 2.23358 -2.5 0.874264
      vertex 5 -2.5 2.5
      vertex 2.03614 -2.5 1.00845
    endloop
  endfacet
  facet normal 0 -1 0
    outer loop
      vertex 2.42221 -2.5 0.72795
      vertex 5 -2.5 2.5
      vertex 2.23358 -2.5 0.874264
    endloop
  endfacet
  facet normal 0 -1 0
    outer loop
      vertex 2.60128 -2.5 0.570081
      vertex 5 -2.5 2.5
      vertex 2.42221 -2.5 0.72795
    endloop
  endfacet
  facet normal 0 -1 0
    outer loop
      vertex 2.77008 -2.5 0.401278
      vertex 5 -2.5 2.5
      vertex 2.60128 -2.5 0.570081
    endloop
  endfacet
  facet normal 0 -1 0
    outer loop
      vertex 2.92795 -2.5 0.222211
      vertex 5 -2.5 2.5
      vertex 2.77008 -2.5 0.401278
    endloop
  endfacet
  facet normal 0 -1 0
    outer loop
      vertex 3.07426 -2.5 0.0335836
      vertex 5 -2.5 2.5
      vertex 2.92795 -2.5 0.222211
    endloop
  endfacet
  facet normal 0 -1 0
    outer loop
      vertex 3.20845 -2.5 -0.163857
      vertex 5 -2.5 2.5
      vertex 3.07426 -2.5 0.0335836
    endloop
  endfacet
  facet normal 0 -1 0
    outer loop
      vertex 3.32996 -2.5 -0.369335
      vertex 5 -2.5 2.5
      vertex 3.20845 -2.5 -0.163857
    endloop
  endfacet
  facet normal 0 -1 0
    outer loop
      vertex 3.43834 -2.5 -0.582038
      vertex 5 -2.5 2.5
      vertex 3.32996 -2.5 -0.369335
    endloop
  endfacet
  facet normal 0 -1 0
    outer loop
      vertex 3.53315 -2.5 -0.801126
      vertex 5 -2.5 2.5
      vertex 3.43834 -2.5 -0.582038
    endloop
  endfacet
  facet normal 0 -1 0
    outer loop
      vertex 3.61401 -2.5 -1.02573
      vertex 5 -2.5 2.5
      vertex 3.53315 -2.5 -0.801126
    endloop
  endfacet
  facet normal 0 -1 0
    outer loop
      vertex 5 -2.5 -2.5
      vertex 3.61401 -2.5 -1.02573
      vertex 3.68062 -2.5 -1.25498
    endloop
  endfacet
  facet normal 0 -1 0
    outer loop
      vertex 5 -2.5 -2.5
      vertex 3.68062 -2.5 -1.25498
      vertex 3.73269 -2.5 -1.48795
    endloop
  endfacet
  facet normal 0 -1 0
    outer loop
      vertex 5 -2.5 -2.5
      vertex 3.73269 -2.5 -1.48795
      vertex 3.77004 -2.5 -1.72373
    endloop
  endfacet
  facet normal 0 -1 0
    outer loop
      vertex 5 -2.5 -2.5
      vertex 3.77004 -2.5 -1.72373
      vertex 3.7925 -2.5 -1.9614
    endloop
  endfacet
  facet normal 0 -1 0
    outer loop
      vertex 5 -2.5 -2.5
      vertex 3.7925 -2.5 -1.9614
      vertex 3.8 -2.5 -2.2
    endloop
  endfacet
  facet normal 0 -1 0
    outer loop
      vertex 5 -2.5 -2.5
      vertex 3.8 -2.5 -2.2
      vertex 3.7925 -2.5 -2.4386
    endloop
  endfacet
  facet normal 0 -1 0
    outer loop
      vertex 5 -2.5 -2.5
      vertex 3.7925 -2.5 -2.4386
      vertex 3.7867 -2.5 -2.5
    endloop
  endfacet
  facet normal 0 -1 0
    outer loop
      vertex 3.61401 -2.5 -1.02573
      vertex 5 -2.5 -2.5
      vertex 5 -2.5 2.5
    endloop
  endfacet
  facet normal -0.999506 0 -0.0314178
    outer loop
      vertex 3.8 -2.5 -2.2
      vertex 3.7925 2.5 -1.9614
      vertex 3.8 2.5 -2.2
    endloop
  endfacet
  facet normal -0.999506 -0 -0.0314178
    outer loop
      vertex 3.7925 2.5 -1.9614
      vertex 3.8 -2.5 -2.2
      vertex 3.7925 -2.5 -1.9614
    endloop
  endfacet
  facet normal -0.995564 0 -0.0940816
    outer loop
      vertex 3.7925 -2.5 -1.9614
      vertex 3.77004 2.5 -1.72373
      vertex 3.7925 2.5 -1.9614
    endloop
  endfacet
  facet normal -0.995564 -0 -0.0940816
    outer loop
      vertex 3.77004 2.5 -1.72373
      vertex 3.7925 -2.5 -1.9614
      vertex 3.77004 -2.5 -1.72373
    endloop
  endfacet
  facet normal 0.999506 0 -0.0314178
    outer loop
      vertex -3.7925 -2.5 -1.9614
      vertex -3.8 2.5 -2.2
      vertex -3.7925 2.5 -1.9614
    endloop
  endfacet
  facet normal 0.999506 0 -0.0314178
    outer loop
      vertex -3.8 2.5 -2.2
      vertex -3.7925 -2.5 -1.9614
      vertex -3.8 -2.5 -2.2
    endloop
  endfacet
  facet normal -0.0314173 0 -0.999506
    outer loop
      vertex 0 -2.5 1.6
      vertex 0.238604 2.5 1.5925
      vertex 0.238604 -2.5 1.5925
    endloop
  endfacet
  facet normal -0.0314173 0 -0.999506
    outer loop
      vertex 0.238604 2.5 1.5925
      vertex 0 -2.5 1.6
      vertex 0 2.5 1.6
    endloop
  endfacet
  facet normal -0.707113 0 -0.7071
    outer loop
      vertex 2.77008 -2.5 0.401278
      vertex 2.60128 2.5 0.570081
      vertex 2.77008 2.5 0.401278
    endloop
  endfacet
  facet normal -0.707113 -0 -0.7071
    outer loop
      vertex 2.60128 2.5 0.570081
      vertex 2.77008 -2.5 0.401278
      vertex 2.60128 -2.5 0.570081
    endloop
  endfacet
  facet normal 0.661306 0 -0.750116
    outer loop
      vertex -2.60128 -2.5 0.570081
      vertex -2.42221 2.5 0.72795
      vertex -2.42221 -2.5 0.72795
    endloop
  endfacet
  facet normal 0.661306 0 -0.750116
    outer loop
      vertex -2.42221 2.5 0.72795
      vertex -2.60128 -2.5 0.570081
      vertex -2.60128 2.5 0.570081
    endloop
  endfacet
  facet normal -0.917751 0 -0.397155
    outer loop
      vertex 3.53315 -2.5 -0.801126
      vertex 3.43834 2.5 -0.582038
      vertex 3.53315 2.5 -0.801126
    endloop
  endfacet
  facet normal -0.917751 -0 -0.397155
    outer loop
      vertex 3.43834 2.5 -0.582038
      vertex 3.53315 -2.5 -0.801126
      vertex 3.43834 -2.5 -0.582038
    endloop
  endfacet
  facet normal -0.397152 0 -0.917753
    outer loop
      vertex 1.39887 -2.5 1.33315
      vertex 1.61796 2.5 1.23834
      vertex 1.61796 -2.5 1.23834
    endloop
  endfacet
  facet normal -0.397152 0 -0.917753
    outer loop
      vertex 1.61796 2.5 1.23834
      vertex 1.39887 -2.5 1.33315
      vertex 1.39887 2.5 1.33315
    endloop
  endfacet
  facet normal 0.156417 0 -0.987691
    outer loop
      vertex -0.712049 -2.5 1.53269
      vertex -0.476266 2.5 1.57003
      vertex -0.476266 -2.5 1.57003
    endloop
  endfacet
  facet normal 0.156417 0 -0.987691
    outer loop
      vertex -0.476266 2.5 1.57003
      vertex -0.712049 -2.5 1.53269
      vertex -0.712049 2.5 1.53269
    endloop
  endfacet
  facet normal -0.960286 0 -0.279017
    outer loop
      vertex 3.68062 -2.5 -1.25498
      vertex 3.61401 2.5 -1.02573
      vertex 3.68062 2.5 -1.25498
    endloop
  endfacet
  facet normal -0.960286 -0 -0.279017
    outer loop
      vertex 3.61401 2.5 -1.02573
      vertex 3.68062 -2.5 -1.25498
      vertex 3.61401 -2.5 -1.02573
    endloop
  endfacet
  facet normal -0.827062 0 -0.562111
    outer loop
      vertex 3.20845 -2.5 -0.163857
      vertex 3.07426 2.5 0.0335836
      vertex 3.20845 2.5 -0.163857
    endloop
  endfacet
  facet normal -0.827062 -0 -0.562111
    outer loop
      vertex 3.07426 2.5 0.0335836
      vertex 3.20845 -2.5 -0.163857
      vertex 3.07426 -2.5 0.0335836
    endloop
  endfacet
  facet normal -0.750109 0 -0.661315
    outer loop
      vertex 2.92795 -2.5 0.222211
      vertex 2.77008 2.5 0.401278
      vertex 2.92795 2.5 0.222211
    endloop
  endfacet
  facet normal -0.750109 -0 -0.661315
    outer loop
      vertex 2.77008 2.5 0.401278
      vertex 2.92795 -2.5 0.222211
      vertex 2.77008 -2.5 0.401278
    endloop
  endfacet
  facet normal -0.218122 0 -0.975922
    outer loop
      vertex 0.712049 -2.5 1.53269
      vertex 0.945021 2.5 1.48062
      vertex 0.945021 -2.5 1.48062
    endloop
  endfacet
  facet normal -0.218122 0 -0.975922
    outer loop
      vertex 0.945021 2.5 1.48062
      vertex 0.712049 -2.5 1.53269
      vertex 0.712049 2.5 1.53269
    endloop
  endfacet
  facet normal -0.661306 0 -0.750116
    outer loop
      vertex 2.42221 -2.5 0.72795
      vertex 2.60128 2.5 0.570081
      vertex 2.60128 -2.5 0.570081
    endloop
  endfacet
  facet normal -0.661306 0 -0.750116
    outer loop
      vertex 2.60128 2.5 0.570081
      vertex 2.42221 -2.5 0.72795
      vertex 2.42221 2.5 0.72795
    endloop
  endfacet
  facet normal -0.454004 0 -0.891
    outer loop
      vertex 1.61796 -2.5 1.23834
      vertex 1.83066 2.5 1.12996
      vertex 1.83066 -2.5 1.12996
    endloop
  endfacet
  facet normal -0.454004 0 -0.891
    outer loop
      vertex 1.83066 2.5 1.12996
      vertex 1.61796 -2.5 1.23834
      vertex 1.61796 2.5 1.23834
    endloop
  endfacet
  facet normal 0.960286 0 -0.279017
    outer loop
      vertex -3.61401 -2.5 -1.02573
      vertex -3.68062 2.5 -1.25498
      vertex -3.61401 2.5 -1.02573
    endloop
  endfacet
  facet normal 0.960286 0 -0.279017
    outer loop
      vertex -3.68062 2.5 -1.25498
      vertex -3.61401 -2.5 -1.02573
      vertex -3.68062 -2.5 -1.25498
    endloop
  endfacet
  facet normal 0.790164 0 -0.612896
    outer loop
      vertex -2.92795 -2.5 0.222211
      vertex -3.07426 2.5 0.0335836
      vertex -2.92795 2.5 0.222211
    endloop
  endfacet
  facet normal 0.790164 0 -0.612896
    outer loop
      vertex -3.07426 2.5 0.0335836
      vertex -2.92795 -2.5 0.222211
      vertex -3.07426 -2.5 0.0335836
    endloop
  endfacet
  facet normal 0.827062 0 -0.562111
    outer loop
      vertex -3.07426 -2.5 0.0335836
      vertex -3.20845 2.5 -0.163857
      vertex -3.07426 2.5 0.0335836
    endloop
  endfacet
  facet normal 0.827062 0 -0.562111
    outer loop
      vertex -3.20845 2.5 -0.163857
      vertex -3.07426 -2.5 0.0335836
      vertex -3.20845 -2.5 -0.163857
    endloop
  endfacet
  facet normal 0.975921 0 -0.218123
    outer loop
      vertex -3.68062 -2.5 -1.25498
      vertex -3.73269 2.5 -1.48795
      vertex -3.68062 2.5 -1.25498
    endloop
  endfacet
  facet normal 0.975921 0 -0.218123
    outer loop
      vertex -3.73269 2.5 -1.48795
      vertex -3.68062 -2.5 -1.25498
      vertex -3.73269 -2.5 -1.48795
    endloop
  endfacet
  facet normal 0.509009 0 -0.860761
    outer loop
      vertex -2.03614 -2.5 1.00845
      vertex -1.83066 2.5 1.12996
      vertex -1.83066 -2.5 1.12996
    endloop
  endfacet
  facet normal 0.509009 0 -0.860761
    outer loop
      vertex -1.83066 2.5 1.12996
      vertex -2.03614 -2.5 1.00845
      vertex -2.03614 2.5 1.00845
    endloop
  endfacet
  facet normal 0.612901 0 -0.79016
    outer loop
      vertex -2.42221 -2.5 0.72795
      vertex -2.23358 2.5 0.874264
      vertex -2.23358 -2.5 0.874264
    endloop
  endfacet
  facet normal 0.612901 0 -0.79016
    outer loop
      vertex -2.23358 2.5 0.874264
      vertex -2.42221 -2.5 0.72795
      vertex -2.42221 2.5 0.72795
    endloop
  endfacet
  facet normal 0.0941263 0 -0.99556
    outer loop
      vertex -0.476266 -2.5 1.57003
      vertex -0.238604 2.5 1.5925
      vertex -0.238604 -2.5 1.5925
    endloop
  endfacet
  facet normal 0.0941263 0 -0.99556
    outer loop
      vertex -0.238604 2.5 1.5925
      vertex -0.476266 -2.5 1.57003
      vertex -0.476266 2.5 1.57003
    endloop
  endfacet
  facet normal -0.975921 0 -0.218123
    outer loop
      vertex 3.73269 -2.5 -1.48795
      vertex 3.68062 2.5 -1.25498
      vertex 3.73269 2.5 -1.48795
    endloop
  endfacet
  facet normal -0.975921 -0 -0.218123
    outer loop
      vertex 3.68062 2.5 -1.25498
      vertex 3.73269 -2.5 -1.48795
      vertex 3.68062 -2.5 -1.25498
    endloop
  endfacet
  facet normal -0.790164 0 -0.612896
    outer loop
      vertex 3.07426 -2.5 0.0335836
      vertex 2.92795 2.5 0.222211
      vertex 3.07426 2.5 0.0335836
    endloop
  endfacet
  facet normal -0.790164 -0 -0.612896
    outer loop
      vertex 2.92795 2.5 0.222211
      vertex 3.07426 -2.5 0.0335836
      vertex 2.92795 -2.5 0.222211
    endloop
  endfacet
  facet normal -0.156417 0 -0.987691
    outer loop
      vertex 0.476266 -2.5 1.57003
      vertex 0.712049 2.5 1.53269
      vertex 0.712049 -2.5 1.53269
    endloop
  endfacet
  facet normal -0.156417 0 -0.987691
    outer loop
      vertex 0.712049 2.5 1.53269
      vertex 0.476266 -2.5 1.57003
      vertex 0.476266 2.5 1.57003
    endloop
  endfacet
  facet normal -0.279029 0 -0.960283
    outer loop
      vertex 0.945021 -2.5 1.48062
      vertex 1.17426 2.5 1.41401
      vertex 1.17426 -2.5 1.41401
    endloop
  endfacet
  facet normal -0.279029 0 -0.960283
    outer loop
      vertex 1.17426 2.5 1.41401
      vertex 0.945021 -2.5 1.48062
      vertex 0.945021 2.5 1.48062
    endloop
  endfacet
  facet normal -0.509009 0 -0.860761
    outer loop
      vertex 1.83066 -2.5 1.12996
      vertex 2.03614 2.5 1.00845
      vertex 2.03614 -2.5 1.00845
    endloop
  endfacet
  facet normal -0.509009 0 -0.860761
    outer loop
      vertex 2.03614 2.5 1.00845
      vertex 1.83066 -2.5 1.12996
      vertex 1.83066 2.5 1.12996
    endloop
  endfacet
  facet normal 0.987684 0 -0.156459
    outer loop
      vertex -3.73269 -2.5 -1.48795
      vertex -3.77004 2.5 -1.72373
      vertex -3.73269 2.5 -1.48795
    endloop
  endfacet
  facet normal 0.987684 0 -0.156459
    outer loop
      vertex -3.77004 2.5 -1.72373
      vertex -3.73269 -2.5 -1.48795
      vertex -3.77004 -2.5 -1.72373
    endloop
  endfacet
  facet normal 0.891002 0 -0.453999
    outer loop
      vertex -3.32996 -2.5 -0.369335
      vertex -3.43834 2.5 -0.582038
      vertex -3.32996 2.5 -0.369335
    endloop
  endfacet
  facet normal 0.891002 0 -0.453999
    outer loop
      vertex -3.43834 2.5 -0.582038
      vertex -3.32996 -2.5 -0.369335
      vertex -3.43834 -2.5 -0.582038
    endloop
  endfacet
  facet normal 0.940884 0 -0.338729
    outer loop
      vertex -3.53315 -2.5 -0.801126
      vertex -3.61401 2.5 -1.02573
      vertex -3.53315 2.5 -0.801126
    endloop
  endfacet
  facet normal 0.940884 0 -0.338729
    outer loop
      vertex -3.61401 2.5 -1.02573
      vertex -3.53315 -2.5 -0.801126
      vertex -3.61401 -2.5 -1.02573
    endloop
  endfacet
  facet normal 0.5621 0 -0.827069
    outer loop
      vertex -2.23358 -2.5 0.874264
      vertex -2.03614 2.5 1.00845
      vertex -2.03614 -2.5 1.00845
    endloop
  endfacet
  facet normal 0.5621 0 -0.827069
    outer loop
      vertex -2.03614 2.5 1.00845
      vertex -2.23358 -2.5 0.874264
      vertex -2.23358 2.5 0.874264
    endloop
  endfacet
  facet normal 0.397152 0 -0.917753
    outer loop
      vertex -1.61796 -2.5 1.23834
      vertex -1.39887 2.5 1.33315
      vertex -1.39887 -2.5 1.33315
    endloop
  endfacet
  facet normal 0.397152 0 -0.917753
    outer loop
      vertex -1.39887 2.5 1.33315
      vertex -1.61796 -2.5 1.23834
      vertex -1.61796 2.5 1.23834
    endloop
  endfacet
  facet normal 0.338721 0 -0.940887
    outer loop
      vertex -1.39887 -2.5 1.33315
      vertex -1.17426 2.5 1.41401
      vertex -1.17426 -2.5 1.41401
    endloop
  endfacet
  facet normal 0.338721 0 -0.940887
    outer loop
      vertex -1.17426 2.5 1.41401
      vertex -1.39887 -2.5 1.33315
      vertex -1.39887 2.5 1.33315
    endloop
  endfacet
  facet normal 0.218122 0 -0.975922
    outer loop
      vertex -0.945021 -2.5 1.48062
      vertex -0.712049 2.5 1.53269
      vertex -0.712049 -2.5 1.53269
    endloop
  endfacet
  facet normal 0.218122 0 -0.975922
    outer loop
      vertex -0.712049 2.5 1.53269
      vertex -0.945021 -2.5 1.48062
      vertex -0.945021 2.5 1.48062
    endloop
  endfacet
  facet normal 0.0314173 0 -0.999506
    outer loop
      vertex -0.238604 -2.5 1.5925
      vertex 0 2.5 1.6
      vertex 0 -2.5 1.6
    endloop
  endfacet
  facet normal 0.0314173 0 -0.999506
    outer loop
      vertex 0 2.5 1.6
      vertex -0.238604 -2.5 1.5925
      vertex -0.238604 2.5 1.5925
    endloop
  endfacet
  facet normal -0.995568 0 0.0940439
    outer loop
      vertex 3.7867 -2.5 -2.5
      vertex 3.7925 2.5 -2.4386
      vertex 3.7867 2.5 -2.5
    endloop
  endfacet
  facet normal -0.995568 0 0.0940439
    outer loop
      vertex 3.7925 2.5 -2.4386
      vertex 3.7867 -2.5 -2.5
      vertex 3.7925 -2.5 -2.4386
    endloop
  endfacet
  facet normal -0.999506 0 0.0314178
    outer loop
      vertex 3.7925 -2.5 -2.4386
      vertex 3.8 2.5 -2.2
      vertex 3.7925 2.5 -2.4386
    endloop
  endfacet
  facet normal -0.999506 0 0.0314178
    outer loop
      vertex 3.8 2.5 -2.2
      vertex 3.7925 -2.5 -2.4386
      vertex 3.8 -2.5 -2.2
    endloop
  endfacet
  facet normal 0.999506 -0 0.0314178
    outer loop
      vertex -3.8 -2.5 -2.2
      vertex -3.7925 2.5 -2.4386
      vertex -3.8 2.5 -2.2
    endloop
  endfacet
  facet normal 0.999506 0 0.0314178
    outer loop
      vertex -3.7925 2.5 -2.4386
      vertex -3.8 -2.5 -2.2
      vertex -3.7925 -2.5 -2.4386
    endloop
  endfacet
  facet normal -0.987684 0 -0.156459
    outer loop
      vertex 3.77004 -2.5 -1.72373
      vertex 3.73269 2.5 -1.48795
      vertex 3.77004 2.5 -1.72373
    endloop
  endfacet
  facet normal -0.987684 -0 -0.156459
    outer loop
      vertex 3.73269 2.5 -1.48795
      vertex 3.77004 -2.5 -1.72373
      vertex 3.73269 -2.5 -1.48795
    endloop
  endfacet
  facet normal -0.940884 0 -0.338729
    outer loop
      vertex 3.61401 -2.5 -1.02573
      vertex 3.53315 2.5 -0.801126
      vertex 3.61401 2.5 -1.02573
    endloop
  endfacet
  facet normal -0.940884 -0 -0.338729
    outer loop
      vertex 3.53315 2.5 -0.801126
      vertex 3.61401 -2.5 -1.02573
      vertex 3.53315 -2.5 -0.801126
    endloop
  endfacet
  facet normal -0.891002 0 -0.453999
    outer loop
      vertex 3.43834 -2.5 -0.582038
      vertex 3.32996 2.5 -0.369335
      vertex 3.43834 2.5 -0.582038
    endloop
  endfacet
  facet normal -0.891002 -0 -0.453999
    outer loop
      vertex 3.32996 2.5 -0.369335
      vertex 3.43834 -2.5 -0.582038
      vertex 3.32996 -2.5 -0.369335
    endloop
  endfacet
  facet normal -0.860759 0 -0.509012
    outer loop
      vertex 3.32996 -2.5 -0.369335
      vertex 3.20845 2.5 -0.163857
      vertex 3.32996 2.5 -0.369335
    endloop
  endfacet
  facet normal -0.860759 -0 -0.509012
    outer loop
      vertex 3.20845 2.5 -0.163857
      vertex 3.32996 -2.5 -0.369335
      vertex 3.20845 -2.5 -0.163857
    endloop
  endfacet
  facet normal -0.338721 0 -0.940887
    outer loop
      vertex 1.17426 -2.5 1.41401
      vertex 1.39887 2.5 1.33315
      vertex 1.39887 -2.5 1.33315
    endloop
  endfacet
  facet normal -0.338721 0 -0.940887
    outer loop
      vertex 1.39887 2.5 1.33315
      vertex 1.17426 -2.5 1.41401
      vertex 1.17426 2.5 1.41401
    endloop
  endfacet
  facet normal -0.0941263 0 -0.99556
    outer loop
      vertex 0.238604 -2.5 1.5925
      vertex 0.476266 2.5 1.57003
      vertex 0.476266 -2.5 1.57003
    endloop
  endfacet
  facet normal -0.0941263 0 -0.99556
    outer loop
      vertex 0.476266 2.5 1.57003
      vertex 0.238604 -2.5 1.5925
      vertex 0.238604 2.5 1.5925
    endloop
  endfacet
  facet normal -0.612901 0 -0.79016
    outer loop
      vertex 2.23358 -2.5 0.874264
      vertex 2.42221 2.5 0.72795
      vertex 2.42221 -2.5 0.72795
    endloop
  endfacet
  facet normal -0.612901 0 -0.79016
    outer loop
      vertex 2.42221 2.5 0.72795
      vertex 2.23358 -2.5 0.874264
      vertex 2.23358 2.5 0.874264
    endloop
  endfacet
  facet normal -0.5621 0 -0.827069
    outer loop
      vertex 2.03614 -2.5 1.00845
      vertex 2.23358 2.5 0.874264
      vertex 2.23358 -2.5 0.874264
    endloop
  endfacet
  facet normal -0.5621 0 -0.827069
    outer loop
      vertex 2.23358 2.5 0.874264
      vertex 2.03614 -2.5 1.00845
      vertex 2.03614 2.5 1.00845
    endloop
  endfacet
  facet normal 0.750109 0 -0.661315
    outer loop
      vertex -2.77008 -2.5 0.401278
      vertex -2.92795 2.5 0.222211
      vertex -2.77008 2.5 0.401278
    endloop
  endfacet
  facet normal 0.750109 0 -0.661315
    outer loop
      vertex -2.92795 2.5 0.222211
      vertex -2.77008 -2.5 0.401278
      vertex -2.92795 -2.5 0.222211
    endloop
  endfacet
  facet normal 0.707113 0 -0.7071
    outer loop
      vertex -2.60128 -2.5 0.570081
      vertex -2.77008 2.5 0.401278
      vertex -2.60128 2.5 0.570081
    endloop
  endfacet
  facet normal 0.707113 0 -0.7071
    outer loop
      vertex -2.77008 2.5 0.401278
      vertex -2.60128 -2.5 0.570081
      vertex -2.77008 -2.5 0.401278
    endloop
  endfacet
  facet normal 0.860759 0 -0.509012
    outer loop
      vertex -3.20845 -2.5 -0.163857
      vertex -3.32996 2.5 -0.369335
      vertex -3.20845 2.5 -0.163857
    endloop
  endfacet
  facet normal 0.860759 0 -0.509012
    outer loop
      vertex -3.32996 2.5 -0.369335
      vertex -3.20845 -2.5 -0.163857
      vertex -3.32996 -2.5 -0.369335
    endloop
  endfacet
  facet normal 0.917751 0 -0.397155
    outer loop
      vertex -3.43834 -2.5 -0.582038
      vertex -3.53315 2.5 -0.801126
      vertex -3.43834 2.5 -0.582038
    endloop
  endfacet
  facet normal 0.917751 0 -0.397155
    outer loop
      vertex -3.53315 2.5 -0.801126
      vertex -3.43834 -2.5 -0.582038
      vertex -3.53315 -2.5 -0.801126
    endloop
  endfacet
  facet normal 0.995564 0 -0.0940816
    outer loop
      vertex -3.77004 -2.5 -1.72373
      vertex -3.7925 2.5 -1.9614
      vertex -3.77004 2.5 -1.72373
    endloop
  endfacet
  facet normal 0.995564 0 -0.0940816
    outer loop
      vertex -3.7925 2.5 -1.9614
      vertex -3.77004 -2.5 -1.72373
      vertex -3.7925 -2.5 -1.9614
    endloop
  endfacet
  facet normal 0.454004 0 -0.891
    outer loop
      vertex -1.83066 -2.5 1.12996
      vertex -1.61796 2.5 1.23834
      vertex -1.61796 -2.5 1.23834
    endloop
  endfacet
  facet normal 0.454004 0 -0.891
    outer loop
      vertex -1.61796 2.5 1.23834
      vertex -1.83066 -2.5 1.12996
      vertex -1.83066 2.5 1.12996
    endloop
  endfacet
  facet normal 0.279029 0 -0.960283
    outer loop
      vertex -1.17426 -2.5 1.41401
      vertex -0.945021 2.5 1.48062
      vertex -0.945021 -2.5 1.48062
    endloop
  endfacet
  facet normal 0.279029 0 -0.960283
    outer loop
      vertex -0.945021 2.5 1.48062
      vertex -1.17426 -2.5 1.41401
      vertex -1.17426 2.5 1.41401
    endloop
  endfacet
  facet normal 0.995568 -0 0.0940439
    outer loop
      vertex -3.7925 -2.5 -2.4386
      vertex -3.7867 2.5 -2.5
      vertex -3.7925 2.5 -2.4386
    endloop
  endfacet
  facet normal 0.995568 0 0.0940439
    outer loop
      vertex -3.7867 2.5 -2.5
      vertex -3.7925 -2.5 -2.4386
      vertex -3.7867 -2.5 -2.5
    endloop
  endfacet
endsolid OpenSCAD_Model
