solid OpenSCAD_Model
  facet normal -1 0 0
    outer loop
      vertex -5 -2.5 -2.5
      vertex -5 2.5 2.5
      vertex -5 2.5 -2.5
    endloop
  endfacet
  facet normal -1 -0 0
    outer loop
      vertex -5 2.5 2.5
      vertex -5 -2.5 -2.5
      vertex -5 -2.5 2.5
    endloop
  endfacet
  facet normal -0 0 1
    outer loop
      vertex -5 2.5 2.5
      vertex 5 -2.5 2.5
      vertex 5 2.5 2.5
    endloop
  endfacet
  facet normal 0 0 1
    outer loop
      vertex 5 -2.5 2.5
      vertex -5 2.5 2.5
      vertex -5 -2.5 2.5
    endloop
  endfacet
  facet normal 1 -0 0
    outer loop
      vertex 5 -2.5 2.5
      vertex 5 2.5 -2.5
      vertex 5 2.5 2.5
    endloop
  endfacet
  facet normal 1 0 0
    outer loop
      vertex 5 2.5 -2.5
      vertex 5 -2.5 2.5
      vertex 5 -2.5 -2.5
    endloop
  endfacet
  facet normal 0 1 0
    outer loop
      vertex 5 2.5 2.5
      vertex 0 2.5 0.799999
      vertex -5 2.5 2.5
    endloop
  endfacet
  facet normal 0 1 0
    outer loop
      vertex 5 2.5 2.5
      vertex 0.207209 2.5 0.793488
      vertex 0 2.5 0.799999
    endloop
  endfacet
  facet normal 0 1 0
    outer loop
      vertex 5 2.5 2.5
      vertex 0.413599 2.5 0.773978
      vertex 0.207209 2.5 0.793488
    endloop
  endfacet
  facet normal 0 1 0
    outer loop
      vertex 5 2.5 2.5
      vertex 0.618358 2.5 0.741548
      vertex 0.413599 2.5 0.773978
    endloop
  endfacet
  facet normal 0 1 0
    outer loop
      vertex 5 2.5 2.5
      vertex 0.820676 2.5 0.696324
      vertex 0.618358 2.5 0.741548
    endloop
  endfacet
  facet normal 0 1 0
    outer loop
      vertex 5 2.5 2.5
      vertex 1.01976 2.5 0.638486
      vertex 0.820676 2.5 0.696324
    endloop
  endfacet
  facet normal 0 1 0
    outer loop
      vertex 5 2.5 2.5
      vertex 1.21481 2.5 0.568262
      vertex 1.01976 2.5 0.638486
    endloop
  endfacet
  facet normal 0 1 0
    outer loop
      vertex 5 2.5 2.5
      vertex 1.40507 2.5 0.485929
      vertex 1.21481 2.5 0.568262
    endloop
  endfacet
  facet normal 0 1 0
    outer loop
      vertex 5 2.5 2.5
      vertex 1.58979 2.5 0.391811
      vertex 1.40507 2.5 0.485929
    endloop
  endfacet
  facet normal 0 1 0
    outer loop
      vertex 5 2.5 2.5
      vertex 1.76823 2.5 0.286282
      vertex 1.58979 2.5 0.391811
    endloop
  endfacet
  facet normal 0 1 0
    outer loop
      vertex 5 2.5 2.5
      vertex 1.93969 2.5 0.169756
      vertex 1.76823 2.5 0.286282
    endloop
  endfacet
  facet normal 0 1 0
    outer loop
      vertex 5 2.5 2.5
      vertex 2.1035 2.5 0.0426931
      vertex 1.93969 2.5 0.169756
    endloop
  endfacet
  facet normal 0 1 0
    outer loop
      vertex 5 2.5 2.5
      vertex 2.259 2.5 -0.0944033
      vertex 2.1035 2.5 0.0426931
    endloop
  endfacet
  facet normal 0 1 0
    outer loop
      vertex 5 2.5 2.5
      vertex 2.4056 2.5 -0.240994
      vertex 2.259 2.5 -0.0944033
    endloop
  endfacet
  facet normal 0 1 0
    outer loop
      vertex 5 2.5 2.5
      vertex 2.54269 2.5 -0.396501
      vertex 2.4056 2.5 -0.240994
    endloop
  endfacet
  facet normal 0 1 0
    outer loop
      vertex 5 2.5 2.5
      vertex 2.66976 2.5 -0.560308
      vertex 2.54269 2.5 -0.396501
    endloop
  endfacet
  facet normal 0 1 0
    outer loop
      vertex 5 2.5 2.5
      vertex 2.78628 2.5 -0.731771
      vertex 2.66976 2.5 -0.560308
    endloop
  endfacet
  facet normal 0 1 0
    outer loop
      vertex 5 2.5 2.5
      vertex 2.89181 2.5 -0.910213
      vertex 2.78628 2.5 -0.731771
    endloop
  endfacet
  facet normal 0 1 0
    outer loop
      vertex 5 2.5 2.5
      vertex 2.98593 2.5 -1.09493
      vertex 2.89181 2.5 -0.910213
    endloop
  endfacet
  facet normal 0 1 -0
    outer loop
      vertex 5 2.5 -2.5
      vertex 2.98593 2.5 -1.09493
      vertex 5 2.5 2.5
    endloop
  endfacet
  facet normal 0 1 0
    outer loop
      vertex 2.98593 2.5 -1.09493
      vertex 5 2.5 -2.5
      vertex 3.06826 2.5 -1.28519
    endloop
  endfacet
  facet normal 0 1 0
    outer loop
      vertex 3.06826 2.5 -1.28519
      vertex 5 2.5 -2.5
      vertex 3.13849 2.5 -1.48024
    endloop
  endfacet
  facet normal 0 1 0
    outer loop
      vertex 3.13849 2.5 -1.48024
      vertex 5 2.5 -2.5
      vertex 3.19632 2.5 -1.67932
    endloop
  endfacet
  facet normal 0 1 0
    outer loop
      vertex 3.19632 2.5 -1.67932
      vertex 5 2.5 -2.5
      vertex 3.24155 2.5 -1.88164
    endloop
  endfacet
  facet normal 0 1 0
    outer loop
      vertex 3.24155 2.5 -1.88164
      vertex 5 2.5 -2.5
      vertex 3.27398 2.5 -2.0864
    endloop
  endfacet
  facet normal 0 1 0
    outer loop
      vertex 3.27398 2.5 -2.0864
      vertex 5 2.5 -2.5
      vertex 3.29349 2.5 -2.29279
    endloop
  endfacet
  facet normal 0 1 0
    outer loop
      vertex 3.29349 2.5 -2.29279
      vertex 5 2.5 -2.5
      vertex 3.3 2.5 -2.5
    endloop
  endfacet
  facet normal 0 1 -0
    outer loop
      vertex -0.207209 2.5 0.793488
      vertex -5 2.5 2.5
      vertex 0 2.5 0.799999
    endloop
  endfacet
  facet normal 0 1 -0
    outer loop
      vertex -0.413599 2.5 0.773978
      vertex -5 2.5 2.5
      vertex -0.207209 2.5 0.793488
    endloop
  endfacet
  facet normal 0 1 -0
    outer loop
      vertex -0.618358 2.5 0.741548
      vertex -5 2.5 2.5
      vertex -0.413599 2.5 0.773978
    endloop
  endfacet
  facet normal 0 1 -0
    outer loop
      vertex -0.820676 2.5 0.696324
      vertex -5 2.5 2.5
      vertex -0.618358 2.5 0.741548
    endloop
  endfacet
  facet normal 0 1 -0
    outer loop
      vertex -1.01976 2.5 0.638486
      vertex -5 2.5 2.5
      vertex -0.820676 2.5 0.696324
    endloop
  endfacet
  facet normal 0 1 -0
    outer loop
      vertex -1.21481 2.5 0.568262
      vertex -5 2.5 2.5
      vertex -1.01976 2.5 0.638486
    endloop
  endfacet
  facet normal 0 1 -0
    outer loop
      vertex -1.40507 2.5 0.485929
      vertex -5 2.5 2.5
      vertex -1.21481 2.5 0.568262
    endloop
  endfacet
  facet normal 0 1 -0
    outer loop
      vertex -1.58979 2.5 0.391811
      vertex -5 2.5 2.5
      vertex -1.40507 2.5 0.485929
    endloop
  endfacet
  facet normal 0 1 -0
    outer loop
      vertex -1.76823 2.5 0.286282
      vertex -5 2.5 2.5
      vertex -1.58979 2.5 0.391811
    endloop
  endfacet
  facet normal 0 1 -0
    outer loop
      vertex -1.93969 2.5 0.169756
      vertex -5 2.5 2.5
      vertex -1.76823 2.5 0.286282
    endloop
  endfacet
  facet normal 0 1 -0
    outer loop
      vertex -2.1035 2.5 0.0426931
      vertex -5 2.5 2.5
      vertex -1.93969 2.5 0.169756
    endloop
  endfacet
  facet normal 0 1 -0
    outer loop
      vertex -2.259 2.5 -0.0944033
      vertex -5 2.5 2.5
      vertex -2.1035 2.5 0.0426931
    endloop
  endfacet
  facet normal 0 1 -0
    outer loop
      vertex -2.4056 2.5 -0.240994
      vertex -5 2.5 2.5
      vertex -2.259 2.5 -0.0944033
    endloop
  endfacet
  facet normal 0 1 -0
    outer loop
      vertex -2.54269 2.5 -0.396501
      vertex -5 2.5 2.5
      vertex -2.4056 2.5 -0.240994
    endloop
  endfacet
  facet normal 0 1 -0
    outer loop
      vertex -2.66976 2.5 -0.560308
      vertex -5 2.5 2.5
      vertex -2.54269 2.5 -0.396501
    endloop
  endfacet
  facet normal 0 1 -0
    outer loop
      vertex -2.78628 2.5 -0.731771
      vertex -5 2.5 2.5
      vertex -2.66976 2.5 -0.560308
    endloop
  endfacet
  facet normal 0 1 -0
    outer loop
      vertex -2.89181 2.5 -0.910213
      vertex -5 2.5 2.5
      vertex -2.78628 2.5 -0.731771
    endloop
  endfacet
  facet normal 0 1 -0
    outer loop
      vertex -2.98593 2.5 -1.09493
      vertex -5 2.5 2.5
      vertex -2.89181 2.5 -0.910213
    endloop
  endfacet
  facet normal 0 1 0
    outer loop
      vertex -5 2.5 -2.5
      vertex -2.98593 2.5 -1.09493
      vertex -3.06826 2.5 -1.28519
    endloop
  endfacet
  facet normal 0 1 0
    outer loop
      vertex -5 2.5 -2.5
      vertex -3.06826 2.5 -1.28519
      vertex -3.13849 2.5 -1.48024
    endloop
  endfacet
  facet normal 0 1 0
    outer loop
      vertex -5 2.5 -2.5
      vertex -3.13849 2.5 -1.48024
      vertex -3.19632 2.5 -1.67932
    endloop
  endfacet
  facet normal 0 1 0
    outer loop
      vertex -5 2.5 -2.5
      vertex -3.19632 2.5 -1.67932
      vertex -3.24155 2.5 -1.88164
    endloop
  endfacet
  facet normal 0 1 0
    outer loop
      vertex -5 2.5 -2.5
      vertex -3.24155 2.5 -1.88164
      vertex -3.27398 2.5 -2.0864
    endloop
  endfacet
  facet normal 0 1 0
    outer loop
      vertex -5 2.5 -2.5
      vertex -3.27398 2.5 -2.0864
      vertex -3.29349 2.5 -2.29279
    endloop
  endfacet
  facet normal 0 1 0
    outer loop
      vertex -5 2.5 -2.5
      vertex -3.29349 2.5 -2.29279
      vertex -3.3 2.5 -2.5
    endloop
  endfacet
  facet normal 0 1 0
    outer loop
      vertex -2.98593 2.5 -1.09493
      vertex -5 2.5 -2.5
      vertex -5 2.5 2.5
    endloop
  endfacet
  facet normal 0 0 -1
    outer loop
      vertex -5 -2.5 -2.5
      vertex -3.3 2.5 -2.5
      vertex -3.3 -2.5 -2.5
    endloop
  endfacet
  facet normal -0 0 -1
    outer loop
      vertex -3.3 2.5 -2.5
      vertex -5 -2.5 -2.5
      vertex -5 2.5 -2.5
    endloop
  endfacet
  facet normal 0 0 -1
    outer loop
      vertex 3.3 -2.5 -2.5
      vertex 5 2.5 -2.5
      vertex 5 -2.5 -2.5
    endloop
  endfacet
  facet normal -0 0 -1
    outer loop
      vertex 5 2.5 -2.5
      vertex 3.3 -2.5 -2.5
      vertex 3.3 2.5 -2.5
    endloop
  endfacet
  facet normal 0 -1 0
    outer loop
      vertex -5 -2.5 2.5
      vertex 0 -2.5 0.799999
      vertex 5 -2.5 2.5
    endloop
  endfacet
  facet normal 0 -1 0
    outer loop
      vertex -5 -2.5 2.5
      vertex -0.207209 -2.5 0.793488
      vertex 0 -2.5 0.799999
    endloop
  endfacet
  facet normal 0 -1 0
    outer loop
      vertex -5 -2.5 2.5
      vertex -0.413599 -2.5 0.773978
      vertex -0.207209 -2.5 0.793488
    endloop
  endfacet
  facet normal 0 -1 0
    outer loop
      vertex -5 -2.5 2.5
      vertex -0.618358 -2.5 0.741548
      vertex -0.413599 -2.5 0.773978
    endloop
  endfacet
  facet normal 0 -1 0
    outer loop
      vertex -5 -2.5 2.5
      vertex -0.820676 -2.5 0.696324
      vertex -0.618358 -2.5 0.741548
    endloop
  endfacet
  facet normal 0 -1 0
    outer loop
      vertex -5 -2.5 2.5
      vertex -1.01976 -2.5 0.638486
      vertex -0.820676 -2.5 0.696324
    endloop
  endfacet
  facet normal 0 -1 0
    outer loop
      vertex -5 -2.5 2.5
      vertex -1.21481 -2.5 0.568262
      vertex -1.01976 -2.5 0.638486
    endloop
  endfacet
  facet normal 0 -1 0
    outer loop
      vertex -5 -2.5 2.5
      vertex -1.40507 -2.5 0.485929
      vertex -1.21481 -2.5 0.568262
    endloop
  endfacet
  facet normal 0 -1 0
    outer loop
      vertex -5 -2.5 2.5
      vertex -1.58979 -2.5 0.391811
      vertex -1.40507 -2.5 0.485929
    endloop
  endfacet
  facet normal 0 -1 0
    outer loop
      vertex -5 -2.5 2.5
      vertex -1.76823 -2.5 0.286282
      vertex -1.58979 -2.5 0.391811
    endloop
  endfacet
  facet normal 0 -1 0
    outer loop
      vertex -5 -2.5 2.5
      vertex -1.93969 -2.5 0.169756
      vertex -1.76823 -2.5 0.286282
    endloop
  endfacet
  facet normal 0 -1 0
    outer loop
      vertex -5 -2.5 2.5
      vertex -2.1035 -2.5 0.0426931
      vertex -1.93969 -2.5 0.169756
    endloop
  endfacet
  facet normal 0 -1 0
    outer loop
      vertex -5 -2.5 2.5
      vertex -2.259 -2.5 -0.0944033
      vertex -2.1035 -2.5 0.0426931
    endloop
  endfacet
  facet normal 0 -1 0
    outer loop
      vertex -5 -2.5 2.5
      vertex -2.4056 -2.5 -0.240994
      vertex -2.259 -2.5 -0.0944033
    endloop
  endfacet
  facet normal 0 -1 0
    outer loop
      vertex -5 -2.5 2.5
      vertex -2.54269 -2.5 -0.396501
      vertex -2.4056 -2.5 -0.240994
    endloop
  endfacet
  facet normal 0 -1 0
    outer loop
      vertex -5 -2.5 2.5
      vertex -2.66976 -2.5 -0.560308
      vertex -2.54269 -2.5 -0.396501
    endloop
  endfacet
  facet normal 0 -1 0
    outer loop
      vertex -5 -2.5 2.5
      vertex -2.78628 -2.5 -0.731771
      vertex -2.66976 -2.5 -0.560308
    endloop
  endfacet
  facet normal 0 -1 0
    outer loop
      vertex -5 -2.5 2.5
      vertex -2.89181 -2.5 -0.910213
      vertex -2.78628 -2.5 -0.731771
    endloop
  endfacet
  facet normal 0 -1 0
    outer loop
      vertex -5 -2.5 2.5
      vertex -2.98593 -2.5 -1.09493
      vertex -2.89181 -2.5 -0.910213
    endloop
  endfacet
  facet normal 0 -1 0
    outer loop
      vertex -5 -2.5 -2.5
      vertex -2.98593 -2.5 -1.09493
      vertex -5 -2.5 2.5
    endloop
  endfacet
  facet normal 0 -1 0
    outer loop
      vertex -2.98593 -2.5 -1.09493
      vertex -5 -2.5 -2.5
      vertex -3.06826 -2.5 -1.28519
    endloop
  endfacet
  facet normal 0 -1 0
    outer loop
      vertex -3.06826 -2.5 -1.28519
      vertex -5 -2.5 -2.5
      vertex -3.13849 -2.5 -1.48024
    endloop
  endfacet
  facet normal 0 -1 0
    outer loop
      vertex -3.13849 -2.5 -1.48024
      vertex -5 -2.5 -2.5
      vertex -3.19632 -2.5 -1.67932
    endloop
  endfacet
  facet normal 0 -1 0
    outer loop
      vertex -3.19632 -2.5 -1.67932
      vertex -5 -2.5 -2.5
      vertex -3.24155 -2.5 -1.88164
    endloop
  endfacet
  facet normal 0 -1 0
    outer loop
      vertex -3.24155 -2.5 -1.88164
      vertex -5 -2.5 -2.5
      vertex -3.27398 -2.5 -2.0864
    endloop
  endfacet
  facet normal 0 -1 0
    outer loop
      vertex -3.27398 -2.5 -2.0864
      vertex -5 -2.5 -2.5
      vertex -3.29349 -2.5 -2.29279
    endloop
  endfacet
  facet normal 0 -1 0
    outer loop
      vertex -3.29349 -2.5 -2.29279
      vertex -5 -2.5 -2.5
      vertex -3.3 -2.5 -2.5
    endloop
  endfacet
  facet normal 0 -1 0
    outer loop
      vertex 0.207209 -2.5 0.793488
      vertex 5 -2.5 2.5
      vertex 0 -2.5 0.799999
    endloop
  endfacet
  facet normal 0 -1 0
    outer loop
      vertex 0.413599 -2.5 0.773978
      vertex 5 -2.5 2.5
      vertex 0.207209 -2.5 0.793488
    endloop
  endfacet
  facet normal 0 -1 0
    outer loop
      vertex 0.618358 -2.5 0.741548
      vertex 5 -2.5 2.5
      vertex 0.413599 -2.5 0.773978
    endloop
  endfacet
  facet normal 0 -1 0
    outer loop
      vertex 0.820676 -2.5 0.696324
      vertex 5 -2.5 2.5
      vertex 0.618358 -2.5 0.741548
    endloop
  endfacet
  facet normal 0 -1 0
    outer loop
      vertex 1.01976 -2.5 0.638486
      vertex 5 -2.5 2.5
      vertex 0.820676 -2.5 0.696324
    endloop
  endfacet
  facet normal 0 -1 0
    outer loop
      vertex 1.21481 -2.5 0.568262
      vertex 5 -2.5 2.5
      vertex 1.01976 -2.5 0.638486
    endloop
  endfacet
  facet normal 0 -1 0
    outer loop
      vertex 1.40507 -2.5 0.485929
      vertex 5 -2.5 2.5
      vertex 1.21481 -2.5 0.568262
    endloop
  endfacet
  facet normal 0 -1 0
    outer loop
      vertex 1.58979 -2.5 0.391811
      vertex 5 -2.5 2.5
      vertex 1.40507 -2.5 0.485929
    endloop
  endfacet
  facet normal 0 -1 0
    outer loop
      vertex 1.76823 -2.5 0.286282
      vertex 5 -2.5 2.5
      vertex 1.58979 -2.5 0.391811
    endloop
  endfacet
  facet normal 0 -1 0
    outer loop
      vertex 1.93969 -2.5 0.169756
      vertex 5 -2.5 2.5
      vertex 1.76823 -2.5 0.286282
    endloop
  endfacet
  facet normal 0 -1 0
    outer loop
      vertex 2.1035 -2.5 0.0426931
      vertex 5 -2.5 2.5
      vertex 1.93969 -2.5 0.169756
    endloop
  endfacet
  facet normal 0 -1 0
    outer loop
      vertex 2.259 -2.5 -0.0944033
      vertex 5 -2.5 2.5
      vertex 2.1035 -2.5 0.0426931
    endloop
  endfacet
  facet normal 0 -1 0
    outer loop
      vertex 2.4056 -2.5 -0.240994
      vertex 5 -2.5 2.5
      vertex 2.259 -2.5 -0.0944033
    endloop
  endfacet
  facet normal 0 -1 0
    outer loop
      vertex 2.54269 -2.5 -0.396501
      vertex 5 -2.5 2.5
      vertex 2.4056 -2.5 -0.240994
    endloop
  endfacet
  facet normal 0 -1 0
    outer loop
      vertex 2.66976 -2.5 -0.560308
      vertex 5 -2.5 2.5
      vertex 2.54269 -2.5 -0.396501
    endloop
  endfacet
  facet normal 0 -1 0
    outer loop
      vertex 2.78628 -2.5 -0.731771
      vertex 5 -2.5 2.5
      vertex 2.66976 -2.5 -0.560308
    endloop
  endfacet
  facet normal 0 -1 0
    outer loop
      vertex 2.89181 -2.5 -0.910213
      vertex 5 -2.5 2.5
      vertex 2.78628 -2.5 -0.731771
    endloop
  endfacet
  facet normal 0 -1 0
    outer loop
      vertex 2.98593 -2.5 -1.09493
      vertex 5 -2.5 2.5
      vertex 2.89181 -2.5 -0.910213
    endloop
  endfacet
  facet normal 0 -1 0
    outer loop
      vertex 5 -2.5 -2.5
      vertex 2.98593 -2.5 -1.09493
      vertex 3.06826 -2.5 -1.28519
    endloop
  endfacet
  facet normal 0 -1 0
    outer loop
      vertex 5 -2.5 -2.5
      vertex 3.06826 -2.5 -1.28519
      vertex 3.13849 -2.5 -1.48024
    endloop
  endfacet
  facet normal 0 -1 0
    outer loop
      vertex 5 -2.5 -2.5
      vertex 3.13849 -2.5 -1.48024
      vertex 3.19632 -2.5 -1.67932
    endloop
  endfacet
  facet normal 0 -1 0
    outer loop
      vertex 5 -2.5 -2.5
      vertex 3.19632 -2.5 -1.67932
      vertex 3.24155 -2.5 -1.88164
    endloop
  endfacet
  facet normal 0 -1 0
    outer loop
      vertex 5 -2.5 -2.5
      vertex 3.24155 -2.5 -1.88164
      vertex 3.27398 -2.5 -2.0864
    endloop
  endfacet
  facet normal 0 -1 0
    outer loop
      vertex 5 -2.5 -2.5
      vertex 3.27398 -2.5 -2.0864
      vertex 3.29349 -2.5 -2.29279
    endloop
  endfacet
  facet normal 0 -1 0
    outer loop
      vertex 5 -2.5 -2.5
      vertex 3.29349 -2.5 -2.29279
      vertex 3.3 -2.5 -2.5
    endloop
  endfacet
  facet normal 0 -1 0
    outer loop
      vertex 2.98593 -2.5 -1.09493
      vertex 5 -2.5 -2.5
      vertex 5 -2.5 2.5
    endloop
  endfacet
  facet normal -0.999507 0 -0.0314019
    outer loop
      vertex 3.3 -2.5 -2.5
      vertex 3.29349 2.5 -2.29279
      vertex 3.3 2.5 -2.5
    endloop
  endfacet
  facet normal -0.999507 -0 -0.0314019
    outer loop
      vertex 3.29349 2.5 -2.29279
      vertex 3.3 -2.5 -2.5
      vertex 3.29349 -2.5 -2.29279
    endloop
  endfacet
  facet normal -0.995562 0 -0.0941102
    outer loop
      vertex 3.29349 -2.5 -2.29279
      vertex 3.27398 2.5 -2.0864
      vertex 3.29349 2.5 -2.29279
    endloop
  endfacet
  facet normal -0.995562 -0 -0.0941102
    outer loop
      vertex 3.27398 2.5 -2.0864
      vertex 3.29349 -2.5 -2.29279
      vertex 3.27398 -2.5 -2.0864
    endloop
  endfacet
  facet normal 0.999507 0 -0.0314019
    outer loop
      vertex -3.29349 -2.5 -2.29279
      vertex -3.3 2.5 -2.5
      vertex -3.29349 2.5 -2.29279
    endloop
  endfacet
  facet normal 0.999507 0 -0.0314019
    outer loop
      vertex -3.3 2.5 -2.5
      vertex -3.29349 -2.5 -2.29279
      vertex -3.3 -2.5 -2.5
    endloop
  endfacet
  facet normal 0.0314069 0 -0.999507
    outer loop
      vertex -0.207209 -2.5 0.793488
      vertex 0 2.5 0.799999
      vertex 0 -2.5 0.799999
    endloop
  endfacet
  facet normal 0.0314069 0 -0.999507
    outer loop
      vertex 0 2.5 0.799999
      vertex -0.207209 -2.5 0.793488
      vertex -0.207209 2.5 0.793488
    endloop
  endfacet
  facet normal -0.707084 0 -0.707129
    outer loop
      vertex 2.4056 -2.5 -0.240994
      vertex 2.259 2.5 -0.0944033
      vertex 2.4056 2.5 -0.240994
    endloop
  endfacet
  facet normal -0.707084 -0 -0.707129
    outer loop
      vertex 2.259 2.5 -0.0944033
      vertex 2.4056 -2.5 -0.240994
      vertex 2.259 -2.5 -0.0944033
    endloop
  endfacet
  facet normal 0.707084 0 -0.707129
    outer loop
      vertex -2.259 -2.5 -0.0944033
      vertex -2.4056 2.5 -0.240994
      vertex -2.259 2.5 -0.0944033
    endloop
  endfacet
  facet normal 0.707084 0 -0.707129
    outer loop
      vertex -2.4056 2.5 -0.240994
      vertex -2.259 -2.5 -0.0944033
      vertex -2.4056 -2.5 -0.240994
    endloop
  endfacet
  facet normal 0.397148 0 -0.917754
    outer loop
      vertex -1.40507 -2.5 0.485929
      vertex -1.21481 2.5 0.568262
      vertex -1.21481 -2.5 0.568262
    endloop
  endfacet
  facet normal 0.397148 0 -0.917754
    outer loop
      vertex -1.21481 2.5 0.568262
      vertex -1.40507 -2.5 0.485929
      vertex -1.40507 2.5 0.485929
    endloop
  endfacet
  facet normal -0.91776 0 -0.397136
    outer loop
      vertex 3.06826 -2.5 -1.28519
      vertex 2.98593 2.5 -1.09493
      vertex 3.06826 2.5 -1.28519
    endloop
  endfacet
  facet normal -0.91776 -0 -0.397136
    outer loop
      vertex 2.98593 2.5 -1.09493
      vertex 3.06826 -2.5 -1.28519
      vertex 2.98593 -2.5 -1.09493
    endloop
  endfacet
  facet normal -0.56209 0 -0.827076
    outer loop
      vertex 1.76823 -2.5 0.286282
      vertex 1.93969 2.5 0.169756
      vertex 1.93969 -2.5 0.169756
    endloop
  endfacet
  facet normal -0.56209 0 -0.827076
    outer loop
      vertex 1.93969 2.5 0.169756
      vertex 1.76823 -2.5 0.286282
      vertex 1.76823 2.5 0.286282
    endloop
  endfacet
  facet normal 0.827094 0 -0.562063
    outer loop
      vertex -2.66976 -2.5 -0.560308
      vertex -2.78628 2.5 -0.731771
      vertex -2.66976 2.5 -0.560308
    endloop
  endfacet
  facet normal 0.827094 0 -0.562063
    outer loop
      vertex -2.78628 2.5 -0.731771
      vertex -2.66976 -2.5 -0.560308
      vertex -2.78628 -2.5 -0.731771
    endloop
  endfacet
  facet normal -0.156431 0 -0.987689
    outer loop
      vertex 0.413599 -2.5 0.773978
      vertex 0.618358 2.5 0.741548
      vertex 0.618358 -2.5 0.741548
    endloop
  endfacet
  facet normal -0.156431 0 -0.987689
    outer loop
      vertex 0.618358 2.5 0.741548
      vertex 0.413599 -2.5 0.773978
      vertex 0.413599 2.5 0.773978
    endloop
  endfacet
  facet normal -0.0941102 0 -0.995562
    outer loop
      vertex 0.207209 -2.5 0.793488
      vertex 0.413599 2.5 0.773978
      vertex 0.413599 -2.5 0.773978
    endloop
  endfacet
  facet normal -0.0941102 0 -0.995562
    outer loop
      vertex 0.413599 2.5 0.773978
      vertex 0.207209 -2.5 0.793488
      vertex 0.207209 2.5 0.793488
    endloop
  endfacet
  facet normal -0.612904 0 -0.790158
    outer loop
      vertex 1.93969 -2.5 0.169756
      vertex 2.1035 2.5 0.0426931
      vertex 2.1035 -2.5 0.0426931
    endloop
  endfacet
  facet normal -0.612904 0 -0.790158
    outer loop
      vertex 2.1035 2.5 0.0426931
      vertex 1.93969 -2.5 0.169756
      vertex 1.93969 2.5 0.169756
    endloop
  endfacet
  facet normal 0.97591 0 -0.218171
    outer loop
      vertex -3.19632 -2.5 -1.67932
      vertex -3.24155 2.5 -1.88164
      vertex -3.19632 2.5 -1.67932
    endloop
  endfacet
  facet normal 0.97591 0 -0.218171
    outer loop
      vertex -3.24155 2.5 -1.88164
      vertex -3.19632 -2.5 -1.67932
      vertex -3.24155 -2.5 -1.88164
    endloop
  endfacet
  facet normal 0.860743 0 -0.50904
    outer loop
      vertex -2.78628 -2.5 -0.731771
      vertex -2.89181 2.5 -0.910213
      vertex -2.78628 2.5 -0.731771
    endloop
  endfacet
  facet normal 0.860743 0 -0.50904
    outer loop
      vertex -2.89181 2.5 -0.910213
      vertex -2.78628 -2.5 -0.731771
      vertex -2.89181 -2.5 -0.910213
    endloop
  endfacet
  facet normal 0.56209 0 -0.827076
    outer loop
      vertex -1.93969 -2.5 0.169756
      vertex -1.76823 2.5 0.286282
      vertex -1.76823 -2.5 0.286282
    endloop
  endfacet
  facet normal 0.56209 0 -0.827076
    outer loop
      vertex -1.76823 2.5 0.286282
      vertex -1.93969 -2.5 0.169756
      vertex -1.93969 2.5 0.169756
    endloop
  endfacet
  facet normal 0.661325 0 -0.7501
    outer loop
      vertex -2.259 -2.5 -0.0944033
      vertex -2.1035 2.5 0.0426931
      vertex -2.1035 -2.5 0.0426931
    endloop
  endfacet
  facet normal 0.661325 0 -0.7501
    outer loop
      vertex -2.1035 2.5 0.0426931
      vertex -2.259 -2.5 -0.0944033
      vertex -2.259 2.5 -0.0944033
    endloop
  endfacet
  facet normal 0.0941102 0 -0.995562
    outer loop
      vertex -0.413599 -2.5 0.773978
      vertex -0.207209 2.5 0.793488
      vertex -0.207209 -2.5 0.793488
    endloop
  endfacet
  facet normal 0.0941102 0 -0.995562
    outer loop
      vertex -0.207209 2.5 0.793488
      vertex -0.413599 -2.5 0.773978
      vertex -0.413599 2.5 0.773978
    endloop
  endfacet
  facet normal -0.97591 0 -0.218171
    outer loop
      vertex 3.24155 -2.5 -1.88164
      vertex 3.19632 2.5 -1.67932
      vertex 3.24155 2.5 -1.88164
    endloop
  endfacet
  facet normal -0.97591 -0 -0.218171
    outer loop
      vertex 3.19632 2.5 -1.67932
      vertex 3.24155 -2.5 -1.88164
      vertex 3.19632 -2.5 -1.67932
    endloop
  endfacet
  facet normal -0.987689 0 -0.156431
    outer loop
      vertex 3.27398 -2.5 -2.0864
      vertex 3.24155 2.5 -1.88164
      vertex 3.27398 2.5 -2.0864
    endloop
  endfacet
  facet normal -0.987689 -0 -0.156431
    outer loop
      vertex 3.24155 2.5 -1.88164
      vertex 3.27398 -2.5 -2.0864
      vertex 3.24155 -2.5 -1.88164
    endloop
  endfacet
  facet normal -0.790136 0 -0.612932
    outer loop
      vertex 2.66976 -2.5 -0.560308
      vertex 2.54269 2.5 -0.396501
      vertex 2.66976 2.5 -0.560308
    endloop
  endfacet
  facet normal -0.790136 -0 -0.612932
    outer loop
      vertex 2.54269 2.5 -0.396501
      vertex 2.66976 -2.5 -0.560308
      vertex 2.54269 -2.5 -0.396501
    endloop
  endfacet
  facet normal -0.827094 0 -0.562063
    outer loop
      vertex 2.78628 -2.5 -0.731771
      vertex 2.66976 2.5 -0.560308
      vertex 2.78628 2.5 -0.731771
    endloop
  endfacet
  facet normal -0.827094 -0 -0.562063
    outer loop
      vertex 2.66976 2.5 -0.560308
      vertex 2.78628 -2.5 -0.731771
      vertex 2.66976 -2.5 -0.560308
    endloop
  endfacet
  facet normal -0.891003 0 -0.453998
    outer loop
      vertex 2.98593 -2.5 -1.09493
      vertex 2.89181 2.5 -0.910213
      vertex 2.98593 2.5 -1.09493
    endloop
  endfacet
  facet normal -0.891003 -0 -0.453998
    outer loop
      vertex 2.89181 2.5 -0.910213
      vertex 2.98593 -2.5 -1.09493
      vertex 2.89181 -2.5 -0.910213
    endloop
  endfacet
  facet normal -0.278986 0 -0.960295
    outer loop
      vertex 0.820676 -2.5 0.696324
      vertex 1.01976 2.5 0.638486
      vertex 1.01976 -2.5 0.638486
    endloop
  endfacet
  facet normal -0.278986 0 -0.960295
    outer loop
      vertex 1.01976 2.5 0.638486
      vertex 0.820676 -2.5 0.696324
      vertex 0.820676 2.5 0.696324
    endloop
  endfacet
  facet normal -0.0314069 0 -0.999507
    outer loop
      vertex 0 -2.5 0.799999
      vertex 0.207209 2.5 0.793488
      vertex 0.207209 -2.5 0.793488
    endloop
  endfacet
  facet normal -0.0314069 0 -0.999507
    outer loop
      vertex 0.207209 2.5 0.793488
      vertex 0 -2.5 0.799999
      vertex 0 2.5 0.799999
    endloop
  endfacet
  facet normal -0.397148 0 -0.917754
    outer loop
      vertex 1.21481 -2.5 0.568262
      vertex 1.40507 2.5 0.485929
      vertex 1.40507 -2.5 0.485929
    endloop
  endfacet
  facet normal -0.397148 0 -0.917754
    outer loop
      vertex 1.40507 2.5 0.485929
      vertex 1.21481 -2.5 0.568262
      vertex 1.21481 2.5 0.568262
    endloop
  endfacet
  facet normal -0.509041 0 -0.860742
    outer loop
      vertex 1.58979 -2.5 0.391811
      vertex 1.76823 2.5 0.286282
      vertex 1.76823 -2.5 0.286282
    endloop
  endfacet
  facet normal -0.509041 0 -0.860742
    outer loop
      vertex 1.76823 2.5 0.286282
      vertex 1.58979 -2.5 0.391811
      vertex 1.58979 2.5 0.391811
    endloop
  endfacet
  facet normal -0.661325 0 -0.7501
    outer loop
      vertex 2.1035 -2.5 0.0426931
      vertex 2.259 2.5 -0.0944033
      vertex 2.259 -2.5 -0.0944033
    endloop
  endfacet
  facet normal -0.661325 0 -0.7501
    outer loop
      vertex 2.259 2.5 -0.0944033
      vertex 2.1035 -2.5 0.0426931
      vertex 2.1035 2.5 0.0426931
    endloop
  endfacet
  facet normal 0.987689 0 -0.156431
    outer loop
      vertex -3.24155 -2.5 -1.88164
      vertex -3.27398 2.5 -2.0864
      vertex -3.24155 2.5 -1.88164
    endloop
  endfacet
  facet normal 0.987689 0 -0.156431
    outer loop
      vertex -3.27398 2.5 -2.0864
      vertex -3.24155 -2.5 -1.88164
      vertex -3.27398 -2.5 -2.0864
    endloop
  endfacet
  facet normal 0.790136 0 -0.612932
    outer loop
      vertex -2.54269 -2.5 -0.396501
      vertex -2.66976 2.5 -0.560308
      vertex -2.54269 2.5 -0.396501
    endloop
  endfacet
  facet normal 0.790136 0 -0.612932
    outer loop
      vertex -2.66976 2.5 -0.560308
      vertex -2.54269 -2.5 -0.396501
      vertex -2.66976 -2.5 -0.560308
    endloop
  endfacet
  facet normal 0.91776 0 -0.397136
    outer loop
      vertex -2.98593 -2.5 -1.09493
      vertex -3.06826 2.5 -1.28519
      vertex -2.98593 2.5 -1.09493
    endloop
  endfacet
  facet normal 0.91776 0 -0.397136
    outer loop
      vertex -3.06826 2.5 -1.28519
      vertex -2.98593 -2.5 -1.09493
      vertex -3.06826 -2.5 -1.28519
    endloop
  endfacet
  facet normal 0.960304 0 -0.278955
    outer loop
      vertex -3.13849 -2.5 -1.48024
      vertex -3.19632 2.5 -1.67932
      vertex -3.13849 2.5 -1.48024
    endloop
  endfacet
  facet normal 0.960304 0 -0.278955
    outer loop
      vertex -3.19632 2.5 -1.67932
      vertex -3.13849 -2.5 -1.48024
      vertex -3.19632 -2.5 -1.67932
    endloop
  endfacet
  facet normal 0.612904 0 -0.790158
    outer loop
      vertex -2.1035 -2.5 0.0426931
      vertex -1.93969 2.5 0.169756
      vertex -1.93969 -2.5 0.169756
    endloop
  endfacet
  facet normal 0.612904 0 -0.790158
    outer loop
      vertex -1.93969 2.5 0.169756
      vertex -2.1035 -2.5 0.0426931
      vertex -2.1035 2.5 0.0426931
    endloop
  endfacet
  facet normal 0.453985 0 -0.89101
    outer loop
      vertex -1.58979 -2.5 0.391811
      vertex -1.40507 2.5 0.485929
      vertex -1.40507 -2.5 0.485929
    endloop
  endfacet
  facet normal 0.453985 0 -0.89101
    outer loop
      vertex -1.40507 2.5 0.485929
      vertex -1.58979 -2.5 0.391811
      vertex -1.58979 2.5 0.391811
    endloop
  endfacet
  facet normal 0.278986 0 -0.960295
    outer loop
      vertex -1.01976 -2.5 0.638486
      vertex -0.820676 2.5 0.696324
      vertex -0.820676 -2.5 0.696324
    endloop
  endfacet
  facet normal 0.278986 0 -0.960295
    outer loop
      vertex -0.820676 2.5 0.696324
      vertex -1.01976 -2.5 0.638486
      vertex -1.01976 2.5 0.638486
    endloop
  endfacet
  facet normal 0.338745 0 -0.940878
    outer loop
      vertex -1.21481 -2.5 0.568262
      vertex -1.01976 2.5 0.638486
      vertex -1.01976 -2.5 0.638486
    endloop
  endfacet
  facet normal 0.338745 0 -0.940878
    outer loop
      vertex -1.01976 2.5 0.638486
      vertex -1.21481 -2.5 0.568262
      vertex -1.21481 2.5 0.568262
    endloop
  endfacet
  facet normal 0.218146 0 -0.975916
    outer loop
      vertex -0.820676 -2.5 0.696324
      vertex -0.618358 2.5 0.741548
      vertex -0.618358 -2.5 0.741548
    endloop
  endfacet
  facet normal 0.218146 0 -0.975916
    outer loop
      vertex -0.618358 2.5 0.741548
      vertex -0.820676 -2.5 0.696324
      vertex -0.820676 2.5 0.696324
    endloop
  endfacet
  facet normal -0.960304 0 -0.278955
    outer loop
      vertex 3.19632 -2.5 -1.67932
      vertex 3.13849 2.5 -1.48024
      vertex 3.19632 2.5 -1.67932
    endloop
  endfacet
  facet normal -0.960304 -0 -0.278955
    outer loop
      vertex 3.13849 2.5 -1.48024
      vertex 3.19632 -2.5 -1.67932
      vertex 3.13849 -2.5 -1.48024
    endloop
  endfacet
  facet normal -0.940869 0 -0.338771
    outer loop
      vertex 3.13849 -2.5 -1.48024
      vertex 3.06826 2.5 -1.28519
      vertex 3.13849 2.5 -1.48024
    endloop
  endfacet
  facet normal -0.940869 -0 -0.338771
    outer loop
      vertex 3.06826 2.5 -1.28519
      vertex 3.13849 -2.5 -1.48024
      vertex 3.06826 -2.5 -1.28519
    endloop
  endfacet
  facet normal -0.75013 0 -0.661291
    outer loop
      vertex 2.54269 -2.5 -0.396501
      vertex 2.4056 2.5 -0.240994
      vertex 2.54269 2.5 -0.396501
    endloop
  endfacet
  facet normal -0.75013 -0 -0.661291
    outer loop
      vertex 2.4056 2.5 -0.240994
      vertex 2.54269 -2.5 -0.396501
      vertex 2.4056 -2.5 -0.240994
    endloop
  endfacet
  facet normal -0.860743 0 -0.50904
    outer loop
      vertex 2.89181 -2.5 -0.910213
      vertex 2.78628 2.5 -0.731771
      vertex 2.89181 2.5 -0.910213
    endloop
  endfacet
  facet normal -0.860743 -0 -0.50904
    outer loop
      vertex 2.78628 2.5 -0.731771
      vertex 2.89181 -2.5 -0.910213
      vertex 2.78628 -2.5 -0.731771
    endloop
  endfacet
  facet normal -0.338745 0 -0.940878
    outer loop
      vertex 1.01976 -2.5 0.638486
      vertex 1.21481 2.5 0.568262
      vertex 1.21481 -2.5 0.568262
    endloop
  endfacet
  facet normal -0.338745 0 -0.940878
    outer loop
      vertex 1.21481 2.5 0.568262
      vertex 1.01976 -2.5 0.638486
      vertex 1.01976 2.5 0.638486
    endloop
  endfacet
  facet normal -0.218146 0 -0.975916
    outer loop
      vertex 0.618358 -2.5 0.741548
      vertex 0.820676 2.5 0.696324
      vertex 0.820676 -2.5 0.696324
    endloop
  endfacet
  facet normal -0.218146 0 -0.975916
    outer loop
      vertex 0.820676 2.5 0.696324
      vertex 0.618358 -2.5 0.741548
      vertex 0.618358 2.5 0.741548
    endloop
  endfacet
  facet normal -0.453985 0 -0.89101
    outer loop
      vertex 1.40507 -2.5 0.485929
      vertex 1.58979 2.5 0.391811
      vertex 1.58979 -2.5 0.391811
    endloop
  endfacet
  facet normal -0.453985 0 -0.89101
    outer loop
      vertex 1.58979 2.5 0.391811
      vertex 1.40507 -2.5 0.485929
      vertex 1.40507 2.5 0.485929
    endloop
  endfacet
  facet normal 0.75013 0 -0.661291
    outer loop
      vertex -2.4056 -2.5 -0.240994
      vertex -2.54269 2.5 -0.396501
      vertex -2.4056 2.5 -0.240994
    endloop
  endfacet
  facet normal 0.75013 0 -0.661291
    outer loop
      vertex -2.54269 2.5 -0.396501
      vertex -2.4056 -2.5 -0.240994
      vertex -2.54269 -2.5 -0.396501
    endloop
  endfacet
  facet normal 0.891003 0 -0.453998
    outer loop
      vertex -2.89181 -2.5 -0.910213
      vertex -2.98593 2.5 -1.09493
      vertex -2.89181 2.5 -0.910213
    endloop
  endfacet
  facet normal 0.891003 0 -0.453998
    outer loop
      vertex -2.98593 2.5 -1.09493
      vertex -2.89181 -2.5 -0.910213
      vertex -2.98593 -2.5 -1.09493
    endloop
  endfacet
  facet normal 0.940869 0 -0.338771
    outer loop
      vertex -3.06826 -2.5 -1.28519
      vertex -3.13849 2.5 -1.48024
      vertex -3.06826 2.5 -1.28519
    endloop
  endfacet
  facet normal 0.940869 0 -0.338771
    outer loop
      vertex -3.13849 2.5 -1.48024
      vertex -3.06826 -2.5 -1.28519
      vertex -3.13849 -2.5 -1.48024
    endloop
  endfacet
  facet normal 0.995562 0 -0.0941102
    outer loop
      vertex -3.27398 -2.5 -2.0864
      vertex -3.29349 2.5 -2.29279
      vertex -3.27398 2.5 -2.0864
    endloop
  endfacet
  facet normal 0.995562 0 -0.0941102
    outer loop
      vertex -3.29349 2.5 -2.29279
      vertex -3.27398 -2.5 -2.0864
      vertex -3.29349 -2.5 -2.29279
    endloop
  endfacet
  facet normal 0.509041 0 -0.860742
    outer loop
      vertex -1.76823 -2.5 0.286282
      vertex -1.58979 2.5 0.391811
      vertex -1.58979 -2.5 0.391811
    endloop
  endfacet
  facet normal 0.509041 0 -0.860742
    outer loop
      vertex -1.58979 2.5 0.391811
      vertex -1.76823 -2.5 0.286282
      vertex -1.76823 2.5 0.286282
    endloop
  endfacet
  facet normal 0.156431 0 -0.987689
    outer loop
      vertex -0.618358 -2.5 0.741548
      vertex -0.413599 2.5 0.773978
      vertex -0.413599 -2.5 0.773978
    endloop
  endfacet
  facet normal 0.156431 0 -0.987689
    outer loop
      vertex -0.413599 2.5 0.773978
      vertex -0.618358 -2.5 0.741548
      vertex -0.618358 2.5 0.741548
    endloop
  endfacet
endsolid OpenSCAD_Model
