solid OpenSCAD_Model
  facet normal -1 0 0
    outer loop
      vertex -5 -2.5 -2.5
      vertex -5 2.5 2.5
      vertex -5 2.5 -2.5
    endloop
  endfacet
  facet normal -1 -0 0
    outer loop
      vertex -5 2.5 2.5
      vertex -5 -2.5 -2.5
      vertex -5 -2.5 2.5
    endloop
  endfacet
  facet normal -0 0 1
    outer loop
      vertex -5 2.5 2.5
      vertex 5 -2.5 2.5
      vertex 5 2.5 2.5
    endloop
  endfacet
  facet normal 0 0 1
    outer loop
      vertex 5 -2.5 2.5
      vertex -5 2.5 2.5
      vertex -5 -2.5 2.5
    endloop
  endfacet
  facet normal 1 -0 0
    outer loop
      vertex 5 -2.5 2.5
      vertex 5 2.5 -2.5
      vertex 5 2.5 2.5
    endloop
  endfacet
  facet normal 1 0 0
    outer loop
      vertex 5 2.5 -2.5
      vertex 5 -2.5 2.5
      vertex 5 -2.5 -2.5
    endloop
  endfacet
  facet normal 0 1 0
    outer loop
      vertex 5 2.5 2.5
      vertex 0 2.5 0.799999
      vertex -5 2.5 2.5
    endloop
  endfacet
  facet normal 0 1 0
    outer loop
      vertex 5 2.5 2.5
      vertex 0.213488 2.5 0.79329
      vertex 0 2.5 0.799999
    endloop
  endfacet
  facet normal 0 1 0
    outer loop
      vertex 5 2.5 2.5
      vertex 0.426132 2.5 0.77319
      vertex 0.213488 2.5 0.79329
    endloop
  endfacet
  facet normal 0 1 0
    outer loop
      vertex 5 2.5 2.5
      vertex 0.637096 2.5 0.739777
      vertex 0.426132 2.5 0.77319
    endloop
  endfacet
  facet normal 0 1 0
    outer loop
      vertex 5 2.5 2.5
      vertex 0.845545 2.5 0.693182
      vertex 0.637096 2.5 0.739777
    endloop
  endfacet
  facet normal 0 1 0
    outer loop
      vertex 5 2.5 2.5
      vertex 1.05066 2.5 0.633592
      vertex 0.845545 2.5 0.693182
    endloop
  endfacet
  facet normal 0 1 0
    outer loop
      vertex 5 2.5 2.5
      vertex 1.25162 2.5 0.561239
      vertex 1.05066 2.5 0.633592
    endloop
  endfacet
  facet normal 0 1 0
    outer loop
      vertex 5 2.5 2.5
      vertex 1.44765 2.5 0.476412
      vertex 1.25162 2.5 0.561239
    endloop
  endfacet
  facet normal 0 1 0
    outer loop
      vertex 5 2.5 2.5
      vertex 1.63796 2.5 0.379442
      vertex 1.44765 2.5 0.476412
    endloop
  endfacet
  facet normal 0 1 0
    outer loop
      vertex 5 2.5 2.5
      vertex 1.82181 2.5 0.270715
      vertex 1.63796 2.5 0.379442
    endloop
  endfacet
  facet normal 0 1 0
    outer loop
      vertex 5 2.5 2.5
      vertex 1.99847 2.5 0.150658
      vertex 1.82181 2.5 0.270715
    endloop
  endfacet
  facet normal 0 1 0
    outer loop
      vertex 5 2.5 2.5
      vertex 2.16724 2.5 0.0197449
      vertex 1.99847 2.5 0.150658
    endloop
  endfacet
  facet normal 0 1 0
    outer loop
      vertex 5 2.5 2.5
      vertex 2.32746 2.5 -0.121506
      vertex 2.16724 2.5 0.0197449
    endloop
  endfacet
  facet normal 0 1 0
    outer loop
      vertex 5 2.5 2.5
      vertex 2.47849 2.5 -0.272539
      vertex 2.32746 2.5 -0.121506
    endloop
  endfacet
  facet normal 0 1 0
    outer loop
      vertex 5 2.5 2.5
      vertex 2.61974 2.5 -0.432758
      vertex 2.47849 2.5 -0.272539
    endloop
  endfacet
  facet normal 0 1 0
    outer loop
      vertex 5 2.5 2.5
      vertex 2.75066 2.5 -0.60153
      vertex 2.61974 2.5 -0.432758
    endloop
  endfacet
  facet normal 0 1 0
    outer loop
      vertex 5 2.5 2.5
      vertex 2.87071 2.5 -0.778189
      vertex 2.75066 2.5 -0.60153
    endloop
  endfacet
  facet normal 0 1 0
    outer loop
      vertex 5 2.5 2.5
      vertex 2.97944 2.5 -0.962037
      vertex 2.87071 2.5 -0.778189
    endloop
  endfacet
  facet normal 0 1 0
    outer loop
      vertex 5 2.5 2.5
      vertex 3.07641 2.5 -1.15235
      vertex 2.97944 2.5 -0.962037
    endloop
  endfacet
  facet normal 0 1 -0
    outer loop
      vertex 5 2.5 -2.5
      vertex 3.07641 2.5 -1.15235
      vertex 5 2.5 2.5
    endloop
  endfacet
  facet normal 0 1 0
    outer loop
      vertex 3.07641 2.5 -1.15235
      vertex 5 2.5 -2.5
      vertex 3.16124 2.5 -1.34838
    endloop
  endfacet
  facet normal 0 1 0
    outer loop
      vertex 3.16124 2.5 -1.34838
      vertex 5 2.5 -2.5
      vertex 3.23359 2.5 -1.54934
    endloop
  endfacet
  facet normal 0 1 0
    outer loop
      vertex 3.23359 2.5 -1.54934
      vertex 5 2.5 -2.5
      vertex 3.29318 2.5 -1.75445
    endloop
  endfacet
  facet normal 0 1 0
    outer loop
      vertex 3.29318 2.5 -1.75445
      vertex 5 2.5 -2.5
      vertex 3.33978 2.5 -1.9629
    endloop
  endfacet
  facet normal 0 1 0
    outer loop
      vertex 3.33978 2.5 -1.9629
      vertex 5 2.5 -2.5
      vertex 3.37319 2.5 -2.17387
    endloop
  endfacet
  facet normal 0 1 0
    outer loop
      vertex 3.37319 2.5 -2.17387
      vertex 5 2.5 -2.5
      vertex 3.39329 2.5 -2.38651
    endloop
  endfacet
  facet normal 0 1 0
    outer loop
      vertex 3.39329 2.5 -2.38651
      vertex 5 2.5 -2.5
      vertex 3.39686 2.5 -2.5
    endloop
  endfacet
  facet normal 0 1 -0
    outer loop
      vertex -0.213488 2.5 0.79329
      vertex -5 2.5 2.5
      vertex 0 2.5 0.799999
    endloop
  endfacet
  facet normal 0 1 -0
    outer loop
      vertex -0.426132 2.5 0.77319
      vertex -5 2.5 2.5
      vertex -0.213488 2.5 0.79329
    endloop
  endfacet
  facet normal 0 1 -0
    outer loop
      vertex -0.637096 2.5 0.739777
      vertex -5 2.5 2.5
      vertex -0.426132 2.5 0.77319
    endloop
  endfacet
  facet normal 0 1 -0
    outer loop
      vertex -0.845545 2.5 0.693182
      vertex -5 2.5 2.5
      vertex -0.637096 2.5 0.739777
    endloop
  endfacet
  facet normal 0 1 -0
    outer loop
      vertex -1.05066 2.5 0.633592
      vertex -5 2.5 2.5
      vertex -0.845545 2.5 0.693182
    endloop
  endfacet
  facet normal 0 1 -0
    outer loop
      vertex -1.25162 2.5 0.561239
      vertex -5 2.5 2.5
      vertex -1.05066 2.5 0.633592
    endloop
  endfacet
  facet normal 0 1 -0
    outer loop
      vertex -1.44765 2.5 0.476412
      vertex -5 2.5 2.5
      vertex -1.25162 2.5 0.561239
    endloop
  endfacet
  facet normal 0 1 -0
    outer loop
      vertex -1.63796 2.5 0.379442
      vertex -5 2.5 2.5
      vertex -1.44765 2.5 0.476412
    endloop
  endfacet
  facet normal 0 1 -0
    outer loop
      vertex -1.82181 2.5 0.270715
      vertex -5 2.5 2.5
      vertex -1.63796 2.5 0.379442
    endloop
  endfacet
  facet normal 0 1 -0
    outer loop
      vertex -1.99847 2.5 0.150658
      vertex -5 2.5 2.5
      vertex -1.82181 2.5 0.270715
    endloop
  endfacet
  facet normal 0 1 -0
    outer loop
      vertex -2.16724 2.5 0.0197449
      vertex -5 2.5 2.5
      vertex -1.99847 2.5 0.150658
    endloop
  endfacet
  facet normal 0 1 -0
    outer loop
      vertex -2.32746 2.5 -0.121506
      vertex -5 2.5 2.5
      vertex -2.16724 2.5 0.0197449
    endloop
  endfacet
  facet normal 0 1 -0
    outer loop
      vertex -2.47849 2.5 -0.272539
      vertex -5 2.5 2.5
      vertex -2.32746 2.5 -0.121506
    endloop
  endfacet
  facet normal 0 1 -0
    outer loop
      vertex -2.61974 2.5 -0.432758
      vertex -5 2.5 2.5
      vertex -2.47849 2.5 -0.272539
    endloop
  endfacet
  facet normal 0 1 -0
    outer loop
      vertex -2.75066 2.5 -0.60153
      vertex -5 2.5 2.5
      vertex -2.61974 2.5 -0.432758
    endloop
  endfacet
  facet normal 0 1 -0
    outer loop
      vertex -2.87071 2.5 -0.778189
      vertex -5 2.5 2.5
      vertex -2.75066 2.5 -0.60153
    endloop
  endfacet
  facet normal 0 1 -0
    outer loop
      vertex -2.97944 2.5 -0.962037
      vertex -5 2.5 2.5
      vertex -2.87071 2.5 -0.778189
    endloop
  endfacet
  facet normal 0 1 -0
    outer loop
      vertex -3.07641 2.5 -1.15235
      vertex -5 2.5 2.5
      vertex -2.97944 2.5 -0.962037
    endloop
  endfacet
  facet normal 0 1 0
    outer loop
      vertex -5 2.5 -2.5
      vertex -3.07641 2.5 -1.15235
      vertex -3.16124 2.5 -1.34838
    endloop
  endfacet
  facet normal 0 1 0
    outer loop
      vertex -5 2.5 -2.5
      vertex -3.16124 2.5 -1.34838
      vertex -3.23359 2.5 -1.54934
    endloop
  endfacet
  facet normal 0 1 0
    outer loop
      vertex -5 2.5 -2.5
      vertex -3.23359 2.5 -1.54934
      vertex -3.29318 2.5 -1.75445
    endloop
  endfacet
  facet normal 0 1 0
    outer loop
      vertex -5 2.5 -2.5
      vertex -3.29318 2.5 -1.75445
      vertex -3.33978 2.5 -1.9629
    endloop
  endfacet
  facet normal 0 1 0
    outer loop
      vertex -5 2.5 -2.5
      vertex -3.33978 2.5 -1.9629
      vertex -3.37319 2.5 -2.17387
    endloop
  endfacet
  facet normal 0 1 0
    outer loop
      vertex -5 2.5 -2.5
      vertex -3.37319 2.5 -2.17387
      vertex -3.39329 2.5 -2.38651
    endloop
  endfacet
  facet normal 0 1 0
    outer loop
      vertex -5 2.5 -2.5
      vertex -3.39329 2.5 -2.38651
      vertex -3.39686 2.5 -2.5
    endloop
  endfacet
  facet normal 0 1 0
    outer loop
      vertex -3.07641 2.5 -1.15235
      vertex -5 2.5 -2.5
      vertex -5 2.5 2.5
    endloop
  endfacet
  facet normal 0 0 -1
    outer loop
      vertex -5 -2.5 -2.5
      vertex -3.39686 2.5 -2.5
      vertex -3.39686 -2.5 -2.5
    endloop
  endfacet
  facet normal -0 0 -1
    outer loop
      vertex -3.39686 2.5 -2.5
      vertex -5 -2.5 -2.5
      vertex -5 2.5 -2.5
    endloop
  endfacet
  facet normal 0 0 -1
    outer loop
      vertex 3.39686 -2.5 -2.5
      vertex 5 2.5 -2.5
      vertex 5 -2.5 -2.5
    endloop
  endfacet
  facet normal -0 0 -1
    outer loop
      vertex 5 2.5 -2.5
      vertex 3.39686 -2.5 -2.5
      vertex 3.39686 2.5 -2.5
    endloop
  endfacet
  facet normal 0 -1 0
    outer loop
      vertex -5 -2.5 2.5
      vertex 0 -2.5 0.799999
      vertex 5 -2.5 2.5
    endloop
  endfacet
  facet normal 0 -1 0
    outer loop
      vertex -5 -2.5 2.5
      vertex -0.213488 -2.5 0.79329
      vertex 0 -2.5 0.799999
    endloop
  endfacet
  facet normal 0 -1 0
    outer loop
      vertex -5 -2.5 2.5
      vertex -0.426132 -2.5 0.77319
      vertex -0.213488 -2.5 0.79329
    endloop
  endfacet
  facet normal 0 -1 0
    outer loop
      vertex -5 -2.5 2.5
      vertex -0.637096 -2.5 0.739777
      vertex -0.426132 -2.5 0.77319
    endloop
  endfacet
  facet normal 0 -1 0
    outer loop
      vertex -5 -2.5 2.5
      vertex -0.845545 -2.5 0.693182
      vertex -0.637096 -2.5 0.739777
    endloop
  endfacet
  facet normal 0 -1 0
    outer loop
      vertex -5 -2.5 2.5
      vertex -1.05066 -2.5 0.633592
      vertex -0.845545 -2.5 0.693182
    endloop
  endfacet
  facet normal 0 -1 0
    outer loop
      vertex -5 -2.5 2.5
      vertex -1.25162 -2.5 0.561239
      vertex -1.05066 -2.5 0.633592
    endloop
  endfacet
  facet normal 0 -1 0
    outer loop
      vertex -5 -2.5 2.5
      vertex -1.44765 -2.5 0.476412
      vertex -1.25162 -2.5 0.561239
    endloop
  endfacet
  facet normal 0 -1 0
    outer loop
      vertex -5 -2.5 2.5
      vertex -1.63796 -2.5 0.379442
      vertex -1.44765 -2.5 0.476412
    endloop
  endfacet
  facet normal 0 -1 0
    outer loop
      vertex -5 -2.5 2.5
      vertex -1.82181 -2.5 0.270715
      vertex -1.63796 -2.5 0.379442
    endloop
  endfacet
  facet normal 0 -1 0
    outer loop
      vertex -5 -2.5 2.5
      vertex -1.99847 -2.5 0.150658
      vertex -1.82181 -2.5 0.270715
    endloop
  endfacet
  facet normal 0 -1 0
    outer loop
      vertex -5 -2.5 2.5
      vertex -2.16724 -2.5 0.0197449
      vertex -1.99847 -2.5 0.150658
    endloop
  endfacet
  facet normal 0 -1 0
    outer loop
      vertex -5 -2.5 2.5
      vertex -2.32746 -2.5 -0.121506
      vertex -2.16724 -2.5 0.0197449
    endloop
  endfacet
  facet normal 0 -1 0
    outer loop
      vertex -5 -2.5 2.5
      vertex -2.47849 -2.5 -0.272539
      vertex -2.32746 -2.5 -0.121506
    endloop
  endfacet
  facet normal 0 -1 0
    outer loop
      vertex -5 -2.5 2.5
      vertex -2.61974 -2.5 -0.432758
      vertex -2.47849 -2.5 -0.272539
    endloop
  endfacet
  facet normal 0 -1 0
    outer loop
      vertex -5 -2.5 2.5
      vertex -2.75066 -2.5 -0.60153
      vertex -2.61974 -2.5 -0.432758
    endloop
  endfacet
  facet normal 0 -1 0
    outer loop
      vertex -5 -2.5 2.5
      vertex -2.87071 -2.5 -0.778189
      vertex -2.75066 -2.5 -0.60153
    endloop
  endfacet
  facet normal 0 -1 0
    outer loop
      vertex -5 -2.5 2.5
      vertex -2.97944 -2.5 -0.962037
      vertex -2.87071 -2.5 -0.778189
    endloop
  endfacet
  facet normal 0 -1 0
    outer loop
      vertex -5 -2.5 2.5
      vertex -3.07641 -2.5 -1.15235
      vertex -2.97944 -2.5 -0.962037
    endloop
  endfacet
  facet normal 0 -1 0
    outer loop
      vertex -5 -2.5 -2.5
      vertex -3.07641 -2.5 -1.15235
      vertex -5 -2.5 2.5
    endloop
  endfacet
  facet normal 0 -1 0
    outer loop
      vertex -3.07641 -2.5 -1.15235
      vertex -5 -2.5 -2.5
      vertex -3.16124 -2.5 -1.34838
    endloop
  endfacet
  facet normal 0 -1 0
    outer loop
      vertex -3.16124 -2.5 -1.34838
      vertex -5 -2.5 -2.5
      vertex -3.23359 -2.5 -1.54934
    endloop
  endfacet
  facet normal 0 -1 0
    outer loop
      vertex -3.23359 -2.5 -1.54934
      vertex -5 -2.5 -2.5
      vertex -3.29318 -2.5 -1.75445
    endloop
  endfacet
  facet normal 0 -1 0
    outer loop
      vertex -3.29318 -2.5 -1.75445
      vertex -5 -2.5 -2.5
      vertex -3.33978 -2.5 -1.9629
    endloop
  endfacet
  facet normal 0 -1 0
    outer loop
      vertex -3.33978 -2.5 -1.9629
      vertex -5 -2.5 -2.5
      vertex -3.37319 -2.5 -2.17387
    endloop
  endfacet
  facet normal 0 -1 0
    outer loop
      vertex -3.37319 -2.5 -2.17387
      vertex -5 -2.5 -2.5
      vertex -3.39329 -2.5 -2.38651
    endloop
  endfacet
  facet normal 0 -1 0
    outer loop
      vertex -3.39329 -2.5 -2.38651
      vertex -5 -2.5 -2.5
      vertex -3.39686 -2.5 -2.5
    endloop
  endfacet
  facet normal 0 -1 0
    outer loop
      vertex 0.213488 -2.5 0.79329
      vertex 5 -2.5 2.5
      vertex 0 -2.5 0.799999
    endloop
  endfacet
  facet normal 0 -1 0
    outer loop
      vertex 0.426132 -2.5 0.77319
      vertex 5 -2.5 2.5
      vertex 0.213488 -2.5 0.79329
    endloop
  endfacet
  facet normal 0 -1 0
    outer loop
      vertex 0.637096 -2.5 0.739777
      vertex 5 -2.5 2.5
      vertex 0.426132 -2.5 0.77319
    endloop
  endfacet
  facet normal 0 -1 0
    outer loop
      vertex 0.845545 -2.5 0.693182
      vertex 5 -2.5 2.5
      vertex 0.637096 -2.5 0.739777
    endloop
  endfacet
  facet normal 0 -1 0
    outer loop
      vertex 1.05066 -2.5 0.633592
      vertex 5 -2.5 2.5
      vertex 0.845545 -2.5 0.693182
    endloop
  endfacet
  facet normal 0 -1 0
    outer loop
      vertex 1.25162 -2.5 0.561239
      vertex 5 -2.5 2.5
      vertex 1.05066 -2.5 0.633592
    endloop
  endfacet
  facet normal 0 -1 0
    outer loop
      vertex 1.44765 -2.5 0.476412
      vertex 5 -2.5 2.5
      vertex 1.25162 -2.5 0.561239
    endloop
  endfacet
  facet normal 0 -1 0
    outer loop
      vertex 1.63796 -2.5 0.379442
      vertex 5 -2.5 2.5
      vertex 1.44765 -2.5 0.476412
    endloop
  endfacet
  facet normal 0 -1 0
    outer loop
      vertex 1.82181 -2.5 0.270715
      vertex 5 -2.5 2.5
      vertex 1.63796 -2.5 0.379442
    endloop
  endfacet
  facet normal 0 -1 0
    outer loop
      vertex 1.99847 -2.5 0.150658
      vertex 5 -2.5 2.5
      vertex 1.82181 -2.5 0.270715
    endloop
  endfacet
  facet normal 0 -1 0
    outer loop
      vertex 2.16724 -2.5 0.0197449
      vertex 5 -2.5 2.5
      vertex 1.99847 -2.5 0.150658
    endloop
  endfacet
  facet normal 0 -1 0
    outer loop
      vertex 2.32746 -2.5 -0.121506
      vertex 5 -2.5 2.5
      vertex 2.16724 -2.5 0.0197449
    endloop
  endfacet
  facet normal 0 -1 0
    outer loop
      vertex 2.47849 -2.5 -0.272539
      vertex 5 -2.5 2.5
      vertex 2.32746 -2.5 -0.121506
    endloop
  endfacet
  facet normal 0 -1 0
    outer loop
      vertex 2.61974 -2.5 -0.432758
      vertex 5 -2.5 2.5
      vertex 2.47849 -2.5 -0.272539
    endloop
  endfacet
  facet normal 0 -1 0
    outer loop
      vertex 2.75066 -2.5 -0.60153
      vertex 5 -2.5 2.5
      vertex 2.61974 -2.5 -0.432758
    endloop
  endfacet
  facet normal 0 -1 0
    outer loop
      vertex 2.87071 -2.5 -0.778189
      vertex 5 -2.5 2.5
      vertex 2.75066 -2.5 -0.60153
    endloop
  endfacet
  facet normal 0 -1 0
    outer loop
      vertex 2.97944 -2.5 -0.962037
      vertex 5 -2.5 2.5
      vertex 2.87071 -2.5 -0.778189
    endloop
  endfacet
  facet normal 0 -1 0
    outer loop
      vertex 3.07641 -2.5 -1.15235
      vertex 5 -2.5 2.5
      vertex 2.97944 -2.5 -0.962037
    endloop
  endfacet
  facet normal 0 -1 0
    outer loop
      vertex 5 -2.5 -2.5
      vertex 3.07641 -2.5 -1.15235
      vertex 3.16124 -2.5 -1.34838
    endloop
  endfacet
  facet normal 0 -1 0
    outer loop
      vertex 5 -2.5 -2.5
      vertex 3.16124 -2.5 -1.34838
      vertex 3.23359 -2.5 -1.54934
    endloop
  endfacet
  facet normal 0 -1 0
    outer loop
      vertex 5 -2.5 -2.5
      vertex 3.23359 -2.5 -1.54934
      vertex 3.29318 -2.5 -1.75445
    endloop
  endfacet
  facet normal 0 -1 0
    outer loop
      vertex 5 -2.5 -2.5
      vertex 3.29318 -2.5 -1.75445
      vertex 3.33978 -2.5 -1.9629
    endloop
  endfacet
  facet normal 0 -1 0
    outer loop
      vertex 5 -2.5 -2.5
      vertex 3.33978 -2.5 -1.9629
      vertex 3.37319 -2.5 -2.17387
    endloop
  endfacet
  facet normal 0 -1 0
    outer loop
      vertex 5 -2.5 -2.5
      vertex 3.37319 -2.5 -2.17387
      vertex 3.39329 -2.5 -2.38651
    endloop
  endfacet
  facet normal 0 -1 0
    outer loop
      vertex 5 -2.5 -2.5
      vertex 3.39329 -2.5 -2.38651
      vertex 3.39686 -2.5 -2.5
    endloop
  endfacet
  facet normal 0 -1 0
    outer loop
      vertex 3.07641 -2.5 -1.15235
      vertex 5 -2.5 -2.5
      vertex 5 -2.5 2.5
    endloop
  endfacet
  facet normal -0.999506 0 -0.031441
    outer loop
      vertex 3.39686 -2.5 -2.5
      vertex 3.39329 2.5 -2.38651
      vertex 3.39686 2.5 -2.5
    endloop
  endfacet
  facet normal -0.999506 -0 -0.031441
    outer loop
      vertex 3.39329 2.5 -2.38651
      vertex 3.39686 -2.5 -2.5
      vertex 3.39329 -2.5 -2.38651
    endloop
  endfacet
  facet normal -0.995562 0 -0.0941065
    outer loop
      vertex 3.39329 -2.5 -2.38651
      vertex 3.37319 2.5 -2.17387
      vertex 3.39329 2.5 -2.38651
    endloop
  endfacet
  facet normal -0.995562 -0 -0.0941065
    outer loop
      vertex 3.37319 2.5 -2.17387
      vertex 3.39329 -2.5 -2.38651
      vertex 3.37319 -2.5 -2.17387
    endloop
  endfacet
  facet normal 0.999506 0 -0.031441
    outer loop
      vertex -3.39329 -2.5 -2.38651
      vertex -3.39686 2.5 -2.5
      vertex -3.39329 2.5 -2.38651
    endloop
  endfacet
  facet normal 0.999506 0 -0.031441
    outer loop
      vertex -3.39686 2.5 -2.5
      vertex -3.39329 -2.5 -2.38651
      vertex -3.39686 -2.5 -2.5
    endloop
  endfacet
  facet normal 0.0314101 0 -0.999507
    outer loop
      vertex -0.213488 -2.5 0.79329
      vertex 0 2.5 0.799999
      vertex 0 -2.5 0.799999
    endloop
  endfacet
  facet normal 0.0314101 0 -0.999507
    outer loop
      vertex 0 2.5 0.799999
      vertex -0.213488 -2.5 0.79329
      vertex -0.213488 2.5 0.79329
    endloop
  endfacet
  facet normal -0.707114 0 -0.7071
    outer loop
      vertex 2.47849 -2.5 -0.272539
      vertex 2.32746 2.5 -0.121506
      vertex 2.47849 2.5 -0.272539
    endloop
  endfacet
  facet normal -0.707114 -0 -0.7071
    outer loop
      vertex 2.32746 2.5 -0.121506
      vertex 2.47849 -2.5 -0.272539
      vertex 2.32746 -2.5 -0.121506
    endloop
  endfacet
  facet normal 0.707114 0 -0.7071
    outer loop
      vertex -2.32746 -2.5 -0.121506
      vertex -2.47849 2.5 -0.272539
      vertex -2.32746 2.5 -0.121506
    endloop
  endfacet
  facet normal 0.707114 0 -0.7071
    outer loop
      vertex -2.47849 2.5 -0.272539
      vertex -2.32746 -2.5 -0.121506
      vertex -2.47849 -2.5 -0.272539
    endloop
  endfacet
  facet normal -0.917754 0 -0.397149
    outer loop
      vertex 3.16124 -2.5 -1.34838
      vertex 3.07641 2.5 -1.15235
      vertex 3.16124 2.5 -1.34838
    endloop
  endfacet
  facet normal -0.917754 -0 -0.397149
    outer loop
      vertex 3.07641 2.5 -1.15235
      vertex 3.16124 -2.5 -1.34838
      vertex 3.07641 -2.5 -1.15235
    endloop
  endfacet
  facet normal 0.827097 0 -0.56206
    outer loop
      vertex -2.75066 -2.5 -0.60153
      vertex -2.87071 2.5 -0.778189
      vertex -2.75066 2.5 -0.60153
    endloop
  endfacet
  facet normal 0.827097 0 -0.56206
    outer loop
      vertex -2.87071 2.5 -0.778189
      vertex -2.75066 -2.5 -0.60153
      vertex -2.87071 -2.5 -0.778189
    endloop
  endfacet
  facet normal 0.218148 0 -0.975916
    outer loop
      vertex -0.845545 -2.5 0.693182
      vertex -0.637096 2.5 0.739777
      vertex -0.637096 -2.5 0.739777
    endloop
  endfacet
  facet normal 0.218148 0 -0.975916
    outer loop
      vertex -0.637096 2.5 0.739777
      vertex -0.845545 -2.5 0.693182
      vertex -0.845545 2.5 0.693182
    endloop
  endfacet
  facet normal -0.960294 0 -0.278991
    outer loop
      vertex 3.29318 -2.5 -1.75445
      vertex 3.23359 2.5 -1.54934
      vertex 3.29318 2.5 -1.75445
    endloop
  endfacet
  facet normal -0.960294 -0 -0.278991
    outer loop
      vertex 3.23359 2.5 -1.54934
      vertex 3.29318 -2.5 -1.75445
      vertex 3.23359 -2.5 -1.54934
    endloop
  endfacet
  facet normal -0.891005 0 -0.453993
    outer loop
      vertex 3.07641 -2.5 -1.15235
      vertex 2.97944 2.5 -0.962037
      vertex 3.07641 2.5 -1.15235
    endloop
  endfacet
  facet normal -0.891005 -0 -0.453993
    outer loop
      vertex 2.97944 2.5 -0.962037
      vertex 3.07641 -2.5 -1.15235
      vertex 2.97944 -2.5 -0.962037
    endloop
  endfacet
  facet normal -0.750116 0 -0.661306
    outer loop
      vertex 2.61974 -2.5 -0.432758
      vertex 2.47849 2.5 -0.272539
      vertex 2.61974 2.5 -0.432758
    endloop
  endfacet
  facet normal -0.750116 -0 -0.661306
    outer loop
      vertex 2.47849 2.5 -0.272539
      vertex 2.61974 -2.5 -0.432758
      vertex 2.47849 -2.5 -0.272539
    endloop
  endfacet
  facet normal -0.156433 0 -0.987689
    outer loop
      vertex 0.426132 -2.5 0.77319
      vertex 0.637096 2.5 0.739777
      vertex 0.637096 -2.5 0.739777
    endloop
  endfacet
  facet normal -0.156433 0 -0.987689
    outer loop
      vertex 0.637096 2.5 0.739777
      vertex 0.426132 -2.5 0.77319
      vertex 0.426132 2.5 0.77319
    endloop
  endfacet
  facet normal -0.0941047 0 -0.995562
    outer loop
      vertex 0.213488 -2.5 0.79329
      vertex 0.426132 2.5 0.77319
      vertex 0.426132 -2.5 0.77319
    endloop
  endfacet
  facet normal -0.0941047 0 -0.995562
    outer loop
      vertex 0.426132 2.5 0.77319
      vertex 0.213488 -2.5 0.79329
      vertex 0.213488 2.5 0.79329
    endloop
  endfacet
  facet normal -0.612912 0 -0.790151
    outer loop
      vertex 1.99847 -2.5 0.150658
      vertex 2.16724 2.5 0.0197449
      vertex 2.16724 -2.5 0.0197449
    endloop
  endfacet
  facet normal -0.612912 0 -0.790151
    outer loop
      vertex 2.16724 2.5 0.0197449
      vertex 1.99847 -2.5 0.150658
      vertex 1.99847 2.5 0.150658
    endloop
  endfacet
  facet normal 0.860737 0 -0.50905
    outer loop
      vertex -2.87071 -2.5 -0.778189
      vertex -2.97944 2.5 -0.962037
      vertex -2.87071 2.5 -0.778189
    endloop
  endfacet
  facet normal 0.860737 0 -0.50905
    outer loop
      vertex -2.97944 2.5 -0.962037
      vertex -2.87071 -2.5 -0.778189
      vertex -2.97944 -2.5 -0.962037
    endloop
  endfacet
  facet normal 0.975911 0 -0.21817
    outer loop
      vertex -3.29318 -2.5 -1.75445
      vertex -3.33978 2.5 -1.9629
      vertex -3.29318 2.5 -1.75445
    endloop
  endfacet
  facet normal 0.975911 0 -0.21817
    outer loop
      vertex -3.33978 2.5 -1.9629
      vertex -3.29318 -2.5 -1.75445
      vertex -3.33978 -2.5 -1.9629
    endloop
  endfacet
  facet normal 0.56208 0 -0.827083
    outer loop
      vertex -1.99847 -2.5 0.150658
      vertex -1.82181 2.5 0.270715
      vertex -1.82181 -2.5 0.270715
    endloop
  endfacet
  facet normal 0.56208 0 -0.827083
    outer loop
      vertex -1.82181 2.5 0.270715
      vertex -1.99847 -2.5 0.150658
      vertex -1.99847 2.5 0.150658
    endloop
  endfacet
  facet normal 0.661307 0 -0.750116
    outer loop
      vertex -2.32746 -2.5 -0.121506
      vertex -2.16724 2.5 0.0197449
      vertex -2.16724 -2.5 0.0197449
    endloop
  endfacet
  facet normal 0.661307 0 -0.750116
    outer loop
      vertex -2.16724 2.5 0.0197449
      vertex -2.32746 -2.5 -0.121506
      vertex -2.32746 2.5 -0.121506
    endloop
  endfacet
  facet normal 0.156433 0 -0.987689
    outer loop
      vertex -0.637096 -2.5 0.739777
      vertex -0.426132 2.5 0.77319
      vertex -0.426132 -2.5 0.77319
    endloop
  endfacet
  facet normal 0.156433 0 -0.987689
    outer loop
      vertex -0.426132 2.5 0.77319
      vertex -0.637096 -2.5 0.739777
      vertex -0.637096 2.5 0.739777
    endloop
  endfacet
  facet normal -0.975911 0 -0.21817
    outer loop
      vertex 3.33978 -2.5 -1.9629
      vertex 3.29318 2.5 -1.75445
      vertex 3.33978 2.5 -1.9629
    endloop
  endfacet
  facet normal -0.975911 -0 -0.21817
    outer loop
      vertex 3.29318 2.5 -1.75445
      vertex 3.33978 -2.5 -1.9629
      vertex 3.29318 -2.5 -1.75445
    endloop
  endfacet
  facet normal -0.790139 0 -0.612928
    outer loop
      vertex 2.75066 -2.5 -0.60153
      vertex 2.61974 2.5 -0.432758
      vertex 2.75066 2.5 -0.60153
    endloop
  endfacet
  facet normal -0.790139 -0 -0.612928
    outer loop
      vertex 2.61974 2.5 -0.432758
      vertex 2.75066 -2.5 -0.60153
      vertex 2.61974 -2.5 -0.432758
    endloop
  endfacet
  facet normal -0.218148 0 -0.975916
    outer loop
      vertex 0.637096 -2.5 0.739777
      vertex 0.845545 2.5 0.693182
      vertex 0.845545 -2.5 0.693182
    endloop
  endfacet
  facet normal -0.218148 0 -0.975916
    outer loop
      vertex 0.845545 2.5 0.693182
      vertex 0.637096 -2.5 0.739777
      vertex 0.637096 2.5 0.739777
    endloop
  endfacet
  facet normal -0.0314101 0 -0.999507
    outer loop
      vertex 0 -2.5 0.799999
      vertex 0.213488 2.5 0.79329
      vertex 0.213488 -2.5 0.79329
    endloop
  endfacet
  facet normal -0.0314101 0 -0.999507
    outer loop
      vertex 0.213488 2.5 0.79329
      vertex 0 -2.5 0.799999
      vertex 0 2.5 0.799999
    endloop
  endfacet
  facet normal -0.33875 0 -0.940876
    outer loop
      vertex 1.05066 -2.5 0.633592
      vertex 1.25162 2.5 0.561239
      vertex 1.25162 -2.5 0.561239
    endloop
  endfacet
  facet normal -0.33875 0 -0.940876
    outer loop
      vertex 1.25162 2.5 0.561239
      vertex 1.05066 -2.5 0.633592
      vertex 1.05066 2.5 0.633592
    endloop
  endfacet
  facet normal -0.453999 0 -0.891002
    outer loop
      vertex 1.44765 -2.5 0.476412
      vertex 1.63796 2.5 0.379442
      vertex 1.63796 -2.5 0.379442
    endloop
  endfacet
  facet normal -0.453999 0 -0.891002
    outer loop
      vertex 1.63796 2.5 0.379442
      vertex 1.44765 -2.5 0.476412
      vertex 1.44765 2.5 0.476412
    endloop
  endfacet
  facet normal 0.987691 0 -0.156415
    outer loop
      vertex -3.33978 -2.5 -1.9629
      vertex -3.37319 2.5 -2.17387
      vertex -3.33978 2.5 -1.9629
    endloop
  endfacet
  facet normal 0.987691 0 -0.156415
    outer loop
      vertex -3.37319 2.5 -2.17387
      vertex -3.33978 -2.5 -1.9629
      vertex -3.37319 -2.5 -2.17387
    endloop
  endfacet
  facet normal 0.790139 0 -0.612928
    outer loop
      vertex -2.61974 -2.5 -0.432758
      vertex -2.75066 2.5 -0.60153
      vertex -2.61974 2.5 -0.432758
    endloop
  endfacet
  facet normal 0.790139 0 -0.612928
    outer loop
      vertex -2.75066 2.5 -0.60153
      vertex -2.61974 -2.5 -0.432758
      vertex -2.75066 -2.5 -0.60153
    endloop
  endfacet
  facet normal 0.917754 0 -0.397149
    outer loop
      vertex -3.07641 -2.5 -1.15235
      vertex -3.16124 2.5 -1.34838
      vertex -3.07641 2.5 -1.15235
    endloop
  endfacet
  facet normal 0.917754 0 -0.397149
    outer loop
      vertex -3.16124 2.5 -1.34838
      vertex -3.07641 -2.5 -1.15235
      vertex -3.16124 -2.5 -1.34838
    endloop
  endfacet
  facet normal 0.940881 0 -0.338738
    outer loop
      vertex -3.16124 -2.5 -1.34838
      vertex -3.23359 2.5 -1.54934
      vertex -3.16124 2.5 -1.34838
    endloop
  endfacet
  facet normal 0.940881 0 -0.338738
    outer loop
      vertex -3.23359 2.5 -1.54934
      vertex -3.16124 -2.5 -1.34838
      vertex -3.23359 -2.5 -1.54934
    endloop
  endfacet
  facet normal 0.612912 0 -0.790151
    outer loop
      vertex -2.16724 -2.5 0.0197449
      vertex -1.99847 2.5 0.150658
      vertex -1.99847 -2.5 0.150658
    endloop
  endfacet
  facet normal 0.612912 0 -0.790151
    outer loop
      vertex -1.99847 2.5 0.150658
      vertex -2.16724 -2.5 0.0197449
      vertex -2.16724 2.5 0.0197449
    endloop
  endfacet
  facet normal 0.509036 0 -0.860745
    outer loop
      vertex -1.82181 -2.5 0.270715
      vertex -1.63796 2.5 0.379442
      vertex -1.63796 -2.5 0.379442
    endloop
  endfacet
  facet normal 0.509036 0 -0.860745
    outer loop
      vertex -1.63796 2.5 0.379442
      vertex -1.82181 -2.5 0.270715
      vertex -1.82181 2.5 0.270715
    endloop
  endfacet
  facet normal 0.397137 0 -0.917759
    outer loop
      vertex -1.44765 -2.5 0.476412
      vertex -1.25162 2.5 0.561239
      vertex -1.25162 -2.5 0.561239
    endloop
  endfacet
  facet normal 0.397137 0 -0.917759
    outer loop
      vertex -1.25162 2.5 0.561239
      vertex -1.44765 -2.5 0.476412
      vertex -1.44765 2.5 0.476412
    endloop
  endfacet
  facet normal 0.278985 0 -0.960295
    outer loop
      vertex -1.05066 -2.5 0.633592
      vertex -0.845545 2.5 0.693182
      vertex -0.845545 -2.5 0.693182
    endloop
  endfacet
  facet normal 0.278985 0 -0.960295
    outer loop
      vertex -0.845545 2.5 0.693182
      vertex -1.05066 -2.5 0.633592
      vertex -1.05066 2.5 0.633592
    endloop
  endfacet
  facet normal 0.0941047 0 -0.995562
    outer loop
      vertex -0.426132 -2.5 0.77319
      vertex -0.213488 2.5 0.79329
      vertex -0.213488 -2.5 0.79329
    endloop
  endfacet
  facet normal 0.0941047 0 -0.995562
    outer loop
      vertex -0.213488 2.5 0.79329
      vertex -0.426132 -2.5 0.77319
      vertex -0.426132 2.5 0.77319
    endloop
  endfacet
  facet normal -0.987691 0 -0.156415
    outer loop
      vertex 3.37319 -2.5 -2.17387
      vertex 3.33978 2.5 -1.9629
      vertex 3.37319 2.5 -2.17387
    endloop
  endfacet
  facet normal -0.987691 -0 -0.156415
    outer loop
      vertex 3.33978 2.5 -1.9629
      vertex 3.37319 -2.5 -2.17387
      vertex 3.33978 -2.5 -1.9629
    endloop
  endfacet
  facet normal -0.940881 0 -0.338738
    outer loop
      vertex 3.23359 -2.5 -1.54934
      vertex 3.16124 2.5 -1.34838
      vertex 3.23359 2.5 -1.54934
    endloop
  endfacet
  facet normal -0.940881 -0 -0.338738
    outer loop
      vertex 3.16124 2.5 -1.34838
      vertex 3.23359 -2.5 -1.54934
      vertex 3.16124 -2.5 -1.34838
    endloop
  endfacet
  facet normal -0.860737 0 -0.50905
    outer loop
      vertex 2.97944 -2.5 -0.962037
      vertex 2.87071 2.5 -0.778189
      vertex 2.97944 2.5 -0.962037
    endloop
  endfacet
  facet normal -0.860737 -0 -0.50905
    outer loop
      vertex 2.87071 2.5 -0.778189
      vertex 2.97944 -2.5 -0.962037
      vertex 2.87071 -2.5 -0.778189
    endloop
  endfacet
  facet normal -0.827097 0 -0.56206
    outer loop
      vertex 2.87071 -2.5 -0.778189
      vertex 2.75066 2.5 -0.60153
      vertex 2.87071 2.5 -0.778189
    endloop
  endfacet
  facet normal -0.827097 -0 -0.56206
    outer loop
      vertex 2.75066 2.5 -0.60153
      vertex 2.87071 -2.5 -0.778189
      vertex 2.75066 -2.5 -0.60153
    endloop
  endfacet
  facet normal -0.278985 0 -0.960295
    outer loop
      vertex 0.845545 -2.5 0.693182
      vertex 1.05066 2.5 0.633592
      vertex 1.05066 -2.5 0.633592
    endloop
  endfacet
  facet normal -0.278985 0 -0.960295
    outer loop
      vertex 1.05066 2.5 0.633592
      vertex 0.845545 -2.5 0.693182
      vertex 0.845545 2.5 0.693182
    endloop
  endfacet
  facet normal -0.397137 0 -0.917759
    outer loop
      vertex 1.25162 -2.5 0.561239
      vertex 1.44765 2.5 0.476412
      vertex 1.44765 -2.5 0.476412
    endloop
  endfacet
  facet normal -0.397137 0 -0.917759
    outer loop
      vertex 1.44765 2.5 0.476412
      vertex 1.25162 -2.5 0.561239
      vertex 1.25162 2.5 0.561239
    endloop
  endfacet
  facet normal -0.56208 0 -0.827083
    outer loop
      vertex 1.82181 -2.5 0.270715
      vertex 1.99847 2.5 0.150658
      vertex 1.99847 -2.5 0.150658
    endloop
  endfacet
  facet normal -0.56208 0 -0.827083
    outer loop
      vertex 1.99847 2.5 0.150658
      vertex 1.82181 -2.5 0.270715
      vertex 1.82181 2.5 0.270715
    endloop
  endfacet
  facet normal -0.509036 0 -0.860745
    outer loop
      vertex 1.63796 -2.5 0.379442
      vertex 1.82181 2.5 0.270715
      vertex 1.82181 -2.5 0.270715
    endloop
  endfacet
  facet normal -0.509036 0 -0.860745
    outer loop
      vertex 1.82181 2.5 0.270715
      vertex 1.63796 -2.5 0.379442
      vertex 1.63796 2.5 0.379442
    endloop
  endfacet
  facet normal -0.661307 0 -0.750116
    outer loop
      vertex 2.16724 -2.5 0.0197449
      vertex 2.32746 2.5 -0.121506
      vertex 2.32746 -2.5 -0.121506
    endloop
  endfacet
  facet normal -0.661307 0 -0.750116
    outer loop
      vertex 2.32746 2.5 -0.121506
      vertex 2.16724 -2.5 0.0197449
      vertex 2.16724 2.5 0.0197449
    endloop
  endfacet
  facet normal 0.750116 0 -0.661306
    outer loop
      vertex -2.47849 -2.5 -0.272539
      vertex -2.61974 2.5 -0.432758
      vertex -2.47849 2.5 -0.272539
    endloop
  endfacet
  facet normal 0.750116 0 -0.661306
    outer loop
      vertex -2.61974 2.5 -0.432758
      vertex -2.47849 -2.5 -0.272539
      vertex -2.61974 -2.5 -0.432758
    endloop
  endfacet
  facet normal 0.891005 0 -0.453993
    outer loop
      vertex -2.97944 -2.5 -0.962037
      vertex -3.07641 2.5 -1.15235
      vertex -2.97944 2.5 -0.962037
    endloop
  endfacet
  facet normal 0.891005 0 -0.453993
    outer loop
      vertex -3.07641 2.5 -1.15235
      vertex -2.97944 -2.5 -0.962037
      vertex -3.07641 -2.5 -1.15235
    endloop
  endfacet
  facet normal 0.960294 0 -0.278991
    outer loop
      vertex -3.23359 -2.5 -1.54934
      vertex -3.29318 2.5 -1.75445
      vertex -3.23359 2.5 -1.54934
    endloop
  endfacet
  facet normal 0.960294 0 -0.278991
    outer loop
      vertex -3.29318 2.5 -1.75445
      vertex -3.23359 -2.5 -1.54934
      vertex -3.29318 -2.5 -1.75445
    endloop
  endfacet
  facet normal 0.995562 0 -0.0941065
    outer loop
      vertex -3.37319 -2.5 -2.17387
      vertex -3.39329 2.5 -2.38651
      vertex -3.37319 2.5 -2.17387
    endloop
  endfacet
  facet normal 0.995562 0 -0.0941065
    outer loop
      vertex -3.39329 2.5 -2.38651
      vertex -3.37319 -2.5 -2.17387
      vertex -3.39329 -2.5 -2.38651
    endloop
  endfacet
  facet normal 0.453999 0 -0.891002
    outer loop
      vertex -1.63796 -2.5 0.379442
      vertex -1.44765 2.5 0.476412
      vertex -1.44765 -2.5 0.476412
    endloop
  endfacet
  facet normal 0.453999 0 -0.891002
    outer loop
      vertex -1.44765 2.5 0.476412
      vertex -1.63796 -2.5 0.379442
      vertex -1.63796 2.5 0.379442
    endloop
  endfacet
  facet normal 0.33875 0 -0.940876
    outer loop
      vertex -1.25162 -2.5 0.561239
      vertex -1.05066 2.5 0.633592
      vertex -1.05066 -2.5 0.633592
    endloop
  endfacet
  facet normal 0.33875 0 -0.940876
    outer loop
      vertex -1.05066 2.5 0.633592
      vertex -1.25162 -2.5 0.561239
      vertex -1.25162 2.5 0.561239
    endloop
  endfacet
endsolid OpenSCAD_Model
