solid OpenSCAD_Model
  facet normal -1 0 0
    outer loop
      vertex -5 -2.5 -2.5
      vertex -5 2.5 2.5
      vertex -5 2.5 -2.5
    endloop
  endfacet
  facet normal -1 -0 0
    outer loop
      vertex -5 2.5 2.5
      vertex -5 -2.5 -2.5
      vertex -5 -2.5 2.5
    endloop
  endfacet
  facet normal -0 0 1
    outer loop
      vertex -5 2.5 2.5
      vertex 5 -2.5 2.5
      vertex 5 2.5 2.5
    endloop
  endfacet
  facet normal 0 0 1
    outer loop
      vertex 5 -2.5 2.5
      vertex -5 2.5 2.5
      vertex -5 -2.5 2.5
    endloop
  endfacet
  facet normal 1 -0 0
    outer loop
      vertex 5 -2.5 2.5
      vertex 5 2.5 -2.5
      vertex 5 2.5 2.5
    endloop
  endfacet
  facet normal 1 0 0
    outer loop
      vertex 5 2.5 -2.5
      vertex 5 -2.5 2.5
      vertex 5 -2.5 -2.5
    endloop
  endfacet
  facet normal 0 0 -1
    outer loop
      vertex -5 -2.5 -2.5
      vertex -3.97804 2.5 -2.5
      vertex -3.97804 -2.5 -2.5
    endloop
  endfacet
  facet normal -0 0 -1
    outer loop
      vertex -3.97804 2.5 -2.5
      vertex -5 -2.5 -2.5
      vertex -5 2.5 -2.5
    endloop
  endfacet
  facet normal 0 0 -1
    outer loop
      vertex 3.97804 -2.5 -2.5
      vertex 5 2.5 -2.5
      vertex 5 -2.5 -2.5
    endloop
  endfacet
  facet normal -0 0 -1
    outer loop
      vertex 5 2.5 -2.5
      vertex 3.97804 -2.5 -2.5
      vertex 3.97804 2.5 -2.5
    endloop
  endfacet
  facet normal 0 -1 0
    outer loop
      vertex -5 -2.5 2.5
      vertex 0 -2.5 1.9
      vertex 5 -2.5 2.5
    endloop
  endfacet
  facet normal 0 -1 0
    outer loop
      vertex -5 -2.5 2.5
      vertex -0.251162 -2.5 1.89211
      vertex 0 -2.5 1.9
    endloop
  endfacet
  facet normal 0 -1 0
    outer loop
      vertex -5 -2.5 2.5
      vertex -0.501332 -2.5 1.86846
      vertex -0.251162 -2.5 1.89211
    endloop
  endfacet
  facet normal 0 -1 0
    outer loop
      vertex -5 -2.5 2.5
      vertex -0.749525 -2.5 1.82915
      vertex -0.501332 -2.5 1.86846
    endloop
  endfacet
  facet normal 0 -1 0
    outer loop
      vertex -5 -2.5 2.5
      vertex -0.994759 -2.5 1.77433
      vertex -0.749525 -2.5 1.82915
    endloop
  endfacet
  facet normal 0 -1 0
    outer loop
      vertex -5 -2.5 2.5
      vertex -1.23607 -2.5 1.70423
      vertex -0.994759 -2.5 1.77433
    endloop
  endfacet
  facet normal 0 -1 0
    outer loop
      vertex -5 -2.5 2.5
      vertex -1.4725 -2.5 1.61911
      vertex -1.23607 -2.5 1.70423
    endloop
  endfacet
  facet normal 0 -1 0
    outer loop
      vertex -5 -2.5 2.5
      vertex -1.70312 -2.5 1.51931
      vertex -1.4725 -2.5 1.61911
    endloop
  endfacet
  facet normal 0 -1 0
    outer loop
      vertex -5 -2.5 2.5
      vertex -1.92701 -2.5 1.40523
      vertex -1.70312 -2.5 1.51931
    endloop
  endfacet
  facet normal 0 -1 0
    outer loop
      vertex -5 -2.5 2.5
      vertex -2.14331 -2.5 1.27731
      vertex -1.92701 -2.5 1.40523
    endloop
  endfacet
  facet normal 0 -1 0
    outer loop
      vertex -5 -2.5 2.5
      vertex -2.35114 -2.5 1.13607
      vertex -2.14331 -2.5 1.27731
    endloop
  endfacet
  facet normal 0 -1 0
    outer loop
      vertex -5 -2.5 2.5
      vertex -2.5497 -2.5 0.982053
      vertex -2.35114 -2.5 1.13607
    endloop
  endfacet
  facet normal 0 -1 0
    outer loop
      vertex -5 -2.5 2.5
      vertex -2.73819 -2.5 0.815874
      vertex -2.5497 -2.5 0.982053
    endloop
  endfacet
  facet normal 0 -1 0
    outer loop
      vertex -5 -2.5 2.5
      vertex -2.91587 -2.5 0.638188
      vertex -2.73819 -2.5 0.815874
    endloop
  endfacet
  facet normal 0 -1 0
    outer loop
      vertex -5 -2.5 2.5
      vertex -3.08205 -2.5 0.449696
      vertex -2.91587 -2.5 0.638188
    endloop
  endfacet
  facet normal 0 -1 0
    outer loop
      vertex -5 -2.5 2.5
      vertex -3.23607 -2.5 0.251141
      vertex -3.08205 -2.5 0.449696
    endloop
  endfacet
  facet normal 0 -1 0
    outer loop
      vertex -5 -2.5 2.5
      vertex -3.37731 -2.5 0.0433064
      vertex -3.23607 -2.5 0.251141
    endloop
  endfacet
  facet normal 0 -1 0
    outer loop
      vertex -5 -2.5 2.5
      vertex -3.50523 -2.5 -0.172985
      vertex -3.37731 -2.5 0.0433064
    endloop
  endfacet
  facet normal 0 -1 0
    outer loop
      vertex -5 -2.5 2.5
      vertex -3.61931 -2.5 -0.396882
      vertex -3.50523 -2.5 -0.172985
    endloop
  endfacet
  facet normal 0 -1 0
    outer loop
      vertex -5 -2.5 2.5
      vertex -3.71911 -2.5 -0.627501
      vertex -3.61931 -2.5 -0.396882
    endloop
  endfacet
  facet normal 0 -1 0
    outer loop
      vertex -5 -2.5 2.5
      vertex -3.80423 -2.5 -0.863932
      vertex -3.71911 -2.5 -0.627501
    endloop
  endfacet
  facet normal 0 -1 0
    outer loop
      vertex -5 -2.5 -2.5
      vertex -3.80423 -2.5 -0.863932
      vertex -5 -2.5 2.5
    endloop
  endfacet
  facet normal 0 -1 0
    outer loop
      vertex -3.80423 -2.5 -0.863932
      vertex -5 -2.5 -2.5
      vertex -3.87433 -2.5 -1.10524
    endloop
  endfacet
  facet normal 0 -1 0
    outer loop
      vertex -3.87433 -2.5 -1.10524
      vertex -5 -2.5 -2.5
      vertex -3.92915 -2.5 -1.35047
    endloop
  endfacet
  facet normal 0 -1 0
    outer loop
      vertex -3.92915 -2.5 -1.35047
      vertex -5 -2.5 -2.5
      vertex -3.96846 -2.5 -1.59867
    endloop
  endfacet
  facet normal 0 -1 0
    outer loop
      vertex -3.96846 -2.5 -1.59867
      vertex -5 -2.5 -2.5
      vertex -3.99211 -2.5 -1.84884
    endloop
  endfacet
  facet normal 0 -1 0
    outer loop
      vertex -3.99211 -2.5 -1.84884
      vertex -5 -2.5 -2.5
      vertex -4 -2.5 -2.1
    endloop
  endfacet
  facet normal 0 -1 -0
    outer loop
      vertex -4 -2.5 -2.1
      vertex -5 -2.5 -2.5
      vertex -3.99211 -2.5 -2.35116
    endloop
  endfacet
  facet normal 0 -1 -0
    outer loop
      vertex -3.99211 -2.5 -2.35116
      vertex -5 -2.5 -2.5
      vertex -3.97804 -2.5 -2.5
    endloop
  endfacet
  facet normal 0 -1 0
    outer loop
      vertex 0.251162 -2.5 1.89211
      vertex 5 -2.5 2.5
      vertex 0 -2.5 1.9
    endloop
  endfacet
  facet normal 0 -1 0
    outer loop
      vertex 0.501332 -2.5 1.86846
      vertex 5 -2.5 2.5
      vertex 0.251162 -2.5 1.89211
    endloop
  endfacet
  facet normal 0 -1 0
    outer loop
      vertex 0.749525 -2.5 1.82915
      vertex 5 -2.5 2.5
      vertex 0.501332 -2.5 1.86846
    endloop
  endfacet
  facet normal 0 -1 0
    outer loop
      vertex 0.994759 -2.5 1.77433
      vertex 5 -2.5 2.5
      vertex 0.749525 -2.5 1.82915
    endloop
  endfacet
  facet normal 0 -1 0
    outer loop
      vertex 1.23607 -2.5 1.70423
      vertex 5 -2.5 2.5
      vertex 0.994759 -2.5 1.77433
    endloop
  endfacet
  facet normal 0 -1 0
    outer loop
      vertex 1.4725 -2.5 1.61911
      vertex 5 -2.5 2.5
      vertex 1.23607 -2.5 1.70423
    endloop
  endfacet
  facet normal 0 -1 0
    outer loop
      vertex 1.70312 -2.5 1.51931
      vertex 5 -2.5 2.5
      vertex 1.4725 -2.5 1.61911
    endloop
  endfacet
  facet normal 0 -1 0
    outer loop
      vertex 1.92701 -2.5 1.40523
      vertex 5 -2.5 2.5
      vertex 1.70312 -2.5 1.51931
    endloop
  endfacet
  facet normal 0 -1 0
    outer loop
      vertex 2.14331 -2.5 1.27731
      vertex 5 -2.5 2.5
      vertex 1.92701 -2.5 1.40523
    endloop
  endfacet
  facet normal 0 -1 0
    outer loop
      vertex 2.35114 -2.5 1.13607
      vertex 5 -2.5 2.5
      vertex 2.14331 -2.5 1.27731
    endloop
  endfacet
  facet normal 0 -1 0
    outer loop
      vertex 2.5497 -2.5 0.982053
      vertex 5 -2.5 2.5
      vertex 2.35114 -2.5 1.13607
    endloop
  endfacet
  facet normal 0 -1 0
    outer loop
      vertex 2.73819 -2.5 0.815874
      vertex 5 -2.5 2.5
      vertex 2.5497 -2.5 0.982053
    endloop
  endfacet
  facet normal 0 -1 0
    outer loop
      vertex 2.91587 -2.5 0.638188
      vertex 5 -2.5 2.5
      vertex 2.73819 -2.5 0.815874
    endloop
  endfacet
  facet normal 0 -1 0
    outer loop
      vertex 3.08205 -2.5 0.449696
      vertex 5 -2.5 2.5
      vertex 2.91587 -2.5 0.638188
    endloop
  endfacet
  facet normal 0 -1 0
    outer loop
      vertex 3.23607 -2.5 0.251141
      vertex 5 -2.5 2.5
      vertex 3.08205 -2.5 0.449696
    endloop
  endfacet
  facet normal 0 -1 0
    outer loop
      vertex 3.37731 -2.5 0.0433064
      vertex 5 -2.5 2.5
      vertex 3.23607 -2.5 0.251141
    endloop
  endfacet
  facet normal 0 -1 0
    outer loop
      vertex 3.50523 -2.5 -0.172985
      vertex 5 -2.5 2.5
      vertex 3.37731 -2.5 0.0433064
    endloop
  endfacet
  facet normal 0 -1 0
    outer loop
      vertex 3.61931 -2.5 -0.396882
      vertex 5 -2.5 2.5
      vertex 3.50523 -2.5 -0.172985
    endloop
  endfacet
  facet normal 0 -1 0
    outer loop
      vertex 3.71911 -2.5 -0.627501
      vertex 5 -2.5 2.5
      vertex 3.61931 -2.5 -0.396882
    endloop
  endfacet
  facet normal 0 -1 0
    outer loop
      vertex 3.80423 -2.5 -0.863932
      vertex 5 -2.5 2.5
      vertex 3.71911 -2.5 -0.627501
    endloop
  endfacet
  facet normal 0 -1 0
    outer loop
      vertex 5 -2.5 -2.5
      vertex 3.80423 -2.5 -0.863932
      vertex 3.87433 -2.5 -1.10524
    endloop
  endfacet
  facet normal 0 -1 0
    outer loop
      vertex 5 -2.5 -2.5
      vertex 3.87433 -2.5 -1.10524
      vertex 3.92915 -2.5 -1.35047
    endloop
  endfacet
  facet normal 0 -1 0
    outer loop
      vertex 5 -2.5 -2.5
      vertex 3.92915 -2.5 -1.35047
      vertex 3.96846 -2.5 -1.59867
    endloop
  endfacet
  facet normal 0 -1 0
    outer loop
      vertex 5 -2.5 -2.5
      vertex 3.96846 -2.5 -1.59867
      vertex 3.99211 -2.5 -1.84884
    endloop
  endfacet
  facet normal 0 -1 0
    outer loop
      vertex 5 -2.5 -2.5
      vertex 3.99211 -2.5 -1.84884
      vertex 4 -2.5 -2.1
    endloop
  endfacet
  facet normal 0 -1 0
    outer loop
      vertex 5 -2.5 -2.5
      vertex 4 -2.5 -2.1
      vertex 3.99211 -2.5 -2.35116
    endloop
  endfacet
  facet normal 0 -1 0
    outer loop
      vertex 5 -2.5 -2.5
      vertex 3.99211 -2.5 -2.35116
      vertex 3.97804 -2.5 -2.5
    endloop
  endfacet
  facet normal 0 -1 0
    outer loop
      vertex 3.80423 -2.5 -0.863932
      vertex 5 -2.5 -2.5
      vertex 5 -2.5 2.5
    endloop
  endfacet
  facet normal 0 1 0
    outer loop
      vertex 5 2.5 2.5
      vertex 0 2.5 1.9
      vertex -5 2.5 2.5
    endloop
  endfacet
  facet normal 0 1 0
    outer loop
      vertex 5 2.5 2.5
      vertex 0.251162 2.5 1.89211
      vertex 0 2.5 1.9
    endloop
  endfacet
  facet normal 0 1 0
    outer loop
      vertex 5 2.5 2.5
      vertex 0.501332 2.5 1.86846
      vertex 0.251162 2.5 1.89211
    endloop
  endfacet
  facet normal 0 1 0
    outer loop
      vertex 5 2.5 2.5
      vertex 0.749525 2.5 1.82915
      vertex 0.501332 2.5 1.86846
    endloop
  endfacet
  facet normal 0 1 0
    outer loop
      vertex 5 2.5 2.5
      vertex 0.994759 2.5 1.77433
      vertex 0.749525 2.5 1.82915
    endloop
  endfacet
  facet normal 0 1 0
    outer loop
      vertex 5 2.5 2.5
      vertex 1.23607 2.5 1.70423
      vertex 0.994759 2.5 1.77433
    endloop
  endfacet
  facet normal 0 1 0
    outer loop
      vertex 5 2.5 2.5
      vertex 1.4725 2.5 1.61911
      vertex 1.23607 2.5 1.70423
    endloop
  endfacet
  facet normal 0 1 0
    outer loop
      vertex 5 2.5 2.5
      vertex 1.70312 2.5 1.51931
      vertex 1.4725 2.5 1.61911
    endloop
  endfacet
  facet normal 0 1 0
    outer loop
      vertex 5 2.5 2.5
      vertex 1.92701 2.5 1.40523
      vertex 1.70312 2.5 1.51931
    endloop
  endfacet
  facet normal 0 1 0
    outer loop
      vertex 5 2.5 2.5
      vertex 2.14331 2.5 1.27731
      vertex 1.92701 2.5 1.40523
    endloop
  endfacet
  facet normal 0 1 0
    outer loop
      vertex 5 2.5 2.5
      vertex 2.35114 2.5 1.13607
      vertex 2.14331 2.5 1.27731
    endloop
  endfacet
  facet normal 0 1 0
    outer loop
      vertex 5 2.5 2.5
      vertex 2.5497 2.5 0.982053
      vertex 2.35114 2.5 1.13607
    endloop
  endfacet
  facet normal 0 1 0
    outer loop
      vertex 5 2.5 2.5
      vertex 2.73819 2.5 0.815874
      vertex 2.5497 2.5 0.982053
    endloop
  endfacet
  facet normal 0 1 0
    outer loop
      vertex 5 2.5 2.5
      vertex 2.91587 2.5 0.638188
      vertex 2.73819 2.5 0.815874
    endloop
  endfacet
  facet normal 0 1 0
    outer loop
      vertex 5 2.5 2.5
      vertex 3.08205 2.5 0.449696
      vertex 2.91587 2.5 0.638188
    endloop
  endfacet
  facet normal 0 1 0
    outer loop
      vertex 5 2.5 2.5
      vertex 3.23607 2.5 0.251141
      vertex 3.08205 2.5 0.449696
    endloop
  endfacet
  facet normal 0 1 0
    outer loop
      vertex 5 2.5 2.5
      vertex 3.37731 2.5 0.0433064
      vertex 3.23607 2.5 0.251141
    endloop
  endfacet
  facet normal 0 1 0
    outer loop
      vertex 5 2.5 2.5
      vertex 3.50523 2.5 -0.172985
      vertex 3.37731 2.5 0.0433064
    endloop
  endfacet
  facet normal 0 1 0
    outer loop
      vertex 5 2.5 2.5
      vertex 3.61931 2.5 -0.396882
      vertex 3.50523 2.5 -0.172985
    endloop
  endfacet
  facet normal 0 1 0
    outer loop
      vertex 5 2.5 2.5
      vertex 3.71911 2.5 -0.627501
      vertex 3.61931 2.5 -0.396882
    endloop
  endfacet
  facet normal 0 1 0
    outer loop
      vertex 5 2.5 2.5
      vertex 3.80423 2.5 -0.863932
      vertex 3.71911 2.5 -0.627501
    endloop
  endfacet
  facet normal 0 1 -0
    outer loop
      vertex 5 2.5 -2.5
      vertex 3.80423 2.5 -0.863932
      vertex 5 2.5 2.5
    endloop
  endfacet
  facet normal 0 1 0
    outer loop
      vertex 3.80423 2.5 -0.863932
      vertex 5 2.5 -2.5
      vertex 3.87433 2.5 -1.10524
    endloop
  endfacet
  facet normal 0 1 0
    outer loop
      vertex 3.87433 2.5 -1.10524
      vertex 5 2.5 -2.5
      vertex 3.92915 2.5 -1.35047
    endloop
  endfacet
  facet normal 0 1 0
    outer loop
      vertex 3.92915 2.5 -1.35047
      vertex 5 2.5 -2.5
      vertex 3.96846 2.5 -1.59867
    endloop
  endfacet
  facet normal 0 1 0
    outer loop
      vertex 3.96846 2.5 -1.59867
      vertex 5 2.5 -2.5
      vertex 3.99211 2.5 -1.84884
    endloop
  endfacet
  facet normal 0 1 0
    outer loop
      vertex 3.99211 2.5 -1.84884
      vertex 5 2.5 -2.5
      vertex 4 2.5 -2.1
    endloop
  endfacet
  facet normal 0 1 0
    outer loop
      vertex 4 2.5 -2.1
      vertex 5 2.5 -2.5
      vertex 3.99211 2.5 -2.35116
    endloop
  endfacet
  facet normal 0 1 0
    outer loop
      vertex 3.99211 2.5 -2.35116
      vertex 5 2.5 -2.5
      vertex 3.97804 2.5 -2.5
    endloop
  endfacet
  facet normal 0 1 -0
    outer loop
      vertex -0.251162 2.5 1.89211
      vertex -5 2.5 2.5
      vertex 0 2.5 1.9
    endloop
  endfacet
  facet normal 0 1 -0
    outer loop
      vertex -0.501332 2.5 1.86846
      vertex -5 2.5 2.5
      vertex -0.251162 2.5 1.89211
    endloop
  endfacet
  facet normal 0 1 -0
    outer loop
      vertex -0.749525 2.5 1.82915
      vertex -5 2.5 2.5
      vertex -0.501332 2.5 1.86846
    endloop
  endfacet
  facet normal 0 1 -0
    outer loop
      vertex -0.994759 2.5 1.77433
      vertex -5 2.5 2.5
      vertex -0.749525 2.5 1.82915
    endloop
  endfacet
  facet normal 0 1 -0
    outer loop
      vertex -1.23607 2.5 1.70423
      vertex -5 2.5 2.5
      vertex -0.994759 2.5 1.77433
    endloop
  endfacet
  facet normal 0 1 -0
    outer loop
      vertex -1.4725 2.5 1.61911
      vertex -5 2.5 2.5
      vertex -1.23607 2.5 1.70423
    endloop
  endfacet
  facet normal 0 1 -0
    outer loop
      vertex -1.70312 2.5 1.51931
      vertex -5 2.5 2.5
      vertex -1.4725 2.5 1.61911
    endloop
  endfacet
  facet normal 0 1 -0
    outer loop
      vertex -1.92701 2.5 1.40523
      vertex -5 2.5 2.5
      vertex -1.70312 2.5 1.51931
    endloop
  endfacet
  facet normal 0 1 -0
    outer loop
      vertex -2.14331 2.5 1.27731
      vertex -5 2.5 2.5
      vertex -1.92701 2.5 1.40523
    endloop
  endfacet
  facet normal 0 1 -0
    outer loop
      vertex -2.35114 2.5 1.13607
      vertex -5 2.5 2.5
      vertex -2.14331 2.5 1.27731
    endloop
  endfacet
  facet normal 0 1 -0
    outer loop
      vertex -2.5497 2.5 0.982053
      vertex -5 2.5 2.5
      vertex -2.35114 2.5 1.13607
    endloop
  endfacet
  facet normal 0 1 -0
    outer loop
      vertex -2.73819 2.5 0.815874
      vertex -5 2.5 2.5
      vertex -2.5497 2.5 0.982053
    endloop
  endfacet
  facet normal 0 1 -0
    outer loop
      vertex -2.91587 2.5 0.638188
      vertex -5 2.5 2.5
      vertex -2.73819 2.5 0.815874
    endloop
  endfacet
  facet normal 0 1 -0
    outer loop
      vertex -3.08205 2.5 0.449696
      vertex -5 2.5 2.5
      vertex -2.91587 2.5 0.638188
    endloop
  endfacet
  facet normal 0 1 -0
    outer loop
      vertex -3.23607 2.5 0.251141
      vertex -5 2.5 2.5
      vertex -3.08205 2.5 0.449696
    endloop
  endfacet
  facet normal 0 1 -0
    outer loop
      vertex -3.37731 2.5 0.0433064
      vertex -5 2.5 2.5
      vertex -3.23607 2.5 0.251141
    endloop
  endfacet
  facet normal 0 1 -0
    outer loop
      vertex -3.50523 2.5 -0.172985
      vertex -5 2.5 2.5
      vertex -3.37731 2.5 0.0433064
    endloop
  endfacet
  facet normal 0 1 -0
    outer loop
      vertex -3.61931 2.5 -0.396882
      vertex -5 2.5 2.5
      vertex -3.50523 2.5 -0.172985
    endloop
  endfacet
  facet normal 0 1 -0
    outer loop
      vertex -3.71911 2.5 -0.627501
      vertex -5 2.5 2.5
      vertex -3.61931 2.5 -0.396882
    endloop
  endfacet
  facet normal 0 1 -0
    outer loop
      vertex -3.80423 2.5 -0.863932
      vertex -5 2.5 2.5
      vertex -3.71911 2.5 -0.627501
    endloop
  endfacet
  facet normal 0 1 0
    outer loop
      vertex -5 2.5 -2.5
      vertex -3.80423 2.5 -0.863932
      vertex -3.87433 2.5 -1.10524
    endloop
  endfacet
  facet normal 0 1 0
    outer loop
      vertex -5 2.5 -2.5
      vertex -3.87433 2.5 -1.10524
      vertex -3.92915 2.5 -1.35047
    endloop
  endfacet
  facet normal 0 1 0
    outer loop
      vertex -5 2.5 -2.5
      vertex -3.92915 2.5 -1.35047
      vertex -3.96846 2.5 -1.59867
    endloop
  endfacet
  facet normal 0 1 0
    outer loop
      vertex -5 2.5 -2.5
      vertex -3.96846 2.5 -1.59867
      vertex -3.99211 2.5 -1.84884
    endloop
  endfacet
  facet normal 0 1 0
    outer loop
      vertex -5 2.5 -2.5
      vertex -3.99211 2.5 -1.84884
      vertex -4 2.5 -2.1
    endloop
  endfacet
  facet normal 0 1 0
    outer loop
      vertex -5 2.5 -2.5
      vertex -4 2.5 -2.1
      vertex -3.99211 2.5 -2.35116
    endloop
  endfacet
  facet normal 0 1 0
    outer loop
      vertex -5 2.5 -2.5
      vertex -3.99211 2.5 -2.35116
      vertex -3.97804 2.5 -2.5
    endloop
  endfacet
  facet normal 0 1 0
    outer loop
      vertex -3.80423 2.5 -0.863932
      vertex -5 2.5 -2.5
      vertex -5 2.5 2.5
    endloop
  endfacet
  facet normal -0.999507 0 -0.0313987
    outer loop
      vertex 4 -2.5 -2.1
      vertex 3.99211 2.5 -1.84884
      vertex 4 2.5 -2.1
    endloop
  endfacet
  facet normal -0.999507 -0 -0.0313987
    outer loop
      vertex 3.99211 2.5 -1.84884
      vertex 4 -2.5 -2.1
      vertex 3.99211 -2.5 -1.84884
    endloop
  endfacet
  facet normal -0.995561 0 -0.0941161
    outer loop
      vertex 3.99211 -2.5 -1.84884
      vertex 3.96846 2.5 -1.59867
      vertex 3.99211 2.5 -1.84884
    endloop
  endfacet
  facet normal -0.995561 -0 -0.0941161
    outer loop
      vertex 3.96846 2.5 -1.59867
      vertex 3.99211 -2.5 -1.84884
      vertex 3.96846 -2.5 -1.59867
    endloop
  endfacet
  facet normal 0.0313985 0 -0.999507
    outer loop
      vertex -0.251162 -2.5 1.89211
      vertex 0 2.5 1.9
      vertex 0 -2.5 1.9
    endloop
  endfacet
  facet normal 0.0313985 0 -0.999507
    outer loop
      vertex 0 2.5 1.9
      vertex -0.251162 -2.5 1.89211
      vertex -0.251162 2.5 1.89211
    endloop
  endfacet
  facet normal -0.707119 0 -0.707095
    outer loop
      vertex 2.73819 -2.5 0.815874
      vertex 2.91587 2.5 0.638188
      vertex 2.91587 -2.5 0.638188
    endloop
  endfacet
  facet normal -0.707119 0 -0.707095
    outer loop
      vertex 2.91587 2.5 0.638188
      vertex 2.73819 -2.5 0.815874
      vertex 2.73819 2.5 0.815874
    endloop
  endfacet
  facet normal 0.707119 0 -0.707095
    outer loop
      vertex -2.91587 -2.5 0.638188
      vertex -2.73819 2.5 0.815874
      vertex -2.73819 -2.5 0.815874
    endloop
  endfacet
  facet normal 0.707119 0 -0.707095
    outer loop
      vertex -2.73819 2.5 0.815874
      vertex -2.91587 -2.5 0.638188
      vertex -2.91587 2.5 0.638188
    endloop
  endfacet
  facet normal -0.917751 0 -0.397155
    outer loop
      vertex 3.71911 -2.5 -0.627501
      vertex 3.61931 2.5 -0.396882
      vertex 3.71911 2.5 -0.627501
    endloop
  endfacet
  facet normal -0.917751 -0 -0.397155
    outer loop
      vertex 3.61931 2.5 -0.396882
      vertex 3.71911 -2.5 -0.627501
      vertex 3.61931 -2.5 -0.396882
    endloop
  endfacet
  facet normal -0.975913 0 -0.218161
    outer loop
      vertex 3.92915 -2.5 -1.35047
      vertex 3.87433 2.5 -1.10524
      vertex 3.92915 2.5 -1.35047
    endloop
  endfacet
  facet normal -0.975913 -0 -0.218161
    outer loop
      vertex 3.87433 2.5 -1.10524
      vertex 3.92915 -2.5 -1.35047
      vertex 3.87433 -2.5 -1.10524
    endloop
  endfacet
  facet normal -0.891008 0 -0.453987
    outer loop
      vertex 3.61931 -2.5 -0.396882
      vertex 3.50523 2.5 -0.172985
      vertex 3.61931 2.5 -0.396882
    endloop
  endfacet
  facet normal -0.891008 -0 -0.453987
    outer loop
      vertex 3.50523 2.5 -0.172985
      vertex 3.61931 -2.5 -0.396882
      vertex 3.50523 -2.5 -0.172985
    endloop
  endfacet
  facet normal -0.750107 0 -0.661316
    outer loop
      vertex 3.08205 -2.5 0.449696
      vertex 2.91587 2.5 0.638188
      vertex 3.08205 2.5 0.449696
    endloop
  endfacet
  facet normal -0.750107 -0 -0.661316
    outer loop
      vertex 2.91587 2.5 0.638188
      vertex 3.08205 -2.5 0.449696
      vertex 2.91587 -2.5 0.638188
    endloop
  endfacet
  facet normal -0.156435 0 -0.987688
    outer loop
      vertex 0.501332 -2.5 1.86846
      vertex 0.749525 2.5 1.82915
      vertex 0.749525 -2.5 1.82915
    endloop
  endfacet
  facet normal -0.156435 0 -0.987688
    outer loop
      vertex 0.749525 2.5 1.82915
      vertex 0.501332 -2.5 1.86846
      vertex 0.501332 2.5 1.86846
    endloop
  endfacet
  facet normal -0.0941161 0 -0.995561
    outer loop
      vertex 0.251162 -2.5 1.89211
      vertex 0.501332 2.5 1.86846
      vertex 0.501332 -2.5 1.86846
    endloop
  endfacet
  facet normal -0.0941161 0 -0.995561
    outer loop
      vertex 0.501332 2.5 1.86846
      vertex 0.251162 -2.5 1.89211
      vertex 0.251162 2.5 1.89211
    endloop
  endfacet
  facet normal 0.860732 0 -0.509058
    outer loop
      vertex -3.37731 -2.5 0.0433064
      vertex -3.50523 2.5 -0.172985
      vertex -3.37731 2.5 0.0433064
    endloop
  endfacet
  facet normal 0.860732 0 -0.509058
    outer loop
      vertex -3.50523 2.5 -0.172985
      vertex -3.37731 -2.5 0.0433064
      vertex -3.50523 -2.5 -0.172985
    endloop
  endfacet
  facet normal 0.940881 0 -0.338737
    outer loop
      vertex -3.71911 -2.5 -0.627501
      vertex -3.80423 2.5 -0.863932
      vertex -3.71911 2.5 -0.627501
    endloop
  endfacet
  facet normal 0.940881 0 -0.338737
    outer loop
      vertex -3.80423 2.5 -0.863932
      vertex -3.71911 -2.5 -0.627501
      vertex -3.80423 -2.5 -0.863932
    endloop
  endfacet
  facet normal 0.891008 0 -0.453987
    outer loop
      vertex -3.50523 -2.5 -0.172985
      vertex -3.61931 2.5 -0.396882
      vertex -3.50523 2.5 -0.172985
    endloop
  endfacet
  facet normal 0.891008 0 -0.453987
    outer loop
      vertex -3.61931 2.5 -0.396882
      vertex -3.50523 -2.5 -0.172985
      vertex -3.61931 -2.5 -0.396882
    endloop
  endfacet
  facet normal 0.987689 0 -0.156431
    outer loop
      vertex -3.92915 -2.5 -1.35047
      vertex -3.96846 2.5 -1.59867
      vertex -3.92915 2.5 -1.35047
    endloop
  endfacet
  facet normal 0.987689 0 -0.156431
    outer loop
      vertex -3.96846 2.5 -1.59867
      vertex -3.92915 -2.5 -1.35047
      vertex -3.96846 -2.5 -1.59867
    endloop
  endfacet
  facet normal 0.995561 0 -0.0941161
    outer loop
      vertex -3.96846 -2.5 -1.59867
      vertex -3.99211 2.5 -1.84884
      vertex -3.96846 2.5 -1.59867
    endloop
  endfacet
  facet normal 0.995561 0 -0.0941161
    outer loop
      vertex -3.99211 2.5 -1.84884
      vertex -3.96846 -2.5 -1.59867
      vertex -3.99211 -2.5 -1.84884
    endloop
  endfacet
  facet normal 0.56208 0 -0.827083
    outer loop
      vertex -2.35114 -2.5 1.13607
      vertex -2.14331 2.5 1.27731
      vertex -2.14331 -2.5 1.27731
    endloop
  endfacet
  facet normal 0.56208 0 -0.827083
    outer loop
      vertex -2.14331 2.5 1.27731
      vertex -2.35114 -2.5 1.13607
      vertex -2.35114 2.5 1.13607
    endloop
  endfacet
  facet normal 0.0941161 0 -0.995561
    outer loop
      vertex -0.501332 -2.5 1.86846
      vertex -0.251162 2.5 1.89211
      vertex -0.251162 -2.5 1.89211
    endloop
  endfacet
  facet normal 0.0941161 0 -0.995561
    outer loop
      vertex -0.251162 2.5 1.89211
      vertex -0.501332 -2.5 1.86846
      vertex -0.501332 2.5 1.86846
    endloop
  endfacet
  facet normal -0.987689 0 -0.156431
    outer loop
      vertex 3.96846 -2.5 -1.59867
      vertex 3.92915 2.5 -1.35047
      vertex 3.96846 2.5 -1.59867
    endloop
  endfacet
  facet normal -0.987689 -0 -0.156431
    outer loop
      vertex 3.92915 2.5 -1.35047
      vertex 3.96846 -2.5 -1.59867
      vertex 3.92915 -2.5 -1.35047
    endloop
  endfacet
  facet normal -0.940881 0 -0.338737
    outer loop
      vertex 3.80423 -2.5 -0.863932
      vertex 3.71911 2.5 -0.627501
      vertex 3.80423 2.5 -0.863932
    endloop
  endfacet
  facet normal -0.940881 -0 -0.338737
    outer loop
      vertex 3.71911 2.5 -0.627501
      vertex 3.80423 -2.5 -0.863932
      vertex 3.71911 -2.5 -0.627501
    endloop
  endfacet
  facet normal -0.960301 0 -0.278967
    outer loop
      vertex 3.87433 -2.5 -1.10524
      vertex 3.80423 2.5 -0.863932
      vertex 3.87433 2.5 -1.10524
    endloop
  endfacet
  facet normal -0.960301 -0 -0.278967
    outer loop
      vertex 3.80423 2.5 -0.863932
      vertex 3.87433 -2.5 -1.10524
      vertex 3.80423 -2.5 -0.863932
    endloop
  endfacet
  facet normal -0.790145 0 -0.612919
    outer loop
      vertex 3.23607 -2.5 0.251141
      vertex 3.08205 2.5 0.449696
      vertex 3.23607 2.5 0.251141
    endloop
  endfacet
  facet normal -0.790145 -0 -0.612919
    outer loop
      vertex 3.08205 2.5 0.449696
      vertex 3.23607 -2.5 0.251141
      vertex 3.08205 -2.5 0.449696
    endloop
  endfacet
  facet normal -0.278964 0 -0.960301
    outer loop
      vertex 0.994759 -2.5 1.77433
      vertex 1.23607 2.5 1.70423
      vertex 1.23607 -2.5 1.70423
    endloop
  endfacet
  facet normal -0.278964 0 -0.960301
    outer loop
      vertex 1.23607 2.5 1.70423
      vertex 0.994759 -2.5 1.77433
      vertex 0.994759 2.5 1.77433
    endloop
  endfacet
  facet normal -0.0313985 0 -0.999507
    outer loop
      vertex 0 -2.5 1.9
      vertex 0.251162 2.5 1.89211
      vertex 0.251162 -2.5 1.89211
    endloop
  endfacet
  facet normal -0.0313985 0 -0.999507
    outer loop
      vertex 0.251162 2.5 1.89211
      vertex 0 -2.5 1.9
      vertex 0 2.5 1.9
    endloop
  endfacet
  facet normal -0.338738 0 -0.940881
    outer loop
      vertex 1.23607 -2.5 1.70423
      vertex 1.4725 2.5 1.61911
      vertex 1.4725 -2.5 1.61911
    endloop
  endfacet
  facet normal -0.338738 0 -0.940881
    outer loop
      vertex 1.4725 2.5 1.61911
      vertex 1.23607 -2.5 1.70423
      vertex 1.23607 2.5 1.70423
    endloop
  endfacet
  facet normal -0.453998 0 -0.891003
    outer loop
      vertex 1.70312 -2.5 1.51931
      vertex 1.92701 2.5 1.40523
      vertex 1.92701 -2.5 1.40523
    endloop
  endfacet
  facet normal -0.453998 0 -0.891003
    outer loop
      vertex 1.92701 2.5 1.40523
      vertex 1.70312 -2.5 1.51931
      vertex 1.70312 2.5 1.51931
    endloop
  endfacet
  facet normal 0.917751 0 -0.397155
    outer loop
      vertex -3.61931 -2.5 -0.396882
      vertex -3.71911 2.5 -0.627501
      vertex -3.61931 2.5 -0.396882
    endloop
  endfacet
  facet normal 0.917751 0 -0.397155
    outer loop
      vertex -3.71911 2.5 -0.627501
      vertex -3.61931 -2.5 -0.396882
      vertex -3.71911 -2.5 -0.627501
    endloop
  endfacet
  facet normal 0.960301 0 -0.278967
    outer loop
      vertex -3.80423 -2.5 -0.863932
      vertex -3.87433 2.5 -1.10524
      vertex -3.80423 2.5 -0.863932
    endloop
  endfacet
  facet normal 0.960301 0 -0.278967
    outer loop
      vertex -3.87433 2.5 -1.10524
      vertex -3.80423 -2.5 -0.863932
      vertex -3.87433 -2.5 -1.10524
    endloop
  endfacet
  facet normal 0.999507 0 -0.0313987
    outer loop
      vertex -3.99211 -2.5 -1.84884
      vertex -4 2.5 -2.1
      vertex -3.99211 2.5 -1.84884
    endloop
  endfacet
  facet normal 0.999507 0 -0.0313987
    outer loop
      vertex -4 2.5 -2.1
      vertex -3.99211 -2.5 -1.84884
      vertex -4 -2.5 -2.1
    endloop
  endfacet
  facet normal 0.999507 -0 0.0313987
    outer loop
      vertex -4 -2.5 -2.1
      vertex -3.99211 2.5 -2.35116
      vertex -4 2.5 -2.1
    endloop
  endfacet
  facet normal 0.999507 0 0.0313987
    outer loop
      vertex -3.99211 2.5 -2.35116
      vertex -4 -2.5 -2.1
      vertex -3.99211 -2.5 -2.35116
    endloop
  endfacet
  facet normal 0.612902 0 -0.790159
    outer loop
      vertex -2.5497 -2.5 0.982053
      vertex -2.35114 2.5 1.13607
      vertex -2.35114 -2.5 1.13607
    endloop
  endfacet
  facet normal 0.612902 0 -0.790159
    outer loop
      vertex -2.35114 2.5 1.13607
      vertex -2.5497 -2.5 0.982053
      vertex -2.5497 2.5 0.982053
    endloop
  endfacet
  facet normal 0.453998 0 -0.891003
    outer loop
      vertex -1.92701 -2.5 1.40523
      vertex -1.70312 2.5 1.51931
      vertex -1.70312 -2.5 1.51931
    endloop
  endfacet
  facet normal 0.453998 0 -0.891003
    outer loop
      vertex -1.70312 2.5 1.51931
      vertex -1.92701 -2.5 1.40523
      vertex -1.92701 2.5 1.40523
    endloop
  endfacet
  facet normal 0.397154 0 -0.917752
    outer loop
      vertex -1.70312 -2.5 1.51931
      vertex -1.4725 2.5 1.61911
      vertex -1.4725 -2.5 1.61911
    endloop
  endfacet
  facet normal 0.397154 0 -0.917752
    outer loop
      vertex -1.4725 2.5 1.61911
      vertex -1.70312 -2.5 1.51931
      vertex -1.70312 2.5 1.51931
    endloop
  endfacet
  facet normal 0.278964 0 -0.960301
    outer loop
      vertex -1.23607 -2.5 1.70423
      vertex -0.994759 2.5 1.77433
      vertex -0.994759 -2.5 1.77433
    endloop
  endfacet
  facet normal 0.278964 0 -0.960301
    outer loop
      vertex -0.994759 2.5 1.77433
      vertex -1.23607 -2.5 1.70423
      vertex -1.23607 2.5 1.70423
    endloop
  endfacet
  facet normal 0.218157 0 -0.975914
    outer loop
      vertex -0.994759 -2.5 1.77433
      vertex -0.749525 2.5 1.82915
      vertex -0.749525 -2.5 1.82915
    endloop
  endfacet
  facet normal 0.218157 0 -0.975914
    outer loop
      vertex -0.749525 2.5 1.82915
      vertex -0.994759 -2.5 1.77433
      vertex -0.994759 2.5 1.77433
    endloop
  endfacet
  facet normal 0.995562 -0 0.0941115
    outer loop
      vertex -3.99211 -2.5 -2.35116
      vertex -3.97804 2.5 -2.5
      vertex -3.99211 2.5 -2.35116
    endloop
  endfacet
  facet normal 0.995562 0 0.0941115
    outer loop
      vertex -3.97804 2.5 -2.5
      vertex -3.99211 -2.5 -2.35116
      vertex -3.97804 -2.5 -2.5
    endloop
  endfacet
  facet normal -0.860732 0 -0.509058
    outer loop
      vertex 3.50523 -2.5 -0.172985
      vertex 3.37731 2.5 0.0433064
      vertex 3.50523 2.5 -0.172985
    endloop
  endfacet
  facet normal -0.860732 -0 -0.509058
    outer loop
      vertex 3.37731 2.5 0.0433064
      vertex 3.50523 -2.5 -0.172985
      vertex 3.37731 -2.5 0.0433064
    endloop
  endfacet
  facet normal -0.827088 0 -0.562072
    outer loop
      vertex 3.37731 -2.5 0.0433064
      vertex 3.23607 2.5 0.251141
      vertex 3.37731 2.5 0.0433064
    endloop
  endfacet
  facet normal -0.827088 -0 -0.562072
    outer loop
      vertex 3.23607 2.5 0.251141
      vertex 3.37731 -2.5 0.0433064
      vertex 3.23607 -2.5 0.251141
    endloop
  endfacet
  facet normal -0.218157 0 -0.975914
    outer loop
      vertex 0.749525 -2.5 1.82915
      vertex 0.994759 2.5 1.77433
      vertex 0.994759 -2.5 1.77433
    endloop
  endfacet
  facet normal -0.218157 0 -0.975914
    outer loop
      vertex 0.994759 2.5 1.77433
      vertex 0.749525 -2.5 1.82915
      vertex 0.749525 2.5 1.82915
    endloop
  endfacet
  facet normal -0.397154 0 -0.917752
    outer loop
      vertex 1.4725 -2.5 1.61911
      vertex 1.70312 2.5 1.51931
      vertex 1.70312 -2.5 1.51931
    endloop
  endfacet
  facet normal -0.397154 0 -0.917752
    outer loop
      vertex 1.70312 2.5 1.51931
      vertex 1.4725 -2.5 1.61911
      vertex 1.4725 2.5 1.61911
    endloop
  endfacet
  facet normal -0.56208 0 -0.827083
    outer loop
      vertex 2.14331 -2.5 1.27731
      vertex 2.35114 2.5 1.13607
      vertex 2.35114 -2.5 1.13607
    endloop
  endfacet
  facet normal -0.56208 0 -0.827083
    outer loop
      vertex 2.35114 2.5 1.13607
      vertex 2.14331 -2.5 1.27731
      vertex 2.14331 2.5 1.27731
    endloop
  endfacet
  facet normal -0.509043 0 -0.860741
    outer loop
      vertex 1.92701 -2.5 1.40523
      vertex 2.14331 2.5 1.27731
      vertex 2.14331 -2.5 1.27731
    endloop
  endfacet
  facet normal -0.509043 0 -0.860741
    outer loop
      vertex 2.14331 2.5 1.27731
      vertex 1.92701 -2.5 1.40523
      vertex 1.92701 2.5 1.40523
    endloop
  endfacet
  facet normal -0.661318 0 -0.750106
    outer loop
      vertex 2.5497 -2.5 0.982053
      vertex 2.73819 2.5 0.815874
      vertex 2.73819 -2.5 0.815874
    endloop
  endfacet
  facet normal -0.661318 0 -0.750106
    outer loop
      vertex 2.73819 2.5 0.815874
      vertex 2.5497 -2.5 0.982053
      vertex 2.5497 2.5 0.982053
    endloop
  endfacet
  facet normal -0.612902 0 -0.790159
    outer loop
      vertex 2.35114 -2.5 1.13607
      vertex 2.5497 2.5 0.982053
      vertex 2.5497 -2.5 0.982053
    endloop
  endfacet
  facet normal -0.612902 0 -0.790159
    outer loop
      vertex 2.5497 2.5 0.982053
      vertex 2.35114 -2.5 1.13607
      vertex 2.35114 2.5 1.13607
    endloop
  endfacet
  facet normal 0.827088 0 -0.562072
    outer loop
      vertex -3.23607 -2.5 0.251141
      vertex -3.37731 2.5 0.0433064
      vertex -3.23607 2.5 0.251141
    endloop
  endfacet
  facet normal 0.827088 0 -0.562072
    outer loop
      vertex -3.37731 2.5 0.0433064
      vertex -3.23607 -2.5 0.251141
      vertex -3.37731 -2.5 0.0433064
    endloop
  endfacet
  facet normal 0.790145 0 -0.612919
    outer loop
      vertex -3.08205 -2.5 0.449696
      vertex -3.23607 2.5 0.251141
      vertex -3.08205 2.5 0.449696
    endloop
  endfacet
  facet normal 0.790145 0 -0.612919
    outer loop
      vertex -3.23607 2.5 0.251141
      vertex -3.08205 -2.5 0.449696
      vertex -3.23607 -2.5 0.251141
    endloop
  endfacet
  facet normal 0.975913 0 -0.218161
    outer loop
      vertex -3.87433 -2.5 -1.10524
      vertex -3.92915 2.5 -1.35047
      vertex -3.87433 2.5 -1.10524
    endloop
  endfacet
  facet normal 0.975913 0 -0.218161
    outer loop
      vertex -3.92915 2.5 -1.35047
      vertex -3.87433 -2.5 -1.10524
      vertex -3.92915 -2.5 -1.35047
    endloop
  endfacet
  facet normal 0.661318 0 -0.750106
    outer loop
      vertex -2.73819 -2.5 0.815874
      vertex -2.5497 2.5 0.982053
      vertex -2.5497 -2.5 0.982053
    endloop
  endfacet
  facet normal 0.661318 0 -0.750106
    outer loop
      vertex -2.5497 2.5 0.982053
      vertex -2.73819 -2.5 0.815874
      vertex -2.73819 2.5 0.815874
    endloop
  endfacet
  facet normal 0.509043 0 -0.860741
    outer loop
      vertex -2.14331 -2.5 1.27731
      vertex -1.92701 2.5 1.40523
      vertex -1.92701 -2.5 1.40523
    endloop
  endfacet
  facet normal 0.509043 0 -0.860741
    outer loop
      vertex -1.92701 2.5 1.40523
      vertex -2.14331 -2.5 1.27731
      vertex -2.14331 2.5 1.27731
    endloop
  endfacet
  facet normal 0.338738 0 -0.940881
    outer loop
      vertex -1.4725 -2.5 1.61911
      vertex -1.23607 2.5 1.70423
      vertex -1.23607 -2.5 1.70423
    endloop
  endfacet
  facet normal 0.338738 0 -0.940881
    outer loop
      vertex -1.23607 2.5 1.70423
      vertex -1.4725 -2.5 1.61911
      vertex -1.4725 2.5 1.61911
    endloop
  endfacet
  facet normal 0.156435 0 -0.987688
    outer loop
      vertex -0.749525 -2.5 1.82915
      vertex -0.501332 2.5 1.86846
      vertex -0.501332 -2.5 1.86846
    endloop
  endfacet
  facet normal 0.156435 0 -0.987688
    outer loop
      vertex -0.501332 2.5 1.86846
      vertex -0.749525 -2.5 1.82915
      vertex -0.749525 2.5 1.82915
    endloop
  endfacet
  facet normal -0.995562 0 0.0941115
    outer loop
      vertex 3.97804 -2.5 -2.5
      vertex 3.99211 2.5 -2.35116
      vertex 3.97804 2.5 -2.5
    endloop
  endfacet
  facet normal -0.995562 0 0.0941115
    outer loop
      vertex 3.99211 2.5 -2.35116
      vertex 3.97804 -2.5 -2.5
      vertex 3.99211 -2.5 -2.35116
    endloop
  endfacet
  facet normal -0.999507 0 0.0313987
    outer loop
      vertex 3.99211 -2.5 -2.35116
      vertex 4 2.5 -2.1
      vertex 3.99211 2.5 -2.35116
    endloop
  endfacet
  facet normal -0.999507 0 0.0313987
    outer loop
      vertex 4 2.5 -2.1
      vertex 3.99211 -2.5 -2.35116
      vertex 4 -2.5 -2.1
    endloop
  endfacet
  facet normal 0.750107 0 -0.661316
    outer loop
      vertex -2.91587 -2.5 0.638188
      vertex -3.08205 2.5 0.449696
      vertex -2.91587 2.5 0.638188
    endloop
  endfacet
  facet normal 0.750107 0 -0.661316
    outer loop
      vertex -3.08205 2.5 0.449696
      vertex -2.91587 -2.5 0.638188
      vertex -3.08205 -2.5 0.449696
    endloop
  endfacet
endsolid OpenSCAD_Model
