solid OpenSCAD_Model
  facet normal -1 0 0
    outer loop
      vertex -5 -2.5 -2.5
      vertex -5 2.5 2.5
      vertex -5 2.5 -2.5
    endloop
  endfacet
  facet normal -1 -0 0
    outer loop
      vertex -5 2.5 2.5
      vertex -5 -2.5 -2.5
      vertex -5 -2.5 2.5
    endloop
  endfacet
  facet normal -0 0 1
    outer loop
      vertex -5 2.5 2.5
      vertex 5 -2.5 2.5
      vertex 5 2.5 2.5
    endloop
  endfacet
  facet normal 0 0 1
    outer loop
      vertex 5 -2.5 2.5
      vertex -5 2.5 2.5
      vertex -5 -2.5 2.5
    endloop
  endfacet
  facet normal 1 -0 0
    outer loop
      vertex 5 -2.5 2.5
      vertex 5 2.5 -2.5
      vertex 5 2.5 2.5
    endloop
  endfacet
  facet normal 1 0 0
    outer loop
      vertex 5 2.5 -2.5
      vertex 5 -2.5 2.5
      vertex 5 -2.5 -2.5
    endloop
  endfacet
  facet normal 0 1 0
    outer loop
      vertex 5 2.5 2.5
      vertex 0 2.5 1.5
      vertex -5 2.5 2.5
    endloop
  endfacet
  facet normal 0 1 0
    outer loop
      vertex 5 2.5 2.5
      vertex 0.219767 2.5 1.49309
      vertex 0 2.5 1.5
    endloop
  endfacet
  facet normal 0 1 0
    outer loop
      vertex 5 2.5 2.5
      vertex 0.438665 2.5 1.4724
      vertex 0.219767 2.5 1.49309
    endloop
  endfacet
  facet normal 0 1 0
    outer loop
      vertex 5 2.5 2.5
      vertex 0.655834 2.5 1.438
      vertex 0.438665 2.5 1.4724
    endloop
  endfacet
  facet normal 0 1 0
    outer loop
      vertex 5 2.5 2.5
      vertex 0.870414 2.5 1.39004
      vertex 0.655834 2.5 1.438
    endloop
  endfacet
  facet normal 0 1 0
    outer loop
      vertex 5 2.5 2.5
      vertex 1.08156 2.5 1.3287
      vertex 0.870414 2.5 1.39004
    endloop
  endfacet
  facet normal 0 1 0
    outer loop
      vertex 5 2.5 2.5
      vertex 1.28843 2.5 1.25422
      vertex 1.08156 2.5 1.3287
    endloop
  endfacet
  facet normal 0 1 0
    outer loop
      vertex 5 2.5 2.5
      vertex 1.49023 2.5 1.16689
      vertex 1.28843 2.5 1.25422
    endloop
  endfacet
  facet normal 0 1 0
    outer loop
      vertex 5 2.5 2.5
      vertex 1.68614 2.5 1.06707
      vertex 1.49023 2.5 1.16689
    endloop
  endfacet
  facet normal 0 1 0
    outer loop
      vertex 5 2.5 2.5
      vertex 1.87539 2.5 0.955147
      vertex 1.68614 2.5 1.06707
    endloop
  endfacet
  facet normal 0 1 0
    outer loop
      vertex 5 2.5 2.5
      vertex 2.05725 2.5 0.831559
      vertex 1.87539 2.5 0.955147
    endloop
  endfacet
  facet normal 0 1 0
    outer loop
      vertex 5 2.5 2.5
      vertex 2.23098 2.5 0.696795
      vertex 2.05725 2.5 0.831559
    endloop
  endfacet
  facet normal 0 1 0
    outer loop
      vertex 5 2.5 2.5
      vertex 2.39591 2.5 0.55139
      vertex 2.23098 2.5 0.696795
    endloop
  endfacet
  facet normal 0 1 0
    outer loop
      vertex 5 2.5 2.5
      vertex 2.55139 2.5 0.395914
      vertex 2.39591 2.5 0.55139
    endloop
  endfacet
  facet normal 0 1 0
    outer loop
      vertex 5 2.5 2.5
      vertex 2.6968 2.5 0.230984
      vertex 2.55139 2.5 0.395914
    endloop
  endfacet
  facet normal 0 1 0
    outer loop
      vertex 5 2.5 2.5
      vertex 2.83156 2.5 0.0572481
      vertex 2.6968 2.5 0.230984
    endloop
  endfacet
  facet normal 0 1 0
    outer loop
      vertex 5 2.5 2.5
      vertex 2.95515 2.5 -0.124606
      vertex 2.83156 2.5 0.0572481
    endloop
  endfacet
  facet normal 0 1 0
    outer loop
      vertex 5 2.5 2.5
      vertex 3.06707 2.5 -0.313862
      vertex 2.95515 2.5 -0.124606
    endloop
  endfacet
  facet normal 0 1 0
    outer loop
      vertex 5 2.5 2.5
      vertex 3.16689 2.5 -0.509772
      vertex 3.06707 2.5 -0.313862
    endloop
  endfacet
  facet normal 0 1 0
    outer loop
      vertex 5 2.5 2.5
      vertex 3.25422 2.5 -0.711564
      vertex 3.16689 2.5 -0.509772
    endloop
  endfacet
  facet normal 0 1 0
    outer loop
      vertex 5 2.5 2.5
      vertex 3.3287 2.5 -0.91844
      vertex 3.25422 2.5 -0.711564
    endloop
  endfacet
  facet normal 0 1 -0
    outer loop
      vertex 5 2.5 -2.5
      vertex 3.3287 2.5 -0.91844
      vertex 5 2.5 2.5
    endloop
  endfacet
  facet normal 0 1 0
    outer loop
      vertex 3.3287 2.5 -0.91844
      vertex 5 2.5 -2.5
      vertex 3.39004 2.5 -1.12959
    endloop
  endfacet
  facet normal 0 1 0
    outer loop
      vertex 3.39004 2.5 -1.12959
      vertex 5 2.5 -2.5
      vertex 3.438 2.5 -1.34416
    endloop
  endfacet
  facet normal 0 1 0
    outer loop
      vertex 3.438 2.5 -1.34416
      vertex 5 2.5 -2.5
      vertex 3.4724 2.5 -1.56133
    endloop
  endfacet
  facet normal 0 1 0
    outer loop
      vertex 3.4724 2.5 -1.56133
      vertex 5 2.5 -2.5
      vertex 3.49309 2.5 -1.78023
    endloop
  endfacet
  facet normal 0 1 0
    outer loop
      vertex 3.49309 2.5 -1.78023
      vertex 5 2.5 -2.5
      vertex 3.5 2.5 -2
    endloop
  endfacet
  facet normal 0 1 0
    outer loop
      vertex 3.5 2.5 -2
      vertex 5 2.5 -2.5
      vertex 3.49309 2.5 -2.21977
    endloop
  endfacet
  facet normal 0 1 0
    outer loop
      vertex 3.49309 2.5 -2.21977
      vertex 5 2.5 -2.5
      vertex 3.4724 2.5 -2.43867
    endloop
  endfacet
  facet normal 0 1 0
    outer loop
      vertex 3.4724 2.5 -2.43867
      vertex 5 2.5 -2.5
      vertex 3.46269 2.5 -2.5
    endloop
  endfacet
  facet normal 0 1 -0
    outer loop
      vertex -0.219767 2.5 1.49309
      vertex -5 2.5 2.5
      vertex 0 2.5 1.5
    endloop
  endfacet
  facet normal 0 1 -0
    outer loop
      vertex -0.438665 2.5 1.4724
      vertex -5 2.5 2.5
      vertex -0.219767 2.5 1.49309
    endloop
  endfacet
  facet normal 0 1 -0
    outer loop
      vertex -0.655834 2.5 1.438
      vertex -5 2.5 2.5
      vertex -0.438665 2.5 1.4724
    endloop
  endfacet
  facet normal 0 1 -0
    outer loop
      vertex -0.870414 2.5 1.39004
      vertex -5 2.5 2.5
      vertex -0.655834 2.5 1.438
    endloop
  endfacet
  facet normal 0 1 -0
    outer loop
      vertex -1.08156 2.5 1.3287
      vertex -5 2.5 2.5
      vertex -0.870414 2.5 1.39004
    endloop
  endfacet
  facet normal 0 1 -0
    outer loop
      vertex -1.28843 2.5 1.25422
      vertex -5 2.5 2.5
      vertex -1.08156 2.5 1.3287
    endloop
  endfacet
  facet normal 0 1 -0
    outer loop
      vertex -1.49023 2.5 1.16689
      vertex -5 2.5 2.5
      vertex -1.28843 2.5 1.25422
    endloop
  endfacet
  facet normal 0 1 -0
    outer loop
      vertex -1.68614 2.5 1.06707
      vertex -5 2.5 2.5
      vertex -1.49023 2.5 1.16689
    endloop
  endfacet
  facet normal 0 1 -0
    outer loop
      vertex -1.87539 2.5 0.955147
      vertex -5 2.5 2.5
      vertex -1.68614 2.5 1.06707
    endloop
  endfacet
  facet normal 0 1 -0
    outer loop
      vertex -2.05725 2.5 0.831559
      vertex -5 2.5 2.5
      vertex -1.87539 2.5 0.955147
    endloop
  endfacet
  facet normal 0 1 -0
    outer loop
      vertex -2.23098 2.5 0.696795
      vertex -5 2.5 2.5
      vertex -2.05725 2.5 0.831559
    endloop
  endfacet
  facet normal 0 1 -0
    outer loop
      vertex -2.39591 2.5 0.55139
      vertex -5 2.5 2.5
      vertex -2.23098 2.5 0.696795
    endloop
  endfacet
  facet normal 0 1 -0
    outer loop
      vertex -2.55139 2.5 0.395914
      vertex -5 2.5 2.5
      vertex -2.39591 2.5 0.55139
    endloop
  endfacet
  facet normal 0 1 -0
    outer loop
      vertex -2.6968 2.5 0.230984
      vertex -5 2.5 2.5
      vertex -2.55139 2.5 0.395914
    endloop
  endfacet
  facet normal 0 1 -0
    outer loop
      vertex -2.83156 2.5 0.0572481
      vertex -5 2.5 2.5
      vertex -2.6968 2.5 0.230984
    endloop
  endfacet
  facet normal 0 1 -0
    outer loop
      vertex -2.95515 2.5 -0.124606
      vertex -5 2.5 2.5
      vertex -2.83156 2.5 0.0572481
    endloop
  endfacet
  facet normal 0 1 -0
    outer loop
      vertex -3.06707 2.5 -0.313862
      vertex -5 2.5 2.5
      vertex -2.95515 2.5 -0.124606
    endloop
  endfacet
  facet normal 0 1 -0
    outer loop
      vertex -3.16689 2.5 -0.509772
      vertex -5 2.5 2.5
      vertex -3.06707 2.5 -0.313862
    endloop
  endfacet
  facet normal 0 1 -0
    outer loop
      vertex -3.25422 2.5 -0.711564
      vertex -5 2.5 2.5
      vertex -3.16689 2.5 -0.509772
    endloop
  endfacet
  facet normal 0 1 -0
    outer loop
      vertex -3.3287 2.5 -0.91844
      vertex -5 2.5 2.5
      vertex -3.25422 2.5 -0.711564
    endloop
  endfacet
  facet normal 0 1 0
    outer loop
      vertex -5 2.5 -2.5
      vertex -3.3287 2.5 -0.91844
      vertex -3.39004 2.5 -1.12959
    endloop
  endfacet
  facet normal 0 1 0
    outer loop
      vertex -5 2.5 -2.5
      vertex -3.39004 2.5 -1.12959
      vertex -3.438 2.5 -1.34416
    endloop
  endfacet
  facet normal 0 1 0
    outer loop
      vertex -5 2.5 -2.5
      vertex -3.438 2.5 -1.34416
      vertex -3.4724 2.5 -1.56133
    endloop
  endfacet
  facet normal 0 1 0
    outer loop
      vertex -5 2.5 -2.5
      vertex -3.4724 2.5 -1.56133
      vertex -3.49309 2.5 -1.78023
    endloop
  endfacet
  facet normal 0 1 0
    outer loop
      vertex -5 2.5 -2.5
      vertex -3.49309 2.5 -1.78023
      vertex -3.5 2.5 -2
    endloop
  endfacet
  facet normal 0 1 0
    outer loop
      vertex -5 2.5 -2.5
      vertex -3.5 2.5 -2
      vertex -3.49309 2.5 -2.21977
    endloop
  endfacet
  facet normal 0 1 0
    outer loop
      vertex -5 2.5 -2.5
      vertex -3.49309 2.5 -2.21977
      vertex -3.4724 2.5 -2.43867
    endloop
  endfacet
  facet normal 0 1 0
    outer loop
      vertex -5 2.5 -2.5
      vertex -3.4724 2.5 -2.43867
      vertex -3.46269 2.5 -2.5
    endloop
  endfacet
  facet normal 0 1 0
    outer loop
      vertex -3.3287 2.5 -0.91844
      vertex -5 2.5 -2.5
      vertex -5 2.5 2.5
    endloop
  endfacet
  facet normal 0 0 -1
    outer loop
      vertex -5 -2.5 -2.5
      vertex -3.46269 2.5 -2.5
      vertex -3.46269 -2.5 -2.5
    endloop
  endfacet
  facet normal -0 0 -1
    outer loop
      vertex -3.46269 2.5 -2.5
      vertex -5 -2.5 -2.5
      vertex -5 2.5 -2.5
    endloop
  endfacet
  facet normal 0 0 -1
    outer loop
      vertex 3.46269 -2.5 -2.5
      vertex 5 2.5 -2.5
      vertex 5 -2.5 -2.5
    endloop
  endfacet
  facet normal -0 0 -1
    outer loop
      vertex 5 2.5 -2.5
      vertex 3.46269 -2.5 -2.5
      vertex 3.46269 2.5 -2.5
    endloop
  endfacet
  facet normal 0 -1 0
    outer loop
      vertex -5 -2.5 2.5
      vertex 0 -2.5 1.5
      vertex 5 -2.5 2.5
    endloop
  endfacet
  facet normal 0 -1 0
    outer loop
      vertex -5 -2.5 2.5
      vertex -0.219767 -2.5 1.49309
      vertex 0 -2.5 1.5
    endloop
  endfacet
  facet normal 0 -1 0
    outer loop
      vertex -5 -2.5 2.5
      vertex -0.438665 -2.5 1.4724
      vertex -0.219767 -2.5 1.49309
    endloop
  endfacet
  facet normal 0 -1 0
    outer loop
      vertex -5 -2.5 2.5
      vertex -0.655834 -2.5 1.438
      vertex -0.438665 -2.5 1.4724
    endloop
  endfacet
  facet normal 0 -1 0
    outer loop
      vertex -5 -2.5 2.5
      vertex -0.870414 -2.5 1.39004
      vertex -0.655834 -2.5 1.438
    endloop
  endfacet
  facet normal 0 -1 0
    outer loop
      vertex -5 -2.5 2.5
      vertex -1.08156 -2.5 1.3287
      vertex -0.870414 -2.5 1.39004
    endloop
  endfacet
  facet normal 0 -1 0
    outer loop
      vertex -5 -2.5 2.5
      vertex -1.28843 -2.5 1.25422
      vertex -1.08156 -2.5 1.3287
    endloop
  endfacet
  facet normal 0 -1 0
    outer loop
      vertex -5 -2.5 2.5
      vertex -1.49023 -2.5 1.16689
      vertex -1.28843 -2.5 1.25422
    endloop
  endfacet
  facet normal 0 -1 0
    outer loop
      vertex -5 -2.5 2.5
      vertex -1.68614 -2.5 1.06707
      vertex -1.49023 -2.5 1.16689
    endloop
  endfacet
  facet normal 0 -1 0
    outer loop
      vertex -5 -2.5 2.5
      vertex -1.87539 -2.5 0.955147
      vertex -1.68614 -2.5 1.06707
    endloop
  endfacet
  facet normal 0 -1 0
    outer loop
      vertex -5 -2.5 2.5
      vertex -2.05725 -2.5 0.831559
      vertex -1.87539 -2.5 0.955147
    endloop
  endfacet
  facet normal 0 -1 0
    outer loop
      vertex -5 -2.5 2.5
      vertex -2.23098 -2.5 0.696795
      vertex -2.05725 -2.5 0.831559
    endloop
  endfacet
  facet normal 0 -1 0
    outer loop
      vertex -5 -2.5 2.5
      vertex -2.39591 -2.5 0.55139
      vertex -2.23098 -2.5 0.696795
    endloop
  endfacet
  facet normal 0 -1 0
    outer loop
      vertex -5 -2.5 2.5
      vertex -2.55139 -2.5 0.395914
      vertex -2.39591 -2.5 0.55139
    endloop
  endfacet
  facet normal 0 -1 0
    outer loop
      vertex -5 -2.5 2.5
      vertex -2.6968 -2.5 0.230984
      vertex -2.55139 -2.5 0.395914
    endloop
  endfacet
  facet normal 0 -1 0
    outer loop
      vertex -5 -2.5 2.5
      vertex -2.83156 -2.5 0.0572481
      vertex -2.6968 -2.5 0.230984
    endloop
  endfacet
  facet normal 0 -1 0
    outer loop
      vertex -5 -2.5 2.5
      vertex -2.95515 -2.5 -0.124606
      vertex -2.83156 -2.5 0.0572481
    endloop
  endfacet
  facet normal 0 -1 0
    outer loop
      vertex -5 -2.5 2.5
      vertex -3.06707 -2.5 -0.313862
      vertex -2.95515 -2.5 -0.124606
    endloop
  endfacet
  facet normal 0 -1 0
    outer loop
      vertex -5 -2.5 2.5
      vertex -3.16689 -2.5 -0.509772
      vertex -3.06707 -2.5 -0.313862
    endloop
  endfacet
  facet normal 0 -1 0
    outer loop
      vertex -5 -2.5 2.5
      vertex -3.25422 -2.5 -0.711564
      vertex -3.16689 -2.5 -0.509772
    endloop
  endfacet
  facet normal 0 -1 0
    outer loop
      vertex -5 -2.5 2.5
      vertex -3.3287 -2.5 -0.91844
      vertex -3.25422 -2.5 -0.711564
    endloop
  endfacet
  facet normal 0 -1 0
    outer loop
      vertex -5 -2.5 -2.5
      vertex -3.3287 -2.5 -0.91844
      vertex -5 -2.5 2.5
    endloop
  endfacet
  facet normal 0 -1 0
    outer loop
      vertex -3.3287 -2.5 -0.91844
      vertex -5 -2.5 -2.5
      vertex -3.39004 -2.5 -1.12959
    endloop
  endfacet
  facet normal 0 -1 0
    outer loop
      vertex -3.39004 -2.5 -1.12959
      vertex -5 -2.5 -2.5
      vertex -3.438 -2.5 -1.34416
    endloop
  endfacet
  facet normal 0 -1 0
    outer loop
      vertex -3.438 -2.5 -1.34416
      vertex -5 -2.5 -2.5
      vertex -3.4724 -2.5 -1.56133
    endloop
  endfacet
  facet normal 0 -1 0
    outer loop
      vertex -3.4724 -2.5 -1.56133
      vertex -5 -2.5 -2.5
      vertex -3.49309 -2.5 -1.78023
    endloop
  endfacet
  facet normal 0 -1 0
    outer loop
      vertex -3.49309 -2.5 -1.78023
      vertex -5 -2.5 -2.5
      vertex -3.5 -2.5 -2
    endloop
  endfacet
  facet normal 0 -1 -0
    outer loop
      vertex -3.5 -2.5 -2
      vertex -5 -2.5 -2.5
      vertex -3.49309 -2.5 -2.21977
    endloop
  endfacet
  facet normal 0 -1 -0
    outer loop
      vertex -3.49309 -2.5 -2.21977
      vertex -5 -2.5 -2.5
      vertex -3.4724 -2.5 -2.43867
    endloop
  endfacet
  facet normal 0 -1 -0
    outer loop
      vertex -3.4724 -2.5 -2.43867
      vertex -5 -2.5 -2.5
      vertex -3.46269 -2.5 -2.5
    endloop
  endfacet
  facet normal 0 -1 0
    outer loop
      vertex 0.219767 -2.5 1.49309
      vertex 5 -2.5 2.5
      vertex 0 -2.5 1.5
    endloop
  endfacet
  facet normal 0 -1 0
    outer loop
      vertex 0.438665 -2.5 1.4724
      vertex 5 -2.5 2.5
      vertex 0.219767 -2.5 1.49309
    endloop
  endfacet
  facet normal 0 -1 0
    outer loop
      vertex 0.655834 -2.5 1.438
      vertex 5 -2.5 2.5
      vertex 0.438665 -2.5 1.4724
    endloop
  endfacet
  facet normal 0 -1 0
    outer loop
      vertex 0.870414 -2.5 1.39004
      vertex 5 -2.5 2.5
      vertex 0.655834 -2.5 1.438
    endloop
  endfacet
  facet normal 0 -1 0
    outer loop
      vertex 1.08156 -2.5 1.3287
      vertex 5 -2.5 2.5
      vertex 0.870414 -2.5 1.39004
    endloop
  endfacet
  facet normal 0 -1 0
    outer loop
      vertex 1.28843 -2.5 1.25422
      vertex 5 -2.5 2.5
      vertex 1.08156 -2.5 1.3287
    endloop
  endfacet
  facet normal 0 -1 0
    outer loop
      vertex 1.49023 -2.5 1.16689
      vertex 5 -2.5 2.5
      vertex 1.28843 -2.5 1.25422
    endloop
  endfacet
  facet normal 0 -1 0
    outer loop
      vertex 1.68614 -2.5 1.06707
      vertex 5 -2.5 2.5
      vertex 1.49023 -2.5 1.16689
    endloop
  endfacet
  facet normal 0 -1 0
    outer loop
      vertex 1.87539 -2.5 0.955147
      vertex 5 -2.5 2.5
      vertex 1.68614 -2.5 1.06707
    endloop
  endfacet
  facet normal 0 -1 0
    outer loop
      vertex 2.05725 -2.5 0.831559
      vertex 5 -2.5 2.5
      vertex 1.87539 -2.5 0.955147
    endloop
  endfacet
  facet normal 0 -1 0
    outer loop
      vertex 2.23098 -2.5 0.696795
      vertex 5 -2.5 2.5
      vertex 2.05725 -2.5 0.831559
    endloop
  endfacet
  facet normal 0 -1 0
    outer loop
      vertex 2.39591 -2.5 0.55139
      vertex 5 -2.5 2.5
      vertex 2.23098 -2.5 0.696795
    endloop
  endfacet
  facet normal 0 -1 0
    outer loop
      vertex 2.55139 -2.5 0.395914
      vertex 5 -2.5 2.5
      vertex 2.39591 -2.5 0.55139
    endloop
  endfacet
  facet normal 0 -1 0
    outer loop
      vertex 2.6968 -2.5 0.230984
      vertex 5 -2.5 2.5
      vertex 2.55139 -2.5 0.395914
    endloop
  endfacet
  facet normal 0 -1 0
    outer loop
      vertex 2.83156 -2.5 0.0572481
      vertex 5 -2.5 2.5
      vertex 2.6968 -2.5 0.230984
    endloop
  endfacet
  facet normal 0 -1 0
    outer loop
      vertex 2.95515 -2.5 -0.124606
      vertex 5 -2.5 2.5
      vertex 2.83156 -2.5 0.0572481
    endloop
  endfacet
  facet normal 0 -1 0
    outer loop
      vertex 3.06707 -2.5 -0.313862
      vertex 5 -2.5 2.5
      vertex 2.95515 -2.5 -0.124606
    endloop
  endfacet
  facet normal 0 -1 0
    outer loop
      vertex 3.16689 -2.5 -0.509772
      vertex 5 -2.5 2.5
      vertex 3.06707 -2.5 -0.313862
    endloop
  endfacet
  facet normal 0 -1 0
    outer loop
      vertex 3.25422 -2.5 -0.711564
      vertex 5 -2.5 2.5
      vertex 3.16689 -2.5 -0.509772
    endloop
  endfacet
  facet normal 0 -1 0
    outer loop
      vertex 3.3287 -2.5 -0.91844
      vertex 5 -2.5 2.5
      vertex 3.25422 -2.5 -0.711564
    endloop
  endfacet
  facet normal 0 -1 0
    outer loop
      vertex 5 -2.5 -2.5
      vertex 3.3287 -2.5 -0.91844
      vertex 3.39004 -2.5 -1.12959
    endloop
  endfacet
  facet normal 0 -1 0
    outer loop
      vertex 5 -2.5 -2.5
      vertex 3.39004 -2.5 -1.12959
      vertex 3.438 -2.5 -1.34416
    endloop
  endfacet
  facet normal 0 -1 0
    outer loop
      vertex 5 -2.5 -2.5
      vertex 3.438 -2.5 -1.34416
      vertex 3.4724 -2.5 -1.56133
    endloop
  endfacet
  facet normal 0 -1 0
    outer loop
      vertex 5 -2.5 -2.5
      vertex 3.4724 -2.5 -1.56133
      vertex 3.49309 -2.5 -1.78023
    endloop
  endfacet
  facet normal 0 -1 0
    outer loop
      vertex 5 -2.5 -2.5
      vertex 3.49309 -2.5 -1.78023
      vertex 3.5 -2.5 -2
    endloop
  endfacet
  facet normal 0 -1 0
    outer loop
      vertex 5 -2.5 -2.5
      vertex 3.5 -2.5 -2
      vertex 3.49309 -2.5 -2.21977
    endloop
  endfacet
  facet normal 0 -1 0
    outer loop
      vertex 5 -2.5 -2.5
      vertex 3.49309 -2.5 -2.21977
      vertex 3.4724 -2.5 -2.43867
    endloop
  endfacet
  facet normal 0 -1 0
    outer loop
      vertex 5 -2.5 -2.5
      vertex 3.4724 -2.5 -2.43867
      vertex 3.46269 -2.5 -2.5
    endloop
  endfacet
  facet normal 0 -1 0
    outer loop
      vertex 3.3287 -2.5 -0.91844
      vertex 5 -2.5 -2.5
      vertex 5 -2.5 2.5
    endloop
  endfacet
  facet normal -0.999506 0 -0.0314264
    outer loop
      vertex 3.5 -2.5 -2
      vertex 3.49309 2.5 -1.78023
      vertex 3.5 2.5 -2
    endloop
  endfacet
  facet normal -0.999506 -0 -0.0314264
    outer loop
      vertex 3.49309 2.5 -1.78023
      vertex 3.5 -2.5 -2
      vertex 3.49309 -2.5 -1.78023
    endloop
  endfacet
  facet normal -0.995563 0 -0.0940987
    outer loop
      vertex 3.49309 -2.5 -1.78023
      vertex 3.4724 2.5 -1.56133
      vertex 3.49309 2.5 -1.78023
    endloop
  endfacet
  facet normal -0.995563 -0 -0.0940987
    outer loop
      vertex 3.4724 2.5 -1.56133
      vertex 3.49309 -2.5 -1.78023
      vertex 3.4724 -2.5 -1.56133
    endloop
  endfacet
  facet normal 0.999506 0 -0.0314264
    outer loop
      vertex -3.49309 -2.5 -1.78023
      vertex -3.5 2.5 -2
      vertex -3.49309 2.5 -1.78023
    endloop
  endfacet
  facet normal 0.999506 0 -0.0314264
    outer loop
      vertex -3.5 2.5 -2
      vertex -3.49309 -2.5 -1.78023
      vertex -3.5 -2.5 -2
    endloop
  endfacet
  facet normal -0.0314269 0 -0.999506
    outer loop
      vertex 0 -2.5 1.5
      vertex 0.219767 2.5 1.49309
      vertex 0.219767 -2.5 1.49309
    endloop
  endfacet
  facet normal -0.0314269 0 -0.999506
    outer loop
      vertex 0.219767 2.5 1.49309
      vertex 0 -2.5 1.5
      vertex 0 2.5 1.5
    endloop
  endfacet
  facet normal -0.707098 0 -0.707116
    outer loop
      vertex 2.55139 -2.5 0.395914
      vertex 2.39591 2.5 0.55139
      vertex 2.55139 2.5 0.395914
    endloop
  endfacet
  facet normal -0.707098 -0 -0.707116
    outer loop
      vertex 2.39591 2.5 0.55139
      vertex 2.55139 -2.5 0.395914
      vertex 2.39591 -2.5 0.55139
    endloop
  endfacet
  facet normal 0.661311 0 -0.750112
    outer loop
      vertex -2.39591 -2.5 0.55139
      vertex -2.23098 2.5 0.696795
      vertex -2.23098 -2.5 0.696795
    endloop
  endfacet
  facet normal 0.661311 0 -0.750112
    outer loop
      vertex -2.23098 2.5 0.696795
      vertex -2.39591 -2.5 0.55139
      vertex -2.39591 2.5 0.55139
    endloop
  endfacet
  facet normal 0.338747 0 -0.940878
    outer loop
      vertex -1.28843 -2.5 1.25422
      vertex -1.08156 2.5 1.3287
      vertex -1.08156 -2.5 1.3287
    endloop
  endfacet
  facet normal 0.338747 0 -0.940878
    outer loop
      vertex -1.08156 2.5 1.3287
      vertex -1.28843 -2.5 1.25422
      vertex -1.28843 2.5 1.25422
    endloop
  endfacet
  facet normal -0.917743 0 -0.397174
    outer loop
      vertex 3.25422 -2.5 -0.711564
      vertex 3.16689 2.5 -0.509772
      vertex 3.25422 2.5 -0.711564
    endloop
  endfacet
  facet normal -0.917743 -0 -0.397174
    outer loop
      vertex 3.16689 2.5 -0.509772
      vertex 3.25422 -2.5 -0.711564
      vertex 3.16689 -2.5 -0.509772
    endloop
  endfacet
  facet normal -0.975919 0 -0.218134
    outer loop
      vertex 3.438 -2.5 -1.34416
      vertex 3.39004 2.5 -1.12959
      vertex 3.438 2.5 -1.34416
    endloop
  endfacet
  facet normal -0.975919 -0 -0.218134
    outer loop
      vertex 3.39004 2.5 -1.12959
      vertex 3.438 -2.5 -1.34416
      vertex 3.39004 -2.5 -1.12959
    endloop
  endfacet
  facet normal -0.960299 0 -0.278971
    outer loop
      vertex 3.39004 -2.5 -1.12959
      vertex 3.3287 2.5 -0.91844
      vertex 3.39004 2.5 -1.12959
    endloop
  endfacet
  facet normal -0.960299 -0 -0.278971
    outer loop
      vertex 3.3287 2.5 -0.91844
      vertex 3.39004 -2.5 -1.12959
      vertex 3.3287 -2.5 -0.91844
    endloop
  endfacet
  facet normal -0.891009 0 -0.453986
    outer loop
      vertex 3.16689 -2.5 -0.509772
      vertex 3.06707 2.5 -0.313862
      vertex 3.16689 2.5 -0.509772
    endloop
  endfacet
  facet normal -0.891009 -0 -0.453986
    outer loop
      vertex 3.06707 2.5 -0.313862
      vertex 3.16689 -2.5 -0.509772
      vertex 3.06707 -2.5 -0.313862
    endloop
  endfacet
  facet normal -0.750101 0 -0.661324
    outer loop
      vertex 2.6968 -2.5 0.230984
      vertex 2.55139 2.5 0.395914
      vertex 2.6968 2.5 0.230984
    endloop
  endfacet
  facet normal -0.750101 -0 -0.661324
    outer loop
      vertex 2.55139 2.5 0.395914
      vertex 2.6968 -2.5 0.230984
      vertex 2.55139 -2.5 0.395914
    endloop
  endfacet
  facet normal -0.218125 0 -0.975921
    outer loop
      vertex 0.655834 -2.5 1.438
      vertex 0.870414 2.5 1.39004
      vertex 0.870414 -2.5 1.39004
    endloop
  endfacet
  facet normal -0.218125 0 -0.975921
    outer loop
      vertex 0.870414 2.5 1.39004
      vertex 0.655834 -2.5 1.438
      vertex 0.655834 2.5 1.438
    endloop
  endfacet
  facet normal -0.156451 0 -0.987686
    outer loop
      vertex 0.438665 -2.5 1.4724
      vertex 0.655834 2.5 1.438
      vertex 0.655834 -2.5 1.438
    endloop
  endfacet
  facet normal -0.156451 0 -0.987686
    outer loop
      vertex 0.655834 2.5 1.438
      vertex 0.438665 -2.5 1.4724
      vertex 0.438665 2.5 1.4724
    endloop
  endfacet
  facet normal 0.790162 0 -0.612897
    outer loop
      vertex -2.6968 -2.5 0.230984
      vertex -2.83156 2.5 0.0572481
      vertex -2.6968 2.5 0.230984
    endloop
  endfacet
  facet normal 0.790162 0 -0.612897
    outer loop
      vertex -2.83156 2.5 0.0572481
      vertex -2.6968 -2.5 0.230984
      vertex -2.83156 -2.5 0.0572481
    endloop
  endfacet
  facet normal 0.827076 0 -0.56209
    outer loop
      vertex -2.83156 -2.5 0.0572481
      vertex -2.95515 2.5 -0.124606
      vertex -2.83156 2.5 0.0572481
    endloop
  endfacet
  facet normal 0.827076 0 -0.56209
    outer loop
      vertex -2.95515 2.5 -0.124606
      vertex -2.83156 -2.5 0.0572481
      vertex -2.95515 -2.5 -0.124606
    endloop
  endfacet
  facet normal 0.975919 0 -0.218134
    outer loop
      vertex -3.39004 -2.5 -1.12959
      vertex -3.438 2.5 -1.34416
      vertex -3.39004 2.5 -1.12959
    endloop
  endfacet
  facet normal 0.975919 0 -0.218134
    outer loop
      vertex -3.438 2.5 -1.34416
      vertex -3.39004 -2.5 -1.12959
      vertex -3.438 -2.5 -1.34416
    endloop
  endfacet
  facet normal 0.987686 0 -0.156451
    outer loop
      vertex -3.438 -2.5 -1.34416
      vertex -3.4724 2.5 -1.56133
      vertex -3.438 2.5 -1.34416
    endloop
  endfacet
  facet normal 0.987686 0 -0.156451
    outer loop
      vertex -3.4724 2.5 -1.56133
      vertex -3.438 -2.5 -1.34416
      vertex -3.4724 -2.5 -1.56133
    endloop
  endfacet
  facet normal 0.509044 0 -0.86074
    outer loop
      vertex -1.87539 -2.5 0.955147
      vertex -1.68614 2.5 1.06707
      vertex -1.68614 -2.5 1.06707
    endloop
  endfacet
  facet normal 0.509044 0 -0.86074
    outer loop
      vertex -1.68614 2.5 1.06707
      vertex -1.87539 -2.5 0.955147
      vertex -1.87539 2.5 0.955147
    endloop
  endfacet
  facet normal 0.0314269 0 -0.999506
    outer loop
      vertex -0.219767 -2.5 1.49309
      vertex 0 2.5 1.5
      vertex 0 -2.5 1.5
    endloop
  endfacet
  facet normal 0.0314269 0 -0.999506
    outer loop
      vertex 0 2.5 1.5
      vertex -0.219767 -2.5 1.49309
      vertex -0.219767 2.5 1.49309
    endloop
  endfacet
  facet normal 0.999506 -0 0.0314264
    outer loop
      vertex -3.5 -2.5 -2
      vertex -3.49309 2.5 -2.21977
      vertex -3.5 2.5 -2
    endloop
  endfacet
  facet normal 0.999506 0 0.0314264
    outer loop
      vertex -3.49309 2.5 -2.21977
      vertex -3.5 -2.5 -2
      vertex -3.49309 -2.5 -2.21977
    endloop
  endfacet
  facet normal -0.987686 0 -0.156451
    outer loop
      vertex 3.4724 -2.5 -1.56133
      vertex 3.438 2.5 -1.34416
      vertex 3.4724 2.5 -1.56133
    endloop
  endfacet
  facet normal -0.987686 -0 -0.156451
    outer loop
      vertex 3.438 2.5 -1.34416
      vertex 3.4724 -2.5 -1.56133
      vertex 3.438 -2.5 -1.34416
    endloop
  endfacet
  facet normal -0.790162 0 -0.612897
    outer loop
      vertex 2.83156 -2.5 0.0572481
      vertex 2.6968 2.5 0.230984
      vertex 2.83156 2.5 0.0572481
    endloop
  endfacet
  facet normal -0.790162 -0 -0.612897
    outer loop
      vertex 2.6968 2.5 0.230984
      vertex 2.83156 -2.5 0.0572481
      vertex 2.6968 -2.5 0.230984
    endloop
  endfacet
  facet normal -0.338747 0 -0.940878
    outer loop
      vertex 1.08156 -2.5 1.3287
      vertex 1.28843 2.5 1.25422
      vertex 1.28843 -2.5 1.25422
    endloop
  endfacet
  facet normal -0.338747 0 -0.940878
    outer loop
      vertex 1.28843 2.5 1.25422
      vertex 1.08156 -2.5 1.3287
      vertex 1.08156 2.5 1.3287
    endloop
  endfacet
  facet normal -0.0940995 0 -0.995563
    outer loop
      vertex 0.219767 -2.5 1.49309
      vertex 0.438665 2.5 1.4724
      vertex 0.438665 -2.5 1.4724
    endloop
  endfacet
  facet normal -0.0940995 0 -0.995563
    outer loop
      vertex 0.438665 2.5 1.4724
      vertex 0.219767 -2.5 1.49309
      vertex 0.219767 2.5 1.49309
    endloop
  endfacet
  facet normal -0.397161 0 -0.917749
    outer loop
      vertex 1.28843 -2.5 1.25422
      vertex 1.49023 2.5 1.16689
      vertex 1.49023 -2.5 1.16689
    endloop
  endfacet
  facet normal -0.397161 0 -0.917749
    outer loop
      vertex 1.49023 2.5 1.16689
      vertex 1.28843 -2.5 1.25422
      vertex 1.28843 2.5 1.25422
    endloop
  endfacet
  facet normal -0.509044 0 -0.86074
    outer loop
      vertex 1.68614 -2.5 1.06707
      vertex 1.87539 2.5 0.955147
      vertex 1.87539 -2.5 0.955147
    endloop
  endfacet
  facet normal -0.509044 0 -0.86074
    outer loop
      vertex 1.87539 2.5 0.955147
      vertex 1.68614 -2.5 1.06707
      vertex 1.68614 2.5 1.06707
    endloop
  endfacet
  facet normal -0.562071 0 -0.827089
    outer loop
      vertex 1.87539 -2.5 0.955147
      vertex 2.05725 2.5 0.831559
      vertex 2.05725 -2.5 0.831559
    endloop
  endfacet
  facet normal -0.562071 0 -0.827089
    outer loop
      vertex 2.05725 2.5 0.831559
      vertex 1.87539 -2.5 0.955147
      vertex 1.87539 2.5 0.955147
    endloop
  endfacet
  facet normal 0.860753 0 -0.509022
    outer loop
      vertex -2.95515 -2.5 -0.124606
      vertex -3.06707 2.5 -0.313862
      vertex -2.95515 2.5 -0.124606
    endloop
  endfacet
  facet normal 0.860753 0 -0.509022
    outer loop
      vertex -3.06707 2.5 -0.313862
      vertex -2.95515 -2.5 -0.124606
      vertex -3.06707 -2.5 -0.313862
    endloop
  endfacet
  facet normal 0.917743 0 -0.397174
    outer loop
      vertex -3.16689 -2.5 -0.509772
      vertex -3.25422 2.5 -0.711564
      vertex -3.16689 2.5 -0.509772
    endloop
  endfacet
  facet normal 0.917743 0 -0.397174
    outer loop
      vertex -3.25422 2.5 -0.711564
      vertex -3.16689 -2.5 -0.509772
      vertex -3.25422 -2.5 -0.711564
    endloop
  endfacet
  facet normal 0.940881 0 -0.338738
    outer loop
      vertex -3.25422 -2.5 -0.711564
      vertex -3.3287 2.5 -0.91844
      vertex -3.25422 2.5 -0.711564
    endloop
  endfacet
  facet normal 0.940881 0 -0.338738
    outer loop
      vertex -3.3287 2.5 -0.91844
      vertex -3.25422 -2.5 -0.711564
      vertex -3.3287 -2.5 -0.91844
    endloop
  endfacet
  facet normal 0.995563 0 -0.0940987
    outer loop
      vertex -3.4724 -2.5 -1.56133
      vertex -3.49309 2.5 -1.78023
      vertex -3.4724 2.5 -1.56133
    endloop
  endfacet
  facet normal 0.995563 0 -0.0940987
    outer loop
      vertex -3.49309 2.5 -1.78023
      vertex -3.4724 -2.5 -1.56133
      vertex -3.49309 -2.5 -1.78023
    endloop
  endfacet
  facet normal 0.562071 0 -0.827089
    outer loop
      vertex -2.05725 -2.5 0.831559
      vertex -1.87539 2.5 0.955147
      vertex -1.87539 -2.5 0.955147
    endloop
  endfacet
  facet normal 0.562071 0 -0.827089
    outer loop
      vertex -1.87539 2.5 0.955147
      vertex -2.05725 -2.5 0.831559
      vertex -2.05725 2.5 0.831559
    endloop
  endfacet
  facet normal 0.453986 0 -0.891009
    outer loop
      vertex -1.68614 -2.5 1.06707
      vertex -1.49023 2.5 1.16689
      vertex -1.49023 -2.5 1.16689
    endloop
  endfacet
  facet normal 0.453986 0 -0.891009
    outer loop
      vertex -1.49023 2.5 1.16689
      vertex -1.68614 -2.5 1.06707
      vertex -1.68614 2.5 1.06707
    endloop
  endfacet
  facet normal 0.218125 0 -0.975921
    outer loop
      vertex -0.870414 -2.5 1.39004
      vertex -0.655834 2.5 1.438
      vertex -0.655834 -2.5 1.438
    endloop
  endfacet
  facet normal 0.218125 0 -0.975921
    outer loop
      vertex -0.655834 2.5 1.438
      vertex -0.870414 -2.5 1.39004
      vertex -0.870414 2.5 1.39004
    endloop
  endfacet
  facet normal 0.278976 0 -0.960298
    outer loop
      vertex -1.08156 -2.5 1.3287
      vertex -0.870414 2.5 1.39004
      vertex -0.870414 -2.5 1.39004
    endloop
  endfacet
  facet normal 0.278976 0 -0.960298
    outer loop
      vertex -0.870414 2.5 1.39004
      vertex -1.08156 -2.5 1.3287
      vertex -1.08156 2.5 1.3287
    endloop
  endfacet
  facet normal 0.156451 0 -0.987686
    outer loop
      vertex -0.655834 -2.5 1.438
      vertex -0.438665 2.5 1.4724
      vertex -0.438665 -2.5 1.4724
    endloop
  endfacet
  facet normal 0.156451 0 -0.987686
    outer loop
      vertex -0.438665 2.5 1.4724
      vertex -0.655834 -2.5 1.438
      vertex -0.655834 2.5 1.438
    endloop
  endfacet
  facet normal -0.999506 0 0.0314264
    outer loop
      vertex 3.49309 -2.5 -2.21977
      vertex 3.5 2.5 -2
      vertex 3.49309 2.5 -2.21977
    endloop
  endfacet
  facet normal -0.999506 0 0.0314264
    outer loop
      vertex 3.5 2.5 -2
      vertex 3.49309 -2.5 -2.21977
      vertex 3.5 -2.5 -2
    endloop
  endfacet
  facet normal -0.940881 0 -0.338738
    outer loop
      vertex 3.3287 -2.5 -0.91844
      vertex 3.25422 2.5 -0.711564
      vertex 3.3287 2.5 -0.91844
    endloop
  endfacet
  facet normal -0.940881 -0 -0.338738
    outer loop
      vertex 3.25422 2.5 -0.711564
      vertex 3.3287 -2.5 -0.91844
      vertex 3.25422 -2.5 -0.711564
    endloop
  endfacet
  facet normal -0.860753 0 -0.509022
    outer loop
      vertex 3.06707 -2.5 -0.313862
      vertex 2.95515 2.5 -0.124606
      vertex 3.06707 2.5 -0.313862
    endloop
  endfacet
  facet normal -0.860753 -0 -0.509022
    outer loop
      vertex 2.95515 2.5 -0.124606
      vertex 3.06707 -2.5 -0.313862
      vertex 2.95515 -2.5 -0.124606
    endloop
  endfacet
  facet normal -0.827076 0 -0.56209
    outer loop
      vertex 2.95515 -2.5 -0.124606
      vertex 2.83156 2.5 0.0572481
      vertex 2.95515 2.5 -0.124606
    endloop
  endfacet
  facet normal -0.827076 -0 -0.56209
    outer loop
      vertex 2.83156 2.5 0.0572481
      vertex 2.95515 -2.5 -0.124606
      vertex 2.83156 -2.5 0.0572481
    endloop
  endfacet
  facet normal -0.278976 0 -0.960298
    outer loop
      vertex 0.870414 -2.5 1.39004
      vertex 1.08156 2.5 1.3287
      vertex 1.08156 -2.5 1.3287
    endloop
  endfacet
  facet normal -0.278976 0 -0.960298
    outer loop
      vertex 1.08156 2.5 1.3287
      vertex 0.870414 -2.5 1.39004
      vertex 0.870414 2.5 1.39004
    endloop
  endfacet
  facet normal -0.453986 0 -0.891009
    outer loop
      vertex 1.49023 -2.5 1.16689
      vertex 1.68614 2.5 1.06707
      vertex 1.68614 -2.5 1.06707
    endloop
  endfacet
  facet normal -0.453986 0 -0.891009
    outer loop
      vertex 1.68614 2.5 1.06707
      vertex 1.49023 -2.5 1.16689
      vertex 1.49023 2.5 1.16689
    endloop
  endfacet
  facet normal -0.661311 0 -0.750112
    outer loop
      vertex 2.23098 -2.5 0.696795
      vertex 2.39591 2.5 0.55139
      vertex 2.39591 -2.5 0.55139
    endloop
  endfacet
  facet normal -0.661311 0 -0.750112
    outer loop
      vertex 2.39591 2.5 0.55139
      vertex 2.23098 -2.5 0.696795
      vertex 2.23098 2.5 0.696795
    endloop
  endfacet
  facet normal -0.612922 0 -0.790144
    outer loop
      vertex 2.05725 -2.5 0.831559
      vertex 2.23098 2.5 0.696795
      vertex 2.23098 -2.5 0.696795
    endloop
  endfacet
  facet normal -0.612922 0 -0.790144
    outer loop
      vertex 2.23098 2.5 0.696795
      vertex 2.05725 -2.5 0.831559
      vertex 2.05725 2.5 0.831559
    endloop
  endfacet
  facet normal 0.750101 0 -0.661324
    outer loop
      vertex -2.55139 -2.5 0.395914
      vertex -2.6968 2.5 0.230984
      vertex -2.55139 2.5 0.395914
    endloop
  endfacet
  facet normal 0.750101 0 -0.661324
    outer loop
      vertex -2.6968 2.5 0.230984
      vertex -2.55139 -2.5 0.395914
      vertex -2.6968 -2.5 0.230984
    endloop
  endfacet
  facet normal 0.707098 0 -0.707116
    outer loop
      vertex -2.39591 -2.5 0.55139
      vertex -2.55139 2.5 0.395914
      vertex -2.39591 2.5 0.55139
    endloop
  endfacet
  facet normal 0.707098 0 -0.707116
    outer loop
      vertex -2.55139 2.5 0.395914
      vertex -2.39591 -2.5 0.55139
      vertex -2.55139 -2.5 0.395914
    endloop
  endfacet
  facet normal 0.891009 0 -0.453986
    outer loop
      vertex -3.06707 -2.5 -0.313862
      vertex -3.16689 2.5 -0.509772
      vertex -3.06707 2.5 -0.313862
    endloop
  endfacet
  facet normal 0.891009 0 -0.453986
    outer loop
      vertex -3.16689 2.5 -0.509772
      vertex -3.06707 -2.5 -0.313862
      vertex -3.16689 -2.5 -0.509772
    endloop
  endfacet
  facet normal 0.960299 0 -0.278971
    outer loop
      vertex -3.3287 -2.5 -0.91844
      vertex -3.39004 2.5 -1.12959
      vertex -3.3287 2.5 -0.91844
    endloop
  endfacet
  facet normal 0.960299 0 -0.278971
    outer loop
      vertex -3.39004 2.5 -1.12959
      vertex -3.3287 -2.5 -0.91844
      vertex -3.39004 -2.5 -1.12959
    endloop
  endfacet
  facet normal 0.612922 0 -0.790144
    outer loop
      vertex -2.23098 -2.5 0.696795
      vertex -2.05725 2.5 0.831559
      vertex -2.05725 -2.5 0.831559
    endloop
  endfacet
  facet normal 0.612922 0 -0.790144
    outer loop
      vertex -2.05725 2.5 0.831559
      vertex -2.23098 -2.5 0.696795
      vertex -2.23098 2.5 0.696795
    endloop
  endfacet
  facet normal 0.397161 0 -0.917749
    outer loop
      vertex -1.49023 -2.5 1.16689
      vertex -1.28843 2.5 1.25422
      vertex -1.28843 -2.5 1.25422
    endloop
  endfacet
  facet normal 0.397161 0 -0.917749
    outer loop
      vertex -1.28843 2.5 1.25422
      vertex -1.49023 -2.5 1.16689
      vertex -1.49023 2.5 1.16689
    endloop
  endfacet
  facet normal 0.0940995 0 -0.995563
    outer loop
      vertex -0.438665 -2.5 1.4724
      vertex -0.219767 2.5 1.49309
      vertex -0.219767 -2.5 1.49309
    endloop
  endfacet
  facet normal 0.0940995 0 -0.995563
    outer loop
      vertex -0.219767 2.5 1.49309
      vertex -0.438665 -2.5 1.4724
      vertex -0.438665 2.5 1.4724
    endloop
  endfacet
  facet normal 0.995563 -0 0.0940987
    outer loop
      vertex -3.49309 -2.5 -2.21977
      vertex -3.4724 2.5 -2.43867
      vertex -3.49309 2.5 -2.21977
    endloop
  endfacet
  facet normal 0.995563 0 0.0940987
    outer loop
      vertex -3.4724 2.5 -2.43867
      vertex -3.49309 -2.5 -2.21977
      vertex -3.4724 -2.5 -2.43867
    endloop
  endfacet
  facet normal 0.987698 -0 0.156376
    outer loop
      vertex -3.4724 -2.5 -2.43867
      vertex -3.46269 2.5 -2.5
      vertex -3.4724 2.5 -2.43867
    endloop
  endfacet
  facet normal 0.987698 0 0.156376
    outer loop
      vertex -3.46269 2.5 -2.5
      vertex -3.4724 -2.5 -2.43867
      vertex -3.46269 -2.5 -2.5
    endloop
  endfacet
  facet normal -0.987698 0 0.156376
    outer loop
      vertex 3.46269 -2.5 -2.5
      vertex 3.4724 2.5 -2.43867
      vertex 3.46269 2.5 -2.5
    endloop
  endfacet
  facet normal -0.987698 0 0.156376
    outer loop
      vertex 3.4724 2.5 -2.43867
      vertex 3.46269 -2.5 -2.5
      vertex 3.4724 -2.5 -2.43867
    endloop
  endfacet
  facet normal -0.995563 0 0.0940987
    outer loop
      vertex 3.4724 -2.5 -2.43867
      vertex 3.49309 2.5 -2.21977
      vertex 3.4724 2.5 -2.43867
    endloop
  endfacet
  facet normal -0.995563 0 0.0940987
    outer loop
      vertex 3.49309 2.5 -2.21977
      vertex 3.4724 -2.5 -2.43867
      vertex 3.49309 -2.5 -2.21977
    endloop
  endfacet
endsolid OpenSCAD_Model
