solid OpenSCAD_Model
  facet normal -1 0 0
    outer loop
      vertex -5 -2.5 -2.5
      vertex -5 2.5 2.5
      vertex -5 2.5 -2.5
    endloop
  endfacet
  facet normal -1 -0 0
    outer loop
      vertex -5 2.5 2.5
      vertex -5 -2.5 -2.5
      vertex -5 -2.5 2.5
    endloop
  endfacet
  facet normal -0 0 1
    outer loop
      vertex -5 2.5 2.5
      vertex 5 -2.5 2.5
      vertex 5 2.5 2.5
    endloop
  endfacet
  facet normal 0 0 1
    outer loop
      vertex 5 -2.5 2.5
      vertex -5 2.5 2.5
      vertex -5 -2.5 2.5
    endloop
  endfacet
  facet normal 1 -0 0
    outer loop
      vertex 5 -2.5 2.5
      vertex 5 2.5 -2.5
      vertex 5 2.5 2.5
    endloop
  endfacet
  facet normal 1 0 0
    outer loop
      vertex 5 2.5 -2.5
      vertex 5 -2.5 2.5
      vertex 5 -2.5 -2.5
    endloop
  endfacet
  facet normal 0 0 -1
    outer loop
      vertex -5 -2.5 -2.5
      vertex -3.29371 2.5 -2.5
      vertex -3.29371 -2.5 -2.5
    endloop
  endfacet
  facet normal -0 0 -1
    outer loop
      vertex -3.29371 2.5 -2.5
      vertex -5 -2.5 -2.5
      vertex -5 2.5 -2.5
    endloop
  endfacet
  facet normal 0 0 -1
    outer loop
      vertex 3.29371 -2.5 -2.5
      vertex 5 2.5 -2.5
      vertex 5 -2.5 -2.5
    endloop
  endfacet
  facet normal -0 0 -1
    outer loop
      vertex 5 2.5 -2.5
      vertex 3.29371 -2.5 -2.5
      vertex 3.29371 2.5 -2.5
    endloop
  endfacet
  facet normal 0 -1 0
    outer loop
      vertex -5 -2.5 2.5
      vertex 0 -2.5 1
      vertex 5 -2.5 2.5
    endloop
  endfacet
  facet normal 0 -1 0
    outer loop
      vertex -5 -2.5 2.5
      vertex -0.207209 -2.5 0.993487
      vertex 0 -2.5 1
    endloop
  endfacet
  facet normal 0 -1 0
    outer loop
      vertex -5 -2.5 2.5
      vertex -0.413599 -2.5 0.973978
      vertex -0.207209 -2.5 0.993487
    endloop
  endfacet
  facet normal 0 -1 0
    outer loop
      vertex -5 -2.5 2.5
      vertex -0.618358 -2.5 0.941547
      vertex -0.413599 -2.5 0.973978
    endloop
  endfacet
  facet normal 0 -1 0
    outer loop
      vertex -5 -2.5 2.5
      vertex -0.820676 -2.5 0.896324
      vertex -0.618358 -2.5 0.941547
    endloop
  endfacet
  facet normal 0 -1 0
    outer loop
      vertex -5 -2.5 2.5
      vertex -1.01976 -2.5 0.838486
      vertex -0.820676 -2.5 0.896324
    endloop
  endfacet
  facet normal 0 -1 0
    outer loop
      vertex -5 -2.5 2.5
      vertex -1.21481 -2.5 0.768262
      vertex -1.01976 -2.5 0.838486
    endloop
  endfacet
  facet normal 0 -1 0
    outer loop
      vertex -5 -2.5 2.5
      vertex -1.40507 -2.5 0.685928
      vertex -1.21481 -2.5 0.768262
    endloop
  endfacet
  facet normal 0 -1 0
    outer loop
      vertex -5 -2.5 2.5
      vertex -1.58979 -2.5 0.591811
      vertex -1.40507 -2.5 0.685928
    endloop
  endfacet
  facet normal 0 -1 0
    outer loop
      vertex -5 -2.5 2.5
      vertex -1.76823 -2.5 0.486281
      vertex -1.58979 -2.5 0.591811
    endloop
  endfacet
  facet normal 0 -1 0
    outer loop
      vertex -5 -2.5 2.5
      vertex -1.93969 -2.5 0.369756
      vertex -1.76823 -2.5 0.486281
    endloop
  endfacet
  facet normal 0 -1 0
    outer loop
      vertex -5 -2.5 2.5
      vertex -2.1035 -2.5 0.242693
      vertex -1.93969 -2.5 0.369756
    endloop
  endfacet
  facet normal 0 -1 0
    outer loop
      vertex -5 -2.5 2.5
      vertex -2.259 -2.5 0.105596
      vertex -2.1035 -2.5 0.242693
    endloop
  endfacet
  facet normal 0 -1 0
    outer loop
      vertex -5 -2.5 2.5
      vertex -2.4056 -2.5 -0.0409937
      vertex -2.259 -2.5 0.105596
    endloop
  endfacet
  facet normal 0 -1 0
    outer loop
      vertex -5 -2.5 2.5
      vertex -2.54269 -2.5 -0.196501
      vertex -2.4056 -2.5 -0.0409937
    endloop
  endfacet
  facet normal 0 -1 0
    outer loop
      vertex -5 -2.5 2.5
      vertex -2.66976 -2.5 -0.360309
      vertex -2.54269 -2.5 -0.196501
    endloop
  endfacet
  facet normal 0 -1 0
    outer loop
      vertex -5 -2.5 2.5
      vertex -2.78628 -2.5 -0.531771
      vertex -2.66976 -2.5 -0.360309
    endloop
  endfacet
  facet normal 0 -1 0
    outer loop
      vertex -5 -2.5 2.5
      vertex -2.89181 -2.5 -0.710213
      vertex -2.78628 -2.5 -0.531771
    endloop
  endfacet
  facet normal 0 -1 0
    outer loop
      vertex -5 -2.5 2.5
      vertex -2.98593 -2.5 -0.894928
      vertex -2.89181 -2.5 -0.710213
    endloop
  endfacet
  facet normal 0 -1 0
    outer loop
      vertex -5 -2.5 2.5
      vertex -3.06826 -2.5 -1.08519
      vertex -2.98593 -2.5 -0.894928
    endloop
  endfacet
  facet normal 0 -1 0
    outer loop
      vertex -5 -2.5 -2.5
      vertex -3.06826 -2.5 -1.08519
      vertex -5 -2.5 2.5
    endloop
  endfacet
  facet normal 0 -1 0
    outer loop
      vertex -3.06826 -2.5 -1.08519
      vertex -5 -2.5 -2.5
      vertex -3.13849 -2.5 -1.28024
    endloop
  endfacet
  facet normal 0 -1 0
    outer loop
      vertex -3.13849 -2.5 -1.28024
      vertex -5 -2.5 -2.5
      vertex -3.19632 -2.5 -1.47932
    endloop
  endfacet
  facet normal 0 -1 0
    outer loop
      vertex -3.19632 -2.5 -1.47932
      vertex -5 -2.5 -2.5
      vertex -3.24155 -2.5 -1.68164
    endloop
  endfacet
  facet normal 0 -1 0
    outer loop
      vertex -3.24155 -2.5 -1.68164
      vertex -5 -2.5 -2.5
      vertex -3.27398 -2.5 -1.8864
    endloop
  endfacet
  facet normal 0 -1 0
    outer loop
      vertex -3.27398 -2.5 -1.8864
      vertex -5 -2.5 -2.5
      vertex -3.29349 -2.5 -2.09279
    endloop
  endfacet
  facet normal 0 -1 0
    outer loop
      vertex -3.29349 -2.5 -2.09279
      vertex -5 -2.5 -2.5
      vertex -3.3 -2.5 -2.3
    endloop
  endfacet
  facet normal 0 -1 -0
    outer loop
      vertex -3.3 -2.5 -2.3
      vertex -5 -2.5 -2.5
      vertex -3.29371 -2.5 -2.5
    endloop
  endfacet
  facet normal 0 -1 0
    outer loop
      vertex 0.207209 -2.5 0.993487
      vertex 5 -2.5 2.5
      vertex 0 -2.5 1
    endloop
  endfacet
  facet normal 0 -1 0
    outer loop
      vertex 0.413599 -2.5 0.973978
      vertex 5 -2.5 2.5
      vertex 0.207209 -2.5 0.993487
    endloop
  endfacet
  facet normal 0 -1 0
    outer loop
      vertex 0.618358 -2.5 0.941547
      vertex 5 -2.5 2.5
      vertex 0.413599 -2.5 0.973978
    endloop
  endfacet
  facet normal 0 -1 0
    outer loop
      vertex 0.820676 -2.5 0.896324
      vertex 5 -2.5 2.5
      vertex 0.618358 -2.5 0.941547
    endloop
  endfacet
  facet normal 0 -1 0
    outer loop
      vertex 1.01976 -2.5 0.838486
      vertex 5 -2.5 2.5
      vertex 0.820676 -2.5 0.896324
    endloop
  endfacet
  facet normal 0 -1 0
    outer loop
      vertex 1.21481 -2.5 0.768262
      vertex 5 -2.5 2.5
      vertex 1.01976 -2.5 0.838486
    endloop
  endfacet
  facet normal 0 -1 0
    outer loop
      vertex 1.40507 -2.5 0.685928
      vertex 5 -2.5 2.5
      vertex 1.21481 -2.5 0.768262
    endloop
  endfacet
  facet normal 0 -1 0
    outer loop
      vertex 1.58979 -2.5 0.591811
      vertex 5 -2.5 2.5
      vertex 1.40507 -2.5 0.685928
    endloop
  endfacet
  facet normal 0 -1 0
    outer loop
      vertex 1.76823 -2.5 0.486281
      vertex 5 -2.5 2.5
      vertex 1.58979 -2.5 0.591811
    endloop
  endfacet
  facet normal 0 -1 0
    outer loop
      vertex 1.93969 -2.5 0.369756
      vertex 5 -2.5 2.5
      vertex 1.76823 -2.5 0.486281
    endloop
  endfacet
  facet normal 0 -1 0
    outer loop
      vertex 2.1035 -2.5 0.242693
      vertex 5 -2.5 2.5
      vertex 1.93969 -2.5 0.369756
    endloop
  endfacet
  facet normal 0 -1 0
    outer loop
      vertex 2.259 -2.5 0.105596
      vertex 5 -2.5 2.5
      vertex 2.1035 -2.5 0.242693
    endloop
  endfacet
  facet normal 0 -1 0
    outer loop
      vertex 2.4056 -2.5 -0.0409937
      vertex 5 -2.5 2.5
      vertex 2.259 -2.5 0.105596
    endloop
  endfacet
  facet normal 0 -1 0
    outer loop
      vertex 2.54269 -2.5 -0.196501
      vertex 5 -2.5 2.5
      vertex 2.4056 -2.5 -0.0409937
    endloop
  endfacet
  facet normal 0 -1 0
    outer loop
      vertex 2.66976 -2.5 -0.360309
      vertex 5 -2.5 2.5
      vertex 2.54269 -2.5 -0.196501
    endloop
  endfacet
  facet normal 0 -1 0
    outer loop
      vertex 2.78628 -2.5 -0.531771
      vertex 5 -2.5 2.5
      vertex 2.66976 -2.5 -0.360309
    endloop
  endfacet
  facet normal 0 -1 0
    outer loop
      vertex 2.89181 -2.5 -0.710213
      vertex 5 -2.5 2.5
      vertex 2.78628 -2.5 -0.531771
    endloop
  endfacet
  facet normal 0 -1 0
    outer loop
      vertex 2.98593 -2.5 -0.894928
      vertex 5 -2.5 2.5
      vertex 2.89181 -2.5 -0.710213
    endloop
  endfacet
  facet normal 0 -1 0
    outer loop
      vertex 3.06826 -2.5 -1.08519
      vertex 5 -2.5 2.5
      vertex 2.98593 -2.5 -0.894928
    endloop
  endfacet
  facet normal 0 -1 0
    outer loop
      vertex 5 -2.5 -2.5
      vertex 3.06826 -2.5 -1.08519
      vertex 3.13849 -2.5 -1.28024
    endloop
  endfacet
  facet normal 0 -1 0
    outer loop
      vertex 5 -2.5 -2.5
      vertex 3.13849 -2.5 -1.28024
      vertex 3.19632 -2.5 -1.47932
    endloop
  endfacet
  facet normal 0 -1 0
    outer loop
      vertex 5 -2.5 -2.5
      vertex 3.19632 -2.5 -1.47932
      vertex 3.24155 -2.5 -1.68164
    endloop
  endfacet
  facet normal 0 -1 0
    outer loop
      vertex 5 -2.5 -2.5
      vertex 3.24155 -2.5 -1.68164
      vertex 3.27398 -2.5 -1.8864
    endloop
  endfacet
  facet normal 0 -1 0
    outer loop
      vertex 5 -2.5 -2.5
      vertex 3.27398 -2.5 -1.8864
      vertex 3.29349 -2.5 -2.09279
    endloop
  endfacet
  facet normal 0 -1 0
    outer loop
      vertex 5 -2.5 -2.5
      vertex 3.29349 -2.5 -2.09279
      vertex 3.3 -2.5 -2.3
    endloop
  endfacet
  facet normal 0 -1 0
    outer loop
      vertex 5 -2.5 -2.5
      vertex 3.3 -2.5 -2.3
      vertex 3.29371 -2.5 -2.5
    endloop
  endfacet
  facet normal 0 -1 0
    outer loop
      vertex 3.06826 -2.5 -1.08519
      vertex 5 -2.5 -2.5
      vertex 5 -2.5 2.5
    endloop
  endfacet
  facet normal 0 1 0
    outer loop
      vertex 5 2.5 2.5
      vertex 0 2.5 1
      vertex -5 2.5 2.5
    endloop
  endfacet
  facet normal 0 1 0
    outer loop
      vertex 5 2.5 2.5
      vertex 0.207209 2.5 0.993487
      vertex 0 2.5 1
    endloop
  endfacet
  facet normal 0 1 0
    outer loop
      vertex 5 2.5 2.5
      vertex 0.413599 2.5 0.973978
      vertex 0.207209 2.5 0.993487
    endloop
  endfacet
  facet normal 0 1 0
    outer loop
      vertex 5 2.5 2.5
      vertex 0.618358 2.5 0.941547
      vertex 0.413599 2.5 0.973978
    endloop
  endfacet
  facet normal 0 1 0
    outer loop
      vertex 5 2.5 2.5
      vertex 0.820676 2.5 0.896324
      vertex 0.618358 2.5 0.941547
    endloop
  endfacet
  facet normal 0 1 0
    outer loop
      vertex 5 2.5 2.5
      vertex 1.01976 2.5 0.838486
      vertex 0.820676 2.5 0.896324
    endloop
  endfacet
  facet normal 0 1 0
    outer loop
      vertex 5 2.5 2.5
      vertex 1.21481 2.5 0.768262
      vertex 1.01976 2.5 0.838486
    endloop
  endfacet
  facet normal 0 1 0
    outer loop
      vertex 5 2.5 2.5
      vertex 1.40507 2.5 0.685928
      vertex 1.21481 2.5 0.768262
    endloop
  endfacet
  facet normal 0 1 0
    outer loop
      vertex 5 2.5 2.5
      vertex 1.58979 2.5 0.591811
      vertex 1.40507 2.5 0.685928
    endloop
  endfacet
  facet normal 0 1 0
    outer loop
      vertex 5 2.5 2.5
      vertex 1.76823 2.5 0.486281
      vertex 1.58979 2.5 0.591811
    endloop
  endfacet
  facet normal 0 1 0
    outer loop
      vertex 5 2.5 2.5
      vertex 1.93969 2.5 0.369756
      vertex 1.76823 2.5 0.486281
    endloop
  endfacet
  facet normal 0 1 0
    outer loop
      vertex 5 2.5 2.5
      vertex 2.1035 2.5 0.242693
      vertex 1.93969 2.5 0.369756
    endloop
  endfacet
  facet normal 0 1 0
    outer loop
      vertex 5 2.5 2.5
      vertex 2.259 2.5 0.105596
      vertex 2.1035 2.5 0.242693
    endloop
  endfacet
  facet normal 0 1 0
    outer loop
      vertex 5 2.5 2.5
      vertex 2.4056 2.5 -0.0409937
      vertex 2.259 2.5 0.105596
    endloop
  endfacet
  facet normal 0 1 0
    outer loop
      vertex 5 2.5 2.5
      vertex 2.54269 2.5 -0.196501
      vertex 2.4056 2.5 -0.0409937
    endloop
  endfacet
  facet normal 0 1 0
    outer loop
      vertex 5 2.5 2.5
      vertex 2.66976 2.5 -0.360309
      vertex 2.54269 2.5 -0.196501
    endloop
  endfacet
  facet normal 0 1 0
    outer loop
      vertex 5 2.5 2.5
      vertex 2.78628 2.5 -0.531771
      vertex 2.66976 2.5 -0.360309
    endloop
  endfacet
  facet normal 0 1 0
    outer loop
      vertex 5 2.5 2.5
      vertex 2.89181 2.5 -0.710213
      vertex 2.78628 2.5 -0.531771
    endloop
  endfacet
  facet normal 0 1 0
    outer loop
      vertex 5 2.5 2.5
      vertex 2.98593 2.5 -0.894928
      vertex 2.89181 2.5 -0.710213
    endloop
  endfacet
  facet normal 0 1 0
    outer loop
      vertex 5 2.5 2.5
      vertex 3.06826 2.5 -1.08519
      vertex 2.98593 2.5 -0.894928
    endloop
  endfacet
  facet normal 0 1 -0
    outer loop
      vertex 5 2.5 -2.5
      vertex 3.06826 2.5 -1.08519
      vertex 5 2.5 2.5
    endloop
  endfacet
  facet normal 0 1 0
    outer loop
      vertex 3.06826 2.5 -1.08519
      vertex 5 2.5 -2.5
      vertex 3.13849 2.5 -1.28024
    endloop
  endfacet
  facet normal 0 1 0
    outer loop
      vertex 3.13849 2.5 -1.28024
      vertex 5 2.5 -2.5
      vertex 3.19632 2.5 -1.47932
    endloop
  endfacet
  facet normal 0 1 0
    outer loop
      vertex 3.19632 2.5 -1.47932
      vertex 5 2.5 -2.5
      vertex 3.24155 2.5 -1.68164
    endloop
  endfacet
  facet normal 0 1 0
    outer loop
      vertex 3.24155 2.5 -1.68164
      vertex 5 2.5 -2.5
      vertex 3.27398 2.5 -1.8864
    endloop
  endfacet
  facet normal 0 1 0
    outer loop
      vertex 3.27398 2.5 -1.8864
      vertex 5 2.5 -2.5
      vertex 3.29349 2.5 -2.09279
    endloop
  endfacet
  facet normal 0 1 0
    outer loop
      vertex 3.29349 2.5 -2.09279
      vertex 5 2.5 -2.5
      vertex 3.3 2.5 -2.3
    endloop
  endfacet
  facet normal 0 1 0
    outer loop
      vertex 3.3 2.5 -2.3
      vertex 5 2.5 -2.5
      vertex 3.29371 2.5 -2.5
    endloop
  endfacet
  facet normal 0 1 -0
    outer loop
      vertex -0.207209 2.5 0.993487
      vertex -5 2.5 2.5
      vertex 0 2.5 1
    endloop
  endfacet
  facet normal 0 1 -0
    outer loop
      vertex -0.413599 2.5 0.973978
      vertex -5 2.5 2.5
      vertex -0.207209 2.5 0.993487
    endloop
  endfacet
  facet normal 0 1 -0
    outer loop
      vertex -0.618358 2.5 0.941547
      vertex -5 2.5 2.5
      vertex -0.413599 2.5 0.973978
    endloop
  endfacet
  facet normal 0 1 -0
    outer loop
      vertex -0.820676 2.5 0.896324
      vertex -5 2.5 2.5
      vertex -0.618358 2.5 0.941547
    endloop
  endfacet
  facet normal 0 1 -0
    outer loop
      vertex -1.01976 2.5 0.838486
      vertex -5 2.5 2.5
      vertex -0.820676 2.5 0.896324
    endloop
  endfacet
  facet normal 0 1 -0
    outer loop
      vertex -1.21481 2.5 0.768262
      vertex -5 2.5 2.5
      vertex -1.01976 2.5 0.838486
    endloop
  endfacet
  facet normal 0 1 -0
    outer loop
      vertex -1.40507 2.5 0.685928
      vertex -5 2.5 2.5
      vertex -1.21481 2.5 0.768262
    endloop
  endfacet
  facet normal 0 1 -0
    outer loop
      vertex -1.58979 2.5 0.591811
      vertex -5 2.5 2.5
      vertex -1.40507 2.5 0.685928
    endloop
  endfacet
  facet normal 0 1 -0
    outer loop
      vertex -1.76823 2.5 0.486281
      vertex -5 2.5 2.5
      vertex -1.58979 2.5 0.591811
    endloop
  endfacet
  facet normal 0 1 -0
    outer loop
      vertex -1.93969 2.5 0.369756
      vertex -5 2.5 2.5
      vertex -1.76823 2.5 0.486281
    endloop
  endfacet
  facet normal 0 1 -0
    outer loop
      vertex -2.1035 2.5 0.242693
      vertex -5 2.5 2.5
      vertex -1.93969 2.5 0.369756
    endloop
  endfacet
  facet normal 0 1 -0
    outer loop
      vertex -2.259 2.5 0.105596
      vertex -5 2.5 2.5
      vertex -2.1035 2.5 0.242693
    endloop
  endfacet
  facet normal 0 1 -0
    outer loop
      vertex -2.4056 2.5 -0.0409937
      vertex -5 2.5 2.5
      vertex -2.259 2.5 0.105596
    endloop
  endfacet
  facet normal 0 1 -0
    outer loop
      vertex -2.54269 2.5 -0.196501
      vertex -5 2.5 2.5
      vertex -2.4056 2.5 -0.0409937
    endloop
  endfacet
  facet normal 0 1 -0
    outer loop
      vertex -2.66976 2.5 -0.360309
      vertex -5 2.5 2.5
      vertex -2.54269 2.5 -0.196501
    endloop
  endfacet
  facet normal 0 1 -0
    outer loop
      vertex -2.78628 2.5 -0.531771
      vertex -5 2.5 2.5
      vertex -2.66976 2.5 -0.360309
    endloop
  endfacet
  facet normal 0 1 -0
    outer loop
      vertex -2.89181 2.5 -0.710213
      vertex -5 2.5 2.5
      vertex -2.78628 2.5 -0.531771
    endloop
  endfacet
  facet normal 0 1 -0
    outer loop
      vertex -2.98593 2.5 -0.894928
      vertex -5 2.5 2.5
      vertex -2.89181 2.5 -0.710213
    endloop
  endfacet
  facet normal 0 1 -0
    outer loop
      vertex -3.06826 2.5 -1.08519
      vertex -5 2.5 2.5
      vertex -2.98593 2.5 -0.894928
    endloop
  endfacet
  facet normal 0 1 0
    outer loop
      vertex -5 2.5 -2.5
      vertex -3.06826 2.5 -1.08519
      vertex -3.13849 2.5 -1.28024
    endloop
  endfacet
  facet normal 0 1 0
    outer loop
      vertex -5 2.5 -2.5
      vertex -3.13849 2.5 -1.28024
      vertex -3.19632 2.5 -1.47932
    endloop
  endfacet
  facet normal 0 1 0
    outer loop
      vertex -5 2.5 -2.5
      vertex -3.19632 2.5 -1.47932
      vertex -3.24155 2.5 -1.68164
    endloop
  endfacet
  facet normal 0 1 0
    outer loop
      vertex -5 2.5 -2.5
      vertex -3.24155 2.5 -1.68164
      vertex -3.27398 2.5 -1.8864
    endloop
  endfacet
  facet normal 0 1 0
    outer loop
      vertex -5 2.5 -2.5
      vertex -3.27398 2.5 -1.8864
      vertex -3.29349 2.5 -2.09279
    endloop
  endfacet
  facet normal 0 1 0
    outer loop
      vertex -5 2.5 -2.5
      vertex -3.29349 2.5 -2.09279
      vertex -3.3 2.5 -2.3
    endloop
  endfacet
  facet normal 0 1 0
    outer loop
      vertex -5 2.5 -2.5
      vertex -3.3 2.5 -2.3
      vertex -3.29371 2.5 -2.5
    endloop
  endfacet
  facet normal 0 1 0
    outer loop
      vertex -3.06826 2.5 -1.08519
      vertex -5 2.5 -2.5
      vertex -5 2.5 2.5
    endloop
  endfacet
  facet normal -0.999507 0 -0.0314019
    outer loop
      vertex 3.3 -2.5 -2.3
      vertex 3.29349 2.5 -2.09279
      vertex 3.3 2.5 -2.3
    endloop
  endfacet
  facet normal -0.999507 -0 -0.0314019
    outer loop
      vertex 3.29349 2.5 -2.09279
      vertex 3.3 -2.5 -2.3
      vertex 3.29349 -2.5 -2.09279
    endloop
  endfacet
  facet normal -0.995562 0 -0.0941102
    outer loop
      vertex 3.29349 -2.5 -2.09279
      vertex 3.27398 2.5 -1.8864
      vertex 3.29349 2.5 -2.09279
    endloop
  endfacet
  facet normal -0.995562 -0 -0.0941102
    outer loop
      vertex 3.27398 2.5 -1.8864
      vertex 3.29349 -2.5 -2.09279
      vertex 3.27398 -2.5 -1.8864
    endloop
  endfacet
  facet normal 0.999507 0 -0.0314019
    outer loop
      vertex -3.29349 -2.5 -2.09279
      vertex -3.3 2.5 -2.3
      vertex -3.29349 2.5 -2.09279
    endloop
  endfacet
  facet normal 0.999507 0 -0.0314019
    outer loop
      vertex -3.3 2.5 -2.3
      vertex -3.29349 -2.5 -2.09279
      vertex -3.3 -2.5 -2.3
    endloop
  endfacet
  facet normal -0.0314165 0 -0.999506
    outer loop
      vertex 0 -2.5 1
      vertex 0.207209 2.5 0.993487
      vertex 0.207209 -2.5 0.993487
    endloop
  endfacet
  facet normal -0.0314165 0 -0.999506
    outer loop
      vertex 0.207209 2.5 0.993487
      vertex 0 -2.5 1
      vertex 0 2.5 1
    endloop
  endfacet
  facet normal -0.707082 0 -0.707132
    outer loop
      vertex 2.259 -2.5 0.105596
      vertex 2.4056 2.5 -0.0409937
      vertex 2.4056 -2.5 -0.0409937
    endloop
  endfacet
  facet normal -0.707082 0 -0.707132
    outer loop
      vertex 2.4056 2.5 -0.0409937
      vertex 2.259 -2.5 0.105596
      vertex 2.259 2.5 0.105596
    endloop
  endfacet
  facet normal 0.707082 0 -0.707132
    outer loop
      vertex -2.4056 -2.5 -0.0409937
      vertex -2.259 2.5 0.105596
      vertex -2.259 -2.5 0.105596
    endloop
  endfacet
  facet normal 0.707082 0 -0.707132
    outer loop
      vertex -2.259 2.5 0.105596
      vertex -2.4056 -2.5 -0.0409937
      vertex -2.4056 2.5 -0.0409937
    endloop
  endfacet
  facet normal -0.917761 0 -0.397133
    outer loop
      vertex 3.06826 -2.5 -1.08519
      vertex 2.98593 2.5 -0.894928
      vertex 3.06826 2.5 -1.08519
    endloop
  endfacet
  facet normal -0.917761 -0 -0.397133
    outer loop
      vertex 2.98593 2.5 -0.894928
      vertex 3.06826 -2.5 -1.08519
      vertex 2.98593 -2.5 -0.894928
    endloop
  endfacet
  facet normal -0.562086 0 -0.827079
    outer loop
      vertex 1.76823 -2.5 0.486281
      vertex 1.93969 2.5 0.369756
      vertex 1.93969 -2.5 0.369756
    endloop
  endfacet
  facet normal -0.562086 0 -0.827079
    outer loop
      vertex 1.93969 2.5 0.369756
      vertex 1.76823 -2.5 0.486281
      vertex 1.76823 2.5 0.486281
    endloop
  endfacet
  facet normal 0.827093 0 -0.562065
    outer loop
      vertex -2.66976 -2.5 -0.360309
      vertex -2.78628 2.5 -0.531771
      vertex -2.66976 2.5 -0.360309
    endloop
  endfacet
  facet normal 0.827093 0 -0.562065
    outer loop
      vertex -2.78628 2.5 -0.531771
      vertex -2.66976 -2.5 -0.360309
      vertex -2.78628 -2.5 -0.531771
    endloop
  endfacet
  facet normal 0.156436 0 -0.987688
    outer loop
      vertex -0.618358 -2.5 0.941547
      vertex -0.413599 2.5 0.973978
      vertex -0.413599 -2.5 0.973978
    endloop
  endfacet
  facet normal 0.156436 0 -0.987688
    outer loop
      vertex -0.413599 2.5 0.973978
      vertex -0.618358 -2.5 0.941547
      vertex -0.618358 2.5 0.941547
    endloop
  endfacet
  facet normal -0.827093 0 -0.562065
    outer loop
      vertex 2.78628 -2.5 -0.531771
      vertex 2.66976 2.5 -0.360309
      vertex 2.78628 2.5 -0.531771
    endloop
  endfacet
  facet normal -0.827093 -0 -0.562065
    outer loop
      vertex 2.66976 2.5 -0.360309
      vertex 2.78628 -2.5 -0.531771
      vertex 2.66976 -2.5 -0.360309
    endloop
  endfacet
  facet normal -0.218141 0 -0.975917
    outer loop
      vertex 0.618358 -2.5 0.941547
      vertex 0.820676 2.5 0.896324
      vertex 0.820676 -2.5 0.896324
    endloop
  endfacet
  facet normal -0.218141 0 -0.975917
    outer loop
      vertex 0.820676 2.5 0.896324
      vertex 0.618358 -2.5 0.941547
      vertex 0.618358 2.5 0.941547
    endloop
  endfacet
  facet normal -0.612904 0 -0.790157
    outer loop
      vertex 1.93969 -2.5 0.369756
      vertex 2.1035 2.5 0.242693
      vertex 2.1035 -2.5 0.242693
    endloop
  endfacet
  facet normal -0.612904 0 -0.790157
    outer loop
      vertex 2.1035 2.5 0.242693
      vertex 1.93969 -2.5 0.369756
      vertex 1.93969 2.5 0.369756
    endloop
  endfacet
  facet normal 0.97591 0 -0.218171
    outer loop
      vertex -3.19632 -2.5 -1.47932
      vertex -3.24155 2.5 -1.68164
      vertex -3.19632 2.5 -1.47932
    endloop
  endfacet
  facet normal 0.97591 0 -0.218171
    outer loop
      vertex -3.24155 2.5 -1.68164
      vertex -3.19632 -2.5 -1.47932
      vertex -3.24155 -2.5 -1.68164
    endloop
  endfacet
  facet normal 0.917761 0 -0.397133
    outer loop
      vertex -2.98593 -2.5 -0.894928
      vertex -3.06826 2.5 -1.08519
      vertex -2.98593 2.5 -0.894928
    endloop
  endfacet
  facet normal 0.917761 0 -0.397133
    outer loop
      vertex -3.06826 2.5 -1.08519
      vertex -2.98593 -2.5 -0.894928
      vertex -3.06826 -2.5 -1.08519
    endloop
  endfacet
  facet normal 0.860743 0 -0.50904
    outer loop
      vertex -2.78628 -2.5 -0.531771
      vertex -2.89181 2.5 -0.710213
      vertex -2.78628 2.5 -0.531771
    endloop
  endfacet
  facet normal 0.860743 0 -0.50904
    outer loop
      vertex -2.89181 2.5 -0.710213
      vertex -2.78628 -2.5 -0.531771
      vertex -2.89181 -2.5 -0.710213
    endloop
  endfacet
  facet normal 0.562086 0 -0.827079
    outer loop
      vertex -1.93969 -2.5 0.369756
      vertex -1.76823 2.5 0.486281
      vertex -1.76823 -2.5 0.486281
    endloop
  endfacet
  facet normal 0.562086 0 -0.827079
    outer loop
      vertex -1.76823 2.5 0.486281
      vertex -1.93969 -2.5 0.369756
      vertex -1.93969 2.5 0.369756
    endloop
  endfacet
  facet normal 0.0941054 0 -0.995562
    outer loop
      vertex -0.413599 -2.5 0.973978
      vertex -0.207209 2.5 0.993487
      vertex -0.207209 -2.5 0.993487
    endloop
  endfacet
  facet normal 0.0941054 0 -0.995562
    outer loop
      vertex -0.207209 2.5 0.993487
      vertex -0.413599 -2.5 0.973978
      vertex -0.413599 2.5 0.973978
    endloop
  endfacet
  facet normal -0.97591 0 -0.218171
    outer loop
      vertex 3.24155 -2.5 -1.68164
      vertex 3.19632 2.5 -1.47932
      vertex 3.24155 2.5 -1.68164
    endloop
  endfacet
  facet normal -0.97591 -0 -0.218171
    outer loop
      vertex 3.19632 2.5 -1.47932
      vertex 3.24155 -2.5 -1.68164
      vertex 3.19632 -2.5 -1.47932
    endloop
  endfacet
  facet normal -0.987689 0 -0.156431
    outer loop
      vertex 3.27398 -2.5 -1.8864
      vertex 3.24155 2.5 -1.68164
      vertex 3.27398 2.5 -1.8864
    endloop
  endfacet
  facet normal -0.987689 -0 -0.156431
    outer loop
      vertex 3.24155 2.5 -1.68164
      vertex 3.27398 -2.5 -1.8864
      vertex 3.24155 -2.5 -1.68164
    endloop
  endfacet
  facet normal -0.750131 0 -0.66129
    outer loop
      vertex 2.54269 -2.5 -0.196501
      vertex 2.4056 2.5 -0.0409937
      vertex 2.54269 2.5 -0.196501
    endloop
  endfacet
  facet normal -0.750131 -0 -0.66129
    outer loop
      vertex 2.4056 2.5 -0.0409937
      vertex 2.54269 -2.5 -0.196501
      vertex 2.4056 -2.5 -0.0409937
    endloop
  endfacet
  facet normal -0.156436 0 -0.987688
    outer loop
      vertex 0.413599 -2.5 0.973978
      vertex 0.618358 2.5 0.941547
      vertex 0.618358 -2.5 0.941547
    endloop
  endfacet
  facet normal -0.156436 0 -0.987688
    outer loop
      vertex 0.618358 2.5 0.941547
      vertex 0.413599 -2.5 0.973978
      vertex 0.413599 2.5 0.973978
    endloop
  endfacet
  facet normal -0.278986 0 -0.960295
    outer loop
      vertex 0.820676 -2.5 0.896324
      vertex 1.01976 2.5 0.838486
      vertex 1.01976 -2.5 0.838486
    endloop
  endfacet
  facet normal -0.278986 0 -0.960295
    outer loop
      vertex 1.01976 2.5 0.838486
      vertex 0.820676 -2.5 0.896324
      vertex 0.820676 2.5 0.896324
    endloop
  endfacet
  facet normal -0.397153 0 -0.917753
    outer loop
      vertex 1.21481 -2.5 0.768262
      vertex 1.40507 2.5 0.685928
      vertex 1.40507 -2.5 0.685928
    endloop
  endfacet
  facet normal -0.397153 0 -0.917753
    outer loop
      vertex 1.40507 2.5 0.685928
      vertex 1.21481 -2.5 0.768262
      vertex 1.21481 2.5 0.768262
    endloop
  endfacet
  facet normal -0.509045 0 -0.86074
    outer loop
      vertex 1.58979 -2.5 0.591811
      vertex 1.76823 2.5 0.486281
      vertex 1.76823 -2.5 0.486281
    endloop
  endfacet
  facet normal -0.509045 0 -0.86074
    outer loop
      vertex 1.76823 2.5 0.486281
      vertex 1.58979 -2.5 0.591811
      vertex 1.58979 2.5 0.591811
    endloop
  endfacet
  facet normal -0.661326 0 -0.750098
    outer loop
      vertex 2.1035 -2.5 0.242693
      vertex 2.259 2.5 0.105596
      vertex 2.259 -2.5 0.105596
    endloop
  endfacet
  facet normal -0.661326 0 -0.750098
    outer loop
      vertex 2.259 2.5 0.105596
      vertex 2.1035 -2.5 0.242693
      vertex 2.1035 2.5 0.242693
    endloop
  endfacet
  facet normal 0.987689 0 -0.156431
    outer loop
      vertex -3.24155 -2.5 -1.68164
      vertex -3.27398 2.5 -1.8864
      vertex -3.24155 2.5 -1.68164
    endloop
  endfacet
  facet normal 0.987689 0 -0.156431
    outer loop
      vertex -3.27398 2.5 -1.8864
      vertex -3.24155 -2.5 -1.68164
      vertex -3.27398 -2.5 -1.8864
    endloop
  endfacet
  facet normal 0.790138 0 -0.61293
    outer loop
      vertex -2.54269 -2.5 -0.196501
      vertex -2.66976 2.5 -0.360309
      vertex -2.54269 2.5 -0.196501
    endloop
  endfacet
  facet normal 0.790138 0 -0.61293
    outer loop
      vertex -2.66976 2.5 -0.360309
      vertex -2.54269 -2.5 -0.196501
      vertex -2.66976 -2.5 -0.360309
    endloop
  endfacet
  facet normal 0.891001 0 -0.454002
    outer loop
      vertex -2.89181 -2.5 -0.710213
      vertex -2.98593 2.5 -0.894928
      vertex -2.89181 2.5 -0.710213
    endloop
  endfacet
  facet normal 0.891001 0 -0.454002
    outer loop
      vertex -2.98593 2.5 -0.894928
      vertex -2.89181 -2.5 -0.710213
      vertex -2.98593 -2.5 -0.894928
    endloop
  endfacet
  facet normal 0.960304 0 -0.278955
    outer loop
      vertex -3.13849 -2.5 -1.28024
      vertex -3.19632 2.5 -1.47932
      vertex -3.13849 2.5 -1.28024
    endloop
  endfacet
  facet normal 0.960304 0 -0.278955
    outer loop
      vertex -3.19632 2.5 -1.47932
      vertex -3.13849 -2.5 -1.28024
      vertex -3.19632 -2.5 -1.47932
    endloop
  endfacet
  facet normal 0.612904 0 -0.790157
    outer loop
      vertex -2.1035 -2.5 0.242693
      vertex -1.93969 2.5 0.369756
      vertex -1.93969 -2.5 0.369756
    endloop
  endfacet
  facet normal 0.612904 0 -0.790157
    outer loop
      vertex -1.93969 2.5 0.369756
      vertex -2.1035 -2.5 0.242693
      vertex -2.1035 2.5 0.242693
    endloop
  endfacet
  facet normal 0.453981 0 -0.891011
    outer loop
      vertex -1.58979 -2.5 0.591811
      vertex -1.40507 2.5 0.685928
      vertex -1.40507 -2.5 0.685928
    endloop
  endfacet
  facet normal 0.453981 0 -0.891011
    outer loop
      vertex -1.40507 2.5 0.685928
      vertex -1.58979 -2.5 0.591811
      vertex -1.58979 2.5 0.591811
    endloop
  endfacet
  facet normal 0.338745 0 -0.940878
    outer loop
      vertex -1.21481 -2.5 0.768262
      vertex -1.01976 2.5 0.838486
      vertex -1.01976 -2.5 0.838486
    endloop
  endfacet
  facet normal 0.338745 0 -0.940878
    outer loop
      vertex -1.01976 2.5 0.838486
      vertex -1.21481 -2.5 0.768262
      vertex -1.21481 2.5 0.768262
    endloop
  endfacet
  facet normal 0.218141 0 -0.975917
    outer loop
      vertex -0.820676 -2.5 0.896324
      vertex -0.618358 2.5 0.941547
      vertex -0.618358 -2.5 0.941547
    endloop
  endfacet
  facet normal 0.218141 0 -0.975917
    outer loop
      vertex -0.618358 2.5 0.941547
      vertex -0.820676 -2.5 0.896324
      vertex -0.820676 2.5 0.896324
    endloop
  endfacet
  facet normal 0.0314165 0 -0.999506
    outer loop
      vertex -0.207209 -2.5 0.993487
      vertex 0 2.5 1
      vertex 0 -2.5 1
    endloop
  endfacet
  facet normal 0.0314165 0 -0.999506
    outer loop
      vertex 0 2.5 1
      vertex -0.207209 -2.5 0.993487
      vertex -0.207209 2.5 0.993487
    endloop
  endfacet
  facet normal -0.960304 0 -0.278955
    outer loop
      vertex 3.19632 -2.5 -1.47932
      vertex 3.13849 2.5 -1.28024
      vertex 3.19632 2.5 -1.47932
    endloop
  endfacet
  facet normal -0.960304 -0 -0.278955
    outer loop
      vertex 3.13849 2.5 -1.28024
      vertex 3.19632 -2.5 -1.47932
      vertex 3.13849 -2.5 -1.28024
    endloop
  endfacet
  facet normal -0.940869 0 -0.338771
    outer loop
      vertex 3.13849 -2.5 -1.28024
      vertex 3.06826 2.5 -1.08519
      vertex 3.13849 2.5 -1.28024
    endloop
  endfacet
  facet normal -0.940869 -0 -0.338771
    outer loop
      vertex 3.06826 2.5 -1.08519
      vertex 3.13849 -2.5 -1.28024
      vertex 3.06826 -2.5 -1.08519
    endloop
  endfacet
  facet normal -0.790138 0 -0.61293
    outer loop
      vertex 2.66976 -2.5 -0.360309
      vertex 2.54269 2.5 -0.196501
      vertex 2.66976 2.5 -0.360309
    endloop
  endfacet
  facet normal -0.790138 -0 -0.61293
    outer loop
      vertex 2.54269 2.5 -0.196501
      vertex 2.66976 -2.5 -0.360309
      vertex 2.54269 -2.5 -0.196501
    endloop
  endfacet
  facet normal -0.891001 0 -0.454002
    outer loop
      vertex 2.98593 -2.5 -0.894928
      vertex 2.89181 2.5 -0.710213
      vertex 2.98593 2.5 -0.894928
    endloop
  endfacet
  facet normal -0.891001 -0 -0.454002
    outer loop
      vertex 2.89181 2.5 -0.710213
      vertex 2.98593 -2.5 -0.894928
      vertex 2.89181 -2.5 -0.710213
    endloop
  endfacet
  facet normal -0.860743 0 -0.50904
    outer loop
      vertex 2.89181 -2.5 -0.710213
      vertex 2.78628 2.5 -0.531771
      vertex 2.89181 2.5 -0.710213
    endloop
  endfacet
  facet normal -0.860743 -0 -0.50904
    outer loop
      vertex 2.78628 2.5 -0.531771
      vertex 2.89181 -2.5 -0.710213
      vertex 2.78628 -2.5 -0.531771
    endloop
  endfacet
  facet normal -0.338745 0 -0.940878
    outer loop
      vertex 1.01976 -2.5 0.838486
      vertex 1.21481 2.5 0.768262
      vertex 1.21481 -2.5 0.768262
    endloop
  endfacet
  facet normal -0.338745 0 -0.940878
    outer loop
      vertex 1.21481 2.5 0.768262
      vertex 1.01976 -2.5 0.838486
      vertex 1.01976 2.5 0.838486
    endloop
  endfacet
  facet normal -0.0941054 0 -0.995562
    outer loop
      vertex 0.207209 -2.5 0.993487
      vertex 0.413599 2.5 0.973978
      vertex 0.413599 -2.5 0.973978
    endloop
  endfacet
  facet normal -0.0941054 0 -0.995562
    outer loop
      vertex 0.413599 2.5 0.973978
      vertex 0.207209 -2.5 0.993487
      vertex 0.207209 2.5 0.993487
    endloop
  endfacet
  facet normal -0.453981 0 -0.891011
    outer loop
      vertex 1.40507 -2.5 0.685928
      vertex 1.58979 2.5 0.591811
      vertex 1.58979 -2.5 0.591811
    endloop
  endfacet
  facet normal -0.453981 0 -0.891011
    outer loop
      vertex 1.58979 2.5 0.591811
      vertex 1.40507 -2.5 0.685928
      vertex 1.40507 2.5 0.685928
    endloop
  endfacet
  facet normal 0.750131 0 -0.66129
    outer loop
      vertex -2.4056 -2.5 -0.0409937
      vertex -2.54269 2.5 -0.196501
      vertex -2.4056 2.5 -0.0409937
    endloop
  endfacet
  facet normal 0.750131 0 -0.66129
    outer loop
      vertex -2.54269 2.5 -0.196501
      vertex -2.4056 -2.5 -0.0409937
      vertex -2.54269 -2.5 -0.196501
    endloop
  endfacet
  facet normal 0.940869 0 -0.338771
    outer loop
      vertex -3.06826 -2.5 -1.08519
      vertex -3.13849 2.5 -1.28024
      vertex -3.06826 2.5 -1.08519
    endloop
  endfacet
  facet normal 0.940869 0 -0.338771
    outer loop
      vertex -3.13849 2.5 -1.28024
      vertex -3.06826 -2.5 -1.08519
      vertex -3.13849 -2.5 -1.28024
    endloop
  endfacet
  facet normal 0.995562 0 -0.0941102
    outer loop
      vertex -3.27398 -2.5 -1.8864
      vertex -3.29349 2.5 -2.09279
      vertex -3.27398 2.5 -1.8864
    endloop
  endfacet
  facet normal 0.995562 0 -0.0941102
    outer loop
      vertex -3.29349 2.5 -2.09279
      vertex -3.27398 -2.5 -1.8864
      vertex -3.29349 -2.5 -2.09279
    endloop
  endfacet
  facet normal 0.661326 0 -0.750098
    outer loop
      vertex -2.259 -2.5 0.105596
      vertex -2.1035 2.5 0.242693
      vertex -2.1035 -2.5 0.242693
    endloop
  endfacet
  facet normal 0.661326 0 -0.750098
    outer loop
      vertex -2.1035 2.5 0.242693
      vertex -2.259 -2.5 0.105596
      vertex -2.259 2.5 0.105596
    endloop
  endfacet
  facet normal 0.397153 0 -0.917753
    outer loop
      vertex -1.40507 -2.5 0.685928
      vertex -1.21481 2.5 0.768262
      vertex -1.21481 -2.5 0.768262
    endloop
  endfacet
  facet normal 0.397153 0 -0.917753
    outer loop
      vertex -1.21481 2.5 0.768262
      vertex -1.40507 -2.5 0.685928
      vertex -1.40507 2.5 0.685928
    endloop
  endfacet
  facet normal 0.509045 0 -0.86074
    outer loop
      vertex -1.76823 -2.5 0.486281
      vertex -1.58979 2.5 0.591811
      vertex -1.58979 -2.5 0.591811
    endloop
  endfacet
  facet normal 0.509045 0 -0.86074
    outer loop
      vertex -1.58979 2.5 0.591811
      vertex -1.76823 -2.5 0.486281
      vertex -1.76823 2.5 0.486281
    endloop
  endfacet
  facet normal 0.278986 0 -0.960295
    outer loop
      vertex -1.01976 -2.5 0.838486
      vertex -0.820676 2.5 0.896324
      vertex -0.820676 -2.5 0.896324
    endloop
  endfacet
  facet normal 0.278986 0 -0.960295
    outer loop
      vertex -0.820676 2.5 0.896324
      vertex -1.01976 -2.5 0.838486
      vertex -1.01976 2.5 0.838486
    endloop
  endfacet
  facet normal -0.999506 0 0.0314345
    outer loop
      vertex 3.29371 -2.5 -2.5
      vertex 3.3 2.5 -2.3
      vertex 3.29371 2.5 -2.5
    endloop
  endfacet
  facet normal -0.999506 0 0.0314345
    outer loop
      vertex 3.3 2.5 -2.3
      vertex 3.29371 -2.5 -2.5
      vertex 3.3 -2.5 -2.3
    endloop
  endfacet
  facet normal 0.999506 -0 0.0314345
    outer loop
      vertex -3.3 -2.5 -2.3
      vertex -3.29371 2.5 -2.5
      vertex -3.3 2.5 -2.3
    endloop
  endfacet
  facet normal 0.999506 0 0.0314345
    outer loop
      vertex -3.29371 2.5 -2.5
      vertex -3.3 -2.5 -2.3
      vertex -3.29371 -2.5 -2.5
    endloop
  endfacet
endsolid OpenSCAD_Model
