solid OpenSCAD_Model
  facet normal -1 0 0
    outer loop
      vertex -5 -2.5 -2.5
      vertex -5 2.5 2.5
      vertex -5 2.5 -2.5
    endloop
  endfacet
  facet normal -1 -0 0
    outer loop
      vertex -5 2.5 2.5
      vertex -5 -2.5 -2.5
      vertex -5 -2.5 2.5
    endloop
  endfacet
  facet normal -0 0 1
    outer loop
      vertex -5 2.5 2.5
      vertex 5 -2.5 2.5
      vertex 5 2.5 2.5
    endloop
  endfacet
  facet normal 0 0 1
    outer loop
      vertex 5 -2.5 2.5
      vertex -5 2.5 2.5
      vertex -5 -2.5 2.5
    endloop
  endfacet
  facet normal 1 -0 0
    outer loop
      vertex 5 -2.5 2.5
      vertex 5 2.5 -2.5
      vertex 5 2.5 2.5
    endloop
  endfacet
  facet normal 1 0 0
    outer loop
      vertex 5 2.5 -2.5
      vertex 5 -2.5 2.5
      vertex 5 -2.5 -2.5
    endloop
  endfacet
  facet normal 0 1 0
    outer loop
      vertex 5 2.5 2.5
      vertex 0 2.5 0.9
      vertex -5 2.5 2.5
    endloop
  endfacet
  facet normal 0 1 0
    outer loop
      vertex 5 2.5 2.5
      vertex 0.188371 2.5 0.89408
      vertex 0 2.5 0.9
    endloop
  endfacet
  facet normal 0 1 0
    outer loop
      vertex 5 2.5 2.5
      vertex 0.375999 2.5 0.876344
      vertex 0.188371 2.5 0.89408
    endloop
  endfacet
  facet normal 0 1 0
    outer loop
      vertex 5 2.5 2.5
      vertex 0.562143 2.5 0.846861
      vertex 0.375999 2.5 0.876344
    endloop
  endfacet
  facet normal 0 1 0
    outer loop
      vertex 5 2.5 2.5
      vertex 0.746069 2.5 0.805749
      vertex 0.562143 2.5 0.846861
    endloop
  endfacet
  facet normal 0 1 0
    outer loop
      vertex 5 2.5 2.5
      vertex 0.927051 2.5 0.753169
      vertex 0.746069 2.5 0.805749
    endloop
  endfacet
  facet normal 0 1 0
    outer loop
      vertex 5 2.5 2.5
      vertex 1.10437 2.5 0.689329
      vertex 0.927051 2.5 0.753169
    endloop
  endfacet
  facet normal 0 1 0
    outer loop
      vertex 5 2.5 2.5
      vertex 1.27734 2.5 0.614481
      vertex 1.10437 2.5 0.689329
    endloop
  endfacet
  facet normal 0 1 0
    outer loop
      vertex 5 2.5 2.5
      vertex 1.44526 2.5 0.528919
      vertex 1.27734 2.5 0.614481
    endloop
  endfacet
  facet normal 0 1 0
    outer loop
      vertex 5 2.5 2.5
      vertex 1.60748 2.5 0.432983
      vertex 1.44526 2.5 0.528919
    endloop
  endfacet
  facet normal 0 1 0
    outer loop
      vertex 5 2.5 2.5
      vertex 1.76336 2.5 0.32705
      vertex 1.60748 2.5 0.432983
    endloop
  endfacet
  facet normal 0 1 0
    outer loop
      vertex 5 2.5 2.5
      vertex 1.91227 2.5 0.211539
      vertex 1.76336 2.5 0.32705
    endloop
  endfacet
  facet normal 0 1 0
    outer loop
      vertex 5 2.5 2.5
      vertex 2.05364 2.5 0.0869055
      vertex 1.91227 2.5 0.211539
    endloop
  endfacet
  facet normal 0 1 0
    outer loop
      vertex 5 2.5 2.5
      vertex 2.18691 2.5 -0.0463581
      vertex 2.05364 2.5 0.0869055
    endloop
  endfacet
  facet normal 0 1 0
    outer loop
      vertex 5 2.5 2.5
      vertex 2.31154 2.5 -0.187728
      vertex 2.18691 2.5 -0.0463581
    endloop
  endfacet
  facet normal 0 1 0
    outer loop
      vertex 5 2.5 2.5
      vertex 2.42705 2.5 -0.336644
      vertex 2.31154 2.5 -0.187728
    endloop
  endfacet
  facet normal 0 1 0
    outer loop
      vertex 5 2.5 2.5
      vertex 2.53298 2.5 -0.492519
      vertex 2.42705 2.5 -0.336644
    endloop
  endfacet
  facet normal 0 1 0
    outer loop
      vertex 5 2.5 2.5
      vertex 2.62892 2.5 -0.654738
      vertex 2.53298 2.5 -0.492519
    endloop
  endfacet
  facet normal 0 1 0
    outer loop
      vertex 5 2.5 2.5
      vertex 2.71448 2.5 -0.822661
      vertex 2.62892 2.5 -0.654738
    endloop
  endfacet
  facet normal 0 1 0
    outer loop
      vertex 5 2.5 2.5
      vertex 2.78933 2.5 -0.995625
      vertex 2.71448 2.5 -0.822661
    endloop
  endfacet
  facet normal 0 1 -0
    outer loop
      vertex 5 2.5 -2.5
      vertex 2.78933 2.5 -0.995625
      vertex 5 2.5 2.5
    endloop
  endfacet
  facet normal 0 1 0
    outer loop
      vertex 2.78933 2.5 -0.995625
      vertex 5 2.5 -2.5
      vertex 2.85317 2.5 -1.17295
    endloop
  endfacet
  facet normal 0 1 0
    outer loop
      vertex 2.85317 2.5 -1.17295
      vertex 5 2.5 -2.5
      vertex 2.90575 2.5 -1.35393
    endloop
  endfacet
  facet normal 0 1 0
    outer loop
      vertex 2.90575 2.5 -1.35393
      vertex 5 2.5 -2.5
      vertex 2.94686 2.5 -1.53786
    endloop
  endfacet
  facet normal 0 1 0
    outer loop
      vertex 2.94686 2.5 -1.53786
      vertex 5 2.5 -2.5
      vertex 2.97634 2.5 -1.724
    endloop
  endfacet
  facet normal 0 1 0
    outer loop
      vertex 2.97634 2.5 -1.724
      vertex 5 2.5 -2.5
      vertex 2.99408 2.5 -1.91163
    endloop
  endfacet
  facet normal 0 1 0
    outer loop
      vertex 2.99408 2.5 -1.91163
      vertex 5 2.5 -2.5
      vertex 3 2.5 -2.1
    endloop
  endfacet
  facet normal 0 1 0
    outer loop
      vertex 3 2.5 -2.1
      vertex 5 2.5 -2.5
      vertex 2.99408 2.5 -2.28837
    endloop
  endfacet
  facet normal 0 1 0
    outer loop
      vertex 2.99408 2.5 -2.28837
      vertex 5 2.5 -2.5
      vertex 2.97634 2.5 -2.476
    endloop
  endfacet
  facet normal 0 1 0
    outer loop
      vertex 2.97634 2.5 -2.476
      vertex 5 2.5 -2.5
      vertex 2.97254 2.5 -2.5
    endloop
  endfacet
  facet normal 0 1 -0
    outer loop
      vertex -0.188371 2.5 0.89408
      vertex -5 2.5 2.5
      vertex 0 2.5 0.9
    endloop
  endfacet
  facet normal 0 1 -0
    outer loop
      vertex -0.375999 2.5 0.876344
      vertex -5 2.5 2.5
      vertex -0.188371 2.5 0.89408
    endloop
  endfacet
  facet normal 0 1 -0
    outer loop
      vertex -0.562143 2.5 0.846861
      vertex -5 2.5 2.5
      vertex -0.375999 2.5 0.876344
    endloop
  endfacet
  facet normal 0 1 -0
    outer loop
      vertex -0.746069 2.5 0.805749
      vertex -5 2.5 2.5
      vertex -0.562143 2.5 0.846861
    endloop
  endfacet
  facet normal 0 1 -0
    outer loop
      vertex -0.927051 2.5 0.753169
      vertex -5 2.5 2.5
      vertex -0.746069 2.5 0.805749
    endloop
  endfacet
  facet normal 0 1 -0
    outer loop
      vertex -1.10437 2.5 0.689329
      vertex -5 2.5 2.5
      vertex -0.927051 2.5 0.753169
    endloop
  endfacet
  facet normal 0 1 -0
    outer loop
      vertex -1.27734 2.5 0.614481
      vertex -5 2.5 2.5
      vertex -1.10437 2.5 0.689329
    endloop
  endfacet
  facet normal 0 1 -0
    outer loop
      vertex -1.44526 2.5 0.528919
      vertex -5 2.5 2.5
      vertex -1.27734 2.5 0.614481
    endloop
  endfacet
  facet normal 0 1 -0
    outer loop
      vertex -1.60748 2.5 0.432983
      vertex -5 2.5 2.5
      vertex -1.44526 2.5 0.528919
    endloop
  endfacet
  facet normal 0 1 -0
    outer loop
      vertex -1.76336 2.5 0.32705
      vertex -5 2.5 2.5
      vertex -1.60748 2.5 0.432983
    endloop
  endfacet
  facet normal 0 1 -0
    outer loop
      vertex -1.91227 2.5 0.211539
      vertex -5 2.5 2.5
      vertex -1.76336 2.5 0.32705
    endloop
  endfacet
  facet normal 0 1 -0
    outer loop
      vertex -2.05364 2.5 0.0869055
      vertex -5 2.5 2.5
      vertex -1.91227 2.5 0.211539
    endloop
  endfacet
  facet normal 0 1 -0
    outer loop
      vertex -2.18691 2.5 -0.0463581
      vertex -5 2.5 2.5
      vertex -2.05364 2.5 0.0869055
    endloop
  endfacet
  facet normal 0 1 -0
    outer loop
      vertex -2.31154 2.5 -0.187728
      vertex -5 2.5 2.5
      vertex -2.18691 2.5 -0.0463581
    endloop
  endfacet
  facet normal 0 1 -0
    outer loop
      vertex -2.42705 2.5 -0.336644
      vertex -5 2.5 2.5
      vertex -2.31154 2.5 -0.187728
    endloop
  endfacet
  facet normal 0 1 -0
    outer loop
      vertex -2.53298 2.5 -0.492519
      vertex -5 2.5 2.5
      vertex -2.42705 2.5 -0.336644
    endloop
  endfacet
  facet normal 0 1 -0
    outer loop
      vertex -2.62892 2.5 -0.654738
      vertex -5 2.5 2.5
      vertex -2.53298 2.5 -0.492519
    endloop
  endfacet
  facet normal 0 1 -0
    outer loop
      vertex -2.71448 2.5 -0.822661
      vertex -5 2.5 2.5
      vertex -2.62892 2.5 -0.654738
    endloop
  endfacet
  facet normal 0 1 -0
    outer loop
      vertex -2.78933 2.5 -0.995625
      vertex -5 2.5 2.5
      vertex -2.71448 2.5 -0.822661
    endloop
  endfacet
  facet normal 0 1 0
    outer loop
      vertex -5 2.5 -2.5
      vertex -2.78933 2.5 -0.995625
      vertex -2.85317 2.5 -1.17295
    endloop
  endfacet
  facet normal 0 1 0
    outer loop
      vertex -5 2.5 -2.5
      vertex -2.85317 2.5 -1.17295
      vertex -2.90575 2.5 -1.35393
    endloop
  endfacet
  facet normal 0 1 0
    outer loop
      vertex -5 2.5 -2.5
      vertex -2.90575 2.5 -1.35393
      vertex -2.94686 2.5 -1.53786
    endloop
  endfacet
  facet normal 0 1 0
    outer loop
      vertex -5 2.5 -2.5
      vertex -2.94686 2.5 -1.53786
      vertex -2.97634 2.5 -1.724
    endloop
  endfacet
  facet normal 0 1 0
    outer loop
      vertex -5 2.5 -2.5
      vertex -2.97634 2.5 -1.724
      vertex -2.99408 2.5 -1.91163
    endloop
  endfacet
  facet normal 0 1 0
    outer loop
      vertex -5 2.5 -2.5
      vertex -2.99408 2.5 -1.91163
      vertex -3 2.5 -2.1
    endloop
  endfacet
  facet normal 0 1 0
    outer loop
      vertex -5 2.5 -2.5
      vertex -3 2.5 -2.1
      vertex -2.99408 2.5 -2.28837
    endloop
  endfacet
  facet normal 0 1 0
    outer loop
      vertex -5 2.5 -2.5
      vertex -2.99408 2.5 -2.28837
      vertex -2.97634 2.5 -2.476
    endloop
  endfacet
  facet normal 0 1 0
    outer loop
      vertex -5 2.5 -2.5
      vertex -2.97634 2.5 -2.476
      vertex -2.97254 2.5 -2.5
    endloop
  endfacet
  facet normal 0 1 0
    outer loop
      vertex -2.78933 2.5 -0.995625
      vertex -5 2.5 -2.5
      vertex -5 2.5 2.5
    endloop
  endfacet
  facet normal 0 0 -1
    outer loop
      vertex -5 -2.5 -2.5
      vertex -2.97254 2.5 -2.5
      vertex -2.97254 -2.5 -2.5
    endloop
  endfacet
  facet normal -0 0 -1
    outer loop
      vertex -2.97254 2.5 -2.5
      vertex -5 -2.5 -2.5
      vertex -5 2.5 -2.5
    endloop
  endfacet
  facet normal 0 0 -1
    outer loop
      vertex 2.97254 -2.5 -2.5
      vertex 5 2.5 -2.5
      vertex 5 -2.5 -2.5
    endloop
  endfacet
  facet normal -0 0 -1
    outer loop
      vertex 5 2.5 -2.5
      vertex 2.97254 -2.5 -2.5
      vertex 2.97254 2.5 -2.5
    endloop
  endfacet
  facet normal 0 -1 0
    outer loop
      vertex -5 -2.5 2.5
      vertex 0 -2.5 0.9
      vertex 5 -2.5 2.5
    endloop
  endfacet
  facet normal 0 -1 0
    outer loop
      vertex -5 -2.5 2.5
      vertex -0.188371 -2.5 0.89408
      vertex 0 -2.5 0.9
    endloop
  endfacet
  facet normal 0 -1 0
    outer loop
      vertex -5 -2.5 2.5
      vertex -0.375999 -2.5 0.876344
      vertex -0.188371 -2.5 0.89408
    endloop
  endfacet
  facet normal 0 -1 0
    outer loop
      vertex -5 -2.5 2.5
      vertex -0.562143 -2.5 0.846861
      vertex -0.375999 -2.5 0.876344
    endloop
  endfacet
  facet normal 0 -1 0
    outer loop
      vertex -5 -2.5 2.5
      vertex -0.746069 -2.5 0.805749
      vertex -0.562143 -2.5 0.846861
    endloop
  endfacet
  facet normal 0 -1 0
    outer loop
      vertex -5 -2.5 2.5
      vertex -0.927051 -2.5 0.753169
      vertex -0.746069 -2.5 0.805749
    endloop
  endfacet
  facet normal 0 -1 0
    outer loop
      vertex -5 -2.5 2.5
      vertex -1.10437 -2.5 0.689329
      vertex -0.927051 -2.5 0.753169
    endloop
  endfacet
  facet normal 0 -1 0
    outer loop
      vertex -5 -2.5 2.5
      vertex -1.27734 -2.5 0.614481
      vertex -1.10437 -2.5 0.689329
    endloop
  endfacet
  facet normal 0 -1 0
    outer loop
      vertex -5 -2.5 2.5
      vertex -1.44526 -2.5 0.528919
      vertex -1.27734 -2.5 0.614481
    endloop
  endfacet
  facet normal 0 -1 0
    outer loop
      vertex -5 -2.5 2.5
      vertex -1.60748 -2.5 0.432983
      vertex -1.44526 -2.5 0.528919
    endloop
  endfacet
  facet normal 0 -1 0
    outer loop
      vertex -5 -2.5 2.5
      vertex -1.76336 -2.5 0.32705
      vertex -1.60748 -2.5 0.432983
    endloop
  endfacet
  facet normal 0 -1 0
    outer loop
      vertex -5 -2.5 2.5
      vertex -1.91227 -2.5 0.211539
      vertex -1.76336 -2.5 0.32705
    endloop
  endfacet
  facet normal 0 -1 0
    outer loop
      vertex -5 -2.5 2.5
      vertex -2.05364 -2.5 0.0869055
      vertex -1.91227 -2.5 0.211539
    endloop
  endfacet
  facet normal 0 -1 0
    outer loop
      vertex -5 -2.5 2.5
      vertex -2.18691 -2.5 -0.0463581
      vertex -2.05364 -2.5 0.0869055
    endloop
  endfacet
  facet normal 0 -1 0
    outer loop
      vertex -5 -2.5 2.5
      vertex -2.31154 -2.5 -0.187728
      vertex -2.18691 -2.5 -0.0463581
    endloop
  endfacet
  facet normal 0 -1 0
    outer loop
      vertex -5 -2.5 2.5
      vertex -2.42705 -2.5 -0.336644
      vertex -2.31154 -2.5 -0.187728
    endloop
  endfacet
  facet normal 0 -1 0
    outer loop
      vertex -5 -2.5 2.5
      vertex -2.53298 -2.5 -0.492519
      vertex -2.42705 -2.5 -0.336644
    endloop
  endfacet
  facet normal 0 -1 0
    outer loop
      vertex -5 -2.5 2.5
      vertex -2.62892 -2.5 -0.654738
      vertex -2.53298 -2.5 -0.492519
    endloop
  endfacet
  facet normal 0 -1 0
    outer loop
      vertex -5 -2.5 2.5
      vertex -2.71448 -2.5 -0.822661
      vertex -2.62892 -2.5 -0.654738
    endloop
  endfacet
  facet normal 0 -1 0
    outer loop
      vertex -5 -2.5 2.5
      vertex -2.78933 -2.5 -0.995625
      vertex -2.71448 -2.5 -0.822661
    endloop
  endfacet
  facet normal 0 -1 0
    outer loop
      vertex -5 -2.5 -2.5
      vertex -2.78933 -2.5 -0.995625
      vertex -5 -2.5 2.5
    endloop
  endfacet
  facet normal 0 -1 0
    outer loop
      vertex -2.78933 -2.5 -0.995625
      vertex -5 -2.5 -2.5
      vertex -2.85317 -2.5 -1.17295
    endloop
  endfacet
  facet normal 0 -1 0
    outer loop
      vertex -2.85317 -2.5 -1.17295
      vertex -5 -2.5 -2.5
      vertex -2.90575 -2.5 -1.35393
    endloop
  endfacet
  facet normal 0 -1 0
    outer loop
      vertex -2.90575 -2.5 -1.35393
      vertex -5 -2.5 -2.5
      vertex -2.94686 -2.5 -1.53786
    endloop
  endfacet
  facet normal 0 -1 0
    outer loop
      vertex -2.94686 -2.5 -1.53786
      vertex -5 -2.5 -2.5
      vertex -2.97634 -2.5 -1.724
    endloop
  endfacet
  facet normal 0 -1 0
    outer loop
      vertex -2.97634 -2.5 -1.724
      vertex -5 -2.5 -2.5
      vertex -2.99408 -2.5 -1.91163
    endloop
  endfacet
  facet normal 0 -1 0
    outer loop
      vertex -2.99408 -2.5 -1.91163
      vertex -5 -2.5 -2.5
      vertex -3 -2.5 -2.1
    endloop
  endfacet
  facet normal 0 -1 -0
    outer loop
      vertex -3 -2.5 -2.1
      vertex -5 -2.5 -2.5
      vertex -2.99408 -2.5 -2.28837
    endloop
  endfacet
  facet normal 0 -1 -0
    outer loop
      vertex -2.99408 -2.5 -2.28837
      vertex -5 -2.5 -2.5
      vertex -2.97634 -2.5 -2.476
    endloop
  endfacet
  facet normal 0 -1 -0
    outer loop
      vertex -2.97634 -2.5 -2.476
      vertex -5 -2.5 -2.5
      vertex -2.97254 -2.5 -2.5
    endloop
  endfacet
  facet normal 0 -1 0
    outer loop
      vertex 0.188371 -2.5 0.89408
      vertex 5 -2.5 2.5
      vertex 0 -2.5 0.9
    endloop
  endfacet
  facet normal 0 -1 0
    outer loop
      vertex 0.375999 -2.5 0.876344
      vertex 5 -2.5 2.5
      vertex 0.188371 -2.5 0.89408
    endloop
  endfacet
  facet normal 0 -1 0
    outer loop
      vertex 0.562143 -2.5 0.846861
      vertex 5 -2.5 2.5
      vertex 0.375999 -2.5 0.876344
    endloop
  endfacet
  facet normal 0 -1 0
    outer loop
      vertex 0.746069 -2.5 0.805749
      vertex 5 -2.5 2.5
      vertex 0.562143 -2.5 0.846861
    endloop
  endfacet
  facet normal 0 -1 0
    outer loop
      vertex 0.927051 -2.5 0.753169
      vertex 5 -2.5 2.5
      vertex 0.746069 -2.5 0.805749
    endloop
  endfacet
  facet normal 0 -1 0
    outer loop
      vertex 1.10437 -2.5 0.689329
      vertex 5 -2.5 2.5
      vertex 0.927051 -2.5 0.753169
    endloop
  endfacet
  facet normal 0 -1 0
    outer loop
      vertex 1.27734 -2.5 0.614481
      vertex 5 -2.5 2.5
      vertex 1.10437 -2.5 0.689329
    endloop
  endfacet
  facet normal 0 -1 0
    outer loop
      vertex 1.44526 -2.5 0.528919
      vertex 5 -2.5 2.5
      vertex 1.27734 -2.5 0.614481
    endloop
  endfacet
  facet normal 0 -1 0
    outer loop
      vertex 1.60748 -2.5 0.432983
      vertex 5 -2.5 2.5
      vertex 1.44526 -2.5 0.528919
    endloop
  endfacet
  facet normal 0 -1 0
    outer loop
      vertex 1.76336 -2.5 0.32705
      vertex 5 -2.5 2.5
      vertex 1.60748 -2.5 0.432983
    endloop
  endfacet
  facet normal 0 -1 0
    outer loop
      vertex 1.91227 -2.5 0.211539
      vertex 5 -2.5 2.5
      vertex 1.76336 -2.5 0.32705
    endloop
  endfacet
  facet normal 0 -1 0
    outer loop
      vertex 2.05364 -2.5 0.0869055
      vertex 5 -2.5 2.5
      vertex 1.91227 -2.5 0.211539
    endloop
  endfacet
  facet normal 0 -1 0
    outer loop
      vertex 2.18691 -2.5 -0.0463581
      vertex 5 -2.5 2.5
      vertex 2.05364 -2.5 0.0869055
    endloop
  endfacet
  facet normal 0 -1 0
    outer loop
      vertex 2.31154 -2.5 -0.187728
      vertex 5 -2.5 2.5
      vertex 2.18691 -2.5 -0.0463581
    endloop
  endfacet
  facet normal 0 -1 0
    outer loop
      vertex 2.42705 -2.5 -0.336644
      vertex 5 -2.5 2.5
      vertex 2.31154 -2.5 -0.187728
    endloop
  endfacet
  facet normal 0 -1 0
    outer loop
      vertex 2.53298 -2.5 -0.492519
      vertex 5 -2.5 2.5
      vertex 2.42705 -2.5 -0.336644
    endloop
  endfacet
  facet normal 0 -1 0
    outer loop
      vertex 2.62892 -2.5 -0.654738
      vertex 5 -2.5 2.5
      vertex 2.53298 -2.5 -0.492519
    endloop
  endfacet
  facet normal 0 -1 0
    outer loop
      vertex 2.71448 -2.5 -0.822661
      vertex 5 -2.5 2.5
      vertex 2.62892 -2.5 -0.654738
    endloop
  endfacet
  facet normal 0 -1 0
    outer loop
      vertex 2.78933 -2.5 -0.995625
      vertex 5 -2.5 2.5
      vertex 2.71448 -2.5 -0.822661
    endloop
  endfacet
  facet normal 0 -1 0
    outer loop
      vertex 5 -2.5 -2.5
      vertex 2.78933 -2.5 -0.995625
      vertex 2.85317 -2.5 -1.17295
    endloop
  endfacet
  facet normal 0 -1 0
    outer loop
      vertex 5 -2.5 -2.5
      vertex 2.85317 -2.5 -1.17295
      vertex 2.90575 -2.5 -1.35393
    endloop
  endfacet
  facet normal 0 -1 0
    outer loop
      vertex 5 -2.5 -2.5
      vertex 2.90575 -2.5 -1.35393
      vertex 2.94686 -2.5 -1.53786
    endloop
  endfacet
  facet normal 0 -1 0
    outer loop
      vertex 5 -2.5 -2.5
      vertex 2.94686 -2.5 -1.53786
      vertex 2.97634 -2.5 -1.724
    endloop
  endfacet
  facet normal 0 -1 0
    outer loop
      vertex 5 -2.5 -2.5
      vertex 2.97634 -2.5 -1.724
      vertex 2.99408 -2.5 -1.91163
    endloop
  endfacet
  facet normal 0 -1 0
    outer loop
      vertex 5 -2.5 -2.5
      vertex 2.99408 -2.5 -1.91163
      vertex 3 -2.5 -2.1
    endloop
  endfacet
  facet normal 0 -1 0
    outer loop
      vertex 5 -2.5 -2.5
      vertex 3 -2.5 -2.1
      vertex 2.99408 -2.5 -2.28837
    endloop
  endfacet
  facet normal 0 -1 0
    outer loop
      vertex 5 -2.5 -2.5
      vertex 2.99408 -2.5 -2.28837
      vertex 2.97634 -2.5 -2.476
    endloop
  endfacet
  facet normal 0 -1 0
    outer loop
      vertex 5 -2.5 -2.5
      vertex 2.97634 -2.5 -2.476
      vertex 2.97254 -2.5 -2.5
    endloop
  endfacet
  facet normal 0 -1 0
    outer loop
      vertex 2.78933 -2.5 -0.995625
      vertex 5 -2.5 -2.5
      vertex 5 -2.5 2.5
    endloop
  endfacet
  facet normal -0.999507 0 -0.031412
    outer loop
      vertex 3 -2.5 -2.1
      vertex 2.99408 2.5 -1.91163
      vertex 3 2.5 -2.1
    endloop
  endfacet
  facet normal -0.999507 -0 -0.031412
    outer loop
      vertex 2.99408 2.5 -1.91163
      vertex 3 -2.5 -2.1
      vertex 2.99408 -2.5 -1.91163
    endloop
  endfacet
  facet normal -0.99556 0 -0.094128
    outer loop
      vertex 2.99408 -2.5 -1.91163
      vertex 2.97634 2.5 -1.724
      vertex 2.99408 2.5 -1.91163
    endloop
  endfacet
  facet normal -0.99556 -0 -0.094128
    outer loop
      vertex 2.97634 2.5 -1.724
      vertex 2.99408 -2.5 -1.91163
      vertex 2.97634 -2.5 -1.724
    endloop
  endfacet
  facet normal 0.999507 0 -0.031412
    outer loop
      vertex -2.99408 -2.5 -1.91163
      vertex -3 2.5 -2.1
      vertex -2.99408 2.5 -1.91163
    endloop
  endfacet
  facet normal 0.999507 0 -0.031412
    outer loop
      vertex -3 2.5 -2.1
      vertex -2.99408 -2.5 -1.91163
      vertex -3 -2.5 -2.1
    endloop
  endfacet
  facet normal 0.0314118 0 -0.999507
    outer loop
      vertex -0.188371 -2.5 0.89408
      vertex 0 2.5 0.9
      vertex 0 -2.5 0.9
    endloop
  endfacet
  facet normal 0.0314118 0 -0.999507
    outer loop
      vertex 0 2.5 0.9
      vertex -0.188371 -2.5 0.89408
      vertex -0.188371 2.5 0.89408
    endloop
  endfacet
  facet normal -0.661309 0 -0.750113
    outer loop
      vertex 1.91227 -2.5 0.211539
      vertex 2.05364 2.5 0.0869055
      vertex 2.05364 -2.5 0.0869055
    endloop
  endfacet
  facet normal -0.661309 0 -0.750113
    outer loop
      vertex 2.05364 2.5 0.0869055
      vertex 1.91227 -2.5 0.211539
      vertex 1.91227 2.5 0.211539
    endloop
  endfacet
  facet normal 0.70709 0 -0.707124
    outer loop
      vertex -2.18691 -2.5 -0.0463581
      vertex -2.05364 2.5 0.0869055
      vertex -2.05364 -2.5 0.0869055
    endloop
  endfacet
  facet normal 0.70709 0 -0.707124
    outer loop
      vertex -2.05364 2.5 0.0869055
      vertex -2.18691 -2.5 -0.0463581
      vertex -2.18691 2.5 -0.0463581
    endloop
  endfacet
  facet normal -0.891009 0 -0.453986
    outer loop
      vertex 2.71448 -2.5 -0.822661
      vertex 2.62892 2.5 -0.654738
      vertex 2.71448 2.5 -0.822661
    endloop
  endfacet
  facet normal -0.891009 -0 -0.453986
    outer loop
      vertex 2.62892 2.5 -0.654738
      vertex 2.71448 -2.5 -0.822661
      vertex 2.62892 -2.5 -0.654738
    endloop
  endfacet
  facet normal -0.509039 0 -0.860744
    outer loop
      vertex 1.44526 -2.5 0.528919
      vertex 1.60748 2.5 0.432983
      vertex 1.60748 -2.5 0.432983
    endloop
  endfacet
  facet normal -0.509039 0 -0.860744
    outer loop
      vertex 1.60748 2.5 0.432983
      vertex 1.44526 -2.5 0.528919
      vertex 1.44526 2.5 0.528919
    endloop
  endfacet
  facet normal 0.827087 0 -0.562074
    outer loop
      vertex -2.42705 -2.5 -0.336644
      vertex -2.53298 2.5 -0.492519
      vertex -2.42705 2.5 -0.336644
    endloop
  endfacet
  facet normal 0.827087 0 -0.562074
    outer loop
      vertex -2.53298 2.5 -0.492519
      vertex -2.42705 -2.5 -0.336644
      vertex -2.53298 -2.5 -0.492519
    endloop
  endfacet
  facet normal -0.97592 0 -0.218127
    outer loop
      vertex 2.94686 -2.5 -1.53786
      vertex 2.90575 2.5 -1.35393
      vertex 2.94686 2.5 -1.53786
    endloop
  endfacet
  facet normal -0.97592 -0 -0.218127
    outer loop
      vertex 2.90575 2.5 -1.35393
      vertex 2.94686 -2.5 -1.53786
      vertex 2.90575 -2.5 -1.35393
    endloop
  endfacet
  facet normal -0.790158 0 -0.612903
    outer loop
      vertex 2.42705 -2.5 -0.336644
      vertex 2.31154 2.5 -0.187728
      vertex 2.42705 2.5 -0.336644
    endloop
  endfacet
  facet normal -0.790158 -0 -0.612903
    outer loop
      vertex 2.31154 2.5 -0.187728
      vertex 2.42705 -2.5 -0.336644
      vertex 2.31154 -2.5 -0.187728
    endloop
  endfacet
  facet normal -0.156438 0 -0.987688
    outer loop
      vertex 0.375999 -2.5 0.876344
      vertex 0.562143 2.5 0.846861
      vertex 0.562143 -2.5 0.846861
    endloop
  endfacet
  facet normal -0.156438 0 -0.987688
    outer loop
      vertex 0.562143 2.5 0.846861
      vertex 0.375999 -2.5 0.876344
      vertex 0.375999 2.5 0.876344
    endloop
  endfacet
  facet normal -0.562073 0 -0.827088
    outer loop
      vertex 1.60748 -2.5 0.432983
      vertex 1.76336 2.5 0.32705
      vertex 1.76336 -2.5 0.32705
    endloop
  endfacet
  facet normal -0.562073 0 -0.827088
    outer loop
      vertex 1.76336 2.5 0.32705
      vertex 1.60748 -2.5 0.432983
      vertex 1.60748 2.5 0.432983
    endloop
  endfacet
  facet normal 0.860733 0 -0.509057
    outer loop
      vertex -2.53298 -2.5 -0.492519
      vertex -2.62892 2.5 -0.654738
      vertex -2.53298 2.5 -0.492519
    endloop
  endfacet
  facet normal 0.860733 0 -0.509057
    outer loop
      vertex -2.62892 2.5 -0.654738
      vertex -2.53298 -2.5 -0.492519
      vertex -2.62892 -2.5 -0.654738
    endloop
  endfacet
  facet normal 0.97592 0 -0.218127
    outer loop
      vertex -2.90575 -2.5 -1.35393
      vertex -2.94686 2.5 -1.53786
      vertex -2.90575 2.5 -1.35393
    endloop
  endfacet
  facet normal 0.97592 0 -0.218127
    outer loop
      vertex -2.94686 2.5 -1.53786
      vertex -2.90575 -2.5 -1.35393
      vertex -2.94686 -2.5 -1.53786
    endloop
  endfacet
  facet normal 0.98769 0 -0.156426
    outer loop
      vertex -2.94686 -2.5 -1.53786
      vertex -2.97634 2.5 -1.724
      vertex -2.94686 2.5 -1.53786
    endloop
  endfacet
  facet normal 0.98769 0 -0.156426
    outer loop
      vertex -2.97634 2.5 -1.724
      vertex -2.94686 -2.5 -1.53786
      vertex -2.97634 -2.5 -1.724
    endloop
  endfacet
  facet normal 0.562073 0 -0.827088
    outer loop
      vertex -1.76336 -2.5 0.32705
      vertex -1.60748 2.5 0.432983
      vertex -1.60748 -2.5 0.432983
    endloop
  endfacet
  facet normal 0.562073 0 -0.827088
    outer loop
      vertex -1.60748 2.5 0.432983
      vertex -1.76336 -2.5 0.32705
      vertex -1.76336 2.5 0.32705
    endloop
  endfacet
  facet normal 0.094108 0 -0.995562
    outer loop
      vertex -0.375999 -2.5 0.876344
      vertex -0.188371 2.5 0.89408
      vertex -0.188371 -2.5 0.89408
    endloop
  endfacet
  facet normal 0.094108 0 -0.995562
    outer loop
      vertex -0.188371 2.5 0.89408
      vertex -0.375999 -2.5 0.876344
      vertex -0.375999 2.5 0.876344
    endloop
  endfacet
  facet normal -0.987696 0 0.156385
    outer loop
      vertex 2.97254 -2.5 -2.5
      vertex 2.97634 2.5 -2.476
      vertex 2.97254 2.5 -2.5
    endloop
  endfacet
  facet normal -0.987696 0 0.156385
    outer loop
      vertex 2.97634 2.5 -2.476
      vertex 2.97254 -2.5 -2.5
      vertex 2.97634 -2.5 -2.476
    endloop
  endfacet
  facet normal -0.98769 0 -0.156426
    outer loop
      vertex 2.97634 -2.5 -1.724
      vertex 2.94686 2.5 -1.53786
      vertex 2.97634 2.5 -1.724
    endloop
  endfacet
  facet normal -0.98769 -0 -0.156426
    outer loop
      vertex 2.94686 2.5 -1.53786
      vertex 2.97634 -2.5 -1.724
      vertex 2.94686 -2.5 -1.53786
    endloop
  endfacet
  facet normal -0.750122 0 -0.661299
    outer loop
      vertex 2.31154 -2.5 -0.187728
      vertex 2.18691 2.5 -0.0463581
      vertex 2.31154 2.5 -0.187728
    endloop
  endfacet
  facet normal -0.750122 -0 -0.661299
    outer loop
      vertex 2.18691 2.5 -0.0463581
      vertex 2.31154 -2.5 -0.187728
      vertex 2.18691 -2.5 -0.0463581
    endloop
  endfacet
  facet normal -0.094108 0 -0.995562
    outer loop
      vertex 0.188371 -2.5 0.89408
      vertex 0.375999 2.5 0.876344
      vertex 0.375999 -2.5 0.876344
    endloop
  endfacet
  facet normal -0.094108 0 -0.995562
    outer loop
      vertex 0.375999 2.5 0.876344
      vertex 0.188371 -2.5 0.89408
      vertex 0.188371 2.5 0.89408
    endloop
  endfacet
  facet normal -0.27899 0 -0.960294
    outer loop
      vertex 0.746069 -2.5 0.805749
      vertex 0.927051 2.5 0.753169
      vertex 0.927051 -2.5 0.753169
    endloop
  endfacet
  facet normal -0.27899 0 -0.960294
    outer loop
      vertex 0.927051 2.5 0.753169
      vertex 0.746069 -2.5 0.805749
      vertex 0.746069 2.5 0.805749
    endloop
  endfacet
  facet normal -0.338744 0 -0.940879
    outer loop
      vertex 0.927051 -2.5 0.753169
      vertex 1.10437 2.5 0.689329
      vertex 1.10437 -2.5 0.689329
    endloop
  endfacet
  facet normal -0.338744 0 -0.940879
    outer loop
      vertex 1.10437 2.5 0.689329
      vertex 0.927051 -2.5 0.753169
      vertex 0.927051 2.5 0.753169
    endloop
  endfacet
  facet normal -0.454001 0 -0.891001
    outer loop
      vertex 1.27734 -2.5 0.614481
      vertex 1.44526 2.5 0.528919
      vertex 1.44526 -2.5 0.528919
    endloop
  endfacet
  facet normal -0.454001 0 -0.891001
    outer loop
      vertex 1.44526 2.5 0.528919
      vertex 1.27734 -2.5 0.614481
      vertex 1.27734 2.5 0.614481
    endloop
  endfacet
  facet normal -0.612922 0 -0.790143
    outer loop
      vertex 1.76336 -2.5 0.32705
      vertex 1.91227 2.5 0.211539
      vertex 1.91227 -2.5 0.211539
    endloop
  endfacet
  facet normal -0.612922 0 -0.790143
    outer loop
      vertex 1.91227 2.5 0.211539
      vertex 1.76336 -2.5 0.32705
      vertex 1.76336 2.5 0.32705
    endloop
  endfacet
  facet normal 0.790158 0 -0.612903
    outer loop
      vertex -2.31154 -2.5 -0.187728
      vertex -2.42705 2.5 -0.336644
      vertex -2.31154 2.5 -0.187728
    endloop
  endfacet
  facet normal 0.790158 0 -0.612903
    outer loop
      vertex -2.42705 2.5 -0.336644
      vertex -2.31154 -2.5 -0.187728
      vertex -2.42705 -2.5 -0.336644
    endloop
  endfacet
  facet normal 0.917751 0 -0.397156
    outer loop
      vertex -2.71448 -2.5 -0.822661
      vertex -2.78933 2.5 -0.995625
      vertex -2.71448 2.5 -0.822661
    endloop
  endfacet
  facet normal 0.917751 0 -0.397156
    outer loop
      vertex -2.78933 2.5 -0.995625
      vertex -2.71448 -2.5 -0.822661
      vertex -2.78933 -2.5 -0.995625
    endloop
  endfacet
  facet normal 0.940882 0 -0.338734
    outer loop
      vertex -2.78933 -2.5 -0.995625
      vertex -2.85317 2.5 -1.17295
      vertex -2.78933 2.5 -0.995625
    endloop
  endfacet
  facet normal 0.940882 0 -0.338734
    outer loop
      vertex -2.85317 2.5 -1.17295
      vertex -2.78933 -2.5 -0.995625
      vertex -2.85317 -2.5 -1.17295
    endloop
  endfacet
  facet normal 0.99556 0 -0.094128
    outer loop
      vertex -2.97634 -2.5 -1.724
      vertex -2.99408 2.5 -1.91163
      vertex -2.97634 2.5 -1.724
    endloop
  endfacet
  facet normal 0.99556 0 -0.094128
    outer loop
      vertex -2.99408 2.5 -1.91163
      vertex -2.97634 -2.5 -1.724
      vertex -2.99408 -2.5 -1.91163
    endloop
  endfacet
  facet normal 0.612922 0 -0.790143
    outer loop
      vertex -1.91227 -2.5 0.211539
      vertex -1.76336 2.5 0.32705
      vertex -1.76336 -2.5 0.32705
    endloop
  endfacet
  facet normal 0.612922 0 -0.790143
    outer loop
      vertex -1.76336 2.5 0.32705
      vertex -1.91227 -2.5 0.211539
      vertex -1.91227 2.5 0.211539
    endloop
  endfacet
  facet normal 0.509039 0 -0.860744
    outer loop
      vertex -1.60748 -2.5 0.432983
      vertex -1.44526 2.5 0.528919
      vertex -1.44526 -2.5 0.528919
    endloop
  endfacet
  facet normal 0.509039 0 -0.860744
    outer loop
      vertex -1.44526 2.5 0.528919
      vertex -1.60748 -2.5 0.432983
      vertex -1.60748 2.5 0.432983
    endloop
  endfacet
  facet normal 0.397135 0 -0.91776
    outer loop
      vertex -1.27734 -2.5 0.614481
      vertex -1.10437 2.5 0.689329
      vertex -1.10437 -2.5 0.689329
    endloop
  endfacet
  facet normal 0.397135 0 -0.91776
    outer loop
      vertex -1.10437 2.5 0.689329
      vertex -1.27734 -2.5 0.614481
      vertex -1.27734 2.5 0.614481
    endloop
  endfacet
  facet normal 0.27899 0 -0.960294
    outer loop
      vertex -0.927051 -2.5 0.753169
      vertex -0.746069 2.5 0.805749
      vertex -0.746069 -2.5 0.805749
    endloop
  endfacet
  facet normal 0.27899 0 -0.960294
    outer loop
      vertex -0.746069 2.5 0.805749
      vertex -0.927051 -2.5 0.753169
      vertex -0.927051 2.5 0.753169
    endloop
  endfacet
  facet normal 0.218142 0 -0.975917
    outer loop
      vertex -0.746069 -2.5 0.805749
      vertex -0.562143 2.5 0.846861
      vertex -0.562143 -2.5 0.846861
    endloop
  endfacet
  facet normal 0.218142 0 -0.975917
    outer loop
      vertex -0.562143 2.5 0.846861
      vertex -0.746069 -2.5 0.805749
      vertex -0.746069 2.5 0.805749
    endloop
  endfacet
  facet normal 0.999507 -0 0.031412
    outer loop
      vertex -3 -2.5 -2.1
      vertex -2.99408 2.5 -2.28837
      vertex -3 2.5 -2.1
    endloop
  endfacet
  facet normal 0.999507 0 0.031412
    outer loop
      vertex -2.99408 2.5 -2.28837
      vertex -3 -2.5 -2.1
      vertex -2.99408 -2.5 -2.28837
    endloop
  endfacet
  facet normal -0.917751 0 -0.397156
    outer loop
      vertex 2.78933 -2.5 -0.995625
      vertex 2.71448 2.5 -0.822661
      vertex 2.78933 2.5 -0.995625
    endloop
  endfacet
  facet normal -0.917751 -0 -0.397156
    outer loop
      vertex 2.71448 2.5 -0.822661
      vertex 2.78933 -2.5 -0.995625
      vertex 2.71448 -2.5 -0.822661
    endloop
  endfacet
  facet normal -0.960293 0 -0.278993
    outer loop
      vertex 2.90575 -2.5 -1.35393
      vertex 2.85317 2.5 -1.17295
      vertex 2.90575 2.5 -1.35393
    endloop
  endfacet
  facet normal -0.960293 -0 -0.278993
    outer loop
      vertex 2.85317 2.5 -1.17295
      vertex 2.90575 -2.5 -1.35393
      vertex 2.85317 -2.5 -1.17295
    endloop
  endfacet
  facet normal -0.940882 0 -0.338734
    outer loop
      vertex 2.85317 -2.5 -1.17295
      vertex 2.78933 2.5 -0.995625
      vertex 2.85317 2.5 -1.17295
    endloop
  endfacet
  facet normal -0.940882 -0 -0.338734
    outer loop
      vertex 2.78933 2.5 -0.995625
      vertex 2.85317 -2.5 -1.17295
      vertex 2.78933 -2.5 -0.995625
    endloop
  endfacet
  facet normal -0.70709 0 -0.707124
    outer loop
      vertex 2.05364 -2.5 0.0869055
      vertex 2.18691 2.5 -0.0463581
      vertex 2.18691 -2.5 -0.0463581
    endloop
  endfacet
  facet normal -0.70709 0 -0.707124
    outer loop
      vertex 2.18691 2.5 -0.0463581
      vertex 2.05364 -2.5 0.0869055
      vertex 2.05364 2.5 0.0869055
    endloop
  endfacet
  facet normal -0.860733 0 -0.509057
    outer loop
      vertex 2.62892 -2.5 -0.654738
      vertex 2.53298 2.5 -0.492519
      vertex 2.62892 2.5 -0.654738
    endloop
  endfacet
  facet normal -0.860733 -0 -0.509057
    outer loop
      vertex 2.53298 2.5 -0.492519
      vertex 2.62892 -2.5 -0.654738
      vertex 2.53298 -2.5 -0.492519
    endloop
  endfacet
  facet normal -0.827087 0 -0.562074
    outer loop
      vertex 2.53298 -2.5 -0.492519
      vertex 2.42705 2.5 -0.336644
      vertex 2.53298 2.5 -0.492519
    endloop
  endfacet
  facet normal -0.827087 -0 -0.562074
    outer loop
      vertex 2.42705 2.5 -0.336644
      vertex 2.53298 -2.5 -0.492519
      vertex 2.42705 -2.5 -0.336644
    endloop
  endfacet
  facet normal -0.218142 0 -0.975917
    outer loop
      vertex 0.562143 -2.5 0.846861
      vertex 0.746069 2.5 0.805749
      vertex 0.746069 -2.5 0.805749
    endloop
  endfacet
  facet normal -0.218142 0 -0.975917
    outer loop
      vertex 0.746069 2.5 0.805749
      vertex 0.562143 -2.5 0.846861
      vertex 0.562143 2.5 0.846861
    endloop
  endfacet
  facet normal -0.0314118 0 -0.999507
    outer loop
      vertex 0 -2.5 0.9
      vertex 0.188371 2.5 0.89408
      vertex 0.188371 -2.5 0.89408
    endloop
  endfacet
  facet normal -0.0314118 0 -0.999507
    outer loop
      vertex 0.188371 2.5 0.89408
      vertex 0 -2.5 0.9
      vertex 0 2.5 0.9
    endloop
  endfacet
  facet normal -0.397135 0 -0.91776
    outer loop
      vertex 1.10437 -2.5 0.689329
      vertex 1.27734 2.5 0.614481
      vertex 1.27734 -2.5 0.614481
    endloop
  endfacet
  facet normal -0.397135 0 -0.91776
    outer loop
      vertex 1.27734 2.5 0.614481
      vertex 1.10437 -2.5 0.689329
      vertex 1.10437 2.5 0.689329
    endloop
  endfacet
  facet normal 0.750122 0 -0.661299
    outer loop
      vertex -2.18691 -2.5 -0.0463581
      vertex -2.31154 2.5 -0.187728
      vertex -2.18691 2.5 -0.0463581
    endloop
  endfacet
  facet normal 0.750122 0 -0.661299
    outer loop
      vertex -2.31154 2.5 -0.187728
      vertex -2.18691 -2.5 -0.0463581
      vertex -2.31154 -2.5 -0.187728
    endloop
  endfacet
  facet normal 0.891009 0 -0.453986
    outer loop
      vertex -2.62892 -2.5 -0.654738
      vertex -2.71448 2.5 -0.822661
      vertex -2.62892 2.5 -0.654738
    endloop
  endfacet
  facet normal 0.891009 0 -0.453986
    outer loop
      vertex -2.71448 2.5 -0.822661
      vertex -2.62892 -2.5 -0.654738
      vertex -2.71448 -2.5 -0.822661
    endloop
  endfacet
  facet normal 0.960293 0 -0.278993
    outer loop
      vertex -2.85317 -2.5 -1.17295
      vertex -2.90575 2.5 -1.35393
      vertex -2.85317 2.5 -1.17295
    endloop
  endfacet
  facet normal 0.960293 0 -0.278993
    outer loop
      vertex -2.90575 2.5 -1.35393
      vertex -2.85317 -2.5 -1.17295
      vertex -2.90575 -2.5 -1.35393
    endloop
  endfacet
  facet normal 0.661309 0 -0.750113
    outer loop
      vertex -2.05364 -2.5 0.0869055
      vertex -1.91227 2.5 0.211539
      vertex -1.91227 -2.5 0.211539
    endloop
  endfacet
  facet normal 0.661309 0 -0.750113
    outer loop
      vertex -1.91227 2.5 0.211539
      vertex -2.05364 -2.5 0.0869055
      vertex -2.05364 2.5 0.0869055
    endloop
  endfacet
  facet normal 0.454001 0 -0.891001
    outer loop
      vertex -1.44526 -2.5 0.528919
      vertex -1.27734 2.5 0.614481
      vertex -1.27734 -2.5 0.614481
    endloop
  endfacet
  facet normal 0.454001 0 -0.891001
    outer loop
      vertex -1.27734 2.5 0.614481
      vertex -1.44526 -2.5 0.528919
      vertex -1.44526 2.5 0.528919
    endloop
  endfacet
  facet normal 0.338744 0 -0.940879
    outer loop
      vertex -1.10437 -2.5 0.689329
      vertex -0.927051 2.5 0.753169
      vertex -0.927051 -2.5 0.753169
    endloop
  endfacet
  facet normal 0.338744 0 -0.940879
    outer loop
      vertex -0.927051 2.5 0.753169
      vertex -1.10437 -2.5 0.689329
      vertex -1.10437 2.5 0.689329
    endloop
  endfacet
  facet normal 0.156438 0 -0.987688
    outer loop
      vertex -0.562143 -2.5 0.846861
      vertex -0.375999 2.5 0.876344
      vertex -0.375999 -2.5 0.876344
    endloop
  endfacet
  facet normal 0.156438 0 -0.987688
    outer loop
      vertex -0.375999 2.5 0.876344
      vertex -0.562143 -2.5 0.846861
      vertex -0.562143 2.5 0.846861
    endloop
  endfacet
  facet normal -0.999507 0 0.031412
    outer loop
      vertex 2.99408 -2.5 -2.28837
      vertex 3 2.5 -2.1
      vertex 2.99408 2.5 -2.28837
    endloop
  endfacet
  facet normal -0.999507 0 0.031412
    outer loop
      vertex 3 2.5 -2.1
      vertex 2.99408 -2.5 -2.28837
      vertex 3 -2.5 -2.1
    endloop
  endfacet
  facet normal -0.99556 0 0.094128
    outer loop
      vertex 2.97634 -2.5 -2.476
      vertex 2.99408 2.5 -2.28837
      vertex 2.97634 2.5 -2.476
    endloop
  endfacet
  facet normal -0.99556 0 0.094128
    outer loop
      vertex 2.99408 2.5 -2.28837
      vertex 2.97634 -2.5 -2.476
      vertex 2.99408 -2.5 -2.28837
    endloop
  endfacet
  facet normal 0.99556 -0 0.094128
    outer loop
      vertex -2.99408 -2.5 -2.28837
      vertex -2.97634 2.5 -2.476
      vertex -2.99408 2.5 -2.28837
    endloop
  endfacet
  facet normal 0.99556 0 0.094128
    outer loop
      vertex -2.97634 2.5 -2.476
      vertex -2.99408 -2.5 -2.28837
      vertex -2.97634 -2.5 -2.476
    endloop
  endfacet
  facet normal 0.987696 -0 0.156385
    outer loop
      vertex -2.97634 -2.5 -2.476
      vertex -2.97254 2.5 -2.5
      vertex -2.97634 2.5 -2.476
    endloop
  endfacet
  facet normal 0.987696 0 0.156385
    outer loop
      vertex -2.97254 2.5 -2.5
      vertex -2.97634 -2.5 -2.476
      vertex -2.97254 -2.5 -2.5
    endloop
  endfacet
endsolid OpenSCAD_Model
