solid OpenSCAD_Model
  facet normal -1 0 0
    outer loop
      vertex -5 -2.5 -2.5
      vertex -5 2.5 2.5
      vertex -5 2.5 -2.5
    endloop
  endfacet
  facet normal -1 -0 0
    outer loop
      vertex -5 2.5 2.5
      vertex -5 -2.5 -2.5
      vertex -5 -2.5 2.5
    endloop
  endfacet
  facet normal -0 0 1
    outer loop
      vertex -5 2.5 2.5
      vertex 5 -2.5 2.5
      vertex 5 2.5 2.5
    endloop
  endfacet
  facet normal 0 0 1
    outer loop
      vertex 5 -2.5 2.5
      vertex -5 2.5 2.5
      vertex -5 -2.5 2.5
    endloop
  endfacet
  facet normal 1 -0 0
    outer loop
      vertex 5 -2.5 2.5
      vertex 5 2.5 -2.5
      vertex 5 2.5 2.5
    endloop
  endfacet
  facet normal 1 0 0
    outer loop
      vertex 5 2.5 -2.5
      vertex 5 -2.5 2.5
      vertex 5 -2.5 -2.5
    endloop
  endfacet
  facet normal 0 1 0
    outer loop
      vertex 5 2.5 2.5
      vertex 0 2.5 1.5
      vertex -5 2.5 2.5
    endloop
  endfacet
  facet normal 0 1 0
    outer loop
      vertex 5 2.5 2.5
      vertex 0.244883 2.5 1.4923
      vertex 0 2.5 1.5
    endloop
  endfacet
  facet normal 0 1 0
    outer loop
      vertex 5 2.5 2.5
      vertex 0.488799 2.5 1.46925
      vertex 0.244883 2.5 1.4923
    endloop
  endfacet
  facet normal 0 1 0
    outer loop
      vertex 5 2.5 2.5
      vertex 0.730786 2.5 1.43092
      vertex 0.488799 2.5 1.46925
    endloop
  endfacet
  facet normal 0 1 0
    outer loop
      vertex 5 2.5 2.5
      vertex 0.96989 2.5 1.37747
      vertex 0.730786 2.5 1.43092
    endloop
  endfacet
  facet normal 0 1 0
    outer loop
      vertex 5 2.5 2.5
      vertex 1.20517 2.5 1.30912
      vertex 0.96989 2.5 1.37747
    endloop
  endfacet
  facet normal 0 1 0
    outer loop
      vertex 5 2.5 2.5
      vertex 1.43569 2.5 1.22613
      vertex 1.20517 2.5 1.30912
    endloop
  endfacet
  facet normal 0 1 0
    outer loop
      vertex 5 2.5 2.5
      vertex 1.66054 2.5 1.12883
      vertex 1.43569 2.5 1.22613
    endloop
  endfacet
  facet normal 0 1 0
    outer loop
      vertex 5 2.5 2.5
      vertex 1.87884 2.5 1.0176
      vertex 1.66054 2.5 1.12883
    endloop
  endfacet
  facet normal 0 1 0
    outer loop
      vertex 5 2.5 2.5
      vertex 2.08972 2.5 0.892879
      vertex 1.87884 2.5 1.0176
    endloop
  endfacet
  facet normal 0 1 0
    outer loop
      vertex 5 2.5 2.5
      vertex 2.29236 2.5 0.755166
      vertex 2.08972 2.5 0.892879
    endloop
  endfacet
  facet normal 0 1 0
    outer loop
      vertex 5 2.5 2.5
      vertex 2.48595 2.5 0.605001
      vertex 2.29236 2.5 0.755166
    endloop
  endfacet
  facet normal 0 1 0
    outer loop
      vertex 5 2.5 2.5
      vertex 2.66973 2.5 0.442977
      vertex 2.48595 2.5 0.605001
    endloop
  endfacet
  facet normal 0 1 0
    outer loop
      vertex 5 2.5 2.5
      vertex 2.84298 2.5 0.269733
      vertex 2.66973 2.5 0.442977
    endloop
  endfacet
  facet normal 0 1 0
    outer loop
      vertex 5 2.5 2.5
      vertex 3.005 2.5 0.0859528
      vertex 2.84298 2.5 0.269733
    endloop
  endfacet
  facet normal 0 1 0
    outer loop
      vertex 5 2.5 2.5
      vertex 3.15517 2.5 -0.107637
      vertex 3.005 2.5 0.0859528
    endloop
  endfacet
  facet normal 0 1 0
    outer loop
      vertex 5 2.5 2.5
      vertex 3.29288 2.5 -0.310275
      vertex 3.15517 2.5 -0.107637
    endloop
  endfacet
  facet normal 0 1 0
    outer loop
      vertex 5 2.5 2.5
      vertex 3.4176 2.5 -0.52116
      vertex 3.29288 2.5 -0.310275
    endloop
  endfacet
  facet normal 0 1 0
    outer loop
      vertex 5 2.5 2.5
      vertex 3.52882 2.5 -0.73946
      vertex 3.4176 2.5 -0.52116
    endloop
  endfacet
  facet normal 0 1 0
    outer loop
      vertex 5 2.5 2.5
      vertex 3.62613 2.5 -0.964314
      vertex 3.52882 2.5 -0.73946
    endloop
  endfacet
  facet normal 0 1 -0
    outer loop
      vertex 5 2.5 -2.5
      vertex 3.62613 2.5 -0.964314
      vertex 5 2.5 2.5
    endloop
  endfacet
  facet normal 0 1 0
    outer loop
      vertex 3.62613 2.5 -0.964314
      vertex 5 2.5 -2.5
      vertex 3.70912 2.5 -1.19483
    endloop
  endfacet
  facet normal 0 1 0
    outer loop
      vertex 3.70912 2.5 -1.19483
      vertex 5 2.5 -2.5
      vertex 3.77747 2.5 -1.43011
    endloop
  endfacet
  facet normal 0 1 0
    outer loop
      vertex 3.77747 2.5 -1.43011
      vertex 5 2.5 -2.5
      vertex 3.83092 2.5 -1.66921
    endloop
  endfacet
  facet normal 0 1 0
    outer loop
      vertex 3.83092 2.5 -1.66921
      vertex 5 2.5 -2.5
      vertex 3.86925 2.5 -1.9112
    endloop
  endfacet
  facet normal 0 1 0
    outer loop
      vertex 3.86925 2.5 -1.9112
      vertex 5 2.5 -2.5
      vertex 3.8923 2.5 -2.15512
    endloop
  endfacet
  facet normal 0 1 0
    outer loop
      vertex 3.8923 2.5 -2.15512
      vertex 5 2.5 -2.5
      vertex 3.9 2.5 -2.4
    endloop
  endfacet
  facet normal 0 1 0
    outer loop
      vertex 3.9 2.5 -2.4
      vertex 5 2.5 -2.5
      vertex 3.89686 2.5 -2.5
    endloop
  endfacet
  facet normal 0 1 -0
    outer loop
      vertex -0.244883 2.5 1.4923
      vertex -5 2.5 2.5
      vertex 0 2.5 1.5
    endloop
  endfacet
  facet normal 0 1 -0
    outer loop
      vertex -0.488799 2.5 1.46925
      vertex -5 2.5 2.5
      vertex -0.244883 2.5 1.4923
    endloop
  endfacet
  facet normal 0 1 -0
    outer loop
      vertex -0.730786 2.5 1.43092
      vertex -5 2.5 2.5
      vertex -0.488799 2.5 1.46925
    endloop
  endfacet
  facet normal 0 1 -0
    outer loop
      vertex -0.96989 2.5 1.37747
      vertex -5 2.5 2.5
      vertex -0.730786 2.5 1.43092
    endloop
  endfacet
  facet normal 0 1 -0
    outer loop
      vertex -1.20517 2.5 1.30912
      vertex -5 2.5 2.5
      vertex -0.96989 2.5 1.37747
    endloop
  endfacet
  facet normal 0 1 -0
    outer loop
      vertex -1.43569 2.5 1.22613
      vertex -5 2.5 2.5
      vertex -1.20517 2.5 1.30912
    endloop
  endfacet
  facet normal 0 1 -0
    outer loop
      vertex -1.66054 2.5 1.12883
      vertex -5 2.5 2.5
      vertex -1.43569 2.5 1.22613
    endloop
  endfacet
  facet normal 0 1 -0
    outer loop
      vertex -1.87884 2.5 1.0176
      vertex -5 2.5 2.5
      vertex -1.66054 2.5 1.12883
    endloop
  endfacet
  facet normal 0 1 -0
    outer loop
      vertex -2.08972 2.5 0.892879
      vertex -5 2.5 2.5
      vertex -1.87884 2.5 1.0176
    endloop
  endfacet
  facet normal 0 1 -0
    outer loop
      vertex -2.29236 2.5 0.755166
      vertex -5 2.5 2.5
      vertex -2.08972 2.5 0.892879
    endloop
  endfacet
  facet normal 0 1 -0
    outer loop
      vertex -2.48595 2.5 0.605001
      vertex -5 2.5 2.5
      vertex -2.29236 2.5 0.755166
    endloop
  endfacet
  facet normal 0 1 -0
    outer loop
      vertex -2.66973 2.5 0.442977
      vertex -5 2.5 2.5
      vertex -2.48595 2.5 0.605001
    endloop
  endfacet
  facet normal 0 1 -0
    outer loop
      vertex -2.84298 2.5 0.269733
      vertex -5 2.5 2.5
      vertex -2.66973 2.5 0.442977
    endloop
  endfacet
  facet normal 0 1 -0
    outer loop
      vertex -3.005 2.5 0.0859528
      vertex -5 2.5 2.5
      vertex -2.84298 2.5 0.269733
    endloop
  endfacet
  facet normal 0 1 -0
    outer loop
      vertex -3.15517 2.5 -0.107637
      vertex -5 2.5 2.5
      vertex -3.005 2.5 0.0859528
    endloop
  endfacet
  facet normal 0 1 -0
    outer loop
      vertex -3.29288 2.5 -0.310275
      vertex -5 2.5 2.5
      vertex -3.15517 2.5 -0.107637
    endloop
  endfacet
  facet normal 0 1 -0
    outer loop
      vertex -3.4176 2.5 -0.52116
      vertex -5 2.5 2.5
      vertex -3.29288 2.5 -0.310275
    endloop
  endfacet
  facet normal 0 1 -0
    outer loop
      vertex -3.52882 2.5 -0.73946
      vertex -5 2.5 2.5
      vertex -3.4176 2.5 -0.52116
    endloop
  endfacet
  facet normal 0 1 -0
    outer loop
      vertex -3.62613 2.5 -0.964314
      vertex -5 2.5 2.5
      vertex -3.52882 2.5 -0.73946
    endloop
  endfacet
  facet normal 0 1 0
    outer loop
      vertex -5 2.5 -2.5
      vertex -3.62613 2.5 -0.964314
      vertex -3.70912 2.5 -1.19483
    endloop
  endfacet
  facet normal 0 1 0
    outer loop
      vertex -5 2.5 -2.5
      vertex -3.70912 2.5 -1.19483
      vertex -3.77747 2.5 -1.43011
    endloop
  endfacet
  facet normal 0 1 0
    outer loop
      vertex -5 2.5 -2.5
      vertex -3.77747 2.5 -1.43011
      vertex -3.83092 2.5 -1.66921
    endloop
  endfacet
  facet normal 0 1 0
    outer loop
      vertex -5 2.5 -2.5
      vertex -3.83092 2.5 -1.66921
      vertex -3.86925 2.5 -1.9112
    endloop
  endfacet
  facet normal 0 1 0
    outer loop
      vertex -5 2.5 -2.5
      vertex -3.86925 2.5 -1.9112
      vertex -3.8923 2.5 -2.15512
    endloop
  endfacet
  facet normal 0 1 0
    outer loop
      vertex -5 2.5 -2.5
      vertex -3.8923 2.5 -2.15512
      vertex -3.9 2.5 -2.4
    endloop
  endfacet
  facet normal 0 1 0
    outer loop
      vertex -5 2.5 -2.5
      vertex -3.9 2.5 -2.4
      vertex -3.89686 2.5 -2.5
    endloop
  endfacet
  facet normal 0 1 0
    outer loop
      vertex -3.62613 2.5 -0.964314
      vertex -5 2.5 -2.5
      vertex -5 2.5 2.5
    endloop
  endfacet
  facet normal 0 0 -1
    outer loop
      vertex -5 -2.5 -2.5
      vertex -3.89686 2.5 -2.5
      vertex -3.89686 -2.5 -2.5
    endloop
  endfacet
  facet normal -0 0 -1
    outer loop
      vertex -3.89686 2.5 -2.5
      vertex -5 -2.5 -2.5
      vertex -5 2.5 -2.5
    endloop
  endfacet
  facet normal 0 0 -1
    outer loop
      vertex 3.89686 -2.5 -2.5
      vertex 5 2.5 -2.5
      vertex 5 -2.5 -2.5
    endloop
  endfacet
  facet normal -0 0 -1
    outer loop
      vertex 5 2.5 -2.5
      vertex 3.89686 -2.5 -2.5
      vertex 3.89686 2.5 -2.5
    endloop
  endfacet
  facet normal 0 -1 0
    outer loop
      vertex -5 -2.5 2.5
      vertex 0 -2.5 1.5
      vertex 5 -2.5 2.5
    endloop
  endfacet
  facet normal 0 -1 0
    outer loop
      vertex -5 -2.5 2.5
      vertex -0.244883 -2.5 1.4923
      vertex 0 -2.5 1.5
    endloop
  endfacet
  facet normal 0 -1 0
    outer loop
      vertex -5 -2.5 2.5
      vertex -0.488799 -2.5 1.46925
      vertex -0.244883 -2.5 1.4923
    endloop
  endfacet
  facet normal 0 -1 0
    outer loop
      vertex -5 -2.5 2.5
      vertex -0.730786 -2.5 1.43092
      vertex -0.488799 -2.5 1.46925
    endloop
  endfacet
  facet normal 0 -1 0
    outer loop
      vertex -5 -2.5 2.5
      vertex -0.96989 -2.5 1.37747
      vertex -0.730786 -2.5 1.43092
    endloop
  endfacet
  facet normal 0 -1 0
    outer loop
      vertex -5 -2.5 2.5
      vertex -1.20517 -2.5 1.30912
      vertex -0.96989 -2.5 1.37747
    endloop
  endfacet
  facet normal 0 -1 0
    outer loop
      vertex -5 -2.5 2.5
      vertex -1.43569 -2.5 1.22613
      vertex -1.20517 -2.5 1.30912
    endloop
  endfacet
  facet normal 0 -1 0
    outer loop
      vertex -5 -2.5 2.5
      vertex -1.66054 -2.5 1.12883
      vertex -1.43569 -2.5 1.22613
    endloop
  endfacet
  facet normal 0 -1 0
    outer loop
      vertex -5 -2.5 2.5
      vertex -1.87884 -2.5 1.0176
      vertex -1.66054 -2.5 1.12883
    endloop
  endfacet
  facet normal 0 -1 0
    outer loop
      vertex -5 -2.5 2.5
      vertex -2.08972 -2.5 0.892879
      vertex -1.87884 -2.5 1.0176
    endloop
  endfacet
  facet normal 0 -1 0
    outer loop
      vertex -5 -2.5 2.5
      vertex -2.29236 -2.5 0.755166
      vertex -2.08972 -2.5 0.892879
    endloop
  endfacet
  facet normal 0 -1 0
    outer loop
      vertex -5 -2.5 2.5
      vertex -2.48595 -2.5 0.605001
      vertex -2.29236 -2.5 0.755166
    endloop
  endfacet
  facet normal 0 -1 0
    outer loop
      vertex -5 -2.5 2.5
      vertex -2.66973 -2.5 0.442977
      vertex -2.48595 -2.5 0.605001
    endloop
  endfacet
  facet normal 0 -1 0
    outer loop
      vertex -5 -2.5 2.5
      vertex -2.84298 -2.5 0.269733
      vertex -2.66973 -2.5 0.442977
    endloop
  endfacet
  facet normal 0 -1 0
    outer loop
      vertex -5 -2.5 2.5
      vertex -3.005 -2.5 0.0859528
      vertex -2.84298 -2.5 0.269733
    endloop
  endfacet
  facet normal 0 -1 0
    outer loop
      vertex -5 -2.5 2.5
      vertex -3.15517 -2.5 -0.107637
      vertex -3.005 -2.5 0.0859528
    endloop
  endfacet
  facet normal 0 -1 0
    outer loop
      vertex -5 -2.5 2.5
      vertex -3.29288 -2.5 -0.310275
      vertex -3.15517 -2.5 -0.107637
    endloop
  endfacet
  facet normal 0 -1 0
    outer loop
      vertex -5 -2.5 2.5
      vertex -3.4176 -2.5 -0.52116
      vertex -3.29288 -2.5 -0.310275
    endloop
  endfacet
  facet normal 0 -1 0
    outer loop
      vertex -5 -2.5 2.5
      vertex -3.52882 -2.5 -0.73946
      vertex -3.4176 -2.5 -0.52116
    endloop
  endfacet
  facet normal 0 -1 0
    outer loop
      vertex -5 -2.5 2.5
      vertex -3.62613 -2.5 -0.964314
      vertex -3.52882 -2.5 -0.73946
    endloop
  endfacet
  facet normal 0 -1 0
    outer loop
      vertex -5 -2.5 -2.5
      vertex -3.62613 -2.5 -0.964314
      vertex -5 -2.5 2.5
    endloop
  endfacet
  facet normal 0 -1 0
    outer loop
      vertex -3.62613 -2.5 -0.964314
      vertex -5 -2.5 -2.5
      vertex -3.70912 -2.5 -1.19483
    endloop
  endfacet
  facet normal 0 -1 0
    outer loop
      vertex -3.70912 -2.5 -1.19483
      vertex -5 -2.5 -2.5
      vertex -3.77747 -2.5 -1.43011
    endloop
  endfacet
  facet normal 0 -1 0
    outer loop
      vertex -3.77747 -2.5 -1.43011
      vertex -5 -2.5 -2.5
      vertex -3.83092 -2.5 -1.66921
    endloop
  endfacet
  facet normal 0 -1 0
    outer loop
      vertex -3.83092 -2.5 -1.66921
      vertex -5 -2.5 -2.5
      vertex -3.86925 -2.5 -1.9112
    endloop
  endfacet
  facet normal 0 -1 0
    outer loop
      vertex -3.86925 -2.5 -1.9112
      vertex -5 -2.5 -2.5
      vertex -3.8923 -2.5 -2.15512
    endloop
  endfacet
  facet normal 0 -1 0
    outer loop
      vertex -3.8923 -2.5 -2.15512
      vertex -5 -2.5 -2.5
      vertex -3.9 -2.5 -2.4
    endloop
  endfacet
  facet normal 0 -1 -0
    outer loop
      vertex -3.9 -2.5 -2.4
      vertex -5 -2.5 -2.5
      vertex -3.89686 -2.5 -2.5
    endloop
  endfacet
  facet normal 0 -1 0
    outer loop
      vertex 0.244883 -2.5 1.4923
      vertex 5 -2.5 2.5
      vertex 0 -2.5 1.5
    endloop
  endfacet
  facet normal 0 -1 0
    outer loop
      vertex 0.488799 -2.5 1.46925
      vertex 5 -2.5 2.5
      vertex 0.244883 -2.5 1.4923
    endloop
  endfacet
  facet normal 0 -1 0
    outer loop
      vertex 0.730786 -2.5 1.43092
      vertex 5 -2.5 2.5
      vertex 0.488799 -2.5 1.46925
    endloop
  endfacet
  facet normal 0 -1 0
    outer loop
      vertex 0.96989 -2.5 1.37747
      vertex 5 -2.5 2.5
      vertex 0.730786 -2.5 1.43092
    endloop
  endfacet
  facet normal 0 -1 0
    outer loop
      vertex 1.20517 -2.5 1.30912
      vertex 5 -2.5 2.5
      vertex 0.96989 -2.5 1.37747
    endloop
  endfacet
  facet normal 0 -1 0
    outer loop
      vertex 1.43569 -2.5 1.22613
      vertex 5 -2.5 2.5
      vertex 1.20517 -2.5 1.30912
    endloop
  endfacet
  facet normal 0 -1 0
    outer loop
      vertex 1.66054 -2.5 1.12883
      vertex 5 -2.5 2.5
      vertex 1.43569 -2.5 1.22613
    endloop
  endfacet
  facet normal 0 -1 0
    outer loop
      vertex 1.87884 -2.5 1.0176
      vertex 5 -2.5 2.5
      vertex 1.66054 -2.5 1.12883
    endloop
  endfacet
  facet normal 0 -1 0
    outer loop
      vertex 2.08972 -2.5 0.892879
      vertex 5 -2.5 2.5
      vertex 1.87884 -2.5 1.0176
    endloop
  endfacet
  facet normal 0 -1 0
    outer loop
      vertex 2.29236 -2.5 0.755166
      vertex 5 -2.5 2.5
      vertex 2.08972 -2.5 0.892879
    endloop
  endfacet
  facet normal 0 -1 0
    outer loop
      vertex 2.48595 -2.5 0.605001
      vertex 5 -2.5 2.5
      vertex 2.29236 -2.5 0.755166
    endloop
  endfacet
  facet normal 0 -1 0
    outer loop
      vertex 2.66973 -2.5 0.442977
      vertex 5 -2.5 2.5
      vertex 2.48595 -2.5 0.605001
    endloop
  endfacet
  facet normal 0 -1 0
    outer loop
      vertex 2.84298 -2.5 0.269733
      vertex 5 -2.5 2.5
      vertex 2.66973 -2.5 0.442977
    endloop
  endfacet
  facet normal 0 -1 0
    outer loop
      vertex 3.005 -2.5 0.0859528
      vertex 5 -2.5 2.5
      vertex 2.84298 -2.5 0.269733
    endloop
  endfacet
  facet normal 0 -1 0
    outer loop
      vertex 3.15517 -2.5 -0.107637
      vertex 5 -2.5 2.5
      vertex 3.005 -2.5 0.0859528
    endloop
  endfacet
  facet normal 0 -1 0
    outer loop
      vertex 3.29288 -2.5 -0.310275
      vertex 5 -2.5 2.5
      vertex 3.15517 -2.5 -0.107637
    endloop
  endfacet
  facet normal 0 -1 0
    outer loop
      vertex 3.4176 -2.5 -0.52116
      vertex 5 -2.5 2.5
      vertex 3.29288 -2.5 -0.310275
    endloop
  endfacet
  facet normal 0 -1 0
    outer loop
      vertex 3.52882 -2.5 -0.73946
      vertex 5 -2.5 2.5
      vertex 3.4176 -2.5 -0.52116
    endloop
  endfacet
  facet normal 0 -1 0
    outer loop
      vertex 3.62613 -2.5 -0.964314
      vertex 5 -2.5 2.5
      vertex 3.52882 -2.5 -0.73946
    endloop
  endfacet
  facet normal 0 -1 0
    outer loop
      vertex 5 -2.5 -2.5
      vertex 3.62613 -2.5 -0.964314
      vertex 3.70912 -2.5 -1.19483
    endloop
  endfacet
  facet normal 0 -1 0
    outer loop
      vertex 5 -2.5 -2.5
      vertex 3.70912 -2.5 -1.19483
      vertex 3.77747 -2.5 -1.43011
    endloop
  endfacet
  facet normal 0 -1 0
    outer loop
      vertex 5 -2.5 -2.5
      vertex 3.77747 -2.5 -1.43011
      vertex 3.83092 -2.5 -1.66921
    endloop
  endfacet
  facet normal 0 -1 0
    outer loop
      vertex 5 -2.5 -2.5
      vertex 3.83092 -2.5 -1.66921
      vertex 3.86925 -2.5 -1.9112
    endloop
  endfacet
  facet normal 0 -1 0
    outer loop
      vertex 5 -2.5 -2.5
      vertex 3.86925 -2.5 -1.9112
      vertex 3.8923 -2.5 -2.15512
    endloop
  endfacet
  facet normal 0 -1 0
    outer loop
      vertex 5 -2.5 -2.5
      vertex 3.8923 -2.5 -2.15512
      vertex 3.9 -2.5 -2.4
    endloop
  endfacet
  facet normal 0 -1 0
    outer loop
      vertex 5 -2.5 -2.5
      vertex 3.9 -2.5 -2.4
      vertex 3.89686 -2.5 -2.5
    endloop
  endfacet
  facet normal 0 -1 0
    outer loop
      vertex 3.62613 -2.5 -0.964314
      vertex 5 -2.5 -2.5
      vertex 5 -2.5 2.5
    endloop
  endfacet
  facet normal -0.999506 0 -0.0314284
    outer loop
      vertex 3.9 -2.5 -2.4
      vertex 3.8923 2.5 -2.15512
      vertex 3.9 2.5 -2.4
    endloop
  endfacet
  facet normal -0.999506 -0 -0.0314284
    outer loop
      vertex 3.8923 2.5 -2.15512
      vertex 3.9 -2.5 -2.4
      vertex 3.8923 -2.5 -2.15512
    endloop
  endfacet
  facet normal -0.995565 0 -0.0940791
    outer loop
      vertex 3.8923 -2.5 -2.15512
      vertex 3.86925 2.5 -1.9112
      vertex 3.8923 2.5 -2.15512
    endloop
  endfacet
  facet normal -0.995565 -0 -0.0940791
    outer loop
      vertex 3.86925 2.5 -1.9112
      vertex 3.8923 -2.5 -2.15512
      vertex 3.86925 -2.5 -1.9112
    endloop
  endfacet
  facet normal 0.999506 0 -0.0314284
    outer loop
      vertex -3.8923 -2.5 -2.15512
      vertex -3.9 2.5 -2.4
      vertex -3.8923 2.5 -2.15512
    endloop
  endfacet
  facet normal 0.999506 0 -0.0314284
    outer loop
      vertex -3.9 2.5 -2.4
      vertex -3.8923 -2.5 -2.15512
      vertex -3.9 -2.5 -2.4
    endloop
  endfacet
  facet normal -0.0314281 0 -0.999506
    outer loop
      vertex 0 -2.5 1.5
      vertex 0.244883 2.5 1.4923
      vertex 0.244883 -2.5 1.4923
    endloop
  endfacet
  facet normal -0.0314281 0 -0.999506
    outer loop
      vertex 0.244883 2.5 1.4923
      vertex 0 -2.5 1.5
      vertex 0 2.5 1.5
    endloop
  endfacet
  facet normal -0.707095 0 -0.707119
    outer loop
      vertex 2.66973 -2.5 0.442977
      vertex 2.84298 2.5 0.269733
      vertex 2.84298 -2.5 0.269733
    endloop
  endfacet
  facet normal -0.707095 0 -0.707119
    outer loop
      vertex 2.84298 2.5 0.269733
      vertex 2.66973 -2.5 0.442977
      vertex 2.66973 2.5 0.442977
    endloop
  endfacet
  facet normal 0.707095 0 -0.707119
    outer loop
      vertex -2.84298 -2.5 0.269733
      vertex -2.66973 2.5 0.442977
      vertex -2.66973 -2.5 0.442977
    endloop
  endfacet
  facet normal 0.707095 0 -0.707119
    outer loop
      vertex -2.66973 2.5 0.442977
      vertex -2.84298 -2.5 0.269733
      vertex -2.84298 2.5 0.269733
    endloop
  endfacet
  facet normal -0.917744 0 -0.397172
    outer loop
      vertex 3.62613 -2.5 -0.964314
      vertex 3.52882 2.5 -0.73946
      vertex 3.62613 2.5 -0.964314
    endloop
  endfacet
  facet normal -0.917744 -0 -0.397172
    outer loop
      vertex 3.52882 2.5 -0.73946
      vertex 3.62613 -2.5 -0.964314
      vertex 3.52882 -2.5 -0.73946
    endloop
  endfacet
  facet normal -0.397143 0 -0.917757
    outer loop
      vertex 1.43569 -2.5 1.22613
      vertex 1.66054 2.5 1.12883
      vertex 1.66054 -2.5 1.12883
    endloop
  endfacet
  facet normal -0.397143 0 -0.917757
    outer loop
      vertex 1.66054 2.5 1.12883
      vertex 1.43569 -2.5 1.22613
      vertex 1.43569 2.5 1.22613
    endloop
  endfacet
  facet normal 0.827086 0 -0.562076
    outer loop
      vertex -3.15517 -2.5 -0.107637
      vertex -3.29288 2.5 -0.310275
      vertex -3.15517 2.5 -0.107637
    endloop
  endfacet
  facet normal 0.827086 0 -0.562076
    outer loop
      vertex -3.29288 2.5 -0.310275
      vertex -3.15517 -2.5 -0.107637
      vertex -3.29288 -2.5 -0.310275
    endloop
  endfacet
  facet normal -0.975913 0 -0.218162
    outer loop
      vertex 3.83092 -2.5 -1.66921
      vertex 3.77747 2.5 -1.43011
      vertex 3.83092 2.5 -1.66921
    endloop
  endfacet
  facet normal -0.975913 -0 -0.218162
    outer loop
      vertex 3.77747 2.5 -1.43011
      vertex 3.83092 -2.5 -1.66921
      vertex 3.77747 -2.5 -1.43011
    endloop
  endfacet
  facet normal -0.218158 0 -0.975913
    outer loop
      vertex 0.730786 -2.5 1.43092
      vertex 0.96989 2.5 1.37747
      vertex 0.96989 -2.5 1.37747
    endloop
  endfacet
  facet normal -0.218158 0 -0.975913
    outer loop
      vertex 0.96989 2.5 1.37747
      vertex 0.730786 -2.5 1.43092
      vertex 0.730786 2.5 1.43092
    endloop
  endfacet
  facet normal -0.661312 0 -0.750111
    outer loop
      vertex 2.48595 -2.5 0.605001
      vertex 2.66973 2.5 0.442977
      vertex 2.66973 -2.5 0.442977
    endloop
  endfacet
  facet normal -0.661312 0 -0.750111
    outer loop
      vertex 2.66973 2.5 0.442977
      vertex 2.48595 -2.5 0.605001
      vertex 2.48595 2.5 0.605001
    endloop
  endfacet
  facet normal 0.860737 0 -0.50905
    outer loop
      vertex -3.29288 -2.5 -0.310275
      vertex -3.4176 2.5 -0.52116
      vertex -3.29288 2.5 -0.310275
    endloop
  endfacet
  facet normal 0.860737 0 -0.50905
    outer loop
      vertex -3.4176 2.5 -0.52116
      vertex -3.29288 -2.5 -0.310275
      vertex -3.4176 -2.5 -0.52116
    endloop
  endfacet
  facet normal 0.975913 0 -0.218162
    outer loop
      vertex -3.77747 -2.5 -1.43011
      vertex -3.83092 2.5 -1.66921
      vertex -3.77747 2.5 -1.43011
    endloop
  endfacet
  facet normal 0.975913 0 -0.218162
    outer loop
      vertex -3.83092 2.5 -1.66921
      vertex -3.77747 -2.5 -1.43011
      vertex -3.83092 -2.5 -1.66921
    endloop
  endfacet
  facet normal 0.987687 0 -0.156445
    outer loop
      vertex -3.83092 -2.5 -1.66921
      vertex -3.86925 2.5 -1.9112
      vertex -3.83092 2.5 -1.66921
    endloop
  endfacet
  facet normal 0.987687 0 -0.156445
    outer loop
      vertex -3.86925 2.5 -1.9112
      vertex -3.83092 -2.5 -1.66921
      vertex -3.86925 -2.5 -1.9112
    endloop
  endfacet
  facet normal 0.562081 0 -0.827082
    outer loop
      vertex -2.29236 -2.5 0.755166
      vertex -2.08972 2.5 0.892879
      vertex -2.08972 -2.5 0.892879
    endloop
  endfacet
  facet normal 0.562081 0 -0.827082
    outer loop
      vertex -2.08972 2.5 0.892879
      vertex -2.29236 -2.5 0.755166
      vertex -2.29236 2.5 0.755166
    endloop
  endfacet
  facet normal 0.0940806 0 -0.995565
    outer loop
      vertex -0.488799 -2.5 1.46925
      vertex -0.244883 2.5 1.4923
      vertex -0.244883 -2.5 1.4923
    endloop
  endfacet
  facet normal 0.0940806 0 -0.995565
    outer loop
      vertex -0.244883 2.5 1.4923
      vertex -0.488799 -2.5 1.46925
      vertex -0.488799 2.5 1.46925
    endloop
  endfacet
  facet normal -0.987687 0 -0.156445
    outer loop
      vertex 3.86925 -2.5 -1.9112
      vertex 3.83092 2.5 -1.66921
      vertex 3.86925 2.5 -1.9112
    endloop
  endfacet
  facet normal -0.987687 -0 -0.156445
    outer loop
      vertex 3.83092 2.5 -1.66921
      vertex 3.86925 -2.5 -1.9112
      vertex 3.83092 -2.5 -1.66921
    endloop
  endfacet
  facet normal -0.750119 0 -0.661303
    outer loop
      vertex 3.005 -2.5 0.0859528
      vertex 2.84298 2.5 0.269733
      vertex 3.005 2.5 0.0859528
    endloop
  endfacet
  facet normal -0.750119 -0 -0.661303
    outer loop
      vertex 2.84298 2.5 0.269733
      vertex 3.005 -2.5 0.0859528
      vertex 2.84298 -2.5 0.269733
    endloop
  endfacet
  facet normal -0.827086 0 -0.562076
    outer loop
      vertex 3.29288 -2.5 -0.310275
      vertex 3.15517 2.5 -0.107637
      vertex 3.29288 2.5 -0.310275
    endloop
  endfacet
  facet normal -0.827086 -0 -0.562076
    outer loop
      vertex 3.15517 2.5 -0.107637
      vertex 3.29288 -2.5 -0.310275
      vertex 3.15517 -2.5 -0.107637
    endloop
  endfacet
  facet normal -0.891022 0 -0.45396
    outer loop
      vertex 3.52882 -2.5 -0.73946
      vertex 3.4176 2.5 -0.52116
      vertex 3.52882 2.5 -0.73946
    endloop
  endfacet
  facet normal -0.891022 -0 -0.45396
    outer loop
      vertex 3.4176 2.5 -0.52116
      vertex 3.52882 -2.5 -0.73946
      vertex 3.4176 -2.5 -0.52116
    endloop
  endfacet
  facet normal -0.156447 0 -0.987686
    outer loop
      vertex 0.488799 -2.5 1.46925
      vertex 0.730786 2.5 1.43092
      vertex 0.730786 -2.5 1.43092
    endloop
  endfacet
  facet normal -0.156447 0 -0.987686
    outer loop
      vertex 0.730786 2.5 1.43092
      vertex 0.488799 -2.5 1.46925
      vertex 0.488799 2.5 1.46925
    endloop
  endfacet
  facet normal -0.33873 0 -0.940884
    outer loop
      vertex 1.20517 -2.5 1.30912
      vertex 1.43569 2.5 1.22613
      vertex 1.43569 -2.5 1.22613
    endloop
  endfacet
  facet normal -0.33873 0 -0.940884
    outer loop
      vertex 1.43569 2.5 1.22613
      vertex 1.20517 -2.5 1.30912
      vertex 1.20517 2.5 1.30912
    endloop
  endfacet
  facet normal -0.509062 0 -0.86073
    outer loop
      vertex 1.87884 -2.5 1.0176
      vertex 2.08972 2.5 0.892879
      vertex 2.08972 -2.5 0.892879
    endloop
  endfacet
  facet normal -0.509062 0 -0.86073
    outer loop
      vertex 2.08972 2.5 0.892879
      vertex 1.87884 -2.5 1.0176
      vertex 1.87884 2.5 1.0176
    endloop
  endfacet
  facet normal -0.453992 0 -0.891006
    outer loop
      vertex 1.66054 -2.5 1.12883
      vertex 1.87884 2.5 1.0176
      vertex 1.87884 -2.5 1.0176
    endloop
  endfacet
  facet normal -0.453992 0 -0.891006
    outer loop
      vertex 1.87884 2.5 1.0176
      vertex 1.66054 -2.5 1.12883
      vertex 1.66054 2.5 1.12883
    endloop
  endfacet
  facet normal 0.790142 0 -0.612923
    outer loop
      vertex -3.005 -2.5 0.0859528
      vertex -3.15517 2.5 -0.107637
      vertex -3.005 2.5 0.0859528
    endloop
  endfacet
  facet normal 0.790142 0 -0.612923
    outer loop
      vertex -3.15517 2.5 -0.107637
      vertex -3.005 -2.5 0.0859528
      vertex -3.15517 -2.5 -0.107637
    endloop
  endfacet
  facet normal 0.917744 0 -0.397172
    outer loop
      vertex -3.52882 -2.5 -0.73946
      vertex -3.62613 2.5 -0.964314
      vertex -3.52882 2.5 -0.73946
    endloop
  endfacet
  facet normal 0.917744 0 -0.397172
    outer loop
      vertex -3.62613 2.5 -0.964314
      vertex -3.52882 -2.5 -0.73946
      vertex -3.62613 -2.5 -0.964314
    endloop
  endfacet
  facet normal 0.940882 0 -0.338735
    outer loop
      vertex -3.62613 -2.5 -0.964314
      vertex -3.70912 2.5 -1.19483
      vertex -3.62613 2.5 -0.964314
    endloop
  endfacet
  facet normal 0.940882 0 -0.338735
    outer loop
      vertex -3.70912 2.5 -1.19483
      vertex -3.62613 -2.5 -0.964314
      vertex -3.70912 -2.5 -1.19483
    endloop
  endfacet
  facet normal 0.995565 0 -0.0940791
    outer loop
      vertex -3.86925 -2.5 -1.9112
      vertex -3.8923 2.5 -2.15512
      vertex -3.86925 2.5 -1.9112
    endloop
  endfacet
  facet normal 0.995565 0 -0.0940791
    outer loop
      vertex -3.8923 2.5 -2.15512
      vertex -3.86925 -2.5 -1.9112
      vertex -3.8923 -2.5 -2.15512
    endloop
  endfacet
  facet normal 0.61291 0 -0.790153
    outer loop
      vertex -2.48595 -2.5 0.605001
      vertex -2.29236 2.5 0.755166
      vertex -2.29236 -2.5 0.755166
    endloop
  endfacet
  facet normal 0.61291 0 -0.790153
    outer loop
      vertex -2.29236 2.5 0.755166
      vertex -2.48595 -2.5 0.605001
      vertex -2.48595 2.5 0.605001
    endloop
  endfacet
  facet normal 0.509062 0 -0.86073
    outer loop
      vertex -2.08972 -2.5 0.892879
      vertex -1.87884 2.5 1.0176
      vertex -1.87884 -2.5 1.0176
    endloop
  endfacet
  facet normal 0.509062 0 -0.86073
    outer loop
      vertex -1.87884 2.5 1.0176
      vertex -2.08972 -2.5 0.892879
      vertex -2.08972 2.5 0.892879
    endloop
  endfacet
  facet normal 0.397143 0 -0.917757
    outer loop
      vertex -1.66054 -2.5 1.12883
      vertex -1.43569 2.5 1.22613
      vertex -1.43569 -2.5 1.22613
    endloop
  endfacet
  facet normal 0.397143 0 -0.917757
    outer loop
      vertex -1.43569 2.5 1.22613
      vertex -1.66054 -2.5 1.12883
      vertex -1.66054 2.5 1.12883
    endloop
  endfacet
  facet normal 0.278972 0 -0.960299
    outer loop
      vertex -1.20517 -2.5 1.30912
      vertex -0.96989 2.5 1.37747
      vertex -0.96989 -2.5 1.37747
    endloop
  endfacet
  facet normal 0.278972 0 -0.960299
    outer loop
      vertex -0.96989 2.5 1.37747
      vertex -1.20517 -2.5 1.30912
      vertex -1.20517 2.5 1.30912
    endloop
  endfacet
  facet normal 0.0314281 0 -0.999506
    outer loop
      vertex -0.244883 -2.5 1.4923
      vertex 0 2.5 1.5
      vertex 0 -2.5 1.5
    endloop
  endfacet
  facet normal 0.0314281 0 -0.999506
    outer loop
      vertex 0 2.5 1.5
      vertex -0.244883 -2.5 1.4923
      vertex -0.244883 2.5 1.4923
    endloop
  endfacet
  facet normal -0.999507 0 0.0313845
    outer loop
      vertex 3.89686 -2.5 -2.5
      vertex 3.9 2.5 -2.4
      vertex 3.89686 2.5 -2.5
    endloop
  endfacet
  facet normal -0.999507 0 0.0313845
    outer loop
      vertex 3.9 2.5 -2.4
      vertex 3.89686 -2.5 -2.5
      vertex 3.9 -2.5 -2.4
    endloop
  endfacet
  facet normal 0.999507 -0 0.0313845
    outer loop
      vertex -3.9 -2.5 -2.4
      vertex -3.89686 2.5 -2.5
      vertex -3.9 2.5 -2.4
    endloop
  endfacet
  facet normal 0.999507 0 0.0313845
    outer loop
      vertex -3.89686 2.5 -2.5
      vertex -3.9 -2.5 -2.4
      vertex -3.89686 -2.5 -2.5
    endloop
  endfacet
  facet normal -0.960299 0 -0.278972
    outer loop
      vertex 3.77747 -2.5 -1.43011
      vertex 3.70912 2.5 -1.19483
      vertex 3.77747 2.5 -1.43011
    endloop
  endfacet
  facet normal -0.960299 -0 -0.278972
    outer loop
      vertex 3.70912 2.5 -1.19483
      vertex 3.77747 -2.5 -1.43011
      vertex 3.70912 -2.5 -1.19483
    endloop
  endfacet
  facet normal -0.940882 0 -0.338735
    outer loop
      vertex 3.70912 -2.5 -1.19483
      vertex 3.62613 2.5 -0.964314
      vertex 3.70912 2.5 -1.19483
    endloop
  endfacet
  facet normal -0.940882 -0 -0.338735
    outer loop
      vertex 3.62613 2.5 -0.964314
      vertex 3.70912 -2.5 -1.19483
      vertex 3.62613 -2.5 -0.964314
    endloop
  endfacet
  facet normal -0.790142 0 -0.612923
    outer loop
      vertex 3.15517 -2.5 -0.107637
      vertex 3.005 2.5 0.0859528
      vertex 3.15517 2.5 -0.107637
    endloop
  endfacet
  facet normal -0.790142 -0 -0.612923
    outer loop
      vertex 3.005 2.5 0.0859528
      vertex 3.15517 -2.5 -0.107637
      vertex 3.005 -2.5 0.0859528
    endloop
  endfacet
  facet normal -0.860737 0 -0.50905
    outer loop
      vertex 3.4176 -2.5 -0.52116
      vertex 3.29288 2.5 -0.310275
      vertex 3.4176 2.5 -0.52116
    endloop
  endfacet
  facet normal -0.860737 -0 -0.50905
    outer loop
      vertex 3.29288 2.5 -0.310275
      vertex 3.4176 -2.5 -0.52116
      vertex 3.29288 -2.5 -0.310275
    endloop
  endfacet
  facet normal -0.278972 0 -0.960299
    outer loop
      vertex 0.96989 -2.5 1.37747
      vertex 1.20517 2.5 1.30912
      vertex 1.20517 -2.5 1.30912
    endloop
  endfacet
  facet normal -0.278972 0 -0.960299
    outer loop
      vertex 1.20517 2.5 1.30912
      vertex 0.96989 -2.5 1.37747
      vertex 0.96989 2.5 1.37747
    endloop
  endfacet
  facet normal -0.0940806 0 -0.995565
    outer loop
      vertex 0.244883 -2.5 1.4923
      vertex 0.488799 2.5 1.46925
      vertex 0.488799 -2.5 1.46925
    endloop
  endfacet
  facet normal -0.0940806 0 -0.995565
    outer loop
      vertex 0.488799 2.5 1.46925
      vertex 0.244883 -2.5 1.4923
      vertex 0.244883 2.5 1.4923
    endloop
  endfacet
  facet normal -0.61291 0 -0.790153
    outer loop
      vertex 2.29236 -2.5 0.755166
      vertex 2.48595 2.5 0.605001
      vertex 2.48595 -2.5 0.605001
    endloop
  endfacet
  facet normal -0.61291 0 -0.790153
    outer loop
      vertex 2.48595 2.5 0.605001
      vertex 2.29236 -2.5 0.755166
      vertex 2.29236 2.5 0.755166
    endloop
  endfacet
  facet normal -0.562081 0 -0.827082
    outer loop
      vertex 2.08972 -2.5 0.892879
      vertex 2.29236 2.5 0.755166
      vertex 2.29236 -2.5 0.755166
    endloop
  endfacet
  facet normal -0.562081 0 -0.827082
    outer loop
      vertex 2.29236 2.5 0.755166
      vertex 2.08972 -2.5 0.892879
      vertex 2.08972 2.5 0.892879
    endloop
  endfacet
  facet normal 0.750119 0 -0.661303
    outer loop
      vertex -2.84298 -2.5 0.269733
      vertex -3.005 2.5 0.0859528
      vertex -2.84298 2.5 0.269733
    endloop
  endfacet
  facet normal 0.750119 0 -0.661303
    outer loop
      vertex -3.005 2.5 0.0859528
      vertex -2.84298 -2.5 0.269733
      vertex -3.005 -2.5 0.0859528
    endloop
  endfacet
  facet normal 0.891022 0 -0.45396
    outer loop
      vertex -3.4176 -2.5 -0.52116
      vertex -3.52882 2.5 -0.73946
      vertex -3.4176 2.5 -0.52116
    endloop
  endfacet
  facet normal 0.891022 0 -0.45396
    outer loop
      vertex -3.52882 2.5 -0.73946
      vertex -3.4176 -2.5 -0.52116
      vertex -3.52882 -2.5 -0.73946
    endloop
  endfacet
  facet normal 0.960299 0 -0.278972
    outer loop
      vertex -3.70912 -2.5 -1.19483
      vertex -3.77747 2.5 -1.43011
      vertex -3.70912 2.5 -1.19483
    endloop
  endfacet
  facet normal 0.960299 0 -0.278972
    outer loop
      vertex -3.77747 2.5 -1.43011
      vertex -3.70912 -2.5 -1.19483
      vertex -3.77747 -2.5 -1.43011
    endloop
  endfacet
  facet normal 0.661312 0 -0.750111
    outer loop
      vertex -2.66973 -2.5 0.442977
      vertex -2.48595 2.5 0.605001
      vertex -2.48595 -2.5 0.605001
    endloop
  endfacet
  facet normal 0.661312 0 -0.750111
    outer loop
      vertex -2.48595 2.5 0.605001
      vertex -2.66973 -2.5 0.442977
      vertex -2.66973 2.5 0.442977
    endloop
  endfacet
  facet normal 0.453992 0 -0.891006
    outer loop
      vertex -1.87884 -2.5 1.0176
      vertex -1.66054 2.5 1.12883
      vertex -1.66054 -2.5 1.12883
    endloop
  endfacet
  facet normal 0.453992 0 -0.891006
    outer loop
      vertex -1.66054 2.5 1.12883
      vertex -1.87884 -2.5 1.0176
      vertex -1.87884 2.5 1.0176
    endloop
  endfacet
  facet normal 0.33873 0 -0.940884
    outer loop
      vertex -1.43569 -2.5 1.22613
      vertex -1.20517 2.5 1.30912
      vertex -1.20517 -2.5 1.30912
    endloop
  endfacet
  facet normal 0.33873 0 -0.940884
    outer loop
      vertex -1.20517 2.5 1.30912
      vertex -1.43569 -2.5 1.22613
      vertex -1.43569 2.5 1.22613
    endloop
  endfacet
  facet normal 0.156447 0 -0.987686
    outer loop
      vertex -0.730786 -2.5 1.43092
      vertex -0.488799 2.5 1.46925
      vertex -0.488799 -2.5 1.46925
    endloop
  endfacet
  facet normal 0.156447 0 -0.987686
    outer loop
      vertex -0.488799 2.5 1.46925
      vertex -0.730786 -2.5 1.43092
      vertex -0.730786 2.5 1.43092
    endloop
  endfacet
  facet normal 0.218158 0 -0.975913
    outer loop
      vertex -0.96989 -2.5 1.37747
      vertex -0.730786 2.5 1.43092
      vertex -0.730786 -2.5 1.43092
    endloop
  endfacet
  facet normal 0.218158 0 -0.975913
    outer loop
      vertex -0.730786 2.5 1.43092
      vertex -0.96989 -2.5 1.37747
      vertex -0.96989 2.5 1.37747
    endloop
  endfacet
endsolid OpenSCAD_Model
