solid OpenSCAD_Model
  facet normal -1 0 0
    outer loop
      vertex -5 -2.5 -2.5
      vertex -5 2.5 2.5
      vertex -5 2.5 -2.5
    endloop
  endfacet
  facet normal -1 -0 0
    outer loop
      vertex -5 2.5 2.5
      vertex -5 -2.5 -2.5
      vertex -5 -2.5 2.5
    endloop
  endfacet
  facet normal -0 0 1
    outer loop
      vertex -5 2.5 2.5
      vertex 5 -2.5 2.5
      vertex 5 2.5 2.5
    endloop
  endfacet
  facet normal 0 0 1
    outer loop
      vertex 5 -2.5 2.5
      vertex -5 2.5 2.5
      vertex -5 -2.5 2.5
    endloop
  endfacet
  facet normal 1 -0 0
    outer loop
      vertex 5 -2.5 2.5
      vertex 5 2.5 -2.5
      vertex 5 2.5 2.5
    endloop
  endfacet
  facet normal 1 0 0
    outer loop
      vertex 5 2.5 -2.5
      vertex 5 -2.5 2.5
      vertex 5 -2.5 -2.5
    endloop
  endfacet
  facet normal 0 0 -1
    outer loop
      vertex -5 -2.5 -2.5
      vertex -3.99371 2.5 -2.5
      vertex -3.99371 -2.5 -2.5
    endloop
  endfacet
  facet normal -0 0 -1
    outer loop
      vertex -3.99371 2.5 -2.5
      vertex -5 -2.5 -2.5
      vertex -5 2.5 -2.5
    endloop
  endfacet
  facet normal 0 0 -1
    outer loop
      vertex 3.99371 -2.5 -2.5
      vertex 5 2.5 -2.5
      vertex 5 -2.5 -2.5
    endloop
  endfacet
  facet normal -0 0 -1
    outer loop
      vertex 5 2.5 -2.5
      vertex 3.99371 -2.5 -2.5
      vertex 3.99371 2.5 -2.5
    endloop
  endfacet
  facet normal 0 -1 0
    outer loop
      vertex -5 -2.5 2.5
      vertex 0 -2.5 1.3
      vertex 5 -2.5 2.5
    endloop
  endfacet
  facet normal 0 -1 0
    outer loop
      vertex -5 -2.5 2.5
      vertex -0.251162 -2.5 1.29211
      vertex 0 -2.5 1.3
    endloop
  endfacet
  facet normal 0 -1 0
    outer loop
      vertex -5 -2.5 2.5
      vertex -0.501332 -2.5 1.26846
      vertex -0.251162 -2.5 1.29211
    endloop
  endfacet
  facet normal 0 -1 0
    outer loop
      vertex -5 -2.5 2.5
      vertex -0.749525 -2.5 1.22915
      vertex -0.501332 -2.5 1.26846
    endloop
  endfacet
  facet normal 0 -1 0
    outer loop
      vertex -5 -2.5 2.5
      vertex -0.994759 -2.5 1.17433
      vertex -0.749525 -2.5 1.22915
    endloop
  endfacet
  facet normal 0 -1 0
    outer loop
      vertex -5 -2.5 2.5
      vertex -1.23607 -2.5 1.10423
      vertex -0.994759 -2.5 1.17433
    endloop
  endfacet
  facet normal 0 -1 0
    outer loop
      vertex -5 -2.5 2.5
      vertex -1.4725 -2.5 1.01911
      vertex -1.23607 -2.5 1.10423
    endloop
  endfacet
  facet normal 0 -1 0
    outer loop
      vertex -5 -2.5 2.5
      vertex -1.70312 -2.5 0.919308
      vertex -1.4725 -2.5 1.01911
    endloop
  endfacet
  facet normal 0 -1 0
    outer loop
      vertex -5 -2.5 2.5
      vertex -1.92701 -2.5 0.805226
      vertex -1.70312 -2.5 0.919308
    endloop
  endfacet
  facet normal 0 -1 0
    outer loop
      vertex -5 -2.5 2.5
      vertex -2.14331 -2.5 0.677311
      vertex -1.92701 -2.5 0.805226
    endloop
  endfacet
  facet normal 0 -1 0
    outer loop
      vertex -5 -2.5 2.5
      vertex -2.35114 -2.5 0.536068
      vertex -2.14331 -2.5 0.677311
    endloop
  endfacet
  facet normal 0 -1 0
    outer loop
      vertex -5 -2.5 2.5
      vertex -2.5497 -2.5 0.382052
      vertex -2.35114 -2.5 0.536068
    endloop
  endfacet
  facet normal 0 -1 0
    outer loop
      vertex -5 -2.5 2.5
      vertex -2.73819 -2.5 0.215874
      vertex -2.5497 -2.5 0.382052
    endloop
  endfacet
  facet normal 0 -1 0
    outer loop
      vertex -5 -2.5 2.5
      vertex -2.91587 -2.5 0.038188
      vertex -2.73819 -2.5 0.215874
    endloop
  endfacet
  facet normal 0 -1 0
    outer loop
      vertex -5 -2.5 2.5
      vertex -3.08205 -2.5 -0.150304
      vertex -2.91587 -2.5 0.038188
    endloop
  endfacet
  facet normal 0 -1 0
    outer loop
      vertex -5 -2.5 2.5
      vertex -3.23607 -2.5 -0.348859
      vertex -3.08205 -2.5 -0.150304
    endloop
  endfacet
  facet normal 0 -1 0
    outer loop
      vertex -5 -2.5 2.5
      vertex -3.37731 -2.5 -0.556692
      vertex -3.23607 -2.5 -0.348859
    endloop
  endfacet
  facet normal 0 -1 0
    outer loop
      vertex -5 -2.5 2.5
      vertex -3.50523 -2.5 -0.772985
      vertex -3.37731 -2.5 -0.556692
    endloop
  endfacet
  facet normal 0 -1 0
    outer loop
      vertex -5 -2.5 2.5
      vertex -3.61931 -2.5 -0.996882
      vertex -3.50523 -2.5 -0.772985
    endloop
  endfacet
  facet normal 0 -1 0
    outer loop
      vertex -5 -2.5 2.5
      vertex -3.71911 -2.5 -1.2275
      vertex -3.61931 -2.5 -0.996882
    endloop
  endfacet
  facet normal 0 -1 0
    outer loop
      vertex -5 -2.5 -2.5
      vertex -3.71911 -2.5 -1.2275
      vertex -5 -2.5 2.5
    endloop
  endfacet
  facet normal 0 -1 0
    outer loop
      vertex -3.71911 -2.5 -1.2275
      vertex -5 -2.5 -2.5
      vertex -3.80423 -2.5 -1.46393
    endloop
  endfacet
  facet normal 0 -1 0
    outer loop
      vertex -3.80423 -2.5 -1.46393
      vertex -5 -2.5 -2.5
      vertex -3.87433 -2.5 -1.70524
    endloop
  endfacet
  facet normal 0 -1 0
    outer loop
      vertex -3.87433 -2.5 -1.70524
      vertex -5 -2.5 -2.5
      vertex -3.92915 -2.5 -1.95047
    endloop
  endfacet
  facet normal 0 -1 0
    outer loop
      vertex -3.92915 -2.5 -1.95047
      vertex -5 -2.5 -2.5
      vertex -3.96846 -2.5 -2.19867
    endloop
  endfacet
  facet normal 0 -1 0
    outer loop
      vertex -3.96846 -2.5 -2.19867
      vertex -5 -2.5 -2.5
      vertex -3.99211 -2.5 -2.44884
    endloop
  endfacet
  facet normal 0 -1 0
    outer loop
      vertex -3.99211 -2.5 -2.44884
      vertex -5 -2.5 -2.5
      vertex -3.99371 -2.5 -2.5
    endloop
  endfacet
  facet normal 0 -1 0
    outer loop
      vertex 0.251162 -2.5 1.29211
      vertex 5 -2.5 2.5
      vertex 0 -2.5 1.3
    endloop
  endfacet
  facet normal 0 -1 0
    outer loop
      vertex 0.501332 -2.5 1.26846
      vertex 5 -2.5 2.5
      vertex 0.251162 -2.5 1.29211
    endloop
  endfacet
  facet normal 0 -1 0
    outer loop
      vertex 0.749525 -2.5 1.22915
      vertex 5 -2.5 2.5
      vertex 0.501332 -2.5 1.26846
    endloop
  endfacet
  facet normal 0 -1 0
    outer loop
      vertex 0.994759 -2.5 1.17433
      vertex 5 -2.5 2.5
      vertex 0.749525 -2.5 1.22915
    endloop
  endfacet
  facet normal 0 -1 0
    outer loop
      vertex 1.23607 -2.5 1.10423
      vertex 5 -2.5 2.5
      vertex 0.994759 -2.5 1.17433
    endloop
  endfacet
  facet normal 0 -1 0
    outer loop
      vertex 1.4725 -2.5 1.01911
      vertex 5 -2.5 2.5
      vertex 1.23607 -2.5 1.10423
    endloop
  endfacet
  facet normal 0 -1 0
    outer loop
      vertex 1.70312 -2.5 0.919308
      vertex 5 -2.5 2.5
      vertex 1.4725 -2.5 1.01911
    endloop
  endfacet
  facet normal 0 -1 0
    outer loop
      vertex 1.92701 -2.5 0.805226
      vertex 5 -2.5 2.5
      vertex 1.70312 -2.5 0.919308
    endloop
  endfacet
  facet normal 0 -1 0
    outer loop
      vertex 2.14331 -2.5 0.677311
      vertex 5 -2.5 2.5
      vertex 1.92701 -2.5 0.805226
    endloop
  endfacet
  facet normal 0 -1 0
    outer loop
      vertex 2.35114 -2.5 0.536068
      vertex 5 -2.5 2.5
      vertex 2.14331 -2.5 0.677311
    endloop
  endfacet
  facet normal 0 -1 0
    outer loop
      vertex 2.5497 -2.5 0.382052
      vertex 5 -2.5 2.5
      vertex 2.35114 -2.5 0.536068
    endloop
  endfacet
  facet normal 0 -1 0
    outer loop
      vertex 2.73819 -2.5 0.215874
      vertex 5 -2.5 2.5
      vertex 2.5497 -2.5 0.382052
    endloop
  endfacet
  facet normal 0 -1 0
    outer loop
      vertex 2.91587 -2.5 0.038188
      vertex 5 -2.5 2.5
      vertex 2.73819 -2.5 0.215874
    endloop
  endfacet
  facet normal 0 -1 0
    outer loop
      vertex 3.08205 -2.5 -0.150304
      vertex 5 -2.5 2.5
      vertex 2.91587 -2.5 0.038188
    endloop
  endfacet
  facet normal 0 -1 0
    outer loop
      vertex 3.23607 -2.5 -0.348859
      vertex 5 -2.5 2.5
      vertex 3.08205 -2.5 -0.150304
    endloop
  endfacet
  facet normal 0 -1 0
    outer loop
      vertex 3.37731 -2.5 -0.556692
      vertex 5 -2.5 2.5
      vertex 3.23607 -2.5 -0.348859
    endloop
  endfacet
  facet normal 0 -1 0
    outer loop
      vertex 3.50523 -2.5 -0.772985
      vertex 5 -2.5 2.5
      vertex 3.37731 -2.5 -0.556692
    endloop
  endfacet
  facet normal 0 -1 0
    outer loop
      vertex 3.61931 -2.5 -0.996882
      vertex 5 -2.5 2.5
      vertex 3.50523 -2.5 -0.772985
    endloop
  endfacet
  facet normal 0 -1 0
    outer loop
      vertex 3.71911 -2.5 -1.2275
      vertex 5 -2.5 2.5
      vertex 3.61931 -2.5 -0.996882
    endloop
  endfacet
  facet normal 0 -1 0
    outer loop
      vertex 5 -2.5 -2.5
      vertex 3.71911 -2.5 -1.2275
      vertex 3.80423 -2.5 -1.46393
    endloop
  endfacet
  facet normal 0 -1 0
    outer loop
      vertex 5 -2.5 -2.5
      vertex 3.80423 -2.5 -1.46393
      vertex 3.87433 -2.5 -1.70524
    endloop
  endfacet
  facet normal 0 -1 0
    outer loop
      vertex 5 -2.5 -2.5
      vertex 3.87433 -2.5 -1.70524
      vertex 3.92915 -2.5 -1.95047
    endloop
  endfacet
  facet normal 0 -1 0
    outer loop
      vertex 5 -2.5 -2.5
      vertex 3.92915 -2.5 -1.95047
      vertex 3.96846 -2.5 -2.19867
    endloop
  endfacet
  facet normal 0 -1 0
    outer loop
      vertex 5 -2.5 -2.5
      vertex 3.96846 -2.5 -2.19867
      vertex 3.99211 -2.5 -2.44884
    endloop
  endfacet
  facet normal 0 -1 0
    outer loop
      vertex 5 -2.5 -2.5
      vertex 3.99211 -2.5 -2.44884
      vertex 3.99371 -2.5 -2.5
    endloop
  endfacet
  facet normal 0 -1 0
    outer loop
      vertex 3.71911 -2.5 -1.2275
      vertex 5 -2.5 -2.5
      vertex 5 -2.5 2.5
    endloop
  endfacet
  facet normal 0 1 0
    outer loop
      vertex 5 2.5 2.5
      vertex 0 2.5 1.3
      vertex -5 2.5 2.5
    endloop
  endfacet
  facet normal 0 1 0
    outer loop
      vertex 5 2.5 2.5
      vertex 0.251162 2.5 1.29211
      vertex 0 2.5 1.3
    endloop
  endfacet
  facet normal 0 1 0
    outer loop
      vertex 5 2.5 2.5
      vertex 0.501332 2.5 1.26846
      vertex 0.251162 2.5 1.29211
    endloop
  endfacet
  facet normal 0 1 0
    outer loop
      vertex 5 2.5 2.5
      vertex 0.749525 2.5 1.22915
      vertex 0.501332 2.5 1.26846
    endloop
  endfacet
  facet normal 0 1 0
    outer loop
      vertex 5 2.5 2.5
      vertex 0.994759 2.5 1.17433
      vertex 0.749525 2.5 1.22915
    endloop
  endfacet
  facet normal 0 1 0
    outer loop
      vertex 5 2.5 2.5
      vertex 1.23607 2.5 1.10423
      vertex 0.994759 2.5 1.17433
    endloop
  endfacet
  facet normal 0 1 0
    outer loop
      vertex 5 2.5 2.5
      vertex 1.4725 2.5 1.01911
      vertex 1.23607 2.5 1.10423
    endloop
  endfacet
  facet normal 0 1 0
    outer loop
      vertex 5 2.5 2.5
      vertex 1.70312 2.5 0.919308
      vertex 1.4725 2.5 1.01911
    endloop
  endfacet
  facet normal 0 1 0
    outer loop
      vertex 5 2.5 2.5
      vertex 1.92701 2.5 0.805226
      vertex 1.70312 2.5 0.919308
    endloop
  endfacet
  facet normal 0 1 0
    outer loop
      vertex 5 2.5 2.5
      vertex 2.14331 2.5 0.677311
      vertex 1.92701 2.5 0.805226
    endloop
  endfacet
  facet normal 0 1 0
    outer loop
      vertex 5 2.5 2.5
      vertex 2.35114 2.5 0.536068
      vertex 2.14331 2.5 0.677311
    endloop
  endfacet
  facet normal 0 1 0
    outer loop
      vertex 5 2.5 2.5
      vertex 2.5497 2.5 0.382052
      vertex 2.35114 2.5 0.536068
    endloop
  endfacet
  facet normal 0 1 0
    outer loop
      vertex 5 2.5 2.5
      vertex 2.73819 2.5 0.215874
      vertex 2.5497 2.5 0.382052
    endloop
  endfacet
  facet normal 0 1 0
    outer loop
      vertex 5 2.5 2.5
      vertex 2.91587 2.5 0.038188
      vertex 2.73819 2.5 0.215874
    endloop
  endfacet
  facet normal 0 1 0
    outer loop
      vertex 5 2.5 2.5
      vertex 3.08205 2.5 -0.150304
      vertex 2.91587 2.5 0.038188
    endloop
  endfacet
  facet normal 0 1 0
    outer loop
      vertex 5 2.5 2.5
      vertex 3.23607 2.5 -0.348859
      vertex 3.08205 2.5 -0.150304
    endloop
  endfacet
  facet normal 0 1 0
    outer loop
      vertex 5 2.5 2.5
      vertex 3.37731 2.5 -0.556692
      vertex 3.23607 2.5 -0.348859
    endloop
  endfacet
  facet normal 0 1 0
    outer loop
      vertex 5 2.5 2.5
      vertex 3.50523 2.5 -0.772985
      vertex 3.37731 2.5 -0.556692
    endloop
  endfacet
  facet normal 0 1 0
    outer loop
      vertex 5 2.5 2.5
      vertex 3.61931 2.5 -0.996882
      vertex 3.50523 2.5 -0.772985
    endloop
  endfacet
  facet normal 0 1 0
    outer loop
      vertex 5 2.5 2.5
      vertex 3.71911 2.5 -1.2275
      vertex 3.61931 2.5 -0.996882
    endloop
  endfacet
  facet normal 0 1 -0
    outer loop
      vertex 5 2.5 -2.5
      vertex 3.71911 2.5 -1.2275
      vertex 5 2.5 2.5
    endloop
  endfacet
  facet normal 0 1 0
    outer loop
      vertex 3.71911 2.5 -1.2275
      vertex 5 2.5 -2.5
      vertex 3.80423 2.5 -1.46393
    endloop
  endfacet
  facet normal 0 1 0
    outer loop
      vertex 3.80423 2.5 -1.46393
      vertex 5 2.5 -2.5
      vertex 3.87433 2.5 -1.70524
    endloop
  endfacet
  facet normal 0 1 0
    outer loop
      vertex 3.87433 2.5 -1.70524
      vertex 5 2.5 -2.5
      vertex 3.92915 2.5 -1.95047
    endloop
  endfacet
  facet normal 0 1 0
    outer loop
      vertex 3.92915 2.5 -1.95047
      vertex 5 2.5 -2.5
      vertex 3.96846 2.5 -2.19867
    endloop
  endfacet
  facet normal 0 1 0
    outer loop
      vertex 3.96846 2.5 -2.19867
      vertex 5 2.5 -2.5
      vertex 3.99211 2.5 -2.44884
    endloop
  endfacet
  facet normal 0 1 0
    outer loop
      vertex 3.99211 2.5 -2.44884
      vertex 5 2.5 -2.5
      vertex 3.99371 2.5 -2.5
    endloop
  endfacet
  facet normal 0 1 -0
    outer loop
      vertex -0.251162 2.5 1.29211
      vertex -5 2.5 2.5
      vertex 0 2.5 1.3
    endloop
  endfacet
  facet normal 0 1 -0
    outer loop
      vertex -0.501332 2.5 1.26846
      vertex -5 2.5 2.5
      vertex -0.251162 2.5 1.29211
    endloop
  endfacet
  facet normal 0 1 -0
    outer loop
      vertex -0.749525 2.5 1.22915
      vertex -5 2.5 2.5
      vertex -0.501332 2.5 1.26846
    endloop
  endfacet
  facet normal 0 1 -0
    outer loop
      vertex -0.994759 2.5 1.17433
      vertex -5 2.5 2.5
      vertex -0.749525 2.5 1.22915
    endloop
  endfacet
  facet normal 0 1 -0
    outer loop
      vertex -1.23607 2.5 1.10423
      vertex -5 2.5 2.5
      vertex -0.994759 2.5 1.17433
    endloop
  endfacet
  facet normal 0 1 -0
    outer loop
      vertex -1.4725 2.5 1.01911
      vertex -5 2.5 2.5
      vertex -1.23607 2.5 1.10423
    endloop
  endfacet
  facet normal 0 1 -0
    outer loop
      vertex -1.70312 2.5 0.919308
      vertex -5 2.5 2.5
      vertex -1.4725 2.5 1.01911
    endloop
  endfacet
  facet normal 0 1 -0
    outer loop
      vertex -1.92701 2.5 0.805226
      vertex -5 2.5 2.5
      vertex -1.70312 2.5 0.919308
    endloop
  endfacet
  facet normal 0 1 -0
    outer loop
      vertex -2.14331 2.5 0.677311
      vertex -5 2.5 2.5
      vertex -1.92701 2.5 0.805226
    endloop
  endfacet
  facet normal 0 1 -0
    outer loop
      vertex -2.35114 2.5 0.536068
      vertex -5 2.5 2.5
      vertex -2.14331 2.5 0.677311
    endloop
  endfacet
  facet normal 0 1 -0
    outer loop
      vertex -2.5497 2.5 0.382052
      vertex -5 2.5 2.5
      vertex -2.35114 2.5 0.536068
    endloop
  endfacet
  facet normal 0 1 -0
    outer loop
      vertex -2.73819 2.5 0.215874
      vertex -5 2.5 2.5
      vertex -2.5497 2.5 0.382052
    endloop
  endfacet
  facet normal 0 1 -0
    outer loop
      vertex -2.91587 2.5 0.038188
      vertex -5 2.5 2.5
      vertex -2.73819 2.5 0.215874
    endloop
  endfacet
  facet normal 0 1 -0
    outer loop
      vertex -3.08205 2.5 -0.150304
      vertex -5 2.5 2.5
      vertex -2.91587 2.5 0.038188
    endloop
  endfacet
  facet normal 0 1 -0
    outer loop
      vertex -3.23607 2.5 -0.348859
      vertex -5 2.5 2.5
      vertex -3.08205 2.5 -0.150304
    endloop
  endfacet
  facet normal 0 1 -0
    outer loop
      vertex -3.37731 2.5 -0.556692
      vertex -5 2.5 2.5
      vertex -3.23607 2.5 -0.348859
    endloop
  endfacet
  facet normal 0 1 -0
    outer loop
      vertex -3.50523 2.5 -0.772985
      vertex -5 2.5 2.5
      vertex -3.37731 2.5 -0.556692
    endloop
  endfacet
  facet normal 0 1 -0
    outer loop
      vertex -3.61931 2.5 -0.996882
      vertex -5 2.5 2.5
      vertex -3.50523 2.5 -0.772985
    endloop
  endfacet
  facet normal 0 1 -0
    outer loop
      vertex -3.71911 2.5 -1.2275
      vertex -5 2.5 2.5
      vertex -3.61931 2.5 -0.996882
    endloop
  endfacet
  facet normal 0 1 0
    outer loop
      vertex -5 2.5 -2.5
      vertex -3.71911 2.5 -1.2275
      vertex -3.80423 2.5 -1.46393
    endloop
  endfacet
  facet normal 0 1 0
    outer loop
      vertex -5 2.5 -2.5
      vertex -3.80423 2.5 -1.46393
      vertex -3.87433 2.5 -1.70524
    endloop
  endfacet
  facet normal 0 1 0
    outer loop
      vertex -5 2.5 -2.5
      vertex -3.87433 2.5 -1.70524
      vertex -3.92915 2.5 -1.95047
    endloop
  endfacet
  facet normal 0 1 0
    outer loop
      vertex -5 2.5 -2.5
      vertex -3.92915 2.5 -1.95047
      vertex -3.96846 2.5 -2.19867
    endloop
  endfacet
  facet normal 0 1 0
    outer loop
      vertex -5 2.5 -2.5
      vertex -3.96846 2.5 -2.19867
      vertex -3.99211 2.5 -2.44884
    endloop
  endfacet
  facet normal 0 1 0
    outer loop
      vertex -5 2.5 -2.5
      vertex -3.99211 2.5 -2.44884
      vertex -3.99371 2.5 -2.5
    endloop
  endfacet
  facet normal 0 1 0
    outer loop
      vertex -3.71911 2.5 -1.2275
      vertex -5 2.5 -2.5
      vertex -5 2.5 2.5
    endloop
  endfacet
  facet normal -0.999511 0 -0.0312591
    outer loop
      vertex 3.99371 -2.5 -2.5
      vertex 3.99211 2.5 -2.44884
      vertex 3.99371 2.5 -2.5
    endloop
  endfacet
  facet normal -0.999511 -0 -0.0312591
    outer loop
      vertex 3.99211 2.5 -2.44884
      vertex 3.99371 -2.5 -2.5
      vertex 3.99211 -2.5 -2.44884
    endloop
  endfacet
  facet normal -0.995561 0 -0.0941161
    outer loop
      vertex 3.99211 -2.5 -2.44884
      vertex 3.96846 2.5 -2.19867
      vertex 3.99211 2.5 -2.44884
    endloop
  endfacet
  facet normal -0.995561 -0 -0.0941161
    outer loop
      vertex 3.96846 2.5 -2.19867
      vertex 3.99211 -2.5 -2.44884
      vertex 3.96846 -2.5 -2.19867
    endloop
  endfacet
  facet normal 0.999511 0 -0.0312591
    outer loop
      vertex -3.99211 -2.5 -2.44884
      vertex -3.99371 2.5 -2.5
      vertex -3.99211 2.5 -2.44884
    endloop
  endfacet
  facet normal 0.999511 0 -0.0312591
    outer loop
      vertex -3.99371 2.5 -2.5
      vertex -3.99211 -2.5 -2.44884
      vertex -3.99371 -2.5 -2.5
    endloop
  endfacet
  facet normal 0.0313985 0 -0.999507
    outer loop
      vertex -0.251162 -2.5 1.29211
      vertex 0 2.5 1.3
      vertex 0 -2.5 1.3
    endloop
  endfacet
  facet normal 0.0313985 0 -0.999507
    outer loop
      vertex 0 2.5 1.3
      vertex -0.251162 -2.5 1.29211
      vertex -0.251162 2.5 1.29211
    endloop
  endfacet
  facet normal -0.707119 0 -0.707095
    outer loop
      vertex 2.73819 -2.5 0.215874
      vertex 2.91587 2.5 0.038188
      vertex 2.91587 -2.5 0.038188
    endloop
  endfacet
  facet normal -0.707119 0 -0.707095
    outer loop
      vertex 2.91587 2.5 0.038188
      vertex 2.73819 -2.5 0.215874
      vertex 2.73819 2.5 0.215874
    endloop
  endfacet
  facet normal 0.707119 0 -0.707095
    outer loop
      vertex -2.91587 -2.5 0.038188
      vertex -2.73819 2.5 0.215874
      vertex -2.73819 -2.5 0.215874
    endloop
  endfacet
  facet normal 0.707119 0 -0.707095
    outer loop
      vertex -2.73819 2.5 0.215874
      vertex -2.91587 -2.5 0.038188
      vertex -2.91587 2.5 0.038188
    endloop
  endfacet
  facet normal 0.397161 0 -0.917749
    outer loop
      vertex -1.70312 -2.5 0.919308
      vertex -1.4725 2.5 1.01911
      vertex -1.4725 -2.5 1.01911
    endloop
  endfacet
  facet normal 0.397161 0 -0.917749
    outer loop
      vertex -1.4725 2.5 1.01911
      vertex -1.70312 -2.5 0.919308
      vertex -1.70312 2.5 0.919308
    endloop
  endfacet
  facet normal -0.917751 0 -0.397157
    outer loop
      vertex 3.71911 -2.5 -1.2275
      vertex 3.61931 2.5 -0.996882
      vertex 3.71911 2.5 -1.2275
    endloop
  endfacet
  facet normal -0.917751 -0 -0.397157
    outer loop
      vertex 3.61931 2.5 -0.996882
      vertex 3.71911 -2.5 -1.2275
      vertex 3.61931 -2.5 -0.996882
    endloop
  endfacet
  facet normal 0.827086 0 -0.562075
    outer loop
      vertex -3.23607 -2.5 -0.348859
      vertex -3.37731 2.5 -0.556692
      vertex -3.23607 2.5 -0.348859
    endloop
  endfacet
  facet normal 0.827086 0 -0.562075
    outer loop
      vertex -3.37731 2.5 -0.556692
      vertex -3.23607 -2.5 -0.348859
      vertex -3.37731 -2.5 -0.556692
    endloop
  endfacet
  facet normal 0.218157 0 -0.975914
    outer loop
      vertex -0.994759 -2.5 1.17433
      vertex -0.749525 2.5 1.22915
      vertex -0.749525 -2.5 1.22915
    endloop
  endfacet
  facet normal 0.218157 0 -0.975914
    outer loop
      vertex -0.749525 2.5 1.22915
      vertex -0.994759 -2.5 1.17433
      vertex -0.994759 2.5 1.17433
    endloop
  endfacet
  facet normal -0.975913 0 -0.218161
    outer loop
      vertex 3.92915 -2.5 -1.95047
      vertex 3.87433 2.5 -1.70524
      vertex 3.92915 2.5 -1.95047
    endloop
  endfacet
  facet normal -0.975913 -0 -0.218161
    outer loop
      vertex 3.87433 2.5 -1.70524
      vertex 3.92915 -2.5 -1.95047
      vertex 3.87433 -2.5 -1.70524
    endloop
  endfacet
  facet normal -0.891008 0 -0.453987
    outer loop
      vertex 3.61931 -2.5 -0.996882
      vertex 3.50523 2.5 -0.772985
      vertex 3.61931 2.5 -0.996882
    endloop
  endfacet
  facet normal -0.891008 -0 -0.453987
    outer loop
      vertex 3.50523 2.5 -0.772985
      vertex 3.61931 -2.5 -0.996882
      vertex 3.50523 -2.5 -0.772985
    endloop
  endfacet
  facet normal -0.750107 0 -0.661316
    outer loop
      vertex 3.08205 -2.5 -0.150304
      vertex 2.91587 2.5 0.038188
      vertex 3.08205 2.5 -0.150304
    endloop
  endfacet
  facet normal -0.750107 -0 -0.661316
    outer loop
      vertex 2.91587 2.5 0.038188
      vertex 3.08205 -2.5 -0.150304
      vertex 2.91587 -2.5 0.038188
    endloop
  endfacet
  facet normal -0.218157 0 -0.975914
    outer loop
      vertex 0.749525 -2.5 1.22915
      vertex 0.994759 2.5 1.17433
      vertex 0.994759 -2.5 1.17433
    endloop
  endfacet
  facet normal -0.218157 0 -0.975914
    outer loop
      vertex 0.994759 2.5 1.17433
      vertex 0.749525 -2.5 1.22915
      vertex 0.749525 2.5 1.22915
    endloop
  endfacet
  facet normal -0.156435 0 -0.987688
    outer loop
      vertex 0.501332 -2.5 1.26846
      vertex 0.749525 2.5 1.22915
      vertex 0.749525 -2.5 1.22915
    endloop
  endfacet
  facet normal -0.156435 0 -0.987688
    outer loop
      vertex 0.749525 2.5 1.22915
      vertex 0.501332 -2.5 1.26846
      vertex 0.501332 2.5 1.26846
    endloop
  endfacet
  facet normal 0.860734 0 -0.509055
    outer loop
      vertex -3.37731 -2.5 -0.556692
      vertex -3.50523 2.5 -0.772985
      vertex -3.37731 2.5 -0.556692
    endloop
  endfacet
  facet normal 0.860734 0 -0.509055
    outer loop
      vertex -3.50523 2.5 -0.772985
      vertex -3.37731 -2.5 -0.556692
      vertex -3.50523 -2.5 -0.772985
    endloop
  endfacet
  facet normal 0.975913 0 -0.218161
    outer loop
      vertex -3.87433 -2.5 -1.70524
      vertex -3.92915 2.5 -1.95047
      vertex -3.87433 2.5 -1.70524
    endloop
  endfacet
  facet normal 0.975913 0 -0.218161
    outer loop
      vertex -3.92915 2.5 -1.95047
      vertex -3.87433 -2.5 -1.70524
      vertex -3.92915 -2.5 -1.95047
    endloop
  endfacet
  facet normal 0.987689 0 -0.156431
    outer loop
      vertex -3.92915 -2.5 -1.95047
      vertex -3.96846 2.5 -2.19867
      vertex -3.92915 2.5 -1.95047
    endloop
  endfacet
  facet normal 0.987689 0 -0.156431
    outer loop
      vertex -3.96846 2.5 -2.19867
      vertex -3.92915 -2.5 -1.95047
      vertex -3.96846 -2.5 -2.19867
    endloop
  endfacet
  facet normal 0.562088 0 -0.827077
    outer loop
      vertex -2.35114 -2.5 0.536068
      vertex -2.14331 2.5 0.677311
      vertex -2.14331 -2.5 0.677311
    endloop
  endfacet
  facet normal 0.562088 0 -0.827077
    outer loop
      vertex -2.14331 2.5 0.677311
      vertex -2.35114 -2.5 0.536068
      vertex -2.35114 2.5 0.536068
    endloop
  endfacet
  facet normal 0.661316 0 -0.750108
    outer loop
      vertex -2.73819 -2.5 0.215874
      vertex -2.5497 2.5 0.382052
      vertex -2.5497 -2.5 0.382052
    endloop
  endfacet
  facet normal 0.661316 0 -0.750108
    outer loop
      vertex -2.5497 2.5 0.382052
      vertex -2.73819 -2.5 0.215874
      vertex -2.73819 2.5 0.215874
    endloop
  endfacet
  facet normal 0.156435 0 -0.987688
    outer loop
      vertex -0.749525 -2.5 1.22915
      vertex -0.501332 2.5 1.26846
      vertex -0.501332 -2.5 1.26846
    endloop
  endfacet
  facet normal 0.156435 0 -0.987688
    outer loop
      vertex -0.501332 2.5 1.26846
      vertex -0.749525 -2.5 1.22915
      vertex -0.749525 2.5 1.22915
    endloop
  endfacet
  facet normal -0.987689 0 -0.156431
    outer loop
      vertex 3.96846 -2.5 -2.19867
      vertex 3.92915 2.5 -1.95047
      vertex 3.96846 2.5 -2.19867
    endloop
  endfacet
  facet normal -0.987689 -0 -0.156431
    outer loop
      vertex 3.92915 2.5 -1.95047
      vertex 3.96846 -2.5 -2.19867
      vertex 3.92915 -2.5 -1.95047
    endloop
  endfacet
  facet normal -0.940881 0 -0.338738
    outer loop
      vertex 3.80423 -2.5 -1.46393
      vertex 3.71911 2.5 -1.2275
      vertex 3.80423 2.5 -1.46393
    endloop
  endfacet
  facet normal -0.940881 -0 -0.338738
    outer loop
      vertex 3.71911 2.5 -1.2275
      vertex 3.80423 -2.5 -1.46393
      vertex 3.71911 -2.5 -1.2275
    endloop
  endfacet
  facet normal -0.960301 0 -0.278965
    outer loop
      vertex 3.87433 -2.5 -1.70524
      vertex 3.80423 2.5 -1.46393
      vertex 3.87433 2.5 -1.70524
    endloop
  endfacet
  facet normal -0.960301 -0 -0.278965
    outer loop
      vertex 3.80423 2.5 -1.46393
      vertex 3.87433 -2.5 -1.70524
      vertex 3.80423 -2.5 -1.46393
    endloop
  endfacet
  facet normal -0.790145 0 -0.612919
    outer loop
      vertex 3.23607 -2.5 -0.348859
      vertex 3.08205 2.5 -0.150304
      vertex 3.23607 2.5 -0.348859
    endloop
  endfacet
  facet normal -0.790145 -0 -0.612919
    outer loop
      vertex 3.08205 2.5 -0.150304
      vertex 3.23607 -2.5 -0.348859
      vertex 3.08205 -2.5 -0.150304
    endloop
  endfacet
  facet normal -0.0941161 0 -0.995561
    outer loop
      vertex 0.251162 -2.5 1.29211
      vertex 0.501332 2.5 1.26846
      vertex 0.501332 -2.5 1.26846
    endloop
  endfacet
  facet normal -0.0941161 0 -0.995561
    outer loop
      vertex 0.501332 2.5 1.26846
      vertex 0.251162 -2.5 1.29211
      vertex 0.251162 2.5 1.29211
    endloop
  endfacet
  facet normal -0.278964 0 -0.960301
    outer loop
      vertex 0.994759 -2.5 1.17433
      vertex 1.23607 2.5 1.10423
      vertex 1.23607 -2.5 1.10423
    endloop
  endfacet
  facet normal -0.278964 0 -0.960301
    outer loop
      vertex 1.23607 2.5 1.10423
      vertex 0.994759 -2.5 1.17433
      vertex 0.994759 2.5 1.17433
    endloop
  endfacet
  facet normal -0.397161 0 -0.917749
    outer loop
      vertex 1.4725 -2.5 1.01911
      vertex 1.70312 2.5 0.919308
      vertex 1.70312 -2.5 0.919308
    endloop
  endfacet
  facet normal -0.397161 0 -0.917749
    outer loop
      vertex 1.70312 2.5 0.919308
      vertex 1.4725 -2.5 1.01911
      vertex 1.4725 2.5 1.01911
    endloop
  endfacet
  facet normal -0.509028 0 -0.86075
    outer loop
      vertex 1.92701 -2.5 0.805226
      vertex 2.14331 2.5 0.677311
      vertex 2.14331 -2.5 0.677311
    endloop
  endfacet
  facet normal -0.509028 0 -0.86075
    outer loop
      vertex 2.14331 2.5 0.677311
      vertex 1.92701 -2.5 0.805226
      vertex 1.92701 2.5 0.805226
    endloop
  endfacet
  facet normal -0.562088 0 -0.827077
    outer loop
      vertex 2.14331 -2.5 0.677311
      vertex 2.35114 2.5 0.536068
      vertex 2.35114 -2.5 0.536068
    endloop
  endfacet
  facet normal -0.562088 0 -0.827077
    outer loop
      vertex 2.35114 2.5 0.536068
      vertex 2.14331 -2.5 0.677311
      vertex 2.14331 2.5 0.677311
    endloop
  endfacet
  facet normal 0.790145 0 -0.612919
    outer loop
      vertex -3.08205 -2.5 -0.150304
      vertex -3.23607 2.5 -0.348859
      vertex -3.08205 2.5 -0.150304
    endloop
  endfacet
  facet normal 0.790145 0 -0.612919
    outer loop
      vertex -3.23607 2.5 -0.348859
      vertex -3.08205 -2.5 -0.150304
      vertex -3.23607 -2.5 -0.348859
    endloop
  endfacet
  facet normal 0.917751 0 -0.397157
    outer loop
      vertex -3.61931 -2.5 -0.996882
      vertex -3.71911 2.5 -1.2275
      vertex -3.61931 2.5 -0.996882
    endloop
  endfacet
  facet normal 0.917751 0 -0.397157
    outer loop
      vertex -3.71911 2.5 -1.2275
      vertex -3.61931 -2.5 -0.996882
      vertex -3.71911 -2.5 -1.2275
    endloop
  endfacet
  facet normal 0.940881 0 -0.338738
    outer loop
      vertex -3.71911 -2.5 -1.2275
      vertex -3.80423 2.5 -1.46393
      vertex -3.71911 2.5 -1.2275
    endloop
  endfacet
  facet normal 0.940881 0 -0.338738
    outer loop
      vertex -3.80423 2.5 -1.46393
      vertex -3.71911 -2.5 -1.2275
      vertex -3.80423 -2.5 -1.46393
    endloop
  endfacet
  facet normal 0.995561 0 -0.0941161
    outer loop
      vertex -3.96846 -2.5 -2.19867
      vertex -3.99211 2.5 -2.44884
      vertex -3.96846 2.5 -2.19867
    endloop
  endfacet
  facet normal 0.995561 0 -0.0941161
    outer loop
      vertex -3.99211 2.5 -2.44884
      vertex -3.96846 -2.5 -2.19867
      vertex -3.99211 -2.5 -2.44884
    endloop
  endfacet
  facet normal 0.6129 0 -0.790161
    outer loop
      vertex -2.5497 -2.5 0.382052
      vertex -2.35114 2.5 0.536068
      vertex -2.35114 -2.5 0.536068
    endloop
  endfacet
  facet normal 0.6129 0 -0.790161
    outer loop
      vertex -2.35114 2.5 0.536068
      vertex -2.5497 -2.5 0.382052
      vertex -2.5497 2.5 0.382052
    endloop
  endfacet
  facet normal 0.454004 0 -0.891
    outer loop
      vertex -1.92701 -2.5 0.805226
      vertex -1.70312 2.5 0.919308
      vertex -1.70312 -2.5 0.919308
    endloop
  endfacet
  facet normal 0.454004 0 -0.891
    outer loop
      vertex -1.70312 2.5 0.919308
      vertex -1.92701 -2.5 0.805226
      vertex -1.92701 2.5 0.805226
    endloop
  endfacet
  facet normal 0.278964 0 -0.960301
    outer loop
      vertex -1.23607 -2.5 1.10423
      vertex -0.994759 2.5 1.17433
      vertex -0.994759 -2.5 1.17433
    endloop
  endfacet
  facet normal 0.278964 0 -0.960301
    outer loop
      vertex -0.994759 2.5 1.17433
      vertex -1.23607 -2.5 1.10423
      vertex -1.23607 2.5 1.10423
    endloop
  endfacet
  facet normal 0.338738 0 -0.940881
    outer loop
      vertex -1.4725 -2.5 1.01911
      vertex -1.23607 2.5 1.10423
      vertex -1.23607 -2.5 1.10423
    endloop
  endfacet
  facet normal 0.338738 0 -0.940881
    outer loop
      vertex -1.23607 2.5 1.10423
      vertex -1.4725 -2.5 1.01911
      vertex -1.4725 2.5 1.01911
    endloop
  endfacet
  facet normal 0.0941161 0 -0.995561
    outer loop
      vertex -0.501332 -2.5 1.26846
      vertex -0.251162 2.5 1.29211
      vertex -0.251162 -2.5 1.29211
    endloop
  endfacet
  facet normal 0.0941161 0 -0.995561
    outer loop
      vertex -0.251162 2.5 1.29211
      vertex -0.501332 -2.5 1.26846
      vertex -0.501332 2.5 1.26846
    endloop
  endfacet
  facet normal -0.860734 0 -0.509055
    outer loop
      vertex 3.50523 -2.5 -0.772985
      vertex 3.37731 2.5 -0.556692
      vertex 3.50523 2.5 -0.772985
    endloop
  endfacet
  facet normal -0.860734 -0 -0.509055
    outer loop
      vertex 3.37731 2.5 -0.556692
      vertex 3.50523 -2.5 -0.772985
      vertex 3.37731 -2.5 -0.556692
    endloop
  endfacet
  facet normal -0.827086 0 -0.562075
    outer loop
      vertex 3.37731 -2.5 -0.556692
      vertex 3.23607 2.5 -0.348859
      vertex 3.37731 2.5 -0.556692
    endloop
  endfacet
  facet normal -0.827086 -0 -0.562075
    outer loop
      vertex 3.23607 2.5 -0.348859
      vertex 3.37731 -2.5 -0.556692
      vertex 3.23607 -2.5 -0.348859
    endloop
  endfacet
  facet normal -0.338738 0 -0.940881
    outer loop
      vertex 1.23607 -2.5 1.10423
      vertex 1.4725 2.5 1.01911
      vertex 1.4725 -2.5 1.01911
    endloop
  endfacet
  facet normal -0.338738 0 -0.940881
    outer loop
      vertex 1.4725 2.5 1.01911
      vertex 1.23607 -2.5 1.10423
      vertex 1.23607 2.5 1.10423
    endloop
  endfacet
  facet normal -0.0313985 0 -0.999507
    outer loop
      vertex 0 -2.5 1.3
      vertex 0.251162 2.5 1.29211
      vertex 0.251162 -2.5 1.29211
    endloop
  endfacet
  facet normal -0.0313985 0 -0.999507
    outer loop
      vertex 0.251162 2.5 1.29211
      vertex 0 -2.5 1.3
      vertex 0 2.5 1.3
    endloop
  endfacet
  facet normal -0.454004 0 -0.891
    outer loop
      vertex 1.70312 -2.5 0.919308
      vertex 1.92701 2.5 0.805226
      vertex 1.92701 -2.5 0.805226
    endloop
  endfacet
  facet normal -0.454004 0 -0.891
    outer loop
      vertex 1.92701 2.5 0.805226
      vertex 1.70312 -2.5 0.919308
      vertex 1.70312 2.5 0.919308
    endloop
  endfacet
  facet normal -0.661316 0 -0.750108
    outer loop
      vertex 2.5497 -2.5 0.382052
      vertex 2.73819 2.5 0.215874
      vertex 2.73819 -2.5 0.215874
    endloop
  endfacet
  facet normal -0.661316 0 -0.750108
    outer loop
      vertex 2.73819 2.5 0.215874
      vertex 2.5497 -2.5 0.382052
      vertex 2.5497 2.5 0.382052
    endloop
  endfacet
  facet normal -0.6129 0 -0.790161
    outer loop
      vertex 2.35114 -2.5 0.536068
      vertex 2.5497 2.5 0.382052
      vertex 2.5497 -2.5 0.382052
    endloop
  endfacet
  facet normal -0.6129 0 -0.790161
    outer loop
      vertex 2.5497 2.5 0.382052
      vertex 2.35114 -2.5 0.536068
      vertex 2.35114 2.5 0.536068
    endloop
  endfacet
  facet normal 0.750107 0 -0.661316
    outer loop
      vertex -2.91587 -2.5 0.038188
      vertex -3.08205 2.5 -0.150304
      vertex -2.91587 2.5 0.038188
    endloop
  endfacet
  facet normal 0.750107 0 -0.661316
    outer loop
      vertex -3.08205 2.5 -0.150304
      vertex -2.91587 -2.5 0.038188
      vertex -3.08205 -2.5 -0.150304
    endloop
  endfacet
  facet normal 0.891008 0 -0.453987
    outer loop
      vertex -3.50523 -2.5 -0.772985
      vertex -3.61931 2.5 -0.996882
      vertex -3.50523 2.5 -0.772985
    endloop
  endfacet
  facet normal 0.891008 0 -0.453987
    outer loop
      vertex -3.61931 2.5 -0.996882
      vertex -3.50523 -2.5 -0.772985
      vertex -3.61931 -2.5 -0.996882
    endloop
  endfacet
  facet normal 0.960301 0 -0.278965
    outer loop
      vertex -3.80423 -2.5 -1.46393
      vertex -3.87433 2.5 -1.70524
      vertex -3.80423 2.5 -1.46393
    endloop
  endfacet
  facet normal 0.960301 0 -0.278965
    outer loop
      vertex -3.87433 2.5 -1.70524
      vertex -3.80423 -2.5 -1.46393
      vertex -3.87433 -2.5 -1.70524
    endloop
  endfacet
  facet normal 0.509028 0 -0.86075
    outer loop
      vertex -2.14331 -2.5 0.677311
      vertex -1.92701 2.5 0.805226
      vertex -1.92701 -2.5 0.805226
    endloop
  endfacet
  facet normal 0.509028 0 -0.86075
    outer loop
      vertex -1.92701 2.5 0.805226
      vertex -2.14331 -2.5 0.677311
      vertex -2.14331 2.5 0.677311
    endloop
  endfacet
endsolid OpenSCAD_Model
