solid OpenSCAD_Model
  facet normal -1 0 0
    outer loop
      vertex -5 -2.5 -2.5
      vertex -5 2.5 2.5
      vertex -5 2.5 -2.5
    endloop
  endfacet
  facet normal -1 -0 0
    outer loop
      vertex -5 2.5 2.5
      vertex -5 -2.5 -2.5
      vertex -5 -2.5 2.5
    endloop
  endfacet
  facet normal -0 0 1
    outer loop
      vertex -5 2.5 2.5
      vertex 5 -2.5 2.5
      vertex 5 2.5 2.5
    endloop
  endfacet
  facet normal 0 0 1
    outer loop
      vertex 5 -2.5 2.5
      vertex -5 2.5 2.5
      vertex -5 -2.5 2.5
    endloop
  endfacet
  facet normal 1 -0 0
    outer loop
      vertex 5 -2.5 2.5
      vertex 5 2.5 -2.5
      vertex 5 2.5 2.5
    endloop
  endfacet
  facet normal 1 0 0
    outer loop
      vertex 5 2.5 -2.5
      vertex 5 -2.5 2.5
      vertex 5 -2.5 -2.5
    endloop
  endfacet
  facet normal 0 0 -1
    outer loop
      vertex -5 -2.5 -2.5
      vertex -3.99371 2.5 -2.5
      vertex -3.99371 -2.5 -2.5
    endloop
  endfacet
  facet normal -0 0 -1
    outer loop
      vertex -3.99371 2.5 -2.5
      vertex -5 -2.5 -2.5
      vertex -5 2.5 -2.5
    endloop
  endfacet
  facet normal 0 0 -1
    outer loop
      vertex 3.99371 -2.5 -2.5
      vertex 5 2.5 -2.5
      vertex 5 -2.5 -2.5
    endloop
  endfacet
  facet normal -0 0 -1
    outer loop
      vertex 5 2.5 -2.5
      vertex 3.99371 -2.5 -2.5
      vertex 3.99371 2.5 -2.5
    endloop
  endfacet
  facet normal 0 -1 0
    outer loop
      vertex -5 -2.5 2.5
      vertex 0 -2.5 1.7
      vertex 5 -2.5 2.5
    endloop
  endfacet
  facet normal 0 -1 0
    outer loop
      vertex -5 -2.5 2.5
      vertex -0.251162 -2.5 1.69211
      vertex 0 -2.5 1.7
    endloop
  endfacet
  facet normal 0 -1 0
    outer loop
      vertex -5 -2.5 2.5
      vertex -0.501332 -2.5 1.66846
      vertex -0.251162 -2.5 1.69211
    endloop
  endfacet
  facet normal 0 -1 0
    outer loop
      vertex -5 -2.5 2.5
      vertex -0.749525 -2.5 1.62915
      vertex -0.501332 -2.5 1.66846
    endloop
  endfacet
  facet normal 0 -1 0
    outer loop
      vertex -5 -2.5 2.5
      vertex -0.994759 -2.5 1.57433
      vertex -0.749525 -2.5 1.62915
    endloop
  endfacet
  facet normal 0 -1 0
    outer loop
      vertex -5 -2.5 2.5
      vertex -1.23607 -2.5 1.50423
      vertex -0.994759 -2.5 1.57433
    endloop
  endfacet
  facet normal 0 -1 0
    outer loop
      vertex -5 -2.5 2.5
      vertex -1.4725 -2.5 1.41911
      vertex -1.23607 -2.5 1.50423
    endloop
  endfacet
  facet normal 0 -1 0
    outer loop
      vertex -5 -2.5 2.5
      vertex -1.70312 -2.5 1.31931
      vertex -1.4725 -2.5 1.41911
    endloop
  endfacet
  facet normal 0 -1 0
    outer loop
      vertex -5 -2.5 2.5
      vertex -1.92701 -2.5 1.20523
      vertex -1.70312 -2.5 1.31931
    endloop
  endfacet
  facet normal 0 -1 0
    outer loop
      vertex -5 -2.5 2.5
      vertex -2.14331 -2.5 1.07731
      vertex -1.92701 -2.5 1.20523
    endloop
  endfacet
  facet normal 0 -1 0
    outer loop
      vertex -5 -2.5 2.5
      vertex -2.35114 -2.5 0.936068
      vertex -2.14331 -2.5 1.07731
    endloop
  endfacet
  facet normal 0 -1 0
    outer loop
      vertex -5 -2.5 2.5
      vertex -2.5497 -2.5 0.782052
      vertex -2.35114 -2.5 0.936068
    endloop
  endfacet
  facet normal 0 -1 0
    outer loop
      vertex -5 -2.5 2.5
      vertex -2.73819 -2.5 0.615874
      vertex -2.5497 -2.5 0.782052
    endloop
  endfacet
  facet normal 0 -1 0
    outer loop
      vertex -5 -2.5 2.5
      vertex -2.91587 -2.5 0.438188
      vertex -2.73819 -2.5 0.615874
    endloop
  endfacet
  facet normal 0 -1 0
    outer loop
      vertex -5 -2.5 2.5
      vertex -3.08205 -2.5 0.249696
      vertex -2.91587 -2.5 0.438188
    endloop
  endfacet
  facet normal 0 -1 0
    outer loop
      vertex -5 -2.5 2.5
      vertex -3.23607 -2.5 0.0511408
      vertex -3.08205 -2.5 0.249696
    endloop
  endfacet
  facet normal 0 -1 0
    outer loop
      vertex -5 -2.5 2.5
      vertex -3.37731 -2.5 -0.156693
      vertex -3.23607 -2.5 0.0511408
    endloop
  endfacet
  facet normal 0 -1 0
    outer loop
      vertex -5 -2.5 2.5
      vertex -3.50523 -2.5 -0.372985
      vertex -3.37731 -2.5 -0.156693
    endloop
  endfacet
  facet normal 0 -1 0
    outer loop
      vertex -5 -2.5 2.5
      vertex -3.61931 -2.5 -0.596883
      vertex -3.50523 -2.5 -0.372985
    endloop
  endfacet
  facet normal 0 -1 0
    outer loop
      vertex -5 -2.5 2.5
      vertex -3.71911 -2.5 -0.827501
      vertex -3.61931 -2.5 -0.596883
    endloop
  endfacet
  facet normal 0 -1 0
    outer loop
      vertex -5 -2.5 2.5
      vertex -3.80423 -2.5 -1.06393
      vertex -3.71911 -2.5 -0.827501
    endloop
  endfacet
  facet normal 0 -1 0
    outer loop
      vertex -5 -2.5 -2.5
      vertex -3.80423 -2.5 -1.06393
      vertex -5 -2.5 2.5
    endloop
  endfacet
  facet normal 0 -1 0
    outer loop
      vertex -3.80423 -2.5 -1.06393
      vertex -5 -2.5 -2.5
      vertex -3.87433 -2.5 -1.30524
    endloop
  endfacet
  facet normal 0 -1 0
    outer loop
      vertex -3.87433 -2.5 -1.30524
      vertex -5 -2.5 -2.5
      vertex -3.92915 -2.5 -1.55047
    endloop
  endfacet
  facet normal 0 -1 0
    outer loop
      vertex -3.92915 -2.5 -1.55047
      vertex -5 -2.5 -2.5
      vertex -3.96846 -2.5 -1.79867
    endloop
  endfacet
  facet normal 0 -1 0
    outer loop
      vertex -3.96846 -2.5 -1.79867
      vertex -5 -2.5 -2.5
      vertex -3.99211 -2.5 -2.04884
    endloop
  endfacet
  facet normal 0 -1 0
    outer loop
      vertex -3.99211 -2.5 -2.04884
      vertex -5 -2.5 -2.5
      vertex -4 -2.5 -2.3
    endloop
  endfacet
  facet normal 0 -1 -0
    outer loop
      vertex -4 -2.5 -2.3
      vertex -5 -2.5 -2.5
      vertex -3.99371 -2.5 -2.5
    endloop
  endfacet
  facet normal 0 -1 0
    outer loop
      vertex 0.251162 -2.5 1.69211
      vertex 5 -2.5 2.5
      vertex 0 -2.5 1.7
    endloop
  endfacet
  facet normal 0 -1 0
    outer loop
      vertex 0.501332 -2.5 1.66846
      vertex 5 -2.5 2.5
      vertex 0.251162 -2.5 1.69211
    endloop
  endfacet
  facet normal 0 -1 0
    outer loop
      vertex 0.749525 -2.5 1.62915
      vertex 5 -2.5 2.5
      vertex 0.501332 -2.5 1.66846
    endloop
  endfacet
  facet normal 0 -1 0
    outer loop
      vertex 0.994759 -2.5 1.57433
      vertex 5 -2.5 2.5
      vertex 0.749525 -2.5 1.62915
    endloop
  endfacet
  facet normal 0 -1 0
    outer loop
      vertex 1.23607 -2.5 1.50423
      vertex 5 -2.5 2.5
      vertex 0.994759 -2.5 1.57433
    endloop
  endfacet
  facet normal 0 -1 0
    outer loop
      vertex 1.4725 -2.5 1.41911
      vertex 5 -2.5 2.5
      vertex 1.23607 -2.5 1.50423
    endloop
  endfacet
  facet normal 0 -1 0
    outer loop
      vertex 1.70312 -2.5 1.31931
      vertex 5 -2.5 2.5
      vertex 1.4725 -2.5 1.41911
    endloop
  endfacet
  facet normal 0 -1 0
    outer loop
      vertex 1.92701 -2.5 1.20523
      vertex 5 -2.5 2.5
      vertex 1.70312 -2.5 1.31931
    endloop
  endfacet
  facet normal 0 -1 0
    outer loop
      vertex 2.14331 -2.5 1.07731
      vertex 5 -2.5 2.5
      vertex 1.92701 -2.5 1.20523
    endloop
  endfacet
  facet normal 0 -1 0
    outer loop
      vertex 2.35114 -2.5 0.936068
      vertex 5 -2.5 2.5
      vertex 2.14331 -2.5 1.07731
    endloop
  endfacet
  facet normal 0 -1 0
    outer loop
      vertex 2.5497 -2.5 0.782052
      vertex 5 -2.5 2.5
      vertex 2.35114 -2.5 0.936068
    endloop
  endfacet
  facet normal 0 -1 0
    outer loop
      vertex 2.73819 -2.5 0.615874
      vertex 5 -2.5 2.5
      vertex 2.5497 -2.5 0.782052
    endloop
  endfacet
  facet normal 0 -1 0
    outer loop
      vertex 2.91587 -2.5 0.438188
      vertex 5 -2.5 2.5
      vertex 2.73819 -2.5 0.615874
    endloop
  endfacet
  facet normal 0 -1 0
    outer loop
      vertex 3.08205 -2.5 0.249696
      vertex 5 -2.5 2.5
      vertex 2.91587 -2.5 0.438188
    endloop
  endfacet
  facet normal 0 -1 0
    outer loop
      vertex 3.23607 -2.5 0.0511408
      vertex 5 -2.5 2.5
      vertex 3.08205 -2.5 0.249696
    endloop
  endfacet
  facet normal 0 -1 0
    outer loop
      vertex 3.37731 -2.5 -0.156693
      vertex 5 -2.5 2.5
      vertex 3.23607 -2.5 0.0511408
    endloop
  endfacet
  facet normal 0 -1 0
    outer loop
      vertex 3.50523 -2.5 -0.372985
      vertex 5 -2.5 2.5
      vertex 3.37731 -2.5 -0.156693
    endloop
  endfacet
  facet normal 0 -1 0
    outer loop
      vertex 3.61931 -2.5 -0.596883
      vertex 5 -2.5 2.5
      vertex 3.50523 -2.5 -0.372985
    endloop
  endfacet
  facet normal 0 -1 0
    outer loop
      vertex 3.71911 -2.5 -0.827501
      vertex 5 -2.5 2.5
      vertex 3.61931 -2.5 -0.596883
    endloop
  endfacet
  facet normal 0 -1 0
    outer loop
      vertex 3.80423 -2.5 -1.06393
      vertex 5 -2.5 2.5
      vertex 3.71911 -2.5 -0.827501
    endloop
  endfacet
  facet normal 0 -1 0
    outer loop
      vertex 5 -2.5 -2.5
      vertex 3.80423 -2.5 -1.06393
      vertex 3.87433 -2.5 -1.30524
    endloop
  endfacet
  facet normal 0 -1 0
    outer loop
      vertex 5 -2.5 -2.5
      vertex 3.87433 -2.5 -1.30524
      vertex 3.92915 -2.5 -1.55047
    endloop
  endfacet
  facet normal 0 -1 0
    outer loop
      vertex 5 -2.5 -2.5
      vertex 3.92915 -2.5 -1.55047
      vertex 3.96846 -2.5 -1.79867
    endloop
  endfacet
  facet normal 0 -1 0
    outer loop
      vertex 5 -2.5 -2.5
      vertex 3.96846 -2.5 -1.79867
      vertex 3.99211 -2.5 -2.04884
    endloop
  endfacet
  facet normal 0 -1 0
    outer loop
      vertex 5 -2.5 -2.5
      vertex 3.99211 -2.5 -2.04884
      vertex 4 -2.5 -2.3
    endloop
  endfacet
  facet normal 0 -1 0
    outer loop
      vertex 5 -2.5 -2.5
      vertex 4 -2.5 -2.3
      vertex 3.99371 -2.5 -2.5
    endloop
  endfacet
  facet normal 0 -1 0
    outer loop
      vertex 3.80423 -2.5 -1.06393
      vertex 5 -2.5 -2.5
      vertex 5 -2.5 2.5
    endloop
  endfacet
  facet normal 0 1 0
    outer loop
      vertex 5 2.5 2.5
      vertex 0 2.5 1.7
      vertex -5 2.5 2.5
    endloop
  endfacet
  facet normal 0 1 0
    outer loop
      vertex 5 2.5 2.5
      vertex 0.251162 2.5 1.69211
      vertex 0 2.5 1.7
    endloop
  endfacet
  facet normal 0 1 0
    outer loop
      vertex 5 2.5 2.5
      vertex 0.501332 2.5 1.66846
      vertex 0.251162 2.5 1.69211
    endloop
  endfacet
  facet normal 0 1 0
    outer loop
      vertex 5 2.5 2.5
      vertex 0.749525 2.5 1.62915
      vertex 0.501332 2.5 1.66846
    endloop
  endfacet
  facet normal 0 1 0
    outer loop
      vertex 5 2.5 2.5
      vertex 0.994759 2.5 1.57433
      vertex 0.749525 2.5 1.62915
    endloop
  endfacet
  facet normal 0 1 0
    outer loop
      vertex 5 2.5 2.5
      vertex 1.23607 2.5 1.50423
      vertex 0.994759 2.5 1.57433
    endloop
  endfacet
  facet normal 0 1 0
    outer loop
      vertex 5 2.5 2.5
      vertex 1.4725 2.5 1.41911
      vertex 1.23607 2.5 1.50423
    endloop
  endfacet
  facet normal 0 1 0
    outer loop
      vertex 5 2.5 2.5
      vertex 1.70312 2.5 1.31931
      vertex 1.4725 2.5 1.41911
    endloop
  endfacet
  facet normal 0 1 0
    outer loop
      vertex 5 2.5 2.5
      vertex 1.92701 2.5 1.20523
      vertex 1.70312 2.5 1.31931
    endloop
  endfacet
  facet normal 0 1 0
    outer loop
      vertex 5 2.5 2.5
      vertex 2.14331 2.5 1.07731
      vertex 1.92701 2.5 1.20523
    endloop
  endfacet
  facet normal 0 1 0
    outer loop
      vertex 5 2.5 2.5
      vertex 2.35114 2.5 0.936068
      vertex 2.14331 2.5 1.07731
    endloop
  endfacet
  facet normal 0 1 0
    outer loop
      vertex 5 2.5 2.5
      vertex 2.5497 2.5 0.782052
      vertex 2.35114 2.5 0.936068
    endloop
  endfacet
  facet normal 0 1 0
    outer loop
      vertex 5 2.5 2.5
      vertex 2.73819 2.5 0.615874
      vertex 2.5497 2.5 0.782052
    endloop
  endfacet
  facet normal 0 1 0
    outer loop
      vertex 5 2.5 2.5
      vertex 2.91587 2.5 0.438188
      vertex 2.73819 2.5 0.615874
    endloop
  endfacet
  facet normal 0 1 0
    outer loop
      vertex 5 2.5 2.5
      vertex 3.08205 2.5 0.249696
      vertex 2.91587 2.5 0.438188
    endloop
  endfacet
  facet normal 0 1 0
    outer loop
      vertex 5 2.5 2.5
      vertex 3.23607 2.5 0.0511408
      vertex 3.08205 2.5 0.249696
    endloop
  endfacet
  facet normal 0 1 0
    outer loop
      vertex 5 2.5 2.5
      vertex 3.37731 2.5 -0.156693
      vertex 3.23607 2.5 0.0511408
    endloop
  endfacet
  facet normal 0 1 0
    outer loop
      vertex 5 2.5 2.5
      vertex 3.50523 2.5 -0.372985
      vertex 3.37731 2.5 -0.156693
    endloop
  endfacet
  facet normal 0 1 0
    outer loop
      vertex 5 2.5 2.5
      vertex 3.61931 2.5 -0.596883
      vertex 3.50523 2.5 -0.372985
    endloop
  endfacet
  facet normal 0 1 0
    outer loop
      vertex 5 2.5 2.5
      vertex 3.71911 2.5 -0.827501
      vertex 3.61931 2.5 -0.596883
    endloop
  endfacet
  facet normal 0 1 0
    outer loop
      vertex 5 2.5 2.5
      vertex 3.80423 2.5 -1.06393
      vertex 3.71911 2.5 -0.827501
    endloop
  endfacet
  facet normal 0 1 -0
    outer loop
      vertex 5 2.5 -2.5
      vertex 3.80423 2.5 -1.06393
      vertex 5 2.5 2.5
    endloop
  endfacet
  facet normal 0 1 0
    outer loop
      vertex 3.80423 2.5 -1.06393
      vertex 5 2.5 -2.5
      vertex 3.87433 2.5 -1.30524
    endloop
  endfacet
  facet normal 0 1 0
    outer loop
      vertex 3.87433 2.5 -1.30524
      vertex 5 2.5 -2.5
      vertex 3.92915 2.5 -1.55047
    endloop
  endfacet
  facet normal 0 1 0
    outer loop
      vertex 3.92915 2.5 -1.55047
      vertex 5 2.5 -2.5
      vertex 3.96846 2.5 -1.79867
    endloop
  endfacet
  facet normal 0 1 0
    outer loop
      vertex 3.96846 2.5 -1.79867
      vertex 5 2.5 -2.5
      vertex 3.99211 2.5 -2.04884
    endloop
  endfacet
  facet normal 0 1 0
    outer loop
      vertex 3.99211 2.5 -2.04884
      vertex 5 2.5 -2.5
      vertex 4 2.5 -2.3
    endloop
  endfacet
  facet normal 0 1 0
    outer loop
      vertex 4 2.5 -2.3
      vertex 5 2.5 -2.5
      vertex 3.99371 2.5 -2.5
    endloop
  endfacet
  facet normal 0 1 -0
    outer loop
      vertex -0.251162 2.5 1.69211
      vertex -5 2.5 2.5
      vertex 0 2.5 1.7
    endloop
  endfacet
  facet normal 0 1 -0
    outer loop
      vertex -0.501332 2.5 1.66846
      vertex -5 2.5 2.5
      vertex -0.251162 2.5 1.69211
    endloop
  endfacet
  facet normal 0 1 -0
    outer loop
      vertex -0.749525 2.5 1.62915
      vertex -5 2.5 2.5
      vertex -0.501332 2.5 1.66846
    endloop
  endfacet
  facet normal 0 1 -0
    outer loop
      vertex -0.994759 2.5 1.57433
      vertex -5 2.5 2.5
      vertex -0.749525 2.5 1.62915
    endloop
  endfacet
  facet normal 0 1 -0
    outer loop
      vertex -1.23607 2.5 1.50423
      vertex -5 2.5 2.5
      vertex -0.994759 2.5 1.57433
    endloop
  endfacet
  facet normal 0 1 -0
    outer loop
      vertex -1.4725 2.5 1.41911
      vertex -5 2.5 2.5
      vertex -1.23607 2.5 1.50423
    endloop
  endfacet
  facet normal 0 1 -0
    outer loop
      vertex -1.70312 2.5 1.31931
      vertex -5 2.5 2.5
      vertex -1.4725 2.5 1.41911
    endloop
  endfacet
  facet normal 0 1 -0
    outer loop
      vertex -1.92701 2.5 1.20523
      vertex -5 2.5 2.5
      vertex -1.70312 2.5 1.31931
    endloop
  endfacet
  facet normal 0 1 -0
    outer loop
      vertex -2.14331 2.5 1.07731
      vertex -5 2.5 2.5
      vertex -1.92701 2.5 1.20523
    endloop
  endfacet
  facet normal 0 1 -0
    outer loop
      vertex -2.35114 2.5 0.936068
      vertex -5 2.5 2.5
      vertex -2.14331 2.5 1.07731
    endloop
  endfacet
  facet normal 0 1 -0
    outer loop
      vertex -2.5497 2.5 0.782052
      vertex -5 2.5 2.5
      vertex -2.35114 2.5 0.936068
    endloop
  endfacet
  facet normal 0 1 -0
    outer loop
      vertex -2.73819 2.5 0.615874
      vertex -5 2.5 2.5
      vertex -2.5497 2.5 0.782052
    endloop
  endfacet
  facet normal 0 1 -0
    outer loop
      vertex -2.91587 2.5 0.438188
      vertex -5 2.5 2.5
      vertex -2.73819 2.5 0.615874
    endloop
  endfacet
  facet normal 0 1 -0
    outer loop
      vertex -3.08205 2.5 0.249696
      vertex -5 2.5 2.5
      vertex -2.91587 2.5 0.438188
    endloop
  endfacet
  facet normal 0 1 -0
    outer loop
      vertex -3.23607 2.5 0.0511408
      vertex -5 2.5 2.5
      vertex -3.08205 2.5 0.249696
    endloop
  endfacet
  facet normal 0 1 -0
    outer loop
      vertex -3.37731 2.5 -0.156693
      vertex -5 2.5 2.5
      vertex -3.23607 2.5 0.0511408
    endloop
  endfacet
  facet normal 0 1 -0
    outer loop
      vertex -3.50523 2.5 -0.372985
      vertex -5 2.5 2.5
      vertex -3.37731 2.5 -0.156693
    endloop
  endfacet
  facet normal 0 1 -0
    outer loop
      vertex -3.61931 2.5 -0.596883
      vertex -5 2.5 2.5
      vertex -3.50523 2.5 -0.372985
    endloop
  endfacet
  facet normal 0 1 -0
    outer loop
      vertex -3.71911 2.5 -0.827501
      vertex -5 2.5 2.5
      vertex -3.61931 2.5 -0.596883
    endloop
  endfacet
  facet normal 0 1 -0
    outer loop
      vertex -3.80423 2.5 -1.06393
      vertex -5 2.5 2.5
      vertex -3.71911 2.5 -0.827501
    endloop
  endfacet
  facet normal 0 1 0
    outer loop
      vertex -5 2.5 -2.5
      vertex -3.80423 2.5 -1.06393
      vertex -3.87433 2.5 -1.30524
    endloop
  endfacet
  facet normal 0 1 0
    outer loop
      vertex -5 2.5 -2.5
      vertex -3.87433 2.5 -1.30524
      vertex -3.92915 2.5 -1.55047
    endloop
  endfacet
  facet normal 0 1 0
    outer loop
      vertex -5 2.5 -2.5
      vertex -3.92915 2.5 -1.55047
      vertex -3.96846 2.5 -1.79867
    endloop
  endfacet
  facet normal 0 1 0
    outer loop
      vertex -5 2.5 -2.5
      vertex -3.96846 2.5 -1.79867
      vertex -3.99211 2.5 -2.04884
    endloop
  endfacet
  facet normal 0 1 0
    outer loop
      vertex -5 2.5 -2.5
      vertex -3.99211 2.5 -2.04884
      vertex -4 2.5 -2.3
    endloop
  endfacet
  facet normal 0 1 0
    outer loop
      vertex -5 2.5 -2.5
      vertex -4 2.5 -2.3
      vertex -3.99371 2.5 -2.5
    endloop
  endfacet
  facet normal 0 1 0
    outer loop
      vertex -3.80423 2.5 -1.06393
      vertex -5 2.5 -2.5
      vertex -5 2.5 2.5
    endloop
  endfacet
  facet normal -0.999507 0 -0.0313987
    outer loop
      vertex 4 -2.5 -2.3
      vertex 3.99211 2.5 -2.04884
      vertex 4 2.5 -2.3
    endloop
  endfacet
  facet normal -0.999507 -0 -0.0313987
    outer loop
      vertex 3.99211 2.5 -2.04884
      vertex 4 -2.5 -2.3
      vertex 3.99211 -2.5 -2.04884
    endloop
  endfacet
  facet normal -0.995561 0 -0.0941161
    outer loop
      vertex 3.99211 -2.5 -2.04884
      vertex 3.96846 2.5 -1.79867
      vertex 3.99211 2.5 -2.04884
    endloop
  endfacet
  facet normal -0.995561 -0 -0.0941161
    outer loop
      vertex 3.96846 2.5 -1.79867
      vertex 3.99211 -2.5 -2.04884
      vertex 3.96846 -2.5 -1.79867
    endloop
  endfacet
  facet normal 0.0313985 0 -0.999507
    outer loop
      vertex -0.251162 -2.5 1.69211
      vertex 0 2.5 1.7
      vertex 0 -2.5 1.7
    endloop
  endfacet
  facet normal 0.0313985 0 -0.999507
    outer loop
      vertex 0 2.5 1.7
      vertex -0.251162 -2.5 1.69211
      vertex -0.251162 2.5 1.69211
    endloop
  endfacet
  facet normal -0.707119 0 -0.707095
    outer loop
      vertex 2.91587 -2.5 0.438188
      vertex 2.73819 2.5 0.615874
      vertex 2.91587 2.5 0.438188
    endloop
  endfacet
  facet normal -0.707119 -0 -0.707095
    outer loop
      vertex 2.73819 2.5 0.615874
      vertex 2.91587 -2.5 0.438188
      vertex 2.73819 -2.5 0.615874
    endloop
  endfacet
  facet normal 0.707119 0 -0.707095
    outer loop
      vertex -2.73819 -2.5 0.615874
      vertex -2.91587 2.5 0.438188
      vertex -2.73819 2.5 0.615874
    endloop
  endfacet
  facet normal 0.707119 0 -0.707095
    outer loop
      vertex -2.91587 2.5 0.438188
      vertex -2.73819 -2.5 0.615874
      vertex -2.91587 -2.5 0.438188
    endloop
  endfacet
  facet normal 0.397154 0 -0.917752
    outer loop
      vertex -1.70312 -2.5 1.31931
      vertex -1.4725 2.5 1.41911
      vertex -1.4725 -2.5 1.41911
    endloop
  endfacet
  facet normal 0.397154 0 -0.917752
    outer loop
      vertex -1.4725 2.5 1.41911
      vertex -1.70312 -2.5 1.31931
      vertex -1.70312 2.5 1.31931
    endloop
  endfacet
  facet normal -0.917751 0 -0.397157
    outer loop
      vertex 3.71911 -2.5 -0.827501
      vertex 3.61931 2.5 -0.596883
      vertex 3.71911 2.5 -0.827501
    endloop
  endfacet
  facet normal -0.917751 -0 -0.397157
    outer loop
      vertex 3.61931 2.5 -0.596883
      vertex 3.71911 -2.5 -0.827501
      vertex 3.61931 -2.5 -0.596883
    endloop
  endfacet
  facet normal 0.218157 0 -0.975914
    outer loop
      vertex -0.994759 -2.5 1.57433
      vertex -0.749525 2.5 1.62915
      vertex -0.749525 -2.5 1.62915
    endloop
  endfacet
  facet normal 0.218157 0 -0.975914
    outer loop
      vertex -0.749525 2.5 1.62915
      vertex -0.994759 -2.5 1.57433
      vertex -0.994759 2.5 1.57433
    endloop
  endfacet
  facet normal -0.975913 0 -0.218161
    outer loop
      vertex 3.92915 -2.5 -1.55047
      vertex 3.87433 2.5 -1.30524
      vertex 3.92915 2.5 -1.55047
    endloop
  endfacet
  facet normal -0.975913 -0 -0.218161
    outer loop
      vertex 3.87433 2.5 -1.30524
      vertex 3.92915 -2.5 -1.55047
      vertex 3.87433 -2.5 -1.30524
    endloop
  endfacet
  facet normal -0.891009 0 -0.453985
    outer loop
      vertex 3.61931 -2.5 -0.596883
      vertex 3.50523 2.5 -0.372985
      vertex 3.61931 2.5 -0.596883
    endloop
  endfacet
  facet normal -0.891009 -0 -0.453985
    outer loop
      vertex 3.50523 2.5 -0.372985
      vertex 3.61931 -2.5 -0.596883
      vertex 3.50523 -2.5 -0.372985
    endloop
  endfacet
  facet normal -0.750107 0 -0.661316
    outer loop
      vertex 3.08205 -2.5 0.249696
      vertex 2.91587 2.5 0.438188
      vertex 3.08205 2.5 0.249696
    endloop
  endfacet
  facet normal -0.750107 -0 -0.661316
    outer loop
      vertex 2.91587 2.5 0.438188
      vertex 3.08205 -2.5 0.249696
      vertex 2.91587 -2.5 0.438188
    endloop
  endfacet
  facet normal -0.156435 0 -0.987688
    outer loop
      vertex 0.501332 -2.5 1.66846
      vertex 0.749525 2.5 1.62915
      vertex 0.749525 -2.5 1.62915
    endloop
  endfacet
  facet normal -0.156435 0 -0.987688
    outer loop
      vertex 0.749525 2.5 1.62915
      vertex 0.501332 -2.5 1.66846
      vertex 0.501332 2.5 1.66846
    endloop
  endfacet
  facet normal -0.0941161 0 -0.995561
    outer loop
      vertex 0.251162 -2.5 1.69211
      vertex 0.501332 2.5 1.66846
      vertex 0.501332 -2.5 1.66846
    endloop
  endfacet
  facet normal -0.0941161 0 -0.995561
    outer loop
      vertex 0.501332 2.5 1.66846
      vertex 0.251162 -2.5 1.69211
      vertex 0.251162 2.5 1.69211
    endloop
  endfacet
  facet normal -0.562086 0 -0.827079
    outer loop
      vertex 2.14331 -2.5 1.07731
      vertex 2.35114 2.5 0.936068
      vertex 2.35114 -2.5 0.936068
    endloop
  endfacet
  facet normal -0.562086 0 -0.827079
    outer loop
      vertex 2.35114 2.5 0.936068
      vertex 2.14331 -2.5 1.07731
      vertex 2.14331 2.5 1.07731
    endloop
  endfacet
  facet normal -0.453998 0 -0.891003
    outer loop
      vertex 1.70312 -2.5 1.31931
      vertex 1.92701 2.5 1.20523
      vertex 1.92701 -2.5 1.20523
    endloop
  endfacet
  facet normal -0.453998 0 -0.891003
    outer loop
      vertex 1.92701 2.5 1.20523
      vertex 1.70312 -2.5 1.31931
      vertex 1.70312 2.5 1.31931
    endloop
  endfacet
  facet normal 0.987689 0 -0.156431
    outer loop
      vertex -3.92915 -2.5 -1.55047
      vertex -3.96846 2.5 -1.79867
      vertex -3.92915 2.5 -1.55047
    endloop
  endfacet
  facet normal 0.987689 0 -0.156431
    outer loop
      vertex -3.96846 2.5 -1.79867
      vertex -3.92915 -2.5 -1.55047
      vertex -3.96846 -2.5 -1.79867
    endloop
  endfacet
  facet normal 0.860733 0 -0.509057
    outer loop
      vertex -3.37731 -2.5 -0.156693
      vertex -3.50523 2.5 -0.372985
      vertex -3.37731 2.5 -0.156693
    endloop
  endfacet
  facet normal 0.860733 0 -0.509057
    outer loop
      vertex -3.50523 2.5 -0.372985
      vertex -3.37731 -2.5 -0.156693
      vertex -3.50523 -2.5 -0.372985
    endloop
  endfacet
  facet normal 0.94088 0 -0.338739
    outer loop
      vertex -3.71911 -2.5 -0.827501
      vertex -3.80423 2.5 -1.06393
      vertex -3.71911 2.5 -0.827501
    endloop
  endfacet
  facet normal 0.94088 0 -0.338739
    outer loop
      vertex -3.80423 2.5 -1.06393
      vertex -3.71911 -2.5 -0.827501
      vertex -3.80423 -2.5 -1.06393
    endloop
  endfacet
  facet normal 0.891009 0 -0.453985
    outer loop
      vertex -3.50523 -2.5 -0.372985
      vertex -3.61931 2.5 -0.596883
      vertex -3.50523 2.5 -0.372985
    endloop
  endfacet
  facet normal 0.891009 0 -0.453985
    outer loop
      vertex -3.61931 2.5 -0.596883
      vertex -3.50523 -2.5 -0.372985
      vertex -3.61931 -2.5 -0.596883
    endloop
  endfacet
  facet normal 0.995561 0 -0.0941161
    outer loop
      vertex -3.96846 -2.5 -1.79867
      vertex -3.99211 2.5 -2.04884
      vertex -3.96846 2.5 -1.79867
    endloop
  endfacet
  facet normal 0.995561 0 -0.0941161
    outer loop
      vertex -3.99211 2.5 -2.04884
      vertex -3.96846 -2.5 -1.79867
      vertex -3.99211 -2.5 -2.04884
    endloop
  endfacet
  facet normal 0.562086 0 -0.827079
    outer loop
      vertex -2.35114 -2.5 0.936068
      vertex -2.14331 2.5 1.07731
      vertex -2.14331 -2.5 1.07731
    endloop
  endfacet
  facet normal 0.562086 0 -0.827079
    outer loop
      vertex -2.14331 2.5 1.07731
      vertex -2.35114 -2.5 0.936068
      vertex -2.35114 2.5 0.936068
    endloop
  endfacet
  facet normal 0.661316 0 -0.750108
    outer loop
      vertex -2.73819 -2.5 0.615874
      vertex -2.5497 2.5 0.782052
      vertex -2.5497 -2.5 0.782052
    endloop
  endfacet
  facet normal 0.661316 0 -0.750108
    outer loop
      vertex -2.5497 2.5 0.782052
      vertex -2.73819 -2.5 0.615874
      vertex -2.73819 2.5 0.615874
    endloop
  endfacet
  facet normal 0.156435 0 -0.987688
    outer loop
      vertex -0.749525 -2.5 1.62915
      vertex -0.501332 2.5 1.66846
      vertex -0.501332 -2.5 1.66846
    endloop
  endfacet
  facet normal 0.156435 0 -0.987688
    outer loop
      vertex -0.501332 2.5 1.66846
      vertex -0.749525 -2.5 1.62915
      vertex -0.749525 2.5 1.62915
    endloop
  endfacet
  facet normal -0.987689 0 -0.156431
    outer loop
      vertex 3.96846 -2.5 -1.79867
      vertex 3.92915 2.5 -1.55047
      vertex 3.96846 2.5 -1.79867
    endloop
  endfacet
  facet normal -0.987689 -0 -0.156431
    outer loop
      vertex 3.92915 2.5 -1.55047
      vertex 3.96846 -2.5 -1.79867
      vertex 3.92915 -2.5 -1.55047
    endloop
  endfacet
  facet normal -0.94088 0 -0.338739
    outer loop
      vertex 3.80423 -2.5 -1.06393
      vertex 3.71911 2.5 -0.827501
      vertex 3.80423 2.5 -1.06393
    endloop
  endfacet
  facet normal -0.94088 -0 -0.338739
    outer loop
      vertex 3.71911 2.5 -0.827501
      vertex 3.80423 -2.5 -1.06393
      vertex 3.71911 -2.5 -0.827501
    endloop
  endfacet
  facet normal -0.960301 0 -0.278965
    outer loop
      vertex 3.87433 -2.5 -1.30524
      vertex 3.80423 2.5 -1.06393
      vertex 3.87433 2.5 -1.30524
    endloop
  endfacet
  facet normal -0.960301 -0 -0.278965
    outer loop
      vertex 3.80423 2.5 -1.06393
      vertex 3.87433 -2.5 -1.30524
      vertex 3.80423 -2.5 -1.06393
    endloop
  endfacet
  facet normal -0.790146 0 -0.612919
    outer loop
      vertex 3.23607 -2.5 0.0511408
      vertex 3.08205 2.5 0.249696
      vertex 3.23607 2.5 0.0511408
    endloop
  endfacet
  facet normal -0.790146 -0 -0.612919
    outer loop
      vertex 3.08205 2.5 0.249696
      vertex 3.23607 -2.5 0.0511408
      vertex 3.08205 -2.5 0.249696
    endloop
  endfacet
  facet normal -0.218157 0 -0.975914
    outer loop
      vertex 0.749525 -2.5 1.62915
      vertex 0.994759 2.5 1.57433
      vertex 0.994759 -2.5 1.57433
    endloop
  endfacet
  facet normal -0.218157 0 -0.975914
    outer loop
      vertex 0.994759 2.5 1.57433
      vertex 0.749525 -2.5 1.62915
      vertex 0.749525 2.5 1.62915
    endloop
  endfacet
  facet normal -0.0313985 0 -0.999507
    outer loop
      vertex 0 -2.5 1.7
      vertex 0.251162 2.5 1.69211
      vertex 0.251162 -2.5 1.69211
    endloop
  endfacet
  facet normal -0.0313985 0 -0.999507
    outer loop
      vertex 0.251162 2.5 1.69211
      vertex 0 -2.5 1.7
      vertex 0 2.5 1.7
    endloop
  endfacet
  facet normal -0.338738 0 -0.940881
    outer loop
      vertex 1.23607 -2.5 1.50423
      vertex 1.4725 2.5 1.41911
      vertex 1.4725 -2.5 1.41911
    endloop
  endfacet
  facet normal -0.338738 0 -0.940881
    outer loop
      vertex 1.4725 2.5 1.41911
      vertex 1.23607 -2.5 1.50423
      vertex 1.23607 2.5 1.50423
    endloop
  endfacet
  facet normal -0.509043 0 -0.860741
    outer loop
      vertex 1.92701 -2.5 1.20523
      vertex 2.14331 2.5 1.07731
      vertex 2.14331 -2.5 1.07731
    endloop
  endfacet
  facet normal -0.509043 0 -0.860741
    outer loop
      vertex 2.14331 2.5 1.07731
      vertex 1.92701 -2.5 1.20523
      vertex 1.92701 2.5 1.20523
    endloop
  endfacet
  facet normal 0.917751 0 -0.397157
    outer loop
      vertex -3.61931 -2.5 -0.596883
      vertex -3.71911 2.5 -0.827501
      vertex -3.61931 2.5 -0.596883
    endloop
  endfacet
  facet normal 0.917751 0 -0.397157
    outer loop
      vertex -3.71911 2.5 -0.827501
      vertex -3.61931 -2.5 -0.596883
      vertex -3.71911 -2.5 -0.827501
    endloop
  endfacet
  facet normal 0.975913 0 -0.218161
    outer loop
      vertex -3.87433 -2.5 -1.30524
      vertex -3.92915 2.5 -1.55047
      vertex -3.87433 2.5 -1.30524
    endloop
  endfacet
  facet normal 0.975913 0 -0.218161
    outer loop
      vertex -3.92915 2.5 -1.55047
      vertex -3.87433 -2.5 -1.30524
      vertex -3.92915 -2.5 -1.55047
    endloop
  endfacet
  facet normal 0.999507 0 -0.0313987
    outer loop
      vertex -3.99211 -2.5 -2.04884
      vertex -4 2.5 -2.3
      vertex -3.99211 2.5 -2.04884
    endloop
  endfacet
  facet normal 0.999507 0 -0.0313987
    outer loop
      vertex -4 2.5 -2.3
      vertex -3.99211 -2.5 -2.04884
      vertex -4 -2.5 -2.3
    endloop
  endfacet
  facet normal 0.999506 -0 0.0314345
    outer loop
      vertex -4 -2.5 -2.3
      vertex -3.99371 2.5 -2.5
      vertex -4 2.5 -2.3
    endloop
  endfacet
  facet normal 0.999506 0 0.0314345
    outer loop
      vertex -3.99371 2.5 -2.5
      vertex -4 -2.5 -2.3
      vertex -3.99371 -2.5 -2.5
    endloop
  endfacet
  facet normal 0.6129 0 -0.790161
    outer loop
      vertex -2.5497 -2.5 0.782052
      vertex -2.35114 2.5 0.936068
      vertex -2.35114 -2.5 0.936068
    endloop
  endfacet
  facet normal 0.6129 0 -0.790161
    outer loop
      vertex -2.35114 2.5 0.936068
      vertex -2.5497 -2.5 0.782052
      vertex -2.5497 2.5 0.782052
    endloop
  endfacet
  facet normal 0.509043 0 -0.860741
    outer loop
      vertex -2.14331 -2.5 1.07731
      vertex -1.92701 2.5 1.20523
      vertex -1.92701 -2.5 1.20523
    endloop
  endfacet
  facet normal 0.509043 0 -0.860741
    outer loop
      vertex -1.92701 2.5 1.20523
      vertex -2.14331 -2.5 1.07731
      vertex -2.14331 2.5 1.07731
    endloop
  endfacet
  facet normal 0.278964 0 -0.960301
    outer loop
      vertex -1.23607 -2.5 1.50423
      vertex -0.994759 2.5 1.57433
      vertex -0.994759 -2.5 1.57433
    endloop
  endfacet
  facet normal 0.278964 0 -0.960301
    outer loop
      vertex -0.994759 2.5 1.57433
      vertex -1.23607 -2.5 1.50423
      vertex -1.23607 2.5 1.50423
    endloop
  endfacet
  facet normal 0.338738 0 -0.940881
    outer loop
      vertex -1.4725 -2.5 1.41911
      vertex -1.23607 2.5 1.50423
      vertex -1.23607 -2.5 1.50423
    endloop
  endfacet
  facet normal 0.338738 0 -0.940881
    outer loop
      vertex -1.23607 2.5 1.50423
      vertex -1.4725 -2.5 1.41911
      vertex -1.4725 2.5 1.41911
    endloop
  endfacet
  facet normal 0.0941161 0 -0.995561
    outer loop
      vertex -0.501332 -2.5 1.66846
      vertex -0.251162 2.5 1.69211
      vertex -0.251162 -2.5 1.69211
    endloop
  endfacet
  facet normal 0.0941161 0 -0.995561
    outer loop
      vertex -0.251162 2.5 1.69211
      vertex -0.501332 -2.5 1.66846
      vertex -0.501332 2.5 1.66846
    endloop
  endfacet
  facet normal -0.860733 0 -0.509057
    outer loop
      vertex 3.50523 -2.5 -0.372985
      vertex 3.37731 2.5 -0.156693
      vertex 3.50523 2.5 -0.372985
    endloop
  endfacet
  facet normal -0.860733 -0 -0.509057
    outer loop
      vertex 3.37731 2.5 -0.156693
      vertex 3.50523 -2.5 -0.372985
      vertex 3.37731 -2.5 -0.156693
    endloop
  endfacet
  facet normal -0.827087 0 -0.562073
    outer loop
      vertex 3.37731 -2.5 -0.156693
      vertex 3.23607 2.5 0.0511408
      vertex 3.37731 2.5 -0.156693
    endloop
  endfacet
  facet normal -0.827087 -0 -0.562073
    outer loop
      vertex 3.23607 2.5 0.0511408
      vertex 3.37731 -2.5 -0.156693
      vertex 3.23607 -2.5 0.0511408
    endloop
  endfacet
  facet normal -0.278964 0 -0.960301
    outer loop
      vertex 0.994759 -2.5 1.57433
      vertex 1.23607 2.5 1.50423
      vertex 1.23607 -2.5 1.50423
    endloop
  endfacet
  facet normal -0.278964 0 -0.960301
    outer loop
      vertex 1.23607 2.5 1.50423
      vertex 0.994759 -2.5 1.57433
      vertex 0.994759 2.5 1.57433
    endloop
  endfacet
  facet normal -0.397154 0 -0.917752
    outer loop
      vertex 1.4725 -2.5 1.41911
      vertex 1.70312 2.5 1.31931
      vertex 1.70312 -2.5 1.31931
    endloop
  endfacet
  facet normal -0.397154 0 -0.917752
    outer loop
      vertex 1.70312 2.5 1.31931
      vertex 1.4725 -2.5 1.41911
      vertex 1.4725 2.5 1.41911
    endloop
  endfacet
  facet normal -0.661316 0 -0.750108
    outer loop
      vertex 2.5497 -2.5 0.782052
      vertex 2.73819 2.5 0.615874
      vertex 2.73819 -2.5 0.615874
    endloop
  endfacet
  facet normal -0.661316 0 -0.750108
    outer loop
      vertex 2.73819 2.5 0.615874
      vertex 2.5497 -2.5 0.782052
      vertex 2.5497 2.5 0.782052
    endloop
  endfacet
  facet normal -0.6129 0 -0.790161
    outer loop
      vertex 2.35114 -2.5 0.936068
      vertex 2.5497 2.5 0.782052
      vertex 2.5497 -2.5 0.782052
    endloop
  endfacet
  facet normal -0.6129 0 -0.790161
    outer loop
      vertex 2.5497 2.5 0.782052
      vertex 2.35114 -2.5 0.936068
      vertex 2.35114 2.5 0.936068
    endloop
  endfacet
  facet normal 0.827087 0 -0.562073
    outer loop
      vertex -3.23607 -2.5 0.0511408
      vertex -3.37731 2.5 -0.156693
      vertex -3.23607 2.5 0.0511408
    endloop
  endfacet
  facet normal 0.827087 0 -0.562073
    outer loop
      vertex -3.37731 2.5 -0.156693
      vertex -3.23607 -2.5 0.0511408
      vertex -3.37731 -2.5 -0.156693
    endloop
  endfacet
  facet normal 0.790146 0 -0.612919
    outer loop
      vertex -3.08205 -2.5 0.249696
      vertex -3.23607 2.5 0.0511408
      vertex -3.08205 2.5 0.249696
    endloop
  endfacet
  facet normal 0.790146 0 -0.612919
    outer loop
      vertex -3.23607 2.5 0.0511408
      vertex -3.08205 -2.5 0.249696
      vertex -3.23607 -2.5 0.0511408
    endloop
  endfacet
  facet normal 0.960301 0 -0.278965
    outer loop
      vertex -3.80423 -2.5 -1.06393
      vertex -3.87433 2.5 -1.30524
      vertex -3.80423 2.5 -1.06393
    endloop
  endfacet
  facet normal 0.960301 0 -0.278965
    outer loop
      vertex -3.87433 2.5 -1.30524
      vertex -3.80423 -2.5 -1.06393
      vertex -3.87433 -2.5 -1.30524
    endloop
  endfacet
  facet normal 0.453998 0 -0.891003
    outer loop
      vertex -1.92701 -2.5 1.20523
      vertex -1.70312 2.5 1.31931
      vertex -1.70312 -2.5 1.31931
    endloop
  endfacet
  facet normal 0.453998 0 -0.891003
    outer loop
      vertex -1.70312 2.5 1.31931
      vertex -1.92701 -2.5 1.20523
      vertex -1.92701 2.5 1.20523
    endloop
  endfacet
  facet normal 0.750107 0 -0.661316
    outer loop
      vertex -2.91587 -2.5 0.438188
      vertex -3.08205 2.5 0.249696
      vertex -2.91587 2.5 0.438188
    endloop
  endfacet
  facet normal 0.750107 0 -0.661316
    outer loop
      vertex -3.08205 2.5 0.249696
      vertex -2.91587 -2.5 0.438188
      vertex -3.08205 -2.5 0.249696
    endloop
  endfacet
  facet normal -0.999506 0 0.0314345
    outer loop
      vertex 3.99371 -2.5 -2.5
      vertex 4 2.5 -2.3
      vertex 3.99371 2.5 -2.5
    endloop
  endfacet
  facet normal -0.999506 0 0.0314345
    outer loop
      vertex 4 2.5 -2.3
      vertex 3.99371 -2.5 -2.5
      vertex 4 -2.5 -2.3
    endloop
  endfacet
endsolid OpenSCAD_Model
