solid OpenSCAD_Model
  facet normal -1 0 0
    outer loop
      vertex -5 -2.5 -2.5
      vertex -5 2.5 2.5
      vertex -5 2.5 -2.5
    endloop
  endfacet
  facet normal -1 -0 0
    outer loop
      vertex -5 2.5 2.5
      vertex -5 -2.5 -2.5
      vertex -5 -2.5 2.5
    endloop
  endfacet
  facet normal -0 0 1
    outer loop
      vertex -5 2.5 2.5
      vertex 5 -2.5 2.5
      vertex 5 2.5 2.5
    endloop
  endfacet
  facet normal 0 0 1
    outer loop
      vertex 5 -2.5 2.5
      vertex -5 2.5 2.5
      vertex -5 -2.5 2.5
    endloop
  endfacet
  facet normal 1 -0 0
    outer loop
      vertex 5 -2.5 2.5
      vertex 5 2.5 -2.5
      vertex 5 2.5 2.5
    endloop
  endfacet
  facet normal 1 0 0
    outer loop
      vertex 5 2.5 -2.5
      vertex 5 -2.5 2.5
      vertex 5 -2.5 -2.5
    endloop
  endfacet
  facet normal 0 0 -1
    outer loop
      vertex -5 -2.5 -2.5
      vertex -3.37566 2.5 -2.5
      vertex -3.37566 -2.5 -2.5
    endloop
  endfacet
  facet normal -0 0 -1
    outer loop
      vertex -3.37566 2.5 -2.5
      vertex -5 -2.5 -2.5
      vertex -5 2.5 -2.5
    endloop
  endfacet
  facet normal 0 0 -1
    outer loop
      vertex 3.37566 -2.5 -2.5
      vertex 5 2.5 -2.5
      vertex 5 -2.5 -2.5
    endloop
  endfacet
  facet normal -0 0 -1
    outer loop
      vertex 5 2.5 -2.5
      vertex 3.37566 -2.5 -2.5
      vertex 3.37566 2.5 -2.5
    endloop
  endfacet
  facet normal 0 -1 0
    outer loop
      vertex -5 -2.5 2.5
      vertex 0 -2.5 0.5
      vertex 5 -2.5 2.5
    endloop
  endfacet
  facet normal 0 -1 0
    outer loop
      vertex -5 -2.5 2.5
      vertex -0.213488 -2.5 0.49329
      vertex 0 -2.5 0.5
    endloop
  endfacet
  facet normal 0 -1 0
    outer loop
      vertex -5 -2.5 2.5
      vertex -0.426132 -2.5 0.473189
      vertex -0.213488 -2.5 0.49329
    endloop
  endfacet
  facet normal 0 -1 0
    outer loop
      vertex -5 -2.5 2.5
      vertex -0.637096 -2.5 0.439776
      vertex -0.426132 -2.5 0.473189
    endloop
  endfacet
  facet normal 0 -1 0
    outer loop
      vertex -5 -2.5 2.5
      vertex -0.845545 -2.5 0.393182
      vertex -0.637096 -2.5 0.439776
    endloop
  endfacet
  facet normal 0 -1 0
    outer loop
      vertex -5 -2.5 2.5
      vertex -1.05066 -2.5 0.333591
      vertex -0.845545 -2.5 0.393182
    endloop
  endfacet
  facet normal 0 -1 0
    outer loop
      vertex -5 -2.5 2.5
      vertex -1.25162 -2.5 0.26124
      vertex -1.05066 -2.5 0.333591
    endloop
  endfacet
  facet normal 0 -1 0
    outer loop
      vertex -5 -2.5 2.5
      vertex -1.44765 -2.5 0.176412
      vertex -1.25162 -2.5 0.26124
    endloop
  endfacet
  facet normal 0 -1 0
    outer loop
      vertex -5 -2.5 2.5
      vertex -1.63796 -2.5 0.079442
      vertex -1.44765 -2.5 0.176412
    endloop
  endfacet
  facet normal 0 -1 0
    outer loop
      vertex -5 -2.5 2.5
      vertex -1.82181 -2.5 -0.0292845
      vertex -1.63796 -2.5 0.079442
    endloop
  endfacet
  facet normal 0 -1 0
    outer loop
      vertex -5 -2.5 2.5
      vertex -1.99847 -2.5 -0.149342
      vertex -1.82181 -2.5 -0.0292845
    endloop
  endfacet
  facet normal 0 -1 0
    outer loop
      vertex -5 -2.5 2.5
      vertex -2.16724 -2.5 -0.280254
      vertex -1.99847 -2.5 -0.149342
    endloop
  endfacet
  facet normal 0 -1 0
    outer loop
      vertex -5 -2.5 2.5
      vertex -2.32746 -2.5 -0.421506
      vertex -2.16724 -2.5 -0.280254
    endloop
  endfacet
  facet normal 0 -1 0
    outer loop
      vertex -5 -2.5 2.5
      vertex -2.47849 -2.5 -0.572539
      vertex -2.32746 -2.5 -0.421506
    endloop
  endfacet
  facet normal 0 -1 0
    outer loop
      vertex -5 -2.5 2.5
      vertex -2.61974 -2.5 -0.732758
      vertex -2.47849 -2.5 -0.572539
    endloop
  endfacet
  facet normal 0 -1 0
    outer loop
      vertex -5 -2.5 2.5
      vertex -2.75066 -2.5 -0.901529
      vertex -2.61974 -2.5 -0.732758
    endloop
  endfacet
  facet normal 0 -1 0
    outer loop
      vertex -5 -2.5 2.5
      vertex -2.87071 -2.5 -1.07819
      vertex -2.75066 -2.5 -0.901529
    endloop
  endfacet
  facet normal 0 -1 0
    outer loop
      vertex -5 -2.5 2.5
      vertex -2.97944 -2.5 -1.26204
      vertex -2.87071 -2.5 -1.07819
    endloop
  endfacet
  facet normal 0 -1 0
    outer loop
      vertex -5 -2.5 -2.5
      vertex -2.97944 -2.5 -1.26204
      vertex -5 -2.5 2.5
    endloop
  endfacet
  facet normal 0 -1 0
    outer loop
      vertex -2.97944 -2.5 -1.26204
      vertex -5 -2.5 -2.5
      vertex -3.07641 -2.5 -1.45235
    endloop
  endfacet
  facet normal 0 -1 0
    outer loop
      vertex -3.07641 -2.5 -1.45235
      vertex -5 -2.5 -2.5
      vertex -3.16124 -2.5 -1.64838
    endloop
  endfacet
  facet normal 0 -1 0
    outer loop
      vertex -3.16124 -2.5 -1.64838
      vertex -5 -2.5 -2.5
      vertex -3.23359 -2.5 -1.84934
    endloop
  endfacet
  facet normal 0 -1 0
    outer loop
      vertex -3.23359 -2.5 -1.84934
      vertex -5 -2.5 -2.5
      vertex -3.29318 -2.5 -2.05445
    endloop
  endfacet
  facet normal 0 -1 0
    outer loop
      vertex -3.29318 -2.5 -2.05445
      vertex -5 -2.5 -2.5
      vertex -3.33978 -2.5 -2.2629
    endloop
  endfacet
  facet normal 0 -1 0
    outer loop
      vertex -3.33978 -2.5 -2.2629
      vertex -5 -2.5 -2.5
      vertex -3.37319 -2.5 -2.47387
    endloop
  endfacet
  facet normal 0 -1 0
    outer loop
      vertex -3.37319 -2.5 -2.47387
      vertex -5 -2.5 -2.5
      vertex -3.37566 -2.5 -2.5
    endloop
  endfacet
  facet normal 0 -1 0
    outer loop
      vertex 0.213488 -2.5 0.49329
      vertex 5 -2.5 2.5
      vertex 0 -2.5 0.5
    endloop
  endfacet
  facet normal 0 -1 0
    outer loop
      vertex 0.426132 -2.5 0.473189
      vertex 5 -2.5 2.5
      vertex 0.213488 -2.5 0.49329
    endloop
  endfacet
  facet normal 0 -1 0
    outer loop
      vertex 0.637096 -2.5 0.439776
      vertex 5 -2.5 2.5
      vertex 0.426132 -2.5 0.473189
    endloop
  endfacet
  facet normal 0 -1 0
    outer loop
      vertex 0.845545 -2.5 0.393182
      vertex 5 -2.5 2.5
      vertex 0.637096 -2.5 0.439776
    endloop
  endfacet
  facet normal 0 -1 0
    outer loop
      vertex 1.05066 -2.5 0.333591
      vertex 5 -2.5 2.5
      vertex 0.845545 -2.5 0.393182
    endloop
  endfacet
  facet normal 0 -1 0
    outer loop
      vertex 1.25162 -2.5 0.26124
      vertex 5 -2.5 2.5
      vertex 1.05066 -2.5 0.333591
    endloop
  endfacet
  facet normal 0 -1 0
    outer loop
      vertex 1.44765 -2.5 0.176412
      vertex 5 -2.5 2.5
      vertex 1.25162 -2.5 0.26124
    endloop
  endfacet
  facet normal 0 -1 0
    outer loop
      vertex 1.63796 -2.5 0.079442
      vertex 5 -2.5 2.5
      vertex 1.44765 -2.5 0.176412
    endloop
  endfacet
  facet normal 0 -1 0
    outer loop
      vertex 1.82181 -2.5 -0.0292845
      vertex 5 -2.5 2.5
      vertex 1.63796 -2.5 0.079442
    endloop
  endfacet
  facet normal 0 -1 0
    outer loop
      vertex 1.99847 -2.5 -0.149342
      vertex 5 -2.5 2.5
      vertex 1.82181 -2.5 -0.0292845
    endloop
  endfacet
  facet normal 0 -1 0
    outer loop
      vertex 2.16724 -2.5 -0.280254
      vertex 5 -2.5 2.5
      vertex 1.99847 -2.5 -0.149342
    endloop
  endfacet
  facet normal 0 -1 0
    outer loop
      vertex 2.32746 -2.5 -0.421506
      vertex 5 -2.5 2.5
      vertex 2.16724 -2.5 -0.280254
    endloop
  endfacet
  facet normal 0 -1 0
    outer loop
      vertex 2.47849 -2.5 -0.572539
      vertex 5 -2.5 2.5
      vertex 2.32746 -2.5 -0.421506
    endloop
  endfacet
  facet normal 0 -1 0
    outer loop
      vertex 2.61974 -2.5 -0.732758
      vertex 5 -2.5 2.5
      vertex 2.47849 -2.5 -0.572539
    endloop
  endfacet
  facet normal 0 -1 0
    outer loop
      vertex 2.75066 -2.5 -0.901529
      vertex 5 -2.5 2.5
      vertex 2.61974 -2.5 -0.732758
    endloop
  endfacet
  facet normal 0 -1 0
    outer loop
      vertex 2.87071 -2.5 -1.07819
      vertex 5 -2.5 2.5
      vertex 2.75066 -2.5 -0.901529
    endloop
  endfacet
  facet normal 0 -1 0
    outer loop
      vertex 2.97944 -2.5 -1.26204
      vertex 5 -2.5 2.5
      vertex 2.87071 -2.5 -1.07819
    endloop
  endfacet
  facet normal 0 -1 0
    outer loop
      vertex 5 -2.5 -2.5
      vertex 2.97944 -2.5 -1.26204
      vertex 3.07641 -2.5 -1.45235
    endloop
  endfacet
  facet normal 0 -1 0
    outer loop
      vertex 5 -2.5 -2.5
      vertex 3.07641 -2.5 -1.45235
      vertex 3.16124 -2.5 -1.64838
    endloop
  endfacet
  facet normal 0 -1 0
    outer loop
      vertex 5 -2.5 -2.5
      vertex 3.16124 -2.5 -1.64838
      vertex 3.23359 -2.5 -1.84934
    endloop
  endfacet
  facet normal 0 -1 0
    outer loop
      vertex 5 -2.5 -2.5
      vertex 3.23359 -2.5 -1.84934
      vertex 3.29318 -2.5 -2.05445
    endloop
  endfacet
  facet normal 0 -1 0
    outer loop
      vertex 5 -2.5 -2.5
      vertex 3.29318 -2.5 -2.05445
      vertex 3.33978 -2.5 -2.2629
    endloop
  endfacet
  facet normal 0 -1 0
    outer loop
      vertex 5 -2.5 -2.5
      vertex 3.33978 -2.5 -2.2629
      vertex 3.37319 -2.5 -2.47387
    endloop
  endfacet
  facet normal 0 -1 0
    outer loop
      vertex 5 -2.5 -2.5
      vertex 3.37319 -2.5 -2.47387
      vertex 3.37566 -2.5 -2.5
    endloop
  endfacet
  facet normal 0 -1 0
    outer loop
      vertex 2.97944 -2.5 -1.26204
      vertex 5 -2.5 -2.5
      vertex 5 -2.5 2.5
    endloop
  endfacet
  facet normal 0 1 0
    outer loop
      vertex 5 2.5 2.5
      vertex 0 2.5 0.5
      vertex -5 2.5 2.5
    endloop
  endfacet
  facet normal 0 1 0
    outer loop
      vertex 5 2.5 2.5
      vertex 0.213488 2.5 0.49329
      vertex 0 2.5 0.5
    endloop
  endfacet
  facet normal 0 1 0
    outer loop
      vertex 5 2.5 2.5
      vertex 0.426132 2.5 0.473189
      vertex 0.213488 2.5 0.49329
    endloop
  endfacet
  facet normal 0 1 0
    outer loop
      vertex 5 2.5 2.5
      vertex 0.637096 2.5 0.439776
      vertex 0.426132 2.5 0.473189
    endloop
  endfacet
  facet normal 0 1 0
    outer loop
      vertex 5 2.5 2.5
      vertex 0.845545 2.5 0.393182
      vertex 0.637096 2.5 0.439776
    endloop
  endfacet
  facet normal 0 1 0
    outer loop
      vertex 5 2.5 2.5
      vertex 1.05066 2.5 0.333591
      vertex 0.845545 2.5 0.393182
    endloop
  endfacet
  facet normal 0 1 0
    outer loop
      vertex 5 2.5 2.5
      vertex 1.25162 2.5 0.26124
      vertex 1.05066 2.5 0.333591
    endloop
  endfacet
  facet normal 0 1 0
    outer loop
      vertex 5 2.5 2.5
      vertex 1.44765 2.5 0.176412
      vertex 1.25162 2.5 0.26124
    endloop
  endfacet
  facet normal 0 1 0
    outer loop
      vertex 5 2.5 2.5
      vertex 1.63796 2.5 0.079442
      vertex 1.44765 2.5 0.176412
    endloop
  endfacet
  facet normal 0 1 0
    outer loop
      vertex 5 2.5 2.5
      vertex 1.82181 2.5 -0.0292845
      vertex 1.63796 2.5 0.079442
    endloop
  endfacet
  facet normal 0 1 0
    outer loop
      vertex 5 2.5 2.5
      vertex 1.99847 2.5 -0.149342
      vertex 1.82181 2.5 -0.0292845
    endloop
  endfacet
  facet normal 0 1 0
    outer loop
      vertex 5 2.5 2.5
      vertex 2.16724 2.5 -0.280254
      vertex 1.99847 2.5 -0.149342
    endloop
  endfacet
  facet normal 0 1 0
    outer loop
      vertex 5 2.5 2.5
      vertex 2.32746 2.5 -0.421506
      vertex 2.16724 2.5 -0.280254
    endloop
  endfacet
  facet normal 0 1 0
    outer loop
      vertex 5 2.5 2.5
      vertex 2.47849 2.5 -0.572539
      vertex 2.32746 2.5 -0.421506
    endloop
  endfacet
  facet normal 0 1 0
    outer loop
      vertex 5 2.5 2.5
      vertex 2.61974 2.5 -0.732758
      vertex 2.47849 2.5 -0.572539
    endloop
  endfacet
  facet normal 0 1 0
    outer loop
      vertex 5 2.5 2.5
      vertex 2.75066 2.5 -0.901529
      vertex 2.61974 2.5 -0.732758
    endloop
  endfacet
  facet normal 0 1 0
    outer loop
      vertex 5 2.5 2.5
      vertex 2.87071 2.5 -1.07819
      vertex 2.75066 2.5 -0.901529
    endloop
  endfacet
  facet normal 0 1 0
    outer loop
      vertex 5 2.5 2.5
      vertex 2.97944 2.5 -1.26204
      vertex 2.87071 2.5 -1.07819
    endloop
  endfacet
  facet normal 0 1 -0
    outer loop
      vertex 5 2.5 -2.5
      vertex 2.97944 2.5 -1.26204
      vertex 5 2.5 2.5
    endloop
  endfacet
  facet normal 0 1 0
    outer loop
      vertex 2.97944 2.5 -1.26204
      vertex 5 2.5 -2.5
      vertex 3.07641 2.5 -1.45235
    endloop
  endfacet
  facet normal 0 1 0
    outer loop
      vertex 3.07641 2.5 -1.45235
      vertex 5 2.5 -2.5
      vertex 3.16124 2.5 -1.64838
    endloop
  endfacet
  facet normal 0 1 0
    outer loop
      vertex 3.16124 2.5 -1.64838
      vertex 5 2.5 -2.5
      vertex 3.23359 2.5 -1.84934
    endloop
  endfacet
  facet normal 0 1 0
    outer loop
      vertex 3.23359 2.5 -1.84934
      vertex 5 2.5 -2.5
      vertex 3.29318 2.5 -2.05445
    endloop
  endfacet
  facet normal 0 1 0
    outer loop
      vertex 3.29318 2.5 -2.05445
      vertex 5 2.5 -2.5
      vertex 3.33978 2.5 -2.2629
    endloop
  endfacet
  facet normal 0 1 0
    outer loop
      vertex 3.33978 2.5 -2.2629
      vertex 5 2.5 -2.5
      vertex 3.37319 2.5 -2.47387
    endloop
  endfacet
  facet normal 0 1 0
    outer loop
      vertex 3.37319 2.5 -2.47387
      vertex 5 2.5 -2.5
      vertex 3.37566 2.5 -2.5
    endloop
  endfacet
  facet normal 0 1 -0
    outer loop
      vertex -0.213488 2.5 0.49329
      vertex -5 2.5 2.5
      vertex 0 2.5 0.5
    endloop
  endfacet
  facet normal 0 1 -0
    outer loop
      vertex -0.426132 2.5 0.473189
      vertex -5 2.5 2.5
      vertex -0.213488 2.5 0.49329
    endloop
  endfacet
  facet normal 0 1 -0
    outer loop
      vertex -0.637096 2.5 0.439776
      vertex -5 2.5 2.5
      vertex -0.426132 2.5 0.473189
    endloop
  endfacet
  facet normal 0 1 -0
    outer loop
      vertex -0.845545 2.5 0.393182
      vertex -5 2.5 2.5
      vertex -0.637096 2.5 0.439776
    endloop
  endfacet
  facet normal 0 1 -0
    outer loop
      vertex -1.05066 2.5 0.333591
      vertex -5 2.5 2.5
      vertex -0.845545 2.5 0.393182
    endloop
  endfacet
  facet normal 0 1 -0
    outer loop
      vertex -1.25162 2.5 0.26124
      vertex -5 2.5 2.5
      vertex -1.05066 2.5 0.333591
    endloop
  endfacet
  facet normal 0 1 -0
    outer loop
      vertex -1.44765 2.5 0.176412
      vertex -5 2.5 2.5
      vertex -1.25162 2.5 0.26124
    endloop
  endfacet
  facet normal 0 1 -0
    outer loop
      vertex -1.63796 2.5 0.079442
      vertex -5 2.5 2.5
      vertex -1.44765 2.5 0.176412
    endloop
  endfacet
  facet normal 0 1 -0
    outer loop
      vertex -1.82181 2.5 -0.0292845
      vertex -5 2.5 2.5
      vertex -1.63796 2.5 0.079442
    endloop
  endfacet
  facet normal 0 1 -0
    outer loop
      vertex -1.99847 2.5 -0.149342
      vertex -5 2.5 2.5
      vertex -1.82181 2.5 -0.0292845
    endloop
  endfacet
  facet normal 0 1 -0
    outer loop
      vertex -2.16724 2.5 -0.280254
      vertex -5 2.5 2.5
      vertex -1.99847 2.5 -0.149342
    endloop
  endfacet
  facet normal 0 1 -0
    outer loop
      vertex -2.32746 2.5 -0.421506
      vertex -5 2.5 2.5
      vertex -2.16724 2.5 -0.280254
    endloop
  endfacet
  facet normal 0 1 -0
    outer loop
      vertex -2.47849 2.5 -0.572539
      vertex -5 2.5 2.5
      vertex -2.32746 2.5 -0.421506
    endloop
  endfacet
  facet normal 0 1 -0
    outer loop
      vertex -2.61974 2.5 -0.732758
      vertex -5 2.5 2.5
      vertex -2.47849 2.5 -0.572539
    endloop
  endfacet
  facet normal 0 1 -0
    outer loop
      vertex -2.75066 2.5 -0.901529
      vertex -5 2.5 2.5
      vertex -2.61974 2.5 -0.732758
    endloop
  endfacet
  facet normal 0 1 -0
    outer loop
      vertex -2.87071 2.5 -1.07819
      vertex -5 2.5 2.5
      vertex -2.75066 2.5 -0.901529
    endloop
  endfacet
  facet normal 0 1 -0
    outer loop
      vertex -2.97944 2.5 -1.26204
      vertex -5 2.5 2.5
      vertex -2.87071 2.5 -1.07819
    endloop
  endfacet
  facet normal 0 1 0
    outer loop
      vertex -5 2.5 -2.5
      vertex -2.97944 2.5 -1.26204
      vertex -3.07641 2.5 -1.45235
    endloop
  endfacet
  facet normal 0 1 0
    outer loop
      vertex -5 2.5 -2.5
      vertex -3.07641 2.5 -1.45235
      vertex -3.16124 2.5 -1.64838
    endloop
  endfacet
  facet normal 0 1 0
    outer loop
      vertex -5 2.5 -2.5
      vertex -3.16124 2.5 -1.64838
      vertex -3.23359 2.5 -1.84934
    endloop
  endfacet
  facet normal 0 1 0
    outer loop
      vertex -5 2.5 -2.5
      vertex -3.23359 2.5 -1.84934
      vertex -3.29318 2.5 -2.05445
    endloop
  endfacet
  facet normal 0 1 0
    outer loop
      vertex -5 2.5 -2.5
      vertex -3.29318 2.5 -2.05445
      vertex -3.33978 2.5 -2.2629
    endloop
  endfacet
  facet normal 0 1 0
    outer loop
      vertex -5 2.5 -2.5
      vertex -3.33978 2.5 -2.2629
      vertex -3.37319 2.5 -2.47387
    endloop
  endfacet
  facet normal 0 1 0
    outer loop
      vertex -5 2.5 -2.5
      vertex -3.37319 2.5 -2.47387
      vertex -3.37566 2.5 -2.5
    endloop
  endfacet
  facet normal 0 1 0
    outer loop
      vertex -2.97944 2.5 -1.26204
      vertex -5 2.5 -2.5
      vertex -5 2.5 2.5
    endloop
  endfacet
  facet normal -0.995562 0 -0.0941079
    outer loop
      vertex 3.37566 -2.5 -2.5
      vertex 3.37319 2.5 -2.47387
      vertex 3.37566 2.5 -2.5
    endloop
  endfacet
  facet normal -0.995562 -0 -0.0941079
    outer loop
      vertex 3.37319 2.5 -2.47387
      vertex 3.37566 -2.5 -2.5
      vertex 3.37319 -2.5 -2.47387
    endloop
  endfacet
  facet normal -0.0314148 0 -0.999506
    outer loop
      vertex 0 -2.5 0.5
      vertex 0.213488 2.5 0.49329
      vertex 0.213488 -2.5 0.49329
    endloop
  endfacet
  facet normal -0.0314148 0 -0.999506
    outer loop
      vertex 0.213488 2.5 0.49329
      vertex 0 -2.5 0.5
      vertex 0 2.5 0.5
    endloop
  endfacet
  facet normal -0.707114 0 -0.7071
    outer loop
      vertex 2.47849 -2.5 -0.572539
      vertex 2.32746 2.5 -0.421506
      vertex 2.47849 2.5 -0.572539
    endloop
  endfacet
  facet normal -0.707114 -0 -0.7071
    outer loop
      vertex 2.32746 2.5 -0.421506
      vertex 2.47849 -2.5 -0.572539
      vertex 2.32746 -2.5 -0.421506
    endloop
  endfacet
  facet normal 0.661309 0 -0.750113
    outer loop
      vertex -2.32746 -2.5 -0.421506
      vertex -2.16724 2.5 -0.280254
      vertex -2.16724 -2.5 -0.280254
    endloop
  endfacet
  facet normal 0.661309 0 -0.750113
    outer loop
      vertex -2.16724 2.5 -0.280254
      vertex -2.32746 -2.5 -0.421506
      vertex -2.32746 2.5 -0.421506
    endloop
  endfacet
  facet normal 0.338742 0 -0.940879
    outer loop
      vertex -1.25162 -2.5 0.26124
      vertex -1.05066 2.5 0.333591
      vertex -1.05066 -2.5 0.333591
    endloop
  endfacet
  facet normal 0.338742 0 -0.940879
    outer loop
      vertex -1.05066 2.5 0.333591
      vertex -1.25162 -2.5 0.26124
      vertex -1.25162 2.5 0.26124
    endloop
  endfacet
  facet normal -0.917754 0 -0.397149
    outer loop
      vertex 3.16124 -2.5 -1.64838
      vertex 3.07641 2.5 -1.45235
      vertex 3.16124 2.5 -1.64838
    endloop
  endfacet
  facet normal -0.917754 -0 -0.397149
    outer loop
      vertex 3.07641 2.5 -1.45235
      vertex 3.16124 -2.5 -1.64838
      vertex 3.07641 -2.5 -1.45235
    endloop
  endfacet
  facet normal -0.397141 0 -0.917758
    outer loop
      vertex 1.25162 -2.5 0.26124
      vertex 1.44765 2.5 0.176412
      vertex 1.44765 -2.5 0.176412
    endloop
  endfacet
  facet normal -0.397141 0 -0.917758
    outer loop
      vertex 1.44765 2.5 0.176412
      vertex 1.25162 -2.5 0.26124
      vertex 1.25162 2.5 0.26124
    endloop
  endfacet
  facet normal 0.790137 0 -0.61293
    outer loop
      vertex -2.61974 -2.5 -0.732758
      vertex -2.75066 2.5 -0.901529
      vertex -2.61974 2.5 -0.732758
    endloop
  endfacet
  facet normal 0.790137 0 -0.61293
    outer loop
      vertex -2.75066 2.5 -0.901529
      vertex -2.61974 -2.5 -0.732758
      vertex -2.75066 -2.5 -0.901529
    endloop
  endfacet
  facet normal 0.156433 0 -0.987689
    outer loop
      vertex -0.637096 -2.5 0.439776
      vertex -0.426132 2.5 0.473189
      vertex -0.426132 -2.5 0.473189
    endloop
  endfacet
  facet normal 0.156433 0 -0.987689
    outer loop
      vertex -0.426132 2.5 0.473189
      vertex -0.637096 -2.5 0.439776
      vertex -0.637096 2.5 0.439776
    endloop
  endfacet
  facet normal -0.218144 0 -0.975917
    outer loop
      vertex 0.637096 -2.5 0.439776
      vertex 0.845545 2.5 0.393182
      vertex 0.845545 -2.5 0.393182
    endloop
  endfacet
  facet normal -0.218144 0 -0.975917
    outer loop
      vertex 0.845545 2.5 0.393182
      vertex 0.637096 -2.5 0.439776
      vertex 0.637096 2.5 0.439776
    endloop
  endfacet
  facet normal -0.661309 0 -0.750113
    outer loop
      vertex 2.16724 -2.5 -0.280254
      vertex 2.32746 2.5 -0.421506
      vertex 2.32746 -2.5 -0.421506
    endloop
  endfacet
  facet normal -0.661309 0 -0.750113
    outer loop
      vertex 2.32746 2.5 -0.421506
      vertex 2.16724 -2.5 -0.280254
      vertex 2.16724 2.5 -0.280254
    endloop
  endfacet
  facet normal 0.960294 0 -0.278991
    outer loop
      vertex -3.23359 -2.5 -1.84934
      vertex -3.29318 2.5 -2.05445
      vertex -3.23359 2.5 -1.84934
    endloop
  endfacet
  facet normal 0.960294 0 -0.278991
    outer loop
      vertex -3.29318 2.5 -2.05445
      vertex -3.23359 -2.5 -1.84934
      vertex -3.29318 -2.5 -2.05445
    endloop
  endfacet
  facet normal 0.891002 0 -0.453999
    outer loop
      vertex -2.97944 -2.5 -1.26204
      vertex -3.07641 2.5 -1.45235
      vertex -2.97944 2.5 -1.26204
    endloop
  endfacet
  facet normal 0.891002 0 -0.453999
    outer loop
      vertex -3.07641 2.5 -1.45235
      vertex -2.97944 -2.5 -1.26204
      vertex -3.07641 -2.5 -1.45235
    endloop
  endfacet
  facet normal 0.827099 0 -0.562056
    outer loop
      vertex -2.75066 -2.5 -0.901529
      vertex -2.87071 2.5 -1.07819
      vertex -2.75066 2.5 -0.901529
    endloop
  endfacet
  facet normal 0.827099 0 -0.562056
    outer loop
      vertex -2.87071 2.5 -1.07819
      vertex -2.75066 -2.5 -0.901529
      vertex -2.87071 -2.5 -1.07819
    endloop
  endfacet
  facet normal 0.975911 0 -0.21817
    outer loop
      vertex -3.29318 -2.5 -2.05445
      vertex -3.33978 2.5 -2.2629
      vertex -3.29318 2.5 -2.05445
    endloop
  endfacet
  facet normal 0.975911 0 -0.21817
    outer loop
      vertex -3.33978 2.5 -2.2629
      vertex -3.29318 -2.5 -2.05445
      vertex -3.33978 -2.5 -2.2629
    endloop
  endfacet
  facet normal 0.509034 0 -0.860746
    outer loop
      vertex -1.82181 -2.5 -0.0292845
      vertex -1.63796 2.5 0.079442
      vertex -1.63796 -2.5 0.079442
    endloop
  endfacet
  facet normal 0.509034 0 -0.860746
    outer loop
      vertex -1.63796 2.5 0.079442
      vertex -1.82181 -2.5 -0.0292845
      vertex -1.82181 2.5 -0.0292845
    endloop
  endfacet
  facet normal 0.612909 0 -0.790154
    outer loop
      vertex -2.16724 -2.5 -0.280254
      vertex -1.99847 2.5 -0.149342
      vertex -1.99847 -2.5 -0.149342
    endloop
  endfacet
  facet normal 0.612909 0 -0.790154
    outer loop
      vertex -1.99847 2.5 -0.149342
      vertex -2.16724 -2.5 -0.280254
      vertex -2.16724 2.5 -0.280254
    endloop
  endfacet
  facet normal 0.0941094 0 -0.995562
    outer loop
      vertex -0.426132 -2.5 0.473189
      vertex -0.213488 2.5 0.49329
      vertex -0.213488 -2.5 0.49329
    endloop
  endfacet
  facet normal 0.0941094 0 -0.995562
    outer loop
      vertex -0.213488 2.5 0.49329
      vertex -0.426132 -2.5 0.473189
      vertex -0.426132 2.5 0.473189
    endloop
  endfacet
  facet normal -0.975911 0 -0.21817
    outer loop
      vertex 3.33978 -2.5 -2.2629
      vertex 3.29318 2.5 -2.05445
      vertex 3.33978 2.5 -2.2629
    endloop
  endfacet
  facet normal -0.975911 -0 -0.21817
    outer loop
      vertex 3.29318 2.5 -2.05445
      vertex 3.33978 -2.5 -2.2629
      vertex 3.29318 -2.5 -2.05445
    endloop
  endfacet
  facet normal -0.987691 0 -0.156415
    outer loop
      vertex 3.37319 -2.5 -2.47387
      vertex 3.33978 2.5 -2.2629
      vertex 3.37319 2.5 -2.47387
    endloop
  endfacet
  facet normal -0.987691 -0 -0.156415
    outer loop
      vertex 3.33978 2.5 -2.2629
      vertex 3.37319 -2.5 -2.47387
      vertex 3.33978 -2.5 -2.2629
    endloop
  endfacet
  facet normal -0.960294 0 -0.278991
    outer loop
      vertex 3.29318 -2.5 -2.05445
      vertex 3.23359 2.5 -1.84934
      vertex 3.29318 2.5 -2.05445
    endloop
  endfacet
  facet normal -0.960294 -0 -0.278991
    outer loop
      vertex 3.23359 2.5 -1.84934
      vertex 3.29318 -2.5 -2.05445
      vertex 3.23359 -2.5 -1.84934
    endloop
  endfacet
  facet normal -0.790137 0 -0.61293
    outer loop
      vertex 2.75066 -2.5 -0.901529
      vertex 2.61974 2.5 -0.732758
      vertex 2.75066 2.5 -0.901529
    endloop
  endfacet
  facet normal -0.790137 -0 -0.61293
    outer loop
      vertex 2.61974 2.5 -0.732758
      vertex 2.75066 -2.5 -0.901529
      vertex 2.61974 -2.5 -0.732758
    endloop
  endfacet
  facet normal -0.827099 0 -0.562056
    outer loop
      vertex 2.87071 -2.5 -1.07819
      vertex 2.75066 2.5 -0.901529
      vertex 2.87071 2.5 -1.07819
    endloop
  endfacet
  facet normal -0.827099 -0 -0.562056
    outer loop
      vertex 2.75066 2.5 -0.901529
      vertex 2.87071 -2.5 -1.07819
      vertex 2.75066 -2.5 -0.901529
    endloop
  endfacet
  facet normal -0.891002 0 -0.453999
    outer loop
      vertex 3.07641 -2.5 -1.45235
      vertex 2.97944 2.5 -1.26204
      vertex 3.07641 2.5 -1.45235
    endloop
  endfacet
  facet normal -0.891002 -0 -0.453999
    outer loop
      vertex 2.97944 2.5 -1.26204
      vertex 3.07641 -2.5 -1.45235
      vertex 2.97944 -2.5 -1.26204
    endloop
  endfacet
  facet normal -0.156433 0 -0.987689
    outer loop
      vertex 0.426132 -2.5 0.473189
      vertex 0.637096 2.5 0.439776
      vertex 0.637096 -2.5 0.439776
    endloop
  endfacet
  facet normal -0.156433 0 -0.987689
    outer loop
      vertex 0.637096 2.5 0.439776
      vertex 0.426132 -2.5 0.473189
      vertex 0.426132 2.5 0.473189
    endloop
  endfacet
  facet normal -0.338742 0 -0.940879
    outer loop
      vertex 1.05066 -2.5 0.333591
      vertex 1.25162 2.5 0.26124
      vertex 1.25162 -2.5 0.26124
    endloop
  endfacet
  facet normal -0.338742 0 -0.940879
    outer loop
      vertex 1.25162 2.5 0.26124
      vertex 1.05066 -2.5 0.333591
      vertex 1.05066 2.5 0.333591
    endloop
  endfacet
  facet normal -0.509034 0 -0.860746
    outer loop
      vertex 1.63796 -2.5 0.079442
      vertex 1.82181 2.5 -0.0292845
      vertex 1.82181 -2.5 -0.0292845
    endloop
  endfacet
  facet normal -0.509034 0 -0.860746
    outer loop
      vertex 1.82181 2.5 -0.0292845
      vertex 1.63796 -2.5 0.079442
      vertex 1.63796 2.5 0.079442
    endloop
  endfacet
  facet normal -0.453999 0 -0.891002
    outer loop
      vertex 1.44765 -2.5 0.176412
      vertex 1.63796 2.5 0.079442
      vertex 1.63796 -2.5 0.079442
    endloop
  endfacet
  facet normal -0.453999 0 -0.891002
    outer loop
      vertex 1.63796 2.5 0.079442
      vertex 1.44765 -2.5 0.176412
      vertex 1.44765 2.5 0.176412
    endloop
  endfacet
  facet normal 0.987691 0 -0.156415
    outer loop
      vertex -3.33978 -2.5 -2.2629
      vertex -3.37319 2.5 -2.47387
      vertex -3.33978 2.5 -2.2629
    endloop
  endfacet
  facet normal 0.987691 0 -0.156415
    outer loop
      vertex -3.37319 2.5 -2.47387
      vertex -3.33978 -2.5 -2.2629
      vertex -3.37319 -2.5 -2.47387
    endloop
  endfacet
  facet normal 0.750116 0 -0.661306
    outer loop
      vertex -2.47849 -2.5 -0.572539
      vertex -2.61974 2.5 -0.732758
      vertex -2.47849 2.5 -0.572539
    endloop
  endfacet
  facet normal 0.750116 0 -0.661306
    outer loop
      vertex -2.61974 2.5 -0.732758
      vertex -2.47849 -2.5 -0.572539
      vertex -2.61974 -2.5 -0.732758
    endloop
  endfacet
  facet normal 0.860739 0 -0.509046
    outer loop
      vertex -2.87071 -2.5 -1.07819
      vertex -2.97944 2.5 -1.26204
      vertex -2.87071 2.5 -1.07819
    endloop
  endfacet
  facet normal 0.860739 0 -0.509046
    outer loop
      vertex -2.97944 2.5 -1.26204
      vertex -2.87071 -2.5 -1.07819
      vertex -2.97944 -2.5 -1.26204
    endloop
  endfacet
  facet normal 0.940881 0 -0.338738
    outer loop
      vertex -3.16124 -2.5 -1.64838
      vertex -3.23359 2.5 -1.84934
      vertex -3.16124 2.5 -1.64838
    endloop
  endfacet
  facet normal 0.940881 0 -0.338738
    outer loop
      vertex -3.23359 2.5 -1.84934
      vertex -3.16124 -2.5 -1.64838
      vertex -3.23359 -2.5 -1.84934
    endloop
  endfacet
  facet normal 0.562082 0 -0.827082
    outer loop
      vertex -1.99847 -2.5 -0.149342
      vertex -1.82181 2.5 -0.0292845
      vertex -1.82181 -2.5 -0.0292845
    endloop
  endfacet
  facet normal 0.562082 0 -0.827082
    outer loop
      vertex -1.82181 2.5 -0.0292845
      vertex -1.99847 -2.5 -0.149342
      vertex -1.99847 2.5 -0.149342
    endloop
  endfacet
  facet normal 0.397141 0 -0.917758
    outer loop
      vertex -1.44765 -2.5 0.176412
      vertex -1.25162 2.5 0.26124
      vertex -1.25162 -2.5 0.26124
    endloop
  endfacet
  facet normal 0.397141 0 -0.917758
    outer loop
      vertex -1.25162 2.5 0.26124
      vertex -1.44765 -2.5 0.176412
      vertex -1.44765 2.5 0.176412
    endloop
  endfacet
  facet normal 0.218144 0 -0.975917
    outer loop
      vertex -0.845545 -2.5 0.393182
      vertex -0.637096 2.5 0.439776
      vertex -0.637096 -2.5 0.439776
    endloop
  endfacet
  facet normal 0.218144 0 -0.975917
    outer loop
      vertex -0.637096 2.5 0.439776
      vertex -0.845545 -2.5 0.393182
      vertex -0.845545 2.5 0.393182
    endloop
  endfacet
  facet normal 0.278989 0 -0.960294
    outer loop
      vertex -1.05066 -2.5 0.333591
      vertex -0.845545 2.5 0.393182
      vertex -0.845545 -2.5 0.393182
    endloop
  endfacet
  facet normal 0.278989 0 -0.960294
    outer loop
      vertex -0.845545 2.5 0.393182
      vertex -1.05066 -2.5 0.333591
      vertex -1.05066 2.5 0.333591
    endloop
  endfacet
  facet normal 0.0314148 0 -0.999506
    outer loop
      vertex -0.213488 -2.5 0.49329
      vertex 0 2.5 0.5
      vertex 0 -2.5 0.5
    endloop
  endfacet
  facet normal 0.0314148 0 -0.999506
    outer loop
      vertex 0 2.5 0.5
      vertex -0.213488 -2.5 0.49329
      vertex -0.213488 2.5 0.49329
    endloop
  endfacet
  facet normal -0.940881 0 -0.338738
    outer loop
      vertex 3.23359 -2.5 -1.84934
      vertex 3.16124 2.5 -1.64838
      vertex 3.23359 2.5 -1.84934
    endloop
  endfacet
  facet normal -0.940881 -0 -0.338738
    outer loop
      vertex 3.16124 2.5 -1.64838
      vertex 3.23359 -2.5 -1.84934
      vertex 3.16124 -2.5 -1.64838
    endloop
  endfacet
  facet normal -0.750116 0 -0.661306
    outer loop
      vertex 2.61974 -2.5 -0.732758
      vertex 2.47849 2.5 -0.572539
      vertex 2.61974 2.5 -0.732758
    endloop
  endfacet
  facet normal -0.750116 -0 -0.661306
    outer loop
      vertex 2.47849 2.5 -0.572539
      vertex 2.61974 -2.5 -0.732758
      vertex 2.47849 -2.5 -0.572539
    endloop
  endfacet
  facet normal -0.860739 0 -0.509046
    outer loop
      vertex 2.97944 -2.5 -1.26204
      vertex 2.87071 2.5 -1.07819
      vertex 2.97944 2.5 -1.26204
    endloop
  endfacet
  facet normal -0.860739 -0 -0.509046
    outer loop
      vertex 2.87071 2.5 -1.07819
      vertex 2.97944 -2.5 -1.26204
      vertex 2.87071 -2.5 -1.07819
    endloop
  endfacet
  facet normal -0.278989 0 -0.960294
    outer loop
      vertex 0.845545 -2.5 0.393182
      vertex 1.05066 2.5 0.333591
      vertex 1.05066 -2.5 0.333591
    endloop
  endfacet
  facet normal -0.278989 0 -0.960294
    outer loop
      vertex 1.05066 2.5 0.333591
      vertex 0.845545 -2.5 0.393182
      vertex 0.845545 2.5 0.393182
    endloop
  endfacet
  facet normal -0.0941094 0 -0.995562
    outer loop
      vertex 0.213488 -2.5 0.49329
      vertex 0.426132 2.5 0.473189
      vertex 0.426132 -2.5 0.473189
    endloop
  endfacet
  facet normal -0.0941094 0 -0.995562
    outer loop
      vertex 0.426132 2.5 0.473189
      vertex 0.213488 -2.5 0.49329
      vertex 0.213488 2.5 0.49329
    endloop
  endfacet
  facet normal -0.612909 0 -0.790154
    outer loop
      vertex 1.99847 -2.5 -0.149342
      vertex 2.16724 2.5 -0.280254
      vertex 2.16724 -2.5 -0.280254
    endloop
  endfacet
  facet normal -0.612909 0 -0.790154
    outer loop
      vertex 2.16724 2.5 -0.280254
      vertex 1.99847 -2.5 -0.149342
      vertex 1.99847 2.5 -0.149342
    endloop
  endfacet
  facet normal -0.562082 0 -0.827082
    outer loop
      vertex 1.82181 -2.5 -0.0292845
      vertex 1.99847 2.5 -0.149342
      vertex 1.99847 -2.5 -0.149342
    endloop
  endfacet
  facet normal -0.562082 0 -0.827082
    outer loop
      vertex 1.99847 2.5 -0.149342
      vertex 1.82181 -2.5 -0.0292845
      vertex 1.82181 2.5 -0.0292845
    endloop
  endfacet
  facet normal 0.707114 0 -0.7071
    outer loop
      vertex -2.32746 -2.5 -0.421506
      vertex -2.47849 2.5 -0.572539
      vertex -2.32746 2.5 -0.421506
    endloop
  endfacet
  facet normal 0.707114 0 -0.7071
    outer loop
      vertex -2.47849 2.5 -0.572539
      vertex -2.32746 -2.5 -0.421506
      vertex -2.47849 -2.5 -0.572539
    endloop
  endfacet
  facet normal 0.917754 0 -0.397149
    outer loop
      vertex -3.07641 -2.5 -1.45235
      vertex -3.16124 2.5 -1.64838
      vertex -3.07641 2.5 -1.45235
    endloop
  endfacet
  facet normal 0.917754 0 -0.397149
    outer loop
      vertex -3.16124 2.5 -1.64838
      vertex -3.07641 -2.5 -1.45235
      vertex -3.16124 -2.5 -1.64838
    endloop
  endfacet
  facet normal 0.995562 0 -0.0941079
    outer loop
      vertex -3.37319 -2.5 -2.47387
      vertex -3.37566 2.5 -2.5
      vertex -3.37319 2.5 -2.47387
    endloop
  endfacet
  facet normal 0.995562 0 -0.0941079
    outer loop
      vertex -3.37566 2.5 -2.5
      vertex -3.37319 -2.5 -2.47387
      vertex -3.37566 -2.5 -2.5
    endloop
  endfacet
  facet normal 0.453999 0 -0.891002
    outer loop
      vertex -1.63796 -2.5 0.079442
      vertex -1.44765 2.5 0.176412
      vertex -1.44765 -2.5 0.176412
    endloop
  endfacet
  facet normal 0.453999 0 -0.891002
    outer loop
      vertex -1.44765 2.5 0.176412
      vertex -1.63796 -2.5 0.079442
      vertex -1.63796 2.5 0.079442
    endloop
  endfacet
endsolid OpenSCAD_Model
