solid OpenSCAD_Model
  facet normal -1 0 0
    outer loop
      vertex -5 -2.5 -2.5
      vertex -5 2.5 2.5
      vertex -5 2.5 -2.5
    endloop
  endfacet
  facet normal -1 -0 0
    outer loop
      vertex -5 2.5 2.5
      vertex -5 -2.5 -2.5
      vertex -5 -2.5 2.5
    endloop
  endfacet
  facet normal -0 0 1
    outer loop
      vertex -5 2.5 2.5
      vertex 5 -2.5 2.5
      vertex 5 2.5 2.5
    endloop
  endfacet
  facet normal 0 0 1
    outer loop
      vertex 5 -2.5 2.5
      vertex -5 2.5 2.5
      vertex -5 -2.5 2.5
    endloop
  endfacet
  facet normal 1 -0 0
    outer loop
      vertex 5 -2.5 2.5
      vertex 5 2.5 -2.5
      vertex 5 2.5 2.5
    endloop
  endfacet
  facet normal 1 0 0
    outer loop
      vertex 5 2.5 -2.5
      vertex 5 -2.5 2.5
      vertex 5 -2.5 -2.5
    endloop
  endfacet
  facet normal 0 1 0
    outer loop
      vertex 5 2.5 2.5
      vertex 0 2.5 1.2
      vertex -5 2.5 2.5
    endloop
  endfacet
  facet normal 0 1 0
    outer loop
      vertex 5 2.5 2.5
      vertex 0.238604 2.5 1.1925
      vertex 0 2.5 1.2
    endloop
  endfacet
  facet normal 0 1 0
    outer loop
      vertex 5 2.5 2.5
      vertex 0.476266 2.5 1.17004
      vertex 0.238604 2.5 1.1925
    endloop
  endfacet
  facet normal 0 1 0
    outer loop
      vertex 5 2.5 2.5
      vertex 0.712049 2.5 1.13269
      vertex 0.476266 2.5 1.17004
    endloop
  endfacet
  facet normal 0 1 0
    outer loop
      vertex 5 2.5 2.5
      vertex 0.945021 2.5 1.08062
      vertex 0.712049 2.5 1.13269
    endloop
  endfacet
  facet normal 0 1 0
    outer loop
      vertex 5 2.5 2.5
      vertex 1.17426 2.5 1.01401
      vertex 0.945021 2.5 1.08062
    endloop
  endfacet
  facet normal 0 1 0
    outer loop
      vertex 5 2.5 2.5
      vertex 1.39887 2.5 0.93315
      vertex 1.17426 2.5 1.01401
    endloop
  endfacet
  facet normal 0 1 0
    outer loop
      vertex 5 2.5 2.5
      vertex 1.61796 2.5 0.838343
      vertex 1.39887 2.5 0.93315
    endloop
  endfacet
  facet normal 0 1 0
    outer loop
      vertex 5 2.5 2.5
      vertex 1.83066 2.5 0.729965
      vertex 1.61796 2.5 0.838343
    endloop
  endfacet
  facet normal 0 1 0
    outer loop
      vertex 5 2.5 2.5
      vertex 2.03614 2.5 0.608445
      vertex 1.83066 2.5 0.729965
    endloop
  endfacet
  facet normal 0 1 0
    outer loop
      vertex 5 2.5 2.5
      vertex 2.23358 2.5 0.474264
      vertex 2.03614 2.5 0.608445
    endloop
  endfacet
  facet normal 0 1 0
    outer loop
      vertex 5 2.5 2.5
      vertex 2.42221 2.5 0.32795
      vertex 2.23358 2.5 0.474264
    endloop
  endfacet
  facet normal 0 1 0
    outer loop
      vertex 5 2.5 2.5
      vertex 2.60128 2.5 0.17008
      vertex 2.42221 2.5 0.32795
    endloop
  endfacet
  facet normal 0 1 0
    outer loop
      vertex 5 2.5 2.5
      vertex 2.77008 2.5 0.00127888
      vertex 2.60128 2.5 0.17008
    endloop
  endfacet
  facet normal 0 1 0
    outer loop
      vertex 5 2.5 2.5
      vertex 2.92795 2.5 -0.177789
      vertex 2.77008 2.5 0.00127888
    endloop
  endfacet
  facet normal 0 1 0
    outer loop
      vertex 5 2.5 2.5
      vertex 3.07426 2.5 -0.366416
      vertex 2.92795 2.5 -0.177789
    endloop
  endfacet
  facet normal 0 1 0
    outer loop
      vertex 5 2.5 2.5
      vertex 3.20845 2.5 -0.563858
      vertex 3.07426 2.5 -0.366416
    endloop
  endfacet
  facet normal 0 1 0
    outer loop
      vertex 5 2.5 2.5
      vertex 3.32996 2.5 -0.769336
      vertex 3.20845 2.5 -0.563858
    endloop
  endfacet
  facet normal 0 1 0
    outer loop
      vertex 5 2.5 2.5
      vertex 3.43834 2.5 -0.982038
      vertex 3.32996 2.5 -0.769336
    endloop
  endfacet
  facet normal 0 1 -0
    outer loop
      vertex 5 2.5 -2.5
      vertex 3.43834 2.5 -0.982038
      vertex 5 2.5 2.5
    endloop
  endfacet
  facet normal 0 1 0
    outer loop
      vertex 3.43834 2.5 -0.982038
      vertex 5 2.5 -2.5
      vertex 3.53315 2.5 -1.20113
    endloop
  endfacet
  facet normal 0 1 0
    outer loop
      vertex 3.53315 2.5 -1.20113
      vertex 5 2.5 -2.5
      vertex 3.61401 2.5 -1.42573
    endloop
  endfacet
  facet normal 0 1 0
    outer loop
      vertex 3.61401 2.5 -1.42573
      vertex 5 2.5 -2.5
      vertex 3.68062 2.5 -1.65498
    endloop
  endfacet
  facet normal 0 1 0
    outer loop
      vertex 3.68062 2.5 -1.65498
      vertex 5 2.5 -2.5
      vertex 3.73269 2.5 -1.88795
    endloop
  endfacet
  facet normal 0 1 0
    outer loop
      vertex 3.73269 2.5 -1.88795
      vertex 5 2.5 -2.5
      vertex 3.77004 2.5 -2.12373
    endloop
  endfacet
  facet normal 0 1 0
    outer loop
      vertex 3.77004 2.5 -2.12373
      vertex 5 2.5 -2.5
      vertex 3.7925 2.5 -2.3614
    endloop
  endfacet
  facet normal 0 1 0
    outer loop
      vertex 3.7925 2.5 -2.3614
      vertex 5 2.5 -2.5
      vertex 3.79686 2.5 -2.5
    endloop
  endfacet
  facet normal 0 1 -0
    outer loop
      vertex -0.238604 2.5 1.1925
      vertex -5 2.5 2.5
      vertex 0 2.5 1.2
    endloop
  endfacet
  facet normal 0 1 -0
    outer loop
      vertex -0.476266 2.5 1.17004
      vertex -5 2.5 2.5
      vertex -0.238604 2.5 1.1925
    endloop
  endfacet
  facet normal 0 1 -0
    outer loop
      vertex -0.712049 2.5 1.13269
      vertex -5 2.5 2.5
      vertex -0.476266 2.5 1.17004
    endloop
  endfacet
  facet normal 0 1 -0
    outer loop
      vertex -0.945021 2.5 1.08062
      vertex -5 2.5 2.5
      vertex -0.712049 2.5 1.13269
    endloop
  endfacet
  facet normal 0 1 -0
    outer loop
      vertex -1.17426 2.5 1.01401
      vertex -5 2.5 2.5
      vertex -0.945021 2.5 1.08062
    endloop
  endfacet
  facet normal 0 1 -0
    outer loop
      vertex -1.39887 2.5 0.93315
      vertex -5 2.5 2.5
      vertex -1.17426 2.5 1.01401
    endloop
  endfacet
  facet normal 0 1 -0
    outer loop
      vertex -1.61796 2.5 0.838343
      vertex -5 2.5 2.5
      vertex -1.39887 2.5 0.93315
    endloop
  endfacet
  facet normal 0 1 -0
    outer loop
      vertex -1.83066 2.5 0.729965
      vertex -5 2.5 2.5
      vertex -1.61796 2.5 0.838343
    endloop
  endfacet
  facet normal 0 1 -0
    outer loop
      vertex -2.03614 2.5 0.608445
      vertex -5 2.5 2.5
      vertex -1.83066 2.5 0.729965
    endloop
  endfacet
  facet normal 0 1 -0
    outer loop
      vertex -2.23358 2.5 0.474264
      vertex -5 2.5 2.5
      vertex -2.03614 2.5 0.608445
    endloop
  endfacet
  facet normal 0 1 -0
    outer loop
      vertex -2.42221 2.5 0.32795
      vertex -5 2.5 2.5
      vertex -2.23358 2.5 0.474264
    endloop
  endfacet
  facet normal 0 1 -0
    outer loop
      vertex -2.60128 2.5 0.17008
      vertex -5 2.5 2.5
      vertex -2.42221 2.5 0.32795
    endloop
  endfacet
  facet normal 0 1 -0
    outer loop
      vertex -2.77008 2.5 0.00127888
      vertex -5 2.5 2.5
      vertex -2.60128 2.5 0.17008
    endloop
  endfacet
  facet normal 0 1 -0
    outer loop
      vertex -2.92795 2.5 -0.177789
      vertex -5 2.5 2.5
      vertex -2.77008 2.5 0.00127888
    endloop
  endfacet
  facet normal 0 1 -0
    outer loop
      vertex -3.07426 2.5 -0.366416
      vertex -5 2.5 2.5
      vertex -2.92795 2.5 -0.177789
    endloop
  endfacet
  facet normal 0 1 -0
    outer loop
      vertex -3.20845 2.5 -0.563858
      vertex -5 2.5 2.5
      vertex -3.07426 2.5 -0.366416
    endloop
  endfacet
  facet normal 0 1 -0
    outer loop
      vertex -3.32996 2.5 -0.769336
      vertex -5 2.5 2.5
      vertex -3.20845 2.5 -0.563858
    endloop
  endfacet
  facet normal 0 1 -0
    outer loop
      vertex -3.43834 2.5 -0.982038
      vertex -5 2.5 2.5
      vertex -3.32996 2.5 -0.769336
    endloop
  endfacet
  facet normal 0 1 0
    outer loop
      vertex -5 2.5 -2.5
      vertex -3.43834 2.5 -0.982038
      vertex -3.53315 2.5 -1.20113
    endloop
  endfacet
  facet normal 0 1 0
    outer loop
      vertex -5 2.5 -2.5
      vertex -3.53315 2.5 -1.20113
      vertex -3.61401 2.5 -1.42573
    endloop
  endfacet
  facet normal 0 1 0
    outer loop
      vertex -5 2.5 -2.5
      vertex -3.61401 2.5 -1.42573
      vertex -3.68062 2.5 -1.65498
    endloop
  endfacet
  facet normal 0 1 0
    outer loop
      vertex -5 2.5 -2.5
      vertex -3.68062 2.5 -1.65498
      vertex -3.73269 2.5 -1.88795
    endloop
  endfacet
  facet normal 0 1 0
    outer loop
      vertex -5 2.5 -2.5
      vertex -3.73269 2.5 -1.88795
      vertex -3.77004 2.5 -2.12373
    endloop
  endfacet
  facet normal 0 1 0
    outer loop
      vertex -5 2.5 -2.5
      vertex -3.77004 2.5 -2.12373
      vertex -3.7925 2.5 -2.3614
    endloop
  endfacet
  facet normal 0 1 0
    outer loop
      vertex -5 2.5 -2.5
      vertex -3.7925 2.5 -2.3614
      vertex -3.79686 2.5 -2.5
    endloop
  endfacet
  facet normal 0 1 0
    outer loop
      vertex -3.43834 2.5 -0.982038
      vertex -5 2.5 -2.5
      vertex -5 2.5 2.5
    endloop
  endfacet
  facet normal 0 0 -1
    outer loop
      vertex -5 -2.5 -2.5
      vertex -3.79686 2.5 -2.5
      vertex -3.79686 -2.5 -2.5
    endloop
  endfacet
  facet normal -0 0 -1
    outer loop
      vertex -3.79686 2.5 -2.5
      vertex -5 -2.5 -2.5
      vertex -5 2.5 -2.5
    endloop
  endfacet
  facet normal 0 0 -1
    outer loop
      vertex 3.79686 -2.5 -2.5
      vertex 5 2.5 -2.5
      vertex 5 -2.5 -2.5
    endloop
  endfacet
  facet normal -0 0 -1
    outer loop
      vertex 5 2.5 -2.5
      vertex 3.79686 -2.5 -2.5
      vertex 3.79686 2.5 -2.5
    endloop
  endfacet
  facet normal 0 -1 0
    outer loop
      vertex -5 -2.5 2.5
      vertex 0 -2.5 1.2
      vertex 5 -2.5 2.5
    endloop
  endfacet
  facet normal 0 -1 0
    outer loop
      vertex -5 -2.5 2.5
      vertex -0.238604 -2.5 1.1925
      vertex 0 -2.5 1.2
    endloop
  endfacet
  facet normal 0 -1 0
    outer loop
      vertex -5 -2.5 2.5
      vertex -0.476266 -2.5 1.17004
      vertex -0.238604 -2.5 1.1925
    endloop
  endfacet
  facet normal 0 -1 0
    outer loop
      vertex -5 -2.5 2.5
      vertex -0.712049 -2.5 1.13269
      vertex -0.476266 -2.5 1.17004
    endloop
  endfacet
  facet normal 0 -1 0
    outer loop
      vertex -5 -2.5 2.5
      vertex -0.945021 -2.5 1.08062
      vertex -0.712049 -2.5 1.13269
    endloop
  endfacet
  facet normal 0 -1 0
    outer loop
      vertex -5 -2.5 2.5
      vertex -1.17426 -2.5 1.01401
      vertex -0.945021 -2.5 1.08062
    endloop
  endfacet
  facet normal 0 -1 0
    outer loop
      vertex -5 -2.5 2.5
      vertex -1.39887 -2.5 0.93315
      vertex -1.17426 -2.5 1.01401
    endloop
  endfacet
  facet normal 0 -1 0
    outer loop
      vertex -5 -2.5 2.5
      vertex -1.61796 -2.5 0.838343
      vertex -1.39887 -2.5 0.93315
    endloop
  endfacet
  facet normal 0 -1 0
    outer loop
      vertex -5 -2.5 2.5
      vertex -1.83066 -2.5 0.729965
      vertex -1.61796 -2.5 0.838343
    endloop
  endfacet
  facet normal 0 -1 0
    outer loop
      vertex -5 -2.5 2.5
      vertex -2.03614 -2.5 0.608445
      vertex -1.83066 -2.5 0.729965
    endloop
  endfacet
  facet normal 0 -1 0
    outer loop
      vertex -5 -2.5 2.5
      vertex -2.23358 -2.5 0.474264
      vertex -2.03614 -2.5 0.608445
    endloop
  endfacet
  facet normal 0 -1 0
    outer loop
      vertex -5 -2.5 2.5
      vertex -2.42221 -2.5 0.32795
      vertex -2.23358 -2.5 0.474264
    endloop
  endfacet
  facet normal 0 -1 0
    outer loop
      vertex -5 -2.5 2.5
      vertex -2.60128 -2.5 0.17008
      vertex -2.42221 -2.5 0.32795
    endloop
  endfacet
  facet normal 0 -1 0
    outer loop
      vertex -5 -2.5 2.5
      vertex -2.77008 -2.5 0.00127888
      vertex -2.60128 -2.5 0.17008
    endloop
  endfacet
  facet normal 0 -1 0
    outer loop
      vertex -5 -2.5 2.5
      vertex -2.92795 -2.5 -0.177789
      vertex -2.77008 -2.5 0.00127888
    endloop
  endfacet
  facet normal 0 -1 0
    outer loop
      vertex -5 -2.5 2.5
      vertex -3.07426 -2.5 -0.366416
      vertex -2.92795 -2.5 -0.177789
    endloop
  endfacet
  facet normal 0 -1 0
    outer loop
      vertex -5 -2.5 2.5
      vertex -3.20845 -2.5 -0.563858
      vertex -3.07426 -2.5 -0.366416
    endloop
  endfacet
  facet normal 0 -1 0
    outer loop
      vertex -5 -2.5 2.5
      vertex -3.32996 -2.5 -0.769336
      vertex -3.20845 -2.5 -0.563858
    endloop
  endfacet
  facet normal 0 -1 0
    outer loop
      vertex -5 -2.5 2.5
      vertex -3.43834 -2.5 -0.982038
      vertex -3.32996 -2.5 -0.769336
    endloop
  endfacet
  facet normal 0 -1 0
    outer loop
      vertex -5 -2.5 -2.5
      vertex -3.43834 -2.5 -0.982038
      vertex -5 -2.5 2.5
    endloop
  endfacet
  facet normal 0 -1 0
    outer loop
      vertex -3.43834 -2.5 -0.982038
      vertex -5 -2.5 -2.5
      vertex -3.53315 -2.5 -1.20113
    endloop
  endfacet
  facet normal 0 -1 0
    outer loop
      vertex -3.53315 -2.5 -1.20113
      vertex -5 -2.5 -2.5
      vertex -3.61401 -2.5 -1.42573
    endloop
  endfacet
  facet normal 0 -1 0
    outer loop
      vertex -3.61401 -2.5 -1.42573
      vertex -5 -2.5 -2.5
      vertex -3.68062 -2.5 -1.65498
    endloop
  endfacet
  facet normal 0 -1 0
    outer loop
      vertex -3.68062 -2.5 -1.65498
      vertex -5 -2.5 -2.5
      vertex -3.73269 -2.5 -1.88795
    endloop
  endfacet
  facet normal 0 -1 0
    outer loop
      vertex -3.73269 -2.5 -1.88795
      vertex -5 -2.5 -2.5
      vertex -3.77004 -2.5 -2.12373
    endloop
  endfacet
  facet normal 0 -1 0
    outer loop
      vertex -3.77004 -2.5 -2.12373
      vertex -5 -2.5 -2.5
      vertex -3.7925 -2.5 -2.3614
    endloop
  endfacet
  facet normal 0 -1 0
    outer loop
      vertex -3.7925 -2.5 -2.3614
      vertex -5 -2.5 -2.5
      vertex -3.79686 -2.5 -2.5
    endloop
  endfacet
  facet normal 0 -1 0
    outer loop
      vertex 0.238604 -2.5 1.1925
      vertex 5 -2.5 2.5
      vertex 0 -2.5 1.2
    endloop
  endfacet
  facet normal 0 -1 0
    outer loop
      vertex 0.476266 -2.5 1.17004
      vertex 5 -2.5 2.5
      vertex 0.238604 -2.5 1.1925
    endloop
  endfacet
  facet normal 0 -1 0
    outer loop
      vertex 0.712049 -2.5 1.13269
      vertex 5 -2.5 2.5
      vertex 0.476266 -2.5 1.17004
    endloop
  endfacet
  facet normal 0 -1 0
    outer loop
      vertex 0.945021 -2.5 1.08062
      vertex 5 -2.5 2.5
      vertex 0.712049 -2.5 1.13269
    endloop
  endfacet
  facet normal 0 -1 0
    outer loop
      vertex 1.17426 -2.5 1.01401
      vertex 5 -2.5 2.5
      vertex 0.945021 -2.5 1.08062
    endloop
  endfacet
  facet normal 0 -1 0
    outer loop
      vertex 1.39887 -2.5 0.93315
      vertex 5 -2.5 2.5
      vertex 1.17426 -2.5 1.01401
    endloop
  endfacet
  facet normal 0 -1 0
    outer loop
      vertex 1.61796 -2.5 0.838343
      vertex 5 -2.5 2.5
      vertex 1.39887 -2.5 0.93315
    endloop
  endfacet
  facet normal 0 -1 0
    outer loop
      vertex 1.83066 -2.5 0.729965
      vertex 5 -2.5 2.5
      vertex 1.61796 -2.5 0.838343
    endloop
  endfacet
  facet normal 0 -1 0
    outer loop
      vertex 2.03614 -2.5 0.608445
      vertex 5 -2.5 2.5
      vertex 1.83066 -2.5 0.729965
    endloop
  endfacet
  facet normal 0 -1 0
    outer loop
      vertex 2.23358 -2.5 0.474264
      vertex 5 -2.5 2.5
      vertex 2.03614 -2.5 0.608445
    endloop
  endfacet
  facet normal 0 -1 0
    outer loop
      vertex 2.42221 -2.5 0.32795
      vertex 5 -2.5 2.5
      vertex 2.23358 -2.5 0.474264
    endloop
  endfacet
  facet normal 0 -1 0
    outer loop
      vertex 2.60128 -2.5 0.17008
      vertex 5 -2.5 2.5
      vertex 2.42221 -2.5 0.32795
    endloop
  endfacet
  facet normal 0 -1 0
    outer loop
      vertex 2.77008 -2.5 0.00127888
      vertex 5 -2.5 2.5
      vertex 2.60128 -2.5 0.17008
    endloop
  endfacet
  facet normal 0 -1 0
    outer loop
      vertex 2.92795 -2.5 -0.177789
      vertex 5 -2.5 2.5
      vertex 2.77008 -2.5 0.00127888
    endloop
  endfacet
  facet normal 0 -1 0
    outer loop
      vertex 3.07426 -2.5 -0.366416
      vertex 5 -2.5 2.5
      vertex 2.92795 -2.5 -0.177789
    endloop
  endfacet
  facet normal 0 -1 0
    outer loop
      vertex 3.20845 -2.5 -0.563858
      vertex 5 -2.5 2.5
      vertex 3.07426 -2.5 -0.366416
    endloop
  endfacet
  facet normal 0 -1 0
    outer loop
      vertex 3.32996 -2.5 -0.769336
      vertex 5 -2.5 2.5
      vertex 3.20845 -2.5 -0.563858
    endloop
  endfacet
  facet normal 0 -1 0
    outer loop
      vertex 3.43834 -2.5 -0.982038
      vertex 5 -2.5 2.5
      vertex 3.32996 -2.5 -0.769336
    endloop
  endfacet
  facet normal 0 -1 0
    outer loop
      vertex 5 -2.5 -2.5
      vertex 3.43834 -2.5 -0.982038
      vertex 3.53315 -2.5 -1.20113
    endloop
  endfacet
  facet normal 0 -1 0
    outer loop
      vertex 5 -2.5 -2.5
      vertex 3.53315 -2.5 -1.20113
      vertex 3.61401 -2.5 -1.42573
    endloop
  endfacet
  facet normal 0 -1 0
    outer loop
      vertex 5 -2.5 -2.5
      vertex 3.61401 -2.5 -1.42573
      vertex 3.68062 -2.5 -1.65498
    endloop
  endfacet
  facet normal 0 -1 0
    outer loop
      vertex 5 -2.5 -2.5
      vertex 3.68062 -2.5 -1.65498
      vertex 3.73269 -2.5 -1.88795
    endloop
  endfacet
  facet normal 0 -1 0
    outer loop
      vertex 5 -2.5 -2.5
      vertex 3.73269 -2.5 -1.88795
      vertex 3.77004 -2.5 -2.12373
    endloop
  endfacet
  facet normal 0 -1 0
    outer loop
      vertex 5 -2.5 -2.5
      vertex 3.77004 -2.5 -2.12373
      vertex 3.7925 -2.5 -2.3614
    endloop
  endfacet
  facet normal 0 -1 0
    outer loop
      vertex 5 -2.5 -2.5
      vertex 3.7925 -2.5 -2.3614
      vertex 3.79686 -2.5 -2.5
    endloop
  endfacet
  facet normal 0 -1 0
    outer loop
      vertex 3.43834 -2.5 -0.982038
      vertex 5 -2.5 -2.5
      vertex 5 -2.5 2.5
    endloop
  endfacet
  facet normal -0.999506 0 -0.0314419
    outer loop
      vertex 3.79686 -2.5 -2.5
      vertex 3.7925 2.5 -2.3614
      vertex 3.79686 2.5 -2.5
    endloop
  endfacet
  facet normal -0.999506 -0 -0.0314419
    outer loop
      vertex 3.7925 2.5 -2.3614
      vertex 3.79686 -2.5 -2.5
      vertex 3.7925 -2.5 -2.3614
    endloop
  endfacet
  facet normal -0.995564 0 -0.0940816
    outer loop
      vertex 3.7925 -2.5 -2.3614
      vertex 3.77004 2.5 -2.12373
      vertex 3.7925 2.5 -2.3614
    endloop
  endfacet
  facet normal -0.995564 -0 -0.0940816
    outer loop
      vertex 3.77004 2.5 -2.12373
      vertex 3.7925 -2.5 -2.3614
      vertex 3.77004 -2.5 -2.12373
    endloop
  endfacet
  facet normal 0.0314173 0 -0.999506
    outer loop
      vertex -0.238604 -2.5 1.1925
      vertex 0 2.5 1.2
      vertex 0 -2.5 1.2
    endloop
  endfacet
  facet normal 0.0314173 0 -0.999506
    outer loop
      vertex 0 2.5 1.2
      vertex -0.238604 -2.5 1.1925
      vertex -0.238604 2.5 1.1925
    endloop
  endfacet
  facet normal -0.661308 0 -0.750114
    outer loop
      vertex 2.42221 -2.5 0.32795
      vertex 2.60128 2.5 0.17008
      vertex 2.60128 -2.5 0.17008
    endloop
  endfacet
  facet normal -0.661308 0 -0.750114
    outer loop
      vertex 2.60128 2.5 0.17008
      vertex 2.42221 -2.5 0.32795
      vertex 2.42221 2.5 0.32795
    endloop
  endfacet
  facet normal 0.707109 0 -0.707104
    outer loop
      vertex -2.77008 -2.5 0.00127888
      vertex -2.60128 2.5 0.17008
      vertex -2.60128 -2.5 0.17008
    endloop
  endfacet
  facet normal 0.707109 0 -0.707104
    outer loop
      vertex -2.60128 2.5 0.17008
      vertex -2.77008 -2.5 0.00127888
      vertex -2.77008 2.5 0.00127888
    endloop
  endfacet
  facet normal 0.397142 0 -0.917757
    outer loop
      vertex -1.61796 -2.5 0.838343
      vertex -1.39887 2.5 0.93315
      vertex -1.39887 -2.5 0.93315
    endloop
  endfacet
  facet normal 0.397142 0 -0.917757
    outer loop
      vertex -1.39887 2.5 0.93315
      vertex -1.61796 -2.5 0.838343
      vertex -1.61796 2.5 0.838343
    endloop
  endfacet
  facet normal -0.891002 0 -0.454
    outer loop
      vertex 3.43834 -2.5 -0.982038
      vertex 3.32996 2.5 -0.769336
      vertex 3.43834 2.5 -0.982038
    endloop
  endfacet
  facet normal -0.891002 -0 -0.454
    outer loop
      vertex 3.32996 2.5 -0.769336
      vertex 3.43834 -2.5 -0.982038
      vertex 3.32996 -2.5 -0.769336
    endloop
  endfacet
  facet normal 0.827064 0 -0.562108
    outer loop
      vertex -3.07426 -2.5 -0.366416
      vertex -3.20845 2.5 -0.563858
      vertex -3.07426 2.5 -0.366416
    endloop
  endfacet
  facet normal 0.827064 0 -0.562108
    outer loop
      vertex -3.20845 2.5 -0.563858
      vertex -3.07426 -2.5 -0.366416
      vertex -3.20845 -2.5 -0.563858
    endloop
  endfacet
  facet normal 0.218122 0 -0.975922
    outer loop
      vertex -0.945021 -2.5 1.08062
      vertex -0.712049 2.5 1.13269
      vertex -0.712049 -2.5 1.13269
    endloop
  endfacet
  facet normal 0.218122 0 -0.975922
    outer loop
      vertex -0.712049 2.5 1.13269
      vertex -0.945021 -2.5 1.08062
      vertex -0.945021 2.5 1.08062
    endloop
  endfacet
  facet normal -0.790163 0 -0.612896
    outer loop
      vertex 3.07426 -2.5 -0.366416
      vertex 2.92795 2.5 -0.177789
      vertex 3.07426 2.5 -0.366416
    endloop
  endfacet
  facet normal -0.790163 -0 -0.612896
    outer loop
      vertex 2.92795 2.5 -0.177789
      vertex 3.07426 -2.5 -0.366416
      vertex 2.92795 -2.5 -0.177789
    endloop
  endfacet
  facet normal -0.156458 0 -0.987685
    outer loop
      vertex 0.476266 -2.5 1.17004
      vertex 0.712049 2.5 1.13269
      vertex 0.712049 -2.5 1.13269
    endloop
  endfacet
  facet normal -0.156458 0 -0.987685
    outer loop
      vertex 0.712049 2.5 1.13269
      vertex 0.476266 -2.5 1.17004
      vertex 0.476266 2.5 1.17004
    endloop
  endfacet
  facet normal -0.0940848 0 -0.995564
    outer loop
      vertex 0.238604 -2.5 1.1925
      vertex 0.476266 2.5 1.17004
      vertex 0.476266 -2.5 1.17004
    endloop
  endfacet
  facet normal -0.0940848 0 -0.995564
    outer loop
      vertex 0.476266 2.5 1.17004
      vertex 0.238604 -2.5 1.1925
      vertex 0.238604 2.5 1.1925
    endloop
  endfacet
  facet normal -0.612901 0 -0.79016
    outer loop
      vertex 2.23358 -2.5 0.474264
      vertex 2.42221 2.5 0.32795
      vertex 2.42221 -2.5 0.32795
    endloop
  endfacet
  facet normal -0.612901 0 -0.79016
    outer loop
      vertex 2.42221 2.5 0.32795
      vertex 2.23358 -2.5 0.474264
      vertex 2.23358 2.5 0.474264
    endloop
  endfacet
  facet normal 0.860759 0 -0.509012
    outer loop
      vertex -3.20845 -2.5 -0.563858
      vertex -3.32996 2.5 -0.769336
      vertex -3.20845 2.5 -0.563858
    endloop
  endfacet
  facet normal 0.860759 0 -0.509012
    outer loop
      vertex -3.32996 2.5 -0.769336
      vertex -3.20845 -2.5 -0.563858
      vertex -3.32996 -2.5 -0.769336
    endloop
  endfacet
  facet normal 0.987684 0 -0.156459
    outer loop
      vertex -3.73269 -2.5 -1.88795
      vertex -3.77004 2.5 -2.12373
      vertex -3.73269 2.5 -1.88795
    endloop
  endfacet
  facet normal 0.987684 0 -0.156459
    outer loop
      vertex -3.77004 2.5 -2.12373
      vertex -3.73269 -2.5 -1.88795
      vertex -3.77004 -2.5 -2.12373
    endloop
  endfacet
  facet normal 0.562086 0 -0.827079
    outer loop
      vertex -2.23358 -2.5 0.474264
      vertex -2.03614 2.5 0.608445
      vertex -2.03614 -2.5 0.608445
    endloop
  endfacet
  facet normal 0.562086 0 -0.827079
    outer loop
      vertex -2.03614 2.5 0.608445
      vertex -2.23358 -2.5 0.474264
      vertex -2.23358 2.5 0.474264
    endloop
  endfacet
  facet normal 0.156458 0 -0.987685
    outer loop
      vertex -0.712049 -2.5 1.13269
      vertex -0.476266 2.5 1.17004
      vertex -0.476266 -2.5 1.17004
    endloop
  endfacet
  facet normal 0.156458 0 -0.987685
    outer loop
      vertex -0.476266 2.5 1.17004
      vertex -0.712049 -2.5 1.13269
      vertex -0.712049 2.5 1.13269
    endloop
  endfacet
  facet normal -0.987684 0 -0.156459
    outer loop
      vertex 3.77004 -2.5 -2.12373
      vertex 3.73269 2.5 -1.88795
      vertex 3.77004 2.5 -2.12373
    endloop
  endfacet
  facet normal -0.987684 -0 -0.156459
    outer loop
      vertex 3.73269 2.5 -1.88795
      vertex 3.77004 -2.5 -2.12373
      vertex 3.73269 -2.5 -1.88795
    endloop
  endfacet
  facet normal -0.960286 0 -0.279017
    outer loop
      vertex 3.68062 -2.5 -1.65498
      vertex 3.61401 2.5 -1.42573
      vertex 3.68062 2.5 -1.65498
    endloop
  endfacet
  facet normal -0.960286 -0 -0.279017
    outer loop
      vertex 3.61401 2.5 -1.42573
      vertex 3.68062 -2.5 -1.65498
      vertex 3.61401 -2.5 -1.42573
    endloop
  endfacet
  facet normal -0.975921 0 -0.218123
    outer loop
      vertex 3.73269 -2.5 -1.88795
      vertex 3.68062 2.5 -1.65498
      vertex 3.73269 2.5 -1.88795
    endloop
  endfacet
  facet normal -0.975921 -0 -0.218123
    outer loop
      vertex 3.68062 2.5 -1.65498
      vertex 3.73269 -2.5 -1.88795
      vertex 3.68062 -2.5 -1.65498
    endloop
  endfacet
  facet normal -0.75011 0 -0.661313
    outer loop
      vertex 2.92795 -2.5 -0.177789
      vertex 2.77008 2.5 0.00127888
      vertex 2.92795 2.5 -0.177789
    endloop
  endfacet
  facet normal -0.75011 -0 -0.661313
    outer loop
      vertex 2.77008 2.5 0.00127888
      vertex 2.92795 -2.5 -0.177789
      vertex 2.77008 -2.5 0.00127888
    endloop
  endfacet
  facet normal -0.279029 0 -0.960283
    outer loop
      vertex 0.945021 -2.5 1.08062
      vertex 1.17426 2.5 1.01401
      vertex 1.17426 -2.5 1.01401
    endloop
  endfacet
  facet normal -0.279029 0 -0.960283
    outer loop
      vertex 1.17426 2.5 1.01401
      vertex 0.945021 -2.5 1.08062
      vertex 0.945021 2.5 1.08062
    endloop
  endfacet
  facet normal -0.0314173 0 -0.999506
    outer loop
      vertex 0 -2.5 1.2
      vertex 0.238604 2.5 1.1925
      vertex 0.238604 -2.5 1.1925
    endloop
  endfacet
  facet normal -0.0314173 0 -0.999506
    outer loop
      vertex 0.238604 2.5 1.1925
      vertex 0 -2.5 1.2
      vertex 0 2.5 1.2
    endloop
  endfacet
  facet normal -0.338721 0 -0.940887
    outer loop
      vertex 1.17426 -2.5 1.01401
      vertex 1.39887 2.5 0.93315
      vertex 1.39887 -2.5 0.93315
    endloop
  endfacet
  facet normal -0.338721 0 -0.940887
    outer loop
      vertex 1.39887 2.5 0.93315
      vertex 1.17426 -2.5 1.01401
      vertex 1.17426 2.5 1.01401
    endloop
  endfacet
  facet normal -0.453997 0 -0.891003
    outer loop
      vertex 1.61796 -2.5 0.838343
      vertex 1.83066 2.5 0.729965
      vertex 1.83066 -2.5 0.729965
    endloop
  endfacet
  facet normal -0.453997 0 -0.891003
    outer loop
      vertex 1.83066 2.5 0.729965
      vertex 1.61796 -2.5 0.838343
      vertex 1.61796 2.5 0.838343
    endloop
  endfacet
  facet normal -0.50904 0 -0.860743
    outer loop
      vertex 1.83066 -2.5 0.729965
      vertex 2.03614 2.5 0.608445
      vertex 2.03614 -2.5 0.608445
    endloop
  endfacet
  facet normal -0.50904 0 -0.860743
    outer loop
      vertex 2.03614 2.5 0.608445
      vertex 1.83066 -2.5 0.729965
      vertex 1.83066 2.5 0.729965
    endloop
  endfacet
  facet normal 0.995564 0 -0.0940816
    outer loop
      vertex -3.77004 -2.5 -2.12373
      vertex -3.7925 2.5 -2.3614
      vertex -3.77004 2.5 -2.12373
    endloop
  endfacet
  facet normal 0.995564 0 -0.0940816
    outer loop
      vertex -3.7925 2.5 -2.3614
      vertex -3.77004 -2.5 -2.12373
      vertex -3.7925 -2.5 -2.3614
    endloop
  endfacet
  facet normal 0.790163 0 -0.612896
    outer loop
      vertex -2.92795 -2.5 -0.177789
      vertex -3.07426 2.5 -0.366416
      vertex -2.92795 2.5 -0.177789
    endloop
  endfacet
  facet normal 0.790163 0 -0.612896
    outer loop
      vertex -3.07426 2.5 -0.366416
      vertex -2.92795 -2.5 -0.177789
      vertex -3.07426 -2.5 -0.366416
    endloop
  endfacet
  facet normal 0.891002 0 -0.454
    outer loop
      vertex -3.32996 -2.5 -0.769336
      vertex -3.43834 2.5 -0.982038
      vertex -3.32996 2.5 -0.769336
    endloop
  endfacet
  facet normal 0.891002 0 -0.454
    outer loop
      vertex -3.43834 2.5 -0.982038
      vertex -3.32996 -2.5 -0.769336
      vertex -3.43834 -2.5 -0.982038
    endloop
  endfacet
  facet normal 0.940882 0 -0.338734
    outer loop
      vertex -3.53315 -2.5 -1.20113
      vertex -3.61401 2.5 -1.42573
      vertex -3.53315 2.5 -1.20113
    endloop
  endfacet
  facet normal 0.940882 0 -0.338734
    outer loop
      vertex -3.61401 2.5 -1.42573
      vertex -3.53315 -2.5 -1.20113
      vertex -3.61401 -2.5 -1.42573
    endloop
  endfacet
  facet normal 0.960286 0 -0.279017
    outer loop
      vertex -3.61401 -2.5 -1.42573
      vertex -3.68062 2.5 -1.65498
      vertex -3.61401 2.5 -1.42573
    endloop
  endfacet
  facet normal 0.960286 0 -0.279017
    outer loop
      vertex -3.68062 2.5 -1.65498
      vertex -3.61401 -2.5 -1.42573
      vertex -3.68062 -2.5 -1.65498
    endloop
  endfacet
  facet normal 0.612901 0 -0.79016
    outer loop
      vertex -2.42221 -2.5 0.32795
      vertex -2.23358 2.5 0.474264
      vertex -2.23358 -2.5 0.474264
    endloop
  endfacet
  facet normal 0.612901 0 -0.79016
    outer loop
      vertex -2.23358 2.5 0.474264
      vertex -2.42221 -2.5 0.32795
      vertex -2.42221 2.5 0.32795
    endloop
  endfacet
  facet normal 0.453997 0 -0.891003
    outer loop
      vertex -1.83066 -2.5 0.729965
      vertex -1.61796 2.5 0.838343
      vertex -1.61796 -2.5 0.838343
    endloop
  endfacet
  facet normal 0.453997 0 -0.891003
    outer loop
      vertex -1.61796 2.5 0.838343
      vertex -1.83066 -2.5 0.729965
      vertex -1.83066 2.5 0.729965
    endloop
  endfacet
  facet normal 0.279029 0 -0.960283
    outer loop
      vertex -1.17426 -2.5 1.01401
      vertex -0.945021 2.5 1.08062
      vertex -0.945021 -2.5 1.08062
    endloop
  endfacet
  facet normal 0.279029 0 -0.960283
    outer loop
      vertex -0.945021 2.5 1.08062
      vertex -1.17426 -2.5 1.01401
      vertex -1.17426 2.5 1.01401
    endloop
  endfacet
  facet normal 0.338721 0 -0.940887
    outer loop
      vertex -1.39887 -2.5 0.93315
      vertex -1.17426 2.5 1.01401
      vertex -1.17426 -2.5 1.01401
    endloop
  endfacet
  facet normal 0.338721 0 -0.940887
    outer loop
      vertex -1.17426 2.5 1.01401
      vertex -1.39887 -2.5 0.93315
      vertex -1.39887 2.5 0.93315
    endloop
  endfacet
  facet normal 0.0940848 0 -0.995564
    outer loop
      vertex -0.476266 -2.5 1.17004
      vertex -0.238604 2.5 1.1925
      vertex -0.238604 -2.5 1.1925
    endloop
  endfacet
  facet normal 0.0940848 0 -0.995564
    outer loop
      vertex -0.238604 2.5 1.1925
      vertex -0.476266 -2.5 1.17004
      vertex -0.476266 2.5 1.17004
    endloop
  endfacet
  facet normal -0.940882 0 -0.338734
    outer loop
      vertex 3.61401 -2.5 -1.42573
      vertex 3.53315 2.5 -1.20113
      vertex 3.61401 2.5 -1.42573
    endloop
  endfacet
  facet normal -0.940882 -0 -0.338734
    outer loop
      vertex 3.53315 2.5 -1.20113
      vertex 3.61401 -2.5 -1.42573
      vertex 3.53315 -2.5 -1.20113
    endloop
  endfacet
  facet normal -0.917754 0 -0.397149
    outer loop
      vertex 3.53315 -2.5 -1.20113
      vertex 3.43834 2.5 -0.982038
      vertex 3.53315 2.5 -1.20113
    endloop
  endfacet
  facet normal -0.917754 -0 -0.397149
    outer loop
      vertex 3.43834 2.5 -0.982038
      vertex 3.53315 -2.5 -1.20113
      vertex 3.43834 -2.5 -0.982038
    endloop
  endfacet
  facet normal -0.707109 0 -0.707104
    outer loop
      vertex 2.60128 -2.5 0.17008
      vertex 2.77008 2.5 0.00127888
      vertex 2.77008 -2.5 0.00127888
    endloop
  endfacet
  facet normal -0.707109 0 -0.707104
    outer loop
      vertex 2.77008 2.5 0.00127888
      vertex 2.60128 -2.5 0.17008
      vertex 2.60128 2.5 0.17008
    endloop
  endfacet
  facet normal -0.860759 0 -0.509012
    outer loop
      vertex 3.32996 -2.5 -0.769336
      vertex 3.20845 2.5 -0.563858
      vertex 3.32996 2.5 -0.769336
    endloop
  endfacet
  facet normal -0.860759 -0 -0.509012
    outer loop
      vertex 3.20845 2.5 -0.563858
      vertex 3.32996 -2.5 -0.769336
      vertex 3.20845 -2.5 -0.563858
    endloop
  endfacet
  facet normal -0.827064 0 -0.562108
    outer loop
      vertex 3.20845 -2.5 -0.563858
      vertex 3.07426 2.5 -0.366416
      vertex 3.20845 2.5 -0.563858
    endloop
  endfacet
  facet normal -0.827064 -0 -0.562108
    outer loop
      vertex 3.07426 2.5 -0.366416
      vertex 3.20845 -2.5 -0.563858
      vertex 3.07426 -2.5 -0.366416
    endloop
  endfacet
  facet normal -0.218122 0 -0.975922
    outer loop
      vertex 0.712049 -2.5 1.13269
      vertex 0.945021 2.5 1.08062
      vertex 0.945021 -2.5 1.08062
    endloop
  endfacet
  facet normal -0.218122 0 -0.975922
    outer loop
      vertex 0.945021 2.5 1.08062
      vertex 0.712049 -2.5 1.13269
      vertex 0.712049 2.5 1.13269
    endloop
  endfacet
  facet normal -0.397142 0 -0.917757
    outer loop
      vertex 1.39887 -2.5 0.93315
      vertex 1.61796 2.5 0.838343
      vertex 1.61796 -2.5 0.838343
    endloop
  endfacet
  facet normal -0.397142 0 -0.917757
    outer loop
      vertex 1.61796 2.5 0.838343
      vertex 1.39887 -2.5 0.93315
      vertex 1.39887 2.5 0.93315
    endloop
  endfacet
  facet normal -0.562086 0 -0.827079
    outer loop
      vertex 2.03614 -2.5 0.608445
      vertex 2.23358 2.5 0.474264
      vertex 2.23358 -2.5 0.474264
    endloop
  endfacet
  facet normal -0.562086 0 -0.827079
    outer loop
      vertex 2.23358 2.5 0.474264
      vertex 2.03614 -2.5 0.608445
      vertex 2.03614 2.5 0.608445
    endloop
  endfacet
  facet normal 0.75011 0 -0.661313
    outer loop
      vertex -2.77008 -2.5 0.00127888
      vertex -2.92795 2.5 -0.177789
      vertex -2.77008 2.5 0.00127888
    endloop
  endfacet
  facet normal 0.75011 0 -0.661313
    outer loop
      vertex -2.92795 2.5 -0.177789
      vertex -2.77008 -2.5 0.00127888
      vertex -2.92795 -2.5 -0.177789
    endloop
  endfacet
  facet normal 0.917754 0 -0.397149
    outer loop
      vertex -3.43834 -2.5 -0.982038
      vertex -3.53315 2.5 -1.20113
      vertex -3.43834 2.5 -0.982038
    endloop
  endfacet
  facet normal 0.917754 0 -0.397149
    outer loop
      vertex -3.53315 2.5 -1.20113
      vertex -3.43834 -2.5 -0.982038
      vertex -3.53315 -2.5 -1.20113
    endloop
  endfacet
  facet normal 0.975921 0 -0.218123
    outer loop
      vertex -3.68062 -2.5 -1.65498
      vertex -3.73269 2.5 -1.88795
      vertex -3.68062 2.5 -1.65498
    endloop
  endfacet
  facet normal 0.975921 0 -0.218123
    outer loop
      vertex -3.73269 2.5 -1.88795
      vertex -3.68062 -2.5 -1.65498
      vertex -3.73269 -2.5 -1.88795
    endloop
  endfacet
  facet normal 0.999506 0 -0.0314419
    outer loop
      vertex -3.7925 -2.5 -2.3614
      vertex -3.79686 2.5 -2.5
      vertex -3.7925 2.5 -2.3614
    endloop
  endfacet
  facet normal 0.999506 0 -0.0314419
    outer loop
      vertex -3.79686 2.5 -2.5
      vertex -3.7925 -2.5 -2.3614
      vertex -3.79686 -2.5 -2.5
    endloop
  endfacet
  facet normal 0.661308 0 -0.750114
    outer loop
      vertex -2.60128 -2.5 0.17008
      vertex -2.42221 2.5 0.32795
      vertex -2.42221 -2.5 0.32795
    endloop
  endfacet
  facet normal 0.661308 0 -0.750114
    outer loop
      vertex -2.42221 2.5 0.32795
      vertex -2.60128 -2.5 0.17008
      vertex -2.60128 2.5 0.17008
    endloop
  endfacet
  facet normal 0.50904 0 -0.860743
    outer loop
      vertex -2.03614 -2.5 0.608445
      vertex -1.83066 2.5 0.729965
      vertex -1.83066 -2.5 0.729965
    endloop
  endfacet
  facet normal 0.50904 0 -0.860743
    outer loop
      vertex -1.83066 2.5 0.729965
      vertex -2.03614 -2.5 0.608445
      vertex -2.03614 2.5 0.608445
    endloop
  endfacet
endsolid OpenSCAD_Model
