solid OpenSCAD_Model
  facet normal -1 0 0
    outer loop
      vertex -5 -2.5 -2.5
      vertex -5 2.5 2.5
      vertex -5 2.5 -2.5
    endloop
  endfacet
  facet normal -1 -0 0
    outer loop
      vertex -5 2.5 2.5
      vertex -5 -2.5 -2.5
      vertex -5 -2.5 2.5
    endloop
  endfacet
  facet normal -0 0 1
    outer loop
      vertex -5 2.5 2.5
      vertex 5 -2.5 2.5
      vertex 5 2.5 2.5
    endloop
  endfacet
  facet normal 0 0 1
    outer loop
      vertex 5 -2.5 2.5
      vertex -5 2.5 2.5
      vertex -5 -2.5 2.5
    endloop
  endfacet
  facet normal 1 -0 0
    outer loop
      vertex 5 -2.5 2.5
      vertex 5 2.5 -2.5
      vertex 5 2.5 2.5
    endloop
  endfacet
  facet normal 1 0 0
    outer loop
      vertex 5 2.5 -2.5
      vertex 5 -2.5 2.5
      vertex 5 -2.5 -2.5
    endloop
  endfacet
  facet normal 0 0 -1
    outer loop
      vertex -5 -2.5 -2.5
      vertex -3.1591 2.5 -2.5
      vertex -3.1591 -2.5 -2.5
    endloop
  endfacet
  facet normal -0 0 -1
    outer loop
      vertex -3.1591 2.5 -2.5
      vertex -5 -2.5 -2.5
      vertex -5 2.5 -2.5
    endloop
  endfacet
  facet normal 0 0 -1
    outer loop
      vertex 3.1591 -2.5 -2.5
      vertex 5 2.5 -2.5
      vertex 5 -2.5 -2.5
    endloop
  endfacet
  facet normal -0 0 -1
    outer loop
      vertex 5 2.5 -2.5
      vertex 3.1591 -2.5 -2.5
      vertex 3.1591 2.5 -2.5
    endloop
  endfacet
  facet normal 0 -1 0
    outer loop
      vertex -5 -2.5 2.5
      vertex 0 -2.5 1.2
      vertex 5 -2.5 2.5
    endloop
  endfacet
  facet normal 0 -1 0
    outer loop
      vertex -5 -2.5 2.5
      vertex -0.20093 -2.5 1.19368
      vertex 0 -2.5 1.2
    endloop
  endfacet
  facet normal 0 -1 0
    outer loop
      vertex -5 -2.5 2.5
      vertex -0.401066 -2.5 1.17477
      vertex -0.20093 -2.5 1.19368
    endloop
  endfacet
  facet normal 0 -1 0
    outer loop
      vertex -5 -2.5 2.5
      vertex -0.59962 -2.5 1.14332
      vertex -0.401066 -2.5 1.17477
    endloop
  endfacet
  facet normal 0 -1 0
    outer loop
      vertex -5 -2.5 2.5
      vertex -0.795807 -2.5 1.09947
      vertex -0.59962 -2.5 1.14332
    endloop
  endfacet
  facet normal 0 -1 0
    outer loop
      vertex -5 -2.5 2.5
      vertex -0.988853 -2.5 1.04338
      vertex -0.795807 -2.5 1.09947
    endloop
  endfacet
  facet normal 0 -1 0
    outer loop
      vertex -5 -2.5 2.5
      vertex -1.178 -2.5 0.975285
      vertex -0.988853 -2.5 1.04338
    endloop
  endfacet
  facet normal 0 -1 0
    outer loop
      vertex -5 -2.5 2.5
      vertex -1.36249 -2.5 0.895446
      vertex -1.178 -2.5 0.975285
    endloop
  endfacet
  facet normal 0 -1 0
    outer loop
      vertex -5 -2.5 2.5
      vertex -1.54161 -2.5 0.804181
      vertex -1.36249 -2.5 0.895446
    endloop
  endfacet
  facet normal 0 -1 0
    outer loop
      vertex -5 -2.5 2.5
      vertex -1.71465 -2.5 0.701849
      vertex -1.54161 -2.5 0.804181
    endloop
  endfacet
  facet normal 0 -1 0
    outer loop
      vertex -5 -2.5 2.5
      vertex -1.88091 -2.5 0.588854
      vertex -1.71465 -2.5 0.701849
    endloop
  endfacet
  facet normal 0 -1 0
    outer loop
      vertex -5 -2.5 2.5
      vertex -2.03976 -2.5 0.465642
      vertex -1.88091 -2.5 0.588854
    endloop
  endfacet
  facet normal 0 -1 0
    outer loop
      vertex -5 -2.5 2.5
      vertex -2.19055 -2.5 0.332699
      vertex -2.03976 -2.5 0.465642
    endloop
  endfacet
  facet normal 0 -1 0
    outer loop
      vertex -5 -2.5 2.5
      vertex -2.3327 -2.5 0.19055
      vertex -2.19055 -2.5 0.332699
    endloop
  endfacet
  facet normal 0 -1 0
    outer loop
      vertex -5 -2.5 2.5
      vertex -2.46564 -2.5 0.0397558
      vertex -2.3327 -2.5 0.19055
    endloop
  endfacet
  facet normal 0 -1 0
    outer loop
      vertex -5 -2.5 2.5
      vertex -2.58885 -2.5 -0.119086
      vertex -2.46564 -2.5 0.0397558
    endloop
  endfacet
  facet normal 0 -1 0
    outer loop
      vertex -5 -2.5 2.5
      vertex -2.70185 -2.5 -0.285354
      vertex -2.58885 -2.5 -0.119086
    endloop
  endfacet
  facet normal 0 -1 0
    outer loop
      vertex -5 -2.5 2.5
      vertex -2.80418 -2.5 -0.458387
      vertex -2.70185 -2.5 -0.285354
    endloop
  endfacet
  facet normal 0 -1 0
    outer loop
      vertex -5 -2.5 2.5
      vertex -2.89545 -2.5 -0.637506
      vertex -2.80418 -2.5 -0.458387
    endloop
  endfacet
  facet normal 0 -1 0
    outer loop
      vertex -5 -2.5 2.5
      vertex -2.97528 -2.5 -0.822001
      vertex -2.89545 -2.5 -0.637506
    endloop
  endfacet
  facet normal 0 -1 0
    outer loop
      vertex -5 -2.5 -2.5
      vertex -2.97528 -2.5 -0.822001
      vertex -5 -2.5 2.5
    endloop
  endfacet
  facet normal 0 -1 0
    outer loop
      vertex -2.97528 -2.5 -0.822001
      vertex -5 -2.5 -2.5
      vertex -3.04338 -2.5 -1.01115
    endloop
  endfacet
  facet normal 0 -1 0
    outer loop
      vertex -3.04338 -2.5 -1.01115
      vertex -5 -2.5 -2.5
      vertex -3.09947 -2.5 -1.20419
    endloop
  endfacet
  facet normal 0 -1 0
    outer loop
      vertex -3.09947 -2.5 -1.20419
      vertex -5 -2.5 -2.5
      vertex -3.14332 -2.5 -1.40038
    endloop
  endfacet
  facet normal 0 -1 0
    outer loop
      vertex -3.14332 -2.5 -1.40038
      vertex -5 -2.5 -2.5
      vertex -3.17477 -2.5 -1.59893
    endloop
  endfacet
  facet normal 0 -1 0
    outer loop
      vertex -3.17477 -2.5 -1.59893
      vertex -5 -2.5 -2.5
      vertex -3.19368 -2.5 -1.79907
    endloop
  endfacet
  facet normal 0 -1 0
    outer loop
      vertex -3.19368 -2.5 -1.79907
      vertex -5 -2.5 -2.5
      vertex -3.2 -2.5 -2
    endloop
  endfacet
  facet normal 0 -1 -0
    outer loop
      vertex -3.2 -2.5 -2
      vertex -5 -2.5 -2.5
      vertex -3.19368 -2.5 -2.20093
    endloop
  endfacet
  facet normal 0 -1 -0
    outer loop
      vertex -3.19368 -2.5 -2.20093
      vertex -5 -2.5 -2.5
      vertex -3.17477 -2.5 -2.40107
    endloop
  endfacet
  facet normal 0 -1 -0
    outer loop
      vertex -3.17477 -2.5 -2.40107
      vertex -5 -2.5 -2.5
      vertex -3.1591 -2.5 -2.5
    endloop
  endfacet
  facet normal 0 -1 0
    outer loop
      vertex 0.20093 -2.5 1.19368
      vertex 5 -2.5 2.5
      vertex 0 -2.5 1.2
    endloop
  endfacet
  facet normal 0 -1 0
    outer loop
      vertex 0.401066 -2.5 1.17477
      vertex 5 -2.5 2.5
      vertex 0.20093 -2.5 1.19368
    endloop
  endfacet
  facet normal 0 -1 0
    outer loop
      vertex 0.59962 -2.5 1.14332
      vertex 5 -2.5 2.5
      vertex 0.401066 -2.5 1.17477
    endloop
  endfacet
  facet normal 0 -1 0
    outer loop
      vertex 0.795807 -2.5 1.09947
      vertex 5 -2.5 2.5
      vertex 0.59962 -2.5 1.14332
    endloop
  endfacet
  facet normal 0 -1 0
    outer loop
      vertex 0.988853 -2.5 1.04338
      vertex 5 -2.5 2.5
      vertex 0.795807 -2.5 1.09947
    endloop
  endfacet
  facet normal 0 -1 0
    outer loop
      vertex 1.178 -2.5 0.975285
      vertex 5 -2.5 2.5
      vertex 0.988853 -2.5 1.04338
    endloop
  endfacet
  facet normal 0 -1 0
    outer loop
      vertex 1.36249 -2.5 0.895446
      vertex 5 -2.5 2.5
      vertex 1.178 -2.5 0.975285
    endloop
  endfacet
  facet normal 0 -1 0
    outer loop
      vertex 1.54161 -2.5 0.804181
      vertex 5 -2.5 2.5
      vertex 1.36249 -2.5 0.895446
    endloop
  endfacet
  facet normal 0 -1 0
    outer loop
      vertex 1.71465 -2.5 0.701849
      vertex 5 -2.5 2.5
      vertex 1.54161 -2.5 0.804181
    endloop
  endfacet
  facet normal 0 -1 0
    outer loop
      vertex 1.88091 -2.5 0.588854
      vertex 5 -2.5 2.5
      vertex 1.71465 -2.5 0.701849
    endloop
  endfacet
  facet normal 0 -1 0
    outer loop
      vertex 2.03976 -2.5 0.465642
      vertex 5 -2.5 2.5
      vertex 1.88091 -2.5 0.588854
    endloop
  endfacet
  facet normal 0 -1 0
    outer loop
      vertex 2.19055 -2.5 0.332699
      vertex 5 -2.5 2.5
      vertex 2.03976 -2.5 0.465642
    endloop
  endfacet
  facet normal 0 -1 0
    outer loop
      vertex 2.3327 -2.5 0.19055
      vertex 5 -2.5 2.5
      vertex 2.19055 -2.5 0.332699
    endloop
  endfacet
  facet normal 0 -1 0
    outer loop
      vertex 2.46564 -2.5 0.0397558
      vertex 5 -2.5 2.5
      vertex 2.3327 -2.5 0.19055
    endloop
  endfacet
  facet normal 0 -1 0
    outer loop
      vertex 2.58885 -2.5 -0.119086
      vertex 5 -2.5 2.5
      vertex 2.46564 -2.5 0.0397558
    endloop
  endfacet
  facet normal 0 -1 0
    outer loop
      vertex 2.70185 -2.5 -0.285354
      vertex 5 -2.5 2.5
      vertex 2.58885 -2.5 -0.119086
    endloop
  endfacet
  facet normal 0 -1 0
    outer loop
      vertex 2.80418 -2.5 -0.458387
      vertex 5 -2.5 2.5
      vertex 2.70185 -2.5 -0.285354
    endloop
  endfacet
  facet normal 0 -1 0
    outer loop
      vertex 2.89545 -2.5 -0.637506
      vertex 5 -2.5 2.5
      vertex 2.80418 -2.5 -0.458387
    endloop
  endfacet
  facet normal 0 -1 0
    outer loop
      vertex 2.97528 -2.5 -0.822001
      vertex 5 -2.5 2.5
      vertex 2.89545 -2.5 -0.637506
    endloop
  endfacet
  facet normal 0 -1 0
    outer loop
      vertex 5 -2.5 -2.5
      vertex 2.97528 -2.5 -0.822001
      vertex 3.04338 -2.5 -1.01115
    endloop
  endfacet
  facet normal 0 -1 0
    outer loop
      vertex 5 -2.5 -2.5
      vertex 3.04338 -2.5 -1.01115
      vertex 3.09947 -2.5 -1.20419
    endloop
  endfacet
  facet normal 0 -1 0
    outer loop
      vertex 5 -2.5 -2.5
      vertex 3.09947 -2.5 -1.20419
      vertex 3.14332 -2.5 -1.40038
    endloop
  endfacet
  facet normal 0 -1 0
    outer loop
      vertex 5 -2.5 -2.5
      vertex 3.14332 -2.5 -1.40038
      vertex 3.17477 -2.5 -1.59893
    endloop
  endfacet
  facet normal 0 -1 0
    outer loop
      vertex 5 -2.5 -2.5
      vertex 3.17477 -2.5 -1.59893
      vertex 3.19368 -2.5 -1.79907
    endloop
  endfacet
  facet normal 0 -1 0
    outer loop
      vertex 5 -2.5 -2.5
      vertex 3.19368 -2.5 -1.79907
      vertex 3.2 -2.5 -2
    endloop
  endfacet
  facet normal 0 -1 0
    outer loop
      vertex 5 -2.5 -2.5
      vertex 3.2 -2.5 -2
      vertex 3.19368 -2.5 -2.20093
    endloop
  endfacet
  facet normal 0 -1 0
    outer loop
      vertex 5 -2.5 -2.5
      vertex 3.19368 -2.5 -2.20093
      vertex 3.17477 -2.5 -2.40107
    endloop
  endfacet
  facet normal 0 -1 0
    outer loop
      vertex 5 -2.5 -2.5
      vertex 3.17477 -2.5 -2.40107
      vertex 3.1591 -2.5 -2.5
    endloop
  endfacet
  facet normal 0 -1 0
    outer loop
      vertex 2.97528 -2.5 -0.822001
      vertex 5 -2.5 -2.5
      vertex 5 -2.5 2.5
    endloop
  endfacet
  facet normal 0 1 0
    outer loop
      vertex 5 2.5 2.5
      vertex 0 2.5 1.2
      vertex -5 2.5 2.5
    endloop
  endfacet
  facet normal 0 1 0
    outer loop
      vertex 5 2.5 2.5
      vertex 0.20093 2.5 1.19368
      vertex 0 2.5 1.2
    endloop
  endfacet
  facet normal 0 1 0
    outer loop
      vertex 5 2.5 2.5
      vertex 0.401066 2.5 1.17477
      vertex 0.20093 2.5 1.19368
    endloop
  endfacet
  facet normal 0 1 0
    outer loop
      vertex 5 2.5 2.5
      vertex 0.59962 2.5 1.14332
      vertex 0.401066 2.5 1.17477
    endloop
  endfacet
  facet normal 0 1 0
    outer loop
      vertex 5 2.5 2.5
      vertex 0.795807 2.5 1.09947
      vertex 0.59962 2.5 1.14332
    endloop
  endfacet
  facet normal 0 1 0
    outer loop
      vertex 5 2.5 2.5
      vertex 0.988853 2.5 1.04338
      vertex 0.795807 2.5 1.09947
    endloop
  endfacet
  facet normal 0 1 0
    outer loop
      vertex 5 2.5 2.5
      vertex 1.178 2.5 0.975285
      vertex 0.988853 2.5 1.04338
    endloop
  endfacet
  facet normal 0 1 0
    outer loop
      vertex 5 2.5 2.5
      vertex 1.36249 2.5 0.895446
      vertex 1.178 2.5 0.975285
    endloop
  endfacet
  facet normal 0 1 0
    outer loop
      vertex 5 2.5 2.5
      vertex 1.54161 2.5 0.804181
      vertex 1.36249 2.5 0.895446
    endloop
  endfacet
  facet normal 0 1 0
    outer loop
      vertex 5 2.5 2.5
      vertex 1.71465 2.5 0.701849
      vertex 1.54161 2.5 0.804181
    endloop
  endfacet
  facet normal 0 1 0
    outer loop
      vertex 5 2.5 2.5
      vertex 1.88091 2.5 0.588854
      vertex 1.71465 2.5 0.701849
    endloop
  endfacet
  facet normal 0 1 0
    outer loop
      vertex 5 2.5 2.5
      vertex 2.03976 2.5 0.465642
      vertex 1.88091 2.5 0.588854
    endloop
  endfacet
  facet normal 0 1 0
    outer loop
      vertex 5 2.5 2.5
      vertex 2.19055 2.5 0.332699
      vertex 2.03976 2.5 0.465642
    endloop
  endfacet
  facet normal 0 1 0
    outer loop
      vertex 5 2.5 2.5
      vertex 2.3327 2.5 0.19055
      vertex 2.19055 2.5 0.332699
    endloop
  endfacet
  facet normal 0 1 0
    outer loop
      vertex 5 2.5 2.5
      vertex 2.46564 2.5 0.0397558
      vertex 2.3327 2.5 0.19055
    endloop
  endfacet
  facet normal 0 1 0
    outer loop
      vertex 5 2.5 2.5
      vertex 2.58885 2.5 -0.119086
      vertex 2.46564 2.5 0.0397558
    endloop
  endfacet
  facet normal 0 1 0
    outer loop
      vertex 5 2.5 2.5
      vertex 2.70185 2.5 -0.285354
      vertex 2.58885 2.5 -0.119086
    endloop
  endfacet
  facet normal 0 1 0
    outer loop
      vertex 5 2.5 2.5
      vertex 2.80418 2.5 -0.458387
      vertex 2.70185 2.5 -0.285354
    endloop
  endfacet
  facet normal 0 1 0
    outer loop
      vertex 5 2.5 2.5
      vertex 2.89545 2.5 -0.637506
      vertex 2.80418 2.5 -0.458387
    endloop
  endfacet
  facet normal 0 1 0
    outer loop
      vertex 5 2.5 2.5
      vertex 2.97528 2.5 -0.822001
      vertex 2.89545 2.5 -0.637506
    endloop
  endfacet
  facet normal 0 1 -0
    outer loop
      vertex 5 2.5 -2.5
      vertex 2.97528 2.5 -0.822001
      vertex 5 2.5 2.5
    endloop
  endfacet
  facet normal 0 1 0
    outer loop
      vertex 2.97528 2.5 -0.822001
      vertex 5 2.5 -2.5
      vertex 3.04338 2.5 -1.01115
    endloop
  endfacet
  facet normal 0 1 0
    outer loop
      vertex 3.04338 2.5 -1.01115
      vertex 5 2.5 -2.5
      vertex 3.09947 2.5 -1.20419
    endloop
  endfacet
  facet normal 0 1 0
    outer loop
      vertex 3.09947 2.5 -1.20419
      vertex 5 2.5 -2.5
      vertex 3.14332 2.5 -1.40038
    endloop
  endfacet
  facet normal 0 1 0
    outer loop
      vertex 3.14332 2.5 -1.40038
      vertex 5 2.5 -2.5
      vertex 3.17477 2.5 -1.59893
    endloop
  endfacet
  facet normal 0 1 0
    outer loop
      vertex 3.17477 2.5 -1.59893
      vertex 5 2.5 -2.5
      vertex 3.19368 2.5 -1.79907
    endloop
  endfacet
  facet normal 0 1 0
    outer loop
      vertex 3.19368 2.5 -1.79907
      vertex 5 2.5 -2.5
      vertex 3.2 2.5 -2
    endloop
  endfacet
  facet normal 0 1 0
    outer loop
      vertex 3.2 2.5 -2
      vertex 5 2.5 -2.5
      vertex 3.19368 2.5 -2.20093
    endloop
  endfacet
  facet normal 0 1 0
    outer loop
      vertex 3.19368 2.5 -2.20093
      vertex 5 2.5 -2.5
      vertex 3.17477 2.5 -2.40107
    endloop
  endfacet
  facet normal 0 1 0
    outer loop
      vertex 3.17477 2.5 -2.40107
      vertex 5 2.5 -2.5
      vertex 3.1591 2.5 -2.5
    endloop
  endfacet
  facet normal 0 1 -0
    outer loop
      vertex -0.20093 2.5 1.19368
      vertex -5 2.5 2.5
      vertex 0 2.5 1.2
    endloop
  endfacet
  facet normal 0 1 -0
    outer loop
      vertex -0.401066 2.5 1.17477
      vertex -5 2.5 2.5
      vertex -0.20093 2.5 1.19368
    endloop
  endfacet
  facet normal 0 1 -0
    outer loop
      vertex -0.59962 2.5 1.14332
      vertex -5 2.5 2.5
      vertex -0.401066 2.5 1.17477
    endloop
  endfacet
  facet normal 0 1 -0
    outer loop
      vertex -0.795807 2.5 1.09947
      vertex -5 2.5 2.5
      vertex -0.59962 2.5 1.14332
    endloop
  endfacet
  facet normal 0 1 -0
    outer loop
      vertex -0.988853 2.5 1.04338
      vertex -5 2.5 2.5
      vertex -0.795807 2.5 1.09947
    endloop
  endfacet
  facet normal 0 1 -0
    outer loop
      vertex -1.178 2.5 0.975285
      vertex -5 2.5 2.5
      vertex -0.988853 2.5 1.04338
    endloop
  endfacet
  facet normal 0 1 -0
    outer loop
      vertex -1.36249 2.5 0.895446
      vertex -5 2.5 2.5
      vertex -1.178 2.5 0.975285
    endloop
  endfacet
  facet normal 0 1 -0
    outer loop
      vertex -1.54161 2.5 0.804181
      vertex -5 2.5 2.5
      vertex -1.36249 2.5 0.895446
    endloop
  endfacet
  facet normal 0 1 -0
    outer loop
      vertex -1.71465 2.5 0.701849
      vertex -5 2.5 2.5
      vertex -1.54161 2.5 0.804181
    endloop
  endfacet
  facet normal 0 1 -0
    outer loop
      vertex -1.88091 2.5 0.588854
      vertex -5 2.5 2.5
      vertex -1.71465 2.5 0.701849
    endloop
  endfacet
  facet normal 0 1 -0
    outer loop
      vertex -2.03976 2.5 0.465642
      vertex -5 2.5 2.5
      vertex -1.88091 2.5 0.588854
    endloop
  endfacet
  facet normal 0 1 -0
    outer loop
      vertex -2.19055 2.5 0.332699
      vertex -5 2.5 2.5
      vertex -2.03976 2.5 0.465642
    endloop
  endfacet
  facet normal 0 1 -0
    outer loop
      vertex -2.3327 2.5 0.19055
      vertex -5 2.5 2.5
      vertex -2.19055 2.5 0.332699
    endloop
  endfacet
  facet normal 0 1 -0
    outer loop
      vertex -2.46564 2.5 0.0397558
      vertex -5 2.5 2.5
      vertex -2.3327 2.5 0.19055
    endloop
  endfacet
  facet normal 0 1 -0
    outer loop
      vertex -2.58885 2.5 -0.119086
      vertex -5 2.5 2.5
      vertex -2.46564 2.5 0.0397558
    endloop
  endfacet
  facet normal 0 1 -0
    outer loop
      vertex -2.70185 2.5 -0.285354
      vertex -5 2.5 2.5
      vertex -2.58885 2.5 -0.119086
    endloop
  endfacet
  facet normal 0 1 -0
    outer loop
      vertex -2.80418 2.5 -0.458387
      vertex -5 2.5 2.5
      vertex -2.70185 2.5 -0.285354
    endloop
  endfacet
  facet normal 0 1 -0
    outer loop
      vertex -2.89545 2.5 -0.637506
      vertex -5 2.5 2.5
      vertex -2.80418 2.5 -0.458387
    endloop
  endfacet
  facet normal 0 1 -0
    outer loop
      vertex -2.97528 2.5 -0.822001
      vertex -5 2.5 2.5
      vertex -2.89545 2.5 -0.637506
    endloop
  endfacet
  facet normal 0 1 0
    outer loop
      vertex -5 2.5 -2.5
      vertex -2.97528 2.5 -0.822001
      vertex -3.04338 2.5 -1.01115
    endloop
  endfacet
  facet normal 0 1 0
    outer loop
      vertex -5 2.5 -2.5
      vertex -3.04338 2.5 -1.01115
      vertex -3.09947 2.5 -1.20419
    endloop
  endfacet
  facet normal 0 1 0
    outer loop
      vertex -5 2.5 -2.5
      vertex -3.09947 2.5 -1.20419
      vertex -3.14332 2.5 -1.40038
    endloop
  endfacet
  facet normal 0 1 0
    outer loop
      vertex -5 2.5 -2.5
      vertex -3.14332 2.5 -1.40038
      vertex -3.17477 2.5 -1.59893
    endloop
  endfacet
  facet normal 0 1 0
    outer loop
      vertex -5 2.5 -2.5
      vertex -3.17477 2.5 -1.59893
      vertex -3.19368 2.5 -1.79907
    endloop
  endfacet
  facet normal 0 1 0
    outer loop
      vertex -5 2.5 -2.5
      vertex -3.19368 2.5 -1.79907
      vertex -3.2 2.5 -2
    endloop
  endfacet
  facet normal 0 1 0
    outer loop
      vertex -5 2.5 -2.5
      vertex -3.2 2.5 -2
      vertex -3.19368 2.5 -2.20093
    endloop
  endfacet
  facet normal 0 1 0
    outer loop
      vertex -5 2.5 -2.5
      vertex -3.19368 2.5 -2.20093
      vertex -3.17477 2.5 -2.40107
    endloop
  endfacet
  facet normal 0 1 0
    outer loop
      vertex -5 2.5 -2.5
      vertex -3.17477 2.5 -2.40107
      vertex -3.1591 2.5 -2.5
    endloop
  endfacet
  facet normal 0 1 0
    outer loop
      vertex -2.97528 2.5 -0.822001
      vertex -5 2.5 -2.5
      vertex -5 2.5 2.5
    endloop
  endfacet
  facet normal -0.999506 0 -0.0314382
    outer loop
      vertex 3.2 -2.5 -2
      vertex 3.19368 2.5 -1.79907
      vertex 3.2 2.5 -2
    endloop
  endfacet
  facet normal -0.999506 -0 -0.0314382
    outer loop
      vertex 3.19368 2.5 -1.79907
      vertex 3.2 -2.5 -2
      vertex 3.19368 -2.5 -1.79907
    endloop
  endfacet
  facet normal -0.995566 0 -0.0940649
    outer loop
      vertex 3.19368 -2.5 -1.79907
      vertex 3.17477 2.5 -1.59893
      vertex 3.19368 2.5 -1.79907
    endloop
  endfacet
  facet normal -0.995566 -0 -0.0940649
    outer loop
      vertex 3.17477 2.5 -1.59893
      vertex 3.19368 -2.5 -1.79907
      vertex 3.17477 -2.5 -1.59893
    endloop
  endfacet
  facet normal 0.999506 0 -0.0314382
    outer loop
      vertex -3.19368 -2.5 -1.79907
      vertex -3.2 2.5 -2
      vertex -3.19368 2.5 -1.79907
    endloop
  endfacet
  facet normal 0.999506 0 -0.0314382
    outer loop
      vertex -3.2 2.5 -2
      vertex -3.19368 -2.5 -1.79907
      vertex -3.2 -2.5 -2
    endloop
  endfacet
  facet normal -0.0314382 0 -0.999506
    outer loop
      vertex 0 -2.5 1.2
      vertex 0.20093 2.5 1.19368
      vertex 0.20093 -2.5 1.19368
    endloop
  endfacet
  facet normal -0.0314382 0 -0.999506
    outer loop
      vertex 0.20093 2.5 1.19368
      vertex 0 -2.5 1.2
      vertex 0 2.5 1.2
    endloop
  endfacet
  facet normal -0.707104 0 -0.707109
    outer loop
      vertex 2.3327 -2.5 0.19055
      vertex 2.19055 2.5 0.332699
      vertex 2.3327 2.5 0.19055
    endloop
  endfacet
  facet normal -0.707104 -0 -0.707109
    outer loop
      vertex 2.19055 2.5 0.332699
      vertex 2.3327 -2.5 0.19055
      vertex 2.19055 -2.5 0.332699
    endloop
  endfacet
  facet normal 0.661322 0 -0.750102
    outer loop
      vertex -2.19055 -2.5 0.332699
      vertex -2.03976 2.5 0.465642
      vertex -2.03976 -2.5 0.465642
    endloop
  endfacet
  facet normal 0.661322 0 -0.750102
    outer loop
      vertex -2.03976 2.5 0.465642
      vertex -2.19055 -2.5 0.332699
      vertex -2.19055 2.5 0.332699
    endloop
  endfacet
  facet normal 0.338729 0 -0.940884
    outer loop
      vertex -1.178 -2.5 0.975285
      vertex -0.988853 2.5 1.04338
      vertex -0.988853 -2.5 1.04338
    endloop
  endfacet
  facet normal 0.338729 0 -0.940884
    outer loop
      vertex -0.988853 2.5 1.04338
      vertex -1.178 -2.5 0.975285
      vertex -1.178 2.5 0.975285
    endloop
  endfacet
  facet normal -0.917769 0 -0.397114
    outer loop
      vertex 2.97528 -2.5 -0.822001
      vertex 2.89545 2.5 -0.637506
      vertex 2.97528 2.5 -0.822001
    endloop
  endfacet
  facet normal -0.917769 -0 -0.397114
    outer loop
      vertex 2.89545 2.5 -0.637506
      vertex 2.97528 -2.5 -0.822001
      vertex 2.89545 -2.5 -0.637506
    endloop
  endfacet
  facet normal 0.156445 0 -0.987687
    outer loop
      vertex -0.59962 -2.5 1.14332
      vertex -0.401066 2.5 1.17477
      vertex -0.401066 -2.5 1.17477
    endloop
  endfacet
  facet normal 0.156445 0 -0.987687
    outer loop
      vertex -0.401066 2.5 1.17477
      vertex -0.59962 -2.5 1.14332
      vertex -0.59962 2.5 1.14332
    endloop
  endfacet
  facet normal -0.975921 0 -0.218126
    outer loop
      vertex 3.14332 -2.5 -1.40038
      vertex 3.09947 2.5 -1.20419
      vertex 3.14332 2.5 -1.40038
    endloop
  endfacet
  facet normal -0.975921 -0 -0.218126
    outer loop
      vertex 3.09947 2.5 -1.20419
      vertex 3.14332 -2.5 -1.40038
      vertex 3.09947 -2.5 -1.20419
    endloop
  endfacet
  facet normal -0.890998 0 -0.454008
    outer loop
      vertex 2.89545 -2.5 -0.637506
      vertex 2.80418 2.5 -0.458387
      vertex 2.89545 2.5 -0.637506
    endloop
  endfacet
  facet normal -0.890998 -0 -0.454008
    outer loop
      vertex 2.80418 2.5 -0.458387
      vertex 2.89545 -2.5 -0.637506
      vertex 2.80418 -2.5 -0.458387
    endloop
  endfacet
  facet normal -0.750118 0 -0.661304
    outer loop
      vertex 2.46564 -2.5 0.0397558
      vertex 2.3327 2.5 0.19055
      vertex 2.46564 2.5 0.0397558
    endloop
  endfacet
  facet normal -0.750118 -0 -0.661304
    outer loop
      vertex 2.3327 2.5 0.19055
      vertex 2.46564 -2.5 0.0397558
      vertex 2.3327 -2.5 0.19055
    endloop
  endfacet
  facet normal -0.218129 0 -0.97592
    outer loop
      vertex 0.59962 -2.5 1.14332
      vertex 0.795807 2.5 1.09947
      vertex 0.795807 -2.5 1.09947
    endloop
  endfacet
  facet normal -0.218129 0 -0.97592
    outer loop
      vertex 0.795807 2.5 1.09947
      vertex 0.59962 -2.5 1.14332
      vertex 0.59962 2.5 1.14332
    endloop
  endfacet
  facet normal 0.790156 0 -0.612906
    outer loop
      vertex -2.46564 -2.5 0.0397558
      vertex -2.58885 2.5 -0.119086
      vertex -2.46564 2.5 0.0397558
    endloop
  endfacet
  facet normal 0.790156 0 -0.612906
    outer loop
      vertex -2.58885 2.5 -0.119086
      vertex -2.46564 -2.5 0.0397558
      vertex -2.58885 -2.5 -0.119086
    endloop
  endfacet
  facet normal 0.82707 0 -0.562098
    outer loop
      vertex -2.58885 -2.5 -0.119086
      vertex -2.70185 2.5 -0.285354
      vertex -2.58885 2.5 -0.119086
    endloop
  endfacet
  facet normal 0.82707 0 -0.562098
    outer loop
      vertex -2.70185 2.5 -0.285354
      vertex -2.58885 -2.5 -0.119086
      vertex -2.70185 -2.5 -0.285354
    endloop
  endfacet
  facet normal 0.975921 0 -0.218126
    outer loop
      vertex -3.09947 -2.5 -1.20419
      vertex -3.14332 2.5 -1.40038
      vertex -3.09947 2.5 -1.20419
    endloop
  endfacet
  facet normal 0.975921 0 -0.218126
    outer loop
      vertex -3.14332 2.5 -1.40038
      vertex -3.09947 -2.5 -1.20419
      vertex -3.14332 -2.5 -1.40038
    endloop
  endfacet
  facet normal 0.509028 0 -0.86075
    outer loop
      vertex -1.71465 -2.5 0.701849
      vertex -1.54161 2.5 0.804181
      vertex -1.54161 -2.5 0.804181
    endloop
  endfacet
  facet normal 0.509028 0 -0.86075
    outer loop
      vertex -1.54161 2.5 0.804181
      vertex -1.71465 -2.5 0.701849
      vertex -1.71465 2.5 0.701849
    endloop
  endfacet
  facet normal 0.0940668 0 -0.995566
    outer loop
      vertex -0.401066 -2.5 1.17477
      vertex -0.20093 2.5 1.19368
      vertex -0.20093 -2.5 1.19368
    endloop
  endfacet
  facet normal 0.0940668 0 -0.995566
    outer loop
      vertex -0.20093 2.5 1.19368
      vertex -0.401066 -2.5 1.17477
      vertex -0.401066 2.5 1.17477
    endloop
  endfacet
  facet normal -0.987686 0 -0.156448
    outer loop
      vertex 3.17477 -2.5 -1.59893
      vertex 3.14332 2.5 -1.40038
      vertex 3.17477 2.5 -1.59893
    endloop
  endfacet
  facet normal -0.987686 -0 -0.156448
    outer loop
      vertex 3.14332 2.5 -1.40038
      vertex 3.17477 -2.5 -1.59893
      vertex 3.14332 -2.5 -1.40038
    endloop
  endfacet
  facet normal -0.940877 0 -0.338747
    outer loop
      vertex 3.04338 -2.5 -1.01115
      vertex 2.97528 2.5 -0.822001
      vertex 3.04338 2.5 -1.01115
    endloop
  endfacet
  facet normal -0.940877 -0 -0.338747
    outer loop
      vertex 2.97528 2.5 -0.822001
      vertex 3.04338 -2.5 -1.01115
      vertex 2.97528 -2.5 -0.822001
    endloop
  endfacet
  facet normal -0.960285 0 -0.279022
    outer loop
      vertex 3.09947 -2.5 -1.20419
      vertex 3.04338 2.5 -1.01115
      vertex 3.09947 2.5 -1.20419
    endloop
  endfacet
  facet normal -0.960285 -0 -0.279022
    outer loop
      vertex 3.04338 2.5 -1.01115
      vertex 3.09947 -2.5 -1.20419
      vertex 3.04338 -2.5 -1.01115
    endloop
  endfacet
  facet normal -0.790156 0 -0.612906
    outer loop
      vertex 2.58885 -2.5 -0.119086
      vertex 2.46564 2.5 0.0397558
      vertex 2.58885 2.5 -0.119086
    endloop
  endfacet
  facet normal -0.790156 -0 -0.612906
    outer loop
      vertex 2.46564 2.5 0.0397558
      vertex 2.58885 -2.5 -0.119086
      vertex 2.46564 -2.5 0.0397558
    endloop
  endfacet
  facet normal -0.156445 0 -0.987687
    outer loop
      vertex 0.401066 -2.5 1.17477
      vertex 0.59962 2.5 1.14332
      vertex 0.59962 -2.5 1.14332
    endloop
  endfacet
  facet normal -0.156445 0 -0.987687
    outer loop
      vertex 0.59962 2.5 1.14332
      vertex 0.401066 -2.5 1.17477
      vertex 0.401066 2.5 1.17477
    endloop
  endfacet
  facet normal -0.338729 0 -0.940884
    outer loop
      vertex 0.988853 -2.5 1.04338
      vertex 1.178 2.5 0.975285
      vertex 1.178 -2.5 0.975285
    endloop
  endfacet
  facet normal -0.338729 0 -0.940884
    outer loop
      vertex 1.178 2.5 0.975285
      vertex 0.988853 -2.5 1.04338
      vertex 0.988853 2.5 1.04338
    endloop
  endfacet
  facet normal -0.397161 0 -0.917749
    outer loop
      vertex 1.178 -2.5 0.975285
      vertex 1.36249 2.5 0.895446
      vertex 1.36249 -2.5 0.895446
    endloop
  endfacet
  facet normal -0.397161 0 -0.917749
    outer loop
      vertex 1.36249 2.5 0.895446
      vertex 1.178 -2.5 0.975285
      vertex 1.178 2.5 0.975285
    endloop
  endfacet
  facet normal -0.509028 0 -0.86075
    outer loop
      vertex 1.54161 -2.5 0.804181
      vertex 1.71465 2.5 0.701849
      vertex 1.71465 -2.5 0.701849
    endloop
  endfacet
  facet normal -0.509028 0 -0.86075
    outer loop
      vertex 1.71465 2.5 0.701849
      vertex 1.54161 -2.5 0.804181
      vertex 1.54161 2.5 0.804181
    endloop
  endfacet
  facet normal -0.5621 0 -0.827069
    outer loop
      vertex 1.71465 -2.5 0.701849
      vertex 1.88091 2.5 0.588854
      vertex 1.88091 -2.5 0.588854
    endloop
  endfacet
  facet normal -0.5621 0 -0.827069
    outer loop
      vertex 1.88091 2.5 0.588854
      vertex 1.71465 -2.5 0.701849
      vertex 1.71465 2.5 0.701849
    endloop
  endfacet
  facet normal 0.987686 0 -0.156448
    outer loop
      vertex -3.14332 -2.5 -1.40038
      vertex -3.17477 2.5 -1.59893
      vertex -3.14332 2.5 -1.40038
    endloop
  endfacet
  facet normal 0.987686 0 -0.156448
    outer loop
      vertex -3.17477 2.5 -1.59893
      vertex -3.14332 -2.5 -1.40038
      vertex -3.17477 -2.5 -1.59893
    endloop
  endfacet
  facet normal 0.860745 0 -0.509036
    outer loop
      vertex -2.70185 -2.5 -0.285354
      vertex -2.80418 2.5 -0.458387
      vertex -2.70185 2.5 -0.285354
    endloop
  endfacet
  facet normal 0.860745 0 -0.509036
    outer loop
      vertex -2.80418 2.5 -0.458387
      vertex -2.70185 -2.5 -0.285354
      vertex -2.80418 -2.5 -0.458387
    endloop
  endfacet
  facet normal 0.917769 0 -0.397114
    outer loop
      vertex -2.89545 -2.5 -0.637506
      vertex -2.97528 2.5 -0.822001
      vertex -2.89545 2.5 -0.637506
    endloop
  endfacet
  facet normal 0.917769 0 -0.397114
    outer loop
      vertex -2.97528 2.5 -0.822001
      vertex -2.89545 -2.5 -0.637506
      vertex -2.97528 -2.5 -0.822001
    endloop
  endfacet
  facet normal 0.940877 0 -0.338747
    outer loop
      vertex -2.97528 -2.5 -0.822001
      vertex -3.04338 2.5 -1.01115
      vertex -2.97528 2.5 -0.822001
    endloop
  endfacet
  facet normal 0.940877 0 -0.338747
    outer loop
      vertex -3.04338 2.5 -1.01115
      vertex -2.97528 -2.5 -0.822001
      vertex -3.04338 -2.5 -1.01115
    endloop
  endfacet
  facet normal 0.5621 0 -0.827069
    outer loop
      vertex -1.88091 -2.5 0.588854
      vertex -1.71465 2.5 0.701849
      vertex -1.71465 -2.5 0.701849
    endloop
  endfacet
  facet normal 0.5621 0 -0.827069
    outer loop
      vertex -1.71465 2.5 0.701849
      vertex -1.88091 -2.5 0.588854
      vertex -1.88091 2.5 0.588854
    endloop
  endfacet
  facet normal 0.453986 0 -0.891009
    outer loop
      vertex -1.54161 -2.5 0.804181
      vertex -1.36249 2.5 0.895446
      vertex -1.36249 -2.5 0.895446
    endloop
  endfacet
  facet normal 0.453986 0 -0.891009
    outer loop
      vertex -1.36249 2.5 0.895446
      vertex -1.54161 -2.5 0.804181
      vertex -1.54161 2.5 0.804181
    endloop
  endfacet
  facet normal 0.218129 0 -0.97592
    outer loop
      vertex -0.795807 -2.5 1.09947
      vertex -0.59962 2.5 1.14332
      vertex -0.59962 -2.5 1.14332
    endloop
  endfacet
  facet normal 0.218129 0 -0.97592
    outer loop
      vertex -0.59962 2.5 1.14332
      vertex -0.795807 -2.5 1.09947
      vertex -0.795807 2.5 1.09947
    endloop
  endfacet
  facet normal 0.279014 0 -0.960287
    outer loop
      vertex -0.988853 -2.5 1.04338
      vertex -0.795807 2.5 1.09947
      vertex -0.795807 -2.5 1.09947
    endloop
  endfacet
  facet normal 0.279014 0 -0.960287
    outer loop
      vertex -0.795807 2.5 1.09947
      vertex -0.988853 -2.5 1.04338
      vertex -0.988853 2.5 1.04338
    endloop
  endfacet
  facet normal 0.0314382 0 -0.999506
    outer loop
      vertex -0.20093 -2.5 1.19368
      vertex 0 2.5 1.2
      vertex 0 -2.5 1.2
    endloop
  endfacet
  facet normal 0.0314382 0 -0.999506
    outer loop
      vertex 0 2.5 1.2
      vertex -0.20093 -2.5 1.19368
      vertex -0.20093 2.5 1.19368
    endloop
  endfacet
  facet normal -0.999506 0 0.0314382
    outer loop
      vertex 3.19368 -2.5 -2.20093
      vertex 3.2 2.5 -2
      vertex 3.19368 2.5 -2.20093
    endloop
  endfacet
  facet normal -0.999506 0 0.0314382
    outer loop
      vertex 3.2 2.5 -2
      vertex 3.19368 -2.5 -2.20093
      vertex 3.2 -2.5 -2
    endloop
  endfacet
  facet normal 0.987687 -0 0.156444
    outer loop
      vertex -3.17477 -2.5 -2.40107
      vertex -3.1591 2.5 -2.5
      vertex -3.17477 2.5 -2.40107
    endloop
  endfacet
  facet normal 0.987687 0 0.156444
    outer loop
      vertex -3.1591 2.5 -2.5
      vertex -3.17477 -2.5 -2.40107
      vertex -3.1591 -2.5 -2.5
    endloop
  endfacet
  facet normal 0.999506 -0 0.0314382
    outer loop
      vertex -3.2 -2.5 -2
      vertex -3.19368 2.5 -2.20093
      vertex -3.2 2.5 -2
    endloop
  endfacet
  facet normal 0.999506 0 0.0314382
    outer loop
      vertex -3.19368 2.5 -2.20093
      vertex -3.2 -2.5 -2
      vertex -3.19368 -2.5 -2.20093
    endloop
  endfacet
  facet normal -0.860745 0 -0.509036
    outer loop
      vertex 2.80418 -2.5 -0.458387
      vertex 2.70185 2.5 -0.285354
      vertex 2.80418 2.5 -0.458387
    endloop
  endfacet
  facet normal -0.860745 -0 -0.509036
    outer loop
      vertex 2.70185 2.5 -0.285354
      vertex 2.80418 -2.5 -0.458387
      vertex 2.70185 -2.5 -0.285354
    endloop
  endfacet
  facet normal -0.82707 0 -0.562098
    outer loop
      vertex 2.70185 -2.5 -0.285354
      vertex 2.58885 2.5 -0.119086
      vertex 2.70185 2.5 -0.285354
    endloop
  endfacet
  facet normal -0.82707 -0 -0.562098
    outer loop
      vertex 2.58885 2.5 -0.119086
      vertex 2.70185 -2.5 -0.285354
      vertex 2.58885 -2.5 -0.119086
    endloop
  endfacet
  facet normal -0.279014 0 -0.960287
    outer loop
      vertex 0.795807 -2.5 1.09947
      vertex 0.988853 2.5 1.04338
      vertex 0.988853 -2.5 1.04338
    endloop
  endfacet
  facet normal -0.279014 0 -0.960287
    outer loop
      vertex 0.988853 2.5 1.04338
      vertex 0.795807 -2.5 1.09947
      vertex 0.795807 2.5 1.09947
    endloop
  endfacet
  facet normal -0.0940668 0 -0.995566
    outer loop
      vertex 0.20093 -2.5 1.19368
      vertex 0.401066 2.5 1.17477
      vertex 0.401066 -2.5 1.17477
    endloop
  endfacet
  facet normal -0.0940668 0 -0.995566
    outer loop
      vertex 0.401066 2.5 1.17477
      vertex 0.20093 -2.5 1.19368
      vertex 0.20093 2.5 1.19368
    endloop
  endfacet
  facet normal -0.453986 0 -0.891009
    outer loop
      vertex 1.36249 -2.5 0.895446
      vertex 1.54161 2.5 0.804181
      vertex 1.54161 -2.5 0.804181
    endloop
  endfacet
  facet normal -0.453986 0 -0.891009
    outer loop
      vertex 1.54161 2.5 0.804181
      vertex 1.36249 -2.5 0.895446
      vertex 1.36249 2.5 0.895446
    endloop
  endfacet
  facet normal -0.661322 0 -0.750102
    outer loop
      vertex 2.03976 -2.5 0.465642
      vertex 2.19055 2.5 0.332699
      vertex 2.19055 -2.5 0.332699
    endloop
  endfacet
  facet normal -0.661322 0 -0.750102
    outer loop
      vertex 2.19055 2.5 0.332699
      vertex 2.03976 -2.5 0.465642
      vertex 2.03976 2.5 0.465642
    endloop
  endfacet
  facet normal -0.612892 0 -0.790166
    outer loop
      vertex 1.88091 -2.5 0.588854
      vertex 2.03976 2.5 0.465642
      vertex 2.03976 -2.5 0.465642
    endloop
  endfacet
  facet normal -0.612892 0 -0.790166
    outer loop
      vertex 2.03976 2.5 0.465642
      vertex 1.88091 -2.5 0.588854
      vertex 1.88091 2.5 0.588854
    endloop
  endfacet
  facet normal 0.750118 0 -0.661304
    outer loop
      vertex -2.3327 -2.5 0.19055
      vertex -2.46564 2.5 0.0397558
      vertex -2.3327 2.5 0.19055
    endloop
  endfacet
  facet normal 0.750118 0 -0.661304
    outer loop
      vertex -2.46564 2.5 0.0397558
      vertex -2.3327 -2.5 0.19055
      vertex -2.46564 -2.5 0.0397558
    endloop
  endfacet
  facet normal 0.707104 0 -0.707109
    outer loop
      vertex -2.19055 -2.5 0.332699
      vertex -2.3327 2.5 0.19055
      vertex -2.19055 2.5 0.332699
    endloop
  endfacet
  facet normal 0.707104 0 -0.707109
    outer loop
      vertex -2.3327 2.5 0.19055
      vertex -2.19055 -2.5 0.332699
      vertex -2.3327 -2.5 0.19055
    endloop
  endfacet
  facet normal 0.890998 0 -0.454008
    outer loop
      vertex -2.80418 -2.5 -0.458387
      vertex -2.89545 2.5 -0.637506
      vertex -2.80418 2.5 -0.458387
    endloop
  endfacet
  facet normal 0.890998 0 -0.454008
    outer loop
      vertex -2.89545 2.5 -0.637506
      vertex -2.80418 -2.5 -0.458387
      vertex -2.89545 -2.5 -0.637506
    endloop
  endfacet
  facet normal 0.960285 0 -0.279022
    outer loop
      vertex -3.04338 -2.5 -1.01115
      vertex -3.09947 2.5 -1.20419
      vertex -3.04338 2.5 -1.01115
    endloop
  endfacet
  facet normal 0.960285 0 -0.279022
    outer loop
      vertex -3.09947 2.5 -1.20419
      vertex -3.04338 -2.5 -1.01115
      vertex -3.09947 -2.5 -1.20419
    endloop
  endfacet
  facet normal 0.995566 0 -0.0940649
    outer loop
      vertex -3.17477 -2.5 -1.59893
      vertex -3.19368 2.5 -1.79907
      vertex -3.17477 2.5 -1.59893
    endloop
  endfacet
  facet normal 0.995566 0 -0.0940649
    outer loop
      vertex -3.19368 2.5 -1.79907
      vertex -3.17477 -2.5 -1.59893
      vertex -3.19368 -2.5 -1.79907
    endloop
  endfacet
  facet normal 0.612892 0 -0.790166
    outer loop
      vertex -2.03976 -2.5 0.465642
      vertex -1.88091 2.5 0.588854
      vertex -1.88091 -2.5 0.588854
    endloop
  endfacet
  facet normal 0.612892 0 -0.790166
    outer loop
      vertex -1.88091 2.5 0.588854
      vertex -2.03976 -2.5 0.465642
      vertex -2.03976 2.5 0.465642
    endloop
  endfacet
  facet normal 0.397161 0 -0.917749
    outer loop
      vertex -1.36249 -2.5 0.895446
      vertex -1.178 2.5 0.975285
      vertex -1.178 -2.5 0.975285
    endloop
  endfacet
  facet normal 0.397161 0 -0.917749
    outer loop
      vertex -1.178 2.5 0.975285
      vertex -1.36249 -2.5 0.895446
      vertex -1.36249 2.5 0.895446
    endloop
  endfacet
  facet normal 0.995566 -0 0.0940649
    outer loop
      vertex -3.19368 -2.5 -2.20093
      vertex -3.17477 2.5 -2.40107
      vertex -3.19368 2.5 -2.20093
    endloop
  endfacet
  facet normal 0.995566 0 0.0940649
    outer loop
      vertex -3.17477 2.5 -2.40107
      vertex -3.19368 -2.5 -2.20093
      vertex -3.17477 -2.5 -2.40107
    endloop
  endfacet
  facet normal -0.987687 0 0.156444
    outer loop
      vertex 3.1591 -2.5 -2.5
      vertex 3.17477 2.5 -2.40107
      vertex 3.1591 2.5 -2.5
    endloop
  endfacet
  facet normal -0.987687 0 0.156444
    outer loop
      vertex 3.17477 2.5 -2.40107
      vertex 3.1591 -2.5 -2.5
      vertex 3.17477 -2.5 -2.40107
    endloop
  endfacet
  facet normal -0.995566 0 0.0940649
    outer loop
      vertex 3.17477 -2.5 -2.40107
      vertex 3.19368 2.5 -2.20093
      vertex 3.17477 2.5 -2.40107
    endloop
  endfacet
  facet normal -0.995566 0 0.0940649
    outer loop
      vertex 3.19368 2.5 -2.20093
      vertex 3.17477 -2.5 -2.40107
      vertex 3.19368 -2.5 -2.20093
    endloop
  endfacet
endsolid OpenSCAD_Model
