solid OpenSCAD_Model
  facet normal -1 0 0
    outer loop
      vertex -5 -2.5 -2.5
      vertex -5 2.5 2.5
      vertex -5 2.5 -2.5
    endloop
  endfacet
  facet normal -1 -0 0
    outer loop
      vertex -5 2.5 2.5
      vertex -5 -2.5 -2.5
      vertex -5 -2.5 2.5
    endloop
  endfacet
  facet normal -0 0 1
    outer loop
      vertex -5 2.5 2.5
      vertex 5 -2.5 2.5
      vertex 5 2.5 2.5
    endloop
  endfacet
  facet normal 0 0 1
    outer loop
      vertex 5 -2.5 2.5
      vertex -5 2.5 2.5
      vertex -5 -2.5 2.5
    endloop
  endfacet
  facet normal 1 -0 0
    outer loop
      vertex 5 -2.5 2.5
      vertex 5 2.5 -2.5
      vertex 5 2.5 2.5
    endloop
  endfacet
  facet normal 1 0 0
    outer loop
      vertex 5 2.5 -2.5
      vertex 5 -2.5 2.5
      vertex 5 -2.5 -2.5
    endloop
  endfacet
  facet normal 0 1 0
    outer loop
      vertex 5 2.5 2.5
      vertex 0 2.5 0.9
      vertex -5 2.5 2.5
    endloop
  endfacet
  facet normal 0 1 0
    outer loop
      vertex 5 2.5 2.5
      vertex 0.238604 2.5 0.892501
      vertex 0 2.5 0.9
    endloop
  endfacet
  facet normal 0 1 0
    outer loop
      vertex 5 2.5 2.5
      vertex 0.476266 2.5 0.870035
      vertex 0.238604 2.5 0.892501
    endloop
  endfacet
  facet normal 0 1 0
    outer loop
      vertex 5 2.5 2.5
      vertex 0.712049 2.5 0.832691
      vertex 0.476266 2.5 0.870035
    endloop
  endfacet
  facet normal 0 1 0
    outer loop
      vertex 5 2.5 2.5
      vertex 0.945021 2.5 0.780616
      vertex 0.712049 2.5 0.832691
    endloop
  endfacet
  facet normal 0 1 0
    outer loop
      vertex 5 2.5 2.5
      vertex 1.17426 2.5 0.714014
      vertex 0.945021 2.5 0.780616
    endloop
  endfacet
  facet normal 0 1 0
    outer loop
      vertex 5 2.5 2.5
      vertex 1.39887 2.5 0.63315
      vertex 1.17426 2.5 0.714014
    endloop
  endfacet
  facet normal 0 1 0
    outer loop
      vertex 5 2.5 2.5
      vertex 1.61796 2.5 0.538342
      vertex 1.39887 2.5 0.63315
    endloop
  endfacet
  facet normal 0 1 0
    outer loop
      vertex 5 2.5 2.5
      vertex 1.83066 2.5 0.429965
      vertex 1.61796 2.5 0.538342
    endloop
  endfacet
  facet normal 0 1 0
    outer loop
      vertex 5 2.5 2.5
      vertex 2.03614 2.5 0.308446
      vertex 1.83066 2.5 0.429965
    endloop
  endfacet
  facet normal 0 1 0
    outer loop
      vertex 5 2.5 2.5
      vertex 2.23358 2.5 0.174264
      vertex 2.03614 2.5 0.308446
    endloop
  endfacet
  facet normal 0 1 0
    outer loop
      vertex 5 2.5 2.5
      vertex 2.42221 2.5 0.0279503
      vertex 2.23358 2.5 0.174264
    endloop
  endfacet
  facet normal 0 1 0
    outer loop
      vertex 5 2.5 2.5
      vertex 2.60128 2.5 -0.129919
      vertex 2.42221 2.5 0.0279503
    endloop
  endfacet
  facet normal 0 1 0
    outer loop
      vertex 5 2.5 2.5
      vertex 2.77008 2.5 -0.29872
      vertex 2.60128 2.5 -0.129919
    endloop
  endfacet
  facet normal 0 1 0
    outer loop
      vertex 5 2.5 2.5
      vertex 2.92795 2.5 -0.477788
      vertex 2.77008 2.5 -0.29872
    endloop
  endfacet
  facet normal 0 1 0
    outer loop
      vertex 5 2.5 2.5
      vertex 3.07426 2.5 -0.666415
      vertex 2.92795 2.5 -0.477788
    endloop
  endfacet
  facet normal 0 1 0
    outer loop
      vertex 5 2.5 2.5
      vertex 3.20845 2.5 -0.863857
      vertex 3.07426 2.5 -0.666415
    endloop
  endfacet
  facet normal 0 1 0
    outer loop
      vertex 5 2.5 2.5
      vertex 3.32996 2.5 -1.06934
      vertex 3.20845 2.5 -0.863857
    endloop
  endfacet
  facet normal 0 1 0
    outer loop
      vertex 5 2.5 2.5
      vertex 3.43834 2.5 -1.28204
      vertex 3.32996 2.5 -1.06934
    endloop
  endfacet
  facet normal 0 1 -0
    outer loop
      vertex 5 2.5 -2.5
      vertex 3.43834 2.5 -1.28204
      vertex 5 2.5 2.5
    endloop
  endfacet
  facet normal 0 1 0
    outer loop
      vertex 3.43834 2.5 -1.28204
      vertex 5 2.5 -2.5
      vertex 3.53315 2.5 -1.50113
    endloop
  endfacet
  facet normal 0 1 0
    outer loop
      vertex 3.53315 2.5 -1.50113
      vertex 5 2.5 -2.5
      vertex 3.61401 2.5 -1.72573
    endloop
  endfacet
  facet normal 0 1 0
    outer loop
      vertex 3.61401 2.5 -1.72573
      vertex 5 2.5 -2.5
      vertex 3.68062 2.5 -1.95498
    endloop
  endfacet
  facet normal 0 1 0
    outer loop
      vertex 3.68062 2.5 -1.95498
      vertex 5 2.5 -2.5
      vertex 3.73269 2.5 -2.18795
    endloop
  endfacet
  facet normal 0 1 0
    outer loop
      vertex 3.73269 2.5 -2.18795
      vertex 5 2.5 -2.5
      vertex 3.77004 2.5 -2.42373
    endloop
  endfacet
  facet normal 0 1 0
    outer loop
      vertex 3.77004 2.5 -2.42373
      vertex 5 2.5 -2.5
      vertex 3.77725 2.5 -2.5
    endloop
  endfacet
  facet normal 0 1 -0
    outer loop
      vertex -0.238604 2.5 0.892501
      vertex -5 2.5 2.5
      vertex 0 2.5 0.9
    endloop
  endfacet
  facet normal 0 1 -0
    outer loop
      vertex -0.476266 2.5 0.870035
      vertex -5 2.5 2.5
      vertex -0.238604 2.5 0.892501
    endloop
  endfacet
  facet normal 0 1 -0
    outer loop
      vertex -0.712049 2.5 0.832691
      vertex -5 2.5 2.5
      vertex -0.476266 2.5 0.870035
    endloop
  endfacet
  facet normal 0 1 -0
    outer loop
      vertex -0.945021 2.5 0.780616
      vertex -5 2.5 2.5
      vertex -0.712049 2.5 0.832691
    endloop
  endfacet
  facet normal 0 1 -0
    outer loop
      vertex -1.17426 2.5 0.714014
      vertex -5 2.5 2.5
      vertex -0.945021 2.5 0.780616
    endloop
  endfacet
  facet normal 0 1 -0
    outer loop
      vertex -1.39887 2.5 0.63315
      vertex -5 2.5 2.5
      vertex -1.17426 2.5 0.714014
    endloop
  endfacet
  facet normal 0 1 -0
    outer loop
      vertex -1.61796 2.5 0.538342
      vertex -5 2.5 2.5
      vertex -1.39887 2.5 0.63315
    endloop
  endfacet
  facet normal 0 1 -0
    outer loop
      vertex -1.83066 2.5 0.429965
      vertex -5 2.5 2.5
      vertex -1.61796 2.5 0.538342
    endloop
  endfacet
  facet normal 0 1 -0
    outer loop
      vertex -2.03614 2.5 0.308446
      vertex -5 2.5 2.5
      vertex -1.83066 2.5 0.429965
    endloop
  endfacet
  facet normal 0 1 -0
    outer loop
      vertex -2.23358 2.5 0.174264
      vertex -5 2.5 2.5
      vertex -2.03614 2.5 0.308446
    endloop
  endfacet
  facet normal 0 1 -0
    outer loop
      vertex -2.42221 2.5 0.0279503
      vertex -5 2.5 2.5
      vertex -2.23358 2.5 0.174264
    endloop
  endfacet
  facet normal 0 1 -0
    outer loop
      vertex -2.60128 2.5 -0.129919
      vertex -5 2.5 2.5
      vertex -2.42221 2.5 0.0279503
    endloop
  endfacet
  facet normal 0 1 -0
    outer loop
      vertex -2.77008 2.5 -0.29872
      vertex -5 2.5 2.5
      vertex -2.60128 2.5 -0.129919
    endloop
  endfacet
  facet normal 0 1 -0
    outer loop
      vertex -2.92795 2.5 -0.477788
      vertex -5 2.5 2.5
      vertex -2.77008 2.5 -0.29872
    endloop
  endfacet
  facet normal 0 1 -0
    outer loop
      vertex -3.07426 2.5 -0.666415
      vertex -5 2.5 2.5
      vertex -2.92795 2.5 -0.477788
    endloop
  endfacet
  facet normal 0 1 -0
    outer loop
      vertex -3.20845 2.5 -0.863857
      vertex -5 2.5 2.5
      vertex -3.07426 2.5 -0.666415
    endloop
  endfacet
  facet normal 0 1 -0
    outer loop
      vertex -3.32996 2.5 -1.06934
      vertex -5 2.5 2.5
      vertex -3.20845 2.5 -0.863857
    endloop
  endfacet
  facet normal 0 1 -0
    outer loop
      vertex -3.43834 2.5 -1.28204
      vertex -5 2.5 2.5
      vertex -3.32996 2.5 -1.06934
    endloop
  endfacet
  facet normal 0 1 0
    outer loop
      vertex -5 2.5 -2.5
      vertex -3.43834 2.5 -1.28204
      vertex -3.53315 2.5 -1.50113
    endloop
  endfacet
  facet normal 0 1 0
    outer loop
      vertex -5 2.5 -2.5
      vertex -3.53315 2.5 -1.50113
      vertex -3.61401 2.5 -1.72573
    endloop
  endfacet
  facet normal 0 1 0
    outer loop
      vertex -5 2.5 -2.5
      vertex -3.61401 2.5 -1.72573
      vertex -3.68062 2.5 -1.95498
    endloop
  endfacet
  facet normal 0 1 0
    outer loop
      vertex -5 2.5 -2.5
      vertex -3.68062 2.5 -1.95498
      vertex -3.73269 2.5 -2.18795
    endloop
  endfacet
  facet normal 0 1 0
    outer loop
      vertex -5 2.5 -2.5
      vertex -3.73269 2.5 -2.18795
      vertex -3.77004 2.5 -2.42373
    endloop
  endfacet
  facet normal 0 1 0
    outer loop
      vertex -5 2.5 -2.5
      vertex -3.77004 2.5 -2.42373
      vertex -3.77725 2.5 -2.5
    endloop
  endfacet
  facet normal 0 1 0
    outer loop
      vertex -3.43834 2.5 -1.28204
      vertex -5 2.5 -2.5
      vertex -5 2.5 2.5
    endloop
  endfacet
  facet normal 0 0 -1
    outer loop
      vertex -5 -2.5 -2.5
      vertex -3.77725 2.5 -2.5
      vertex -3.77725 -2.5 -2.5
    endloop
  endfacet
  facet normal -0 0 -1
    outer loop
      vertex -3.77725 2.5 -2.5
      vertex -5 -2.5 -2.5
      vertex -5 2.5 -2.5
    endloop
  endfacet
  facet normal 0 0 -1
    outer loop
      vertex 3.77725 -2.5 -2.5
      vertex 5 2.5 -2.5
      vertex 5 -2.5 -2.5
    endloop
  endfacet
  facet normal -0 0 -1
    outer loop
      vertex 5 2.5 -2.5
      vertex 3.77725 -2.5 -2.5
      vertex 3.77725 2.5 -2.5
    endloop
  endfacet
  facet normal 0 -1 0
    outer loop
      vertex -5 -2.5 2.5
      vertex 0 -2.5 0.9
      vertex 5 -2.5 2.5
    endloop
  endfacet
  facet normal 0 -1 0
    outer loop
      vertex -5 -2.5 2.5
      vertex -0.238604 -2.5 0.892501
      vertex 0 -2.5 0.9
    endloop
  endfacet
  facet normal 0 -1 0
    outer loop
      vertex -5 -2.5 2.5
      vertex -0.476266 -2.5 0.870035
      vertex -0.238604 -2.5 0.892501
    endloop
  endfacet
  facet normal 0 -1 0
    outer loop
      vertex -5 -2.5 2.5
      vertex -0.712049 -2.5 0.832691
      vertex -0.476266 -2.5 0.870035
    endloop
  endfacet
  facet normal 0 -1 0
    outer loop
      vertex -5 -2.5 2.5
      vertex -0.945021 -2.5 0.780616
      vertex -0.712049 -2.5 0.832691
    endloop
  endfacet
  facet normal 0 -1 0
    outer loop
      vertex -5 -2.5 2.5
      vertex -1.17426 -2.5 0.714014
      vertex -0.945021 -2.5 0.780616
    endloop
  endfacet
  facet normal 0 -1 0
    outer loop
      vertex -5 -2.5 2.5
      vertex -1.39887 -2.5 0.63315
      vertex -1.17426 -2.5 0.714014
    endloop
  endfacet
  facet normal 0 -1 0
    outer loop
      vertex -5 -2.5 2.5
      vertex -1.61796 -2.5 0.538342
      vertex -1.39887 -2.5 0.63315
    endloop
  endfacet
  facet normal 0 -1 0
    outer loop
      vertex -5 -2.5 2.5
      vertex -1.83066 -2.5 0.429965
      vertex -1.61796 -2.5 0.538342
    endloop
  endfacet
  facet normal 0 -1 0
    outer loop
      vertex -5 -2.5 2.5
      vertex -2.03614 -2.5 0.308446
      vertex -1.83066 -2.5 0.429965
    endloop
  endfacet
  facet normal 0 -1 0
    outer loop
      vertex -5 -2.5 2.5
      vertex -2.23358 -2.5 0.174264
      vertex -2.03614 -2.5 0.308446
    endloop
  endfacet
  facet normal 0 -1 0
    outer loop
      vertex -5 -2.5 2.5
      vertex -2.42221 -2.5 0.0279503
      vertex -2.23358 -2.5 0.174264
    endloop
  endfacet
  facet normal 0 -1 0
    outer loop
      vertex -5 -2.5 2.5
      vertex -2.60128 -2.5 -0.129919
      vertex -2.42221 -2.5 0.0279503
    endloop
  endfacet
  facet normal 0 -1 0
    outer loop
      vertex -5 -2.5 2.5
      vertex -2.77008 -2.5 -0.29872
      vertex -2.60128 -2.5 -0.129919
    endloop
  endfacet
  facet normal 0 -1 0
    outer loop
      vertex -5 -2.5 2.5
      vertex -2.92795 -2.5 -0.477788
      vertex -2.77008 -2.5 -0.29872
    endloop
  endfacet
  facet normal 0 -1 0
    outer loop
      vertex -5 -2.5 2.5
      vertex -3.07426 -2.5 -0.666415
      vertex -2.92795 -2.5 -0.477788
    endloop
  endfacet
  facet normal 0 -1 0
    outer loop
      vertex -5 -2.5 2.5
      vertex -3.20845 -2.5 -0.863857
      vertex -3.07426 -2.5 -0.666415
    endloop
  endfacet
  facet normal 0 -1 0
    outer loop
      vertex -5 -2.5 2.5
      vertex -3.32996 -2.5 -1.06934
      vertex -3.20845 -2.5 -0.863857
    endloop
  endfacet
  facet normal 0 -1 0
    outer loop
      vertex -5 -2.5 2.5
      vertex -3.43834 -2.5 -1.28204
      vertex -3.32996 -2.5 -1.06934
    endloop
  endfacet
  facet normal 0 -1 0
    outer loop
      vertex -5 -2.5 -2.5
      vertex -3.43834 -2.5 -1.28204
      vertex -5 -2.5 2.5
    endloop
  endfacet
  facet normal 0 -1 0
    outer loop
      vertex -3.43834 -2.5 -1.28204
      vertex -5 -2.5 -2.5
      vertex -3.53315 -2.5 -1.50113
    endloop
  endfacet
  facet normal 0 -1 0
    outer loop
      vertex -3.53315 -2.5 -1.50113
      vertex -5 -2.5 -2.5
      vertex -3.61401 -2.5 -1.72573
    endloop
  endfacet
  facet normal 0 -1 0
    outer loop
      vertex -3.61401 -2.5 -1.72573
      vertex -5 -2.5 -2.5
      vertex -3.68062 -2.5 -1.95498
    endloop
  endfacet
  facet normal 0 -1 0
    outer loop
      vertex -3.68062 -2.5 -1.95498
      vertex -5 -2.5 -2.5
      vertex -3.73269 -2.5 -2.18795
    endloop
  endfacet
  facet normal 0 -1 0
    outer loop
      vertex -3.73269 -2.5 -2.18795
      vertex -5 -2.5 -2.5
      vertex -3.77004 -2.5 -2.42373
    endloop
  endfacet
  facet normal 0 -1 0
    outer loop
      vertex -3.77004 -2.5 -2.42373
      vertex -5 -2.5 -2.5
      vertex -3.77725 -2.5 -2.5
    endloop
  endfacet
  facet normal 0 -1 0
    outer loop
      vertex 0.238604 -2.5 0.892501
      vertex 5 -2.5 2.5
      vertex 0 -2.5 0.9
    endloop
  endfacet
  facet normal 0 -1 0
    outer loop
      vertex 0.476266 -2.5 0.870035
      vertex 5 -2.5 2.5
      vertex 0.238604 -2.5 0.892501
    endloop
  endfacet
  facet normal 0 -1 0
    outer loop
      vertex 0.712049 -2.5 0.832691
      vertex 5 -2.5 2.5
      vertex 0.476266 -2.5 0.870035
    endloop
  endfacet
  facet normal 0 -1 0
    outer loop
      vertex 0.945021 -2.5 0.780616
      vertex 5 -2.5 2.5
      vertex 0.712049 -2.5 0.832691
    endloop
  endfacet
  facet normal 0 -1 0
    outer loop
      vertex 1.17426 -2.5 0.714014
      vertex 5 -2.5 2.5
      vertex 0.945021 -2.5 0.780616
    endloop
  endfacet
  facet normal 0 -1 0
    outer loop
      vertex 1.39887 -2.5 0.63315
      vertex 5 -2.5 2.5
      vertex 1.17426 -2.5 0.714014
    endloop
  endfacet
  facet normal 0 -1 0
    outer loop
      vertex 1.61796 -2.5 0.538342
      vertex 5 -2.5 2.5
      vertex 1.39887 -2.5 0.63315
    endloop
  endfacet
  facet normal 0 -1 0
    outer loop
      vertex 1.83066 -2.5 0.429965
      vertex 5 -2.5 2.5
      vertex 1.61796 -2.5 0.538342
    endloop
  endfacet
  facet normal 0 -1 0
    outer loop
      vertex 2.03614 -2.5 0.308446
      vertex 5 -2.5 2.5
      vertex 1.83066 -2.5 0.429965
    endloop
  endfacet
  facet normal 0 -1 0
    outer loop
      vertex 2.23358 -2.5 0.174264
      vertex 5 -2.5 2.5
      vertex 2.03614 -2.5 0.308446
    endloop
  endfacet
  facet normal 0 -1 0
    outer loop
      vertex 2.42221 -2.5 0.0279503
      vertex 5 -2.5 2.5
      vertex 2.23358 -2.5 0.174264
    endloop
  endfacet
  facet normal 0 -1 0
    outer loop
      vertex 2.60128 -2.5 -0.129919
      vertex 5 -2.5 2.5
      vertex 2.42221 -2.5 0.0279503
    endloop
  endfacet
  facet normal 0 -1 0
    outer loop
      vertex 2.77008 -2.5 -0.29872
      vertex 5 -2.5 2.5
      vertex 2.60128 -2.5 -0.129919
    endloop
  endfacet
  facet normal 0 -1 0
    outer loop
      vertex 2.92795 -2.5 -0.477788
      vertex 5 -2.5 2.5
      vertex 2.77008 -2.5 -0.29872
    endloop
  endfacet
  facet normal 0 -1 0
    outer loop
      vertex 3.07426 -2.5 -0.666415
      vertex 5 -2.5 2.5
      vertex 2.92795 -2.5 -0.477788
    endloop
  endfacet
  facet normal 0 -1 0
    outer loop
      vertex 3.20845 -2.5 -0.863857
      vertex 5 -2.5 2.5
      vertex 3.07426 -2.5 -0.666415
    endloop
  endfacet
  facet normal 0 -1 0
    outer loop
      vertex 3.32996 -2.5 -1.06934
      vertex 5 -2.5 2.5
      vertex 3.20845 -2.5 -0.863857
    endloop
  endfacet
  facet normal 0 -1 0
    outer loop
      vertex 3.43834 -2.5 -1.28204
      vertex 5 -2.5 2.5
      vertex 3.32996 -2.5 -1.06934
    endloop
  endfacet
  facet normal 0 -1 0
    outer loop
      vertex 5 -2.5 -2.5
      vertex 3.43834 -2.5 -1.28204
      vertex 3.53315 -2.5 -1.50113
    endloop
  endfacet
  facet normal 0 -1 0
    outer loop
      vertex 5 -2.5 -2.5
      vertex 3.53315 -2.5 -1.50113
      vertex 3.61401 -2.5 -1.72573
    endloop
  endfacet
  facet normal 0 -1 0
    outer loop
      vertex 5 -2.5 -2.5
      vertex 3.61401 -2.5 -1.72573
      vertex 3.68062 -2.5 -1.95498
    endloop
  endfacet
  facet normal 0 -1 0
    outer loop
      vertex 5 -2.5 -2.5
      vertex 3.68062 -2.5 -1.95498
      vertex 3.73269 -2.5 -2.18795
    endloop
  endfacet
  facet normal 0 -1 0
    outer loop
      vertex 5 -2.5 -2.5
      vertex 3.73269 -2.5 -2.18795
      vertex 3.77004 -2.5 -2.42373
    endloop
  endfacet
  facet normal 0 -1 0
    outer loop
      vertex 5 -2.5 -2.5
      vertex 3.77004 -2.5 -2.42373
      vertex 3.77725 -2.5 -2.5
    endloop
  endfacet
  facet normal 0 -1 0
    outer loop
      vertex 3.43834 -2.5 -1.28204
      vertex 5 -2.5 -2.5
      vertex 5 -2.5 2.5
    endloop
  endfacet
  facet normal -0.995562 0 -0.094113
    outer loop
      vertex 3.77725 -2.5 -2.5
      vertex 3.77004 2.5 -2.42373
      vertex 3.77725 2.5 -2.5
    endloop
  endfacet
  facet normal -0.995562 -0 -0.094113
    outer loop
      vertex 3.77004 2.5 -2.42373
      vertex 3.77725 -2.5 -2.5
      vertex 3.77004 -2.5 -2.42373
    endloop
  endfacet
  facet normal -0.0314131 0 -0.999506
    outer loop
      vertex 0 -2.5 0.9
      vertex 0.238604 2.5 0.892501
      vertex 0.238604 -2.5 0.892501
    endloop
  endfacet
  facet normal -0.0314131 0 -0.999506
    outer loop
      vertex 0.238604 2.5 0.892501
      vertex 0 -2.5 0.9
      vertex 0 2.5 0.9
    endloop
  endfacet
  facet normal -0.707109 0 -0.707105
    outer loop
      vertex 2.60128 -2.5 -0.129919
      vertex 2.77008 2.5 -0.29872
      vertex 2.77008 -2.5 -0.29872
    endloop
  endfacet
  facet normal -0.707109 0 -0.707105
    outer loop
      vertex 2.77008 2.5 -0.29872
      vertex 2.60128 -2.5 -0.129919
      vertex 2.60128 2.5 -0.129919
    endloop
  endfacet
  facet normal 0.707109 0 -0.707105
    outer loop
      vertex -2.77008 -2.5 -0.29872
      vertex -2.60128 2.5 -0.129919
      vertex -2.60128 -2.5 -0.129919
    endloop
  endfacet
  facet normal 0.707109 0 -0.707105
    outer loop
      vertex -2.60128 2.5 -0.129919
      vertex -2.77008 -2.5 -0.29872
      vertex -2.77008 2.5 -0.29872
    endloop
  endfacet
  facet normal 0.397145 0 -0.917756
    outer loop
      vertex -1.61796 -2.5 0.538342
      vertex -1.39887 2.5 0.63315
      vertex -1.39887 -2.5 0.63315
    endloop
  endfacet
  facet normal 0.397145 0 -0.917756
    outer loop
      vertex -1.39887 2.5 0.63315
      vertex -1.61796 -2.5 0.538342
      vertex -1.61796 2.5 0.538342
    endloop
  endfacet
  facet normal -0.917753 0 -0.397152
    outer loop
      vertex 3.53315 -2.5 -1.50113
      vertex 3.43834 2.5 -1.28204
      vertex 3.53315 2.5 -1.50113
    endloop
  endfacet
  facet normal -0.917753 -0 -0.397152
    outer loop
      vertex 3.43834 2.5 -1.28204
      vertex 3.53315 -2.5 -1.50113
      vertex 3.43834 -2.5 -1.28204
    endloop
  endfacet
  facet normal -0.397145 0 -0.917756
    outer loop
      vertex 1.39887 -2.5 0.63315
      vertex 1.61796 2.5 0.538342
      vertex 1.61796 -2.5 0.538342
    endloop
  endfacet
  facet normal -0.397145 0 -0.917756
    outer loop
      vertex 1.61796 2.5 0.538342
      vertex 1.39887 -2.5 0.63315
      vertex 1.39887 2.5 0.63315
    endloop
  endfacet
  facet normal 0.827064 0 -0.562108
    outer loop
      vertex -3.07426 -2.5 -0.666415
      vertex -3.20845 2.5 -0.863857
      vertex -3.07426 2.5 -0.666415
    endloop
  endfacet
  facet normal 0.827064 0 -0.562108
    outer loop
      vertex -3.20845 2.5 -0.863857
      vertex -3.07426 -2.5 -0.666415
      vertex -3.20845 -2.5 -0.863857
    endloop
  endfacet
  facet normal -0.960286 0 -0.279017
    outer loop
      vertex 3.68062 -2.5 -1.95498
      vertex 3.61401 2.5 -1.72573
      vertex 3.68062 2.5 -1.95498
    endloop
  endfacet
  facet normal -0.960286 -0 -0.279017
    outer loop
      vertex 3.61401 2.5 -1.72573
      vertex 3.68062 -2.5 -1.95498
      vertex 3.61401 -2.5 -1.72573
    endloop
  endfacet
  facet normal -0.827064 0 -0.562108
    outer loop
      vertex 3.20845 -2.5 -0.863857
      vertex 3.07426 2.5 -0.666415
      vertex 3.20845 2.5 -0.863857
    endloop
  endfacet
  facet normal -0.827064 -0 -0.562108
    outer loop
      vertex 3.07426 2.5 -0.666415
      vertex 3.20845 -2.5 -0.863857
      vertex 3.07426 -2.5 -0.666415
    endloop
  endfacet
  facet normal -0.75011 0 -0.661313
    outer loop
      vertex 2.92795 -2.5 -0.477788
      vertex 2.77008 2.5 -0.29872
      vertex 2.92795 2.5 -0.477788
    endloop
  endfacet
  facet normal -0.75011 -0 -0.661313
    outer loop
      vertex 2.77008 2.5 -0.29872
      vertex 2.92795 -2.5 -0.477788
      vertex 2.77008 -2.5 -0.29872
    endloop
  endfacet
  facet normal -0.218142 0 -0.975917
    outer loop
      vertex 0.712049 -2.5 0.832691
      vertex 0.945021 2.5 0.780616
      vertex 0.945021 -2.5 0.780616
    endloop
  endfacet
  facet normal -0.218142 0 -0.975917
    outer loop
      vertex 0.945021 2.5 0.780616
      vertex 0.712049 -2.5 0.832691
      vertex 0.712049 2.5 0.832691
    endloop
  endfacet
  facet normal -0.661307 0 -0.750116
    outer loop
      vertex 2.42221 -2.5 0.0279503
      vertex 2.60128 2.5 -0.129919
      vertex 2.60128 -2.5 -0.129919
    endloop
  endfacet
  facet normal -0.661307 0 -0.750116
    outer loop
      vertex 2.60128 2.5 -0.129919
      vertex 2.42221 -2.5 0.0279503
      vertex 2.42221 2.5 0.0279503
    endloop
  endfacet
  facet normal -0.453994 0 -0.891005
    outer loop
      vertex 1.61796 -2.5 0.538342
      vertex 1.83066 2.5 0.429965
      vertex 1.83066 -2.5 0.429965
    endloop
  endfacet
  facet normal -0.453994 0 -0.891005
    outer loop
      vertex 1.83066 2.5 0.429965
      vertex 1.61796 -2.5 0.538342
      vertex 1.61796 2.5 0.538342
    endloop
  endfacet
  facet normal 0.917753 0 -0.397152
    outer loop
      vertex -3.43834 -2.5 -1.28204
      vertex -3.53315 2.5 -1.50113
      vertex -3.43834 2.5 -1.28204
    endloop
  endfacet
  facet normal 0.917753 0 -0.397152
    outer loop
      vertex -3.53315 2.5 -1.50113
      vertex -3.43834 -2.5 -1.28204
      vertex -3.53315 -2.5 -1.50113
    endloop
  endfacet
  facet normal 0.860765 0 -0.509003
    outer loop
      vertex -3.20845 -2.5 -0.863857
      vertex -3.32996 2.5 -1.06934
      vertex -3.20845 2.5 -0.863857
    endloop
  endfacet
  facet normal 0.860765 0 -0.509003
    outer loop
      vertex -3.32996 2.5 -1.06934
      vertex -3.20845 -2.5 -0.863857
      vertex -3.32996 -2.5 -1.06934
    endloop
  endfacet
  facet normal 0.975921 0 -0.218123
    outer loop
      vertex -3.68062 -2.5 -1.95498
      vertex -3.73269 2.5 -2.18795
      vertex -3.68062 2.5 -1.95498
    endloop
  endfacet
  facet normal 0.975921 0 -0.218123
    outer loop
      vertex -3.73269 2.5 -2.18795
      vertex -3.68062 -2.5 -1.95498
      vertex -3.73269 -2.5 -2.18795
    endloop
  endfacet
  facet normal 0.987684 0 -0.156459
    outer loop
      vertex -3.73269 -2.5 -2.18795
      vertex -3.77004 2.5 -2.42373
      vertex -3.73269 2.5 -2.18795
    endloop
  endfacet
  facet normal 0.987684 0 -0.156459
    outer loop
      vertex -3.77004 2.5 -2.42373
      vertex -3.73269 -2.5 -2.18795
      vertex -3.77004 -2.5 -2.42373
    endloop
  endfacet
  facet normal 0.562089 0 -0.827077
    outer loop
      vertex -2.23358 -2.5 0.174264
      vertex -2.03614 2.5 0.308446
      vertex -2.03614 -2.5 0.308446
    endloop
  endfacet
  facet normal 0.562089 0 -0.827077
    outer loop
      vertex -2.03614 2.5 0.308446
      vertex -2.23358 -2.5 0.174264
      vertex -2.23358 2.5 0.174264
    endloop
  endfacet
  facet normal 0.0941097 0 -0.995562
    outer loop
      vertex -0.476266 -2.5 0.870035
      vertex -0.238604 2.5 0.892501
      vertex -0.238604 -2.5 0.892501
    endloop
  endfacet
  facet normal 0.0941097 0 -0.995562
    outer loop
      vertex -0.238604 2.5 0.892501
      vertex -0.476266 -2.5 0.870035
      vertex -0.476266 2.5 0.870035
    endloop
  endfacet
  facet normal -0.790163 0 -0.612896
    outer loop
      vertex 3.07426 -2.5 -0.666415
      vertex 2.92795 2.5 -0.477788
      vertex 3.07426 2.5 -0.666415
    endloop
  endfacet
  facet normal -0.790163 -0 -0.612896
    outer loop
      vertex 2.92795 2.5 -0.477788
      vertex 3.07426 -2.5 -0.666415
      vertex 2.92795 -2.5 -0.477788
    endloop
  endfacet
  facet normal -0.156433 0 -0.987689
    outer loop
      vertex 0.476266 -2.5 0.870035
      vertex 0.712049 2.5 0.832691
      vertex 0.712049 -2.5 0.832691
    endloop
  endfacet
  facet normal -0.156433 0 -0.987689
    outer loop
      vertex 0.712049 2.5 0.832691
      vertex 0.476266 -2.5 0.870035
      vertex 0.476266 2.5 0.870035
    endloop
  endfacet
  facet normal -0.278998 0 -0.960292
    outer loop
      vertex 0.945021 -2.5 0.780616
      vertex 1.17426 2.5 0.714014
      vertex 1.17426 -2.5 0.714014
    endloop
  endfacet
  facet normal -0.278998 0 -0.960292
    outer loop
      vertex 1.17426 2.5 0.714014
      vertex 0.945021 -2.5 0.780616
      vertex 0.945021 2.5 0.780616
    endloop
  endfacet
  facet normal -0.509037 0 -0.860745
    outer loop
      vertex 1.83066 -2.5 0.429965
      vertex 2.03614 2.5 0.308446
      vertex 2.03614 -2.5 0.308446
    endloop
  endfacet
  facet normal -0.509037 0 -0.860745
    outer loop
      vertex 2.03614 2.5 0.308446
      vertex 1.83066 -2.5 0.429965
      vertex 1.83066 2.5 0.429965
    endloop
  endfacet
  facet normal 0.790163 0 -0.612896
    outer loop
      vertex -2.92795 -2.5 -0.477788
      vertex -3.07426 2.5 -0.666415
      vertex -2.92795 2.5 -0.477788
    endloop
  endfacet
  facet normal 0.790163 0 -0.612896
    outer loop
      vertex -3.07426 2.5 -0.666415
      vertex -2.92795 -2.5 -0.477788
      vertex -3.07426 -2.5 -0.666415
    endloop
  endfacet
  facet normal 0.891 0 -0.454004
    outer loop
      vertex -3.32996 -2.5 -1.06934
      vertex -3.43834 2.5 -1.28204
      vertex -3.32996 2.5 -1.06934
    endloop
  endfacet
  facet normal 0.891 0 -0.454004
    outer loop
      vertex -3.43834 2.5 -1.28204
      vertex -3.32996 -2.5 -1.06934
      vertex -3.43834 -2.5 -1.28204
    endloop
  endfacet
  facet normal 0.940882 0 -0.338734
    outer loop
      vertex -3.53315 -2.5 -1.50113
      vertex -3.61401 2.5 -1.72573
      vertex -3.53315 2.5 -1.50113
    endloop
  endfacet
  facet normal 0.940882 0 -0.338734
    outer loop
      vertex -3.61401 2.5 -1.72573
      vertex -3.53315 -2.5 -1.50113
      vertex -3.61401 -2.5 -1.72573
    endloop
  endfacet
  facet normal 0.995562 0 -0.094113
    outer loop
      vertex -3.77004 -2.5 -2.42373
      vertex -3.77725 2.5 -2.5
      vertex -3.77004 2.5 -2.42373
    endloop
  endfacet
  facet normal 0.995562 0 -0.094113
    outer loop
      vertex -3.77725 2.5 -2.5
      vertex -3.77004 -2.5 -2.42373
      vertex -3.77725 -2.5 -2.5
    endloop
  endfacet
  facet normal 0.6129 0 -0.790161
    outer loop
      vertex -2.42221 -2.5 0.0279503
      vertex -2.23358 2.5 0.174264
      vertex -2.23358 -2.5 0.174264
    endloop
  endfacet
  facet normal 0.6129 0 -0.790161
    outer loop
      vertex -2.23358 2.5 0.174264
      vertex -2.42221 -2.5 0.0279503
      vertex -2.42221 2.5 0.0279503
    endloop
  endfacet
  facet normal 0.509037 0 -0.860745
    outer loop
      vertex -2.03614 -2.5 0.308446
      vertex -1.83066 2.5 0.429965
      vertex -1.83066 -2.5 0.429965
    endloop
  endfacet
  facet normal 0.509037 0 -0.860745
    outer loop
      vertex -1.83066 2.5 0.429965
      vertex -2.03614 -2.5 0.308446
      vertex -2.03614 2.5 0.308446
    endloop
  endfacet
  facet normal 0.278998 0 -0.960292
    outer loop
      vertex -1.17426 -2.5 0.714014
      vertex -0.945021 2.5 0.780616
      vertex -0.945021 -2.5 0.780616
    endloop
  endfacet
  facet normal 0.278998 0 -0.960292
    outer loop
      vertex -0.945021 2.5 0.780616
      vertex -1.17426 -2.5 0.714014
      vertex -1.17426 2.5 0.714014
    endloop
  endfacet
  facet normal 0.338736 0 -0.940882
    outer loop
      vertex -1.39887 -2.5 0.63315
      vertex -1.17426 2.5 0.714014
      vertex -1.17426 -2.5 0.714014
    endloop
  endfacet
  facet normal 0.338736 0 -0.940882
    outer loop
      vertex -1.17426 2.5 0.714014
      vertex -1.39887 -2.5 0.63315
      vertex -1.39887 2.5 0.63315
    endloop
  endfacet
  facet normal 0.0314131 0 -0.999506
    outer loop
      vertex -0.238604 -2.5 0.892501
      vertex 0 2.5 0.9
      vertex 0 -2.5 0.9
    endloop
  endfacet
  facet normal 0.0314131 0 -0.999506
    outer loop
      vertex 0 2.5 0.9
      vertex -0.238604 -2.5 0.892501
      vertex -0.238604 2.5 0.892501
    endloop
  endfacet
  facet normal -0.987684 0 -0.156459
    outer loop
      vertex 3.77004 -2.5 -2.42373
      vertex 3.73269 2.5 -2.18795
      vertex 3.77004 2.5 -2.42373
    endloop
  endfacet
  facet normal -0.987684 -0 -0.156459
    outer loop
      vertex 3.73269 2.5 -2.18795
      vertex 3.77004 -2.5 -2.42373
      vertex 3.73269 -2.5 -2.18795
    endloop
  endfacet
  facet normal -0.975921 0 -0.218123
    outer loop
      vertex 3.73269 -2.5 -2.18795
      vertex 3.68062 2.5 -1.95498
      vertex 3.73269 2.5 -2.18795
    endloop
  endfacet
  facet normal -0.975921 -0 -0.218123
    outer loop
      vertex 3.68062 2.5 -1.95498
      vertex 3.73269 -2.5 -2.18795
      vertex 3.68062 -2.5 -1.95498
    endloop
  endfacet
  facet normal -0.940882 0 -0.338734
    outer loop
      vertex 3.61401 -2.5 -1.72573
      vertex 3.53315 2.5 -1.50113
      vertex 3.61401 2.5 -1.72573
    endloop
  endfacet
  facet normal -0.940882 -0 -0.338734
    outer loop
      vertex 3.53315 2.5 -1.50113
      vertex 3.61401 -2.5 -1.72573
      vertex 3.53315 -2.5 -1.50113
    endloop
  endfacet
  facet normal -0.891 0 -0.454004
    outer loop
      vertex 3.43834 -2.5 -1.28204
      vertex 3.32996 2.5 -1.06934
      vertex 3.43834 2.5 -1.28204
    endloop
  endfacet
  facet normal -0.891 -0 -0.454004
    outer loop
      vertex 3.32996 2.5 -1.06934
      vertex 3.43834 -2.5 -1.28204
      vertex 3.32996 -2.5 -1.06934
    endloop
  endfacet
  facet normal -0.860765 0 -0.509003
    outer loop
      vertex 3.32996 -2.5 -1.06934
      vertex 3.20845 2.5 -0.863857
      vertex 3.32996 2.5 -1.06934
    endloop
  endfacet
  facet normal -0.860765 -0 -0.509003
    outer loop
      vertex 3.20845 2.5 -0.863857
      vertex 3.32996 -2.5 -1.06934
      vertex 3.20845 -2.5 -0.863857
    endloop
  endfacet
  facet normal -0.338736 0 -0.940882
    outer loop
      vertex 1.17426 -2.5 0.714014
      vertex 1.39887 2.5 0.63315
      vertex 1.39887 -2.5 0.63315
    endloop
  endfacet
  facet normal -0.338736 0 -0.940882
    outer loop
      vertex 1.39887 2.5 0.63315
      vertex 1.17426 -2.5 0.714014
      vertex 1.17426 2.5 0.714014
    endloop
  endfacet
  facet normal -0.0941097 0 -0.995562
    outer loop
      vertex 0.238604 -2.5 0.892501
      vertex 0.476266 2.5 0.870035
      vertex 0.476266 -2.5 0.870035
    endloop
  endfacet
  facet normal -0.0941097 0 -0.995562
    outer loop
      vertex 0.476266 2.5 0.870035
      vertex 0.238604 -2.5 0.892501
      vertex 0.238604 2.5 0.892501
    endloop
  endfacet
  facet normal -0.6129 0 -0.790161
    outer loop
      vertex 2.23358 -2.5 0.174264
      vertex 2.42221 2.5 0.0279503
      vertex 2.42221 -2.5 0.0279503
    endloop
  endfacet
  facet normal -0.6129 0 -0.790161
    outer loop
      vertex 2.42221 2.5 0.0279503
      vertex 2.23358 -2.5 0.174264
      vertex 2.23358 2.5 0.174264
    endloop
  endfacet
  facet normal -0.562089 0 -0.827077
    outer loop
      vertex 2.03614 -2.5 0.308446
      vertex 2.23358 2.5 0.174264
      vertex 2.23358 -2.5 0.174264
    endloop
  endfacet
  facet normal -0.562089 0 -0.827077
    outer loop
      vertex 2.23358 2.5 0.174264
      vertex 2.03614 -2.5 0.308446
      vertex 2.03614 2.5 0.308446
    endloop
  endfacet
  facet normal 0.75011 0 -0.661313
    outer loop
      vertex -2.77008 -2.5 -0.29872
      vertex -2.92795 2.5 -0.477788
      vertex -2.77008 2.5 -0.29872
    endloop
  endfacet
  facet normal 0.75011 0 -0.661313
    outer loop
      vertex -2.92795 2.5 -0.477788
      vertex -2.77008 -2.5 -0.29872
      vertex -2.92795 -2.5 -0.477788
    endloop
  endfacet
  facet normal 0.960286 0 -0.279017
    outer loop
      vertex -3.61401 -2.5 -1.72573
      vertex -3.68062 2.5 -1.95498
      vertex -3.61401 2.5 -1.72573
    endloop
  endfacet
  facet normal 0.960286 0 -0.279017
    outer loop
      vertex -3.68062 2.5 -1.95498
      vertex -3.61401 -2.5 -1.72573
      vertex -3.68062 -2.5 -1.95498
    endloop
  endfacet
  facet normal 0.661307 0 -0.750116
    outer loop
      vertex -2.60128 -2.5 -0.129919
      vertex -2.42221 2.5 0.0279503
      vertex -2.42221 -2.5 0.0279503
    endloop
  endfacet
  facet normal 0.661307 0 -0.750116
    outer loop
      vertex -2.42221 2.5 0.0279503
      vertex -2.60128 -2.5 -0.129919
      vertex -2.60128 2.5 -0.129919
    endloop
  endfacet
  facet normal 0.453994 0 -0.891005
    outer loop
      vertex -1.83066 -2.5 0.429965
      vertex -1.61796 2.5 0.538342
      vertex -1.61796 -2.5 0.538342
    endloop
  endfacet
  facet normal 0.453994 0 -0.891005
    outer loop
      vertex -1.61796 2.5 0.538342
      vertex -1.83066 -2.5 0.429965
      vertex -1.83066 2.5 0.429965
    endloop
  endfacet
  facet normal 0.156433 0 -0.987689
    outer loop
      vertex -0.712049 -2.5 0.832691
      vertex -0.476266 2.5 0.870035
      vertex -0.476266 -2.5 0.870035
    endloop
  endfacet
  facet normal 0.156433 0 -0.987689
    outer loop
      vertex -0.476266 2.5 0.870035
      vertex -0.712049 -2.5 0.832691
      vertex -0.712049 2.5 0.832691
    endloop
  endfacet
  facet normal 0.218142 0 -0.975917
    outer loop
      vertex -0.945021 -2.5 0.780616
      vertex -0.712049 2.5 0.832691
      vertex -0.712049 -2.5 0.832691
    endloop
  endfacet
  facet normal 0.218142 0 -0.975917
    outer loop
      vertex -0.712049 2.5 0.832691
      vertex -0.945021 -2.5 0.780616
      vertex -0.945021 2.5 0.780616
    endloop
  endfacet
endsolid OpenSCAD_Model
