solid OpenSCAD_Model
  facet normal -1 0 0
    outer loop
      vertex -5 -2.5 -2.5
      vertex -5 2.5 2.5
      vertex -5 2.5 -2.5
    endloop
  endfacet
  facet normal -1 -0 0
    outer loop
      vertex -5 2.5 2.5
      vertex -5 -2.5 -2.5
      vertex -5 -2.5 2.5
    endloop
  endfacet
  facet normal -0 0 1
    outer loop
      vertex -5 2.5 2.5
      vertex 5 -2.5 2.5
      vertex 5 2.5 2.5
    endloop
  endfacet
  facet normal 0 0 1
    outer loop
      vertex 5 -2.5 2.5
      vertex -5 2.5 2.5
      vertex -5 -2.5 2.5
    endloop
  endfacet
  facet normal 1 -0 0
    outer loop
      vertex 5 -2.5 2.5
      vertex 5 2.5 -2.5
      vertex 5 2.5 2.5
    endloop
  endfacet
  facet normal 1 0 0
    outer loop
      vertex 5 2.5 -2.5
      vertex 5 -2.5 2.5
      vertex 5 -2.5 -2.5
    endloop
  endfacet
  facet normal 0 0 -1
    outer loop
      vertex -5 -2.5 -2.5
      vertex -3.96858 2.5 -2.5
      vertex -3.96858 -2.5 -2.5
    endloop
  endfacet
  facet normal -0 0 -1
    outer loop
      vertex -3.96858 2.5 -2.5
      vertex -5 -2.5 -2.5
      vertex -5 2.5 -2.5
    endloop
  endfacet
  facet normal 0 0 -1
    outer loop
      vertex 3.96858 -2.5 -2.5
      vertex 5 2.5 -2.5
      vertex 5 -2.5 -2.5
    endloop
  endfacet
  facet normal -0 0 -1
    outer loop
      vertex 5 2.5 -2.5
      vertex 3.96858 -2.5 -2.5
      vertex 3.96858 2.5 -2.5
    endloop
  endfacet
  facet normal 0 -1 0
    outer loop
      vertex -5 -2.5 2.5
      vertex 0 -2.5 1
      vertex 5 -2.5 2.5
    endloop
  endfacet
  facet normal 0 -1 0
    outer loop
      vertex -5 -2.5 2.5
      vertex -0.251162 -2.5 0.992106
      vertex 0 -2.5 1
    endloop
  endfacet
  facet normal 0 -1 0
    outer loop
      vertex -5 -2.5 2.5
      vertex -0.501332 -2.5 0.968458
      vertex -0.251162 -2.5 0.992106
    endloop
  endfacet
  facet normal 0 -1 0
    outer loop
      vertex -5 -2.5 2.5
      vertex -0.749525 -2.5 0.929149
      vertex -0.501332 -2.5 0.968458
    endloop
  endfacet
  facet normal 0 -1 0
    outer loop
      vertex -5 -2.5 2.5
      vertex -0.994759 -2.5 0.874332
      vertex -0.749525 -2.5 0.929149
    endloop
  endfacet
  facet normal 0 -1 0
    outer loop
      vertex -5 -2.5 2.5
      vertex -1.23607 -2.5 0.804226
      vertex -0.994759 -2.5 0.874332
    endloop
  endfacet
  facet normal 0 -1 0
    outer loop
      vertex -5 -2.5 2.5
      vertex -1.4725 -2.5 0.719106
      vertex -1.23607 -2.5 0.804226
    endloop
  endfacet
  facet normal 0 -1 0
    outer loop
      vertex -5 -2.5 2.5
      vertex -1.70312 -2.5 0.619308
      vertex -1.4725 -2.5 0.719106
    endloop
  endfacet
  facet normal 0 -1 0
    outer loop
      vertex -5 -2.5 2.5
      vertex -1.92701 -2.5 0.505226
      vertex -1.70312 -2.5 0.619308
    endloop
  endfacet
  facet normal 0 -1 0
    outer loop
      vertex -5 -2.5 2.5
      vertex -2.14331 -2.5 0.377311
      vertex -1.92701 -2.5 0.505226
    endloop
  endfacet
  facet normal 0 -1 0
    outer loop
      vertex -5 -2.5 2.5
      vertex -2.35114 -2.5 0.236068
      vertex -2.14331 -2.5 0.377311
    endloop
  endfacet
  facet normal 0 -1 0
    outer loop
      vertex -5 -2.5 2.5
      vertex -2.5497 -2.5 0.0820522
      vertex -2.35114 -2.5 0.236068
    endloop
  endfacet
  facet normal 0 -1 0
    outer loop
      vertex -5 -2.5 2.5
      vertex -2.73819 -2.5 -0.0841246
      vertex -2.5497 -2.5 0.0820522
    endloop
  endfacet
  facet normal 0 -1 0
    outer loop
      vertex -5 -2.5 2.5
      vertex -2.91587 -2.5 -0.261811
      vertex -2.73819 -2.5 -0.0841246
    endloop
  endfacet
  facet normal 0 -1 0
    outer loop
      vertex -5 -2.5 2.5
      vertex -3.08205 -2.5 -0.450304
      vertex -2.91587 -2.5 -0.261811
    endloop
  endfacet
  facet normal 0 -1 0
    outer loop
      vertex -5 -2.5 2.5
      vertex -3.23607 -2.5 -0.648858
      vertex -3.08205 -2.5 -0.450304
    endloop
  endfacet
  facet normal 0 -1 0
    outer loop
      vertex -5 -2.5 2.5
      vertex -3.37731 -2.5 -0.856692
      vertex -3.23607 -2.5 -0.648858
    endloop
  endfacet
  facet normal 0 -1 0
    outer loop
      vertex -5 -2.5 2.5
      vertex -3.50523 -2.5 -1.07298
      vertex -3.37731 -2.5 -0.856692
    endloop
  endfacet
  facet normal 0 -1 0
    outer loop
      vertex -5 -2.5 2.5
      vertex -3.61931 -2.5 -1.29688
      vertex -3.50523 -2.5 -1.07298
    endloop
  endfacet
  facet normal 0 -1 0
    outer loop
      vertex -5 -2.5 -2.5
      vertex -3.61931 -2.5 -1.29688
      vertex -5 -2.5 2.5
    endloop
  endfacet
  facet normal 0 -1 0
    outer loop
      vertex -3.61931 -2.5 -1.29688
      vertex -5 -2.5 -2.5
      vertex -3.71911 -2.5 -1.5275
    endloop
  endfacet
  facet normal 0 -1 0
    outer loop
      vertex -3.71911 -2.5 -1.5275
      vertex -5 -2.5 -2.5
      vertex -3.80423 -2.5 -1.76393
    endloop
  endfacet
  facet normal 0 -1 0
    outer loop
      vertex -3.80423 -2.5 -1.76393
      vertex -5 -2.5 -2.5
      vertex -3.87433 -2.5 -2.00524
    endloop
  endfacet
  facet normal 0 -1 0
    outer loop
      vertex -3.87433 -2.5 -2.00524
      vertex -5 -2.5 -2.5
      vertex -3.92915 -2.5 -2.25047
    endloop
  endfacet
  facet normal 0 -1 0
    outer loop
      vertex -3.92915 -2.5 -2.25047
      vertex -5 -2.5 -2.5
      vertex -3.96846 -2.5 -2.49867
    endloop
  endfacet
  facet normal 0 -1 0
    outer loop
      vertex -3.96846 -2.5 -2.49867
      vertex -5 -2.5 -2.5
      vertex -3.96858 -2.5 -2.5
    endloop
  endfacet
  facet normal 0 -1 0
    outer loop
      vertex 0.251162 -2.5 0.992106
      vertex 5 -2.5 2.5
      vertex 0 -2.5 1
    endloop
  endfacet
  facet normal 0 -1 0
    outer loop
      vertex 0.501332 -2.5 0.968458
      vertex 5 -2.5 2.5
      vertex 0.251162 -2.5 0.992106
    endloop
  endfacet
  facet normal 0 -1 0
    outer loop
      vertex 0.749525 -2.5 0.929149
      vertex 5 -2.5 2.5
      vertex 0.501332 -2.5 0.968458
    endloop
  endfacet
  facet normal 0 -1 0
    outer loop
      vertex 0.994759 -2.5 0.874332
      vertex 5 -2.5 2.5
      vertex 0.749525 -2.5 0.929149
    endloop
  endfacet
  facet normal 0 -1 0
    outer loop
      vertex 1.23607 -2.5 0.804226
      vertex 5 -2.5 2.5
      vertex 0.994759 -2.5 0.874332
    endloop
  endfacet
  facet normal 0 -1 0
    outer loop
      vertex 1.4725 -2.5 0.719106
      vertex 5 -2.5 2.5
      vertex 1.23607 -2.5 0.804226
    endloop
  endfacet
  facet normal 0 -1 0
    outer loop
      vertex 1.70312 -2.5 0.619308
      vertex 5 -2.5 2.5
      vertex 1.4725 -2.5 0.719106
    endloop
  endfacet
  facet normal 0 -1 0
    outer loop
      vertex 1.92701 -2.5 0.505226
      vertex 5 -2.5 2.5
      vertex 1.70312 -2.5 0.619308
    endloop
  endfacet
  facet normal 0 -1 0
    outer loop
      vertex 2.14331 -2.5 0.377311
      vertex 5 -2.5 2.5
      vertex 1.92701 -2.5 0.505226
    endloop
  endfacet
  facet normal 0 -1 0
    outer loop
      vertex 2.35114 -2.5 0.236068
      vertex 5 -2.5 2.5
      vertex 2.14331 -2.5 0.377311
    endloop
  endfacet
  facet normal 0 -1 0
    outer loop
      vertex 2.5497 -2.5 0.0820522
      vertex 5 -2.5 2.5
      vertex 2.35114 -2.5 0.236068
    endloop
  endfacet
  facet normal 0 -1 0
    outer loop
      vertex 2.73819 -2.5 -0.0841246
      vertex 5 -2.5 2.5
      vertex 2.5497 -2.5 0.0820522
    endloop
  endfacet
  facet normal 0 -1 0
    outer loop
      vertex 2.91587 -2.5 -0.261811
      vertex 5 -2.5 2.5
      vertex 2.73819 -2.5 -0.0841246
    endloop
  endfacet
  facet normal 0 -1 0
    outer loop
      vertex 3.08205 -2.5 -0.450304
      vertex 5 -2.5 2.5
      vertex 2.91587 -2.5 -0.261811
    endloop
  endfacet
  facet normal 0 -1 0
    outer loop
      vertex 3.23607 -2.5 -0.648858
      vertex 5 -2.5 2.5
      vertex 3.08205 -2.5 -0.450304
    endloop
  endfacet
  facet normal 0 -1 0
    outer loop
      vertex 3.37731 -2.5 -0.856692
      vertex 5 -2.5 2.5
      vertex 3.23607 -2.5 -0.648858
    endloop
  endfacet
  facet normal 0 -1 0
    outer loop
      vertex 3.50523 -2.5 -1.07298
      vertex 5 -2.5 2.5
      vertex 3.37731 -2.5 -0.856692
    endloop
  endfacet
  facet normal 0 -1 0
    outer loop
      vertex 3.61931 -2.5 -1.29688
      vertex 5 -2.5 2.5
      vertex 3.50523 -2.5 -1.07298
    endloop
  endfacet
  facet normal 0 -1 0
    outer loop
      vertex 5 -2.5 -2.5
      vertex 3.61931 -2.5 -1.29688
      vertex 3.71911 -2.5 -1.5275
    endloop
  endfacet
  facet normal 0 -1 0
    outer loop
      vertex 5 -2.5 -2.5
      vertex 3.71911 -2.5 -1.5275
      vertex 3.80423 -2.5 -1.76393
    endloop
  endfacet
  facet normal 0 -1 0
    outer loop
      vertex 5 -2.5 -2.5
      vertex 3.80423 -2.5 -1.76393
      vertex 3.87433 -2.5 -2.00524
    endloop
  endfacet
  facet normal 0 -1 0
    outer loop
      vertex 5 -2.5 -2.5
      vertex 3.87433 -2.5 -2.00524
      vertex 3.92915 -2.5 -2.25047
    endloop
  endfacet
  facet normal 0 -1 0
    outer loop
      vertex 5 -2.5 -2.5
      vertex 3.92915 -2.5 -2.25047
      vertex 3.96846 -2.5 -2.49867
    endloop
  endfacet
  facet normal 0 -1 0
    outer loop
      vertex 5 -2.5 -2.5
      vertex 3.96846 -2.5 -2.49867
      vertex 3.96858 -2.5 -2.5
    endloop
  endfacet
  facet normal 0 -1 0
    outer loop
      vertex 3.61931 -2.5 -1.29688
      vertex 5 -2.5 -2.5
      vertex 5 -2.5 2.5
    endloop
  endfacet
  facet normal 0 1 0
    outer loop
      vertex 5 2.5 2.5
      vertex 0 2.5 1
      vertex -5 2.5 2.5
    endloop
  endfacet
  facet normal 0 1 0
    outer loop
      vertex 5 2.5 2.5
      vertex 0.251162 2.5 0.992106
      vertex 0 2.5 1
    endloop
  endfacet
  facet normal 0 1 0
    outer loop
      vertex 5 2.5 2.5
      vertex 0.501332 2.5 0.968458
      vertex 0.251162 2.5 0.992106
    endloop
  endfacet
  facet normal 0 1 0
    outer loop
      vertex 5 2.5 2.5
      vertex 0.749525 2.5 0.929149
      vertex 0.501332 2.5 0.968458
    endloop
  endfacet
  facet normal 0 1 0
    outer loop
      vertex 5 2.5 2.5
      vertex 0.994759 2.5 0.874332
      vertex 0.749525 2.5 0.929149
    endloop
  endfacet
  facet normal 0 1 0
    outer loop
      vertex 5 2.5 2.5
      vertex 1.23607 2.5 0.804226
      vertex 0.994759 2.5 0.874332
    endloop
  endfacet
  facet normal 0 1 0
    outer loop
      vertex 5 2.5 2.5
      vertex 1.4725 2.5 0.719106
      vertex 1.23607 2.5 0.804226
    endloop
  endfacet
  facet normal 0 1 0
    outer loop
      vertex 5 2.5 2.5
      vertex 1.70312 2.5 0.619308
      vertex 1.4725 2.5 0.719106
    endloop
  endfacet
  facet normal 0 1 0
    outer loop
      vertex 5 2.5 2.5
      vertex 1.92701 2.5 0.505226
      vertex 1.70312 2.5 0.619308
    endloop
  endfacet
  facet normal 0 1 0
    outer loop
      vertex 5 2.5 2.5
      vertex 2.14331 2.5 0.377311
      vertex 1.92701 2.5 0.505226
    endloop
  endfacet
  facet normal 0 1 0
    outer loop
      vertex 5 2.5 2.5
      vertex 2.35114 2.5 0.236068
      vertex 2.14331 2.5 0.377311
    endloop
  endfacet
  facet normal 0 1 0
    outer loop
      vertex 5 2.5 2.5
      vertex 2.5497 2.5 0.0820522
      vertex 2.35114 2.5 0.236068
    endloop
  endfacet
  facet normal 0 1 0
    outer loop
      vertex 5 2.5 2.5
      vertex 2.73819 2.5 -0.0841246
      vertex 2.5497 2.5 0.0820522
    endloop
  endfacet
  facet normal 0 1 0
    outer loop
      vertex 5 2.5 2.5
      vertex 2.91587 2.5 -0.261811
      vertex 2.73819 2.5 -0.0841246
    endloop
  endfacet
  facet normal 0 1 0
    outer loop
      vertex 5 2.5 2.5
      vertex 3.08205 2.5 -0.450304
      vertex 2.91587 2.5 -0.261811
    endloop
  endfacet
  facet normal 0 1 0
    outer loop
      vertex 5 2.5 2.5
      vertex 3.23607 2.5 -0.648858
      vertex 3.08205 2.5 -0.450304
    endloop
  endfacet
  facet normal 0 1 0
    outer loop
      vertex 5 2.5 2.5
      vertex 3.37731 2.5 -0.856692
      vertex 3.23607 2.5 -0.648858
    endloop
  endfacet
  facet normal 0 1 0
    outer loop
      vertex 5 2.5 2.5
      vertex 3.50523 2.5 -1.07298
      vertex 3.37731 2.5 -0.856692
    endloop
  endfacet
  facet normal 0 1 0
    outer loop
      vertex 5 2.5 2.5
      vertex 3.61931 2.5 -1.29688
      vertex 3.50523 2.5 -1.07298
    endloop
  endfacet
  facet normal 0 1 -0
    outer loop
      vertex 5 2.5 -2.5
      vertex 3.61931 2.5 -1.29688
      vertex 5 2.5 2.5
    endloop
  endfacet
  facet normal 0 1 0
    outer loop
      vertex 3.61931 2.5 -1.29688
      vertex 5 2.5 -2.5
      vertex 3.71911 2.5 -1.5275
    endloop
  endfacet
  facet normal 0 1 0
    outer loop
      vertex 3.71911 2.5 -1.5275
      vertex 5 2.5 -2.5
      vertex 3.80423 2.5 -1.76393
    endloop
  endfacet
  facet normal 0 1 0
    outer loop
      vertex 3.80423 2.5 -1.76393
      vertex 5 2.5 -2.5
      vertex 3.87433 2.5 -2.00524
    endloop
  endfacet
  facet normal 0 1 0
    outer loop
      vertex 3.87433 2.5 -2.00524
      vertex 5 2.5 -2.5
      vertex 3.92915 2.5 -2.25047
    endloop
  endfacet
  facet normal 0 1 0
    outer loop
      vertex 3.92915 2.5 -2.25047
      vertex 5 2.5 -2.5
      vertex 3.96846 2.5 -2.49867
    endloop
  endfacet
  facet normal 0 1 0
    outer loop
      vertex 3.96846 2.5 -2.49867
      vertex 5 2.5 -2.5
      vertex 3.96858 2.5 -2.5
    endloop
  endfacet
  facet normal 0 1 -0
    outer loop
      vertex -0.251162 2.5 0.992106
      vertex -5 2.5 2.5
      vertex 0 2.5 1
    endloop
  endfacet
  facet normal 0 1 -0
    outer loop
      vertex -0.501332 2.5 0.968458
      vertex -5 2.5 2.5
      vertex -0.251162 2.5 0.992106
    endloop
  endfacet
  facet normal 0 1 -0
    outer loop
      vertex -0.749525 2.5 0.929149
      vertex -5 2.5 2.5
      vertex -0.501332 2.5 0.968458
    endloop
  endfacet
  facet normal 0 1 -0
    outer loop
      vertex -0.994759 2.5 0.874332
      vertex -5 2.5 2.5
      vertex -0.749525 2.5 0.929149
    endloop
  endfacet
  facet normal 0 1 -0
    outer loop
      vertex -1.23607 2.5 0.804226
      vertex -5 2.5 2.5
      vertex -0.994759 2.5 0.874332
    endloop
  endfacet
  facet normal 0 1 -0
    outer loop
      vertex -1.4725 2.5 0.719106
      vertex -5 2.5 2.5
      vertex -1.23607 2.5 0.804226
    endloop
  endfacet
  facet normal 0 1 -0
    outer loop
      vertex -1.70312 2.5 0.619308
      vertex -5 2.5 2.5
      vertex -1.4725 2.5 0.719106
    endloop
  endfacet
  facet normal 0 1 -0
    outer loop
      vertex -1.92701 2.5 0.505226
      vertex -5 2.5 2.5
      vertex -1.70312 2.5 0.619308
    endloop
  endfacet
  facet normal 0 1 -0
    outer loop
      vertex -2.14331 2.5 0.377311
      vertex -5 2.5 2.5
      vertex -1.92701 2.5 0.505226
    endloop
  endfacet
  facet normal 0 1 -0
    outer loop
      vertex -2.35114 2.5 0.236068
      vertex -5 2.5 2.5
      vertex -2.14331 2.5 0.377311
    endloop
  endfacet
  facet normal 0 1 -0
    outer loop
      vertex -2.5497 2.5 0.0820522
      vertex -5 2.5 2.5
      vertex -2.35114 2.5 0.236068
    endloop
  endfacet
  facet normal 0 1 -0
    outer loop
      vertex -2.73819 2.5 -0.0841246
      vertex -5 2.5 2.5
      vertex -2.5497 2.5 0.0820522
    endloop
  endfacet
  facet normal 0 1 -0
    outer loop
      vertex -2.91587 2.5 -0.261811
      vertex -5 2.5 2.5
      vertex -2.73819 2.5 -0.0841246
    endloop
  endfacet
  facet normal 0 1 -0
    outer loop
      vertex -3.08205 2.5 -0.450304
      vertex -5 2.5 2.5
      vertex -2.91587 2.5 -0.261811
    endloop
  endfacet
  facet normal 0 1 -0
    outer loop
      vertex -3.23607 2.5 -0.648858
      vertex -5 2.5 2.5
      vertex -3.08205 2.5 -0.450304
    endloop
  endfacet
  facet normal 0 1 -0
    outer loop
      vertex -3.37731 2.5 -0.856692
      vertex -5 2.5 2.5
      vertex -3.23607 2.5 -0.648858
    endloop
  endfacet
  facet normal 0 1 -0
    outer loop
      vertex -3.50523 2.5 -1.07298
      vertex -5 2.5 2.5
      vertex -3.37731 2.5 -0.856692
    endloop
  endfacet
  facet normal 0 1 -0
    outer loop
      vertex -3.61931 2.5 -1.29688
      vertex -5 2.5 2.5
      vertex -3.50523 2.5 -1.07298
    endloop
  endfacet
  facet normal 0 1 0
    outer loop
      vertex -5 2.5 -2.5
      vertex -3.61931 2.5 -1.29688
      vertex -3.71911 2.5 -1.5275
    endloop
  endfacet
  facet normal 0 1 0
    outer loop
      vertex -5 2.5 -2.5
      vertex -3.71911 2.5 -1.5275
      vertex -3.80423 2.5 -1.76393
    endloop
  endfacet
  facet normal 0 1 0
    outer loop
      vertex -5 2.5 -2.5
      vertex -3.80423 2.5 -1.76393
      vertex -3.87433 2.5 -2.00524
    endloop
  endfacet
  facet normal 0 1 0
    outer loop
      vertex -5 2.5 -2.5
      vertex -3.87433 2.5 -2.00524
      vertex -3.92915 2.5 -2.25047
    endloop
  endfacet
  facet normal 0 1 0
    outer loop
      vertex -5 2.5 -2.5
      vertex -3.92915 2.5 -2.25047
      vertex -3.96846 2.5 -2.49867
    endloop
  endfacet
  facet normal 0 1 0
    outer loop
      vertex -5 2.5 -2.5
      vertex -3.96846 2.5 -2.49867
      vertex -3.96858 2.5 -2.5
    endloop
  endfacet
  facet normal 0 1 0
    outer loop
      vertex -3.61931 2.5 -1.29688
      vertex -5 2.5 -2.5
      vertex -5 2.5 2.5
    endloop
  endfacet
  facet normal -0.995954 0 -0.0898605
    outer loop
      vertex 3.96858 -2.5 -2.5
      vertex 3.96846 2.5 -2.49867
      vertex 3.96858 2.5 -2.5
    endloop
  endfacet
  facet normal -0.995954 -0 -0.0898605
    outer loop
      vertex 3.96846 2.5 -2.49867
      vertex 3.96858 -2.5 -2.5
      vertex 3.96846 -2.5 -2.49867
    endloop
  endfacet
  facet normal -0.0314144 0 -0.999506
    outer loop
      vertex 0 -2.5 1
      vertex 0.251162 2.5 0.992106
      vertex 0.251162 -2.5 0.992106
    endloop
  endfacet
  facet normal -0.0314144 0 -0.999506
    outer loop
      vertex 0.251162 2.5 0.992106
      vertex 0 -2.5 1
      vertex 0 2.5 1
    endloop
  endfacet
  facet normal -0.70712 0 -0.707094
    outer loop
      vertex 2.91587 -2.5 -0.261811
      vertex 2.73819 2.5 -0.0841246
      vertex 2.91587 2.5 -0.261811
    endloop
  endfacet
  facet normal -0.70712 -0 -0.707094
    outer loop
      vertex 2.73819 2.5 -0.0841246
      vertex 2.91587 -2.5 -0.261811
      vertex 2.73819 -2.5 -0.0841246
    endloop
  endfacet
  facet normal 0.661313 0 -0.75011
    outer loop
      vertex -2.73819 -2.5 -0.0841246
      vertex -2.5497 2.5 0.0820522
      vertex -2.5497 -2.5 0.0820522
    endloop
  endfacet
  facet normal 0.661313 0 -0.75011
    outer loop
      vertex -2.5497 2.5 0.0820522
      vertex -2.73819 -2.5 -0.0841246
      vertex -2.73819 2.5 -0.0841246
    endloop
  endfacet
  facet normal 0.338738 0 -0.940881
    outer loop
      vertex -1.4725 -2.5 0.719106
      vertex -1.23607 2.5 0.804226
      vertex -1.23607 -2.5 0.804226
    endloop
  endfacet
  facet normal 0.338738 0 -0.940881
    outer loop
      vertex -1.23607 2.5 0.804226
      vertex -1.4725 -2.5 0.719106
      vertex -1.4725 2.5 0.719106
    endloop
  endfacet
  facet normal -0.917752 0 -0.397154
    outer loop
      vertex 3.71911 -2.5 -1.5275
      vertex 3.61931 2.5 -1.29688
      vertex 3.71911 2.5 -1.5275
    endloop
  endfacet
  facet normal -0.917752 -0 -0.397154
    outer loop
      vertex 3.61931 2.5 -1.29688
      vertex 3.71911 -2.5 -1.5275
      vertex 3.61931 -2.5 -1.29688
    endloop
  endfacet
  facet normal -0.975913 0 -0.218161
    outer loop
      vertex 3.92915 -2.5 -2.25047
      vertex 3.87433 2.5 -2.00524
      vertex 3.92915 2.5 -2.25047
    endloop
  endfacet
  facet normal -0.975913 -0 -0.218161
    outer loop
      vertex 3.87433 2.5 -2.00524
      vertex 3.92915 -2.5 -2.25047
      vertex 3.87433 -2.5 -2.00524
    endloop
  endfacet
  facet normal -0.891011 0 -0.453982
    outer loop
      vertex 3.61931 -2.5 -1.29688
      vertex 3.50523 2.5 -1.07298
      vertex 3.61931 2.5 -1.29688
    endloop
  endfacet
  facet normal -0.891011 -0 -0.453982
    outer loop
      vertex 3.50523 2.5 -1.07298
      vertex 3.61931 -2.5 -1.29688
      vertex 3.50523 -2.5 -1.07298
    endloop
  endfacet
  facet normal -0.750109 0 -0.661314
    outer loop
      vertex 3.08205 -2.5 -0.450304
      vertex 2.91587 2.5 -0.261811
      vertex 3.08205 2.5 -0.450304
    endloop
  endfacet
  facet normal -0.750109 -0 -0.661314
    outer loop
      vertex 2.91587 2.5 -0.261811
      vertex 3.08205 -2.5 -0.450304
      vertex 2.91587 -2.5 -0.261811
    endloop
  endfacet
  facet normal -0.218146 0 -0.975916
    outer loop
      vertex 0.749525 -2.5 0.929149
      vertex 0.994759 2.5 0.874332
      vertex 0.994759 -2.5 0.874332
    endloop
  endfacet
  facet normal -0.218146 0 -0.975916
    outer loop
      vertex 0.994759 2.5 0.874332
      vertex 0.749525 -2.5 0.929149
      vertex 0.749525 2.5 0.929149
    endloop
  endfacet
  facet normal -0.156431 0 -0.987689
    outer loop
      vertex 0.501332 -2.5 0.968458
      vertex 0.749525 2.5 0.929149
      vertex 0.749525 -2.5 0.929149
    endloop
  endfacet
  facet normal -0.156431 0 -0.987689
    outer loop
      vertex 0.749525 2.5 0.929149
      vertex 0.501332 -2.5 0.968458
      vertex 0.501332 2.5 0.968458
    endloop
  endfacet
  facet normal 0.790144 0 -0.612921
    outer loop
      vertex -3.08205 -2.5 -0.450304
      vertex -3.23607 2.5 -0.648858
      vertex -3.08205 2.5 -0.450304
    endloop
  endfacet
  facet normal 0.790144 0 -0.612921
    outer loop
      vertex -3.23607 2.5 -0.648858
      vertex -3.08205 -2.5 -0.450304
      vertex -3.23607 -2.5 -0.648858
    endloop
  endfacet
  facet normal 0.827088 0 -0.562073
    outer loop
      vertex -3.23607 -2.5 -0.648858
      vertex -3.37731 2.5 -0.856692
      vertex -3.23607 2.5 -0.648858
    endloop
  endfacet
  facet normal 0.827088 0 -0.562073
    outer loop
      vertex -3.37731 2.5 -0.856692
      vertex -3.23607 -2.5 -0.648858
      vertex -3.37731 -2.5 -0.856692
    endloop
  endfacet
  facet normal 0.975913 0 -0.218161
    outer loop
      vertex -3.87433 -2.5 -2.00524
      vertex -3.92915 2.5 -2.25047
      vertex -3.87433 2.5 -2.00524
    endloop
  endfacet
  facet normal 0.975913 0 -0.218161
    outer loop
      vertex -3.92915 2.5 -2.25047
      vertex -3.87433 -2.5 -2.00524
      vertex -3.92915 -2.5 -2.25047
    endloop
  endfacet
  facet normal 0.987689 0 -0.156431
    outer loop
      vertex -3.92915 -2.5 -2.25047
      vertex -3.96846 2.5 -2.49867
      vertex -3.92915 2.5 -2.25047
    endloop
  endfacet
  facet normal 0.987689 0 -0.156431
    outer loop
      vertex -3.96846 2.5 -2.49867
      vertex -3.92915 -2.5 -2.25047
      vertex -3.96846 -2.5 -2.49867
    endloop
  endfacet
  facet normal 0.509028 0 -0.86075
    outer loop
      vertex -2.14331 -2.5 0.377311
      vertex -1.92701 2.5 0.505226
      vertex -1.92701 -2.5 0.505226
    endloop
  endfacet
  facet normal 0.509028 0 -0.86075
    outer loop
      vertex -1.92701 2.5 0.505226
      vertex -2.14331 -2.5 0.377311
      vertex -2.14331 2.5 0.377311
    endloop
  endfacet
  facet normal 0.0314144 0 -0.999506
    outer loop
      vertex -0.251162 -2.5 0.992106
      vertex 0 2.5 1
      vertex 0 -2.5 1
    endloop
  endfacet
  facet normal 0.0314144 0 -0.999506
    outer loop
      vertex 0 2.5 1
      vertex -0.251162 -2.5 0.992106
      vertex -0.251162 2.5 0.992106
    endloop
  endfacet
  facet normal -0.987689 0 -0.156431
    outer loop
      vertex 3.96846 -2.5 -2.49867
      vertex 3.92915 2.5 -2.25047
      vertex 3.96846 2.5 -2.49867
    endloop
  endfacet
  facet normal -0.987689 -0 -0.156431
    outer loop
      vertex 3.92915 2.5 -2.25047
      vertex 3.96846 -2.5 -2.49867
      vertex 3.92915 -2.5 -2.25047
    endloop
  endfacet
  facet normal -0.940881 0 -0.338738
    outer loop
      vertex 3.80423 -2.5 -1.76393
      vertex 3.71911 2.5 -1.5275
      vertex 3.80423 2.5 -1.76393
    endloop
  endfacet
  facet normal -0.940881 -0 -0.338738
    outer loop
      vertex 3.71911 2.5 -1.5275
      vertex 3.80423 -2.5 -1.76393
      vertex 3.71911 -2.5 -1.5275
    endloop
  endfacet
  facet normal -0.960301 0 -0.278965
    outer loop
      vertex 3.87433 -2.5 -2.00524
      vertex 3.80423 2.5 -1.76393
      vertex 3.87433 2.5 -2.00524
    endloop
  endfacet
  facet normal -0.960301 -0 -0.278965
    outer loop
      vertex 3.80423 2.5 -1.76393
      vertex 3.87433 -2.5 -2.00524
      vertex 3.80423 -2.5 -1.76393
    endloop
  endfacet
  facet normal -0.790144 0 -0.612921
    outer loop
      vertex 3.23607 -2.5 -0.648858
      vertex 3.08205 2.5 -0.450304
      vertex 3.23607 2.5 -0.648858
    endloop
  endfacet
  facet normal -0.790144 -0 -0.612921
    outer loop
      vertex 3.08205 2.5 -0.450304
      vertex 3.23607 -2.5 -0.648858
      vertex 3.08205 -2.5 -0.450304
    endloop
  endfacet
  facet normal -0.338738 0 -0.940881
    outer loop
      vertex 1.23607 -2.5 0.804226
      vertex 1.4725 2.5 0.719106
      vertex 1.4725 -2.5 0.719106
    endloop
  endfacet
  facet normal -0.338738 0 -0.940881
    outer loop
      vertex 1.4725 2.5 0.719106
      vertex 1.23607 -2.5 0.804226
      vertex 1.23607 2.5 0.804226
    endloop
  endfacet
  facet normal -0.0941082 0 -0.995562
    outer loop
      vertex 0.251162 -2.5 0.992106
      vertex 0.501332 2.5 0.968458
      vertex 0.501332 -2.5 0.968458
    endloop
  endfacet
  facet normal -0.0941082 0 -0.995562
    outer loop
      vertex 0.501332 2.5 0.968458
      vertex 0.251162 -2.5 0.992106
      vertex 0.251162 2.5 0.992106
    endloop
  endfacet
  facet normal -0.397147 0 -0.917755
    outer loop
      vertex 1.4725 -2.5 0.719106
      vertex 1.70312 2.5 0.619308
      vertex 1.70312 -2.5 0.619308
    endloop
  endfacet
  facet normal -0.397147 0 -0.917755
    outer loop
      vertex 1.70312 2.5 0.619308
      vertex 1.4725 -2.5 0.719106
      vertex 1.4725 2.5 0.719106
    endloop
  endfacet
  facet normal -0.509028 0 -0.86075
    outer loop
      vertex 1.92701 -2.5 0.505226
      vertex 2.14331 2.5 0.377311
      vertex 2.14331 -2.5 0.377311
    endloop
  endfacet
  facet normal -0.509028 0 -0.86075
    outer loop
      vertex 2.14331 2.5 0.377311
      vertex 1.92701 -2.5 0.505226
      vertex 1.92701 2.5 0.505226
    endloop
  endfacet
  facet normal -0.562088 0 -0.827077
    outer loop
      vertex 2.14331 -2.5 0.377311
      vertex 2.35114 2.5 0.236068
      vertex 2.35114 -2.5 0.236068
    endloop
  endfacet
  facet normal -0.562088 0 -0.827077
    outer loop
      vertex 2.35114 2.5 0.236068
      vertex 2.14331 -2.5 0.377311
      vertex 2.14331 2.5 0.377311
    endloop
  endfacet
  facet normal 0.860729 0 -0.509064
    outer loop
      vertex -3.37731 -2.5 -0.856692
      vertex -3.50523 2.5 -1.07298
      vertex -3.37731 2.5 -0.856692
    endloop
  endfacet
  facet normal 0.860729 0 -0.509064
    outer loop
      vertex -3.50523 2.5 -1.07298
      vertex -3.37731 -2.5 -0.856692
      vertex -3.50523 -2.5 -1.07298
    endloop
  endfacet
  facet normal 0.917752 0 -0.397154
    outer loop
      vertex -3.61931 -2.5 -1.29688
      vertex -3.71911 2.5 -1.5275
      vertex -3.61931 2.5 -1.29688
    endloop
  endfacet
  facet normal 0.917752 0 -0.397154
    outer loop
      vertex -3.71911 2.5 -1.5275
      vertex -3.61931 -2.5 -1.29688
      vertex -3.71911 -2.5 -1.5275
    endloop
  endfacet
  facet normal 0.940881 0 -0.338738
    outer loop
      vertex -3.71911 -2.5 -1.5275
      vertex -3.80423 2.5 -1.76393
      vertex -3.71911 2.5 -1.5275
    endloop
  endfacet
  facet normal 0.940881 0 -0.338738
    outer loop
      vertex -3.80423 2.5 -1.76393
      vertex -3.71911 -2.5 -1.5275
      vertex -3.80423 -2.5 -1.76393
    endloop
  endfacet
  facet normal 0.995954 0 -0.0898605
    outer loop
      vertex -3.96846 -2.5 -2.49867
      vertex -3.96858 2.5 -2.5
      vertex -3.96846 2.5 -2.49867
    endloop
  endfacet
  facet normal 0.995954 0 -0.0898605
    outer loop
      vertex -3.96858 2.5 -2.5
      vertex -3.96846 -2.5 -2.49867
      vertex -3.96858 -2.5 -2.5
    endloop
  endfacet
  facet normal 0.562088 0 -0.827077
    outer loop
      vertex -2.35114 -2.5 0.236068
      vertex -2.14331 2.5 0.377311
      vertex -2.14331 -2.5 0.377311
    endloop
  endfacet
  facet normal 0.562088 0 -0.827077
    outer loop
      vertex -2.14331 2.5 0.377311
      vertex -2.35114 -2.5 0.236068
      vertex -2.35114 2.5 0.236068
    endloop
  endfacet
  facet normal 0.454004 0 -0.891
    outer loop
      vertex -1.92701 -2.5 0.505226
      vertex -1.70312 2.5 0.619308
      vertex -1.70312 -2.5 0.619308
    endloop
  endfacet
  facet normal 0.454004 0 -0.891
    outer loop
      vertex -1.70312 2.5 0.619308
      vertex -1.92701 -2.5 0.505226
      vertex -1.92701 2.5 0.505226
    endloop
  endfacet
  facet normal 0.218146 0 -0.975916
    outer loop
      vertex -0.994759 -2.5 0.874332
      vertex -0.749525 2.5 0.929149
      vertex -0.749525 -2.5 0.929149
    endloop
  endfacet
  facet normal 0.218146 0 -0.975916
    outer loop
      vertex -0.749525 2.5 0.929149
      vertex -0.994759 -2.5 0.874332
      vertex -0.994759 2.5 0.874332
    endloop
  endfacet
  facet normal 0.278986 0 -0.960295
    outer loop
      vertex -1.23607 -2.5 0.804226
      vertex -0.994759 2.5 0.874332
      vertex -0.994759 -2.5 0.874332
    endloop
  endfacet
  facet normal 0.278986 0 -0.960295
    outer loop
      vertex -0.994759 2.5 0.874332
      vertex -1.23607 -2.5 0.804226
      vertex -1.23607 2.5 0.804226
    endloop
  endfacet
  facet normal -0.860729 0 -0.509064
    outer loop
      vertex 3.50523 -2.5 -1.07298
      vertex 3.37731 2.5 -0.856692
      vertex 3.50523 2.5 -1.07298
    endloop
  endfacet
  facet normal -0.860729 -0 -0.509064
    outer loop
      vertex 3.37731 2.5 -0.856692
      vertex 3.50523 -2.5 -1.07298
      vertex 3.37731 -2.5 -0.856692
    endloop
  endfacet
  facet normal -0.827088 0 -0.562073
    outer loop
      vertex 3.37731 -2.5 -0.856692
      vertex 3.23607 2.5 -0.648858
      vertex 3.37731 2.5 -0.856692
    endloop
  endfacet
  facet normal -0.827088 -0 -0.562073
    outer loop
      vertex 3.23607 2.5 -0.648858
      vertex 3.37731 -2.5 -0.856692
      vertex 3.23607 -2.5 -0.648858
    endloop
  endfacet
  facet normal -0.278986 0 -0.960295
    outer loop
      vertex 0.994759 -2.5 0.874332
      vertex 1.23607 2.5 0.804226
      vertex 1.23607 -2.5 0.804226
    endloop
  endfacet
  facet normal -0.278986 0 -0.960295
    outer loop
      vertex 1.23607 2.5 0.804226
      vertex 0.994759 -2.5 0.874332
      vertex 0.994759 2.5 0.874332
    endloop
  endfacet
  facet normal -0.454004 0 -0.891
    outer loop
      vertex 1.70312 -2.5 0.619308
      vertex 1.92701 2.5 0.505226
      vertex 1.92701 -2.5 0.505226
    endloop
  endfacet
  facet normal -0.454004 0 -0.891
    outer loop
      vertex 1.92701 2.5 0.505226
      vertex 1.70312 -2.5 0.619308
      vertex 1.70312 2.5 0.619308
    endloop
  endfacet
  facet normal -0.661313 0 -0.75011
    outer loop
      vertex 2.5497 -2.5 0.0820522
      vertex 2.73819 2.5 -0.0841246
      vertex 2.73819 -2.5 -0.0841246
    endloop
  endfacet
  facet normal -0.661313 0 -0.75011
    outer loop
      vertex 2.73819 2.5 -0.0841246
      vertex 2.5497 -2.5 0.0820522
      vertex 2.5497 2.5 0.0820522
    endloop
  endfacet
  facet normal -0.612899 0 -0.790161
    outer loop
      vertex 2.35114 -2.5 0.236068
      vertex 2.5497 2.5 0.0820522
      vertex 2.5497 -2.5 0.0820522
    endloop
  endfacet
  facet normal -0.612899 0 -0.790161
    outer loop
      vertex 2.5497 2.5 0.0820522
      vertex 2.35114 -2.5 0.236068
      vertex 2.35114 2.5 0.236068
    endloop
  endfacet
  facet normal 0.750109 0 -0.661314
    outer loop
      vertex -2.91587 -2.5 -0.261811
      vertex -3.08205 2.5 -0.450304
      vertex -2.91587 2.5 -0.261811
    endloop
  endfacet
  facet normal 0.750109 0 -0.661314
    outer loop
      vertex -3.08205 2.5 -0.450304
      vertex -2.91587 -2.5 -0.261811
      vertex -3.08205 -2.5 -0.450304
    endloop
  endfacet
  facet normal 0.70712 0 -0.707094
    outer loop
      vertex -2.73819 -2.5 -0.0841246
      vertex -2.91587 2.5 -0.261811
      vertex -2.73819 2.5 -0.0841246
    endloop
  endfacet
  facet normal 0.70712 0 -0.707094
    outer loop
      vertex -2.91587 2.5 -0.261811
      vertex -2.73819 -2.5 -0.0841246
      vertex -2.91587 -2.5 -0.261811
    endloop
  endfacet
  facet normal 0.891011 0 -0.453982
    outer loop
      vertex -3.50523 -2.5 -1.07298
      vertex -3.61931 2.5 -1.29688
      vertex -3.50523 2.5 -1.07298
    endloop
  endfacet
  facet normal 0.891011 0 -0.453982
    outer loop
      vertex -3.61931 2.5 -1.29688
      vertex -3.50523 -2.5 -1.07298
      vertex -3.61931 -2.5 -1.29688
    endloop
  endfacet
  facet normal 0.960301 0 -0.278965
    outer loop
      vertex -3.80423 -2.5 -1.76393
      vertex -3.87433 2.5 -2.00524
      vertex -3.80423 2.5 -1.76393
    endloop
  endfacet
  facet normal 0.960301 0 -0.278965
    outer loop
      vertex -3.87433 2.5 -2.00524
      vertex -3.80423 -2.5 -1.76393
      vertex -3.87433 -2.5 -2.00524
    endloop
  endfacet
  facet normal 0.612899 0 -0.790161
    outer loop
      vertex -2.5497 -2.5 0.0820522
      vertex -2.35114 2.5 0.236068
      vertex -2.35114 -2.5 0.236068
    endloop
  endfacet
  facet normal 0.612899 0 -0.790161
    outer loop
      vertex -2.35114 2.5 0.236068
      vertex -2.5497 -2.5 0.0820522
      vertex -2.5497 2.5 0.0820522
    endloop
  endfacet
  facet normal 0.397147 0 -0.917755
    outer loop
      vertex -1.70312 -2.5 0.619308
      vertex -1.4725 2.5 0.719106
      vertex -1.4725 -2.5 0.719106
    endloop
  endfacet
  facet normal 0.397147 0 -0.917755
    outer loop
      vertex -1.4725 2.5 0.719106
      vertex -1.70312 -2.5 0.619308
      vertex -1.70312 2.5 0.619308
    endloop
  endfacet
  facet normal 0.0941082 0 -0.995562
    outer loop
      vertex -0.501332 -2.5 0.968458
      vertex -0.251162 2.5 0.992106
      vertex -0.251162 -2.5 0.992106
    endloop
  endfacet
  facet normal 0.0941082 0 -0.995562
    outer loop
      vertex -0.251162 2.5 0.992106
      vertex -0.501332 -2.5 0.968458
      vertex -0.501332 2.5 0.968458
    endloop
  endfacet
  facet normal 0.156431 0 -0.987689
    outer loop
      vertex -0.749525 -2.5 0.929149
      vertex -0.501332 2.5 0.968458
      vertex -0.501332 -2.5 0.968458
    endloop
  endfacet
  facet normal 0.156431 0 -0.987689
    outer loop
      vertex -0.501332 2.5 0.968458
      vertex -0.749525 -2.5 0.929149
      vertex -0.749525 2.5 0.929149
    endloop
  endfacet
endsolid OpenSCAD_Model
