solid OpenSCAD_Model
  facet normal -1 0 0
    outer loop
      vertex -5 -2.5 -2.5
      vertex -5 2.5 2.5
      vertex -5 2.5 -2.5
    endloop
  endfacet
  facet normal -1 -0 0
    outer loop
      vertex -5 2.5 2.5
      vertex -5 -2.5 -2.5
      vertex -5 -2.5 2.5
    endloop
  endfacet
  facet normal -0 0 1
    outer loop
      vertex -5 2.5 2.5
      vertex 5 -2.5 2.5
      vertex 5 2.5 2.5
    endloop
  endfacet
  facet normal 0 0 1
    outer loop
      vertex 5 -2.5 2.5
      vertex -5 2.5 2.5
      vertex -5 -2.5 2.5
    endloop
  endfacet
  facet normal 1 -0 0
    outer loop
      vertex 5 -2.5 2.5
      vertex 5 2.5 -2.5
      vertex 5 2.5 2.5
    endloop
  endfacet
  facet normal 1 0 0
    outer loop
      vertex 5 2.5 -2.5
      vertex 5 -2.5 2.5
      vertex 5 -2.5 -2.5
    endloop
  endfacet
  facet normal 0 0 -1
    outer loop
      vertex -5 -2.5 -2.5
      vertex -3.09686 2.5 -2.5
      vertex -3.09686 -2.5 -2.5
    endloop
  endfacet
  facet normal -0 0 -1
    outer loop
      vertex -3.09686 2.5 -2.5
      vertex -5 -2.5 -2.5
      vertex -5 2.5 -2.5
    endloop
  endfacet
  facet normal 0 0 -1
    outer loop
      vertex 3.09686 -2.5 -2.5
      vertex 5 2.5 -2.5
      vertex 5 -2.5 -2.5
    endloop
  endfacet
  facet normal -0 0 -1
    outer loop
      vertex 5 2.5 -2.5
      vertex 3.09686 -2.5 -2.5
      vertex 3.09686 2.5 -2.5
    endloop
  endfacet
  facet normal 0 -1 0
    outer loop
      vertex -5 -2.5 2.5
      vertex 0 -2.5 0.5
      vertex 5 -2.5 2.5
    endloop
  endfacet
  facet normal 0 -1 0
    outer loop
      vertex -5 -2.5 2.5
      vertex -0.19465 -2.5 0.493882
      vertex 0 -2.5 0.5
    endloop
  endfacet
  facet normal 0 -1 0
    outer loop
      vertex -5 -2.5 2.5
      vertex -0.388533 -2.5 0.475555
      vertex -0.19465 -2.5 0.493882
    endloop
  endfacet
  facet normal 0 -1 0
    outer loop
      vertex -5 -2.5 2.5
      vertex -0.580882 -2.5 0.44509
      vertex -0.388533 -2.5 0.475555
    endloop
  endfacet
  facet normal 0 -1 0
    outer loop
      vertex -5 -2.5 2.5
      vertex -0.770938 -2.5 0.402607
      vertex -0.580882 -2.5 0.44509
    endloop
  endfacet
  facet normal 0 -1 0
    outer loop
      vertex -5 -2.5 2.5
      vertex -0.957952 -2.5 0.348275
      vertex -0.770938 -2.5 0.402607
    endloop
  endfacet
  facet normal 0 -1 0
    outer loop
      vertex -5 -2.5 2.5
      vertex -1.14119 -2.5 0.282307
      vertex -0.957952 -2.5 0.348275
    endloop
  endfacet
  facet normal 0 -1 0
    outer loop
      vertex -5 -2.5 2.5
      vertex -1.31992 -2.5 0.204964
      vertex -1.14119 -2.5 0.282307
    endloop
  endfacet
  facet normal 0 -1 0
    outer loop
      vertex -5 -2.5 2.5
      vertex -1.49344 -2.5 0.11655
      vertex -1.31992 -2.5 0.204964
    endloop
  endfacet
  facet normal 0 -1 0
    outer loop
      vertex -5 -2.5 2.5
      vertex -1.66106 -2.5 0.017416
      vertex -1.49344 -2.5 0.11655
    endloop
  endfacet
  facet normal 0 -1 0
    outer loop
      vertex -5 -2.5 2.5
      vertex -1.82213 -2.5 -0.0920467
      vertex -1.66106 -2.5 0.017416
    endloop
  endfacet
  facet normal 0 -1 0
    outer loop
      vertex -5 -2.5 2.5
      vertex -1.97601 -2.5 -0.211409
      vertex -1.82213 -2.5 -0.0920467
    endloop
  endfacet
  facet normal 0 -1 0
    outer loop
      vertex -5 -2.5 2.5
      vertex -2.1221 -2.5 -0.340197
      vertex -1.97601 -2.5 -0.211409
    endloop
  endfacet
  facet normal 0 -1 0
    outer loop
      vertex -5 -2.5 2.5
      vertex -2.2598 -2.5 -0.477903
      vertex -2.1221 -2.5 -0.340197
    endloop
  endfacet
  facet normal 0 -1 0
    outer loop
      vertex -5 -2.5 2.5
      vertex -2.38859 -2.5 -0.623985
      vertex -2.2598 -2.5 -0.477903
    endloop
  endfacet
  facet normal 0 -1 0
    outer loop
      vertex -5 -2.5 2.5
      vertex -2.50795 -2.5 -0.777865
      vertex -2.38859 -2.5 -0.623985
    endloop
  endfacet
  facet normal 0 -1 0
    outer loop
      vertex -5 -2.5 2.5
      vertex -2.61742 -2.5 -0.938936
      vertex -2.50795 -2.5 -0.777865
    endloop
  endfacet
  facet normal 0 -1 0
    outer loop
      vertex -5 -2.5 2.5
      vertex -2.71655 -2.5 -1.10656
      vertex -2.61742 -2.5 -0.938936
    endloop
  endfacet
  facet normal 0 -1 0
    outer loop
      vertex -5 -2.5 -2.5
      vertex -2.71655 -2.5 -1.10656
      vertex -5 -2.5 2.5
    endloop
  endfacet
  facet normal 0 -1 0
    outer loop
      vertex -2.71655 -2.5 -1.10656
      vertex -5 -2.5 -2.5
      vertex -2.80496 -2.5 -1.28008
    endloop
  endfacet
  facet normal 0 -1 0
    outer loop
      vertex -2.80496 -2.5 -1.28008
      vertex -5 -2.5 -2.5
      vertex -2.88231 -2.5 -1.45881
    endloop
  endfacet
  facet normal 0 -1 0
    outer loop
      vertex -2.88231 -2.5 -1.45881
      vertex -5 -2.5 -2.5
      vertex -2.94827 -2.5 -1.64205
    endloop
  endfacet
  facet normal 0 -1 0
    outer loop
      vertex -2.94827 -2.5 -1.64205
      vertex -5 -2.5 -2.5
      vertex -3.00261 -2.5 -1.82906
    endloop
  endfacet
  facet normal 0 -1 0
    outer loop
      vertex -3.00261 -2.5 -1.82906
      vertex -5 -2.5 -2.5
      vertex -3.04509 -2.5 -2.01912
    endloop
  endfacet
  facet normal 0 -1 0
    outer loop
      vertex -3.04509 -2.5 -2.01912
      vertex -5 -2.5 -2.5
      vertex -3.07555 -2.5 -2.21147
    endloop
  endfacet
  facet normal 0 -1 0
    outer loop
      vertex -3.07555 -2.5 -2.21147
      vertex -5 -2.5 -2.5
      vertex -3.09388 -2.5 -2.40535
    endloop
  endfacet
  facet normal 0 -1 0
    outer loop
      vertex -3.09388 -2.5 -2.40535
      vertex -5 -2.5 -2.5
      vertex -3.09686 -2.5 -2.5
    endloop
  endfacet
  facet normal 0 -1 0
    outer loop
      vertex 0.19465 -2.5 0.493882
      vertex 5 -2.5 2.5
      vertex 0 -2.5 0.5
    endloop
  endfacet
  facet normal 0 -1 0
    outer loop
      vertex 0.388533 -2.5 0.475555
      vertex 5 -2.5 2.5
      vertex 0.19465 -2.5 0.493882
    endloop
  endfacet
  facet normal 0 -1 0
    outer loop
      vertex 0.580882 -2.5 0.44509
      vertex 5 -2.5 2.5
      vertex 0.388533 -2.5 0.475555
    endloop
  endfacet
  facet normal 0 -1 0
    outer loop
      vertex 0.770938 -2.5 0.402607
      vertex 5 -2.5 2.5
      vertex 0.580882 -2.5 0.44509
    endloop
  endfacet
  facet normal 0 -1 0
    outer loop
      vertex 0.957952 -2.5 0.348275
      vertex 5 -2.5 2.5
      vertex 0.770938 -2.5 0.402607
    endloop
  endfacet
  facet normal 0 -1 0
    outer loop
      vertex 1.14119 -2.5 0.282307
      vertex 5 -2.5 2.5
      vertex 0.957952 -2.5 0.348275
    endloop
  endfacet
  facet normal 0 -1 0
    outer loop
      vertex 1.31992 -2.5 0.204964
      vertex 5 -2.5 2.5
      vertex 1.14119 -2.5 0.282307
    endloop
  endfacet
  facet normal 0 -1 0
    outer loop
      vertex 1.49344 -2.5 0.11655
      vertex 5 -2.5 2.5
      vertex 1.31992 -2.5 0.204964
    endloop
  endfacet
  facet normal 0 -1 0
    outer loop
      vertex 1.66106 -2.5 0.017416
      vertex 5 -2.5 2.5
      vertex 1.49344 -2.5 0.11655
    endloop
  endfacet
  facet normal 0 -1 0
    outer loop
      vertex 1.82213 -2.5 -0.0920467
      vertex 5 -2.5 2.5
      vertex 1.66106 -2.5 0.017416
    endloop
  endfacet
  facet normal 0 -1 0
    outer loop
      vertex 1.97601 -2.5 -0.211409
      vertex 5 -2.5 2.5
      vertex 1.82213 -2.5 -0.0920467
    endloop
  endfacet
  facet normal 0 -1 0
    outer loop
      vertex 2.1221 -2.5 -0.340197
      vertex 5 -2.5 2.5
      vertex 1.97601 -2.5 -0.211409
    endloop
  endfacet
  facet normal 0 -1 0
    outer loop
      vertex 2.2598 -2.5 -0.477903
      vertex 5 -2.5 2.5
      vertex 2.1221 -2.5 -0.340197
    endloop
  endfacet
  facet normal 0 -1 0
    outer loop
      vertex 2.38859 -2.5 -0.623985
      vertex 5 -2.5 2.5
      vertex 2.2598 -2.5 -0.477903
    endloop
  endfacet
  facet normal 0 -1 0
    outer loop
      vertex 2.50795 -2.5 -0.777865
      vertex 5 -2.5 2.5
      vertex 2.38859 -2.5 -0.623985
    endloop
  endfacet
  facet normal 0 -1 0
    outer loop
      vertex 2.61742 -2.5 -0.938936
      vertex 5 -2.5 2.5
      vertex 2.50795 -2.5 -0.777865
    endloop
  endfacet
  facet normal 0 -1 0
    outer loop
      vertex 2.71655 -2.5 -1.10656
      vertex 5 -2.5 2.5
      vertex 2.61742 -2.5 -0.938936
    endloop
  endfacet
  facet normal 0 -1 0
    outer loop
      vertex 5 -2.5 -2.5
      vertex 2.71655 -2.5 -1.10656
      vertex 2.80496 -2.5 -1.28008
    endloop
  endfacet
  facet normal 0 -1 0
    outer loop
      vertex 5 -2.5 -2.5
      vertex 2.80496 -2.5 -1.28008
      vertex 2.88231 -2.5 -1.45881
    endloop
  endfacet
  facet normal 0 -1 0
    outer loop
      vertex 5 -2.5 -2.5
      vertex 2.88231 -2.5 -1.45881
      vertex 2.94827 -2.5 -1.64205
    endloop
  endfacet
  facet normal 0 -1 0
    outer loop
      vertex 5 -2.5 -2.5
      vertex 2.94827 -2.5 -1.64205
      vertex 3.00261 -2.5 -1.82906
    endloop
  endfacet
  facet normal 0 -1 0
    outer loop
      vertex 5 -2.5 -2.5
      vertex 3.00261 -2.5 -1.82906
      vertex 3.04509 -2.5 -2.01912
    endloop
  endfacet
  facet normal 0 -1 0
    outer loop
      vertex 5 -2.5 -2.5
      vertex 3.04509 -2.5 -2.01912
      vertex 3.07555 -2.5 -2.21147
    endloop
  endfacet
  facet normal 0 -1 0
    outer loop
      vertex 5 -2.5 -2.5
      vertex 3.07555 -2.5 -2.21147
      vertex 3.09388 -2.5 -2.40535
    endloop
  endfacet
  facet normal 0 -1 0
    outer loop
      vertex 5 -2.5 -2.5
      vertex 3.09388 -2.5 -2.40535
      vertex 3.09686 -2.5 -2.5
    endloop
  endfacet
  facet normal 0 -1 0
    outer loop
      vertex 2.71655 -2.5 -1.10656
      vertex 5 -2.5 -2.5
      vertex 5 -2.5 2.5
    endloop
  endfacet
  facet normal 0 1 0
    outer loop
      vertex 5 2.5 2.5
      vertex 0 2.5 0.5
      vertex -5 2.5 2.5
    endloop
  endfacet
  facet normal 0 1 0
    outer loop
      vertex 5 2.5 2.5
      vertex 0.19465 2.5 0.493882
      vertex 0 2.5 0.5
    endloop
  endfacet
  facet normal 0 1 0
    outer loop
      vertex 5 2.5 2.5
      vertex 0.388533 2.5 0.475555
      vertex 0.19465 2.5 0.493882
    endloop
  endfacet
  facet normal 0 1 0
    outer loop
      vertex 5 2.5 2.5
      vertex 0.580882 2.5 0.44509
      vertex 0.388533 2.5 0.475555
    endloop
  endfacet
  facet normal 0 1 0
    outer loop
      vertex 5 2.5 2.5
      vertex 0.770938 2.5 0.402607
      vertex 0.580882 2.5 0.44509
    endloop
  endfacet
  facet normal 0 1 0
    outer loop
      vertex 5 2.5 2.5
      vertex 0.957952 2.5 0.348275
      vertex 0.770938 2.5 0.402607
    endloop
  endfacet
  facet normal 0 1 0
    outer loop
      vertex 5 2.5 2.5
      vertex 1.14119 2.5 0.282307
      vertex 0.957952 2.5 0.348275
    endloop
  endfacet
  facet normal 0 1 0
    outer loop
      vertex 5 2.5 2.5
      vertex 1.31992 2.5 0.204964
      vertex 1.14119 2.5 0.282307
    endloop
  endfacet
  facet normal 0 1 0
    outer loop
      vertex 5 2.5 2.5
      vertex 1.49344 2.5 0.11655
      vertex 1.31992 2.5 0.204964
    endloop
  endfacet
  facet normal 0 1 0
    outer loop
      vertex 5 2.5 2.5
      vertex 1.66106 2.5 0.017416
      vertex 1.49344 2.5 0.11655
    endloop
  endfacet
  facet normal 0 1 0
    outer loop
      vertex 5 2.5 2.5
      vertex 1.82213 2.5 -0.0920467
      vertex 1.66106 2.5 0.017416
    endloop
  endfacet
  facet normal 0 1 0
    outer loop
      vertex 5 2.5 2.5
      vertex 1.97601 2.5 -0.211409
      vertex 1.82213 2.5 -0.0920467
    endloop
  endfacet
  facet normal 0 1 0
    outer loop
      vertex 5 2.5 2.5
      vertex 2.1221 2.5 -0.340197
      vertex 1.97601 2.5 -0.211409
    endloop
  endfacet
  facet normal 0 1 0
    outer loop
      vertex 5 2.5 2.5
      vertex 2.2598 2.5 -0.477903
      vertex 2.1221 2.5 -0.340197
    endloop
  endfacet
  facet normal 0 1 0
    outer loop
      vertex 5 2.5 2.5
      vertex 2.38859 2.5 -0.623985
      vertex 2.2598 2.5 -0.477903
    endloop
  endfacet
  facet normal 0 1 0
    outer loop
      vertex 5 2.5 2.5
      vertex 2.50795 2.5 -0.777865
      vertex 2.38859 2.5 -0.623985
    endloop
  endfacet
  facet normal 0 1 0
    outer loop
      vertex 5 2.5 2.5
      vertex 2.61742 2.5 -0.938936
      vertex 2.50795 2.5 -0.777865
    endloop
  endfacet
  facet normal 0 1 0
    outer loop
      vertex 5 2.5 2.5
      vertex 2.71655 2.5 -1.10656
      vertex 2.61742 2.5 -0.938936
    endloop
  endfacet
  facet normal 0 1 -0
    outer loop
      vertex 5 2.5 -2.5
      vertex 2.71655 2.5 -1.10656
      vertex 5 2.5 2.5
    endloop
  endfacet
  facet normal 0 1 0
    outer loop
      vertex 2.71655 2.5 -1.10656
      vertex 5 2.5 -2.5
      vertex 2.80496 2.5 -1.28008
    endloop
  endfacet
  facet normal 0 1 0
    outer loop
      vertex 2.80496 2.5 -1.28008
      vertex 5 2.5 -2.5
      vertex 2.88231 2.5 -1.45881
    endloop
  endfacet
  facet normal 0 1 0
    outer loop
      vertex 2.88231 2.5 -1.45881
      vertex 5 2.5 -2.5
      vertex 2.94827 2.5 -1.64205
    endloop
  endfacet
  facet normal 0 1 0
    outer loop
      vertex 2.94827 2.5 -1.64205
      vertex 5 2.5 -2.5
      vertex 3.00261 2.5 -1.82906
    endloop
  endfacet
  facet normal 0 1 0
    outer loop
      vertex 3.00261 2.5 -1.82906
      vertex 5 2.5 -2.5
      vertex 3.04509 2.5 -2.01912
    endloop
  endfacet
  facet normal 0 1 0
    outer loop
      vertex 3.04509 2.5 -2.01912
      vertex 5 2.5 -2.5
      vertex 3.07555 2.5 -2.21147
    endloop
  endfacet
  facet normal 0 1 0
    outer loop
      vertex 3.07555 2.5 -2.21147
      vertex 5 2.5 -2.5
      vertex 3.09388 2.5 -2.40535
    endloop
  endfacet
  facet normal 0 1 0
    outer loop
      vertex 3.09388 2.5 -2.40535
      vertex 5 2.5 -2.5
      vertex 3.09686 2.5 -2.5
    endloop
  endfacet
  facet normal 0 1 -0
    outer loop
      vertex -0.19465 2.5 0.493882
      vertex -5 2.5 2.5
      vertex 0 2.5 0.5
    endloop
  endfacet
  facet normal 0 1 -0
    outer loop
      vertex -0.388533 2.5 0.475555
      vertex -5 2.5 2.5
      vertex -0.19465 2.5 0.493882
    endloop
  endfacet
  facet normal 0 1 -0
    outer loop
      vertex -0.580882 2.5 0.44509
      vertex -5 2.5 2.5
      vertex -0.388533 2.5 0.475555
    endloop
  endfacet
  facet normal 0 1 -0
    outer loop
      vertex -0.770938 2.5 0.402607
      vertex -5 2.5 2.5
      vertex -0.580882 2.5 0.44509
    endloop
  endfacet
  facet normal 0 1 -0
    outer loop
      vertex -0.957952 2.5 0.348275
      vertex -5 2.5 2.5
      vertex -0.770938 2.5 0.402607
    endloop
  endfacet
  facet normal 0 1 -0
    outer loop
      vertex -1.14119 2.5 0.282307
      vertex -5 2.5 2.5
      vertex -0.957952 2.5 0.348275
    endloop
  endfacet
  facet normal 0 1 -0
    outer loop
      vertex -1.31992 2.5 0.204964
      vertex -5 2.5 2.5
      vertex -1.14119 2.5 0.282307
    endloop
  endfacet
  facet normal 0 1 -0
    outer loop
      vertex -1.49344 2.5 0.11655
      vertex -5 2.5 2.5
      vertex -1.31992 2.5 0.204964
    endloop
  endfacet
  facet normal 0 1 -0
    outer loop
      vertex -1.66106 2.5 0.017416
      vertex -5 2.5 2.5
      vertex -1.49344 2.5 0.11655
    endloop
  endfacet
  facet normal 0 1 -0
    outer loop
      vertex -1.82213 2.5 -0.0920467
      vertex -5 2.5 2.5
      vertex -1.66106 2.5 0.017416
    endloop
  endfacet
  facet normal 0 1 -0
    outer loop
      vertex -1.97601 2.5 -0.211409
      vertex -5 2.5 2.5
      vertex -1.82213 2.5 -0.0920467
    endloop
  endfacet
  facet normal 0 1 -0
    outer loop
      vertex -2.1221 2.5 -0.340197
      vertex -5 2.5 2.5
      vertex -1.97601 2.5 -0.211409
    endloop
  endfacet
  facet normal 0 1 -0
    outer loop
      vertex -2.2598 2.5 -0.477903
      vertex -5 2.5 2.5
      vertex -2.1221 2.5 -0.340197
    endloop
  endfacet
  facet normal 0 1 -0
    outer loop
      vertex -2.38859 2.5 -0.623985
      vertex -5 2.5 2.5
      vertex -2.2598 2.5 -0.477903
    endloop
  endfacet
  facet normal 0 1 -0
    outer loop
      vertex -2.50795 2.5 -0.777865
      vertex -5 2.5 2.5
      vertex -2.38859 2.5 -0.623985
    endloop
  endfacet
  facet normal 0 1 -0
    outer loop
      vertex -2.61742 2.5 -0.938936
      vertex -5 2.5 2.5
      vertex -2.50795 2.5 -0.777865
    endloop
  endfacet
  facet normal 0 1 -0
    outer loop
      vertex -2.71655 2.5 -1.10656
      vertex -5 2.5 2.5
      vertex -2.61742 2.5 -0.938936
    endloop
  endfacet
  facet normal 0 1 0
    outer loop
      vertex -5 2.5 -2.5
      vertex -2.71655 2.5 -1.10656
      vertex -2.80496 2.5 -1.28008
    endloop
  endfacet
  facet normal 0 1 0
    outer loop
      vertex -5 2.5 -2.5
      vertex -2.80496 2.5 -1.28008
      vertex -2.88231 2.5 -1.45881
    endloop
  endfacet
  facet normal 0 1 0
    outer loop
      vertex -5 2.5 -2.5
      vertex -2.88231 2.5 -1.45881
      vertex -2.94827 2.5 -1.64205
    endloop
  endfacet
  facet normal 0 1 0
    outer loop
      vertex -5 2.5 -2.5
      vertex -2.94827 2.5 -1.64205
      vertex -3.00261 2.5 -1.82906
    endloop
  endfacet
  facet normal 0 1 0
    outer loop
      vertex -5 2.5 -2.5
      vertex -3.00261 2.5 -1.82906
      vertex -3.04509 2.5 -2.01912
    endloop
  endfacet
  facet normal 0 1 0
    outer loop
      vertex -5 2.5 -2.5
      vertex -3.04509 2.5 -2.01912
      vertex -3.07555 2.5 -2.21147
    endloop
  endfacet
  facet normal 0 1 0
    outer loop
      vertex -5 2.5 -2.5
      vertex -3.07555 2.5 -2.21147
      vertex -3.09388 2.5 -2.40535
    endloop
  endfacet
  facet normal 0 1 0
    outer loop
      vertex -5 2.5 -2.5
      vertex -3.09388 2.5 -2.40535
      vertex -3.09686 2.5 -2.5
    endloop
  endfacet
  facet normal 0 1 0
    outer loop
      vertex -2.71655 2.5 -1.10656
      vertex -5 2.5 -2.5
      vertex -5 2.5 2.5
    endloop
  endfacet
  facet normal -0.999505 0 -0.0314688
    outer loop
      vertex 3.09686 -2.5 -2.5
      vertex 3.09388 2.5 -2.40535
      vertex 3.09686 2.5 -2.5
    endloop
  endfacet
  facet normal -0.999505 -0 -0.0314688
    outer loop
      vertex 3.09388 2.5 -2.40535
      vertex 3.09686 -2.5 -2.5
      vertex 3.09388 -2.5 -2.40535
    endloop
  endfacet
  facet normal -0.995561 0 -0.0941233
    outer loop
      vertex 3.09388 -2.5 -2.40535
      vertex 3.07555 2.5 -2.21147
      vertex 3.09388 2.5 -2.40535
    endloop
  endfacet
  facet normal -0.995561 -0 -0.0941233
    outer loop
      vertex 3.07555 2.5 -2.21147
      vertex 3.09388 -2.5 -2.40535
      vertex 3.07555 -2.5 -2.21147
    endloop
  endfacet
  facet normal 0.999505 0 -0.0314688
    outer loop
      vertex -3.09388 -2.5 -2.40535
      vertex -3.09686 2.5 -2.5
      vertex -3.09388 2.5 -2.40535
    endloop
  endfacet
  facet normal 0.999505 0 -0.0314688
    outer loop
      vertex -3.09686 2.5 -2.5
      vertex -3.09388 -2.5 -2.40535
      vertex -3.09686 -2.5 -2.5
    endloop
  endfacet
  facet normal -0.0314153 0 -0.999506
    outer loop
      vertex 0 -2.5 0.5
      vertex 0.19465 2.5 0.493882
      vertex 0.19465 -2.5 0.493882
    endloop
  endfacet
  facet normal -0.0314153 0 -0.999506
    outer loop
      vertex 0.19465 2.5 0.493882
      vertex 0 -2.5 0.5
      vertex 0 2.5 0.5
    endloop
  endfacet
  facet normal -0.707122 0 -0.707091
    outer loop
      vertex 2.2598 -2.5 -0.477903
      vertex 2.1221 2.5 -0.340197
      vertex 2.2598 2.5 -0.477903
    endloop
  endfacet
  facet normal -0.707122 -0 -0.707091
    outer loop
      vertex 2.1221 2.5 -0.340197
      vertex 2.2598 -2.5 -0.477903
      vertex 2.1221 -2.5 -0.340197
    endloop
  endfacet
  facet normal 0.66129 0 -0.750131
    outer loop
      vertex -2.1221 -2.5 -0.340197
      vertex -1.97601 2.5 -0.211409
      vertex -1.97601 -2.5 -0.211409
    endloop
  endfacet
  facet normal 0.66129 0 -0.750131
    outer loop
      vertex -1.97601 2.5 -0.211409
      vertex -2.1221 -2.5 -0.340197
      vertex -2.1221 2.5 -0.340197
    endloop
  endfacet
  facet normal 0.33873 0 -0.940884
    outer loop
      vertex -1.14119 -2.5 0.282307
      vertex -0.957952 2.5 0.348275
      vertex -0.957952 -2.5 0.348275
    endloop
  endfacet
  facet normal 0.33873 0 -0.940884
    outer loop
      vertex -0.957952 2.5 0.348275
      vertex -1.14119 -2.5 0.282307
      vertex -1.14119 2.5 0.282307
    endloop
  endfacet
  facet normal -0.917742 0 -0.397177
    outer loop
      vertex 2.88231 -2.5 -1.45881
      vertex 2.80496 2.5 -1.28008
      vertex 2.88231 2.5 -1.45881
    endloop
  endfacet
  facet normal -0.917742 -0 -0.397177
    outer loop
      vertex 2.80496 2.5 -1.28008
      vertex 2.88231 -2.5 -1.45881
      vertex 2.80496 -2.5 -1.28008
    endloop
  endfacet
  facet normal -0.397146 0 -0.917755
    outer loop
      vertex 1.14119 -2.5 0.282307
      vertex 1.31992 2.5 0.204964
      vertex 1.31992 -2.5 0.204964
    endloop
  endfacet
  facet normal -0.397146 0 -0.917755
    outer loop
      vertex 1.31992 2.5 0.204964
      vertex 1.14119 -2.5 0.282307
      vertex 1.14119 2.5 0.282307
    endloop
  endfacet
  facet normal 0.156434 0 -0.987688
    outer loop
      vertex -0.580882 -2.5 0.44509
      vertex -0.388533 2.5 0.475555
      vertex -0.388533 -2.5 0.475555
    endloop
  endfacet
  facet normal 0.156434 0 -0.987688
    outer loop
      vertex -0.388533 2.5 0.475555
      vertex -0.580882 -2.5 0.44509
      vertex -0.580882 2.5 0.44509
    endloop
  endfacet
  facet normal -0.975921 0 -0.218126
    outer loop
      vertex 3.04509 -2.5 -2.01912
      vertex 3.00261 2.5 -1.82906
      vertex 3.04509 2.5 -2.01912
    endloop
  endfacet
  facet normal -0.975921 -0 -0.218126
    outer loop
      vertex 3.00261 2.5 -1.82906
      vertex 3.04509 -2.5 -2.01912
      vertex 3.00261 -2.5 -1.82906
    endloop
  endfacet
  facet normal -0.218145 0 -0.975916
    outer loop
      vertex 0.580882 -2.5 0.44509
      vertex 0.770938 2.5 0.402607
      vertex 0.770938 -2.5 0.402607
    endloop
  endfacet
  facet normal -0.218145 0 -0.975916
    outer loop
      vertex 0.770938 2.5 0.402607
      vertex 0.580882 -2.5 0.44509
      vertex 0.580882 2.5 0.44509
    endloop
  endfacet
  facet normal -0.562082 0 -0.827081
    outer loop
      vertex 1.66106 -2.5 0.017416
      vertex 1.82213 2.5 -0.0920467
      vertex 1.82213 -2.5 -0.0920467
    endloop
  endfacet
  facet normal -0.562082 0 -0.827081
    outer loop
      vertex 1.82213 2.5 -0.0920467
      vertex 1.66106 -2.5 0.017416
      vertex 1.66106 2.5 0.017416
    endloop
  endfacet
  facet normal -0.453995 0 -0.891004
    outer loop
      vertex 1.31992 -2.5 0.204964
      vertex 1.49344 2.5 0.11655
      vertex 1.49344 -2.5 0.11655
    endloop
  endfacet
  facet normal -0.453995 0 -0.891004
    outer loop
      vertex 1.49344 2.5 0.11655
      vertex 1.31992 -2.5 0.204964
      vertex 1.31992 2.5 0.204964
    endloop
  endfacet
  facet normal 0.975921 0 -0.218126
    outer loop
      vertex -3.00261 -2.5 -1.82906
      vertex -3.04509 2.5 -2.01912
      vertex -3.00261 2.5 -1.82906
    endloop
  endfacet
  facet normal 0.975921 0 -0.218126
    outer loop
      vertex -3.04509 2.5 -2.01912
      vertex -3.00261 -2.5 -1.82906
      vertex -3.04509 -2.5 -2.01912
    endloop
  endfacet
  facet normal 0.827066 0 -0.562105
    outer loop
      vertex -2.50795 -2.5 -0.777865
      vertex -2.61742 2.5 -0.938936
      vertex -2.50795 2.5 -0.777865
    endloop
  endfacet
  facet normal 0.827066 0 -0.562105
    outer loop
      vertex -2.61742 2.5 -0.938936
      vertex -2.50795 -2.5 -0.777865
      vertex -2.61742 -2.5 -0.938936
    endloop
  endfacet
  facet normal 0.917742 0 -0.397177
    outer loop
      vertex -2.80496 -2.5 -1.28008
      vertex -2.88231 2.5 -1.45881
      vertex -2.80496 2.5 -1.28008
    endloop
  endfacet
  facet normal 0.917742 0 -0.397177
    outer loop
      vertex -2.88231 2.5 -1.45881
      vertex -2.80496 -2.5 -1.28008
      vertex -2.88231 -2.5 -1.45881
    endloop
  endfacet
  facet normal 0.860748 0 -0.509032
    outer loop
      vertex -2.61742 -2.5 -0.938936
      vertex -2.71655 2.5 -1.10656
      vertex -2.61742 2.5 -0.938936
    endloop
  endfacet
  facet normal 0.860748 0 -0.509032
    outer loop
      vertex -2.71655 2.5 -1.10656
      vertex -2.61742 -2.5 -0.938936
      vertex -2.71655 -2.5 -1.10656
    endloop
  endfacet
  facet normal 0.987693 0 -0.156408
    outer loop
      vertex -3.04509 -2.5 -2.01912
      vertex -3.07555 2.5 -2.21147
      vertex -3.04509 2.5 -2.01912
    endloop
  endfacet
  facet normal 0.987693 0 -0.156408
    outer loop
      vertex -3.07555 2.5 -2.21147
      vertex -3.04509 -2.5 -2.01912
      vertex -3.07555 -2.5 -2.21147
    endloop
  endfacet
  facet normal 0.509056 0 -0.860733
    outer loop
      vertex -1.66106 -2.5 0.017416
      vertex -1.49344 2.5 0.11655
      vertex -1.49344 -2.5 0.11655
    endloop
  endfacet
  facet normal 0.509056 0 -0.860733
    outer loop
      vertex -1.49344 2.5 0.11655
      vertex -1.66106 -2.5 0.017416
      vertex -1.66106 2.5 0.017416
    endloop
  endfacet
  facet normal 0.0941066 0 -0.995562
    outer loop
      vertex -0.388533 -2.5 0.475555
      vertex -0.19465 2.5 0.493882
      vertex -0.19465 -2.5 0.493882
    endloop
  endfacet
  facet normal 0.0941066 0 -0.995562
    outer loop
      vertex -0.19465 2.5 0.493882
      vertex -0.388533 -2.5 0.475555
      vertex -0.388533 2.5 0.475555
    endloop
  endfacet
  facet normal -0.987693 0 -0.156408
    outer loop
      vertex 3.07555 -2.5 -2.21147
      vertex 3.04509 2.5 -2.01912
      vertex 3.07555 2.5 -2.21147
    endloop
  endfacet
  facet normal -0.987693 -0 -0.156408
    outer loop
      vertex 3.04509 2.5 -2.01912
      vertex 3.07555 -2.5 -2.21147
      vertex 3.04509 -2.5 -2.01912
    endloop
  endfacet
  facet normal -0.940898 0 -0.33869
    outer loop
      vertex 2.94827 -2.5 -1.64205
      vertex 2.88231 2.5 -1.45881
      vertex 2.94827 2.5 -1.64205
    endloop
  endfacet
  facet normal -0.940898 -0 -0.33869
    outer loop
      vertex 2.88231 2.5 -1.45881
      vertex 2.94827 -2.5 -1.64205
      vertex 2.88231 -2.5 -1.45881
    endloop
  endfacet
  facet normal -0.960282 0 -0.279032
    outer loop
      vertex 3.00261 -2.5 -1.82906
      vertex 2.94827 2.5 -1.64205
      vertex 3.00261 2.5 -1.82906
    endloop
  endfacet
  facet normal -0.960282 -0 -0.279032
    outer loop
      vertex 2.94827 2.5 -1.64205
      vertex 3.00261 -2.5 -1.82906
      vertex 2.94827 -2.5 -1.64205
    endloop
  endfacet
  facet normal -0.790159 0 -0.612902
    outer loop
      vertex 2.50795 -2.5 -0.777865
      vertex 2.38859 2.5 -0.623985
      vertex 2.50795 2.5 -0.777865
    endloop
  endfacet
  facet normal -0.790159 -0 -0.612902
    outer loop
      vertex 2.38859 2.5 -0.623985
      vertex 2.50795 -2.5 -0.777865
      vertex 2.38859 -2.5 -0.623985
    endloop
  endfacet
  facet normal -0.827066 0 -0.562105
    outer loop
      vertex 2.61742 -2.5 -0.938936
      vertex 2.50795 2.5 -0.777865
      vertex 2.61742 2.5 -0.938936
    endloop
  endfacet
  facet normal -0.827066 -0 -0.562105
    outer loop
      vertex 2.50795 2.5 -0.777865
      vertex 2.61742 -2.5 -0.938936
      vertex 2.50795 -2.5 -0.777865
    endloop
  endfacet
  facet normal -0.156434 0 -0.987688
    outer loop
      vertex 0.388533 -2.5 0.475555
      vertex 0.580882 2.5 0.44509
      vertex 0.580882 -2.5 0.44509
    endloop
  endfacet
  facet normal -0.156434 0 -0.987688
    outer loop
      vertex 0.580882 2.5 0.44509
      vertex 0.388533 -2.5 0.475555
      vertex 0.388533 2.5 0.475555
    endloop
  endfacet
  facet normal -0.33873 0 -0.940884
    outer loop
      vertex 0.957952 -2.5 0.348275
      vertex 1.14119 2.5 0.282307
      vertex 1.14119 -2.5 0.282307
    endloop
  endfacet
  facet normal -0.33873 0 -0.940884
    outer loop
      vertex 1.14119 2.5 0.282307
      vertex 0.957952 -2.5 0.348275
      vertex 0.957952 2.5 0.348275
    endloop
  endfacet
  facet normal -0.509056 0 -0.860733
    outer loop
      vertex 1.49344 -2.5 0.11655
      vertex 1.66106 2.5 0.017416
      vertex 1.66106 -2.5 0.017416
    endloop
  endfacet
  facet normal -0.509056 0 -0.860733
    outer loop
      vertex 1.66106 2.5 0.017416
      vertex 1.49344 -2.5 0.11655
      vertex 1.49344 2.5 0.11655
    endloop
  endfacet
  facet normal 0.891012 0 -0.453979
    outer loop
      vertex -2.71655 -2.5 -1.10656
      vertex -2.80496 2.5 -1.28008
      vertex -2.71655 2.5 -1.10656
    endloop
  endfacet
  facet normal 0.891012 0 -0.453979
    outer loop
      vertex -2.80496 2.5 -1.28008
      vertex -2.71655 -2.5 -1.10656
      vertex -2.80496 -2.5 -1.28008
    endloop
  endfacet
  facet normal 0.960282 0 -0.279032
    outer loop
      vertex -2.94827 -2.5 -1.64205
      vertex -3.00261 2.5 -1.82906
      vertex -2.94827 2.5 -1.64205
    endloop
  endfacet
  facet normal 0.960282 0 -0.279032
    outer loop
      vertex -3.00261 2.5 -1.82906
      vertex -2.94827 -2.5 -1.64205
      vertex -3.00261 -2.5 -1.82906
    endloop
  endfacet
  facet normal 0.995561 0 -0.0941233
    outer loop
      vertex -3.07555 -2.5 -2.21147
      vertex -3.09388 2.5 -2.40535
      vertex -3.07555 2.5 -2.21147
    endloop
  endfacet
  facet normal 0.995561 0 -0.0941233
    outer loop
      vertex -3.09388 2.5 -2.40535
      vertex -3.07555 -2.5 -2.21147
      vertex -3.09388 -2.5 -2.40535
    endloop
  endfacet
  facet normal 0.562082 0 -0.827081
    outer loop
      vertex -1.82213 -2.5 -0.0920467
      vertex -1.66106 2.5 0.017416
      vertex -1.66106 -2.5 0.017416
    endloop
  endfacet
  facet normal 0.562082 0 -0.827081
    outer loop
      vertex -1.66106 2.5 0.017416
      vertex -1.82213 -2.5 -0.0920467
      vertex -1.82213 2.5 -0.0920467
    endloop
  endfacet
  facet normal 0.397146 0 -0.917755
    outer loop
      vertex -1.31992 -2.5 0.204964
      vertex -1.14119 2.5 0.282307
      vertex -1.14119 -2.5 0.282307
    endloop
  endfacet
  facet normal 0.397146 0 -0.917755
    outer loop
      vertex -1.14119 2.5 0.282307
      vertex -1.31992 -2.5 0.204964
      vertex -1.31992 2.5 0.204964
    endloop
  endfacet
  facet normal 0.218145 0 -0.975916
    outer loop
      vertex -0.770938 -2.5 0.402607
      vertex -0.580882 2.5 0.44509
      vertex -0.580882 -2.5 0.44509
    endloop
  endfacet
  facet normal 0.218145 0 -0.975916
    outer loop
      vertex -0.580882 2.5 0.44509
      vertex -0.770938 -2.5 0.402607
      vertex -0.770938 2.5 0.402607
    endloop
  endfacet
  facet normal 0.278988 0 -0.960294
    outer loop
      vertex -0.957952 -2.5 0.348275
      vertex -0.770938 2.5 0.402607
      vertex -0.770938 -2.5 0.402607
    endloop
  endfacet
  facet normal 0.278988 0 -0.960294
    outer loop
      vertex -0.770938 2.5 0.402607
      vertex -0.957952 -2.5 0.348275
      vertex -0.957952 2.5 0.348275
    endloop
  endfacet
  facet normal 0.0314153 0 -0.999506
    outer loop
      vertex -0.19465 -2.5 0.493882
      vertex 0 2.5 0.5
      vertex 0 -2.5 0.5
    endloop
  endfacet
  facet normal 0.0314153 0 -0.999506
    outer loop
      vertex 0 2.5 0.5
      vertex -0.19465 -2.5 0.493882
      vertex -0.19465 2.5 0.493882
    endloop
  endfacet
  facet normal -0.750108 0 -0.661316
    outer loop
      vertex 2.38859 -2.5 -0.623985
      vertex 2.2598 2.5 -0.477903
      vertex 2.38859 2.5 -0.623985
    endloop
  endfacet
  facet normal -0.750108 -0 -0.661316
    outer loop
      vertex 2.2598 2.5 -0.477903
      vertex 2.38859 -2.5 -0.623985
      vertex 2.2598 -2.5 -0.477903
    endloop
  endfacet
  facet normal -0.891012 0 -0.453979
    outer loop
      vertex 2.80496 -2.5 -1.28008
      vertex 2.71655 2.5 -1.10656
      vertex 2.80496 2.5 -1.28008
    endloop
  endfacet
  facet normal -0.891012 -0 -0.453979
    outer loop
      vertex 2.71655 2.5 -1.10656
      vertex 2.80496 -2.5 -1.28008
      vertex 2.71655 -2.5 -1.10656
    endloop
  endfacet
  facet normal -0.860748 0 -0.509032
    outer loop
      vertex 2.71655 -2.5 -1.10656
      vertex 2.61742 2.5 -0.938936
      vertex 2.71655 2.5 -1.10656
    endloop
  endfacet
  facet normal -0.860748 -0 -0.509032
    outer loop
      vertex 2.61742 2.5 -0.938936
      vertex 2.71655 -2.5 -1.10656
      vertex 2.61742 -2.5 -0.938936
    endloop
  endfacet
  facet normal -0.278988 0 -0.960294
    outer loop
      vertex 0.770938 -2.5 0.402607
      vertex 0.957952 2.5 0.348275
      vertex 0.957952 -2.5 0.348275
    endloop
  endfacet
  facet normal -0.278988 0 -0.960294
    outer loop
      vertex 0.957952 2.5 0.348275
      vertex 0.770938 -2.5 0.402607
      vertex 0.770938 2.5 0.402607
    endloop
  endfacet
  facet normal -0.0941066 0 -0.995562
    outer loop
      vertex 0.19465 -2.5 0.493882
      vertex 0.388533 2.5 0.475555
      vertex 0.388533 -2.5 0.475555
    endloop
  endfacet
  facet normal -0.0941066 0 -0.995562
    outer loop
      vertex 0.388533 2.5 0.475555
      vertex 0.19465 -2.5 0.493882
      vertex 0.19465 2.5 0.493882
    endloop
  endfacet
  facet normal -0.66129 0 -0.750131
    outer loop
      vertex 1.97601 -2.5 -0.211409
      vertex 2.1221 2.5 -0.340197
      vertex 2.1221 -2.5 -0.340197
    endloop
  endfacet
  facet normal -0.66129 0 -0.750131
    outer loop
      vertex 2.1221 2.5 -0.340197
      vertex 1.97601 -2.5 -0.211409
      vertex 1.97601 2.5 -0.211409
    endloop
  endfacet
  facet normal -0.612909 0 -0.790153
    outer loop
      vertex 1.82213 -2.5 -0.0920467
      vertex 1.97601 2.5 -0.211409
      vertex 1.97601 -2.5 -0.211409
    endloop
  endfacet
  facet normal -0.612909 0 -0.790153
    outer loop
      vertex 1.97601 2.5 -0.211409
      vertex 1.82213 -2.5 -0.0920467
      vertex 1.82213 2.5 -0.0920467
    endloop
  endfacet
  facet normal 0.790159 0 -0.612902
    outer loop
      vertex -2.38859 -2.5 -0.623985
      vertex -2.50795 2.5 -0.777865
      vertex -2.38859 2.5 -0.623985
    endloop
  endfacet
  facet normal 0.790159 0 -0.612902
    outer loop
      vertex -2.50795 2.5 -0.777865
      vertex -2.38859 -2.5 -0.623985
      vertex -2.50795 -2.5 -0.777865
    endloop
  endfacet
  facet normal 0.750108 0 -0.661316
    outer loop
      vertex -2.2598 -2.5 -0.477903
      vertex -2.38859 2.5 -0.623985
      vertex -2.2598 2.5 -0.477903
    endloop
  endfacet
  facet normal 0.750108 0 -0.661316
    outer loop
      vertex -2.38859 2.5 -0.623985
      vertex -2.2598 -2.5 -0.477903
      vertex -2.38859 -2.5 -0.623985
    endloop
  endfacet
  facet normal 0.940898 0 -0.33869
    outer loop
      vertex -2.88231 -2.5 -1.45881
      vertex -2.94827 2.5 -1.64205
      vertex -2.88231 2.5 -1.45881
    endloop
  endfacet
  facet normal 0.940898 0 -0.33869
    outer loop
      vertex -2.94827 2.5 -1.64205
      vertex -2.88231 -2.5 -1.45881
      vertex -2.94827 -2.5 -1.64205
    endloop
  endfacet
  facet normal 0.612909 0 -0.790153
    outer loop
      vertex -1.97601 -2.5 -0.211409
      vertex -1.82213 2.5 -0.0920467
      vertex -1.82213 -2.5 -0.0920467
    endloop
  endfacet
  facet normal 0.612909 0 -0.790153
    outer loop
      vertex -1.82213 2.5 -0.0920467
      vertex -1.97601 -2.5 -0.211409
      vertex -1.97601 2.5 -0.211409
    endloop
  endfacet
  facet normal 0.453995 0 -0.891004
    outer loop
      vertex -1.49344 -2.5 0.11655
      vertex -1.31992 2.5 0.204964
      vertex -1.31992 -2.5 0.204964
    endloop
  endfacet
  facet normal 0.453995 0 -0.891004
    outer loop
      vertex -1.31992 2.5 0.204964
      vertex -1.49344 -2.5 0.11655
      vertex -1.49344 2.5 0.11655
    endloop
  endfacet
  facet normal 0.707122 0 -0.707091
    outer loop
      vertex -2.1221 -2.5 -0.340197
      vertex -2.2598 2.5 -0.477903
      vertex -2.1221 2.5 -0.340197
    endloop
  endfacet
  facet normal 0.707122 0 -0.707091
    outer loop
      vertex -2.2598 2.5 -0.477903
      vertex -2.1221 -2.5 -0.340197
      vertex -2.2598 -2.5 -0.477903
    endloop
  endfacet
endsolid OpenSCAD_Model
