solid OpenSCAD_Model
  facet normal -1 0 0
    outer loop
      vertex -5 -2.5 -2.5
      vertex -5 2.5 2.5
      vertex -5 2.5 -2.5
    endloop
  endfacet
  facet normal -1 -0 0
    outer loop
      vertex -5 2.5 2.5
      vertex -5 -2.5 -2.5
      vertex -5 -2.5 2.5
    endloop
  endfacet
  facet normal -0 0 1
    outer loop
      vertex -5 2.5 2.5
      vertex 5 -2.5 2.5
      vertex 5 2.5 2.5
    endloop
  endfacet
  facet normal 0 0 1
    outer loop
      vertex 5 -2.5 2.5
      vertex -5 2.5 2.5
      vertex -5 -2.5 2.5
    endloop
  endfacet
  facet normal 1 -0 0
    outer loop
      vertex 5 -2.5 2.5
      vertex 5 2.5 -2.5
      vertex 5 2.5 2.5
    endloop
  endfacet
  facet normal 1 0 0
    outer loop
      vertex 5 2.5 -2.5
      vertex 5 -2.5 2.5
      vertex 5 -2.5 -2.5
    endloop
  endfacet
  facet normal 0 0 -1
    outer loop
      vertex -5 -2.5 -2.5
      vertex -3.49371 2.5 -2.5
      vertex -3.49371 -2.5 -2.5
    endloop
  endfacet
  facet normal -0 0 -1
    outer loop
      vertex -3.49371 2.5 -2.5
      vertex -5 -2.5 -2.5
      vertex -5 2.5 -2.5
    endloop
  endfacet
  facet normal 0 0 -1
    outer loop
      vertex 3.49371 -2.5 -2.5
      vertex 5 2.5 -2.5
      vertex 5 -2.5 -2.5
    endloop
  endfacet
  facet normal -0 0 -1
    outer loop
      vertex 5 2.5 -2.5
      vertex 3.49371 -2.5 -2.5
      vertex 3.49371 2.5 -2.5
    endloop
  endfacet
  facet normal 0 -1 0
    outer loop
      vertex -5 -2.5 2.5
      vertex 0 -2.5 0.799999
      vertex 5 -2.5 2.5
    endloop
  endfacet
  facet normal 0 -1 0
    outer loop
      vertex -5 -2.5 2.5
      vertex -0.219767 -2.5 0.793093
      vertex 0 -2.5 0.799999
    endloop
  endfacet
  facet normal 0 -1 0
    outer loop
      vertex -5 -2.5 2.5
      vertex -0.438665 -2.5 0.772401
      vertex -0.219767 -2.5 0.793093
    endloop
  endfacet
  facet normal 0 -1 0
    outer loop
      vertex -5 -2.5 2.5
      vertex -0.655834 -2.5 0.738005
      vertex -0.438665 -2.5 0.772401
    endloop
  endfacet
  facet normal 0 -1 0
    outer loop
      vertex -5 -2.5 2.5
      vertex -0.870414 -2.5 0.690041
      vertex -0.655834 -2.5 0.738005
    endloop
  endfacet
  facet normal 0 -1 0
    outer loop
      vertex -5 -2.5 2.5
      vertex -1.08156 -2.5 0.628697
      vertex -0.870414 -2.5 0.690041
    endloop
  endfacet
  facet normal 0 -1 0
    outer loop
      vertex -5 -2.5 2.5
      vertex -1.28843 -2.5 0.554217
      vertex -1.08156 -2.5 0.628697
    endloop
  endfacet
  facet normal 0 -1 0
    outer loop
      vertex -5 -2.5 2.5
      vertex -1.49023 -2.5 0.466894
      vertex -1.28843 -2.5 0.554217
    endloop
  endfacet
  facet normal 0 -1 0
    outer loop
      vertex -5 -2.5 2.5
      vertex -1.68614 -2.5 0.367073
      vertex -1.49023 -2.5 0.466894
    endloop
  endfacet
  facet normal 0 -1 0
    outer loop
      vertex -5 -2.5 2.5
      vertex -1.87539 -2.5 0.255147
      vertex -1.68614 -2.5 0.367073
    endloop
  endfacet
  facet normal 0 -1 0
    outer loop
      vertex -5 -2.5 2.5
      vertex -2.05725 -2.5 0.131559
      vertex -1.87539 -2.5 0.255147
    endloop
  endfacet
  facet normal 0 -1 0
    outer loop
      vertex -5 -2.5 2.5
      vertex -2.23098 -2.5 -0.00320339
      vertex -2.05725 -2.5 0.131559
    endloop
  endfacet
  facet normal 0 -1 0
    outer loop
      vertex -5 -2.5 2.5
      vertex -2.39591 -2.5 -0.148609
      vertex -2.23098 -2.5 -0.00320339
    endloop
  endfacet
  facet normal 0 -1 0
    outer loop
      vertex -5 -2.5 2.5
      vertex -2.55139 -2.5 -0.304085
      vertex -2.39591 -2.5 -0.148609
    endloop
  endfacet
  facet normal 0 -1 0
    outer loop
      vertex -5 -2.5 2.5
      vertex -2.6968 -2.5 -0.469015
      vertex -2.55139 -2.5 -0.304085
    endloop
  endfacet
  facet normal 0 -1 0
    outer loop
      vertex -5 -2.5 2.5
      vertex -2.83156 -2.5 -0.642751
      vertex -2.6968 -2.5 -0.469015
    endloop
  endfacet
  facet normal 0 -1 0
    outer loop
      vertex -5 -2.5 2.5
      vertex -2.95515 -2.5 -0.824606
      vertex -2.83156 -2.5 -0.642751
    endloop
  endfacet
  facet normal 0 -1 0
    outer loop
      vertex -5 -2.5 2.5
      vertex -3.06707 -2.5 -1.01386
      vertex -2.95515 -2.5 -0.824606
    endloop
  endfacet
  facet normal 0 -1 0
    outer loop
      vertex -5 -2.5 2.5
      vertex -3.16689 -2.5 -1.20977
      vertex -3.06707 -2.5 -1.01386
    endloop
  endfacet
  facet normal 0 -1 0
    outer loop
      vertex -5 -2.5 -2.5
      vertex -3.16689 -2.5 -1.20977
      vertex -5 -2.5 2.5
    endloop
  endfacet
  facet normal 0 -1 0
    outer loop
      vertex -3.16689 -2.5 -1.20977
      vertex -5 -2.5 -2.5
      vertex -3.25422 -2.5 -1.41156
    endloop
  endfacet
  facet normal 0 -1 0
    outer loop
      vertex -3.25422 -2.5 -1.41156
      vertex -5 -2.5 -2.5
      vertex -3.3287 -2.5 -1.61844
    endloop
  endfacet
  facet normal 0 -1 0
    outer loop
      vertex -3.3287 -2.5 -1.61844
      vertex -5 -2.5 -2.5
      vertex -3.39004 -2.5 -1.82959
    endloop
  endfacet
  facet normal 0 -1 0
    outer loop
      vertex -3.39004 -2.5 -1.82959
      vertex -5 -2.5 -2.5
      vertex -3.438 -2.5 -2.04416
    endloop
  endfacet
  facet normal 0 -1 0
    outer loop
      vertex -3.438 -2.5 -2.04416
      vertex -5 -2.5 -2.5
      vertex -3.4724 -2.5 -2.26133
    endloop
  endfacet
  facet normal 0 -1 0
    outer loop
      vertex -3.4724 -2.5 -2.26133
      vertex -5 -2.5 -2.5
      vertex -3.49309 -2.5 -2.48023
    endloop
  endfacet
  facet normal 0 -1 0
    outer loop
      vertex -3.49309 -2.5 -2.48023
      vertex -5 -2.5 -2.5
      vertex -3.49371 -2.5 -2.5
    endloop
  endfacet
  facet normal 0 -1 0
    outer loop
      vertex 0.219767 -2.5 0.793093
      vertex 5 -2.5 2.5
      vertex 0 -2.5 0.799999
    endloop
  endfacet
  facet normal 0 -1 0
    outer loop
      vertex 0.438665 -2.5 0.772401
      vertex 5 -2.5 2.5
      vertex 0.219767 -2.5 0.793093
    endloop
  endfacet
  facet normal 0 -1 0
    outer loop
      vertex 0.655834 -2.5 0.738005
      vertex 5 -2.5 2.5
      vertex 0.438665 -2.5 0.772401
    endloop
  endfacet
  facet normal 0 -1 0
    outer loop
      vertex 0.870414 -2.5 0.690041
      vertex 5 -2.5 2.5
      vertex 0.655834 -2.5 0.738005
    endloop
  endfacet
  facet normal 0 -1 0
    outer loop
      vertex 1.08156 -2.5 0.628697
      vertex 5 -2.5 2.5
      vertex 0.870414 -2.5 0.690041
    endloop
  endfacet
  facet normal 0 -1 0
    outer loop
      vertex 1.28843 -2.5 0.554217
      vertex 5 -2.5 2.5
      vertex 1.08156 -2.5 0.628697
    endloop
  endfacet
  facet normal 0 -1 0
    outer loop
      vertex 1.49023 -2.5 0.466894
      vertex 5 -2.5 2.5
      vertex 1.28843 -2.5 0.554217
    endloop
  endfacet
  facet normal 0 -1 0
    outer loop
      vertex 1.68614 -2.5 0.367073
      vertex 5 -2.5 2.5
      vertex 1.49023 -2.5 0.466894
    endloop
  endfacet
  facet normal 0 -1 0
    outer loop
      vertex 1.87539 -2.5 0.255147
      vertex 5 -2.5 2.5
      vertex 1.68614 -2.5 0.367073
    endloop
  endfacet
  facet normal 0 -1 0
    outer loop
      vertex 2.05725 -2.5 0.131559
      vertex 5 -2.5 2.5
      vertex 1.87539 -2.5 0.255147
    endloop
  endfacet
  facet normal 0 -1 0
    outer loop
      vertex 2.23098 -2.5 -0.00320339
      vertex 5 -2.5 2.5
      vertex 2.05725 -2.5 0.131559
    endloop
  endfacet
  facet normal 0 -1 0
    outer loop
      vertex 2.39591 -2.5 -0.148609
      vertex 5 -2.5 2.5
      vertex 2.23098 -2.5 -0.00320339
    endloop
  endfacet
  facet normal 0 -1 0
    outer loop
      vertex 2.55139 -2.5 -0.304085
      vertex 5 -2.5 2.5
      vertex 2.39591 -2.5 -0.148609
    endloop
  endfacet
  facet normal 0 -1 0
    outer loop
      vertex 2.6968 -2.5 -0.469015
      vertex 5 -2.5 2.5
      vertex 2.55139 -2.5 -0.304085
    endloop
  endfacet
  facet normal 0 -1 0
    outer loop
      vertex 2.83156 -2.5 -0.642751
      vertex 5 -2.5 2.5
      vertex 2.6968 -2.5 -0.469015
    endloop
  endfacet
  facet normal 0 -1 0
    outer loop
      vertex 2.95515 -2.5 -0.824606
      vertex 5 -2.5 2.5
      vertex 2.83156 -2.5 -0.642751
    endloop
  endfacet
  facet normal 0 -1 0
    outer loop
      vertex 3.06707 -2.5 -1.01386
      vertex 5 -2.5 2.5
      vertex 2.95515 -2.5 -0.824606
    endloop
  endfacet
  facet normal 0 -1 0
    outer loop
      vertex 3.16689 -2.5 -1.20977
      vertex 5 -2.5 2.5
      vertex 3.06707 -2.5 -1.01386
    endloop
  endfacet
  facet normal 0 -1 0
    outer loop
      vertex 5 -2.5 -2.5
      vertex 3.16689 -2.5 -1.20977
      vertex 3.25422 -2.5 -1.41156
    endloop
  endfacet
  facet normal 0 -1 0
    outer loop
      vertex 5 -2.5 -2.5
      vertex 3.25422 -2.5 -1.41156
      vertex 3.3287 -2.5 -1.61844
    endloop
  endfacet
  facet normal 0 -1 0
    outer loop
      vertex 5 -2.5 -2.5
      vertex 3.3287 -2.5 -1.61844
      vertex 3.39004 -2.5 -1.82959
    endloop
  endfacet
  facet normal 0 -1 0
    outer loop
      vertex 5 -2.5 -2.5
      vertex 3.39004 -2.5 -1.82959
      vertex 3.438 -2.5 -2.04416
    endloop
  endfacet
  facet normal 0 -1 0
    outer loop
      vertex 5 -2.5 -2.5
      vertex 3.438 -2.5 -2.04416
      vertex 3.4724 -2.5 -2.26133
    endloop
  endfacet
  facet normal 0 -1 0
    outer loop
      vertex 5 -2.5 -2.5
      vertex 3.4724 -2.5 -2.26133
      vertex 3.49309 -2.5 -2.48023
    endloop
  endfacet
  facet normal 0 -1 0
    outer loop
      vertex 5 -2.5 -2.5
      vertex 3.49309 -2.5 -2.48023
      vertex 3.49371 -2.5 -2.5
    endloop
  endfacet
  facet normal 0 -1 0
    outer loop
      vertex 3.16689 -2.5 -1.20977
      vertex 5 -2.5 -2.5
      vertex 5 -2.5 2.5
    endloop
  endfacet
  facet normal 0 1 0
    outer loop
      vertex 5 2.5 2.5
      vertex 0 2.5 0.799999
      vertex -5 2.5 2.5
    endloop
  endfacet
  facet normal 0 1 0
    outer loop
      vertex 5 2.5 2.5
      vertex 0.219767 2.5 0.793093
      vertex 0 2.5 0.799999
    endloop
  endfacet
  facet normal 0 1 0
    outer loop
      vertex 5 2.5 2.5
      vertex 0.438665 2.5 0.772401
      vertex 0.219767 2.5 0.793093
    endloop
  endfacet
  facet normal 0 1 0
    outer loop
      vertex 5 2.5 2.5
      vertex 0.655834 2.5 0.738005
      vertex 0.438665 2.5 0.772401
    endloop
  endfacet
  facet normal 0 1 0
    outer loop
      vertex 5 2.5 2.5
      vertex 0.870414 2.5 0.690041
      vertex 0.655834 2.5 0.738005
    endloop
  endfacet
  facet normal 0 1 0
    outer loop
      vertex 5 2.5 2.5
      vertex 1.08156 2.5 0.628697
      vertex 0.870414 2.5 0.690041
    endloop
  endfacet
  facet normal 0 1 0
    outer loop
      vertex 5 2.5 2.5
      vertex 1.28843 2.5 0.554217
      vertex 1.08156 2.5 0.628697
    endloop
  endfacet
  facet normal 0 1 0
    outer loop
      vertex 5 2.5 2.5
      vertex 1.49023 2.5 0.466894
      vertex 1.28843 2.5 0.554217
    endloop
  endfacet
  facet normal 0 1 0
    outer loop
      vertex 5 2.5 2.5
      vertex 1.68614 2.5 0.367073
      vertex 1.49023 2.5 0.466894
    endloop
  endfacet
  facet normal 0 1 0
    outer loop
      vertex 5 2.5 2.5
      vertex 1.87539 2.5 0.255147
      vertex 1.68614 2.5 0.367073
    endloop
  endfacet
  facet normal 0 1 0
    outer loop
      vertex 5 2.5 2.5
      vertex 2.05725 2.5 0.131559
      vertex 1.87539 2.5 0.255147
    endloop
  endfacet
  facet normal 0 1 0
    outer loop
      vertex 5 2.5 2.5
      vertex 2.23098 2.5 -0.00320339
      vertex 2.05725 2.5 0.131559
    endloop
  endfacet
  facet normal 0 1 0
    outer loop
      vertex 5 2.5 2.5
      vertex 2.39591 2.5 -0.148609
      vertex 2.23098 2.5 -0.00320339
    endloop
  endfacet
  facet normal 0 1 0
    outer loop
      vertex 5 2.5 2.5
      vertex 2.55139 2.5 -0.304085
      vertex 2.39591 2.5 -0.148609
    endloop
  endfacet
  facet normal 0 1 0
    outer loop
      vertex 5 2.5 2.5
      vertex 2.6968 2.5 -0.469015
      vertex 2.55139 2.5 -0.304085
    endloop
  endfacet
  facet normal 0 1 0
    outer loop
      vertex 5 2.5 2.5
      vertex 2.83156 2.5 -0.642751
      vertex 2.6968 2.5 -0.469015
    endloop
  endfacet
  facet normal 0 1 0
    outer loop
      vertex 5 2.5 2.5
      vertex 2.95515 2.5 -0.824606
      vertex 2.83156 2.5 -0.642751
    endloop
  endfacet
  facet normal 0 1 0
    outer loop
      vertex 5 2.5 2.5
      vertex 3.06707 2.5 -1.01386
      vertex 2.95515 2.5 -0.824606
    endloop
  endfacet
  facet normal 0 1 0
    outer loop
      vertex 5 2.5 2.5
      vertex 3.16689 2.5 -1.20977
      vertex 3.06707 2.5 -1.01386
    endloop
  endfacet
  facet normal 0 1 -0
    outer loop
      vertex 5 2.5 -2.5
      vertex 3.16689 2.5 -1.20977
      vertex 5 2.5 2.5
    endloop
  endfacet
  facet normal 0 1 0
    outer loop
      vertex 3.16689 2.5 -1.20977
      vertex 5 2.5 -2.5
      vertex 3.25422 2.5 -1.41156
    endloop
  endfacet
  facet normal 0 1 0
    outer loop
      vertex 3.25422 2.5 -1.41156
      vertex 5 2.5 -2.5
      vertex 3.3287 2.5 -1.61844
    endloop
  endfacet
  facet normal 0 1 0
    outer loop
      vertex 3.3287 2.5 -1.61844
      vertex 5 2.5 -2.5
      vertex 3.39004 2.5 -1.82959
    endloop
  endfacet
  facet normal 0 1 0
    outer loop
      vertex 3.39004 2.5 -1.82959
      vertex 5 2.5 -2.5
      vertex 3.438 2.5 -2.04416
    endloop
  endfacet
  facet normal 0 1 0
    outer loop
      vertex 3.438 2.5 -2.04416
      vertex 5 2.5 -2.5
      vertex 3.4724 2.5 -2.26133
    endloop
  endfacet
  facet normal 0 1 0
    outer loop
      vertex 3.4724 2.5 -2.26133
      vertex 5 2.5 -2.5
      vertex 3.49309 2.5 -2.48023
    endloop
  endfacet
  facet normal 0 1 0
    outer loop
      vertex 3.49309 2.5 -2.48023
      vertex 5 2.5 -2.5
      vertex 3.49371 2.5 -2.5
    endloop
  endfacet
  facet normal 0 1 -0
    outer loop
      vertex -0.219767 2.5 0.793093
      vertex -5 2.5 2.5
      vertex 0 2.5 0.799999
    endloop
  endfacet
  facet normal 0 1 -0
    outer loop
      vertex -0.438665 2.5 0.772401
      vertex -5 2.5 2.5
      vertex -0.219767 2.5 0.793093
    endloop
  endfacet
  facet normal 0 1 -0
    outer loop
      vertex -0.655834 2.5 0.738005
      vertex -5 2.5 2.5
      vertex -0.438665 2.5 0.772401
    endloop
  endfacet
  facet normal 0 1 -0
    outer loop
      vertex -0.870414 2.5 0.690041
      vertex -5 2.5 2.5
      vertex -0.655834 2.5 0.738005
    endloop
  endfacet
  facet normal 0 1 -0
    outer loop
      vertex -1.08156 2.5 0.628697
      vertex -5 2.5 2.5
      vertex -0.870414 2.5 0.690041
    endloop
  endfacet
  facet normal 0 1 -0
    outer loop
      vertex -1.28843 2.5 0.554217
      vertex -5 2.5 2.5
      vertex -1.08156 2.5 0.628697
    endloop
  endfacet
  facet normal 0 1 -0
    outer loop
      vertex -1.49023 2.5 0.466894
      vertex -5 2.5 2.5
      vertex -1.28843 2.5 0.554217
    endloop
  endfacet
  facet normal 0 1 -0
    outer loop
      vertex -1.68614 2.5 0.367073
      vertex -5 2.5 2.5
      vertex -1.49023 2.5 0.466894
    endloop
  endfacet
  facet normal 0 1 -0
    outer loop
      vertex -1.87539 2.5 0.255147
      vertex -5 2.5 2.5
      vertex -1.68614 2.5 0.367073
    endloop
  endfacet
  facet normal 0 1 -0
    outer loop
      vertex -2.05725 2.5 0.131559
      vertex -5 2.5 2.5
      vertex -1.87539 2.5 0.255147
    endloop
  endfacet
  facet normal 0 1 -0
    outer loop
      vertex -2.23098 2.5 -0.00320339
      vertex -5 2.5 2.5
      vertex -2.05725 2.5 0.131559
    endloop
  endfacet
  facet normal 0 1 -0
    outer loop
      vertex -2.39591 2.5 -0.148609
      vertex -5 2.5 2.5
      vertex -2.23098 2.5 -0.00320339
    endloop
  endfacet
  facet normal 0 1 -0
    outer loop
      vertex -2.55139 2.5 -0.304085
      vertex -5 2.5 2.5
      vertex -2.39591 2.5 -0.148609
    endloop
  endfacet
  facet normal 0 1 -0
    outer loop
      vertex -2.6968 2.5 -0.469015
      vertex -5 2.5 2.5
      vertex -2.55139 2.5 -0.304085
    endloop
  endfacet
  facet normal 0 1 -0
    outer loop
      vertex -2.83156 2.5 -0.642751
      vertex -5 2.5 2.5
      vertex -2.6968 2.5 -0.469015
    endloop
  endfacet
  facet normal 0 1 -0
    outer loop
      vertex -2.95515 2.5 -0.824606
      vertex -5 2.5 2.5
      vertex -2.83156 2.5 -0.642751
    endloop
  endfacet
  facet normal 0 1 -0
    outer loop
      vertex -3.06707 2.5 -1.01386
      vertex -5 2.5 2.5
      vertex -2.95515 2.5 -0.824606
    endloop
  endfacet
  facet normal 0 1 -0
    outer loop
      vertex -3.16689 2.5 -1.20977
      vertex -5 2.5 2.5
      vertex -3.06707 2.5 -1.01386
    endloop
  endfacet
  facet normal 0 1 0
    outer loop
      vertex -5 2.5 -2.5
      vertex -3.16689 2.5 -1.20977
      vertex -3.25422 2.5 -1.41156
    endloop
  endfacet
  facet normal 0 1 0
    outer loop
      vertex -5 2.5 -2.5
      vertex -3.25422 2.5 -1.41156
      vertex -3.3287 2.5 -1.61844
    endloop
  endfacet
  facet normal 0 1 0
    outer loop
      vertex -5 2.5 -2.5
      vertex -3.3287 2.5 -1.61844
      vertex -3.39004 2.5 -1.82959
    endloop
  endfacet
  facet normal 0 1 0
    outer loop
      vertex -5 2.5 -2.5
      vertex -3.39004 2.5 -1.82959
      vertex -3.438 2.5 -2.04416
    endloop
  endfacet
  facet normal 0 1 0
    outer loop
      vertex -5 2.5 -2.5
      vertex -3.438 2.5 -2.04416
      vertex -3.4724 2.5 -2.26133
    endloop
  endfacet
  facet normal 0 1 0
    outer loop
      vertex -5 2.5 -2.5
      vertex -3.4724 2.5 -2.26133
      vertex -3.49309 2.5 -2.48023
    endloop
  endfacet
  facet normal 0 1 0
    outer loop
      vertex -5 2.5 -2.5
      vertex -3.49309 2.5 -2.48023
      vertex -3.49371 2.5 -2.5
    endloop
  endfacet
  facet normal 0 1 0
    outer loop
      vertex -3.16689 2.5 -1.20977
      vertex -5 2.5 -2.5
      vertex -5 2.5 2.5
    endloop
  endfacet
  facet normal -0.999509 0 -0.0313452
    outer loop
      vertex 3.49371 -2.5 -2.5
      vertex 3.49309 2.5 -2.48023
      vertex 3.49371 2.5 -2.5
    endloop
  endfacet
  facet normal -0.999509 -0 -0.0313452
    outer loop
      vertex 3.49309 2.5 -2.48023
      vertex 3.49371 -2.5 -2.5
      vertex 3.49309 -2.5 -2.48023
    endloop
  endfacet
  facet normal -0.995563 0 -0.0940987
    outer loop
      vertex 3.49309 -2.5 -2.48023
      vertex 3.4724 2.5 -2.26133
      vertex 3.49309 2.5 -2.48023
    endloop
  endfacet
  facet normal -0.995563 -0 -0.0940987
    outer loop
      vertex 3.4724 2.5 -2.26133
      vertex 3.49309 -2.5 -2.48023
      vertex 3.4724 -2.5 -2.26133
    endloop
  endfacet
  facet normal 0.999509 0 -0.0313452
    outer loop
      vertex -3.49309 -2.5 -2.48023
      vertex -3.49371 2.5 -2.5
      vertex -3.49309 2.5 -2.48023
    endloop
  endfacet
  facet normal 0.999509 0 -0.0313452
    outer loop
      vertex -3.49371 2.5 -2.5
      vertex -3.49309 -2.5 -2.48023
      vertex -3.49371 -2.5 -2.5
    endloop
  endfacet
  facet normal -0.0314087 0 -0.999507
    outer loop
      vertex 0 -2.5 0.799999
      vertex 0.219767 2.5 0.793093
      vertex 0.219767 -2.5 0.793093
    endloop
  endfacet
  facet normal -0.0314087 0 -0.999507
    outer loop
      vertex 0.219767 2.5 0.793093
      vertex 0 -2.5 0.799999
      vertex 0 2.5 0.799999
    endloop
  endfacet
  facet normal -0.707098 0 -0.707116
    outer loop
      vertex 2.55139 -2.5 -0.304085
      vertex 2.39591 2.5 -0.148609
      vertex 2.55139 2.5 -0.304085
    endloop
  endfacet
  facet normal -0.707098 -0 -0.707116
    outer loop
      vertex 2.39591 2.5 -0.148609
      vertex 2.55139 -2.5 -0.304085
      vertex 2.39591 -2.5 -0.148609
    endloop
  endfacet
  facet normal 0.661313 0 -0.75011
    outer loop
      vertex -2.39591 -2.5 -0.148609
      vertex -2.23098 2.5 -0.00320339
      vertex -2.23098 -2.5 -0.00320339
    endloop
  endfacet
  facet normal 0.661313 0 -0.75011
    outer loop
      vertex -2.23098 2.5 -0.00320339
      vertex -2.39591 -2.5 -0.148609
      vertex -2.39591 2.5 -0.148609
    endloop
  endfacet
  facet normal 0.338747 0 -0.940878
    outer loop
      vertex -1.28843 -2.5 0.554217
      vertex -1.08156 2.5 0.628697
      vertex -1.08156 -2.5 0.628697
    endloop
  endfacet
  facet normal 0.338747 0 -0.940878
    outer loop
      vertex -1.08156 2.5 0.628697
      vertex -1.28843 -2.5 0.554217
      vertex -1.28843 2.5 0.554217
    endloop
  endfacet
  facet normal -0.917742 0 -0.397177
    outer loop
      vertex 3.25422 -2.5 -1.41156
      vertex 3.16689 2.5 -1.20977
      vertex 3.25422 2.5 -1.41156
    endloop
  endfacet
  facet normal -0.917742 -0 -0.397177
    outer loop
      vertex 3.16689 2.5 -1.20977
      vertex 3.25422 -2.5 -1.41156
      vertex 3.16689 -2.5 -1.20977
    endloop
  endfacet
  facet normal 0.156434 0 -0.987688
    outer loop
      vertex -0.655834 -2.5 0.738005
      vertex -0.438665 2.5 0.772401
      vertex -0.438665 -2.5 0.772401
    endloop
  endfacet
  facet normal 0.156434 0 -0.987688
    outer loop
      vertex -0.438665 2.5 0.772401
      vertex -0.655834 -2.5 0.738005
      vertex -0.655834 2.5 0.738005
    endloop
  endfacet
  facet normal -0.975919 0 -0.218134
    outer loop
      vertex 3.438 -2.5 -2.04416
      vertex 3.39004 2.5 -1.82959
      vertex 3.438 2.5 -2.04416
    endloop
  endfacet
  facet normal -0.975919 -0 -0.218134
    outer loop
      vertex 3.39004 2.5 -1.82959
      vertex 3.438 -2.5 -2.04416
      vertex 3.39004 -2.5 -1.82959
    endloop
  endfacet
  facet normal -0.960299 0 -0.278971
    outer loop
      vertex 3.39004 -2.5 -1.82959
      vertex 3.3287 2.5 -1.61844
      vertex 3.39004 2.5 -1.82959
    endloop
  endfacet
  facet normal -0.960299 -0 -0.278971
    outer loop
      vertex 3.3287 2.5 -1.61844
      vertex 3.39004 -2.5 -1.82959
      vertex 3.3287 -2.5 -1.61844
    endloop
  endfacet
  facet normal -0.891009 0 -0.453986
    outer loop
      vertex 3.16689 -2.5 -1.20977
      vertex 3.06707 2.5 -1.01386
      vertex 3.16689 2.5 -1.20977
    endloop
  endfacet
  facet normal -0.891009 -0 -0.453986
    outer loop
      vertex 3.06707 2.5 -1.01386
      vertex 3.16689 -2.5 -1.20977
      vertex 3.06707 -2.5 -1.01386
    endloop
  endfacet
  facet normal -0.750101 0 -0.661324
    outer loop
      vertex 2.6968 -2.5 -0.469015
      vertex 2.55139 2.5 -0.304085
      vertex 2.6968 2.5 -0.469015
    endloop
  endfacet
  facet normal -0.750101 -0 -0.661324
    outer loop
      vertex 2.55139 2.5 -0.304085
      vertex 2.6968 -2.5 -0.469015
      vertex 2.55139 -2.5 -0.304085
    endloop
  endfacet
  facet normal -0.218142 0 -0.975917
    outer loop
      vertex 0.655834 -2.5 0.738005
      vertex 0.870414 2.5 0.690041
      vertex 0.870414 -2.5 0.690041
    endloop
  endfacet
  facet normal -0.218142 0 -0.975917
    outer loop
      vertex 0.870414 2.5 0.690041
      vertex 0.655834 -2.5 0.738005
      vertex 0.655834 2.5 0.738005
    endloop
  endfacet
  facet normal 0.790163 0 -0.612897
    outer loop
      vertex -2.6968 -2.5 -0.469015
      vertex -2.83156 2.5 -0.642751
      vertex -2.6968 2.5 -0.469015
    endloop
  endfacet
  facet normal 0.790163 0 -0.612897
    outer loop
      vertex -2.83156 2.5 -0.642751
      vertex -2.6968 -2.5 -0.469015
      vertex -2.83156 -2.5 -0.642751
    endloop
  endfacet
  facet normal 0.827077 0 -0.562088
    outer loop
      vertex -2.83156 -2.5 -0.642751
      vertex -2.95515 2.5 -0.824606
      vertex -2.83156 2.5 -0.642751
    endloop
  endfacet
  facet normal 0.827077 0 -0.562088
    outer loop
      vertex -2.95515 2.5 -0.824606
      vertex -2.83156 -2.5 -0.642751
      vertex -2.95515 -2.5 -0.824606
    endloop
  endfacet
  facet normal 0.975919 0 -0.218134
    outer loop
      vertex -3.39004 -2.5 -1.82959
      vertex -3.438 2.5 -2.04416
      vertex -3.39004 2.5 -1.82959
    endloop
  endfacet
  facet normal 0.975919 0 -0.218134
    outer loop
      vertex -3.438 2.5 -2.04416
      vertex -3.39004 -2.5 -1.82959
      vertex -3.438 -2.5 -2.04416
    endloop
  endfacet
  facet normal 0.987686 0 -0.156451
    outer loop
      vertex -3.438 -2.5 -2.04416
      vertex -3.4724 2.5 -2.26133
      vertex -3.438 2.5 -2.04416
    endloop
  endfacet
  facet normal 0.987686 0 -0.156451
    outer loop
      vertex -3.4724 2.5 -2.26133
      vertex -3.438 -2.5 -2.04416
      vertex -3.4724 -2.5 -2.26133
    endloop
  endfacet
  facet normal 0.509054 0 -0.860734
    outer loop
      vertex -1.87539 -2.5 0.255147
      vertex -1.68614 2.5 0.367073
      vertex -1.68614 -2.5 0.367073
    endloop
  endfacet
  facet normal 0.509054 0 -0.860734
    outer loop
      vertex -1.68614 2.5 0.367073
      vertex -1.87539 -2.5 0.255147
      vertex -1.87539 2.5 0.255147
    endloop
  endfacet
  facet normal 0.0941085 0 -0.995562
    outer loop
      vertex -0.438665 -2.5 0.772401
      vertex -0.219767 2.5 0.793093
      vertex -0.219767 -2.5 0.793093
    endloop
  endfacet
  facet normal 0.0941085 0 -0.995562
    outer loop
      vertex -0.219767 2.5 0.793093
      vertex -0.438665 -2.5 0.772401
      vertex -0.438665 2.5 0.772401
    endloop
  endfacet
  facet normal -0.987686 0 -0.156451
    outer loop
      vertex 3.4724 -2.5 -2.26133
      vertex 3.438 2.5 -2.04416
      vertex 3.4724 2.5 -2.26133
    endloop
  endfacet
  facet normal -0.987686 -0 -0.156451
    outer loop
      vertex 3.438 2.5 -2.04416
      vertex 3.4724 -2.5 -2.26133
      vertex 3.438 -2.5 -2.04416
    endloop
  endfacet
  facet normal -0.790163 0 -0.612897
    outer loop
      vertex 2.83156 -2.5 -0.642751
      vertex 2.6968 2.5 -0.469015
      vertex 2.83156 2.5 -0.642751
    endloop
  endfacet
  facet normal -0.790163 -0 -0.612897
    outer loop
      vertex 2.6968 2.5 -0.469015
      vertex 2.83156 -2.5 -0.642751
      vertex 2.6968 -2.5 -0.469015
    endloop
  endfacet
  facet normal -0.156434 0 -0.987688
    outer loop
      vertex 0.438665 -2.5 0.772401
      vertex 0.655834 2.5 0.738005
      vertex 0.655834 -2.5 0.738005
    endloop
  endfacet
  facet normal -0.156434 0 -0.987688
    outer loop
      vertex 0.655834 2.5 0.738005
      vertex 0.438665 -2.5 0.772401
      vertex 0.438665 2.5 0.772401
    endloop
  endfacet
  facet normal -0.338747 0 -0.940878
    outer loop
      vertex 1.08156 -2.5 0.628697
      vertex 1.28843 2.5 0.554217
      vertex 1.28843 -2.5 0.554217
    endloop
  endfacet
  facet normal -0.338747 0 -0.940878
    outer loop
      vertex 1.28843 2.5 0.554217
      vertex 1.08156 -2.5 0.628697
      vertex 1.08156 2.5 0.628697
    endloop
  endfacet
  facet normal -0.397134 0 -0.917761
    outer loop
      vertex 1.28843 -2.5 0.554217
      vertex 1.49023 2.5 0.466894
      vertex 1.49023 -2.5 0.466894
    endloop
  endfacet
  facet normal -0.397134 0 -0.917761
    outer loop
      vertex 1.49023 2.5 0.466894
      vertex 1.28843 -2.5 0.554217
      vertex 1.28843 2.5 0.554217
    endloop
  endfacet
  facet normal -0.509054 0 -0.860734
    outer loop
      vertex 1.68614 -2.5 0.367073
      vertex 1.87539 2.5 0.255147
      vertex 1.87539 -2.5 0.255147
    endloop
  endfacet
  facet normal -0.509054 0 -0.860734
    outer loop
      vertex 1.87539 2.5 0.255147
      vertex 1.68614 -2.5 0.367073
      vertex 1.68614 2.5 0.367073
    endloop
  endfacet
  facet normal -0.562071 0 -0.827089
    outer loop
      vertex 1.87539 -2.5 0.255147
      vertex 2.05725 2.5 0.131559
      vertex 2.05725 -2.5 0.131559
    endloop
  endfacet
  facet normal -0.562071 0 -0.827089
    outer loop
      vertex 2.05725 2.5 0.131559
      vertex 1.87539 -2.5 0.255147
      vertex 1.87539 2.5 0.255147
    endloop
  endfacet
  facet normal 0.860751 0 -0.509026
    outer loop
      vertex -2.95515 -2.5 -0.824606
      vertex -3.06707 2.5 -1.01386
      vertex -2.95515 2.5 -0.824606
    endloop
  endfacet
  facet normal 0.860751 0 -0.509026
    outer loop
      vertex -3.06707 2.5 -1.01386
      vertex -2.95515 -2.5 -0.824606
      vertex -3.06707 -2.5 -1.01386
    endloop
  endfacet
  facet normal 0.917742 0 -0.397177
    outer loop
      vertex -3.16689 -2.5 -1.20977
      vertex -3.25422 2.5 -1.41156
      vertex -3.16689 2.5 -1.20977
    endloop
  endfacet
  facet normal 0.917742 0 -0.397177
    outer loop
      vertex -3.25422 2.5 -1.41156
      vertex -3.16689 -2.5 -1.20977
      vertex -3.25422 -2.5 -1.41156
    endloop
  endfacet
  facet normal 0.940883 0 -0.338732
    outer loop
      vertex -3.25422 -2.5 -1.41156
      vertex -3.3287 2.5 -1.61844
      vertex -3.25422 2.5 -1.41156
    endloop
  endfacet
  facet normal 0.940883 0 -0.338732
    outer loop
      vertex -3.3287 2.5 -1.61844
      vertex -3.25422 -2.5 -1.41156
      vertex -3.3287 -2.5 -1.61844
    endloop
  endfacet
  facet normal 0.995563 0 -0.0940987
    outer loop
      vertex -3.4724 -2.5 -2.26133
      vertex -3.49309 2.5 -2.48023
      vertex -3.4724 2.5 -2.26133
    endloop
  endfacet
  facet normal 0.995563 0 -0.0940987
    outer loop
      vertex -3.49309 2.5 -2.48023
      vertex -3.4724 -2.5 -2.26133
      vertex -3.49309 -2.5 -2.48023
    endloop
  endfacet
  facet normal 0.562071 0 -0.827089
    outer loop
      vertex -2.05725 -2.5 0.131559
      vertex -1.87539 2.5 0.255147
      vertex -1.87539 -2.5 0.255147
    endloop
  endfacet
  facet normal 0.562071 0 -0.827089
    outer loop
      vertex -1.87539 2.5 0.255147
      vertex -2.05725 -2.5 0.131559
      vertex -2.05725 2.5 0.131559
    endloop
  endfacet
  facet normal 0.45399 0 -0.891007
    outer loop
      vertex -1.68614 -2.5 0.367073
      vertex -1.49023 2.5 0.466894
      vertex -1.49023 -2.5 0.466894
    endloop
  endfacet
  facet normal 0.45399 0 -0.891007
    outer loop
      vertex -1.49023 2.5 0.466894
      vertex -1.68614 -2.5 0.367073
      vertex -1.68614 2.5 0.367073
    endloop
  endfacet
  facet normal 0.218142 0 -0.975917
    outer loop
      vertex -0.870414 -2.5 0.690041
      vertex -0.655834 2.5 0.738005
      vertex -0.655834 -2.5 0.738005
    endloop
  endfacet
  facet normal 0.218142 0 -0.975917
    outer loop
      vertex -0.655834 2.5 0.738005
      vertex -0.870414 -2.5 0.690041
      vertex -0.870414 2.5 0.690041
    endloop
  endfacet
  facet normal 0.278993 0 -0.960293
    outer loop
      vertex -1.08156 -2.5 0.628697
      vertex -0.870414 2.5 0.690041
      vertex -0.870414 -2.5 0.690041
    endloop
  endfacet
  facet normal 0.278993 0 -0.960293
    outer loop
      vertex -0.870414 2.5 0.690041
      vertex -1.08156 -2.5 0.628697
      vertex -1.08156 2.5 0.628697
    endloop
  endfacet
  facet normal 0.0314087 0 -0.999507
    outer loop
      vertex -0.219767 -2.5 0.793093
      vertex 0 2.5 0.799999
      vertex 0 -2.5 0.799999
    endloop
  endfacet
  facet normal 0.0314087 0 -0.999507
    outer loop
      vertex 0 2.5 0.799999
      vertex -0.219767 -2.5 0.793093
      vertex -0.219767 2.5 0.793093
    endloop
  endfacet
  facet normal -0.940883 0 -0.338732
    outer loop
      vertex 3.3287 -2.5 -1.61844
      vertex 3.25422 2.5 -1.41156
      vertex 3.3287 2.5 -1.61844
    endloop
  endfacet
  facet normal -0.940883 -0 -0.338732
    outer loop
      vertex 3.25422 2.5 -1.41156
      vertex 3.3287 -2.5 -1.61844
      vertex 3.25422 -2.5 -1.41156
    endloop
  endfacet
  facet normal -0.860751 0 -0.509026
    outer loop
      vertex 3.06707 -2.5 -1.01386
      vertex 2.95515 2.5 -0.824606
      vertex 3.06707 2.5 -1.01386
    endloop
  endfacet
  facet normal -0.860751 -0 -0.509026
    outer loop
      vertex 2.95515 2.5 -0.824606
      vertex 3.06707 -2.5 -1.01386
      vertex 2.95515 -2.5 -0.824606
    endloop
  endfacet
  facet normal -0.827077 0 -0.562088
    outer loop
      vertex 2.95515 -2.5 -0.824606
      vertex 2.83156 2.5 -0.642751
      vertex 2.95515 2.5 -0.824606
    endloop
  endfacet
  facet normal -0.827077 -0 -0.562088
    outer loop
      vertex 2.83156 2.5 -0.642751
      vertex 2.95515 -2.5 -0.824606
      vertex 2.83156 -2.5 -0.642751
    endloop
  endfacet
  facet normal -0.278993 0 -0.960293
    outer loop
      vertex 0.870414 -2.5 0.690041
      vertex 1.08156 2.5 0.628697
      vertex 1.08156 -2.5 0.628697
    endloop
  endfacet
  facet normal -0.278993 0 -0.960293
    outer loop
      vertex 1.08156 2.5 0.628697
      vertex 0.870414 -2.5 0.690041
      vertex 0.870414 2.5 0.690041
    endloop
  endfacet
  facet normal -0.0941085 0 -0.995562
    outer loop
      vertex 0.219767 -2.5 0.793093
      vertex 0.438665 2.5 0.772401
      vertex 0.438665 -2.5 0.772401
    endloop
  endfacet
  facet normal -0.0941085 0 -0.995562
    outer loop
      vertex 0.438665 2.5 0.772401
      vertex 0.219767 -2.5 0.793093
      vertex 0.219767 2.5 0.793093
    endloop
  endfacet
  facet normal -0.45399 0 -0.891007
    outer loop
      vertex 1.49023 -2.5 0.466894
      vertex 1.68614 2.5 0.367073
      vertex 1.68614 -2.5 0.367073
    endloop
  endfacet
  facet normal -0.45399 0 -0.891007
    outer loop
      vertex 1.68614 2.5 0.367073
      vertex 1.49023 -2.5 0.466894
      vertex 1.49023 2.5 0.466894
    endloop
  endfacet
  facet normal -0.661313 0 -0.75011
    outer loop
      vertex 2.23098 -2.5 -0.00320339
      vertex 2.39591 2.5 -0.148609
      vertex 2.39591 -2.5 -0.148609
    endloop
  endfacet
  facet normal -0.661313 0 -0.75011
    outer loop
      vertex 2.39591 2.5 -0.148609
      vertex 2.23098 -2.5 -0.00320339
      vertex 2.23098 2.5 -0.00320339
    endloop
  endfacet
  facet normal -0.612917 0 -0.790147
    outer loop
      vertex 2.05725 -2.5 0.131559
      vertex 2.23098 2.5 -0.00320339
      vertex 2.23098 -2.5 -0.00320339
    endloop
  endfacet
  facet normal -0.612917 0 -0.790147
    outer loop
      vertex 2.23098 2.5 -0.00320339
      vertex 2.05725 -2.5 0.131559
      vertex 2.05725 2.5 0.131559
    endloop
  endfacet
  facet normal 0.750101 0 -0.661324
    outer loop
      vertex -2.55139 -2.5 -0.304085
      vertex -2.6968 2.5 -0.469015
      vertex -2.55139 2.5 -0.304085
    endloop
  endfacet
  facet normal 0.750101 0 -0.661324
    outer loop
      vertex -2.6968 2.5 -0.469015
      vertex -2.55139 -2.5 -0.304085
      vertex -2.6968 -2.5 -0.469015
    endloop
  endfacet
  facet normal 0.707098 0 -0.707116
    outer loop
      vertex -2.39591 -2.5 -0.148609
      vertex -2.55139 2.5 -0.304085
      vertex -2.39591 2.5 -0.148609
    endloop
  endfacet
  facet normal 0.707098 0 -0.707116
    outer loop
      vertex -2.55139 2.5 -0.304085
      vertex -2.39591 -2.5 -0.148609
      vertex -2.55139 -2.5 -0.304085
    endloop
  endfacet
  facet normal 0.891009 0 -0.453986
    outer loop
      vertex -3.06707 -2.5 -1.01386
      vertex -3.16689 2.5 -1.20977
      vertex -3.06707 2.5 -1.01386
    endloop
  endfacet
  facet normal 0.891009 0 -0.453986
    outer loop
      vertex -3.16689 2.5 -1.20977
      vertex -3.06707 -2.5 -1.01386
      vertex -3.16689 -2.5 -1.20977
    endloop
  endfacet
  facet normal 0.960299 0 -0.278971
    outer loop
      vertex -3.3287 -2.5 -1.61844
      vertex -3.39004 2.5 -1.82959
      vertex -3.3287 2.5 -1.61844
    endloop
  endfacet
  facet normal 0.960299 0 -0.278971
    outer loop
      vertex -3.39004 2.5 -1.82959
      vertex -3.3287 -2.5 -1.61844
      vertex -3.39004 -2.5 -1.82959
    endloop
  endfacet
  facet normal 0.612917 0 -0.790147
    outer loop
      vertex -2.23098 -2.5 -0.00320339
      vertex -2.05725 2.5 0.131559
      vertex -2.05725 -2.5 0.131559
    endloop
  endfacet
  facet normal 0.612917 0 -0.790147
    outer loop
      vertex -2.05725 2.5 0.131559
      vertex -2.23098 -2.5 -0.00320339
      vertex -2.23098 2.5 -0.00320339
    endloop
  endfacet
  facet normal 0.397134 0 -0.917761
    outer loop
      vertex -1.49023 -2.5 0.466894
      vertex -1.28843 2.5 0.554217
      vertex -1.28843 -2.5 0.554217
    endloop
  endfacet
  facet normal 0.397134 0 -0.917761
    outer loop
      vertex -1.28843 2.5 0.554217
      vertex -1.49023 -2.5 0.466894
      vertex -1.49023 2.5 0.466894
    endloop
  endfacet
endsolid OpenSCAD_Model
