solid OpenSCAD_Model
  facet normal -1 0 0
    outer loop
      vertex -5 -2.5 -2.5
      vertex -5 2.5 2.5
      vertex -5 2.5 -2.5
    endloop
  endfacet
  facet normal -1 -0 0
    outer loop
      vertex -5 2.5 2.5
      vertex -5 -2.5 -2.5
      vertex -5 -2.5 2.5
    endloop
  endfacet
  facet normal -0 0 1
    outer loop
      vertex -5 2.5 2.5
      vertex 5 -2.5 2.5
      vertex 5 2.5 2.5
    endloop
  endfacet
  facet normal 0 0 1
    outer loop
      vertex 5 -2.5 2.5
      vertex -5 2.5 2.5
      vertex -5 -2.5 2.5
    endloop
  endfacet
  facet normal 1 -0 0
    outer loop
      vertex 5 -2.5 2.5
      vertex 5 2.5 -2.5
      vertex 5 2.5 2.5
    endloop
  endfacet
  facet normal 1 0 0
    outer loop
      vertex 5 2.5 -2.5
      vertex 5 -2.5 2.5
      vertex 5 -2.5 -2.5
    endloop
  endfacet
  facet normal 0 1 0
    outer loop
      vertex 5 2.5 2.5
      vertex 0 2.5 0.599999
      vertex -5 2.5 2.5
    endloop
  endfacet
  facet normal 0 1 0
    outer loop
      vertex 5 2.5 2.5
      vertex 0.213488 2.5 0.59329
      vertex 0 2.5 0.599999
    endloop
  endfacet
  facet normal 0 1 0
    outer loop
      vertex 5 2.5 2.5
      vertex 0.426132 2.5 0.57319
      vertex 0.213488 2.5 0.59329
    endloop
  endfacet
  facet normal 0 1 0
    outer loop
      vertex 5 2.5 2.5
      vertex 0.637096 2.5 0.539776
      vertex 0.426132 2.5 0.57319
    endloop
  endfacet
  facet normal 0 1 0
    outer loop
      vertex 5 2.5 2.5
      vertex 0.845545 2.5 0.493182
      vertex 0.637096 2.5 0.539776
    endloop
  endfacet
  facet normal 0 1 0
    outer loop
      vertex 5 2.5 2.5
      vertex 1.05066 2.5 0.433592
      vertex 0.845545 2.5 0.493182
    endloop
  endfacet
  facet normal 0 1 0
    outer loop
      vertex 5 2.5 2.5
      vertex 1.25162 2.5 0.361239
      vertex 1.05066 2.5 0.433592
    endloop
  endfacet
  facet normal 0 1 0
    outer loop
      vertex 5 2.5 2.5
      vertex 1.44765 2.5 0.276411
      vertex 1.25162 2.5 0.361239
    endloop
  endfacet
  facet normal 0 1 0
    outer loop
      vertex 5 2.5 2.5
      vertex 1.63796 2.5 0.179442
      vertex 1.44765 2.5 0.276411
    endloop
  endfacet
  facet normal 0 1 0
    outer loop
      vertex 5 2.5 2.5
      vertex 1.82181 2.5 0.070714
      vertex 1.63796 2.5 0.179442
    endloop
  endfacet
  facet normal 0 1 0
    outer loop
      vertex 5 2.5 2.5
      vertex 1.99847 2.5 -0.0493422
      vertex 1.82181 2.5 0.070714
    endloop
  endfacet
  facet normal 0 1 0
    outer loop
      vertex 5 2.5 2.5
      vertex 2.16724 2.5 -0.180255
      vertex 1.99847 2.5 -0.0493422
    endloop
  endfacet
  facet normal 0 1 0
    outer loop
      vertex 5 2.5 2.5
      vertex 2.32746 2.5 -0.321507
      vertex 2.16724 2.5 -0.180255
    endloop
  endfacet
  facet normal 0 1 0
    outer loop
      vertex 5 2.5 2.5
      vertex 2.47849 2.5 -0.472539
      vertex 2.32746 2.5 -0.321507
    endloop
  endfacet
  facet normal 0 1 0
    outer loop
      vertex 5 2.5 2.5
      vertex 2.61974 2.5 -0.632758
      vertex 2.47849 2.5 -0.472539
    endloop
  endfacet
  facet normal 0 1 0
    outer loop
      vertex 5 2.5 2.5
      vertex 2.75066 2.5 -0.80153
      vertex 2.61974 2.5 -0.632758
    endloop
  endfacet
  facet normal 0 1 0
    outer loop
      vertex 5 2.5 2.5
      vertex 2.87071 2.5 -0.978189
      vertex 2.75066 2.5 -0.80153
    endloop
  endfacet
  facet normal 0 1 0
    outer loop
      vertex 5 2.5 2.5
      vertex 2.97944 2.5 -1.16204
      vertex 2.87071 2.5 -0.978189
    endloop
  endfacet
  facet normal 0 1 -0
    outer loop
      vertex 5 2.5 -2.5
      vertex 2.97944 2.5 -1.16204
      vertex 5 2.5 2.5
    endloop
  endfacet
  facet normal 0 1 0
    outer loop
      vertex 2.97944 2.5 -1.16204
      vertex 5 2.5 -2.5
      vertex 3.07641 2.5 -1.35235
    endloop
  endfacet
  facet normal 0 1 0
    outer loop
      vertex 3.07641 2.5 -1.35235
      vertex 5 2.5 -2.5
      vertex 3.16124 2.5 -1.54838
    endloop
  endfacet
  facet normal 0 1 0
    outer loop
      vertex 3.16124 2.5 -1.54838
      vertex 5 2.5 -2.5
      vertex 3.23359 2.5 -1.74934
    endloop
  endfacet
  facet normal 0 1 0
    outer loop
      vertex 3.23359 2.5 -1.74934
      vertex 5 2.5 -2.5
      vertex 3.29318 2.5 -1.95445
    endloop
  endfacet
  facet normal 0 1 0
    outer loop
      vertex 3.29318 2.5 -1.95445
      vertex 5 2.5 -2.5
      vertex 3.33978 2.5 -2.1629
    endloop
  endfacet
  facet normal 0 1 0
    outer loop
      vertex 3.33978 2.5 -2.1629
      vertex 5 2.5 -2.5
      vertex 3.37319 2.5 -2.37387
    endloop
  endfacet
  facet normal 0 1 0
    outer loop
      vertex 3.37319 2.5 -2.37387
      vertex 5 2.5 -2.5
      vertex 3.38511 2.5 -2.5
    endloop
  endfacet
  facet normal 0 1 -0
    outer loop
      vertex -0.213488 2.5 0.59329
      vertex -5 2.5 2.5
      vertex 0 2.5 0.599999
    endloop
  endfacet
  facet normal 0 1 -0
    outer loop
      vertex -0.426132 2.5 0.57319
      vertex -5 2.5 2.5
      vertex -0.213488 2.5 0.59329
    endloop
  endfacet
  facet normal 0 1 -0
    outer loop
      vertex -0.637096 2.5 0.539776
      vertex -5 2.5 2.5
      vertex -0.426132 2.5 0.57319
    endloop
  endfacet
  facet normal 0 1 -0
    outer loop
      vertex -0.845545 2.5 0.493182
      vertex -5 2.5 2.5
      vertex -0.637096 2.5 0.539776
    endloop
  endfacet
  facet normal 0 1 -0
    outer loop
      vertex -1.05066 2.5 0.433592
      vertex -5 2.5 2.5
      vertex -0.845545 2.5 0.493182
    endloop
  endfacet
  facet normal 0 1 -0
    outer loop
      vertex -1.25162 2.5 0.361239
      vertex -5 2.5 2.5
      vertex -1.05066 2.5 0.433592
    endloop
  endfacet
  facet normal 0 1 -0
    outer loop
      vertex -1.44765 2.5 0.276411
      vertex -5 2.5 2.5
      vertex -1.25162 2.5 0.361239
    endloop
  endfacet
  facet normal 0 1 -0
    outer loop
      vertex -1.63796 2.5 0.179442
      vertex -5 2.5 2.5
      vertex -1.44765 2.5 0.276411
    endloop
  endfacet
  facet normal 0 1 -0
    outer loop
      vertex -1.82181 2.5 0.070714
      vertex -5 2.5 2.5
      vertex -1.63796 2.5 0.179442
    endloop
  endfacet
  facet normal 0 1 -0
    outer loop
      vertex -1.99847 2.5 -0.0493422
      vertex -5 2.5 2.5
      vertex -1.82181 2.5 0.070714
    endloop
  endfacet
  facet normal 0 1 -0
    outer loop
      vertex -2.16724 2.5 -0.180255
      vertex -5 2.5 2.5
      vertex -1.99847 2.5 -0.0493422
    endloop
  endfacet
  facet normal 0 1 -0
    outer loop
      vertex -2.32746 2.5 -0.321507
      vertex -5 2.5 2.5
      vertex -2.16724 2.5 -0.180255
    endloop
  endfacet
  facet normal 0 1 -0
    outer loop
      vertex -2.47849 2.5 -0.472539
      vertex -5 2.5 2.5
      vertex -2.32746 2.5 -0.321507
    endloop
  endfacet
  facet normal 0 1 -0
    outer loop
      vertex -2.61974 2.5 -0.632758
      vertex -5 2.5 2.5
      vertex -2.47849 2.5 -0.472539
    endloop
  endfacet
  facet normal 0 1 -0
    outer loop
      vertex -2.75066 2.5 -0.80153
      vertex -5 2.5 2.5
      vertex -2.61974 2.5 -0.632758
    endloop
  endfacet
  facet normal 0 1 -0
    outer loop
      vertex -2.87071 2.5 -0.978189
      vertex -5 2.5 2.5
      vertex -2.75066 2.5 -0.80153
    endloop
  endfacet
  facet normal 0 1 -0
    outer loop
      vertex -2.97944 2.5 -1.16204
      vertex -5 2.5 2.5
      vertex -2.87071 2.5 -0.978189
    endloop
  endfacet
  facet normal 0 1 0
    outer loop
      vertex -5 2.5 -2.5
      vertex -2.97944 2.5 -1.16204
      vertex -3.07641 2.5 -1.35235
    endloop
  endfacet
  facet normal 0 1 0
    outer loop
      vertex -5 2.5 -2.5
      vertex -3.07641 2.5 -1.35235
      vertex -3.16124 2.5 -1.54838
    endloop
  endfacet
  facet normal 0 1 0
    outer loop
      vertex -5 2.5 -2.5
      vertex -3.16124 2.5 -1.54838
      vertex -3.23359 2.5 -1.74934
    endloop
  endfacet
  facet normal 0 1 0
    outer loop
      vertex -5 2.5 -2.5
      vertex -3.23359 2.5 -1.74934
      vertex -3.29318 2.5 -1.95445
    endloop
  endfacet
  facet normal 0 1 0
    outer loop
      vertex -5 2.5 -2.5
      vertex -3.29318 2.5 -1.95445
      vertex -3.33978 2.5 -2.1629
    endloop
  endfacet
  facet normal 0 1 0
    outer loop
      vertex -5 2.5 -2.5
      vertex -3.33978 2.5 -2.1629
      vertex -3.37319 2.5 -2.37387
    endloop
  endfacet
  facet normal 0 1 0
    outer loop
      vertex -5 2.5 -2.5
      vertex -3.37319 2.5 -2.37387
      vertex -3.38511 2.5 -2.5
    endloop
  endfacet
  facet normal 0 1 0
    outer loop
      vertex -2.97944 2.5 -1.16204
      vertex -5 2.5 -2.5
      vertex -5 2.5 2.5
    endloop
  endfacet
  facet normal 0 0 -1
    outer loop
      vertex -5 -2.5 -2.5
      vertex -3.38511 2.5 -2.5
      vertex -3.38511 -2.5 -2.5
    endloop
  endfacet
  facet normal -0 0 -1
    outer loop
      vertex -3.38511 2.5 -2.5
      vertex -5 -2.5 -2.5
      vertex -5 2.5 -2.5
    endloop
  endfacet
  facet normal 0 0 -1
    outer loop
      vertex 3.38511 -2.5 -2.5
      vertex 5 2.5 -2.5
      vertex 5 -2.5 -2.5
    endloop
  endfacet
  facet normal -0 0 -1
    outer loop
      vertex 5 2.5 -2.5
      vertex 3.38511 -2.5 -2.5
      vertex 3.38511 2.5 -2.5
    endloop
  endfacet
  facet normal 0 -1 0
    outer loop
      vertex -5 -2.5 2.5
      vertex 0 -2.5 0.599999
      vertex 5 -2.5 2.5
    endloop
  endfacet
  facet normal 0 -1 0
    outer loop
      vertex -5 -2.5 2.5
      vertex -0.213488 -2.5 0.59329
      vertex 0 -2.5 0.599999
    endloop
  endfacet
  facet normal 0 -1 0
    outer loop
      vertex -5 -2.5 2.5
      vertex -0.426132 -2.5 0.57319
      vertex -0.213488 -2.5 0.59329
    endloop
  endfacet
  facet normal 0 -1 0
    outer loop
      vertex -5 -2.5 2.5
      vertex -0.637096 -2.5 0.539776
      vertex -0.426132 -2.5 0.57319
    endloop
  endfacet
  facet normal 0 -1 0
    outer loop
      vertex -5 -2.5 2.5
      vertex -0.845545 -2.5 0.493182
      vertex -0.637096 -2.5 0.539776
    endloop
  endfacet
  facet normal 0 -1 0
    outer loop
      vertex -5 -2.5 2.5
      vertex -1.05066 -2.5 0.433592
      vertex -0.845545 -2.5 0.493182
    endloop
  endfacet
  facet normal 0 -1 0
    outer loop
      vertex -5 -2.5 2.5
      vertex -1.25162 -2.5 0.361239
      vertex -1.05066 -2.5 0.433592
    endloop
  endfacet
  facet normal 0 -1 0
    outer loop
      vertex -5 -2.5 2.5
      vertex -1.44765 -2.5 0.276411
      vertex -1.25162 -2.5 0.361239
    endloop
  endfacet
  facet normal 0 -1 0
    outer loop
      vertex -5 -2.5 2.5
      vertex -1.63796 -2.5 0.179442
      vertex -1.44765 -2.5 0.276411
    endloop
  endfacet
  facet normal 0 -1 0
    outer loop
      vertex -5 -2.5 2.5
      vertex -1.82181 -2.5 0.070714
      vertex -1.63796 -2.5 0.179442
    endloop
  endfacet
  facet normal 0 -1 0
    outer loop
      vertex -5 -2.5 2.5
      vertex -1.99847 -2.5 -0.0493422
      vertex -1.82181 -2.5 0.070714
    endloop
  endfacet
  facet normal 0 -1 0
    outer loop
      vertex -5 -2.5 2.5
      vertex -2.16724 -2.5 -0.180255
      vertex -1.99847 -2.5 -0.0493422
    endloop
  endfacet
  facet normal 0 -1 0
    outer loop
      vertex -5 -2.5 2.5
      vertex -2.32746 -2.5 -0.321507
      vertex -2.16724 -2.5 -0.180255
    endloop
  endfacet
  facet normal 0 -1 0
    outer loop
      vertex -5 -2.5 2.5
      vertex -2.47849 -2.5 -0.472539
      vertex -2.32746 -2.5 -0.321507
    endloop
  endfacet
  facet normal 0 -1 0
    outer loop
      vertex -5 -2.5 2.5
      vertex -2.61974 -2.5 -0.632758
      vertex -2.47849 -2.5 -0.472539
    endloop
  endfacet
  facet normal 0 -1 0
    outer loop
      vertex -5 -2.5 2.5
      vertex -2.75066 -2.5 -0.80153
      vertex -2.61974 -2.5 -0.632758
    endloop
  endfacet
  facet normal 0 -1 0
    outer loop
      vertex -5 -2.5 2.5
      vertex -2.87071 -2.5 -0.978189
      vertex -2.75066 -2.5 -0.80153
    endloop
  endfacet
  facet normal 0 -1 0
    outer loop
      vertex -5 -2.5 2.5
      vertex -2.97944 -2.5 -1.16204
      vertex -2.87071 -2.5 -0.978189
    endloop
  endfacet
  facet normal 0 -1 0
    outer loop
      vertex -5 -2.5 -2.5
      vertex -2.97944 -2.5 -1.16204
      vertex -5 -2.5 2.5
    endloop
  endfacet
  facet normal 0 -1 0
    outer loop
      vertex -2.97944 -2.5 -1.16204
      vertex -5 -2.5 -2.5
      vertex -3.07641 -2.5 -1.35235
    endloop
  endfacet
  facet normal 0 -1 0
    outer loop
      vertex -3.07641 -2.5 -1.35235
      vertex -5 -2.5 -2.5
      vertex -3.16124 -2.5 -1.54838
    endloop
  endfacet
  facet normal 0 -1 0
    outer loop
      vertex -3.16124 -2.5 -1.54838
      vertex -5 -2.5 -2.5
      vertex -3.23359 -2.5 -1.74934
    endloop
  endfacet
  facet normal 0 -1 0
    outer loop
      vertex -3.23359 -2.5 -1.74934
      vertex -5 -2.5 -2.5
      vertex -3.29318 -2.5 -1.95445
    endloop
  endfacet
  facet normal 0 -1 0
    outer loop
      vertex -3.29318 -2.5 -1.95445
      vertex -5 -2.5 -2.5
      vertex -3.33978 -2.5 -2.1629
    endloop
  endfacet
  facet normal 0 -1 0
    outer loop
      vertex -3.33978 -2.5 -2.1629
      vertex -5 -2.5 -2.5
      vertex -3.37319 -2.5 -2.37387
    endloop
  endfacet
  facet normal 0 -1 0
    outer loop
      vertex -3.37319 -2.5 -2.37387
      vertex -5 -2.5 -2.5
      vertex -3.38511 -2.5 -2.5
    endloop
  endfacet
  facet normal 0 -1 0
    outer loop
      vertex 0.213488 -2.5 0.59329
      vertex 5 -2.5 2.5
      vertex 0 -2.5 0.599999
    endloop
  endfacet
  facet normal 0 -1 0
    outer loop
      vertex 0.426132 -2.5 0.57319
      vertex 5 -2.5 2.5
      vertex 0.213488 -2.5 0.59329
    endloop
  endfacet
  facet normal 0 -1 0
    outer loop
      vertex 0.637096 -2.5 0.539776
      vertex 5 -2.5 2.5
      vertex 0.426132 -2.5 0.57319
    endloop
  endfacet
  facet normal 0 -1 0
    outer loop
      vertex 0.845545 -2.5 0.493182
      vertex 5 -2.5 2.5
      vertex 0.637096 -2.5 0.539776
    endloop
  endfacet
  facet normal 0 -1 0
    outer loop
      vertex 1.05066 -2.5 0.433592
      vertex 5 -2.5 2.5
      vertex 0.845545 -2.5 0.493182
    endloop
  endfacet
  facet normal 0 -1 0
    outer loop
      vertex 1.25162 -2.5 0.361239
      vertex 5 -2.5 2.5
      vertex 1.05066 -2.5 0.433592
    endloop
  endfacet
  facet normal 0 -1 0
    outer loop
      vertex 1.44765 -2.5 0.276411
      vertex 5 -2.5 2.5
      vertex 1.25162 -2.5 0.361239
    endloop
  endfacet
  facet normal 0 -1 0
    outer loop
      vertex 1.63796 -2.5 0.179442
      vertex 5 -2.5 2.5
      vertex 1.44765 -2.5 0.276411
    endloop
  endfacet
  facet normal 0 -1 0
    outer loop
      vertex 1.82181 -2.5 0.070714
      vertex 5 -2.5 2.5
      vertex 1.63796 -2.5 0.179442
    endloop
  endfacet
  facet normal 0 -1 0
    outer loop
      vertex 1.99847 -2.5 -0.0493422
      vertex 5 -2.5 2.5
      vertex 1.82181 -2.5 0.070714
    endloop
  endfacet
  facet normal 0 -1 0
    outer loop
      vertex 2.16724 -2.5 -0.180255
      vertex 5 -2.5 2.5
      vertex 1.99847 -2.5 -0.0493422
    endloop
  endfacet
  facet normal 0 -1 0
    outer loop
      vertex 2.32746 -2.5 -0.321507
      vertex 5 -2.5 2.5
      vertex 2.16724 -2.5 -0.180255
    endloop
  endfacet
  facet normal 0 -1 0
    outer loop
      vertex 2.47849 -2.5 -0.472539
      vertex 5 -2.5 2.5
      vertex 2.32746 -2.5 -0.321507
    endloop
  endfacet
  facet normal 0 -1 0
    outer loop
      vertex 2.61974 -2.5 -0.632758
      vertex 5 -2.5 2.5
      vertex 2.47849 -2.5 -0.472539
    endloop
  endfacet
  facet normal 0 -1 0
    outer loop
      vertex 2.75066 -2.5 -0.80153
      vertex 5 -2.5 2.5
      vertex 2.61974 -2.5 -0.632758
    endloop
  endfacet
  facet normal 0 -1 0
    outer loop
      vertex 2.87071 -2.5 -0.978189
      vertex 5 -2.5 2.5
      vertex 2.75066 -2.5 -0.80153
    endloop
  endfacet
  facet normal 0 -1 0
    outer loop
      vertex 2.97944 -2.5 -1.16204
      vertex 5 -2.5 2.5
      vertex 2.87071 -2.5 -0.978189
    endloop
  endfacet
  facet normal 0 -1 0
    outer loop
      vertex 5 -2.5 -2.5
      vertex 2.97944 -2.5 -1.16204
      vertex 3.07641 -2.5 -1.35235
    endloop
  endfacet
  facet normal 0 -1 0
    outer loop
      vertex 5 -2.5 -2.5
      vertex 3.07641 -2.5 -1.35235
      vertex 3.16124 -2.5 -1.54838
    endloop
  endfacet
  facet normal 0 -1 0
    outer loop
      vertex 5 -2.5 -2.5
      vertex 3.16124 -2.5 -1.54838
      vertex 3.23359 -2.5 -1.74934
    endloop
  endfacet
  facet normal 0 -1 0
    outer loop
      vertex 5 -2.5 -2.5
      vertex 3.23359 -2.5 -1.74934
      vertex 3.29318 -2.5 -1.95445
    endloop
  endfacet
  facet normal 0 -1 0
    outer loop
      vertex 5 -2.5 -2.5
      vertex 3.29318 -2.5 -1.95445
      vertex 3.33978 -2.5 -2.1629
    endloop
  endfacet
  facet normal 0 -1 0
    outer loop
      vertex 5 -2.5 -2.5
      vertex 3.33978 -2.5 -2.1629
      vertex 3.37319 -2.5 -2.37387
    endloop
  endfacet
  facet normal 0 -1 0
    outer loop
      vertex 5 -2.5 -2.5
      vertex 3.37319 -2.5 -2.37387
      vertex 3.38511 -2.5 -2.5
    endloop
  endfacet
  facet normal 0 -1 0
    outer loop
      vertex 2.97944 -2.5 -1.16204
      vertex 5 -2.5 -2.5
      vertex 5 -2.5 2.5
    endloop
  endfacet
  facet normal -0.995564 0 -0.0940864
    outer loop
      vertex 3.38511 -2.5 -2.5
      vertex 3.37319 2.5 -2.37387
      vertex 3.38511 2.5 -2.5
    endloop
  endfacet
  facet normal -0.995564 -0 -0.0940864
    outer loop
      vertex 3.37319 2.5 -2.37387
      vertex 3.38511 -2.5 -2.5
      vertex 3.37319 -2.5 -2.37387
    endloop
  endfacet
  facet normal 0.0314101 0 -0.999507
    outer loop
      vertex -0.213488 -2.5 0.59329
      vertex 0 2.5 0.599999
      vertex 0 -2.5 0.599999
    endloop
  endfacet
  facet normal 0.0314101 0 -0.999507
    outer loop
      vertex 0 2.5 0.599999
      vertex -0.213488 -2.5 0.59329
      vertex -0.213488 2.5 0.59329
    endloop
  endfacet
  facet normal -0.661309 0 -0.750113
    outer loop
      vertex 2.16724 -2.5 -0.180255
      vertex 2.32746 2.5 -0.321507
      vertex 2.32746 -2.5 -0.321507
    endloop
  endfacet
  facet normal -0.661309 0 -0.750113
    outer loop
      vertex 2.32746 2.5 -0.321507
      vertex 2.16724 -2.5 -0.180255
      vertex 2.16724 2.5 -0.180255
    endloop
  endfacet
  facet normal 0.707111 0 -0.707102
    outer loop
      vertex -2.47849 -2.5 -0.472539
      vertex -2.32746 2.5 -0.321507
      vertex -2.32746 -2.5 -0.321507
    endloop
  endfacet
  facet normal 0.707111 0 -0.707102
    outer loop
      vertex -2.32746 2.5 -0.321507
      vertex -2.47849 -2.5 -0.472539
      vertex -2.47849 2.5 -0.472539
    endloop
  endfacet
  facet normal -0.891002 0 -0.453999
    outer loop
      vertex 3.07641 -2.5 -1.35235
      vertex 2.97944 2.5 -1.16204
      vertex 3.07641 2.5 -1.35235
    endloop
  endfacet
  facet normal -0.891002 -0 -0.453999
    outer loop
      vertex 2.97944 2.5 -1.16204
      vertex 3.07641 -2.5 -1.35235
      vertex 2.97944 -2.5 -1.16204
    endloop
  endfacet
  facet normal -0.33875 0 -0.940876
    outer loop
      vertex 1.05066 -2.5 0.433592
      vertex 1.25162 2.5 0.361239
      vertex 1.25162 -2.5 0.361239
    endloop
  endfacet
  facet normal -0.33875 0 -0.940876
    outer loop
      vertex 1.25162 2.5 0.361239
      vertex 1.05066 -2.5 0.433592
      vertex 1.05066 2.5 0.433592
    endloop
  endfacet
  facet normal 0.827097 0 -0.56206
    outer loop
      vertex -2.75066 -2.5 -0.80153
      vertex -2.87071 2.5 -0.978189
      vertex -2.75066 2.5 -0.80153
    endloop
  endfacet
  facet normal 0.827097 0 -0.56206
    outer loop
      vertex -2.87071 2.5 -0.978189
      vertex -2.75066 -2.5 -0.80153
      vertex -2.87071 -2.5 -0.978189
    endloop
  endfacet
  facet normal -0.790139 0 -0.612928
    outer loop
      vertex 2.75066 -2.5 -0.80153
      vertex 2.61974 2.5 -0.632758
      vertex 2.75066 2.5 -0.80153
    endloop
  endfacet
  facet normal -0.790139 -0 -0.612928
    outer loop
      vertex 2.61974 2.5 -0.632758
      vertex 2.75066 -2.5 -0.80153
      vertex 2.61974 -2.5 -0.632758
    endloop
  endfacet
  facet normal -0.156437 0 -0.987688
    outer loop
      vertex 0.426132 -2.5 0.57319
      vertex 0.637096 2.5 0.539776
      vertex 0.637096 -2.5 0.539776
    endloop
  endfacet
  facet normal -0.156437 0 -0.987688
    outer loop
      vertex 0.637096 2.5 0.539776
      vertex 0.426132 -2.5 0.57319
      vertex 0.426132 2.5 0.57319
    endloop
  endfacet
  facet normal -0.0941047 0 -0.995562
    outer loop
      vertex 0.213488 -2.5 0.59329
      vertex 0.426132 2.5 0.57319
      vertex 0.426132 -2.5 0.57319
    endloop
  endfacet
  facet normal -0.0941047 0 -0.995562
    outer loop
      vertex 0.426132 2.5 0.57319
      vertex 0.213488 -2.5 0.59329
      vertex 0.213488 2.5 0.59329
    endloop
  endfacet
  facet normal -0.612911 0 -0.790152
    outer loop
      vertex 1.99847 -2.5 -0.0493422
      vertex 2.16724 2.5 -0.180255
      vertex 2.16724 -2.5 -0.180255
    endloop
  endfacet
  facet normal -0.612911 0 -0.790152
    outer loop
      vertex 2.16724 2.5 -0.180255
      vertex 1.99847 -2.5 -0.0493422
      vertex 1.99847 2.5 -0.0493422
    endloop
  endfacet
  facet normal 0.86074 0 -0.509044
    outer loop
      vertex -2.87071 -2.5 -0.978189
      vertex -2.97944 2.5 -1.16204
      vertex -2.87071 2.5 -0.978189
    endloop
  endfacet
  facet normal 0.86074 0 -0.509044
    outer loop
      vertex -2.97944 2.5 -1.16204
      vertex -2.87071 -2.5 -0.978189
      vertex -2.97944 -2.5 -1.16204
    endloop
  endfacet
  facet normal 0.975911 0 -0.21817
    outer loop
      vertex -3.29318 -2.5 -1.95445
      vertex -3.33978 2.5 -2.1629
      vertex -3.29318 2.5 -1.95445
    endloop
  endfacet
  facet normal 0.975911 0 -0.21817
    outer loop
      vertex -3.33978 2.5 -2.1629
      vertex -3.29318 -2.5 -1.95445
      vertex -3.33978 -2.5 -2.1629
    endloop
  endfacet
  facet normal 0.562078 0 -0.827085
    outer loop
      vertex -1.99847 -2.5 -0.0493422
      vertex -1.82181 2.5 0.070714
      vertex -1.82181 -2.5 0.070714
    endloop
  endfacet
  facet normal 0.562078 0 -0.827085
    outer loop
      vertex -1.82181 2.5 0.070714
      vertex -1.99847 -2.5 -0.0493422
      vertex -1.99847 2.5 -0.0493422
    endloop
  endfacet
  facet normal 0.0941047 0 -0.995562
    outer loop
      vertex -0.426132 -2.5 0.57319
      vertex -0.213488 2.5 0.59329
      vertex -0.213488 -2.5 0.59329
    endloop
  endfacet
  facet normal 0.0941047 0 -0.995562
    outer loop
      vertex -0.213488 2.5 0.59329
      vertex -0.426132 -2.5 0.57319
      vertex -0.426132 2.5 0.57319
    endloop
  endfacet
  facet normal -0.987691 0 -0.156415
    outer loop
      vertex 3.37319 -2.5 -2.37387
      vertex 3.33978 2.5 -2.1629
      vertex 3.37319 2.5 -2.37387
    endloop
  endfacet
  facet normal -0.987691 -0 -0.156415
    outer loop
      vertex 3.33978 2.5 -2.1629
      vertex 3.37319 -2.5 -2.37387
      vertex 3.33978 -2.5 -2.1629
    endloop
  endfacet
  facet normal -0.960294 0 -0.278991
    outer loop
      vertex 3.29318 -2.5 -1.95445
      vertex 3.23359 2.5 -1.74934
      vertex 3.29318 2.5 -1.95445
    endloop
  endfacet
  facet normal -0.960294 -0 -0.278991
    outer loop
      vertex 3.23359 2.5 -1.74934
      vertex 3.29318 -2.5 -1.95445
      vertex 3.23359 -2.5 -1.74934
    endloop
  endfacet
  facet normal -0.975911 0 -0.21817
    outer loop
      vertex 3.33978 -2.5 -2.1629
      vertex 3.29318 2.5 -1.95445
      vertex 3.33978 2.5 -2.1629
    endloop
  endfacet
  facet normal -0.975911 -0 -0.21817
    outer loop
      vertex 3.29318 2.5 -1.95445
      vertex 3.33978 -2.5 -2.1629
      vertex 3.29318 -2.5 -1.95445
    endloop
  endfacet
  facet normal -0.940881 0 -0.338738
    outer loop
      vertex 3.23359 -2.5 -1.74934
      vertex 3.16124 2.5 -1.54838
      vertex 3.23359 2.5 -1.74934
    endloop
  endfacet
  facet normal -0.940881 -0 -0.338738
    outer loop
      vertex 3.16124 2.5 -1.54838
      vertex 3.23359 -2.5 -1.74934
      vertex 3.16124 -2.5 -1.54838
    endloop
  endfacet
  facet normal -0.750116 0 -0.661306
    outer loop
      vertex 2.61974 -2.5 -0.632758
      vertex 2.47849 2.5 -0.472539
      vertex 2.61974 2.5 -0.632758
    endloop
  endfacet
  facet normal -0.750116 -0 -0.661306
    outer loop
      vertex 2.47849 2.5 -0.472539
      vertex 2.61974 -2.5 -0.632758
      vertex 2.47849 -2.5 -0.472539
    endloop
  endfacet
  facet normal -0.278985 0 -0.960295
    outer loop
      vertex 0.845545 -2.5 0.493182
      vertex 1.05066 2.5 0.433592
      vertex 1.05066 -2.5 0.433592
    endloop
  endfacet
  facet normal -0.278985 0 -0.960295
    outer loop
      vertex 1.05066 2.5 0.433592
      vertex 0.845545 -2.5 0.493182
      vertex 0.845545 2.5 0.493182
    endloop
  endfacet
  facet normal -0.0314101 0 -0.999507
    outer loop
      vertex 0 -2.5 0.599999
      vertex 0.213488 2.5 0.59329
      vertex 0.213488 -2.5 0.59329
    endloop
  endfacet
  facet normal -0.0314101 0 -0.999507
    outer loop
      vertex 0.213488 2.5 0.59329
      vertex 0 -2.5 0.599999
      vertex 0 2.5 0.599999
    endloop
  endfacet
  facet normal -0.453995 0 -0.891004
    outer loop
      vertex 1.44765 -2.5 0.276411
      vertex 1.63796 2.5 0.179442
      vertex 1.63796 -2.5 0.179442
    endloop
  endfacet
  facet normal -0.453995 0 -0.891004
    outer loop
      vertex 1.63796 2.5 0.179442
      vertex 1.44765 -2.5 0.276411
      vertex 1.44765 2.5 0.276411
    endloop
  endfacet
  facet normal -0.397141 0 -0.917758
    outer loop
      vertex 1.25162 -2.5 0.361239
      vertex 1.44765 2.5 0.276411
      vertex 1.44765 -2.5 0.276411
    endloop
  endfacet
  facet normal -0.397141 0 -0.917758
    outer loop
      vertex 1.44765 2.5 0.276411
      vertex 1.25162 -2.5 0.361239
      vertex 1.25162 2.5 0.361239
    endloop
  endfacet
  facet normal -0.509039 0 -0.860743
    outer loop
      vertex 1.63796 -2.5 0.179442
      vertex 1.82181 2.5 0.070714
      vertex 1.82181 -2.5 0.070714
    endloop
  endfacet
  facet normal -0.509039 0 -0.860743
    outer loop
      vertex 1.82181 2.5 0.070714
      vertex 1.63796 -2.5 0.179442
      vertex 1.63796 2.5 0.179442
    endloop
  endfacet
  facet normal 0.987691 0 -0.156415
    outer loop
      vertex -3.33978 -2.5 -2.1629
      vertex -3.37319 2.5 -2.37387
      vertex -3.33978 2.5 -2.1629
    endloop
  endfacet
  facet normal 0.987691 0 -0.156415
    outer loop
      vertex -3.37319 2.5 -2.37387
      vertex -3.33978 -2.5 -2.1629
      vertex -3.37319 -2.5 -2.37387
    endloop
  endfacet
  facet normal 0.790139 0 -0.612928
    outer loop
      vertex -2.61974 -2.5 -0.632758
      vertex -2.75066 2.5 -0.80153
      vertex -2.61974 2.5 -0.632758
    endloop
  endfacet
  facet normal 0.790139 0 -0.612928
    outer loop
      vertex -2.75066 2.5 -0.80153
      vertex -2.61974 -2.5 -0.632758
      vertex -2.75066 -2.5 -0.80153
    endloop
  endfacet
  facet normal 0.917754 0 -0.397149
    outer loop
      vertex -3.07641 -2.5 -1.35235
      vertex -3.16124 2.5 -1.54838
      vertex -3.07641 2.5 -1.35235
    endloop
  endfacet
  facet normal 0.917754 0 -0.397149
    outer loop
      vertex -3.16124 2.5 -1.54838
      vertex -3.07641 -2.5 -1.35235
      vertex -3.16124 -2.5 -1.54838
    endloop
  endfacet
  facet normal 0.940881 0 -0.338738
    outer loop
      vertex -3.16124 -2.5 -1.54838
      vertex -3.23359 2.5 -1.74934
      vertex -3.16124 2.5 -1.54838
    endloop
  endfacet
  facet normal 0.940881 0 -0.338738
    outer loop
      vertex -3.23359 2.5 -1.74934
      vertex -3.16124 -2.5 -1.54838
      vertex -3.23359 -2.5 -1.74934
    endloop
  endfacet
  facet normal 0.612911 0 -0.790152
    outer loop
      vertex -2.16724 -2.5 -0.180255
      vertex -1.99847 2.5 -0.0493422
      vertex -1.99847 -2.5 -0.0493422
    endloop
  endfacet
  facet normal 0.612911 0 -0.790152
    outer loop
      vertex -1.99847 2.5 -0.0493422
      vertex -2.16724 -2.5 -0.180255
      vertex -2.16724 2.5 -0.180255
    endloop
  endfacet
  facet normal 0.453995 0 -0.891004
    outer loop
      vertex -1.63796 -2.5 0.179442
      vertex -1.44765 2.5 0.276411
      vertex -1.44765 -2.5 0.276411
    endloop
  endfacet
  facet normal 0.453995 0 -0.891004
    outer loop
      vertex -1.44765 2.5 0.276411
      vertex -1.63796 -2.5 0.179442
      vertex -1.63796 2.5 0.179442
    endloop
  endfacet
  facet normal 0.397141 0 -0.917758
    outer loop
      vertex -1.44765 -2.5 0.276411
      vertex -1.25162 2.5 0.361239
      vertex -1.25162 -2.5 0.361239
    endloop
  endfacet
  facet normal 0.397141 0 -0.917758
    outer loop
      vertex -1.25162 2.5 0.361239
      vertex -1.44765 -2.5 0.276411
      vertex -1.44765 2.5 0.276411
    endloop
  endfacet
  facet normal 0.278985 0 -0.960295
    outer loop
      vertex -1.05066 -2.5 0.433592
      vertex -0.845545 2.5 0.493182
      vertex -0.845545 -2.5 0.493182
    endloop
  endfacet
  facet normal 0.278985 0 -0.960295
    outer loop
      vertex -0.845545 2.5 0.493182
      vertex -1.05066 -2.5 0.433592
      vertex -1.05066 2.5 0.433592
    endloop
  endfacet
  facet normal 0.218144 0 -0.975917
    outer loop
      vertex -0.845545 -2.5 0.493182
      vertex -0.637096 2.5 0.539776
      vertex -0.637096 -2.5 0.539776
    endloop
  endfacet
  facet normal 0.218144 0 -0.975917
    outer loop
      vertex -0.637096 2.5 0.539776
      vertex -0.845545 -2.5 0.493182
      vertex -0.845545 2.5 0.493182
    endloop
  endfacet
  facet normal -0.917754 0 -0.397149
    outer loop
      vertex 3.16124 -2.5 -1.54838
      vertex 3.07641 2.5 -1.35235
      vertex 3.16124 2.5 -1.54838
    endloop
  endfacet
  facet normal -0.917754 -0 -0.397149
    outer loop
      vertex 3.07641 2.5 -1.35235
      vertex 3.16124 -2.5 -1.54838
      vertex 3.07641 -2.5 -1.35235
    endloop
  endfacet
  facet normal -0.707111 0 -0.707102
    outer loop
      vertex 2.32746 -2.5 -0.321507
      vertex 2.47849 2.5 -0.472539
      vertex 2.47849 -2.5 -0.472539
    endloop
  endfacet
  facet normal -0.707111 0 -0.707102
    outer loop
      vertex 2.47849 2.5 -0.472539
      vertex 2.32746 -2.5 -0.321507
      vertex 2.32746 2.5 -0.321507
    endloop
  endfacet
  facet normal -0.86074 0 -0.509044
    outer loop
      vertex 2.97944 -2.5 -1.16204
      vertex 2.87071 2.5 -0.978189
      vertex 2.97944 2.5 -1.16204
    endloop
  endfacet
  facet normal -0.86074 -0 -0.509044
    outer loop
      vertex 2.87071 2.5 -0.978189
      vertex 2.97944 -2.5 -1.16204
      vertex 2.87071 -2.5 -0.978189
    endloop
  endfacet
  facet normal -0.827097 0 -0.56206
    outer loop
      vertex 2.87071 -2.5 -0.978189
      vertex 2.75066 2.5 -0.80153
      vertex 2.87071 2.5 -0.978189
    endloop
  endfacet
  facet normal -0.827097 -0 -0.56206
    outer loop
      vertex 2.75066 2.5 -0.80153
      vertex 2.87071 -2.5 -0.978189
      vertex 2.75066 -2.5 -0.80153
    endloop
  endfacet
  facet normal -0.218144 0 -0.975917
    outer loop
      vertex 0.637096 -2.5 0.539776
      vertex 0.845545 2.5 0.493182
      vertex 0.845545 -2.5 0.493182
    endloop
  endfacet
  facet normal -0.218144 0 -0.975917
    outer loop
      vertex 0.845545 2.5 0.493182
      vertex 0.637096 -2.5 0.539776
      vertex 0.637096 2.5 0.539776
    endloop
  endfacet
  facet normal -0.562078 0 -0.827085
    outer loop
      vertex 1.82181 -2.5 0.070714
      vertex 1.99847 2.5 -0.0493422
      vertex 1.99847 -2.5 -0.0493422
    endloop
  endfacet
  facet normal -0.562078 0 -0.827085
    outer loop
      vertex 1.99847 2.5 -0.0493422
      vertex 1.82181 -2.5 0.070714
      vertex 1.82181 2.5 0.070714
    endloop
  endfacet
  facet normal 0.750116 0 -0.661306
    outer loop
      vertex -2.47849 -2.5 -0.472539
      vertex -2.61974 2.5 -0.632758
      vertex -2.47849 2.5 -0.472539
    endloop
  endfacet
  facet normal 0.750116 0 -0.661306
    outer loop
      vertex -2.61974 2.5 -0.632758
      vertex -2.47849 -2.5 -0.472539
      vertex -2.61974 -2.5 -0.632758
    endloop
  endfacet
  facet normal 0.891002 0 -0.453999
    outer loop
      vertex -2.97944 -2.5 -1.16204
      vertex -3.07641 2.5 -1.35235
      vertex -2.97944 2.5 -1.16204
    endloop
  endfacet
  facet normal 0.891002 0 -0.453999
    outer loop
      vertex -3.07641 2.5 -1.35235
      vertex -2.97944 -2.5 -1.16204
      vertex -3.07641 -2.5 -1.35235
    endloop
  endfacet
  facet normal 0.960294 0 -0.278991
    outer loop
      vertex -3.23359 -2.5 -1.74934
      vertex -3.29318 2.5 -1.95445
      vertex -3.23359 2.5 -1.74934
    endloop
  endfacet
  facet normal 0.960294 0 -0.278991
    outer loop
      vertex -3.29318 2.5 -1.95445
      vertex -3.23359 -2.5 -1.74934
      vertex -3.29318 -2.5 -1.95445
    endloop
  endfacet
  facet normal 0.995564 0 -0.0940864
    outer loop
      vertex -3.37319 -2.5 -2.37387
      vertex -3.38511 2.5 -2.5
      vertex -3.37319 2.5 -2.37387
    endloop
  endfacet
  facet normal 0.995564 0 -0.0940864
    outer loop
      vertex -3.38511 2.5 -2.5
      vertex -3.37319 -2.5 -2.37387
      vertex -3.38511 -2.5 -2.5
    endloop
  endfacet
  facet normal 0.661309 0 -0.750113
    outer loop
      vertex -2.32746 -2.5 -0.321507
      vertex -2.16724 2.5 -0.180255
      vertex -2.16724 -2.5 -0.180255
    endloop
  endfacet
  facet normal 0.661309 0 -0.750113
    outer loop
      vertex -2.16724 2.5 -0.180255
      vertex -2.32746 -2.5 -0.321507
      vertex -2.32746 2.5 -0.321507
    endloop
  endfacet
  facet normal 0.509039 0 -0.860743
    outer loop
      vertex -1.82181 -2.5 0.070714
      vertex -1.63796 2.5 0.179442
      vertex -1.63796 -2.5 0.179442
    endloop
  endfacet
  facet normal 0.509039 0 -0.860743
    outer loop
      vertex -1.63796 2.5 0.179442
      vertex -1.82181 -2.5 0.070714
      vertex -1.82181 2.5 0.070714
    endloop
  endfacet
  facet normal 0.33875 0 -0.940876
    outer loop
      vertex -1.25162 -2.5 0.361239
      vertex -1.05066 2.5 0.433592
      vertex -1.05066 -2.5 0.433592
    endloop
  endfacet
  facet normal 0.33875 0 -0.940876
    outer loop
      vertex -1.05066 2.5 0.433592
      vertex -1.25162 -2.5 0.361239
      vertex -1.25162 2.5 0.361239
    endloop
  endfacet
  facet normal 0.156437 0 -0.987688
    outer loop
      vertex -0.637096 -2.5 0.539776
      vertex -0.426132 2.5 0.57319
      vertex -0.426132 -2.5 0.57319
    endloop
  endfacet
  facet normal 0.156437 0 -0.987688
    outer loop
      vertex -0.426132 2.5 0.57319
      vertex -0.637096 -2.5 0.539776
      vertex -0.637096 2.5 0.539776
    endloop
  endfacet
endsolid OpenSCAD_Model
