solid OpenSCAD_Model
  facet normal -1 0 0
    outer loop
      vertex -5 -2.5 -2.5
      vertex -5 2.5 2.5
      vertex -5 2.5 -2.5
    endloop
  endfacet
  facet normal -1 -0 0
    outer loop
      vertex -5 2.5 2.5
      vertex -5 -2.5 -2.5
      vertex -5 -2.5 2.5
    endloop
  endfacet
  facet normal -0 0 1
    outer loop
      vertex -5 2.5 2.5
      vertex 5 -2.5 2.5
      vertex 5 2.5 2.5
    endloop
  endfacet
  facet normal 0 0 1
    outer loop
      vertex 5 -2.5 2.5
      vertex -5 2.5 2.5
      vertex -5 -2.5 2.5
    endloop
  endfacet
  facet normal 1 -0 0
    outer loop
      vertex 5 -2.5 2.5
      vertex 5 2.5 -2.5
      vertex 5 2.5 2.5
    endloop
  endfacet
  facet normal 1 0 0
    outer loop
      vertex 5 2.5 -2.5
      vertex 5 -2.5 2.5
      vertex 5 -2.5 -2.5
    endloop
  endfacet
  facet normal 0 0 -1
    outer loop
      vertex -5 -2.5 -2.5
      vertex -3.2 2.5 -2.5
      vertex -3.2 -2.5 -2.5
    endloop
  endfacet
  facet normal -0 0 -1
    outer loop
      vertex -3.2 2.5 -2.5
      vertex -5 -2.5 -2.5
      vertex -5 2.5 -2.5
    endloop
  endfacet
  facet normal 0 0 -1
    outer loop
      vertex 3.2 -2.5 -2.5
      vertex 5 2.5 -2.5
      vertex 5 -2.5 -2.5
    endloop
  endfacet
  facet normal -0 0 -1
    outer loop
      vertex 5 2.5 -2.5
      vertex 3.2 -2.5 -2.5
      vertex 3.2 2.5 -2.5
    endloop
  endfacet
  facet normal 0 -1 0
    outer loop
      vertex -5 -2.5 2.5
      vertex 0 -2.5 0.7
      vertex 5 -2.5 2.5
    endloop
  endfacet
  facet normal 0 -1 0
    outer loop
      vertex -5 -2.5 2.5
      vertex -0.20093 -2.5 0.693685
      vertex 0 -2.5 0.7
    endloop
  endfacet
  facet normal 0 -1 0
    outer loop
      vertex -5 -2.5 2.5
      vertex -0.401066 -2.5 0.674767
      vertex -0.20093 -2.5 0.693685
    endloop
  endfacet
  facet normal 0 -1 0
    outer loop
      vertex -5 -2.5 2.5
      vertex -0.59962 -2.5 0.643319
      vertex -0.401066 -2.5 0.674767
    endloop
  endfacet
  facet normal 0 -1 0
    outer loop
      vertex -5 -2.5 2.5
      vertex -0.795807 -2.5 0.599465
      vertex -0.59962 -2.5 0.643319
    endloop
  endfacet
  facet normal 0 -1 0
    outer loop
      vertex -5 -2.5 2.5
      vertex -0.988853 -2.5 0.543381
      vertex -0.795807 -2.5 0.599465
    endloop
  endfacet
  facet normal 0 -1 0
    outer loop
      vertex -5 -2.5 2.5
      vertex -1.178 -2.5 0.475285
      vertex -0.988853 -2.5 0.543381
    endloop
  endfacet
  facet normal 0 -1 0
    outer loop
      vertex -5 -2.5 2.5
      vertex -1.36249 -2.5 0.395446
      vertex -1.178 -2.5 0.475285
    endloop
  endfacet
  facet normal 0 -1 0
    outer loop
      vertex -5 -2.5 2.5
      vertex -1.54161 -2.5 0.304181
      vertex -1.36249 -2.5 0.395446
    endloop
  endfacet
  facet normal 0 -1 0
    outer loop
      vertex -5 -2.5 2.5
      vertex -1.71465 -2.5 0.201849
      vertex -1.54161 -2.5 0.304181
    endloop
  endfacet
  facet normal 0 -1 0
    outer loop
      vertex -5 -2.5 2.5
      vertex -1.88091 -2.5 0.0888538
      vertex -1.71465 -2.5 0.201849
    endloop
  endfacet
  facet normal 0 -1 0
    outer loop
      vertex -5 -2.5 2.5
      vertex -2.03976 -2.5 -0.0343571
      vertex -1.88091 -2.5 0.0888538
    endloop
  endfacet
  facet normal 0 -1 0
    outer loop
      vertex -5 -2.5 2.5
      vertex -2.19055 -2.5 -0.1673
      vertex -2.03976 -2.5 -0.0343571
    endloop
  endfacet
  facet normal 0 -1 0
    outer loop
      vertex -5 -2.5 2.5
      vertex -2.3327 -2.5 -0.309449
      vertex -2.19055 -2.5 -0.1673
    endloop
  endfacet
  facet normal 0 -1 0
    outer loop
      vertex -5 -2.5 2.5
      vertex -2.46564 -2.5 -0.460243
      vertex -2.3327 -2.5 -0.309449
    endloop
  endfacet
  facet normal 0 -1 0
    outer loop
      vertex -5 -2.5 2.5
      vertex -2.58885 -2.5 -0.619086
      vertex -2.46564 -2.5 -0.460243
    endloop
  endfacet
  facet normal 0 -1 0
    outer loop
      vertex -5 -2.5 2.5
      vertex -2.70185 -2.5 -0.785354
      vertex -2.58885 -2.5 -0.619086
    endloop
  endfacet
  facet normal 0 -1 0
    outer loop
      vertex -5 -2.5 2.5
      vertex -2.80418 -2.5 -0.958387
      vertex -2.70185 -2.5 -0.785354
    endloop
  endfacet
  facet normal 0 -1 0
    outer loop
      vertex -5 -2.5 2.5
      vertex -2.89545 -2.5 -1.13751
      vertex -2.80418 -2.5 -0.958387
    endloop
  endfacet
  facet normal 0 -1 0
    outer loop
      vertex -5 -2.5 -2.5
      vertex -2.89545 -2.5 -1.13751
      vertex -5 -2.5 2.5
    endloop
  endfacet
  facet normal 0 -1 0
    outer loop
      vertex -2.89545 -2.5 -1.13751
      vertex -5 -2.5 -2.5
      vertex -2.97528 -2.5 -1.322
    endloop
  endfacet
  facet normal 0 -1 0
    outer loop
      vertex -2.97528 -2.5 -1.322
      vertex -5 -2.5 -2.5
      vertex -3.04338 -2.5 -1.51115
    endloop
  endfacet
  facet normal 0 -1 0
    outer loop
      vertex -3.04338 -2.5 -1.51115
      vertex -5 -2.5 -2.5
      vertex -3.09947 -2.5 -1.70419
    endloop
  endfacet
  facet normal 0 -1 0
    outer loop
      vertex -3.09947 -2.5 -1.70419
      vertex -5 -2.5 -2.5
      vertex -3.14332 -2.5 -1.90038
    endloop
  endfacet
  facet normal 0 -1 0
    outer loop
      vertex -3.14332 -2.5 -1.90038
      vertex -5 -2.5 -2.5
      vertex -3.17477 -2.5 -2.09893
    endloop
  endfacet
  facet normal 0 -1 0
    outer loop
      vertex -3.17477 -2.5 -2.09893
      vertex -5 -2.5 -2.5
      vertex -3.19368 -2.5 -2.29907
    endloop
  endfacet
  facet normal 0 -1 0
    outer loop
      vertex -3.19368 -2.5 -2.29907
      vertex -5 -2.5 -2.5
      vertex -3.2 -2.5 -2.5
    endloop
  endfacet
  facet normal 0 -1 0
    outer loop
      vertex 0.20093 -2.5 0.693685
      vertex 5 -2.5 2.5
      vertex 0 -2.5 0.7
    endloop
  endfacet
  facet normal 0 -1 0
    outer loop
      vertex 0.401066 -2.5 0.674767
      vertex 5 -2.5 2.5
      vertex 0.20093 -2.5 0.693685
    endloop
  endfacet
  facet normal 0 -1 0
    outer loop
      vertex 0.59962 -2.5 0.643319
      vertex 5 -2.5 2.5
      vertex 0.401066 -2.5 0.674767
    endloop
  endfacet
  facet normal 0 -1 0
    outer loop
      vertex 0.795807 -2.5 0.599465
      vertex 5 -2.5 2.5
      vertex 0.59962 -2.5 0.643319
    endloop
  endfacet
  facet normal 0 -1 0
    outer loop
      vertex 0.988853 -2.5 0.543381
      vertex 5 -2.5 2.5
      vertex 0.795807 -2.5 0.599465
    endloop
  endfacet
  facet normal 0 -1 0
    outer loop
      vertex 1.178 -2.5 0.475285
      vertex 5 -2.5 2.5
      vertex 0.988853 -2.5 0.543381
    endloop
  endfacet
  facet normal 0 -1 0
    outer loop
      vertex 1.36249 -2.5 0.395446
      vertex 5 -2.5 2.5
      vertex 1.178 -2.5 0.475285
    endloop
  endfacet
  facet normal 0 -1 0
    outer loop
      vertex 1.54161 -2.5 0.304181
      vertex 5 -2.5 2.5
      vertex 1.36249 -2.5 0.395446
    endloop
  endfacet
  facet normal 0 -1 0
    outer loop
      vertex 1.71465 -2.5 0.201849
      vertex 5 -2.5 2.5
      vertex 1.54161 -2.5 0.304181
    endloop
  endfacet
  facet normal 0 -1 0
    outer loop
      vertex 1.88091 -2.5 0.0888538
      vertex 5 -2.5 2.5
      vertex 1.71465 -2.5 0.201849
    endloop
  endfacet
  facet normal 0 -1 0
    outer loop
      vertex 2.03976 -2.5 -0.0343571
      vertex 5 -2.5 2.5
      vertex 1.88091 -2.5 0.0888538
    endloop
  endfacet
  facet normal 0 -1 0
    outer loop
      vertex 2.19055 -2.5 -0.1673
      vertex 5 -2.5 2.5
      vertex 2.03976 -2.5 -0.0343571
    endloop
  endfacet
  facet normal 0 -1 0
    outer loop
      vertex 2.3327 -2.5 -0.309449
      vertex 5 -2.5 2.5
      vertex 2.19055 -2.5 -0.1673
    endloop
  endfacet
  facet normal 0 -1 0
    outer loop
      vertex 2.46564 -2.5 -0.460243
      vertex 5 -2.5 2.5
      vertex 2.3327 -2.5 -0.309449
    endloop
  endfacet
  facet normal 0 -1 0
    outer loop
      vertex 2.58885 -2.5 -0.619086
      vertex 5 -2.5 2.5
      vertex 2.46564 -2.5 -0.460243
    endloop
  endfacet
  facet normal 0 -1 0
    outer loop
      vertex 2.70185 -2.5 -0.785354
      vertex 5 -2.5 2.5
      vertex 2.58885 -2.5 -0.619086
    endloop
  endfacet
  facet normal 0 -1 0
    outer loop
      vertex 2.80418 -2.5 -0.958387
      vertex 5 -2.5 2.5
      vertex 2.70185 -2.5 -0.785354
    endloop
  endfacet
  facet normal 0 -1 0
    outer loop
      vertex 2.89545 -2.5 -1.13751
      vertex 5 -2.5 2.5
      vertex 2.80418 -2.5 -0.958387
    endloop
  endfacet
  facet normal 0 -1 0
    outer loop
      vertex 5 -2.5 -2.5
      vertex 2.89545 -2.5 -1.13751
      vertex 2.97528 -2.5 -1.322
    endloop
  endfacet
  facet normal 0 -1 0
    outer loop
      vertex 5 -2.5 -2.5
      vertex 2.97528 -2.5 -1.322
      vertex 3.04338 -2.5 -1.51115
    endloop
  endfacet
  facet normal 0 -1 0
    outer loop
      vertex 5 -2.5 -2.5
      vertex 3.04338 -2.5 -1.51115
      vertex 3.09947 -2.5 -1.70419
    endloop
  endfacet
  facet normal 0 -1 0
    outer loop
      vertex 5 -2.5 -2.5
      vertex 3.09947 -2.5 -1.70419
      vertex 3.14332 -2.5 -1.90038
    endloop
  endfacet
  facet normal 0 -1 0
    outer loop
      vertex 5 -2.5 -2.5
      vertex 3.14332 -2.5 -1.90038
      vertex 3.17477 -2.5 -2.09893
    endloop
  endfacet
  facet normal 0 -1 0
    outer loop
      vertex 5 -2.5 -2.5
      vertex 3.17477 -2.5 -2.09893
      vertex 3.19368 -2.5 -2.29907
    endloop
  endfacet
  facet normal 0 -1 0
    outer loop
      vertex 5 -2.5 -2.5
      vertex 3.19368 -2.5 -2.29907
      vertex 3.2 -2.5 -2.5
    endloop
  endfacet
  facet normal 0 -1 0
    outer loop
      vertex 2.89545 -2.5 -1.13751
      vertex 5 -2.5 -2.5
      vertex 5 -2.5 2.5
    endloop
  endfacet
  facet normal 0 1 0
    outer loop
      vertex 5 2.5 2.5
      vertex 0 2.5 0.7
      vertex -5 2.5 2.5
    endloop
  endfacet
  facet normal 0 1 0
    outer loop
      vertex 5 2.5 2.5
      vertex 0.20093 2.5 0.693685
      vertex 0 2.5 0.7
    endloop
  endfacet
  facet normal 0 1 0
    outer loop
      vertex 5 2.5 2.5
      vertex 0.401066 2.5 0.674767
      vertex 0.20093 2.5 0.693685
    endloop
  endfacet
  facet normal 0 1 0
    outer loop
      vertex 5 2.5 2.5
      vertex 0.59962 2.5 0.643319
      vertex 0.401066 2.5 0.674767
    endloop
  endfacet
  facet normal 0 1 0
    outer loop
      vertex 5 2.5 2.5
      vertex 0.795807 2.5 0.599465
      vertex 0.59962 2.5 0.643319
    endloop
  endfacet
  facet normal 0 1 0
    outer loop
      vertex 5 2.5 2.5
      vertex 0.988853 2.5 0.543381
      vertex 0.795807 2.5 0.599465
    endloop
  endfacet
  facet normal 0 1 0
    outer loop
      vertex 5 2.5 2.5
      vertex 1.178 2.5 0.475285
      vertex 0.988853 2.5 0.543381
    endloop
  endfacet
  facet normal 0 1 0
    outer loop
      vertex 5 2.5 2.5
      vertex 1.36249 2.5 0.395446
      vertex 1.178 2.5 0.475285
    endloop
  endfacet
  facet normal 0 1 0
    outer loop
      vertex 5 2.5 2.5
      vertex 1.54161 2.5 0.304181
      vertex 1.36249 2.5 0.395446
    endloop
  endfacet
  facet normal 0 1 0
    outer loop
      vertex 5 2.5 2.5
      vertex 1.71465 2.5 0.201849
      vertex 1.54161 2.5 0.304181
    endloop
  endfacet
  facet normal 0 1 0
    outer loop
      vertex 5 2.5 2.5
      vertex 1.88091 2.5 0.0888538
      vertex 1.71465 2.5 0.201849
    endloop
  endfacet
  facet normal 0 1 0
    outer loop
      vertex 5 2.5 2.5
      vertex 2.03976 2.5 -0.0343571
      vertex 1.88091 2.5 0.0888538
    endloop
  endfacet
  facet normal 0 1 0
    outer loop
      vertex 5 2.5 2.5
      vertex 2.19055 2.5 -0.1673
      vertex 2.03976 2.5 -0.0343571
    endloop
  endfacet
  facet normal 0 1 0
    outer loop
      vertex 5 2.5 2.5
      vertex 2.3327 2.5 -0.309449
      vertex 2.19055 2.5 -0.1673
    endloop
  endfacet
  facet normal 0 1 0
    outer loop
      vertex 5 2.5 2.5
      vertex 2.46564 2.5 -0.460243
      vertex 2.3327 2.5 -0.309449
    endloop
  endfacet
  facet normal 0 1 0
    outer loop
      vertex 5 2.5 2.5
      vertex 2.58885 2.5 -0.619086
      vertex 2.46564 2.5 -0.460243
    endloop
  endfacet
  facet normal 0 1 0
    outer loop
      vertex 5 2.5 2.5
      vertex 2.70185 2.5 -0.785354
      vertex 2.58885 2.5 -0.619086
    endloop
  endfacet
  facet normal 0 1 0
    outer loop
      vertex 5 2.5 2.5
      vertex 2.80418 2.5 -0.958387
      vertex 2.70185 2.5 -0.785354
    endloop
  endfacet
  facet normal 0 1 0
    outer loop
      vertex 5 2.5 2.5
      vertex 2.89545 2.5 -1.13751
      vertex 2.80418 2.5 -0.958387
    endloop
  endfacet
  facet normal 0 1 -0
    outer loop
      vertex 5 2.5 -2.5
      vertex 2.89545 2.5 -1.13751
      vertex 5 2.5 2.5
    endloop
  endfacet
  facet normal 0 1 0
    outer loop
      vertex 2.89545 2.5 -1.13751
      vertex 5 2.5 -2.5
      vertex 2.97528 2.5 -1.322
    endloop
  endfacet
  facet normal 0 1 0
    outer loop
      vertex 2.97528 2.5 -1.322
      vertex 5 2.5 -2.5
      vertex 3.04338 2.5 -1.51115
    endloop
  endfacet
  facet normal 0 1 0
    outer loop
      vertex 3.04338 2.5 -1.51115
      vertex 5 2.5 -2.5
      vertex 3.09947 2.5 -1.70419
    endloop
  endfacet
  facet normal 0 1 0
    outer loop
      vertex 3.09947 2.5 -1.70419
      vertex 5 2.5 -2.5
      vertex 3.14332 2.5 -1.90038
    endloop
  endfacet
  facet normal 0 1 0
    outer loop
      vertex 3.14332 2.5 -1.90038
      vertex 5 2.5 -2.5
      vertex 3.17477 2.5 -2.09893
    endloop
  endfacet
  facet normal 0 1 0
    outer loop
      vertex 3.17477 2.5 -2.09893
      vertex 5 2.5 -2.5
      vertex 3.19368 2.5 -2.29907
    endloop
  endfacet
  facet normal 0 1 0
    outer loop
      vertex 3.19368 2.5 -2.29907
      vertex 5 2.5 -2.5
      vertex 3.2 2.5 -2.5
    endloop
  endfacet
  facet normal 0 1 -0
    outer loop
      vertex -0.20093 2.5 0.693685
      vertex -5 2.5 2.5
      vertex 0 2.5 0.7
    endloop
  endfacet
  facet normal 0 1 -0
    outer loop
      vertex -0.401066 2.5 0.674767
      vertex -5 2.5 2.5
      vertex -0.20093 2.5 0.693685
    endloop
  endfacet
  facet normal 0 1 -0
    outer loop
      vertex -0.59962 2.5 0.643319
      vertex -5 2.5 2.5
      vertex -0.401066 2.5 0.674767
    endloop
  endfacet
  facet normal 0 1 -0
    outer loop
      vertex -0.795807 2.5 0.599465
      vertex -5 2.5 2.5
      vertex -0.59962 2.5 0.643319
    endloop
  endfacet
  facet normal 0 1 -0
    outer loop
      vertex -0.988853 2.5 0.543381
      vertex -5 2.5 2.5
      vertex -0.795807 2.5 0.599465
    endloop
  endfacet
  facet normal 0 1 -0
    outer loop
      vertex -1.178 2.5 0.475285
      vertex -5 2.5 2.5
      vertex -0.988853 2.5 0.543381
    endloop
  endfacet
  facet normal 0 1 -0
    outer loop
      vertex -1.36249 2.5 0.395446
      vertex -5 2.5 2.5
      vertex -1.178 2.5 0.475285
    endloop
  endfacet
  facet normal 0 1 -0
    outer loop
      vertex -1.54161 2.5 0.304181
      vertex -5 2.5 2.5
      vertex -1.36249 2.5 0.395446
    endloop
  endfacet
  facet normal 0 1 -0
    outer loop
      vertex -1.71465 2.5 0.201849
      vertex -5 2.5 2.5
      vertex -1.54161 2.5 0.304181
    endloop
  endfacet
  facet normal 0 1 -0
    outer loop
      vertex -1.88091 2.5 0.0888538
      vertex -5 2.5 2.5
      vertex -1.71465 2.5 0.201849
    endloop
  endfacet
  facet normal 0 1 -0
    outer loop
      vertex -2.03976 2.5 -0.0343571
      vertex -5 2.5 2.5
      vertex -1.88091 2.5 0.0888538
    endloop
  endfacet
  facet normal 0 1 -0
    outer loop
      vertex -2.19055 2.5 -0.1673
      vertex -5 2.5 2.5
      vertex -2.03976 2.5 -0.0343571
    endloop
  endfacet
  facet normal 0 1 -0
    outer loop
      vertex -2.3327 2.5 -0.309449
      vertex -5 2.5 2.5
      vertex -2.19055 2.5 -0.1673
    endloop
  endfacet
  facet normal 0 1 -0
    outer loop
      vertex -2.46564 2.5 -0.460243
      vertex -5 2.5 2.5
      vertex -2.3327 2.5 -0.309449
    endloop
  endfacet
  facet normal 0 1 -0
    outer loop
      vertex -2.58885 2.5 -0.619086
      vertex -5 2.5 2.5
      vertex -2.46564 2.5 -0.460243
    endloop
  endfacet
  facet normal 0 1 -0
    outer loop
      vertex -2.70185 2.5 -0.785354
      vertex -5 2.5 2.5
      vertex -2.58885 2.5 -0.619086
    endloop
  endfacet
  facet normal 0 1 -0
    outer loop
      vertex -2.80418 2.5 -0.958387
      vertex -5 2.5 2.5
      vertex -2.70185 2.5 -0.785354
    endloop
  endfacet
  facet normal 0 1 -0
    outer loop
      vertex -2.89545 2.5 -1.13751
      vertex -5 2.5 2.5
      vertex -2.80418 2.5 -0.958387
    endloop
  endfacet
  facet normal 0 1 0
    outer loop
      vertex -5 2.5 -2.5
      vertex -2.89545 2.5 -1.13751
      vertex -2.97528 2.5 -1.322
    endloop
  endfacet
  facet normal 0 1 0
    outer loop
      vertex -5 2.5 -2.5
      vertex -2.97528 2.5 -1.322
      vertex -3.04338 2.5 -1.51115
    endloop
  endfacet
  facet normal 0 1 0
    outer loop
      vertex -5 2.5 -2.5
      vertex -3.04338 2.5 -1.51115
      vertex -3.09947 2.5 -1.70419
    endloop
  endfacet
  facet normal 0 1 0
    outer loop
      vertex -5 2.5 -2.5
      vertex -3.09947 2.5 -1.70419
      vertex -3.14332 2.5 -1.90038
    endloop
  endfacet
  facet normal 0 1 0
    outer loop
      vertex -5 2.5 -2.5
      vertex -3.14332 2.5 -1.90038
      vertex -3.17477 2.5 -2.09893
    endloop
  endfacet
  facet normal 0 1 0
    outer loop
      vertex -5 2.5 -2.5
      vertex -3.17477 2.5 -2.09893
      vertex -3.19368 2.5 -2.29907
    endloop
  endfacet
  facet normal 0 1 0
    outer loop
      vertex -5 2.5 -2.5
      vertex -3.19368 2.5 -2.29907
      vertex -3.2 2.5 -2.5
    endloop
  endfacet
  facet normal 0 1 0
    outer loop
      vertex -2.89545 2.5 -1.13751
      vertex -5 2.5 -2.5
      vertex -5 2.5 2.5
    endloop
  endfacet
  facet normal -0.999506 0 -0.0314382
    outer loop
      vertex 3.2 -2.5 -2.5
      vertex 3.19368 2.5 -2.29907
      vertex 3.2 2.5 -2.5
    endloop
  endfacet
  facet normal -0.999506 -0 -0.0314382
    outer loop
      vertex 3.19368 2.5 -2.29907
      vertex 3.2 -2.5 -2.5
      vertex 3.19368 -2.5 -2.29907
    endloop
  endfacet
  facet normal -0.995566 0 -0.0940649
    outer loop
      vertex 3.19368 -2.5 -2.29907
      vertex 3.17477 2.5 -2.09893
      vertex 3.19368 2.5 -2.29907
    endloop
  endfacet
  facet normal -0.995566 -0 -0.0940649
    outer loop
      vertex 3.17477 2.5 -2.09893
      vertex 3.19368 -2.5 -2.29907
      vertex 3.17477 -2.5 -2.09893
    endloop
  endfacet
  facet normal 0.999506 0 -0.0314382
    outer loop
      vertex -3.19368 -2.5 -2.29907
      vertex -3.2 2.5 -2.5
      vertex -3.19368 2.5 -2.29907
    endloop
  endfacet
  facet normal 0.999506 0 -0.0314382
    outer loop
      vertex -3.2 2.5 -2.5
      vertex -3.19368 -2.5 -2.29907
      vertex -3.2 -2.5 -2.5
    endloop
  endfacet
  facet normal -0.0314133 0 -0.999506
    outer loop
      vertex 0 -2.5 0.7
      vertex 0.20093 2.5 0.693685
      vertex 0.20093 -2.5 0.693685
    endloop
  endfacet
  facet normal -0.0314133 0 -0.999506
    outer loop
      vertex 0.20093 2.5 0.693685
      vertex 0 -2.5 0.7
      vertex 0 2.5 0.7
    endloop
  endfacet
  facet normal -0.707104 0 -0.707109
    outer loop
      vertex 2.3327 -2.5 -0.309449
      vertex 2.19055 2.5 -0.1673
      vertex 2.3327 2.5 -0.309449
    endloop
  endfacet
  facet normal -0.707104 -0 -0.707109
    outer loop
      vertex 2.19055 2.5 -0.1673
      vertex 2.3327 -2.5 -0.309449
      vertex 2.19055 -2.5 -0.1673
    endloop
  endfacet
  facet normal 0.661322 0 -0.750102
    outer loop
      vertex -2.19055 -2.5 -0.1673
      vertex -2.03976 2.5 -0.0343571
      vertex -2.03976 -2.5 -0.0343571
    endloop
  endfacet
  facet normal 0.661322 0 -0.750102
    outer loop
      vertex -2.03976 2.5 -0.0343571
      vertex -2.19055 -2.5 -0.1673
      vertex -2.19055 2.5 -0.1673
    endloop
  endfacet
  facet normal 0.338733 0 -0.940883
    outer loop
      vertex -1.178 -2.5 0.475285
      vertex -0.988853 2.5 0.543381
      vertex -0.988853 -2.5 0.543381
    endloop
  endfacet
  facet normal 0.338733 0 -0.940883
    outer loop
      vertex -0.988853 2.5 0.543381
      vertex -1.178 -2.5 0.475285
      vertex -1.178 2.5 0.475285
    endloop
  endfacet
  facet normal -0.917765 0 -0.397123
    outer loop
      vertex 2.97528 -2.5 -1.322
      vertex 2.89545 2.5 -1.13751
      vertex 2.97528 2.5 -1.322
    endloop
  endfacet
  facet normal -0.917765 -0 -0.397123
    outer loop
      vertex 2.89545 2.5 -1.13751
      vertex 2.97528 -2.5 -1.322
      vertex 2.89545 -2.5 -1.13751
    endloop
  endfacet
  facet normal 0.156435 0 -0.987688
    outer loop
      vertex -0.59962 -2.5 0.643319
      vertex -0.401066 2.5 0.674767
      vertex -0.401066 -2.5 0.674767
    endloop
  endfacet
  facet normal 0.156435 0 -0.987688
    outer loop
      vertex -0.401066 2.5 0.674767
      vertex -0.59962 -2.5 0.643319
      vertex -0.59962 2.5 0.643319
    endloop
  endfacet
  facet normal -0.975921 0 -0.218126
    outer loop
      vertex 3.14332 -2.5 -1.90038
      vertex 3.09947 2.5 -1.70419
      vertex 3.14332 2.5 -1.90038
    endloop
  endfacet
  facet normal -0.975921 -0 -0.218126
    outer loop
      vertex 3.09947 2.5 -1.70419
      vertex 3.14332 -2.5 -1.90038
      vertex 3.09947 -2.5 -1.70419
    endloop
  endfacet
  facet normal -0.891002 0 -0.453999
    outer loop
      vertex 2.89545 -2.5 -1.13751
      vertex 2.80418 2.5 -0.958387
      vertex 2.89545 2.5 -1.13751
    endloop
  endfacet
  facet normal -0.891002 -0 -0.453999
    outer loop
      vertex 2.80418 2.5 -0.958387
      vertex 2.89545 -2.5 -1.13751
      vertex 2.80418 -2.5 -0.958387
    endloop
  endfacet
  facet normal -0.750118 0 -0.661304
    outer loop
      vertex 2.46564 -2.5 -0.460243
      vertex 2.3327 2.5 -0.309449
      vertex 2.46564 2.5 -0.460243
    endloop
  endfacet
  facet normal -0.750118 -0 -0.661304
    outer loop
      vertex 2.3327 2.5 -0.309449
      vertex 2.46564 -2.5 -0.460243
      vertex 2.3327 -2.5 -0.309449
    endloop
  endfacet
  facet normal -0.218148 0 -0.975916
    outer loop
      vertex 0.59962 -2.5 0.643319
      vertex 0.795807 2.5 0.599465
      vertex 0.795807 -2.5 0.599465
    endloop
  endfacet
  facet normal -0.218148 0 -0.975916
    outer loop
      vertex 0.795807 2.5 0.599465
      vertex 0.59962 -2.5 0.643319
      vertex 0.59962 2.5 0.643319
    endloop
  endfacet
  facet normal -0.661322 0 -0.750102
    outer loop
      vertex 2.03976 -2.5 -0.0343571
      vertex 2.19055 2.5 -0.1673
      vertex 2.19055 -2.5 -0.1673
    endloop
  endfacet
  facet normal -0.661322 0 -0.750102
    outer loop
      vertex 2.19055 2.5 -0.1673
      vertex 2.03976 -2.5 -0.0343571
      vertex 2.03976 2.5 -0.0343571
    endloop
  endfacet
  facet normal 0.790158 0 -0.612903
    outer loop
      vertex -2.46564 -2.5 -0.460243
      vertex -2.58885 2.5 -0.619086
      vertex -2.46564 2.5 -0.460243
    endloop
  endfacet
  facet normal 0.790158 0 -0.612903
    outer loop
      vertex -2.58885 2.5 -0.619086
      vertex -2.46564 -2.5 -0.460243
      vertex -2.58885 -2.5 -0.619086
    endloop
  endfacet
  facet normal 0.82707 0 -0.562098
    outer loop
      vertex -2.58885 -2.5 -0.619086
      vertex -2.70185 2.5 -0.785354
      vertex -2.58885 2.5 -0.619086
    endloop
  endfacet
  facet normal 0.82707 0 -0.562098
    outer loop
      vertex -2.70185 2.5 -0.785354
      vertex -2.58885 -2.5 -0.619086
      vertex -2.70185 -2.5 -0.785354
    endloop
  endfacet
  facet normal 0.975921 0 -0.218126
    outer loop
      vertex -3.09947 -2.5 -1.70419
      vertex -3.14332 2.5 -1.90038
      vertex -3.09947 2.5 -1.70419
    endloop
  endfacet
  facet normal 0.975921 0 -0.218126
    outer loop
      vertex -3.14332 2.5 -1.90038
      vertex -3.09947 -2.5 -1.70419
      vertex -3.14332 -2.5 -1.90038
    endloop
  endfacet
  facet normal 0.509028 0 -0.86075
    outer loop
      vertex -1.71465 -2.5 0.201849
      vertex -1.54161 2.5 0.304181
      vertex -1.54161 -2.5 0.304181
    endloop
  endfacet
  facet normal 0.509028 0 -0.86075
    outer loop
      vertex -1.54161 2.5 0.304181
      vertex -1.71465 -2.5 0.201849
      vertex -1.71465 2.5 0.201849
    endloop
  endfacet
  facet normal 0.612889 0 -0.790169
    outer loop
      vertex -2.03976 -2.5 -0.0343571
      vertex -1.88091 2.5 0.0888538
      vertex -1.88091 -2.5 0.0888538
    endloop
  endfacet
  facet normal 0.612889 0 -0.790169
    outer loop
      vertex -1.88091 2.5 0.0888538
      vertex -2.03976 -2.5 -0.0343571
      vertex -2.03976 2.5 -0.0343571
    endloop
  endfacet
  facet normal 0.0941062 0 -0.995562
    outer loop
      vertex -0.401066 -2.5 0.674767
      vertex -0.20093 2.5 0.693685
      vertex -0.20093 -2.5 0.693685
    endloop
  endfacet
  facet normal 0.0941062 0 -0.995562
    outer loop
      vertex -0.20093 2.5 0.693685
      vertex -0.401066 -2.5 0.674767
      vertex -0.401066 2.5 0.674767
    endloop
  endfacet
  facet normal -0.987686 0 -0.156448
    outer loop
      vertex 3.17477 -2.5 -2.09893
      vertex 3.14332 2.5 -1.90038
      vertex 3.17477 2.5 -2.09893
    endloop
  endfacet
  facet normal -0.987686 -0 -0.156448
    outer loop
      vertex 3.14332 2.5 -1.90038
      vertex 3.17477 -2.5 -2.09893
      vertex 3.14332 -2.5 -1.90038
    endloop
  endfacet
  facet normal -0.940878 0 -0.338746
    outer loop
      vertex 3.04338 -2.5 -1.51115
      vertex 2.97528 2.5 -1.322
      vertex 3.04338 2.5 -1.51115
    endloop
  endfacet
  facet normal -0.940878 -0 -0.338746
    outer loop
      vertex 2.97528 2.5 -1.322
      vertex 3.04338 -2.5 -1.51115
      vertex 2.97528 -2.5 -1.322
    endloop
  endfacet
  facet normal -0.960285 0 -0.279022
    outer loop
      vertex 3.09947 -2.5 -1.70419
      vertex 3.04338 2.5 -1.51115
      vertex 3.09947 2.5 -1.70419
    endloop
  endfacet
  facet normal -0.960285 -0 -0.279022
    outer loop
      vertex 3.04338 2.5 -1.51115
      vertex 3.09947 -2.5 -1.70419
      vertex 3.04338 -2.5 -1.51115
    endloop
  endfacet
  facet normal -0.790158 0 -0.612903
    outer loop
      vertex 2.58885 -2.5 -0.619086
      vertex 2.46564 2.5 -0.460243
      vertex 2.58885 2.5 -0.619086
    endloop
  endfacet
  facet normal -0.790158 -0 -0.612903
    outer loop
      vertex 2.46564 2.5 -0.460243
      vertex 2.58885 -2.5 -0.619086
      vertex 2.46564 -2.5 -0.460243
    endloop
  endfacet
  facet normal -0.156435 0 -0.987688
    outer loop
      vertex 0.401066 -2.5 0.674767
      vertex 0.59962 2.5 0.643319
      vertex 0.59962 -2.5 0.643319
    endloop
  endfacet
  facet normal -0.156435 0 -0.987688
    outer loop
      vertex 0.59962 2.5 0.643319
      vertex 0.401066 -2.5 0.674767
      vertex 0.401066 2.5 0.674767
    endloop
  endfacet
  facet normal -0.338733 0 -0.940883
    outer loop
      vertex 0.988853 -2.5 0.543381
      vertex 1.178 2.5 0.475285
      vertex 1.178 -2.5 0.475285
    endloop
  endfacet
  facet normal -0.338733 0 -0.940883
    outer loop
      vertex 1.178 2.5 0.475285
      vertex 0.988853 -2.5 0.543381
      vertex 0.988853 2.5 0.543381
    endloop
  endfacet
  facet normal -0.397161 0 -0.917749
    outer loop
      vertex 1.178 -2.5 0.475285
      vertex 1.36249 2.5 0.395446
      vertex 1.36249 -2.5 0.395446
    endloop
  endfacet
  facet normal -0.397161 0 -0.917749
    outer loop
      vertex 1.36249 2.5 0.395446
      vertex 1.178 -2.5 0.475285
      vertex 1.178 2.5 0.475285
    endloop
  endfacet
  facet normal -0.509028 0 -0.86075
    outer loop
      vertex 1.54161 -2.5 0.304181
      vertex 1.71465 2.5 0.201849
      vertex 1.71465 -2.5 0.201849
    endloop
  endfacet
  facet normal -0.509028 0 -0.86075
    outer loop
      vertex 1.71465 2.5 0.201849
      vertex 1.54161 -2.5 0.304181
      vertex 1.54161 2.5 0.304181
    endloop
  endfacet
  facet normal 0.987686 0 -0.156448
    outer loop
      vertex -3.14332 -2.5 -1.90038
      vertex -3.17477 2.5 -2.09893
      vertex -3.14332 2.5 -1.90038
    endloop
  endfacet
  facet normal 0.987686 0 -0.156448
    outer loop
      vertex -3.17477 2.5 -2.09893
      vertex -3.14332 -2.5 -1.90038
      vertex -3.17477 -2.5 -2.09893
    endloop
  endfacet
  facet normal 0.860745 0 -0.509036
    outer loop
      vertex -2.70185 -2.5 -0.785354
      vertex -2.80418 2.5 -0.958387
      vertex -2.70185 2.5 -0.785354
    endloop
  endfacet
  facet normal 0.860745 0 -0.509036
    outer loop
      vertex -2.80418 2.5 -0.958387
      vertex -2.70185 -2.5 -0.785354
      vertex -2.80418 -2.5 -0.958387
    endloop
  endfacet
  facet normal 0.917765 0 -0.397123
    outer loop
      vertex -2.89545 -2.5 -1.13751
      vertex -2.97528 2.5 -1.322
      vertex -2.89545 2.5 -1.13751
    endloop
  endfacet
  facet normal 0.917765 0 -0.397123
    outer loop
      vertex -2.97528 2.5 -1.322
      vertex -2.89545 -2.5 -1.13751
      vertex -2.97528 -2.5 -1.322
    endloop
  endfacet
  facet normal 0.940878 0 -0.338746
    outer loop
      vertex -2.97528 -2.5 -1.322
      vertex -3.04338 2.5 -1.51115
      vertex -2.97528 2.5 -1.322
    endloop
  endfacet
  facet normal 0.940878 0 -0.338746
    outer loop
      vertex -3.04338 2.5 -1.51115
      vertex -2.97528 -2.5 -1.322
      vertex -3.04338 -2.5 -1.51115
    endloop
  endfacet
  facet normal 0.5621 0 -0.827069
    outer loop
      vertex -1.88091 -2.5 0.0888538
      vertex -1.71465 2.5 0.201849
      vertex -1.71465 -2.5 0.201849
    endloop
  endfacet
  facet normal 0.5621 0 -0.827069
    outer loop
      vertex -1.71465 2.5 0.201849
      vertex -1.88091 -2.5 0.0888538
      vertex -1.88091 2.5 0.0888538
    endloop
  endfacet
  facet normal 0.453986 0 -0.891009
    outer loop
      vertex -1.54161 -2.5 0.304181
      vertex -1.36249 2.5 0.395446
      vertex -1.36249 -2.5 0.395446
    endloop
  endfacet
  facet normal 0.453986 0 -0.891009
    outer loop
      vertex -1.36249 2.5 0.395446
      vertex -1.54161 -2.5 0.304181
      vertex -1.54161 2.5 0.304181
    endloop
  endfacet
  facet normal 0.218148 0 -0.975916
    outer loop
      vertex -0.795807 -2.5 0.599465
      vertex -0.59962 2.5 0.643319
      vertex -0.59962 -2.5 0.643319
    endloop
  endfacet
  facet normal 0.218148 0 -0.975916
    outer loop
      vertex -0.59962 2.5 0.643319
      vertex -0.795807 -2.5 0.599465
      vertex -0.795807 2.5 0.599465
    endloop
  endfacet
  facet normal 0.278986 0 -0.960295
    outer loop
      vertex -0.988853 -2.5 0.543381
      vertex -0.795807 2.5 0.599465
      vertex -0.795807 -2.5 0.599465
    endloop
  endfacet
  facet normal 0.278986 0 -0.960295
    outer loop
      vertex -0.795807 2.5 0.599465
      vertex -0.988853 -2.5 0.543381
      vertex -0.988853 2.5 0.543381
    endloop
  endfacet
  facet normal 0.0314133 0 -0.999506
    outer loop
      vertex -0.20093 -2.5 0.693685
      vertex 0 2.5 0.7
      vertex 0 -2.5 0.7
    endloop
  endfacet
  facet normal 0.0314133 0 -0.999506
    outer loop
      vertex 0 2.5 0.7
      vertex -0.20093 -2.5 0.693685
      vertex -0.20093 2.5 0.693685
    endloop
  endfacet
  facet normal -0.860745 0 -0.509036
    outer loop
      vertex 2.80418 -2.5 -0.958387
      vertex 2.70185 2.5 -0.785354
      vertex 2.80418 2.5 -0.958387
    endloop
  endfacet
  facet normal -0.860745 -0 -0.509036
    outer loop
      vertex 2.70185 2.5 -0.785354
      vertex 2.80418 -2.5 -0.958387
      vertex 2.70185 -2.5 -0.785354
    endloop
  endfacet
  facet normal -0.82707 0 -0.562098
    outer loop
      vertex 2.70185 -2.5 -0.785354
      vertex 2.58885 2.5 -0.619086
      vertex 2.70185 2.5 -0.785354
    endloop
  endfacet
  facet normal -0.82707 -0 -0.562098
    outer loop
      vertex 2.58885 2.5 -0.619086
      vertex 2.70185 -2.5 -0.785354
      vertex 2.58885 -2.5 -0.619086
    endloop
  endfacet
  facet normal -0.278986 0 -0.960295
    outer loop
      vertex 0.795807 -2.5 0.599465
      vertex 0.988853 2.5 0.543381
      vertex 0.988853 -2.5 0.543381
    endloop
  endfacet
  facet normal -0.278986 0 -0.960295
    outer loop
      vertex 0.988853 2.5 0.543381
      vertex 0.795807 -2.5 0.599465
      vertex 0.795807 2.5 0.599465
    endloop
  endfacet
  facet normal -0.0941062 0 -0.995562
    outer loop
      vertex 0.20093 -2.5 0.693685
      vertex 0.401066 2.5 0.674767
      vertex 0.401066 -2.5 0.674767
    endloop
  endfacet
  facet normal -0.0941062 0 -0.995562
    outer loop
      vertex 0.401066 2.5 0.674767
      vertex 0.20093 -2.5 0.693685
      vertex 0.20093 2.5 0.693685
    endloop
  endfacet
  facet normal -0.453986 0 -0.891009
    outer loop
      vertex 1.36249 -2.5 0.395446
      vertex 1.54161 2.5 0.304181
      vertex 1.54161 -2.5 0.304181
    endloop
  endfacet
  facet normal -0.453986 0 -0.891009
    outer loop
      vertex 1.54161 2.5 0.304181
      vertex 1.36249 -2.5 0.395446
      vertex 1.36249 2.5 0.395446
    endloop
  endfacet
  facet normal -0.612889 0 -0.790169
    outer loop
      vertex 1.88091 -2.5 0.0888538
      vertex 2.03976 2.5 -0.0343571
      vertex 2.03976 -2.5 -0.0343571
    endloop
  endfacet
  facet normal -0.612889 0 -0.790169
    outer loop
      vertex 2.03976 2.5 -0.0343571
      vertex 1.88091 -2.5 0.0888538
      vertex 1.88091 2.5 0.0888538
    endloop
  endfacet
  facet normal -0.5621 0 -0.827069
    outer loop
      vertex 1.71465 -2.5 0.201849
      vertex 1.88091 2.5 0.0888538
      vertex 1.88091 -2.5 0.0888538
    endloop
  endfacet
  facet normal -0.5621 0 -0.827069
    outer loop
      vertex 1.88091 2.5 0.0888538
      vertex 1.71465 -2.5 0.201849
      vertex 1.71465 2.5 0.201849
    endloop
  endfacet
  facet normal 0.750118 0 -0.661304
    outer loop
      vertex -2.3327 -2.5 -0.309449
      vertex -2.46564 2.5 -0.460243
      vertex -2.3327 2.5 -0.309449
    endloop
  endfacet
  facet normal 0.750118 0 -0.661304
    outer loop
      vertex -2.46564 2.5 -0.460243
      vertex -2.3327 -2.5 -0.309449
      vertex -2.46564 -2.5 -0.460243
    endloop
  endfacet
  facet normal 0.707104 0 -0.707109
    outer loop
      vertex -2.19055 -2.5 -0.1673
      vertex -2.3327 2.5 -0.309449
      vertex -2.19055 2.5 -0.1673
    endloop
  endfacet
  facet normal 0.707104 0 -0.707109
    outer loop
      vertex -2.3327 2.5 -0.309449
      vertex -2.19055 -2.5 -0.1673
      vertex -2.3327 -2.5 -0.309449
    endloop
  endfacet
  facet normal 0.891002 0 -0.453999
    outer loop
      vertex -2.80418 -2.5 -0.958387
      vertex -2.89545 2.5 -1.13751
      vertex -2.80418 2.5 -0.958387
    endloop
  endfacet
  facet normal 0.891002 0 -0.453999
    outer loop
      vertex -2.89545 2.5 -1.13751
      vertex -2.80418 -2.5 -0.958387
      vertex -2.89545 -2.5 -1.13751
    endloop
  endfacet
  facet normal 0.960285 0 -0.279022
    outer loop
      vertex -3.04338 -2.5 -1.51115
      vertex -3.09947 2.5 -1.70419
      vertex -3.04338 2.5 -1.51115
    endloop
  endfacet
  facet normal 0.960285 0 -0.279022
    outer loop
      vertex -3.09947 2.5 -1.70419
      vertex -3.04338 -2.5 -1.51115
      vertex -3.09947 -2.5 -1.70419
    endloop
  endfacet
  facet normal 0.995566 0 -0.0940649
    outer loop
      vertex -3.17477 -2.5 -2.09893
      vertex -3.19368 2.5 -2.29907
      vertex -3.17477 2.5 -2.09893
    endloop
  endfacet
  facet normal 0.995566 0 -0.0940649
    outer loop
      vertex -3.19368 2.5 -2.29907
      vertex -3.17477 -2.5 -2.09893
      vertex -3.19368 -2.5 -2.29907
    endloop
  endfacet
  facet normal 0.397161 0 -0.917749
    outer loop
      vertex -1.36249 -2.5 0.395446
      vertex -1.178 2.5 0.475285
      vertex -1.178 -2.5 0.475285
    endloop
  endfacet
  facet normal 0.397161 0 -0.917749
    outer loop
      vertex -1.178 2.5 0.475285
      vertex -1.36249 -2.5 0.395446
      vertex -1.36249 2.5 0.395446
    endloop
  endfacet
endsolid OpenSCAD_Model
