solid OpenSCAD_Model
  facet normal -1 0 0
    outer loop
      vertex -5 -2.5 -2.5
      vertex -5 2.5 2.5
      vertex -5 2.5 -2.5
    endloop
  endfacet
  facet normal -1 -0 0
    outer loop
      vertex -5 2.5 2.5
      vertex -5 -2.5 -2.5
      vertex -5 -2.5 2.5
    endloop
  endfacet
  facet normal -0 0 1
    outer loop
      vertex -5 2.5 2.5
      vertex 5 -2.5 2.5
      vertex 5 2.5 2.5
    endloop
  endfacet
  facet normal 0 0 1
    outer loop
      vertex 5 -2.5 2.5
      vertex -5 2.5 2.5
      vertex -5 -2.5 2.5
    endloop
  endfacet
  facet normal 1 -0 0
    outer loop
      vertex 5 -2.5 2.5
      vertex 5 2.5 -2.5
      vertex 5 2.5 2.5
    endloop
  endfacet
  facet normal 1 0 0
    outer loop
      vertex 5 2.5 -2.5
      vertex 5 -2.5 2.5
      vertex 5 -2.5 -2.5
    endloop
  endfacet
  facet normal 0 0 -1
    outer loop
      vertex -5 -2.5 -2.5
      vertex -3.96858 2.5 -2.5
      vertex -3.96858 -2.5 -2.5
    endloop
  endfacet
  facet normal -0 0 -1
    outer loop
      vertex -3.96858 2.5 -2.5
      vertex -5 -2.5 -2.5
      vertex -5 2.5 -2.5
    endloop
  endfacet
  facet normal 0 0 -1
    outer loop
      vertex 3.96858 -2.5 -2.5
      vertex 5 2.5 -2.5
      vertex 5 -2.5 -2.5
    endloop
  endfacet
  facet normal -0 0 -1
    outer loop
      vertex 5 2.5 -2.5
      vertex 3.96858 -2.5 -2.5
      vertex 3.96858 2.5 -2.5
    endloop
  endfacet
  facet normal 0 -1 0
    outer loop
      vertex -5 -2.5 2.5
      vertex 0 -2.5 2
      vertex 5 -2.5 2.5
    endloop
  endfacet
  facet normal 0 -1 0
    outer loop
      vertex -5 -2.5 2.5
      vertex -0.251162 -2.5 1.99211
      vertex 0 -2.5 2
    endloop
  endfacet
  facet normal 0 -1 0
    outer loop
      vertex -5 -2.5 2.5
      vertex -0.501332 -2.5 1.96846
      vertex -0.251162 -2.5 1.99211
    endloop
  endfacet
  facet normal 0 -1 0
    outer loop
      vertex -5 -2.5 2.5
      vertex -0.749525 -2.5 1.92915
      vertex -0.501332 -2.5 1.96846
    endloop
  endfacet
  facet normal 0 -1 0
    outer loop
      vertex -5 -2.5 2.5
      vertex -0.994759 -2.5 1.87433
      vertex -0.749525 -2.5 1.92915
    endloop
  endfacet
  facet normal 0 -1 0
    outer loop
      vertex -5 -2.5 2.5
      vertex -1.23607 -2.5 1.80423
      vertex -0.994759 -2.5 1.87433
    endloop
  endfacet
  facet normal 0 -1 0
    outer loop
      vertex -5 -2.5 2.5
      vertex -1.4725 -2.5 1.71911
      vertex -1.23607 -2.5 1.80423
    endloop
  endfacet
  facet normal 0 -1 0
    outer loop
      vertex -5 -2.5 2.5
      vertex -1.70312 -2.5 1.61931
      vertex -1.4725 -2.5 1.71911
    endloop
  endfacet
  facet normal 0 -1 0
    outer loop
      vertex -5 -2.5 2.5
      vertex -1.92701 -2.5 1.50523
      vertex -1.70312 -2.5 1.61931
    endloop
  endfacet
  facet normal 0 -1 0
    outer loop
      vertex -5 -2.5 2.5
      vertex -2.14331 -2.5 1.37731
      vertex -1.92701 -2.5 1.50523
    endloop
  endfacet
  facet normal 0 -1 0
    outer loop
      vertex -5 -2.5 2.5
      vertex -2.35114 -2.5 1.23607
      vertex -2.14331 -2.5 1.37731
    endloop
  endfacet
  facet normal 0 -1 0
    outer loop
      vertex -5 -2.5 2.5
      vertex -2.5497 -2.5 1.08205
      vertex -2.35114 -2.5 1.23607
    endloop
  endfacet
  facet normal 0 -1 0
    outer loop
      vertex -5 -2.5 2.5
      vertex -2.73819 -2.5 0.915874
      vertex -2.5497 -2.5 1.08205
    endloop
  endfacet
  facet normal 0 -1 0
    outer loop
      vertex -5 -2.5 2.5
      vertex -2.91587 -2.5 0.738188
      vertex -2.73819 -2.5 0.915874
    endloop
  endfacet
  facet normal 0 -1 0
    outer loop
      vertex -5 -2.5 2.5
      vertex -3.08205 -2.5 0.549695
      vertex -2.91587 -2.5 0.738188
    endloop
  endfacet
  facet normal 0 -1 0
    outer loop
      vertex -5 -2.5 2.5
      vertex -3.23607 -2.5 0.351141
      vertex -3.08205 -2.5 0.549695
    endloop
  endfacet
  facet normal 0 -1 0
    outer loop
      vertex -5 -2.5 2.5
      vertex -3.37731 -2.5 0.143307
      vertex -3.23607 -2.5 0.351141
    endloop
  endfacet
  facet normal 0 -1 0
    outer loop
      vertex -5 -2.5 2.5
      vertex -3.50523 -2.5 -0.0729847
      vertex -3.37731 -2.5 0.143307
    endloop
  endfacet
  facet normal 0 -1 0
    outer loop
      vertex -5 -2.5 2.5
      vertex -3.61931 -2.5 -0.296883
      vertex -3.50523 -2.5 -0.0729847
    endloop
  endfacet
  facet normal 0 -1 0
    outer loop
      vertex -5 -2.5 2.5
      vertex -3.71911 -2.5 -0.527501
      vertex -3.61931 -2.5 -0.296883
    endloop
  endfacet
  facet normal 0 -1 0
    outer loop
      vertex -5 -2.5 2.5
      vertex -3.80423 -2.5 -0.763931
      vertex -3.71911 -2.5 -0.527501
    endloop
  endfacet
  facet normal 0 -1 0
    outer loop
      vertex -5 -2.5 -2.5
      vertex -3.80423 -2.5 -0.763931
      vertex -5 -2.5 2.5
    endloop
  endfacet
  facet normal 0 -1 0
    outer loop
      vertex -3.80423 -2.5 -0.763931
      vertex -5 -2.5 -2.5
      vertex -3.87433 -2.5 -1.00524
    endloop
  endfacet
  facet normal 0 -1 0
    outer loop
      vertex -3.87433 -2.5 -1.00524
      vertex -5 -2.5 -2.5
      vertex -3.92915 -2.5 -1.25047
    endloop
  endfacet
  facet normal 0 -1 0
    outer loop
      vertex -3.92915 -2.5 -1.25047
      vertex -5 -2.5 -2.5
      vertex -3.96846 -2.5 -1.49867
    endloop
  endfacet
  facet normal 0 -1 0
    outer loop
      vertex -3.96846 -2.5 -1.49867
      vertex -5 -2.5 -2.5
      vertex -3.99211 -2.5 -1.74884
    endloop
  endfacet
  facet normal 0 -1 0
    outer loop
      vertex -3.99211 -2.5 -1.74884
      vertex -5 -2.5 -2.5
      vertex -4 -2.5 -2
    endloop
  endfacet
  facet normal 0 -1 -0
    outer loop
      vertex -4 -2.5 -2
      vertex -5 -2.5 -2.5
      vertex -3.99211 -2.5 -2.25116
    endloop
  endfacet
  facet normal 0 -1 -0
    outer loop
      vertex -3.99211 -2.5 -2.25116
      vertex -5 -2.5 -2.5
      vertex -3.96858 -2.5 -2.5
    endloop
  endfacet
  facet normal 0 -1 0
    outer loop
      vertex 0.251162 -2.5 1.99211
      vertex 5 -2.5 2.5
      vertex 0 -2.5 2
    endloop
  endfacet
  facet normal 0 -1 0
    outer loop
      vertex 0.501332 -2.5 1.96846
      vertex 5 -2.5 2.5
      vertex 0.251162 -2.5 1.99211
    endloop
  endfacet
  facet normal 0 -1 0
    outer loop
      vertex 0.749525 -2.5 1.92915
      vertex 5 -2.5 2.5
      vertex 0.501332 -2.5 1.96846
    endloop
  endfacet
  facet normal 0 -1 0
    outer loop
      vertex 0.994759 -2.5 1.87433
      vertex 5 -2.5 2.5
      vertex 0.749525 -2.5 1.92915
    endloop
  endfacet
  facet normal 0 -1 0
    outer loop
      vertex 1.23607 -2.5 1.80423
      vertex 5 -2.5 2.5
      vertex 0.994759 -2.5 1.87433
    endloop
  endfacet
  facet normal 0 -1 0
    outer loop
      vertex 1.4725 -2.5 1.71911
      vertex 5 -2.5 2.5
      vertex 1.23607 -2.5 1.80423
    endloop
  endfacet
  facet normal 0 -1 0
    outer loop
      vertex 1.70312 -2.5 1.61931
      vertex 5 -2.5 2.5
      vertex 1.4725 -2.5 1.71911
    endloop
  endfacet
  facet normal 0 -1 0
    outer loop
      vertex 1.92701 -2.5 1.50523
      vertex 5 -2.5 2.5
      vertex 1.70312 -2.5 1.61931
    endloop
  endfacet
  facet normal 0 -1 0
    outer loop
      vertex 2.14331 -2.5 1.37731
      vertex 5 -2.5 2.5
      vertex 1.92701 -2.5 1.50523
    endloop
  endfacet
  facet normal 0 -1 0
    outer loop
      vertex 2.35114 -2.5 1.23607
      vertex 5 -2.5 2.5
      vertex 2.14331 -2.5 1.37731
    endloop
  endfacet
  facet normal 0 -1 0
    outer loop
      vertex 2.5497 -2.5 1.08205
      vertex 5 -2.5 2.5
      vertex 2.35114 -2.5 1.23607
    endloop
  endfacet
  facet normal 0 -1 0
    outer loop
      vertex 2.73819 -2.5 0.915874
      vertex 5 -2.5 2.5
      vertex 2.5497 -2.5 1.08205
    endloop
  endfacet
  facet normal 0 -1 0
    outer loop
      vertex 2.91587 -2.5 0.738188
      vertex 5 -2.5 2.5
      vertex 2.73819 -2.5 0.915874
    endloop
  endfacet
  facet normal 0 -1 0
    outer loop
      vertex 3.08205 -2.5 0.549695
      vertex 5 -2.5 2.5
      vertex 2.91587 -2.5 0.738188
    endloop
  endfacet
  facet normal 0 -1 0
    outer loop
      vertex 3.23607 -2.5 0.351141
      vertex 5 -2.5 2.5
      vertex 3.08205 -2.5 0.549695
    endloop
  endfacet
  facet normal 0 -1 0
    outer loop
      vertex 3.37731 -2.5 0.143307
      vertex 5 -2.5 2.5
      vertex 3.23607 -2.5 0.351141
    endloop
  endfacet
  facet normal 0 -1 0
    outer loop
      vertex 3.50523 -2.5 -0.0729847
      vertex 5 -2.5 2.5
      vertex 3.37731 -2.5 0.143307
    endloop
  endfacet
  facet normal 0 -1 0
    outer loop
      vertex 3.61931 -2.5 -0.296883
      vertex 5 -2.5 2.5
      vertex 3.50523 -2.5 -0.0729847
    endloop
  endfacet
  facet normal 0 -1 0
    outer loop
      vertex 3.71911 -2.5 -0.527501
      vertex 5 -2.5 2.5
      vertex 3.61931 -2.5 -0.296883
    endloop
  endfacet
  facet normal 0 -1 0
    outer loop
      vertex 3.80423 -2.5 -0.763931
      vertex 5 -2.5 2.5
      vertex 3.71911 -2.5 -0.527501
    endloop
  endfacet
  facet normal 0 -1 0
    outer loop
      vertex 5 -2.5 -2.5
      vertex 3.80423 -2.5 -0.763931
      vertex 3.87433 -2.5 -1.00524
    endloop
  endfacet
  facet normal 0 -1 0
    outer loop
      vertex 5 -2.5 -2.5
      vertex 3.87433 -2.5 -1.00524
      vertex 3.92915 -2.5 -1.25047
    endloop
  endfacet
  facet normal 0 -1 0
    outer loop
      vertex 5 -2.5 -2.5
      vertex 3.92915 -2.5 -1.25047
      vertex 3.96846 -2.5 -1.49867
    endloop
  endfacet
  facet normal 0 -1 0
    outer loop
      vertex 5 -2.5 -2.5
      vertex 3.96846 -2.5 -1.49867
      vertex 3.99211 -2.5 -1.74884
    endloop
  endfacet
  facet normal 0 -1 0
    outer loop
      vertex 5 -2.5 -2.5
      vertex 3.99211 -2.5 -1.74884
      vertex 4 -2.5 -2
    endloop
  endfacet
  facet normal 0 -1 0
    outer loop
      vertex 5 -2.5 -2.5
      vertex 4 -2.5 -2
      vertex 3.99211 -2.5 -2.25116
    endloop
  endfacet
  facet normal 0 -1 0
    outer loop
      vertex 5 -2.5 -2.5
      vertex 3.99211 -2.5 -2.25116
      vertex 3.96858 -2.5 -2.5
    endloop
  endfacet
  facet normal 0 -1 0
    outer loop
      vertex 3.80423 -2.5 -0.763931
      vertex 5 -2.5 -2.5
      vertex 5 -2.5 2.5
    endloop
  endfacet
  facet normal 0 1 0
    outer loop
      vertex 5 2.5 2.5
      vertex 0 2.5 2
      vertex -5 2.5 2.5
    endloop
  endfacet
  facet normal 0 1 0
    outer loop
      vertex 5 2.5 2.5
      vertex 0.251162 2.5 1.99211
      vertex 0 2.5 2
    endloop
  endfacet
  facet normal 0 1 0
    outer loop
      vertex 5 2.5 2.5
      vertex 0.501332 2.5 1.96846
      vertex 0.251162 2.5 1.99211
    endloop
  endfacet
  facet normal 0 1 0
    outer loop
      vertex 5 2.5 2.5
      vertex 0.749525 2.5 1.92915
      vertex 0.501332 2.5 1.96846
    endloop
  endfacet
  facet normal 0 1 0
    outer loop
      vertex 5 2.5 2.5
      vertex 0.994759 2.5 1.87433
      vertex 0.749525 2.5 1.92915
    endloop
  endfacet
  facet normal 0 1 0
    outer loop
      vertex 5 2.5 2.5
      vertex 1.23607 2.5 1.80423
      vertex 0.994759 2.5 1.87433
    endloop
  endfacet
  facet normal 0 1 0
    outer loop
      vertex 5 2.5 2.5
      vertex 1.4725 2.5 1.71911
      vertex 1.23607 2.5 1.80423
    endloop
  endfacet
  facet normal 0 1 0
    outer loop
      vertex 5 2.5 2.5
      vertex 1.70312 2.5 1.61931
      vertex 1.4725 2.5 1.71911
    endloop
  endfacet
  facet normal 0 1 0
    outer loop
      vertex 5 2.5 2.5
      vertex 1.92701 2.5 1.50523
      vertex 1.70312 2.5 1.61931
    endloop
  endfacet
  facet normal 0 1 0
    outer loop
      vertex 5 2.5 2.5
      vertex 2.14331 2.5 1.37731
      vertex 1.92701 2.5 1.50523
    endloop
  endfacet
  facet normal 0 1 0
    outer loop
      vertex 5 2.5 2.5
      vertex 2.35114 2.5 1.23607
      vertex 2.14331 2.5 1.37731
    endloop
  endfacet
  facet normal 0 1 0
    outer loop
      vertex 5 2.5 2.5
      vertex 2.5497 2.5 1.08205
      vertex 2.35114 2.5 1.23607
    endloop
  endfacet
  facet normal 0 1 0
    outer loop
      vertex 5 2.5 2.5
      vertex 2.73819 2.5 0.915874
      vertex 2.5497 2.5 1.08205
    endloop
  endfacet
  facet normal 0 1 0
    outer loop
      vertex 5 2.5 2.5
      vertex 2.91587 2.5 0.738188
      vertex 2.73819 2.5 0.915874
    endloop
  endfacet
  facet normal 0 1 0
    outer loop
      vertex 5 2.5 2.5
      vertex 3.08205 2.5 0.549695
      vertex 2.91587 2.5 0.738188
    endloop
  endfacet
  facet normal 0 1 0
    outer loop
      vertex 5 2.5 2.5
      vertex 3.23607 2.5 0.351141
      vertex 3.08205 2.5 0.549695
    endloop
  endfacet
  facet normal 0 1 0
    outer loop
      vertex 5 2.5 2.5
      vertex 3.37731 2.5 0.143307
      vertex 3.23607 2.5 0.351141
    endloop
  endfacet
  facet normal 0 1 0
    outer loop
      vertex 5 2.5 2.5
      vertex 3.50523 2.5 -0.0729847
      vertex 3.37731 2.5 0.143307
    endloop
  endfacet
  facet normal 0 1 0
    outer loop
      vertex 5 2.5 2.5
      vertex 3.61931 2.5 -0.296883
      vertex 3.50523 2.5 -0.0729847
    endloop
  endfacet
  facet normal 0 1 0
    outer loop
      vertex 5 2.5 2.5
      vertex 3.71911 2.5 -0.527501
      vertex 3.61931 2.5 -0.296883
    endloop
  endfacet
  facet normal 0 1 0
    outer loop
      vertex 5 2.5 2.5
      vertex 3.80423 2.5 -0.763931
      vertex 3.71911 2.5 -0.527501
    endloop
  endfacet
  facet normal 0 1 -0
    outer loop
      vertex 5 2.5 -2.5
      vertex 3.80423 2.5 -0.763931
      vertex 5 2.5 2.5
    endloop
  endfacet
  facet normal 0 1 0
    outer loop
      vertex 3.80423 2.5 -0.763931
      vertex 5 2.5 -2.5
      vertex 3.87433 2.5 -1.00524
    endloop
  endfacet
  facet normal 0 1 0
    outer loop
      vertex 3.87433 2.5 -1.00524
      vertex 5 2.5 -2.5
      vertex 3.92915 2.5 -1.25047
    endloop
  endfacet
  facet normal 0 1 0
    outer loop
      vertex 3.92915 2.5 -1.25047
      vertex 5 2.5 -2.5
      vertex 3.96846 2.5 -1.49867
    endloop
  endfacet
  facet normal 0 1 0
    outer loop
      vertex 3.96846 2.5 -1.49867
      vertex 5 2.5 -2.5
      vertex 3.99211 2.5 -1.74884
    endloop
  endfacet
  facet normal 0 1 0
    outer loop
      vertex 3.99211 2.5 -1.74884
      vertex 5 2.5 -2.5
      vertex 4 2.5 -2
    endloop
  endfacet
  facet normal 0 1 0
    outer loop
      vertex 4 2.5 -2
      vertex 5 2.5 -2.5
      vertex 3.99211 2.5 -2.25116
    endloop
  endfacet
  facet normal 0 1 0
    outer loop
      vertex 3.99211 2.5 -2.25116
      vertex 5 2.5 -2.5
      vertex 3.96858 2.5 -2.5
    endloop
  endfacet
  facet normal 0 1 -0
    outer loop
      vertex -0.251162 2.5 1.99211
      vertex -5 2.5 2.5
      vertex 0 2.5 2
    endloop
  endfacet
  facet normal 0 1 -0
    outer loop
      vertex -0.501332 2.5 1.96846
      vertex -5 2.5 2.5
      vertex -0.251162 2.5 1.99211
    endloop
  endfacet
  facet normal 0 1 -0
    outer loop
      vertex -0.749525 2.5 1.92915
      vertex -5 2.5 2.5
      vertex -0.501332 2.5 1.96846
    endloop
  endfacet
  facet normal 0 1 -0
    outer loop
      vertex -0.994759 2.5 1.87433
      vertex -5 2.5 2.5
      vertex -0.749525 2.5 1.92915
    endloop
  endfacet
  facet normal 0 1 -0
    outer loop
      vertex -1.23607 2.5 1.80423
      vertex -5 2.5 2.5
      vertex -0.994759 2.5 1.87433
    endloop
  endfacet
  facet normal 0 1 -0
    outer loop
      vertex -1.4725 2.5 1.71911
      vertex -5 2.5 2.5
      vertex -1.23607 2.5 1.80423
    endloop
  endfacet
  facet normal 0 1 -0
    outer loop
      vertex -1.70312 2.5 1.61931
      vertex -5 2.5 2.5
      vertex -1.4725 2.5 1.71911
    endloop
  endfacet
  facet normal 0 1 -0
    outer loop
      vertex -1.92701 2.5 1.50523
      vertex -5 2.5 2.5
      vertex -1.70312 2.5 1.61931
    endloop
  endfacet
  facet normal 0 1 -0
    outer loop
      vertex -2.14331 2.5 1.37731
      vertex -5 2.5 2.5
      vertex -1.92701 2.5 1.50523
    endloop
  endfacet
  facet normal 0 1 -0
    outer loop
      vertex -2.35114 2.5 1.23607
      vertex -5 2.5 2.5
      vertex -2.14331 2.5 1.37731
    endloop
  endfacet
  facet normal 0 1 -0
    outer loop
      vertex -2.5497 2.5 1.08205
      vertex -5 2.5 2.5
      vertex -2.35114 2.5 1.23607
    endloop
  endfacet
  facet normal 0 1 -0
    outer loop
      vertex -2.73819 2.5 0.915874
      vertex -5 2.5 2.5
      vertex -2.5497 2.5 1.08205
    endloop
  endfacet
  facet normal 0 1 -0
    outer loop
      vertex -2.91587 2.5 0.738188
      vertex -5 2.5 2.5
      vertex -2.73819 2.5 0.915874
    endloop
  endfacet
  facet normal 0 1 -0
    outer loop
      vertex -3.08205 2.5 0.549695
      vertex -5 2.5 2.5
      vertex -2.91587 2.5 0.738188
    endloop
  endfacet
  facet normal 0 1 -0
    outer loop
      vertex -3.23607 2.5 0.351141
      vertex -5 2.5 2.5
      vertex -3.08205 2.5 0.549695
    endloop
  endfacet
  facet normal 0 1 -0
    outer loop
      vertex -3.37731 2.5 0.143307
      vertex -5 2.5 2.5
      vertex -3.23607 2.5 0.351141
    endloop
  endfacet
  facet normal 0 1 -0
    outer loop
      vertex -3.50523 2.5 -0.0729847
      vertex -5 2.5 2.5
      vertex -3.37731 2.5 0.143307
    endloop
  endfacet
  facet normal 0 1 -0
    outer loop
      vertex -3.61931 2.5 -0.296883
      vertex -5 2.5 2.5
      vertex -3.50523 2.5 -0.0729847
    endloop
  endfacet
  facet normal 0 1 -0
    outer loop
      vertex -3.71911 2.5 -0.527501
      vertex -5 2.5 2.5
      vertex -3.61931 2.5 -0.296883
    endloop
  endfacet
  facet normal 0 1 -0
    outer loop
      vertex -3.80423 2.5 -0.763931
      vertex -5 2.5 2.5
      vertex -3.71911 2.5 -0.527501
    endloop
  endfacet
  facet normal 0 1 0
    outer loop
      vertex -5 2.5 -2.5
      vertex -3.80423 2.5 -0.763931
      vertex -3.87433 2.5 -1.00524
    endloop
  endfacet
  facet normal 0 1 0
    outer loop
      vertex -5 2.5 -2.5
      vertex -3.87433 2.5 -1.00524
      vertex -3.92915 2.5 -1.25047
    endloop
  endfacet
  facet normal 0 1 0
    outer loop
      vertex -5 2.5 -2.5
      vertex -3.92915 2.5 -1.25047
      vertex -3.96846 2.5 -1.49867
    endloop
  endfacet
  facet normal 0 1 0
    outer loop
      vertex -5 2.5 -2.5
      vertex -3.96846 2.5 -1.49867
      vertex -3.99211 2.5 -1.74884
    endloop
  endfacet
  facet normal 0 1 0
    outer loop
      vertex -5 2.5 -2.5
      vertex -3.99211 2.5 -1.74884
      vertex -4 2.5 -2
    endloop
  endfacet
  facet normal 0 1 0
    outer loop
      vertex -5 2.5 -2.5
      vertex -4 2.5 -2
      vertex -3.99211 2.5 -2.25116
    endloop
  endfacet
  facet normal 0 1 0
    outer loop
      vertex -5 2.5 -2.5
      vertex -3.99211 2.5 -2.25116
      vertex -3.96858 2.5 -2.5
    endloop
  endfacet
  facet normal 0 1 0
    outer loop
      vertex -3.80423 2.5 -0.763931
      vertex -5 2.5 -2.5
      vertex -5 2.5 2.5
    endloop
  endfacet
  facet normal -0.999507 0 -0.0313987
    outer loop
      vertex 4 -2.5 -2
      vertex 3.99211 2.5 -1.74884
      vertex 4 2.5 -2
    endloop
  endfacet
  facet normal -0.999507 -0 -0.0313987
    outer loop
      vertex 3.99211 2.5 -1.74884
      vertex 4 -2.5 -2
      vertex 3.99211 -2.5 -1.74884
    endloop
  endfacet
  facet normal -0.995561 0 -0.0941161
    outer loop
      vertex 3.99211 -2.5 -1.74884
      vertex 3.96846 2.5 -1.49867
      vertex 3.99211 2.5 -1.74884
    endloop
  endfacet
  facet normal -0.995561 -0 -0.0941161
    outer loop
      vertex 3.96846 2.5 -1.49867
      vertex 3.99211 -2.5 -1.74884
      vertex 3.96846 -2.5 -1.49867
    endloop
  endfacet
  facet normal 0.999507 0 -0.0313987
    outer loop
      vertex -3.99211 -2.5 -1.74884
      vertex -4 2.5 -2
      vertex -3.99211 2.5 -1.74884
    endloop
  endfacet
  facet normal 0.999507 0 -0.0313987
    outer loop
      vertex -4 2.5 -2
      vertex -3.99211 -2.5 -1.74884
      vertex -4 -2.5 -2
    endloop
  endfacet
  facet normal -0.0313985 0 -0.999507
    outer loop
      vertex 0 -2.5 2
      vertex 0.251162 2.5 1.99211
      vertex 0.251162 -2.5 1.99211
    endloop
  endfacet
  facet normal -0.0313985 0 -0.999507
    outer loop
      vertex 0.251162 2.5 1.99211
      vertex 0 -2.5 2
      vertex 0 2.5 2
    endloop
  endfacet
  facet normal -0.707119 0 -0.707095
    outer loop
      vertex 2.91587 -2.5 0.738188
      vertex 2.73819 2.5 0.915874
      vertex 2.91587 2.5 0.738188
    endloop
  endfacet
  facet normal -0.707119 -0 -0.707095
    outer loop
      vertex 2.73819 2.5 0.915874
      vertex 2.91587 -2.5 0.738188
      vertex 2.73819 -2.5 0.915874
    endloop
  endfacet
  facet normal 0.661311 0 -0.750112
    outer loop
      vertex -2.73819 -2.5 0.915874
      vertex -2.5497 2.5 1.08205
      vertex -2.5497 -2.5 1.08205
    endloop
  endfacet
  facet normal 0.661311 0 -0.750112
    outer loop
      vertex -2.5497 2.5 1.08205
      vertex -2.73819 -2.5 0.915874
      vertex -2.73819 2.5 0.915874
    endloop
  endfacet
  facet normal 0.338738 0 -0.940881
    outer loop
      vertex -1.4725 -2.5 1.71911
      vertex -1.23607 2.5 1.80423
      vertex -1.23607 -2.5 1.80423
    endloop
  endfacet
  facet normal 0.338738 0 -0.940881
    outer loop
      vertex -1.23607 2.5 1.80423
      vertex -1.4725 -2.5 1.71911
      vertex -1.4725 2.5 1.71911
    endloop
  endfacet
  facet normal -0.917751 0 -0.397157
    outer loop
      vertex 3.71911 -2.5 -0.527501
      vertex 3.61931 2.5 -0.296883
      vertex 3.71911 2.5 -0.527501
    endloop
  endfacet
  facet normal -0.917751 -0 -0.397157
    outer loop
      vertex 3.61931 2.5 -0.296883
      vertex 3.71911 -2.5 -0.527501
      vertex 3.61931 -2.5 -0.296883
    endloop
  endfacet
  facet normal -0.975913 0 -0.218161
    outer loop
      vertex 3.92915 -2.5 -1.25047
      vertex 3.87433 2.5 -1.00524
      vertex 3.92915 2.5 -1.25047
    endloop
  endfacet
  facet normal -0.975913 -0 -0.218161
    outer loop
      vertex 3.87433 2.5 -1.00524
      vertex 3.92915 -2.5 -1.25047
      vertex 3.87433 -2.5 -1.00524
    endloop
  endfacet
  facet normal -0.89101 0 -0.453985
    outer loop
      vertex 3.61931 -2.5 -0.296883
      vertex 3.50523 2.5 -0.0729847
      vertex 3.61931 2.5 -0.296883
    endloop
  endfacet
  facet normal -0.89101 -0 -0.453985
    outer loop
      vertex 3.50523 2.5 -0.0729847
      vertex 3.61931 -2.5 -0.296883
      vertex 3.50523 -2.5 -0.0729847
    endloop
  endfacet
  facet normal -0.750109 0 -0.661314
    outer loop
      vertex 3.08205 -2.5 0.549695
      vertex 2.91587 2.5 0.738188
      vertex 3.08205 2.5 0.549695
    endloop
  endfacet
  facet normal -0.750109 -0 -0.661314
    outer loop
      vertex 2.91587 2.5 0.738188
      vertex 3.08205 -2.5 0.549695
      vertex 2.91587 -2.5 0.738188
    endloop
  endfacet
  facet normal -0.218157 0 -0.975914
    outer loop
      vertex 0.749525 -2.5 1.92915
      vertex 0.994759 2.5 1.87433
      vertex 0.994759 -2.5 1.87433
    endloop
  endfacet
  facet normal -0.218157 0 -0.975914
    outer loop
      vertex 0.994759 2.5 1.87433
      vertex 0.749525 -2.5 1.92915
      vertex 0.749525 2.5 1.92915
    endloop
  endfacet
  facet normal -0.156435 0 -0.987688
    outer loop
      vertex 0.501332 -2.5 1.96846
      vertex 0.749525 2.5 1.92915
      vertex 0.749525 -2.5 1.92915
    endloop
  endfacet
  facet normal -0.156435 0 -0.987688
    outer loop
      vertex 0.749525 2.5 1.92915
      vertex 0.501332 -2.5 1.96846
      vertex 0.501332 2.5 1.96846
    endloop
  endfacet
  facet normal 0.790144 0 -0.612921
    outer loop
      vertex -3.08205 -2.5 0.549695
      vertex -3.23607 2.5 0.351141
      vertex -3.08205 2.5 0.549695
    endloop
  endfacet
  facet normal 0.790144 0 -0.612921
    outer loop
      vertex -3.23607 2.5 0.351141
      vertex -3.08205 -2.5 0.549695
      vertex -3.23607 -2.5 0.351141
    endloop
  endfacet
  facet normal 0.827088 0 -0.562073
    outer loop
      vertex -3.23607 -2.5 0.351141
      vertex -3.37731 2.5 0.143307
      vertex -3.23607 2.5 0.351141
    endloop
  endfacet
  facet normal 0.827088 0 -0.562073
    outer loop
      vertex -3.37731 2.5 0.143307
      vertex -3.23607 -2.5 0.351141
      vertex -3.37731 -2.5 0.143307
    endloop
  endfacet
  facet normal 0.975913 0 -0.218161
    outer loop
      vertex -3.87433 -2.5 -1.00524
      vertex -3.92915 2.5 -1.25047
      vertex -3.87433 2.5 -1.00524
    endloop
  endfacet
  facet normal 0.975913 0 -0.218161
    outer loop
      vertex -3.92915 2.5 -1.25047
      vertex -3.87433 -2.5 -1.00524
      vertex -3.92915 -2.5 -1.25047
    endloop
  endfacet
  facet normal 0.987689 0 -0.156431
    outer loop
      vertex -3.92915 -2.5 -1.25047
      vertex -3.96846 2.5 -1.49867
      vertex -3.92915 2.5 -1.25047
    endloop
  endfacet
  facet normal 0.987689 0 -0.156431
    outer loop
      vertex -3.96846 2.5 -1.49867
      vertex -3.92915 -2.5 -1.25047
      vertex -3.96846 -2.5 -1.49867
    endloop
  endfacet
  facet normal 0.509043 0 -0.860741
    outer loop
      vertex -2.14331 -2.5 1.37731
      vertex -1.92701 2.5 1.50523
      vertex -1.92701 -2.5 1.50523
    endloop
  endfacet
  facet normal 0.509043 0 -0.860741
    outer loop
      vertex -1.92701 2.5 1.50523
      vertex -2.14331 -2.5 1.37731
      vertex -2.14331 2.5 1.37731
    endloop
  endfacet
  facet normal 0.0313985 0 -0.999507
    outer loop
      vertex -0.251162 -2.5 1.99211
      vertex 0 2.5 2
      vertex 0 -2.5 2
    endloop
  endfacet
  facet normal 0.0313985 0 -0.999507
    outer loop
      vertex 0 2.5 2
      vertex -0.251162 -2.5 1.99211
      vertex -0.251162 2.5 1.99211
    endloop
  endfacet
  facet normal 0.999507 -0 0.0313987
    outer loop
      vertex -4 -2.5 -2
      vertex -3.99211 2.5 -2.25116
      vertex -4 2.5 -2
    endloop
  endfacet
  facet normal 0.999507 0 0.0313987
    outer loop
      vertex -3.99211 2.5 -2.25116
      vertex -4 -2.5 -2
      vertex -3.99211 -2.5 -2.25116
    endloop
  endfacet
  facet normal -0.987689 0 -0.156431
    outer loop
      vertex 3.96846 -2.5 -1.49867
      vertex 3.92915 2.5 -1.25047
      vertex 3.96846 2.5 -1.49867
    endloop
  endfacet
  facet normal -0.987689 -0 -0.156431
    outer loop
      vertex 3.92915 2.5 -1.25047
      vertex 3.96846 -2.5 -1.49867
      vertex 3.92915 -2.5 -1.25047
    endloop
  endfacet
  facet normal -0.940881 0 -0.338738
    outer loop
      vertex 3.80423 -2.5 -0.763931
      vertex 3.71911 2.5 -0.527501
      vertex 3.80423 2.5 -0.763931
    endloop
  endfacet
  facet normal -0.940881 -0 -0.338738
    outer loop
      vertex 3.71911 2.5 -0.527501
      vertex 3.80423 -2.5 -0.763931
      vertex 3.71911 -2.5 -0.527501
    endloop
  endfacet
  facet normal -0.960301 0 -0.278966
    outer loop
      vertex 3.87433 -2.5 -1.00524
      vertex 3.80423 2.5 -0.763931
      vertex 3.87433 2.5 -1.00524
    endloop
  endfacet
  facet normal -0.960301 -0 -0.278966
    outer loop
      vertex 3.80423 2.5 -0.763931
      vertex 3.87433 -2.5 -1.00524
      vertex 3.80423 -2.5 -0.763931
    endloop
  endfacet
  facet normal -0.790144 0 -0.612921
    outer loop
      vertex 3.23607 -2.5 0.351141
      vertex 3.08205 2.5 0.549695
      vertex 3.23607 2.5 0.351141
    endloop
  endfacet
  facet normal -0.790144 -0 -0.612921
    outer loop
      vertex 3.08205 2.5 0.549695
      vertex 3.23607 -2.5 0.351141
      vertex 3.08205 -2.5 0.549695
    endloop
  endfacet
  facet normal -0.338738 0 -0.940881
    outer loop
      vertex 1.23607 -2.5 1.80423
      vertex 1.4725 2.5 1.71911
      vertex 1.4725 -2.5 1.71911
    endloop
  endfacet
  facet normal -0.338738 0 -0.940881
    outer loop
      vertex 1.4725 2.5 1.71911
      vertex 1.23607 -2.5 1.80423
      vertex 1.23607 2.5 1.80423
    endloop
  endfacet
  facet normal -0.0941161 0 -0.995561
    outer loop
      vertex 0.251162 -2.5 1.99211
      vertex 0.501332 2.5 1.96846
      vertex 0.501332 -2.5 1.96846
    endloop
  endfacet
  facet normal -0.0941161 0 -0.995561
    outer loop
      vertex 0.501332 2.5 1.96846
      vertex 0.251162 -2.5 1.99211
      vertex 0.251162 2.5 1.99211
    endloop
  endfacet
  facet normal -0.397154 0 -0.917752
    outer loop
      vertex 1.4725 -2.5 1.71911
      vertex 1.70312 2.5 1.61931
      vertex 1.70312 -2.5 1.61931
    endloop
  endfacet
  facet normal -0.397154 0 -0.917752
    outer loop
      vertex 1.70312 2.5 1.61931
      vertex 1.4725 -2.5 1.71911
      vertex 1.4725 2.5 1.71911
    endloop
  endfacet
  facet normal -0.509043 0 -0.860741
    outer loop
      vertex 1.92701 -2.5 1.50523
      vertex 2.14331 2.5 1.37731
      vertex 2.14331 -2.5 1.37731
    endloop
  endfacet
  facet normal -0.509043 0 -0.860741
    outer loop
      vertex 2.14331 2.5 1.37731
      vertex 1.92701 -2.5 1.50523
      vertex 1.92701 2.5 1.50523
    endloop
  endfacet
  facet normal -0.56208 0 -0.827083
    outer loop
      vertex 2.14331 -2.5 1.37731
      vertex 2.35114 2.5 1.23607
      vertex 2.35114 -2.5 1.23607
    endloop
  endfacet
  facet normal -0.56208 0 -0.827083
    outer loop
      vertex 2.35114 2.5 1.23607
      vertex 2.14331 -2.5 1.37731
      vertex 2.14331 2.5 1.37731
    endloop
  endfacet
  facet normal 0.860733 0 -0.509057
    outer loop
      vertex -3.37731 -2.5 0.143307
      vertex -3.50523 2.5 -0.0729847
      vertex -3.37731 2.5 0.143307
    endloop
  endfacet
  facet normal 0.860733 0 -0.509057
    outer loop
      vertex -3.50523 2.5 -0.0729847
      vertex -3.37731 -2.5 0.143307
      vertex -3.50523 -2.5 -0.0729847
    endloop
  endfacet
  facet normal 0.917751 0 -0.397157
    outer loop
      vertex -3.61931 -2.5 -0.296883
      vertex -3.71911 2.5 -0.527501
      vertex -3.61931 2.5 -0.296883
    endloop
  endfacet
  facet normal 0.917751 0 -0.397157
    outer loop
      vertex -3.71911 2.5 -0.527501
      vertex -3.61931 -2.5 -0.296883
      vertex -3.71911 -2.5 -0.527501
    endloop
  endfacet
  facet normal 0.940881 0 -0.338738
    outer loop
      vertex -3.71911 -2.5 -0.527501
      vertex -3.80423 2.5 -0.763931
      vertex -3.71911 2.5 -0.527501
    endloop
  endfacet
  facet normal 0.940881 0 -0.338738
    outer loop
      vertex -3.80423 2.5 -0.763931
      vertex -3.71911 -2.5 -0.527501
      vertex -3.80423 -2.5 -0.763931
    endloop
  endfacet
  facet normal 0.995561 0 -0.0941161
    outer loop
      vertex -3.96846 -2.5 -1.49867
      vertex -3.99211 2.5 -1.74884
      vertex -3.96846 2.5 -1.49867
    endloop
  endfacet
  facet normal 0.995561 0 -0.0941161
    outer loop
      vertex -3.99211 2.5 -1.74884
      vertex -3.96846 -2.5 -1.49867
      vertex -3.99211 -2.5 -1.74884
    endloop
  endfacet
  facet normal 0.56208 0 -0.827083
    outer loop
      vertex -2.35114 -2.5 1.23607
      vertex -2.14331 2.5 1.37731
      vertex -2.14331 -2.5 1.37731
    endloop
  endfacet
  facet normal 0.56208 0 -0.827083
    outer loop
      vertex -2.14331 2.5 1.37731
      vertex -2.35114 -2.5 1.23607
      vertex -2.35114 2.5 1.23607
    endloop
  endfacet
  facet normal 0.453998 0 -0.891003
    outer loop
      vertex -1.92701 -2.5 1.50523
      vertex -1.70312 2.5 1.61931
      vertex -1.70312 -2.5 1.61931
    endloop
  endfacet
  facet normal 0.453998 0 -0.891003
    outer loop
      vertex -1.70312 2.5 1.61931
      vertex -1.92701 -2.5 1.50523
      vertex -1.92701 2.5 1.50523
    endloop
  endfacet
  facet normal 0.218157 0 -0.975914
    outer loop
      vertex -0.994759 -2.5 1.87433
      vertex -0.749525 2.5 1.92915
      vertex -0.749525 -2.5 1.92915
    endloop
  endfacet
  facet normal 0.218157 0 -0.975914
    outer loop
      vertex -0.749525 2.5 1.92915
      vertex -0.994759 -2.5 1.87433
      vertex -0.994759 2.5 1.87433
    endloop
  endfacet
  facet normal 0.278964 0 -0.960301
    outer loop
      vertex -1.23607 -2.5 1.80423
      vertex -0.994759 2.5 1.87433
      vertex -0.994759 -2.5 1.87433
    endloop
  endfacet
  facet normal 0.278964 0 -0.960301
    outer loop
      vertex -0.994759 2.5 1.87433
      vertex -1.23607 -2.5 1.80423
      vertex -1.23607 2.5 1.80423
    endloop
  endfacet
  facet normal -0.860733 0 -0.509057
    outer loop
      vertex 3.50523 -2.5 -0.0729847
      vertex 3.37731 2.5 0.143307
      vertex 3.50523 2.5 -0.0729847
    endloop
  endfacet
  facet normal -0.860733 -0 -0.509057
    outer loop
      vertex 3.37731 2.5 0.143307
      vertex 3.50523 -2.5 -0.0729847
      vertex 3.37731 -2.5 0.143307
    endloop
  endfacet
  facet normal -0.827088 0 -0.562073
    outer loop
      vertex 3.37731 -2.5 0.143307
      vertex 3.23607 2.5 0.351141
      vertex 3.37731 2.5 0.143307
    endloop
  endfacet
  facet normal -0.827088 -0 -0.562073
    outer loop
      vertex 3.23607 2.5 0.351141
      vertex 3.37731 -2.5 0.143307
      vertex 3.23607 -2.5 0.351141
    endloop
  endfacet
  facet normal -0.278964 0 -0.960301
    outer loop
      vertex 0.994759 -2.5 1.87433
      vertex 1.23607 2.5 1.80423
      vertex 1.23607 -2.5 1.80423
    endloop
  endfacet
  facet normal -0.278964 0 -0.960301
    outer loop
      vertex 1.23607 2.5 1.80423
      vertex 0.994759 -2.5 1.87433
      vertex 0.994759 2.5 1.87433
    endloop
  endfacet
  facet normal -0.453998 0 -0.891003
    outer loop
      vertex 1.70312 -2.5 1.61931
      vertex 1.92701 2.5 1.50523
      vertex 1.92701 -2.5 1.50523
    endloop
  endfacet
  facet normal -0.453998 0 -0.891003
    outer loop
      vertex 1.92701 2.5 1.50523
      vertex 1.70312 -2.5 1.61931
      vertex 1.70312 2.5 1.61931
    endloop
  endfacet
  facet normal -0.661311 0 -0.750112
    outer loop
      vertex 2.5497 -2.5 1.08205
      vertex 2.73819 2.5 0.915874
      vertex 2.73819 -2.5 0.915874
    endloop
  endfacet
  facet normal -0.661311 0 -0.750112
    outer loop
      vertex 2.73819 2.5 0.915874
      vertex 2.5497 -2.5 1.08205
      vertex 2.5497 2.5 1.08205
    endloop
  endfacet
  facet normal -0.61291 0 -0.790153
    outer loop
      vertex 2.35114 -2.5 1.23607
      vertex 2.5497 2.5 1.08205
      vertex 2.5497 -2.5 1.08205
    endloop
  endfacet
  facet normal -0.61291 0 -0.790153
    outer loop
      vertex 2.5497 2.5 1.08205
      vertex 2.35114 -2.5 1.23607
      vertex 2.35114 2.5 1.23607
    endloop
  endfacet
  facet normal 0.750109 0 -0.661314
    outer loop
      vertex -2.91587 -2.5 0.738188
      vertex -3.08205 2.5 0.549695
      vertex -2.91587 2.5 0.738188
    endloop
  endfacet
  facet normal 0.750109 0 -0.661314
    outer loop
      vertex -3.08205 2.5 0.549695
      vertex -2.91587 -2.5 0.738188
      vertex -3.08205 -2.5 0.549695
    endloop
  endfacet
  facet normal 0.707119 0 -0.707095
    outer loop
      vertex -2.73819 -2.5 0.915874
      vertex -2.91587 2.5 0.738188
      vertex -2.73819 2.5 0.915874
    endloop
  endfacet
  facet normal 0.707119 0 -0.707095
    outer loop
      vertex -2.91587 2.5 0.738188
      vertex -2.73819 -2.5 0.915874
      vertex -2.91587 -2.5 0.738188
    endloop
  endfacet
  facet normal 0.89101 0 -0.453985
    outer loop
      vertex -3.50523 -2.5 -0.0729847
      vertex -3.61931 2.5 -0.296883
      vertex -3.50523 2.5 -0.0729847
    endloop
  endfacet
  facet normal 0.89101 0 -0.453985
    outer loop
      vertex -3.61931 2.5 -0.296883
      vertex -3.50523 -2.5 -0.0729847
      vertex -3.61931 -2.5 -0.296883
    endloop
  endfacet
  facet normal 0.960301 0 -0.278966
    outer loop
      vertex -3.80423 -2.5 -0.763931
      vertex -3.87433 2.5 -1.00524
      vertex -3.80423 2.5 -0.763931
    endloop
  endfacet
  facet normal 0.960301 0 -0.278966
    outer loop
      vertex -3.87433 2.5 -1.00524
      vertex -3.80423 -2.5 -0.763931
      vertex -3.87433 -2.5 -1.00524
    endloop
  endfacet
  facet normal 0.61291 0 -0.790153
    outer loop
      vertex -2.5497 -2.5 1.08205
      vertex -2.35114 2.5 1.23607
      vertex -2.35114 -2.5 1.23607
    endloop
  endfacet
  facet normal 0.61291 0 -0.790153
    outer loop
      vertex -2.35114 2.5 1.23607
      vertex -2.5497 -2.5 1.08205
      vertex -2.5497 2.5 1.08205
    endloop
  endfacet
  facet normal 0.397154 0 -0.917752
    outer loop
      vertex -1.70312 -2.5 1.61931
      vertex -1.4725 2.5 1.71911
      vertex -1.4725 -2.5 1.71911
    endloop
  endfacet
  facet normal 0.397154 0 -0.917752
    outer loop
      vertex -1.4725 2.5 1.71911
      vertex -1.70312 -2.5 1.61931
      vertex -1.70312 2.5 1.61931
    endloop
  endfacet
  facet normal 0.0941161 0 -0.995561
    outer loop
      vertex -0.501332 -2.5 1.96846
      vertex -0.251162 2.5 1.99211
      vertex -0.251162 -2.5 1.99211
    endloop
  endfacet
  facet normal 0.0941161 0 -0.995561
    outer loop
      vertex -0.251162 2.5 1.99211
      vertex -0.501332 -2.5 1.96846
      vertex -0.501332 2.5 1.96846
    endloop
  endfacet
  facet normal 0.156435 0 -0.987688
    outer loop
      vertex -0.749525 -2.5 1.92915
      vertex -0.501332 2.5 1.96846
      vertex -0.501332 -2.5 1.96846
    endloop
  endfacet
  facet normal 0.156435 0 -0.987688
    outer loop
      vertex -0.501332 2.5 1.96846
      vertex -0.749525 -2.5 1.92915
      vertex -0.749525 2.5 1.92915
    endloop
  endfacet
  facet normal 0.995559 -0 0.0941388
    outer loop
      vertex -3.99211 -2.5 -2.25116
      vertex -3.96858 2.5 -2.5
      vertex -3.99211 2.5 -2.25116
    endloop
  endfacet
  facet normal 0.995559 0 0.0941388
    outer loop
      vertex -3.96858 2.5 -2.5
      vertex -3.99211 -2.5 -2.25116
      vertex -3.96858 -2.5 -2.5
    endloop
  endfacet
  facet normal -0.995559 0 0.0941388
    outer loop
      vertex 3.96858 -2.5 -2.5
      vertex 3.99211 2.5 -2.25116
      vertex 3.96858 2.5 -2.5
    endloop
  endfacet
  facet normal -0.995559 0 0.0941388
    outer loop
      vertex 3.99211 2.5 -2.25116
      vertex 3.96858 -2.5 -2.5
      vertex 3.99211 -2.5 -2.25116
    endloop
  endfacet
  facet normal -0.999507 0 0.0313987
    outer loop
      vertex 3.99211 -2.5 -2.25116
      vertex 4 2.5 -2
      vertex 3.99211 2.5 -2.25116
    endloop
  endfacet
  facet normal -0.999507 0 0.0313987
    outer loop
      vertex 4 2.5 -2
      vertex 3.99211 -2.5 -2.25116
      vertex 4 -2.5 -2
    endloop
  endfacet
endsolid OpenSCAD_Model
