solid OpenSCAD_Model
  facet normal -1 0 0
    outer loop
      vertex -5 -2.5 -2.5
      vertex -5 2.5 2.5
      vertex -5 2.5 -2.5
    endloop
  endfacet
  facet normal -1 -0 0
    outer loop
      vertex -5 2.5 2.5
      vertex -5 -2.5 -2.5
      vertex -5 -2.5 2.5
    endloop
  endfacet
  facet normal -0 0 1
    outer loop
      vertex -5 2.5 2.5
      vertex 5 -2.5 2.5
      vertex 5 2.5 2.5
    endloop
  endfacet
  facet normal 0 0 1
    outer loop
      vertex 5 -2.5 2.5
      vertex -5 2.5 2.5
      vertex -5 -2.5 2.5
    endloop
  endfacet
  facet normal 1 -0 0
    outer loop
      vertex 5 -2.5 2.5
      vertex 5 2.5 -2.5
      vertex 5 2.5 2.5
    endloop
  endfacet
  facet normal 1 0 0
    outer loop
      vertex 5 2.5 -2.5
      vertex 5 -2.5 2.5
      vertex 5 -2.5 -2.5
    endloop
  endfacet
  facet normal 0 1 0
    outer loop
      vertex 5 2.5 2.5
      vertex 0 2.5 1.9
      vertex -5 2.5 2.5
    endloop
  endfacet
  facet normal 0 1 0
    outer loop
      vertex 5 2.5 2.5
      vertex 0.244883 2.5 1.8923
      vertex 0 2.5 1.9
    endloop
  endfacet
  facet normal 0 1 0
    outer loop
      vertex 5 2.5 2.5
      vertex 0.488799 2.5 1.86925
      vertex 0.244883 2.5 1.8923
    endloop
  endfacet
  facet normal 0 1 0
    outer loop
      vertex 5 2.5 2.5
      vertex 0.730786 2.5 1.83092
      vertex 0.488799 2.5 1.86925
    endloop
  endfacet
  facet normal 0 1 0
    outer loop
      vertex 5 2.5 2.5
      vertex 0.96989 2.5 1.77747
      vertex 0.730786 2.5 1.83092
    endloop
  endfacet
  facet normal 0 1 0
    outer loop
      vertex 5 2.5 2.5
      vertex 1.20517 2.5 1.70912
      vertex 0.96989 2.5 1.77747
    endloop
  endfacet
  facet normal 0 1 0
    outer loop
      vertex 5 2.5 2.5
      vertex 1.43569 2.5 1.62613
      vertex 1.20517 2.5 1.70912
    endloop
  endfacet
  facet normal 0 1 0
    outer loop
      vertex 5 2.5 2.5
      vertex 1.66054 2.5 1.52882
      vertex 1.43569 2.5 1.62613
    endloop
  endfacet
  facet normal 0 1 0
    outer loop
      vertex 5 2.5 2.5
      vertex 1.87884 2.5 1.4176
      vertex 1.66054 2.5 1.52882
    endloop
  endfacet
  facet normal 0 1 0
    outer loop
      vertex 5 2.5 2.5
      vertex 2.08972 2.5 1.29288
      vertex 1.87884 2.5 1.4176
    endloop
  endfacet
  facet normal 0 1 0
    outer loop
      vertex 5 2.5 2.5
      vertex 2.29236 2.5 1.15517
      vertex 2.08972 2.5 1.29288
    endloop
  endfacet
  facet normal 0 1 0
    outer loop
      vertex 5 2.5 2.5
      vertex 2.48595 2.5 1.005
      vertex 2.29236 2.5 1.15517
    endloop
  endfacet
  facet normal 0 1 0
    outer loop
      vertex 5 2.5 2.5
      vertex 2.66973 2.5 0.842978
      vertex 2.48595 2.5 1.005
    endloop
  endfacet
  facet normal 0 1 0
    outer loop
      vertex 5 2.5 2.5
      vertex 2.84298 2.5 0.669733
      vertex 2.66973 2.5 0.842978
    endloop
  endfacet
  facet normal 0 1 0
    outer loop
      vertex 5 2.5 2.5
      vertex 3.005 2.5 0.485953
      vertex 2.84298 2.5 0.669733
    endloop
  endfacet
  facet normal 0 1 0
    outer loop
      vertex 5 2.5 2.5
      vertex 3.15517 2.5 0.292362
      vertex 3.005 2.5 0.485953
    endloop
  endfacet
  facet normal 0 1 0
    outer loop
      vertex 5 2.5 2.5
      vertex 3.29288 2.5 0.0897236
      vertex 3.15517 2.5 0.292362
    endloop
  endfacet
  facet normal 0 1 0
    outer loop
      vertex 5 2.5 2.5
      vertex 3.4176 2.5 -0.121161
      vertex 3.29288 2.5 0.0897236
    endloop
  endfacet
  facet normal 0 1 0
    outer loop
      vertex 5 2.5 2.5
      vertex 3.52882 2.5 -0.33946
      vertex 3.4176 2.5 -0.121161
    endloop
  endfacet
  facet normal 0 1 0
    outer loop
      vertex 5 2.5 2.5
      vertex 3.62613 2.5 -0.564314
      vertex 3.52882 2.5 -0.33946
    endloop
  endfacet
  facet normal 0 1 0
    outer loop
      vertex 5 2.5 2.5
      vertex 3.70912 2.5 -0.794833
      vertex 3.62613 2.5 -0.564314
    endloop
  endfacet
  facet normal 0 1 -0
    outer loop
      vertex 5 2.5 -2.5
      vertex 3.70912 2.5 -0.794833
      vertex 5 2.5 2.5
    endloop
  endfacet
  facet normal 0 1 0
    outer loop
      vertex 3.70912 2.5 -0.794833
      vertex 5 2.5 -2.5
      vertex 3.77747 2.5 -1.03011
    endloop
  endfacet
  facet normal 0 1 0
    outer loop
      vertex 3.77747 2.5 -1.03011
      vertex 5 2.5 -2.5
      vertex 3.83092 2.5 -1.26921
    endloop
  endfacet
  facet normal 0 1 0
    outer loop
      vertex 3.83092 2.5 -1.26921
      vertex 5 2.5 -2.5
      vertex 3.86925 2.5 -1.5112
    endloop
  endfacet
  facet normal 0 1 0
    outer loop
      vertex 3.86925 2.5 -1.5112
      vertex 5 2.5 -2.5
      vertex 3.8923 2.5 -1.75512
    endloop
  endfacet
  facet normal 0 1 0
    outer loop
      vertex 3.8923 2.5 -1.75512
      vertex 5 2.5 -2.5
      vertex 3.9 2.5 -2
    endloop
  endfacet
  facet normal 0 1 0
    outer loop
      vertex 3.9 2.5 -2
      vertex 5 2.5 -2.5
      vertex 3.8923 2.5 -2.24488
    endloop
  endfacet
  facet normal 0 1 0
    outer loop
      vertex 3.8923 2.5 -2.24488
      vertex 5 2.5 -2.5
      vertex 3.86925 2.5 -2.4888
    endloop
  endfacet
  facet normal 0 1 0
    outer loop
      vertex 3.86925 2.5 -2.4888
      vertex 5 2.5 -2.5
      vertex 3.86747 2.5 -2.5
    endloop
  endfacet
  facet normal 0 1 -0
    outer loop
      vertex -0.244883 2.5 1.8923
      vertex -5 2.5 2.5
      vertex 0 2.5 1.9
    endloop
  endfacet
  facet normal 0 1 -0
    outer loop
      vertex -0.488799 2.5 1.86925
      vertex -5 2.5 2.5
      vertex -0.244883 2.5 1.8923
    endloop
  endfacet
  facet normal 0 1 -0
    outer loop
      vertex -0.730786 2.5 1.83092
      vertex -5 2.5 2.5
      vertex -0.488799 2.5 1.86925
    endloop
  endfacet
  facet normal 0 1 -0
    outer loop
      vertex -0.96989 2.5 1.77747
      vertex -5 2.5 2.5
      vertex -0.730786 2.5 1.83092
    endloop
  endfacet
  facet normal 0 1 -0
    outer loop
      vertex -1.20517 2.5 1.70912
      vertex -5 2.5 2.5
      vertex -0.96989 2.5 1.77747
    endloop
  endfacet
  facet normal 0 1 -0
    outer loop
      vertex -1.43569 2.5 1.62613
      vertex -5 2.5 2.5
      vertex -1.20517 2.5 1.70912
    endloop
  endfacet
  facet normal 0 1 -0
    outer loop
      vertex -1.66054 2.5 1.52882
      vertex -5 2.5 2.5
      vertex -1.43569 2.5 1.62613
    endloop
  endfacet
  facet normal 0 1 -0
    outer loop
      vertex -1.87884 2.5 1.4176
      vertex -5 2.5 2.5
      vertex -1.66054 2.5 1.52882
    endloop
  endfacet
  facet normal 0 1 -0
    outer loop
      vertex -2.08972 2.5 1.29288
      vertex -5 2.5 2.5
      vertex -1.87884 2.5 1.4176
    endloop
  endfacet
  facet normal 0 1 -0
    outer loop
      vertex -2.29236 2.5 1.15517
      vertex -5 2.5 2.5
      vertex -2.08972 2.5 1.29288
    endloop
  endfacet
  facet normal 0 1 -0
    outer loop
      vertex -2.48595 2.5 1.005
      vertex -5 2.5 2.5
      vertex -2.29236 2.5 1.15517
    endloop
  endfacet
  facet normal 0 1 -0
    outer loop
      vertex -2.66973 2.5 0.842978
      vertex -5 2.5 2.5
      vertex -2.48595 2.5 1.005
    endloop
  endfacet
  facet normal 0 1 -0
    outer loop
      vertex -2.84298 2.5 0.669733
      vertex -5 2.5 2.5
      vertex -2.66973 2.5 0.842978
    endloop
  endfacet
  facet normal 0 1 -0
    outer loop
      vertex -3.005 2.5 0.485953
      vertex -5 2.5 2.5
      vertex -2.84298 2.5 0.669733
    endloop
  endfacet
  facet normal 0 1 -0
    outer loop
      vertex -3.15517 2.5 0.292362
      vertex -5 2.5 2.5
      vertex -3.005 2.5 0.485953
    endloop
  endfacet
  facet normal 0 1 -0
    outer loop
      vertex -3.29288 2.5 0.0897236
      vertex -5 2.5 2.5
      vertex -3.15517 2.5 0.292362
    endloop
  endfacet
  facet normal 0 1 -0
    outer loop
      vertex -3.4176 2.5 -0.121161
      vertex -5 2.5 2.5
      vertex -3.29288 2.5 0.0897236
    endloop
  endfacet
  facet normal 0 1 -0
    outer loop
      vertex -3.52882 2.5 -0.33946
      vertex -5 2.5 2.5
      vertex -3.4176 2.5 -0.121161
    endloop
  endfacet
  facet normal 0 1 -0
    outer loop
      vertex -3.62613 2.5 -0.564314
      vertex -5 2.5 2.5
      vertex -3.52882 2.5 -0.33946
    endloop
  endfacet
  facet normal 0 1 -0
    outer loop
      vertex -3.70912 2.5 -0.794833
      vertex -5 2.5 2.5
      vertex -3.62613 2.5 -0.564314
    endloop
  endfacet
  facet normal 0 1 0
    outer loop
      vertex -5 2.5 -2.5
      vertex -3.70912 2.5 -0.794833
      vertex -3.77747 2.5 -1.03011
    endloop
  endfacet
  facet normal 0 1 0
    outer loop
      vertex -5 2.5 -2.5
      vertex -3.77747 2.5 -1.03011
      vertex -3.83092 2.5 -1.26921
    endloop
  endfacet
  facet normal 0 1 0
    outer loop
      vertex -5 2.5 -2.5
      vertex -3.83092 2.5 -1.26921
      vertex -3.86925 2.5 -1.5112
    endloop
  endfacet
  facet normal 0 1 0
    outer loop
      vertex -5 2.5 -2.5
      vertex -3.86925 2.5 -1.5112
      vertex -3.8923 2.5 -1.75512
    endloop
  endfacet
  facet normal 0 1 0
    outer loop
      vertex -5 2.5 -2.5
      vertex -3.8923 2.5 -1.75512
      vertex -3.9 2.5 -2
    endloop
  endfacet
  facet normal 0 1 0
    outer loop
      vertex -5 2.5 -2.5
      vertex -3.9 2.5 -2
      vertex -3.8923 2.5 -2.24488
    endloop
  endfacet
  facet normal 0 1 0
    outer loop
      vertex -5 2.5 -2.5
      vertex -3.8923 2.5 -2.24488
      vertex -3.86925 2.5 -2.4888
    endloop
  endfacet
  facet normal 0 1 0
    outer loop
      vertex -5 2.5 -2.5
      vertex -3.86925 2.5 -2.4888
      vertex -3.86747 2.5 -2.5
    endloop
  endfacet
  facet normal 0 1 0
    outer loop
      vertex -3.70912 2.5 -0.794833
      vertex -5 2.5 -2.5
      vertex -5 2.5 2.5
    endloop
  endfacet
  facet normal 0 0 -1
    outer loop
      vertex -5 -2.5 -2.5
      vertex -3.86747 2.5 -2.5
      vertex -3.86747 -2.5 -2.5
    endloop
  endfacet
  facet normal -0 0 -1
    outer loop
      vertex -3.86747 2.5 -2.5
      vertex -5 -2.5 -2.5
      vertex -5 2.5 -2.5
    endloop
  endfacet
  facet normal 0 0 -1
    outer loop
      vertex 3.86747 -2.5 -2.5
      vertex 5 2.5 -2.5
      vertex 5 -2.5 -2.5
    endloop
  endfacet
  facet normal -0 0 -1
    outer loop
      vertex 5 2.5 -2.5
      vertex 3.86747 -2.5 -2.5
      vertex 3.86747 2.5 -2.5
    endloop
  endfacet
  facet normal 0 -1 0
    outer loop
      vertex -5 -2.5 2.5
      vertex 0 -2.5 1.9
      vertex 5 -2.5 2.5
    endloop
  endfacet
  facet normal 0 -1 0
    outer loop
      vertex -5 -2.5 2.5
      vertex -0.244883 -2.5 1.8923
      vertex 0 -2.5 1.9
    endloop
  endfacet
  facet normal 0 -1 0
    outer loop
      vertex -5 -2.5 2.5
      vertex -0.488799 -2.5 1.86925
      vertex -0.244883 -2.5 1.8923
    endloop
  endfacet
  facet normal 0 -1 0
    outer loop
      vertex -5 -2.5 2.5
      vertex -0.730786 -2.5 1.83092
      vertex -0.488799 -2.5 1.86925
    endloop
  endfacet
  facet normal 0 -1 0
    outer loop
      vertex -5 -2.5 2.5
      vertex -0.96989 -2.5 1.77747
      vertex -0.730786 -2.5 1.83092
    endloop
  endfacet
  facet normal 0 -1 0
    outer loop
      vertex -5 -2.5 2.5
      vertex -1.20517 -2.5 1.70912
      vertex -0.96989 -2.5 1.77747
    endloop
  endfacet
  facet normal 0 -1 0
    outer loop
      vertex -5 -2.5 2.5
      vertex -1.43569 -2.5 1.62613
      vertex -1.20517 -2.5 1.70912
    endloop
  endfacet
  facet normal 0 -1 0
    outer loop
      vertex -5 -2.5 2.5
      vertex -1.66054 -2.5 1.52882
      vertex -1.43569 -2.5 1.62613
    endloop
  endfacet
  facet normal 0 -1 0
    outer loop
      vertex -5 -2.5 2.5
      vertex -1.87884 -2.5 1.4176
      vertex -1.66054 -2.5 1.52882
    endloop
  endfacet
  facet normal 0 -1 0
    outer loop
      vertex -5 -2.5 2.5
      vertex -2.08972 -2.5 1.29288
      vertex -1.87884 -2.5 1.4176
    endloop
  endfacet
  facet normal 0 -1 0
    outer loop
      vertex -5 -2.5 2.5
      vertex -2.29236 -2.5 1.15517
      vertex -2.08972 -2.5 1.29288
    endloop
  endfacet
  facet normal 0 -1 0
    outer loop
      vertex -5 -2.5 2.5
      vertex -2.48595 -2.5 1.005
      vertex -2.29236 -2.5 1.15517
    endloop
  endfacet
  facet normal 0 -1 0
    outer loop
      vertex -5 -2.5 2.5
      vertex -2.66973 -2.5 0.842978
      vertex -2.48595 -2.5 1.005
    endloop
  endfacet
  facet normal 0 -1 0
    outer loop
      vertex -5 -2.5 2.5
      vertex -2.84298 -2.5 0.669733
      vertex -2.66973 -2.5 0.842978
    endloop
  endfacet
  facet normal 0 -1 0
    outer loop
      vertex -5 -2.5 2.5
      vertex -3.005 -2.5 0.485953
      vertex -2.84298 -2.5 0.669733
    endloop
  endfacet
  facet normal 0 -1 0
    outer loop
      vertex -5 -2.5 2.5
      vertex -3.15517 -2.5 0.292362
      vertex -3.005 -2.5 0.485953
    endloop
  endfacet
  facet normal 0 -1 0
    outer loop
      vertex -5 -2.5 2.5
      vertex -3.29288 -2.5 0.0897236
      vertex -3.15517 -2.5 0.292362
    endloop
  endfacet
  facet normal 0 -1 0
    outer loop
      vertex -5 -2.5 2.5
      vertex -3.4176 -2.5 -0.121161
      vertex -3.29288 -2.5 0.0897236
    endloop
  endfacet
  facet normal 0 -1 0
    outer loop
      vertex -5 -2.5 2.5
      vertex -3.52882 -2.5 -0.33946
      vertex -3.4176 -2.5 -0.121161
    endloop
  endfacet
  facet normal 0 -1 0
    outer loop
      vertex -5 -2.5 2.5
      vertex -3.62613 -2.5 -0.564314
      vertex -3.52882 -2.5 -0.33946
    endloop
  endfacet
  facet normal 0 -1 0
    outer loop
      vertex -5 -2.5 2.5
      vertex -3.70912 -2.5 -0.794833
      vertex -3.62613 -2.5 -0.564314
    endloop
  endfacet
  facet normal 0 -1 0
    outer loop
      vertex -5 -2.5 -2.5
      vertex -3.70912 -2.5 -0.794833
      vertex -5 -2.5 2.5
    endloop
  endfacet
  facet normal 0 -1 0
    outer loop
      vertex -3.70912 -2.5 -0.794833
      vertex -5 -2.5 -2.5
      vertex -3.77747 -2.5 -1.03011
    endloop
  endfacet
  facet normal 0 -1 0
    outer loop
      vertex -3.77747 -2.5 -1.03011
      vertex -5 -2.5 -2.5
      vertex -3.83092 -2.5 -1.26921
    endloop
  endfacet
  facet normal 0 -1 0
    outer loop
      vertex -3.83092 -2.5 -1.26921
      vertex -5 -2.5 -2.5
      vertex -3.86925 -2.5 -1.5112
    endloop
  endfacet
  facet normal 0 -1 0
    outer loop
      vertex -3.86925 -2.5 -1.5112
      vertex -5 -2.5 -2.5
      vertex -3.8923 -2.5 -1.75512
    endloop
  endfacet
  facet normal 0 -1 0
    outer loop
      vertex -3.8923 -2.5 -1.75512
      vertex -5 -2.5 -2.5
      vertex -3.9 -2.5 -2
    endloop
  endfacet
  facet normal 0 -1 -0
    outer loop
      vertex -3.9 -2.5 -2
      vertex -5 -2.5 -2.5
      vertex -3.8923 -2.5 -2.24488
    endloop
  endfacet
  facet normal 0 -1 -0
    outer loop
      vertex -3.8923 -2.5 -2.24488
      vertex -5 -2.5 -2.5
      vertex -3.86925 -2.5 -2.4888
    endloop
  endfacet
  facet normal 0 -1 -0
    outer loop
      vertex -3.86925 -2.5 -2.4888
      vertex -5 -2.5 -2.5
      vertex -3.86747 -2.5 -2.5
    endloop
  endfacet
  facet normal 0 -1 0
    outer loop
      vertex 0.244883 -2.5 1.8923
      vertex 5 -2.5 2.5
      vertex 0 -2.5 1.9
    endloop
  endfacet
  facet normal 0 -1 0
    outer loop
      vertex 0.488799 -2.5 1.86925
      vertex 5 -2.5 2.5
      vertex 0.244883 -2.5 1.8923
    endloop
  endfacet
  facet normal 0 -1 0
    outer loop
      vertex 0.730786 -2.5 1.83092
      vertex 5 -2.5 2.5
      vertex 0.488799 -2.5 1.86925
    endloop
  endfacet
  facet normal 0 -1 0
    outer loop
      vertex 0.96989 -2.5 1.77747
      vertex 5 -2.5 2.5
      vertex 0.730786 -2.5 1.83092
    endloop
  endfacet
  facet normal 0 -1 0
    outer loop
      vertex 1.20517 -2.5 1.70912
      vertex 5 -2.5 2.5
      vertex 0.96989 -2.5 1.77747
    endloop
  endfacet
  facet normal 0 -1 0
    outer loop
      vertex 1.43569 -2.5 1.62613
      vertex 5 -2.5 2.5
      vertex 1.20517 -2.5 1.70912
    endloop
  endfacet
  facet normal 0 -1 0
    outer loop
      vertex 1.66054 -2.5 1.52882
      vertex 5 -2.5 2.5
      vertex 1.43569 -2.5 1.62613
    endloop
  endfacet
  facet normal 0 -1 0
    outer loop
      vertex 1.87884 -2.5 1.4176
      vertex 5 -2.5 2.5
      vertex 1.66054 -2.5 1.52882
    endloop
  endfacet
  facet normal 0 -1 0
    outer loop
      vertex 2.08972 -2.5 1.29288
      vertex 5 -2.5 2.5
      vertex 1.87884 -2.5 1.4176
    endloop
  endfacet
  facet normal 0 -1 0
    outer loop
      vertex 2.29236 -2.5 1.15517
      vertex 5 -2.5 2.5
      vertex 2.08972 -2.5 1.29288
    endloop
  endfacet
  facet normal 0 -1 0
    outer loop
      vertex 2.48595 -2.5 1.005
      vertex 5 -2.5 2.5
      vertex 2.29236 -2.5 1.15517
    endloop
  endfacet
  facet normal 0 -1 0
    outer loop
      vertex 2.66973 -2.5 0.842978
      vertex 5 -2.5 2.5
      vertex 2.48595 -2.5 1.005
    endloop
  endfacet
  facet normal 0 -1 0
    outer loop
      vertex 2.84298 -2.5 0.669733
      vertex 5 -2.5 2.5
      vertex 2.66973 -2.5 0.842978
    endloop
  endfacet
  facet normal 0 -1 0
    outer loop
      vertex 3.005 -2.5 0.485953
      vertex 5 -2.5 2.5
      vertex 2.84298 -2.5 0.669733
    endloop
  endfacet
  facet normal 0 -1 0
    outer loop
      vertex 3.15517 -2.5 0.292362
      vertex 5 -2.5 2.5
      vertex 3.005 -2.5 0.485953
    endloop
  endfacet
  facet normal 0 -1 0
    outer loop
      vertex 3.29288 -2.5 0.0897236
      vertex 5 -2.5 2.5
      vertex 3.15517 -2.5 0.292362
    endloop
  endfacet
  facet normal 0 -1 0
    outer loop
      vertex 3.4176 -2.5 -0.121161
      vertex 5 -2.5 2.5
      vertex 3.29288 -2.5 0.0897236
    endloop
  endfacet
  facet normal 0 -1 0
    outer loop
      vertex 3.52882 -2.5 -0.33946
      vertex 5 -2.5 2.5
      vertex 3.4176 -2.5 -0.121161
    endloop
  endfacet
  facet normal 0 -1 0
    outer loop
      vertex 3.62613 -2.5 -0.564314
      vertex 5 -2.5 2.5
      vertex 3.52882 -2.5 -0.33946
    endloop
  endfacet
  facet normal 0 -1 0
    outer loop
      vertex 3.70912 -2.5 -0.794833
      vertex 5 -2.5 2.5
      vertex 3.62613 -2.5 -0.564314
    endloop
  endfacet
  facet normal 0 -1 0
    outer loop
      vertex 5 -2.5 -2.5
      vertex 3.70912 -2.5 -0.794833
      vertex 3.77747 -2.5 -1.03011
    endloop
  endfacet
  facet normal 0 -1 0
    outer loop
      vertex 5 -2.5 -2.5
      vertex 3.77747 -2.5 -1.03011
      vertex 3.83092 -2.5 -1.26921
    endloop
  endfacet
  facet normal 0 -1 0
    outer loop
      vertex 5 -2.5 -2.5
      vertex 3.83092 -2.5 -1.26921
      vertex 3.86925 -2.5 -1.5112
    endloop
  endfacet
  facet normal 0 -1 0
    outer loop
      vertex 5 -2.5 -2.5
      vertex 3.86925 -2.5 -1.5112
      vertex 3.8923 -2.5 -1.75512
    endloop
  endfacet
  facet normal 0 -1 0
    outer loop
      vertex 5 -2.5 -2.5
      vertex 3.8923 -2.5 -1.75512
      vertex 3.9 -2.5 -2
    endloop
  endfacet
  facet normal 0 -1 0
    outer loop
      vertex 5 -2.5 -2.5
      vertex 3.9 -2.5 -2
      vertex 3.8923 -2.5 -2.24488
    endloop
  endfacet
  facet normal 0 -1 0
    outer loop
      vertex 5 -2.5 -2.5
      vertex 3.8923 -2.5 -2.24488
      vertex 3.86925 -2.5 -2.4888
    endloop
  endfacet
  facet normal 0 -1 0
    outer loop
      vertex 5 -2.5 -2.5
      vertex 3.86925 -2.5 -2.4888
      vertex 3.86747 -2.5 -2.5
    endloop
  endfacet
  facet normal 0 -1 0
    outer loop
      vertex 3.70912 -2.5 -0.794833
      vertex 5 -2.5 -2.5
      vertex 5 -2.5 2.5
    endloop
  endfacet
  facet normal -0.999506 0 -0.0314284
    outer loop
      vertex 3.9 -2.5 -2
      vertex 3.8923 2.5 -1.75512
      vertex 3.9 2.5 -2
    endloop
  endfacet
  facet normal -0.999506 -0 -0.0314284
    outer loop
      vertex 3.8923 2.5 -1.75512
      vertex 3.9 -2.5 -2
      vertex 3.8923 -2.5 -1.75512
    endloop
  endfacet
  facet normal -0.995565 0 -0.0940791
    outer loop
      vertex 3.8923 -2.5 -1.75512
      vertex 3.86925 2.5 -1.5112
      vertex 3.8923 2.5 -1.75512
    endloop
  endfacet
  facet normal -0.995565 -0 -0.0940791
    outer loop
      vertex 3.86925 2.5 -1.5112
      vertex 3.8923 -2.5 -1.75512
      vertex 3.86925 -2.5 -1.5112
    endloop
  endfacet
  facet normal 0.999506 0 -0.0314284
    outer loop
      vertex -3.8923 -2.5 -1.75512
      vertex -3.9 2.5 -2
      vertex -3.8923 2.5 -1.75512
    endloop
  endfacet
  facet normal 0.999506 0 -0.0314284
    outer loop
      vertex -3.9 2.5 -2
      vertex -3.8923 -2.5 -1.75512
      vertex -3.9 -2.5 -2
    endloop
  endfacet
  facet normal -0.0314281 0 -0.999506
    outer loop
      vertex 0 -2.5 1.9
      vertex 0.244883 2.5 1.8923
      vertex 0.244883 -2.5 1.8923
    endloop
  endfacet
  facet normal -0.0314281 0 -0.999506
    outer loop
      vertex 0.244883 2.5 1.8923
      vertex 0 -2.5 1.9
      vertex 0 2.5 1.9
    endloop
  endfacet
  facet normal -0.707097 0 -0.707117
    outer loop
      vertex 2.84298 -2.5 0.669733
      vertex 2.66973 2.5 0.842978
      vertex 2.84298 2.5 0.669733
    endloop
  endfacet
  facet normal -0.707097 -0 -0.707117
    outer loop
      vertex 2.66973 2.5 0.842978
      vertex 2.84298 -2.5 0.669733
      vertex 2.66973 -2.5 0.842978
    endloop
  endfacet
  facet normal 0.661308 0 -0.750115
    outer loop
      vertex -2.66973 -2.5 0.842978
      vertex -2.48595 2.5 1.005
      vertex -2.48595 -2.5 1.005
    endloop
  endfacet
  facet normal 0.661308 0 -0.750115
    outer loop
      vertex -2.48595 2.5 1.005
      vertex -2.66973 -2.5 0.842978
      vertex -2.66973 2.5 0.842978
    endloop
  endfacet
  facet normal 0.33873 0 -0.940884
    outer loop
      vertex -1.43569 -2.5 1.62613
      vertex -1.20517 2.5 1.70912
      vertex -1.20517 -2.5 1.70912
    endloop
  endfacet
  facet normal 0.33873 0 -0.940884
    outer loop
      vertex -1.20517 2.5 1.70912
      vertex -1.43569 -2.5 1.62613
      vertex -1.43569 2.5 1.62613
    endloop
  endfacet
  facet normal -0.917744 0 -0.397172
    outer loop
      vertex 3.62613 -2.5 -0.564314
      vertex 3.52882 2.5 -0.33946
      vertex 3.62613 2.5 -0.564314
    endloop
  endfacet
  facet normal -0.917744 -0 -0.397172
    outer loop
      vertex 3.52882 2.5 -0.33946
      vertex 3.62613 -2.5 -0.564314
      vertex 3.52882 -2.5 -0.33946
    endloop
  endfacet
  facet normal -0.975913 0 -0.218162
    outer loop
      vertex 3.83092 -2.5 -1.26921
      vertex 3.77747 2.5 -1.03011
      vertex 3.83092 2.5 -1.26921
    endloop
  endfacet
  facet normal -0.975913 -0 -0.218162
    outer loop
      vertex 3.77747 2.5 -1.03011
      vertex 3.83092 -2.5 -1.26921
      vertex 3.77747 -2.5 -1.03011
    endloop
  endfacet
  facet normal -0.891021 0 -0.453962
    outer loop
      vertex 3.52882 -2.5 -0.33946
      vertex 3.4176 2.5 -0.121161
      vertex 3.52882 2.5 -0.33946
    endloop
  endfacet
  facet normal -0.891021 -0 -0.453962
    outer loop
      vertex 3.4176 2.5 -0.121161
      vertex 3.52882 -2.5 -0.33946
      vertex 3.4176 -2.5 -0.121161
    endloop
  endfacet
  facet normal -0.750119 0 -0.661303
    outer loop
      vertex 3.005 -2.5 0.485953
      vertex 2.84298 2.5 0.669733
      vertex 3.005 2.5 0.485953
    endloop
  endfacet
  facet normal -0.750119 -0 -0.661303
    outer loop
      vertex 2.84298 2.5 0.669733
      vertex 3.005 -2.5 0.485953
      vertex 2.84298 -2.5 0.669733
    endloop
  endfacet
  facet normal -0.218158 0 -0.975913
    outer loop
      vertex 0.730786 -2.5 1.83092
      vertex 0.96989 2.5 1.77747
      vertex 0.96989 -2.5 1.77747
    endloop
  endfacet
  facet normal -0.218158 0 -0.975913
    outer loop
      vertex 0.96989 2.5 1.77747
      vertex 0.730786 -2.5 1.83092
      vertex 0.730786 2.5 1.83092
    endloop
  endfacet
  facet normal -0.156447 0 -0.987686
    outer loop
      vertex 0.488799 -2.5 1.86925
      vertex 0.730786 2.5 1.83092
      vertex 0.730786 -2.5 1.83092
    endloop
  endfacet
  facet normal -0.156447 0 -0.987686
    outer loop
      vertex 0.730786 2.5 1.83092
      vertex 0.488799 -2.5 1.86925
      vertex 0.488799 2.5 1.86925
    endloop
  endfacet
  facet normal 0.790144 0 -0.612921
    outer loop
      vertex -3.005 -2.5 0.485953
      vertex -3.15517 2.5 0.292362
      vertex -3.005 2.5 0.485953
    endloop
  endfacet
  facet normal 0.790144 0 -0.612921
    outer loop
      vertex -3.15517 2.5 0.292362
      vertex -3.005 -2.5 0.485953
      vertex -3.15517 -2.5 0.292362
    endloop
  endfacet
  facet normal 0.827086 0 -0.562075
    outer loop
      vertex -3.15517 -2.5 0.292362
      vertex -3.29288 2.5 0.0897236
      vertex -3.15517 2.5 0.292362
    endloop
  endfacet
  facet normal 0.827086 0 -0.562075
    outer loop
      vertex -3.29288 2.5 0.0897236
      vertex -3.15517 -2.5 0.292362
      vertex -3.29288 -2.5 0.0897236
    endloop
  endfacet
  facet normal 0.975913 0 -0.218162
    outer loop
      vertex -3.77747 -2.5 -1.03011
      vertex -3.83092 2.5 -1.26921
      vertex -3.77747 2.5 -1.03011
    endloop
  endfacet
  facet normal 0.975913 0 -0.218162
    outer loop
      vertex -3.83092 2.5 -1.26921
      vertex -3.77747 -2.5 -1.03011
      vertex -3.83092 -2.5 -1.26921
    endloop
  endfacet
  facet normal 0.987687 0 -0.156445
    outer loop
      vertex -3.83092 -2.5 -1.26921
      vertex -3.86925 2.5 -1.5112
      vertex -3.83092 2.5 -1.26921
    endloop
  endfacet
  facet normal 0.987687 0 -0.156445
    outer loop
      vertex -3.86925 2.5 -1.5112
      vertex -3.83092 -2.5 -1.26921
      vertex -3.86925 -2.5 -1.5112
    endloop
  endfacet
  facet normal 0.509059 0 -0.860731
    outer loop
      vertex -2.08972 -2.5 1.29288
      vertex -1.87884 2.5 1.4176
      vertex -1.87884 -2.5 1.4176
    endloop
  endfacet
  facet normal 0.509059 0 -0.860731
    outer loop
      vertex -1.87884 2.5 1.4176
      vertex -2.08972 -2.5 1.29288
      vertex -2.08972 2.5 1.29288
    endloop
  endfacet
  facet normal 0.0314281 0 -0.999506
    outer loop
      vertex -0.244883 -2.5 1.8923
      vertex 0 2.5 1.9
      vertex 0 -2.5 1.9
    endloop
  endfacet
  facet normal 0.0314281 0 -0.999506
    outer loop
      vertex 0 2.5 1.9
      vertex -0.244883 -2.5 1.8923
      vertex -0.244883 2.5 1.8923
    endloop
  endfacet
  facet normal 0.999506 -0 0.0314284
    outer loop
      vertex -3.9 -2.5 -2
      vertex -3.8923 2.5 -2.24488
      vertex -3.9 2.5 -2
    endloop
  endfacet
  facet normal 0.999506 0 0.0314284
    outer loop
      vertex -3.8923 2.5 -2.24488
      vertex -3.9 -2.5 -2
      vertex -3.8923 -2.5 -2.24488
    endloop
  endfacet
  facet normal -0.987687 0 -0.156445
    outer loop
      vertex 3.86925 -2.5 -1.5112
      vertex 3.83092 2.5 -1.26921
      vertex 3.86925 2.5 -1.5112
    endloop
  endfacet
  facet normal -0.987687 -0 -0.156445
    outer loop
      vertex 3.83092 2.5 -1.26921
      vertex 3.86925 -2.5 -1.5112
      vertex 3.83092 -2.5 -1.26921
    endloop
  endfacet
  facet normal -0.940883 0 -0.338731
    outer loop
      vertex 3.70912 -2.5 -0.794833
      vertex 3.62613 2.5 -0.564314
      vertex 3.70912 2.5 -0.794833
    endloop
  endfacet
  facet normal -0.940883 -0 -0.338731
    outer loop
      vertex 3.62613 2.5 -0.564314
      vertex 3.70912 -2.5 -0.794833
      vertex 3.62613 -2.5 -0.564314
    endloop
  endfacet
  facet normal -0.960298 0 -0.278975
    outer loop
      vertex 3.77747 -2.5 -1.03011
      vertex 3.70912 2.5 -0.794833
      vertex 3.77747 2.5 -1.03011
    endloop
  endfacet
  facet normal -0.960298 -0 -0.278975
    outer loop
      vertex 3.70912 2.5 -0.794833
      vertex 3.77747 -2.5 -1.03011
      vertex 3.70912 -2.5 -0.794833
    endloop
  endfacet
  facet normal -0.790144 0 -0.612921
    outer loop
      vertex 3.15517 -2.5 0.292362
      vertex 3.005 2.5 0.485953
      vertex 3.15517 2.5 0.292362
    endloop
  endfacet
  facet normal -0.790144 -0 -0.612921
    outer loop
      vertex 3.005 2.5 0.485953
      vertex 3.15517 -2.5 0.292362
      vertex 3.005 -2.5 0.485953
    endloop
  endfacet
  facet normal -0.33873 0 -0.940884
    outer loop
      vertex 1.20517 -2.5 1.70912
      vertex 1.43569 2.5 1.62613
      vertex 1.43569 -2.5 1.62613
    endloop
  endfacet
  facet normal -0.33873 0 -0.940884
    outer loop
      vertex 1.43569 2.5 1.62613
      vertex 1.20517 -2.5 1.70912
      vertex 1.20517 2.5 1.70912
    endloop
  endfacet
  facet normal -0.0940806 0 -0.995565
    outer loop
      vertex 0.244883 -2.5 1.8923
      vertex 0.488799 2.5 1.86925
      vertex 0.488799 -2.5 1.86925
    endloop
  endfacet
  facet normal -0.0940806 0 -0.995565
    outer loop
      vertex 0.488799 2.5 1.86925
      vertex 0.244883 -2.5 1.8923
      vertex 0.244883 2.5 1.8923
    endloop
  endfacet
  facet normal -0.397178 0 -0.917742
    outer loop
      vertex 1.43569 -2.5 1.62613
      vertex 1.66054 2.5 1.52882
      vertex 1.66054 -2.5 1.52882
    endloop
  endfacet
  facet normal -0.397178 0 -0.917742
    outer loop
      vertex 1.66054 2.5 1.52882
      vertex 1.43569 -2.5 1.62613
      vertex 1.43569 2.5 1.62613
    endloop
  endfacet
  facet normal -0.509059 0 -0.860731
    outer loop
      vertex 1.87884 -2.5 1.4176
      vertex 2.08972 2.5 1.29288
      vertex 2.08972 -2.5 1.29288
    endloop
  endfacet
  facet normal -0.509059 0 -0.860731
    outer loop
      vertex 2.08972 2.5 1.29288
      vertex 1.87884 -2.5 1.4176
      vertex 1.87884 2.5 1.4176
    endloop
  endfacet
  facet normal -0.562072 0 -0.827088
    outer loop
      vertex 2.08972 -2.5 1.29288
      vertex 2.29236 2.5 1.15517
      vertex 2.29236 -2.5 1.15517
    endloop
  endfacet
  facet normal -0.562072 0 -0.827088
    outer loop
      vertex 2.29236 2.5 1.15517
      vertex 2.08972 -2.5 1.29288
      vertex 2.08972 2.5 1.29288
    endloop
  endfacet
  facet normal 0.860736 0 -0.509051
    outer loop
      vertex -3.29288 -2.5 0.0897236
      vertex -3.4176 2.5 -0.121161
      vertex -3.29288 2.5 0.0897236
    endloop
  endfacet
  facet normal 0.860736 0 -0.509051
    outer loop
      vertex -3.4176 2.5 -0.121161
      vertex -3.29288 -2.5 0.0897236
      vertex -3.4176 -2.5 -0.121161
    endloop
  endfacet
  facet normal 0.917744 0 -0.397172
    outer loop
      vertex -3.52882 -2.5 -0.33946
      vertex -3.62613 2.5 -0.564314
      vertex -3.52882 2.5 -0.33946
    endloop
  endfacet
  facet normal 0.917744 0 -0.397172
    outer loop
      vertex -3.62613 2.5 -0.564314
      vertex -3.52882 -2.5 -0.33946
      vertex -3.62613 -2.5 -0.564314
    endloop
  endfacet
  facet normal 0.940883 0 -0.338731
    outer loop
      vertex -3.62613 -2.5 -0.564314
      vertex -3.70912 2.5 -0.794833
      vertex -3.62613 2.5 -0.564314
    endloop
  endfacet
  facet normal 0.940883 0 -0.338731
    outer loop
      vertex -3.70912 2.5 -0.794833
      vertex -3.62613 -2.5 -0.564314
      vertex -3.70912 -2.5 -0.794833
    endloop
  endfacet
  facet normal 0.995565 0 -0.0940791
    outer loop
      vertex -3.86925 -2.5 -1.5112
      vertex -3.8923 2.5 -1.75512
      vertex -3.86925 2.5 -1.5112
    endloop
  endfacet
  facet normal 0.995565 0 -0.0940791
    outer loop
      vertex -3.8923 2.5 -1.75512
      vertex -3.86925 -2.5 -1.5112
      vertex -3.8923 -2.5 -1.75512
    endloop
  endfacet
  facet normal 0.562072 0 -0.827088
    outer loop
      vertex -2.29236 -2.5 1.15517
      vertex -2.08972 2.5 1.29288
      vertex -2.08972 -2.5 1.29288
    endloop
  endfacet
  facet normal 0.562072 0 -0.827088
    outer loop
      vertex -2.08972 2.5 1.29288
      vertex -2.29236 -2.5 1.15517
      vertex -2.29236 2.5 1.15517
    endloop
  endfacet
  facet normal 0.45396 0 -0.891022
    outer loop
      vertex -1.87884 -2.5 1.4176
      vertex -1.66054 2.5 1.52882
      vertex -1.66054 -2.5 1.52882
    endloop
  endfacet
  facet normal 0.45396 0 -0.891022
    outer loop
      vertex -1.66054 2.5 1.52882
      vertex -1.87884 -2.5 1.4176
      vertex -1.87884 2.5 1.4176
    endloop
  endfacet
  facet normal 0.218158 0 -0.975913
    outer loop
      vertex -0.96989 -2.5 1.77747
      vertex -0.730786 2.5 1.83092
      vertex -0.730786 -2.5 1.83092
    endloop
  endfacet
  facet normal 0.218158 0 -0.975913
    outer loop
      vertex -0.730786 2.5 1.83092
      vertex -0.96989 -2.5 1.77747
      vertex -0.96989 2.5 1.77747
    endloop
  endfacet
  facet normal 0.278972 0 -0.960299
    outer loop
      vertex -1.20517 -2.5 1.70912
      vertex -0.96989 2.5 1.77747
      vertex -0.96989 -2.5 1.77747
    endloop
  endfacet
  facet normal 0.278972 0 -0.960299
    outer loop
      vertex -0.96989 2.5 1.77747
      vertex -1.20517 -2.5 1.70912
      vertex -1.20517 2.5 1.70912
    endloop
  endfacet
  facet normal -0.999506 0 0.0314284
    outer loop
      vertex 3.8923 -2.5 -2.24488
      vertex 3.9 2.5 -2
      vertex 3.8923 2.5 -2.24488
    endloop
  endfacet
  facet normal -0.999506 0 0.0314284
    outer loop
      vertex 3.9 2.5 -2
      vertex 3.8923 -2.5 -2.24488
      vertex 3.9 -2.5 -2
    endloop
  endfacet
  facet normal -0.860736 0 -0.509051
    outer loop
      vertex 3.4176 -2.5 -0.121161
      vertex 3.29288 2.5 0.0897236
      vertex 3.4176 2.5 -0.121161
    endloop
  endfacet
  facet normal -0.860736 -0 -0.509051
    outer loop
      vertex 3.29288 2.5 0.0897236
      vertex 3.4176 -2.5 -0.121161
      vertex 3.29288 -2.5 0.0897236
    endloop
  endfacet
  facet normal -0.827086 0 -0.562075
    outer loop
      vertex 3.29288 -2.5 0.0897236
      vertex 3.15517 2.5 0.292362
      vertex 3.29288 2.5 0.0897236
    endloop
  endfacet
  facet normal -0.827086 -0 -0.562075
    outer loop
      vertex 3.15517 2.5 0.292362
      vertex 3.29288 -2.5 0.0897236
      vertex 3.15517 -2.5 0.292362
    endloop
  endfacet
  facet normal -0.278972 0 -0.960299
    outer loop
      vertex 0.96989 -2.5 1.77747
      vertex 1.20517 2.5 1.70912
      vertex 1.20517 -2.5 1.70912
    endloop
  endfacet
  facet normal -0.278972 0 -0.960299
    outer loop
      vertex 1.20517 2.5 1.70912
      vertex 0.96989 -2.5 1.77747
      vertex 0.96989 2.5 1.77747
    endloop
  endfacet
  facet normal -0.45396 0 -0.891022
    outer loop
      vertex 1.66054 -2.5 1.52882
      vertex 1.87884 2.5 1.4176
      vertex 1.87884 -2.5 1.4176
    endloop
  endfacet
  facet normal -0.45396 0 -0.891022
    outer loop
      vertex 1.87884 2.5 1.4176
      vertex 1.66054 -2.5 1.52882
      vertex 1.66054 2.5 1.52882
    endloop
  endfacet
  facet normal -0.661308 0 -0.750115
    outer loop
      vertex 2.48595 -2.5 1.005
      vertex 2.66973 2.5 0.842978
      vertex 2.66973 -2.5 0.842978
    endloop
  endfacet
  facet normal -0.661308 0 -0.750115
    outer loop
      vertex 2.66973 2.5 0.842978
      vertex 2.48595 -2.5 1.005
      vertex 2.48595 2.5 1.005
    endloop
  endfacet
  facet normal -0.612923 0 -0.790143
    outer loop
      vertex 2.29236 -2.5 1.15517
      vertex 2.48595 2.5 1.005
      vertex 2.48595 -2.5 1.005
    endloop
  endfacet
  facet normal -0.612923 0 -0.790143
    outer loop
      vertex 2.48595 2.5 1.005
      vertex 2.29236 -2.5 1.15517
      vertex 2.29236 2.5 1.15517
    endloop
  endfacet
  facet normal 0.750119 0 -0.661303
    outer loop
      vertex -2.84298 -2.5 0.669733
      vertex -3.005 2.5 0.485953
      vertex -2.84298 2.5 0.669733
    endloop
  endfacet
  facet normal 0.750119 0 -0.661303
    outer loop
      vertex -3.005 2.5 0.485953
      vertex -2.84298 -2.5 0.669733
      vertex -3.005 -2.5 0.485953
    endloop
  endfacet
  facet normal 0.707097 0 -0.707117
    outer loop
      vertex -2.66973 -2.5 0.842978
      vertex -2.84298 2.5 0.669733
      vertex -2.66973 2.5 0.842978
    endloop
  endfacet
  facet normal 0.707097 0 -0.707117
    outer loop
      vertex -2.84298 2.5 0.669733
      vertex -2.66973 -2.5 0.842978
      vertex -2.84298 -2.5 0.669733
    endloop
  endfacet
  facet normal 0.891021 0 -0.453962
    outer loop
      vertex -3.4176 -2.5 -0.121161
      vertex -3.52882 2.5 -0.33946
      vertex -3.4176 2.5 -0.121161
    endloop
  endfacet
  facet normal 0.891021 0 -0.453962
    outer loop
      vertex -3.52882 2.5 -0.33946
      vertex -3.4176 -2.5 -0.121161
      vertex -3.52882 -2.5 -0.33946
    endloop
  endfacet
  facet normal 0.960298 0 -0.278975
    outer loop
      vertex -3.70912 -2.5 -0.794833
      vertex -3.77747 2.5 -1.03011
      vertex -3.70912 2.5 -0.794833
    endloop
  endfacet
  facet normal 0.960298 0 -0.278975
    outer loop
      vertex -3.77747 2.5 -1.03011
      vertex -3.70912 -2.5 -0.794833
      vertex -3.77747 -2.5 -1.03011
    endloop
  endfacet
  facet normal 0.612923 0 -0.790143
    outer loop
      vertex -2.48595 -2.5 1.005
      vertex -2.29236 2.5 1.15517
      vertex -2.29236 -2.5 1.15517
    endloop
  endfacet
  facet normal 0.612923 0 -0.790143
    outer loop
      vertex -2.29236 2.5 1.15517
      vertex -2.48595 -2.5 1.005
      vertex -2.48595 2.5 1.005
    endloop
  endfacet
  facet normal 0.397178 0 -0.917742
    outer loop
      vertex -1.66054 -2.5 1.52882
      vertex -1.43569 2.5 1.62613
      vertex -1.43569 -2.5 1.62613
    endloop
  endfacet
  facet normal 0.397178 0 -0.917742
    outer loop
      vertex -1.43569 2.5 1.62613
      vertex -1.66054 -2.5 1.52882
      vertex -1.66054 2.5 1.52882
    endloop
  endfacet
  facet normal 0.0940806 0 -0.995565
    outer loop
      vertex -0.488799 -2.5 1.86925
      vertex -0.244883 2.5 1.8923
      vertex -0.244883 -2.5 1.8923
    endloop
  endfacet
  facet normal 0.0940806 0 -0.995565
    outer loop
      vertex -0.244883 2.5 1.8923
      vertex -0.488799 -2.5 1.86925
      vertex -0.488799 2.5 1.86925
    endloop
  endfacet
  facet normal 0.156447 0 -0.987686
    outer loop
      vertex -0.730786 -2.5 1.83092
      vertex -0.488799 2.5 1.86925
      vertex -0.488799 -2.5 1.86925
    endloop
  endfacet
  facet normal 0.156447 0 -0.987686
    outer loop
      vertex -0.488799 2.5 1.86925
      vertex -0.730786 -2.5 1.83092
      vertex -0.730786 2.5 1.83092
    endloop
  endfacet
  facet normal 0.995565 -0 0.0940791
    outer loop
      vertex -3.8923 -2.5 -2.24488
      vertex -3.86925 2.5 -2.4888
      vertex -3.8923 2.5 -2.24488
    endloop
  endfacet
  facet normal 0.995565 0 0.0940791
    outer loop
      vertex -3.86925 2.5 -2.4888
      vertex -3.8923 -2.5 -2.24488
      vertex -3.86925 -2.5 -2.4888
    endloop
  endfacet
  facet normal 0.987605 -0 0.156959
    outer loop
      vertex -3.86925 -2.5 -2.4888
      vertex -3.86747 2.5 -2.5
      vertex -3.86925 2.5 -2.4888
    endloop
  endfacet
  facet normal 0.987605 0 0.156959
    outer loop
      vertex -3.86747 2.5 -2.5
      vertex -3.86925 -2.5 -2.4888
      vertex -3.86747 -2.5 -2.5
    endloop
  endfacet
  facet normal -0.987605 0 0.156959
    outer loop
      vertex 3.86747 -2.5 -2.5
      vertex 3.86925 2.5 -2.4888
      vertex 3.86747 2.5 -2.5
    endloop
  endfacet
  facet normal -0.987605 0 0.156959
    outer loop
      vertex 3.86925 2.5 -2.4888
      vertex 3.86747 -2.5 -2.5
      vertex 3.86925 -2.5 -2.4888
    endloop
  endfacet
  facet normal -0.995565 0 0.0940791
    outer loop
      vertex 3.86925 -2.5 -2.4888
      vertex 3.8923 2.5 -2.24488
      vertex 3.86925 2.5 -2.4888
    endloop
  endfacet
  facet normal -0.995565 0 0.0940791
    outer loop
      vertex 3.8923 2.5 -2.24488
      vertex 3.86925 -2.5 -2.4888
      vertex 3.8923 -2.5 -2.24488
    endloop
  endfacet
endsolid OpenSCAD_Model
