solid OpenSCAD_Model
  facet normal -1 0 0
    outer loop
      vertex -5 -2.5 -2.5
      vertex -5 2.5 2.5
      vertex -5 2.5 -2.5
    endloop
  endfacet
  facet normal -1 -0 0
    outer loop
      vertex -5 2.5 2.5
      vertex -5 -2.5 -2.5
      vertex -5 -2.5 2.5
    endloop
  endfacet
  facet normal -0 0 1
    outer loop
      vertex -5 2.5 2.5
      vertex 5 -2.5 2.5
      vertex 5 2.5 2.5
    endloop
  endfacet
  facet normal 0 0 1
    outer loop
      vertex 5 -2.5 2.5
      vertex -5 2.5 2.5
      vertex -5 -2.5 2.5
    endloop
  endfacet
  facet normal 1 -0 0
    outer loop
      vertex 5 -2.5 2.5
      vertex 5 2.5 -2.5
      vertex 5 2.5 2.5
    endloop
  endfacet
  facet normal 1 0 0
    outer loop
      vertex 5 2.5 -2.5
      vertex 5 -2.5 2.5
      vertex 5 -2.5 -2.5
    endloop
  endfacet
  facet normal 0 1 0
    outer loop
      vertex 5 2.5 2.5
      vertex 0 2.5 0
      vertex -5 2.5 2.5
    endloop
  endfacet
  facet normal 0 1 0
    outer loop
      vertex 5 2.5 2.5
      vertex 0.188371 2.5 -0.00591946
      vertex 0 2.5 0
    endloop
  endfacet
  facet normal 0 1 0
    outer loop
      vertex 5 2.5 2.5
      vertex 0.375999 2.5 -0.0236559
      vertex 0.188371 2.5 -0.00591946
    endloop
  endfacet
  facet normal 0 1 0
    outer loop
      vertex 5 2.5 2.5
      vertex 0.562143 2.5 -0.0531378
      vertex 0.375999 2.5 -0.0236559
    endloop
  endfacet
  facet normal 0 1 0
    outer loop
      vertex 5 2.5 2.5
      vertex 0.746069 2.5 -0.0942497
      vertex 0.562143 2.5 -0.0531378
    endloop
  endfacet
  facet normal 0 1 0
    outer loop
      vertex 5 2.5 2.5
      vertex 0.927051 2.5 -0.14683
      vertex 0.746069 2.5 -0.0942497
    endloop
  endfacet
  facet normal 0 1 0
    outer loop
      vertex 5 2.5 2.5
      vertex 1.10437 2.5 -0.21067
      vertex 0.927051 2.5 -0.14683
    endloop
  endfacet
  facet normal 0 1 0
    outer loop
      vertex 5 2.5 2.5
      vertex 1.27734 2.5 -0.285519
      vertex 1.10437 2.5 -0.21067
    endloop
  endfacet
  facet normal 0 1 0
    outer loop
      vertex 5 2.5 2.5
      vertex 1.44526 2.5 -0.371079
      vertex 1.27734 2.5 -0.285519
    endloop
  endfacet
  facet normal 0 1 0
    outer loop
      vertex 5 2.5 2.5
      vertex 1.60748 2.5 -0.467016
      vertex 1.44526 2.5 -0.371079
    endloop
  endfacet
  facet normal 0 1 0
    outer loop
      vertex 5 2.5 2.5
      vertex 1.76336 2.5 -0.572948
      vertex 1.60748 2.5 -0.467016
    endloop
  endfacet
  facet normal 0 1 0
    outer loop
      vertex 5 2.5 2.5
      vertex 1.91227 2.5 -0.688459
      vertex 1.76336 2.5 -0.572948
    endloop
  endfacet
  facet normal 0 1 0
    outer loop
      vertex 5 2.5 2.5
      vertex 2.05364 2.5 -0.813093
      vertex 1.91227 2.5 -0.688459
    endloop
  endfacet
  facet normal 0 1 0
    outer loop
      vertex 5 2.5 2.5
      vertex 2.18691 2.5 -0.946359
      vertex 2.05364 2.5 -0.813093
    endloop
  endfacet
  facet normal 0 1 0
    outer loop
      vertex 5 2.5 2.5
      vertex 2.31154 2.5 -1.08773
      vertex 2.18691 2.5 -0.946359
    endloop
  endfacet
  facet normal 0 1 0
    outer loop
      vertex 5 2.5 2.5
      vertex 2.42705 2.5 -1.23664
      vertex 2.31154 2.5 -1.08773
    endloop
  endfacet
  facet normal 0 1 0
    outer loop
      vertex 5 2.5 2.5
      vertex 2.53298 2.5 -1.39252
      vertex 2.42705 2.5 -1.23664
    endloop
  endfacet
  facet normal 0 1 -0
    outer loop
      vertex 5 2.5 -2.5
      vertex 2.53298 2.5 -1.39252
      vertex 5 2.5 2.5
    endloop
  endfacet
  facet normal 0 1 0
    outer loop
      vertex 2.53298 2.5 -1.39252
      vertex 5 2.5 -2.5
      vertex 2.62892 2.5 -1.55474
    endloop
  endfacet
  facet normal 0 1 0
    outer loop
      vertex 2.62892 2.5 -1.55474
      vertex 5 2.5 -2.5
      vertex 2.71448 2.5 -1.72266
    endloop
  endfacet
  facet normal 0 1 0
    outer loop
      vertex 2.71448 2.5 -1.72266
      vertex 5 2.5 -2.5
      vertex 2.78933 2.5 -1.89563
    endloop
  endfacet
  facet normal 0 1 0
    outer loop
      vertex 2.78933 2.5 -1.89563
      vertex 5 2.5 -2.5
      vertex 2.85317 2.5 -2.07295
    endloop
  endfacet
  facet normal 0 1 0
    outer loop
      vertex 2.85317 2.5 -2.07295
      vertex 5 2.5 -2.5
      vertex 2.90575 2.5 -2.25393
    endloop
  endfacet
  facet normal 0 1 0
    outer loop
      vertex 2.90575 2.5 -2.25393
      vertex 5 2.5 -2.5
      vertex 2.94686 2.5 -2.43786
    endloop
  endfacet
  facet normal 0 1 0
    outer loop
      vertex 2.94686 2.5 -2.43786
      vertex 5 2.5 -2.5
      vertex 2.9567 2.5 -2.5
    endloop
  endfacet
  facet normal 0 1 -0
    outer loop
      vertex -0.188371 2.5 -0.00591946
      vertex -5 2.5 2.5
      vertex 0 2.5 0
    endloop
  endfacet
  facet normal 0 1 -0
    outer loop
      vertex -0.375999 2.5 -0.0236559
      vertex -5 2.5 2.5
      vertex -0.188371 2.5 -0.00591946
    endloop
  endfacet
  facet normal 0 1 -0
    outer loop
      vertex -0.562143 2.5 -0.0531378
      vertex -5 2.5 2.5
      vertex -0.375999 2.5 -0.0236559
    endloop
  endfacet
  facet normal 0 1 -0
    outer loop
      vertex -0.746069 2.5 -0.0942497
      vertex -5 2.5 2.5
      vertex -0.562143 2.5 -0.0531378
    endloop
  endfacet
  facet normal 0 1 -0
    outer loop
      vertex -0.927051 2.5 -0.14683
      vertex -5 2.5 2.5
      vertex -0.746069 2.5 -0.0942497
    endloop
  endfacet
  facet normal 0 1 -0
    outer loop
      vertex -1.10437 2.5 -0.21067
      vertex -5 2.5 2.5
      vertex -0.927051 2.5 -0.14683
    endloop
  endfacet
  facet normal 0 1 -0
    outer loop
      vertex -1.27734 2.5 -0.285519
      vertex -5 2.5 2.5
      vertex -1.10437 2.5 -0.21067
    endloop
  endfacet
  facet normal 0 1 -0
    outer loop
      vertex -1.44526 2.5 -0.371079
      vertex -5 2.5 2.5
      vertex -1.27734 2.5 -0.285519
    endloop
  endfacet
  facet normal 0 1 -0
    outer loop
      vertex -1.60748 2.5 -0.467016
      vertex -5 2.5 2.5
      vertex -1.44526 2.5 -0.371079
    endloop
  endfacet
  facet normal 0 1 -0
    outer loop
      vertex -1.76336 2.5 -0.572948
      vertex -5 2.5 2.5
      vertex -1.60748 2.5 -0.467016
    endloop
  endfacet
  facet normal 0 1 -0
    outer loop
      vertex -1.91227 2.5 -0.688459
      vertex -5 2.5 2.5
      vertex -1.76336 2.5 -0.572948
    endloop
  endfacet
  facet normal 0 1 -0
    outer loop
      vertex -2.05364 2.5 -0.813093
      vertex -5 2.5 2.5
      vertex -1.91227 2.5 -0.688459
    endloop
  endfacet
  facet normal 0 1 -0
    outer loop
      vertex -2.18691 2.5 -0.946359
      vertex -5 2.5 2.5
      vertex -2.05364 2.5 -0.813093
    endloop
  endfacet
  facet normal 0 1 -0
    outer loop
      vertex -2.31154 2.5 -1.08773
      vertex -5 2.5 2.5
      vertex -2.18691 2.5 -0.946359
    endloop
  endfacet
  facet normal 0 1 -0
    outer loop
      vertex -2.42705 2.5 -1.23664
      vertex -5 2.5 2.5
      vertex -2.31154 2.5 -1.08773
    endloop
  endfacet
  facet normal 0 1 -0
    outer loop
      vertex -2.53298 2.5 -1.39252
      vertex -5 2.5 2.5
      vertex -2.42705 2.5 -1.23664
    endloop
  endfacet
  facet normal 0 1 0
    outer loop
      vertex -5 2.5 -2.5
      vertex -2.53298 2.5 -1.39252
      vertex -2.62892 2.5 -1.55474
    endloop
  endfacet
  facet normal 0 1 0
    outer loop
      vertex -5 2.5 -2.5
      vertex -2.62892 2.5 -1.55474
      vertex -2.71448 2.5 -1.72266
    endloop
  endfacet
  facet normal 0 1 0
    outer loop
      vertex -5 2.5 -2.5
      vertex -2.71448 2.5 -1.72266
      vertex -2.78933 2.5 -1.89563
    endloop
  endfacet
  facet normal 0 1 0
    outer loop
      vertex -5 2.5 -2.5
      vertex -2.78933 2.5 -1.89563
      vertex -2.85317 2.5 -2.07295
    endloop
  endfacet
  facet normal 0 1 0
    outer loop
      vertex -5 2.5 -2.5
      vertex -2.85317 2.5 -2.07295
      vertex -2.90575 2.5 -2.25393
    endloop
  endfacet
  facet normal 0 1 0
    outer loop
      vertex -5 2.5 -2.5
      vertex -2.90575 2.5 -2.25393
      vertex -2.94686 2.5 -2.43786
    endloop
  endfacet
  facet normal 0 1 0
    outer loop
      vertex -5 2.5 -2.5
      vertex -2.94686 2.5 -2.43786
      vertex -2.9567 2.5 -2.5
    endloop
  endfacet
  facet normal 0 1 0
    outer loop
      vertex -2.53298 2.5 -1.39252
      vertex -5 2.5 -2.5
      vertex -5 2.5 2.5
    endloop
  endfacet
  facet normal 0 0 -1
    outer loop
      vertex -5 -2.5 -2.5
      vertex -2.9567 2.5 -2.5
      vertex -2.9567 -2.5 -2.5
    endloop
  endfacet
  facet normal -0 0 -1
    outer loop
      vertex -2.9567 2.5 -2.5
      vertex -5 -2.5 -2.5
      vertex -5 2.5 -2.5
    endloop
  endfacet
  facet normal 0 0 -1
    outer loop
      vertex 2.9567 -2.5 -2.5
      vertex 5 2.5 -2.5
      vertex 5 -2.5 -2.5
    endloop
  endfacet
  facet normal -0 0 -1
    outer loop
      vertex 5 2.5 -2.5
      vertex 2.9567 -2.5 -2.5
      vertex 2.9567 2.5 -2.5
    endloop
  endfacet
  facet normal 0 -1 0
    outer loop
      vertex -5 -2.5 2.5
      vertex 0 -2.5 0
      vertex 5 -2.5 2.5
    endloop
  endfacet
  facet normal 0 -1 0
    outer loop
      vertex -5 -2.5 2.5
      vertex -0.188371 -2.5 -0.00591946
      vertex 0 -2.5 0
    endloop
  endfacet
  facet normal 0 -1 0
    outer loop
      vertex -5 -2.5 2.5
      vertex -0.375999 -2.5 -0.0236559
      vertex -0.188371 -2.5 -0.00591946
    endloop
  endfacet
  facet normal 0 -1 0
    outer loop
      vertex -5 -2.5 2.5
      vertex -0.562143 -2.5 -0.0531378
      vertex -0.375999 -2.5 -0.0236559
    endloop
  endfacet
  facet normal 0 -1 0
    outer loop
      vertex -5 -2.5 2.5
      vertex -0.746069 -2.5 -0.0942497
      vertex -0.562143 -2.5 -0.0531378
    endloop
  endfacet
  facet normal 0 -1 0
    outer loop
      vertex -5 -2.5 2.5
      vertex -0.927051 -2.5 -0.14683
      vertex -0.746069 -2.5 -0.0942497
    endloop
  endfacet
  facet normal 0 -1 0
    outer loop
      vertex -5 -2.5 2.5
      vertex -1.10437 -2.5 -0.21067
      vertex -0.927051 -2.5 -0.14683
    endloop
  endfacet
  facet normal 0 -1 0
    outer loop
      vertex -5 -2.5 2.5
      vertex -1.27734 -2.5 -0.285519
      vertex -1.10437 -2.5 -0.21067
    endloop
  endfacet
  facet normal 0 -1 0
    outer loop
      vertex -5 -2.5 2.5
      vertex -1.44526 -2.5 -0.371079
      vertex -1.27734 -2.5 -0.285519
    endloop
  endfacet
  facet normal 0 -1 0
    outer loop
      vertex -5 -2.5 2.5
      vertex -1.60748 -2.5 -0.467016
      vertex -1.44526 -2.5 -0.371079
    endloop
  endfacet
  facet normal 0 -1 0
    outer loop
      vertex -5 -2.5 2.5
      vertex -1.76336 -2.5 -0.572948
      vertex -1.60748 -2.5 -0.467016
    endloop
  endfacet
  facet normal 0 -1 0
    outer loop
      vertex -5 -2.5 2.5
      vertex -1.91227 -2.5 -0.688459
      vertex -1.76336 -2.5 -0.572948
    endloop
  endfacet
  facet normal 0 -1 0
    outer loop
      vertex -5 -2.5 2.5
      vertex -2.05364 -2.5 -0.813093
      vertex -1.91227 -2.5 -0.688459
    endloop
  endfacet
  facet normal 0 -1 0
    outer loop
      vertex -5 -2.5 2.5
      vertex -2.18691 -2.5 -0.946359
      vertex -2.05364 -2.5 -0.813093
    endloop
  endfacet
  facet normal 0 -1 0
    outer loop
      vertex -5 -2.5 2.5
      vertex -2.31154 -2.5 -1.08773
      vertex -2.18691 -2.5 -0.946359
    endloop
  endfacet
  facet normal 0 -1 0
    outer loop
      vertex -5 -2.5 2.5
      vertex -2.42705 -2.5 -1.23664
      vertex -2.31154 -2.5 -1.08773
    endloop
  endfacet
  facet normal 0 -1 0
    outer loop
      vertex -5 -2.5 2.5
      vertex -2.53298 -2.5 -1.39252
      vertex -2.42705 -2.5 -1.23664
    endloop
  endfacet
  facet normal 0 -1 0
    outer loop
      vertex -5 -2.5 -2.5
      vertex -2.53298 -2.5 -1.39252
      vertex -5 -2.5 2.5
    endloop
  endfacet
  facet normal 0 -1 0
    outer loop
      vertex -2.53298 -2.5 -1.39252
      vertex -5 -2.5 -2.5
      vertex -2.62892 -2.5 -1.55474
    endloop
  endfacet
  facet normal 0 -1 0
    outer loop
      vertex -2.62892 -2.5 -1.55474
      vertex -5 -2.5 -2.5
      vertex -2.71448 -2.5 -1.72266
    endloop
  endfacet
  facet normal 0 -1 0
    outer loop
      vertex -2.71448 -2.5 -1.72266
      vertex -5 -2.5 -2.5
      vertex -2.78933 -2.5 -1.89563
    endloop
  endfacet
  facet normal 0 -1 0
    outer loop
      vertex -2.78933 -2.5 -1.89563
      vertex -5 -2.5 -2.5
      vertex -2.85317 -2.5 -2.07295
    endloop
  endfacet
  facet normal 0 -1 0
    outer loop
      vertex -2.85317 -2.5 -2.07295
      vertex -5 -2.5 -2.5
      vertex -2.90575 -2.5 -2.25393
    endloop
  endfacet
  facet normal 0 -1 0
    outer loop
      vertex -2.90575 -2.5 -2.25393
      vertex -5 -2.5 -2.5
      vertex -2.94686 -2.5 -2.43786
    endloop
  endfacet
  facet normal 0 -1 0
    outer loop
      vertex -2.94686 -2.5 -2.43786
      vertex -5 -2.5 -2.5
      vertex -2.9567 -2.5 -2.5
    endloop
  endfacet
  facet normal 0 -1 0
    outer loop
      vertex 0.188371 -2.5 -0.00591946
      vertex 5 -2.5 2.5
      vertex 0 -2.5 0
    endloop
  endfacet
  facet normal 0 -1 0
    outer loop
      vertex 0.375999 -2.5 -0.0236559
      vertex 5 -2.5 2.5
      vertex 0.188371 -2.5 -0.00591946
    endloop
  endfacet
  facet normal 0 -1 0
    outer loop
      vertex 0.562143 -2.5 -0.0531378
      vertex 5 -2.5 2.5
      vertex 0.375999 -2.5 -0.0236559
    endloop
  endfacet
  facet normal 0 -1 0
    outer loop
      vertex 0.746069 -2.5 -0.0942497
      vertex 5 -2.5 2.5
      vertex 0.562143 -2.5 -0.0531378
    endloop
  endfacet
  facet normal 0 -1 0
    outer loop
      vertex 0.927051 -2.5 -0.14683
      vertex 5 -2.5 2.5
      vertex 0.746069 -2.5 -0.0942497
    endloop
  endfacet
  facet normal 0 -1 0
    outer loop
      vertex 1.10437 -2.5 -0.21067
      vertex 5 -2.5 2.5
      vertex 0.927051 -2.5 -0.14683
    endloop
  endfacet
  facet normal 0 -1 0
    outer loop
      vertex 1.27734 -2.5 -0.285519
      vertex 5 -2.5 2.5
      vertex 1.10437 -2.5 -0.21067
    endloop
  endfacet
  facet normal 0 -1 0
    outer loop
      vertex 1.44526 -2.5 -0.371079
      vertex 5 -2.5 2.5
      vertex 1.27734 -2.5 -0.285519
    endloop
  endfacet
  facet normal 0 -1 0
    outer loop
      vertex 1.60748 -2.5 -0.467016
      vertex 5 -2.5 2.5
      vertex 1.44526 -2.5 -0.371079
    endloop
  endfacet
  facet normal 0 -1 0
    outer loop
      vertex 1.76336 -2.5 -0.572948
      vertex 5 -2.5 2.5
      vertex 1.60748 -2.5 -0.467016
    endloop
  endfacet
  facet normal 0 -1 0
    outer loop
      vertex 1.91227 -2.5 -0.688459
      vertex 5 -2.5 2.5
      vertex 1.76336 -2.5 -0.572948
    endloop
  endfacet
  facet normal 0 -1 0
    outer loop
      vertex 2.05364 -2.5 -0.813093
      vertex 5 -2.5 2.5
      vertex 1.91227 -2.5 -0.688459
    endloop
  endfacet
  facet normal 0 -1 0
    outer loop
      vertex 2.18691 -2.5 -0.946359
      vertex 5 -2.5 2.5
      vertex 2.05364 -2.5 -0.813093
    endloop
  endfacet
  facet normal 0 -1 0
    outer loop
      vertex 2.31154 -2.5 -1.08773
      vertex 5 -2.5 2.5
      vertex 2.18691 -2.5 -0.946359
    endloop
  endfacet
  facet normal 0 -1 0
    outer loop
      vertex 2.42705 -2.5 -1.23664
      vertex 5 -2.5 2.5
      vertex 2.31154 -2.5 -1.08773
    endloop
  endfacet
  facet normal 0 -1 0
    outer loop
      vertex 2.53298 -2.5 -1.39252
      vertex 5 -2.5 2.5
      vertex 2.42705 -2.5 -1.23664
    endloop
  endfacet
  facet normal 0 -1 0
    outer loop
      vertex 5 -2.5 -2.5
      vertex 2.53298 -2.5 -1.39252
      vertex 2.62892 -2.5 -1.55474
    endloop
  endfacet
  facet normal 0 -1 0
    outer loop
      vertex 5 -2.5 -2.5
      vertex 2.62892 -2.5 -1.55474
      vertex 2.71448 -2.5 -1.72266
    endloop
  endfacet
  facet normal 0 -1 0
    outer loop
      vertex 5 -2.5 -2.5
      vertex 2.71448 -2.5 -1.72266
      vertex 2.78933 -2.5 -1.89563
    endloop
  endfacet
  facet normal 0 -1 0
    outer loop
      vertex 5 -2.5 -2.5
      vertex 2.78933 -2.5 -1.89563
      vertex 2.85317 -2.5 -2.07295
    endloop
  endfacet
  facet normal 0 -1 0
    outer loop
      vertex 5 -2.5 -2.5
      vertex 2.85317 -2.5 -2.07295
      vertex 2.90575 -2.5 -2.25393
    endloop
  endfacet
  facet normal 0 -1 0
    outer loop
      vertex 5 -2.5 -2.5
      vertex 2.90575 -2.5 -2.25393
      vertex 2.94686 -2.5 -2.43786
    endloop
  endfacet
  facet normal 0 -1 0
    outer loop
      vertex 5 -2.5 -2.5
      vertex 2.94686 -2.5 -2.43786
      vertex 2.9567 -2.5 -2.5
    endloop
  endfacet
  facet normal 0 -1 0
    outer loop
      vertex 2.53298 -2.5 -1.39252
      vertex 5 -2.5 -2.5
      vertex 5 -2.5 2.5
    endloop
  endfacet
  facet normal 0.031409 0 -0.999507
    outer loop
      vertex -0.188371 -2.5 -0.00591946
      vertex 0 2.5 0
      vertex 0 -2.5 0
    endloop
  endfacet
  facet normal 0.031409 0 -0.999507
    outer loop
      vertex 0 2.5 0
      vertex -0.188371 -2.5 -0.00591946
      vertex -0.188371 2.5 -0.00591946
    endloop
  endfacet
  facet normal -0.661311 0 -0.750112
    outer loop
      vertex 1.91227 -2.5 -0.688459
      vertex 2.05364 2.5 -0.813093
      vertex 2.05364 -2.5 -0.813093
    endloop
  endfacet
  facet normal -0.661311 0 -0.750112
    outer loop
      vertex 2.05364 2.5 -0.813093
      vertex 1.91227 -2.5 -0.688459
      vertex 1.91227 2.5 -0.688459
    endloop
  endfacet
  facet normal 0.707096 0 -0.707117
    outer loop
      vertex -2.05364 -2.5 -0.813093
      vertex -2.18691 2.5 -0.946359
      vertex -2.05364 2.5 -0.813093
    endloop
  endfacet
  facet normal 0.707096 0 -0.707117
    outer loop
      vertex -2.18691 2.5 -0.946359
      vertex -2.05364 -2.5 -0.813093
      vertex -2.18691 -2.5 -0.946359
    endloop
  endfacet
  facet normal -0.891005 0 -0.453993
    outer loop
      vertex 2.71448 -2.5 -1.72266
      vertex 2.62892 2.5 -1.55474
      vertex 2.71448 2.5 -1.72266
    endloop
  endfacet
  facet normal -0.891005 -0 -0.453993
    outer loop
      vertex 2.62892 2.5 -1.55474
      vertex 2.71448 -2.5 -1.72266
      vertex 2.62892 -2.5 -1.55474
    endloop
  endfacet
  facet normal 0.218141 0 -0.975917
    outer loop
      vertex -0.746069 -2.5 -0.0942497
      vertex -0.562143 2.5 -0.0531378
      vertex -0.562143 -2.5 -0.0531378
    endloop
  endfacet
  facet normal 0.218141 0 -0.975917
    outer loop
      vertex -0.562143 2.5 -0.0531378
      vertex -0.746069 -2.5 -0.0942497
      vertex -0.746069 2.5 -0.0942497
    endloop
  endfacet
  facet normal -0.156432 0 -0.987689
    outer loop
      vertex 0.375999 -2.5 -0.0236559
      vertex 0.562143 2.5 -0.0531378
      vertex 0.562143 -2.5 -0.0531378
    endloop
  endfacet
  facet normal -0.156432 0 -0.987689
    outer loop
      vertex 0.562143 2.5 -0.0531378
      vertex 0.375999 -2.5 -0.0236559
      vertex 0.375999 2.5 -0.0236559
    endloop
  endfacet
  facet normal -0.612922 0 -0.790143
    outer loop
      vertex 1.76336 -2.5 -0.572948
      vertex 1.91227 2.5 -0.688459
      vertex 1.91227 -2.5 -0.688459
    endloop
  endfacet
  facet normal -0.612922 0 -0.790143
    outer loop
      vertex 1.91227 2.5 -0.688459
      vertex 1.76336 -2.5 -0.572948
      vertex 1.76336 2.5 -0.572948
    endloop
  endfacet
  facet normal 0.827095 0 -0.562062
    outer loop
      vertex -2.42705 -2.5 -1.23664
      vertex -2.53298 2.5 -1.39252
      vertex -2.42705 2.5 -1.23664
    endloop
  endfacet
  facet normal 0.827095 0 -0.562062
    outer loop
      vertex -2.53298 2.5 -1.39252
      vertex -2.42705 -2.5 -1.23664
      vertex -2.53298 -2.5 -1.39252
    endloop
  endfacet
  facet normal 0.860734 0 -0.509055
    outer loop
      vertex -2.53298 -2.5 -1.39252
      vertex -2.62892 2.5 -1.55474
      vertex -2.53298 2.5 -1.39252
    endloop
  endfacet
  facet normal 0.860734 0 -0.509055
    outer loop
      vertex -2.62892 2.5 -1.55474
      vertex -2.53298 -2.5 -1.39252
      vertex -2.62892 -2.5 -1.55474
    endloop
  endfacet
  facet normal 0.97592 0 -0.218127
    outer loop
      vertex -2.90575 -2.5 -2.25393
      vertex -2.94686 2.5 -2.43786
      vertex -2.90575 2.5 -2.25393
    endloop
  endfacet
  facet normal 0.97592 0 -0.218127
    outer loop
      vertex -2.94686 2.5 -2.43786
      vertex -2.90575 -2.5 -2.25393
      vertex -2.94686 -2.5 -2.43786
    endloop
  endfacet
  facet normal 0.987693 0 -0.156403
    outer loop
      vertex -2.94686 -2.5 -2.43786
      vertex -2.9567 2.5 -2.5
      vertex -2.94686 2.5 -2.43786
    endloop
  endfacet
  facet normal 0.987693 0 -0.156403
    outer loop
      vertex -2.9567 2.5 -2.5
      vertex -2.94686 -2.5 -2.43786
      vertex -2.9567 -2.5 -2.5
    endloop
  endfacet
  facet normal 0.562069 0 -0.82709
    outer loop
      vertex -1.76336 -2.5 -0.572948
      vertex -1.60748 2.5 -0.467016
      vertex -1.60748 -2.5 -0.467016
    endloop
  endfacet
  facet normal 0.562069 0 -0.82709
    outer loop
      vertex -1.60748 2.5 -0.467016
      vertex -1.76336 -2.5 -0.572948
      vertex -1.76336 2.5 -0.572948
    endloop
  endfacet
  facet normal 0.156432 0 -0.987689
    outer loop
      vertex -0.562143 -2.5 -0.0531378
      vertex -0.375999 2.5 -0.0236559
      vertex -0.375999 -2.5 -0.0236559
    endloop
  endfacet
  facet normal 0.156432 0 -0.987689
    outer loop
      vertex -0.375999 2.5 -0.0236559
      vertex -0.562143 -2.5 -0.0531378
      vertex -0.562143 2.5 -0.0531378
    endloop
  endfacet
  facet normal -0.987693 0 -0.156403
    outer loop
      vertex 2.9567 -2.5 -2.5
      vertex 2.94686 2.5 -2.43786
      vertex 2.9567 2.5 -2.5
    endloop
  endfacet
  facet normal -0.987693 -0 -0.156403
    outer loop
      vertex 2.94686 2.5 -2.43786
      vertex 2.9567 -2.5 -2.5
      vertex 2.94686 -2.5 -2.43786
    endloop
  endfacet
  facet normal -0.960293 0 -0.278993
    outer loop
      vertex 2.90575 -2.5 -2.25393
      vertex 2.85317 2.5 -2.07295
      vertex 2.90575 2.5 -2.25393
    endloop
  endfacet
  facet normal -0.960293 -0 -0.278993
    outer loop
      vertex 2.85317 2.5 -2.07295
      vertex 2.90575 -2.5 -2.25393
      vertex 2.85317 -2.5 -2.07295
    endloop
  endfacet
  facet normal -0.917756 0 -0.397144
    outer loop
      vertex 2.78933 -2.5 -1.89563
      vertex 2.71448 2.5 -1.72266
      vertex 2.78933 2.5 -1.89563
    endloop
  endfacet
  facet normal -0.917756 -0 -0.397144
    outer loop
      vertex 2.71448 2.5 -1.72266
      vertex 2.78933 -2.5 -1.89563
      vertex 2.71448 -2.5 -1.72266
    endloop
  endfacet
  facet normal -0.940879 0 -0.338742
    outer loop
      vertex 2.85317 -2.5 -2.07295
      vertex 2.78933 2.5 -1.89563
      vertex 2.85317 2.5 -2.07295
    endloop
  endfacet
  facet normal -0.940879 -0 -0.338742
    outer loop
      vertex 2.78933 2.5 -1.89563
      vertex 2.85317 -2.5 -2.07295
      vertex 2.78933 -2.5 -1.89563
    endloop
  endfacet
  facet normal -0.750125 0 -0.661296
    outer loop
      vertex 2.31154 -2.5 -1.08773
      vertex 2.18691 2.5 -0.946359
      vertex 2.31154 2.5 -1.08773
    endloop
  endfacet
  facet normal -0.750125 -0 -0.661296
    outer loop
      vertex 2.18691 2.5 -0.946359
      vertex 2.31154 -2.5 -1.08773
      vertex 2.18691 -2.5 -0.946359
    endloop
  endfacet
  facet normal -0.790146 0 -0.612919
    outer loop
      vertex 2.42705 -2.5 -1.23664
      vertex 2.31154 2.5 -1.08773
      vertex 2.42705 2.5 -1.23664
    endloop
  endfacet
  facet normal -0.790146 -0 -0.612919
    outer loop
      vertex 2.31154 2.5 -1.08773
      vertex 2.42705 -2.5 -1.23664
      vertex 2.31154 -2.5 -1.08773
    endloop
  endfacet
  facet normal -0.0941103 0 -0.995562
    outer loop
      vertex 0.188371 -2.5 -0.00591946
      vertex 0.375999 2.5 -0.0236559
      vertex 0.375999 -2.5 -0.0236559
    endloop
  endfacet
  facet normal -0.0941103 0 -0.995562
    outer loop
      vertex 0.375999 2.5 -0.0236559
      vertex 0.188371 -2.5 -0.00591946
      vertex 0.188371 2.5 -0.00591946
    endloop
  endfacet
  facet normal -0.278992 0 -0.960293
    outer loop
      vertex 0.746069 -2.5 -0.0942497
      vertex 0.927051 2.5 -0.14683
      vertex 0.927051 -2.5 -0.14683
    endloop
  endfacet
  facet normal -0.278992 0 -0.960293
    outer loop
      vertex 0.927051 2.5 -0.14683
      vertex 0.746069 -2.5 -0.0942497
      vertex 0.746069 2.5 -0.0942497
    endloop
  endfacet
  facet normal -0.338744 0 -0.940879
    outer loop
      vertex 0.927051 -2.5 -0.14683
      vertex 1.10437 2.5 -0.21067
      vertex 1.10437 -2.5 -0.21067
    endloop
  endfacet
  facet normal -0.338744 0 -0.940879
    outer loop
      vertex 1.10437 2.5 -0.21067
      vertex 0.927051 -2.5 -0.14683
      vertex 0.927051 2.5 -0.14683
    endloop
  endfacet
  facet normal -0.453993 0 -0.891005
    outer loop
      vertex 1.27734 -2.5 -0.285519
      vertex 1.44526 2.5 -0.371079
      vertex 1.44526 -2.5 -0.371079
    endloop
  endfacet
  facet normal -0.453993 0 -0.891005
    outer loop
      vertex 1.44526 2.5 -0.371079
      vertex 1.27734 -2.5 -0.285519
      vertex 1.27734 2.5 -0.285519
    endloop
  endfacet
  facet normal 0.917756 0 -0.397144
    outer loop
      vertex -2.71448 -2.5 -1.72266
      vertex -2.78933 2.5 -1.89563
      vertex -2.71448 2.5 -1.72266
    endloop
  endfacet
  facet normal 0.917756 0 -0.397144
    outer loop
      vertex -2.78933 2.5 -1.89563
      vertex -2.71448 -2.5 -1.72266
      vertex -2.78933 -2.5 -1.89563
    endloop
  endfacet
  facet normal 0.940879 0 -0.338742
    outer loop
      vertex -2.78933 -2.5 -1.89563
      vertex -2.85317 2.5 -2.07295
      vertex -2.78933 2.5 -1.89563
    endloop
  endfacet
  facet normal 0.940879 0 -0.338742
    outer loop
      vertex -2.85317 2.5 -2.07295
      vertex -2.78933 -2.5 -1.89563
      vertex -2.85317 -2.5 -2.07295
    endloop
  endfacet
  facet normal 0.612922 0 -0.790143
    outer loop
      vertex -1.91227 -2.5 -0.688459
      vertex -1.76336 2.5 -0.572948
      vertex -1.76336 -2.5 -0.572948
    endloop
  endfacet
  facet normal 0.612922 0 -0.790143
    outer loop
      vertex -1.76336 2.5 -0.572948
      vertex -1.91227 -2.5 -0.688459
      vertex -1.91227 2.5 -0.688459
    endloop
  endfacet
  facet normal 0.453993 0 -0.891005
    outer loop
      vertex -1.44526 -2.5 -0.371079
      vertex -1.27734 2.5 -0.285519
      vertex -1.27734 -2.5 -0.285519
    endloop
  endfacet
  facet normal 0.453993 0 -0.891005
    outer loop
      vertex -1.27734 2.5 -0.285519
      vertex -1.44526 -2.5 -0.371079
      vertex -1.44526 2.5 -0.371079
    endloop
  endfacet
  facet normal 0.39714 0 -0.917758
    outer loop
      vertex -1.27734 -2.5 -0.285519
      vertex -1.10437 2.5 -0.21067
      vertex -1.10437 -2.5 -0.21067
    endloop
  endfacet
  facet normal 0.39714 0 -0.917758
    outer loop
      vertex -1.10437 2.5 -0.21067
      vertex -1.27734 -2.5 -0.285519
      vertex -1.27734 2.5 -0.285519
    endloop
  endfacet
  facet normal 0.278992 0 -0.960293
    outer loop
      vertex -0.927051 -2.5 -0.14683
      vertex -0.746069 2.5 -0.0942497
      vertex -0.746069 -2.5 -0.0942497
    endloop
  endfacet
  facet normal 0.278992 0 -0.960293
    outer loop
      vertex -0.746069 2.5 -0.0942497
      vertex -0.927051 -2.5 -0.14683
      vertex -0.927051 2.5 -0.14683
    endloop
  endfacet
  facet normal 0.0941103 0 -0.995562
    outer loop
      vertex -0.375999 -2.5 -0.0236559
      vertex -0.188371 2.5 -0.00591946
      vertex -0.188371 -2.5 -0.00591946
    endloop
  endfacet
  facet normal 0.0941103 0 -0.995562
    outer loop
      vertex -0.188371 2.5 -0.00591946
      vertex -0.375999 -2.5 -0.0236559
      vertex -0.375999 2.5 -0.0236559
    endloop
  endfacet
  facet normal -0.97592 0 -0.218127
    outer loop
      vertex 2.94686 -2.5 -2.43786
      vertex 2.90575 2.5 -2.25393
      vertex 2.94686 2.5 -2.43786
    endloop
  endfacet
  facet normal -0.97592 -0 -0.218127
    outer loop
      vertex 2.90575 2.5 -2.25393
      vertex 2.94686 -2.5 -2.43786
      vertex 2.90575 -2.5 -2.25393
    endloop
  endfacet
  facet normal -0.707096 0 -0.707117
    outer loop
      vertex 2.18691 -2.5 -0.946359
      vertex 2.05364 2.5 -0.813093
      vertex 2.18691 2.5 -0.946359
    endloop
  endfacet
  facet normal -0.707096 -0 -0.707117
    outer loop
      vertex 2.05364 2.5 -0.813093
      vertex 2.18691 -2.5 -0.946359
      vertex 2.05364 -2.5 -0.813093
    endloop
  endfacet
  facet normal -0.860734 0 -0.509055
    outer loop
      vertex 2.62892 -2.5 -1.55474
      vertex 2.53298 2.5 -1.39252
      vertex 2.62892 2.5 -1.55474
    endloop
  endfacet
  facet normal -0.860734 -0 -0.509055
    outer loop
      vertex 2.53298 2.5 -1.39252
      vertex 2.62892 -2.5 -1.55474
      vertex 2.53298 -2.5 -1.39252
    endloop
  endfacet
  facet normal -0.827095 0 -0.562062
    outer loop
      vertex 2.53298 -2.5 -1.39252
      vertex 2.42705 2.5 -1.23664
      vertex 2.53298 2.5 -1.39252
    endloop
  endfacet
  facet normal -0.827095 -0 -0.562062
    outer loop
      vertex 2.42705 2.5 -1.23664
      vertex 2.53298 -2.5 -1.39252
      vertex 2.42705 -2.5 -1.23664
    endloop
  endfacet
  facet normal -0.218141 0 -0.975917
    outer loop
      vertex 0.562143 -2.5 -0.0531378
      vertex 0.746069 2.5 -0.0942497
      vertex 0.746069 -2.5 -0.0942497
    endloop
  endfacet
  facet normal -0.218141 0 -0.975917
    outer loop
      vertex 0.746069 2.5 -0.0942497
      vertex 0.562143 -2.5 -0.0531378
      vertex 0.562143 2.5 -0.0531378
    endloop
  endfacet
  facet normal -0.031409 0 -0.999507
    outer loop
      vertex 0 -2.5 0
      vertex 0.188371 2.5 -0.00591946
      vertex 0.188371 -2.5 -0.00591946
    endloop
  endfacet
  facet normal -0.031409 0 -0.999507
    outer loop
      vertex 0.188371 2.5 -0.00591946
      vertex 0 -2.5 0
      vertex 0 2.5 0
    endloop
  endfacet
  facet normal -0.39714 0 -0.917758
    outer loop
      vertex 1.10437 -2.5 -0.21067
      vertex 1.27734 2.5 -0.285519
      vertex 1.27734 -2.5 -0.285519
    endloop
  endfacet
  facet normal -0.39714 0 -0.917758
    outer loop
      vertex 1.27734 2.5 -0.285519
      vertex 1.10437 -2.5 -0.21067
      vertex 1.10437 2.5 -0.21067
    endloop
  endfacet
  facet normal -0.562069 0 -0.82709
    outer loop
      vertex 1.60748 -2.5 -0.467016
      vertex 1.76336 2.5 -0.572948
      vertex 1.76336 -2.5 -0.572948
    endloop
  endfacet
  facet normal -0.562069 0 -0.82709
    outer loop
      vertex 1.76336 2.5 -0.572948
      vertex 1.60748 -2.5 -0.467016
      vertex 1.60748 2.5 -0.467016
    endloop
  endfacet
  facet normal -0.509043 0 -0.860741
    outer loop
      vertex 1.44526 -2.5 -0.371079
      vertex 1.60748 2.5 -0.467016
      vertex 1.60748 -2.5 -0.467016
    endloop
  endfacet
  facet normal -0.509043 0 -0.860741
    outer loop
      vertex 1.60748 2.5 -0.467016
      vertex 1.44526 -2.5 -0.371079
      vertex 1.44526 2.5 -0.371079
    endloop
  endfacet
  facet normal 0.790146 0 -0.612919
    outer loop
      vertex -2.31154 -2.5 -1.08773
      vertex -2.42705 2.5 -1.23664
      vertex -2.31154 2.5 -1.08773
    endloop
  endfacet
  facet normal 0.790146 0 -0.612919
    outer loop
      vertex -2.42705 2.5 -1.23664
      vertex -2.31154 -2.5 -1.08773
      vertex -2.42705 -2.5 -1.23664
    endloop
  endfacet
  facet normal 0.750125 0 -0.661296
    outer loop
      vertex -2.18691 -2.5 -0.946359
      vertex -2.31154 2.5 -1.08773
      vertex -2.18691 2.5 -0.946359
    endloop
  endfacet
  facet normal 0.750125 0 -0.661296
    outer loop
      vertex -2.31154 2.5 -1.08773
      vertex -2.18691 -2.5 -0.946359
      vertex -2.31154 -2.5 -1.08773
    endloop
  endfacet
  facet normal 0.891005 0 -0.453993
    outer loop
      vertex -2.62892 -2.5 -1.55474
      vertex -2.71448 2.5 -1.72266
      vertex -2.62892 2.5 -1.55474
    endloop
  endfacet
  facet normal 0.891005 0 -0.453993
    outer loop
      vertex -2.71448 2.5 -1.72266
      vertex -2.62892 -2.5 -1.55474
      vertex -2.71448 -2.5 -1.72266
    endloop
  endfacet
  facet normal 0.960293 0 -0.278993
    outer loop
      vertex -2.85317 -2.5 -2.07295
      vertex -2.90575 2.5 -2.25393
      vertex -2.85317 2.5 -2.07295
    endloop
  endfacet
  facet normal 0.960293 0 -0.278993
    outer loop
      vertex -2.90575 2.5 -2.25393
      vertex -2.85317 -2.5 -2.07295
      vertex -2.90575 -2.5 -2.25393
    endloop
  endfacet
  facet normal 0.661311 0 -0.750112
    outer loop
      vertex -2.05364 -2.5 -0.813093
      vertex -1.91227 2.5 -0.688459
      vertex -1.91227 -2.5 -0.688459
    endloop
  endfacet
  facet normal 0.661311 0 -0.750112
    outer loop
      vertex -1.91227 2.5 -0.688459
      vertex -2.05364 -2.5 -0.813093
      vertex -2.05364 2.5 -0.813093
    endloop
  endfacet
  facet normal 0.509043 0 -0.860741
    outer loop
      vertex -1.60748 -2.5 -0.467016
      vertex -1.44526 2.5 -0.371079
      vertex -1.44526 -2.5 -0.371079
    endloop
  endfacet
  facet normal 0.509043 0 -0.860741
    outer loop
      vertex -1.44526 2.5 -0.371079
      vertex -1.60748 -2.5 -0.467016
      vertex -1.60748 2.5 -0.467016
    endloop
  endfacet
  facet normal 0.338744 0 -0.940879
    outer loop
      vertex -1.10437 -2.5 -0.21067
      vertex -0.927051 2.5 -0.14683
      vertex -0.927051 -2.5 -0.14683
    endloop
  endfacet
  facet normal 0.338744 0 -0.940879
    outer loop
      vertex -0.927051 2.5 -0.14683
      vertex -1.10437 -2.5 -0.21067
      vertex -1.10437 2.5 -0.21067
    endloop
  endfacet
endsolid OpenSCAD_Model
