solid OpenSCAD_Model
  facet normal -1 0 0
    outer loop
      vertex -5 -2.5 -2.5
      vertex -5 2.5 2.5
      vertex -5 2.5 -2.5
    endloop
  endfacet
  facet normal -1 -0 0
    outer loop
      vertex -5 2.5 2.5
      vertex -5 -2.5 -2.5
      vertex -5 -2.5 2.5
    endloop
  endfacet
  facet normal -0 0 1
    outer loop
      vertex -5 2.5 2.5
      vertex 5 -2.5 2.5
      vertex 5 2.5 2.5
    endloop
  endfacet
  facet normal 0 0 1
    outer loop
      vertex 5 -2.5 2.5
      vertex -5 2.5 2.5
      vertex -5 -2.5 2.5
    endloop
  endfacet
  facet normal 1 -0 0
    outer loop
      vertex 5 -2.5 2.5
      vertex 5 2.5 -2.5
      vertex 5 2.5 2.5
    endloop
  endfacet
  facet normal 1 0 0
    outer loop
      vertex 5 2.5 -2.5
      vertex 5 -2.5 2.5
      vertex 5 -2.5 -2.5
    endloop
  endfacet
  facet normal 0 1 0
    outer loop
      vertex 5 2.5 2.5
      vertex 0 2.5 0.599999
      vertex -5 2.5 2.5
    endloop
  endfacet
  facet normal 0 1 0
    outer loop
      vertex 5 2.5 2.5
      vertex 0.207209 2.5 0.593488
      vertex 0 2.5 0.599999
    endloop
  endfacet
  facet normal 0 1 0
    outer loop
      vertex 5 2.5 2.5
      vertex 0.413599 2.5 0.573978
      vertex 0.207209 2.5 0.593488
    endloop
  endfacet
  facet normal 0 1 0
    outer loop
      vertex 5 2.5 2.5
      vertex 0.618358 2.5 0.541548
      vertex 0.413599 2.5 0.573978
    endloop
  endfacet
  facet normal 0 1 0
    outer loop
      vertex 5 2.5 2.5
      vertex 0.820676 2.5 0.496324
      vertex 0.618358 2.5 0.541548
    endloop
  endfacet
  facet normal 0 1 0
    outer loop
      vertex 5 2.5 2.5
      vertex 1.01976 2.5 0.438486
      vertex 0.820676 2.5 0.496324
    endloop
  endfacet
  facet normal 0 1 0
    outer loop
      vertex 5 2.5 2.5
      vertex 1.21481 2.5 0.368262
      vertex 1.01976 2.5 0.438486
    endloop
  endfacet
  facet normal 0 1 0
    outer loop
      vertex 5 2.5 2.5
      vertex 1.40507 2.5 0.285929
      vertex 1.21481 2.5 0.368262
    endloop
  endfacet
  facet normal 0 1 0
    outer loop
      vertex 5 2.5 2.5
      vertex 1.58979 2.5 0.191812
      vertex 1.40507 2.5 0.285929
    endloop
  endfacet
  facet normal 0 1 0
    outer loop
      vertex 5 2.5 2.5
      vertex 1.76823 2.5 0.0862818
      vertex 1.58979 2.5 0.191812
    endloop
  endfacet
  facet normal 0 1 0
    outer loop
      vertex 5 2.5 2.5
      vertex 1.93969 2.5 -0.0302439
      vertex 1.76823 2.5 0.0862818
    endloop
  endfacet
  facet normal 0 1 0
    outer loop
      vertex 5 2.5 2.5
      vertex 2.1035 2.5 -0.157306
      vertex 1.93969 2.5 -0.0302439
    endloop
  endfacet
  facet normal 0 1 0
    outer loop
      vertex 5 2.5 2.5
      vertex 2.259 2.5 -0.294403
      vertex 2.1035 2.5 -0.157306
    endloop
  endfacet
  facet normal 0 1 0
    outer loop
      vertex 5 2.5 2.5
      vertex 2.4056 2.5 -0.440994
      vertex 2.259 2.5 -0.294403
    endloop
  endfacet
  facet normal 0 1 0
    outer loop
      vertex 5 2.5 2.5
      vertex 2.54269 2.5 -0.5965
      vertex 2.4056 2.5 -0.440994
    endloop
  endfacet
  facet normal 0 1 0
    outer loop
      vertex 5 2.5 2.5
      vertex 2.66976 2.5 -0.760308
      vertex 2.54269 2.5 -0.5965
    endloop
  endfacet
  facet normal 0 1 0
    outer loop
      vertex 5 2.5 2.5
      vertex 2.78628 2.5 -0.931771
      vertex 2.66976 2.5 -0.760308
    endloop
  endfacet
  facet normal 0 1 0
    outer loop
      vertex 5 2.5 2.5
      vertex 2.89181 2.5 -1.11021
      vertex 2.78628 2.5 -0.931771
    endloop
  endfacet
  facet normal 0 1 -0
    outer loop
      vertex 5 2.5 -2.5
      vertex 2.89181 2.5 -1.11021
      vertex 5 2.5 2.5
    endloop
  endfacet
  facet normal 0 1 0
    outer loop
      vertex 2.89181 2.5 -1.11021
      vertex 5 2.5 -2.5
      vertex 2.98593 2.5 -1.29493
    endloop
  endfacet
  facet normal 0 1 0
    outer loop
      vertex 2.98593 2.5 -1.29493
      vertex 5 2.5 -2.5
      vertex 3.06826 2.5 -1.48519
    endloop
  endfacet
  facet normal 0 1 0
    outer loop
      vertex 3.06826 2.5 -1.48519
      vertex 5 2.5 -2.5
      vertex 3.13849 2.5 -1.68024
    endloop
  endfacet
  facet normal 0 1 0
    outer loop
      vertex 3.13849 2.5 -1.68024
      vertex 5 2.5 -2.5
      vertex 3.19632 2.5 -1.87932
    endloop
  endfacet
  facet normal 0 1 0
    outer loop
      vertex 3.19632 2.5 -1.87932
      vertex 5 2.5 -2.5
      vertex 3.24155 2.5 -2.08164
    endloop
  endfacet
  facet normal 0 1 0
    outer loop
      vertex 3.24155 2.5 -2.08164
      vertex 5 2.5 -2.5
      vertex 3.27398 2.5 -2.2864
    endloop
  endfacet
  facet normal 0 1 0
    outer loop
      vertex 3.27398 2.5 -2.2864
      vertex 5 2.5 -2.5
      vertex 3.29349 2.5 -2.49279
    endloop
  endfacet
  facet normal 0 1 0
    outer loop
      vertex 3.29349 2.5 -2.49279
      vertex 5 2.5 -2.5
      vertex 3.29371 2.5 -2.5
    endloop
  endfacet
  facet normal 0 1 -0
    outer loop
      vertex -0.207209 2.5 0.593488
      vertex -5 2.5 2.5
      vertex 0 2.5 0.599999
    endloop
  endfacet
  facet normal 0 1 -0
    outer loop
      vertex -0.413599 2.5 0.573978
      vertex -5 2.5 2.5
      vertex -0.207209 2.5 0.593488
    endloop
  endfacet
  facet normal 0 1 -0
    outer loop
      vertex -0.618358 2.5 0.541548
      vertex -5 2.5 2.5
      vertex -0.413599 2.5 0.573978
    endloop
  endfacet
  facet normal 0 1 -0
    outer loop
      vertex -0.820676 2.5 0.496324
      vertex -5 2.5 2.5
      vertex -0.618358 2.5 0.541548
    endloop
  endfacet
  facet normal 0 1 -0
    outer loop
      vertex -1.01976 2.5 0.438486
      vertex -5 2.5 2.5
      vertex -0.820676 2.5 0.496324
    endloop
  endfacet
  facet normal 0 1 -0
    outer loop
      vertex -1.21481 2.5 0.368262
      vertex -5 2.5 2.5
      vertex -1.01976 2.5 0.438486
    endloop
  endfacet
  facet normal 0 1 -0
    outer loop
      vertex -1.40507 2.5 0.285929
      vertex -5 2.5 2.5
      vertex -1.21481 2.5 0.368262
    endloop
  endfacet
  facet normal 0 1 -0
    outer loop
      vertex -1.58979 2.5 0.191812
      vertex -5 2.5 2.5
      vertex -1.40507 2.5 0.285929
    endloop
  endfacet
  facet normal 0 1 -0
    outer loop
      vertex -1.76823 2.5 0.0862818
      vertex -5 2.5 2.5
      vertex -1.58979 2.5 0.191812
    endloop
  endfacet
  facet normal 0 1 -0
    outer loop
      vertex -1.93969 2.5 -0.0302439
      vertex -5 2.5 2.5
      vertex -1.76823 2.5 0.0862818
    endloop
  endfacet
  facet normal 0 1 -0
    outer loop
      vertex -2.1035 2.5 -0.157306
      vertex -5 2.5 2.5
      vertex -1.93969 2.5 -0.0302439
    endloop
  endfacet
  facet normal 0 1 -0
    outer loop
      vertex -2.259 2.5 -0.294403
      vertex -5 2.5 2.5
      vertex -2.1035 2.5 -0.157306
    endloop
  endfacet
  facet normal 0 1 -0
    outer loop
      vertex -2.4056 2.5 -0.440994
      vertex -5 2.5 2.5
      vertex -2.259 2.5 -0.294403
    endloop
  endfacet
  facet normal 0 1 -0
    outer loop
      vertex -2.54269 2.5 -0.5965
      vertex -5 2.5 2.5
      vertex -2.4056 2.5 -0.440994
    endloop
  endfacet
  facet normal 0 1 -0
    outer loop
      vertex -2.66976 2.5 -0.760308
      vertex -5 2.5 2.5
      vertex -2.54269 2.5 -0.5965
    endloop
  endfacet
  facet normal 0 1 -0
    outer loop
      vertex -2.78628 2.5 -0.931771
      vertex -5 2.5 2.5
      vertex -2.66976 2.5 -0.760308
    endloop
  endfacet
  facet normal 0 1 -0
    outer loop
      vertex -2.89181 2.5 -1.11021
      vertex -5 2.5 2.5
      vertex -2.78628 2.5 -0.931771
    endloop
  endfacet
  facet normal 0 1 0
    outer loop
      vertex -5 2.5 -2.5
      vertex -2.89181 2.5 -1.11021
      vertex -2.98593 2.5 -1.29493
    endloop
  endfacet
  facet normal 0 1 0
    outer loop
      vertex -5 2.5 -2.5
      vertex -2.98593 2.5 -1.29493
      vertex -3.06826 2.5 -1.48519
    endloop
  endfacet
  facet normal 0 1 0
    outer loop
      vertex -5 2.5 -2.5
      vertex -3.06826 2.5 -1.48519
      vertex -3.13849 2.5 -1.68024
    endloop
  endfacet
  facet normal 0 1 0
    outer loop
      vertex -5 2.5 -2.5
      vertex -3.13849 2.5 -1.68024
      vertex -3.19632 2.5 -1.87932
    endloop
  endfacet
  facet normal 0 1 0
    outer loop
      vertex -5 2.5 -2.5
      vertex -3.19632 2.5 -1.87932
      vertex -3.24155 2.5 -2.08164
    endloop
  endfacet
  facet normal 0 1 0
    outer loop
      vertex -5 2.5 -2.5
      vertex -3.24155 2.5 -2.08164
      vertex -3.27398 2.5 -2.2864
    endloop
  endfacet
  facet normal 0 1 0
    outer loop
      vertex -5 2.5 -2.5
      vertex -3.27398 2.5 -2.2864
      vertex -3.29349 2.5 -2.49279
    endloop
  endfacet
  facet normal 0 1 0
    outer loop
      vertex -5 2.5 -2.5
      vertex -3.29349 2.5 -2.49279
      vertex -3.29371 2.5 -2.5
    endloop
  endfacet
  facet normal 0 1 0
    outer loop
      vertex -2.89181 2.5 -1.11021
      vertex -5 2.5 -2.5
      vertex -5 2.5 2.5
    endloop
  endfacet
  facet normal 0 0 -1
    outer loop
      vertex -5 -2.5 -2.5
      vertex -3.29371 2.5 -2.5
      vertex -3.29371 -2.5 -2.5
    endloop
  endfacet
  facet normal -0 0 -1
    outer loop
      vertex -3.29371 2.5 -2.5
      vertex -5 -2.5 -2.5
      vertex -5 2.5 -2.5
    endloop
  endfacet
  facet normal 0 0 -1
    outer loop
      vertex 3.29371 -2.5 -2.5
      vertex 5 2.5 -2.5
      vertex 5 -2.5 -2.5
    endloop
  endfacet
  facet normal -0 0 -1
    outer loop
      vertex 5 2.5 -2.5
      vertex 3.29371 -2.5 -2.5
      vertex 3.29371 2.5 -2.5
    endloop
  endfacet
  facet normal 0 -1 0
    outer loop
      vertex -5 -2.5 2.5
      vertex 0 -2.5 0.599999
      vertex 5 -2.5 2.5
    endloop
  endfacet
  facet normal 0 -1 0
    outer loop
      vertex -5 -2.5 2.5
      vertex -0.207209 -2.5 0.593488
      vertex 0 -2.5 0.599999
    endloop
  endfacet
  facet normal 0 -1 0
    outer loop
      vertex -5 -2.5 2.5
      vertex -0.413599 -2.5 0.573978
      vertex -0.207209 -2.5 0.593488
    endloop
  endfacet
  facet normal 0 -1 0
    outer loop
      vertex -5 -2.5 2.5
      vertex -0.618358 -2.5 0.541548
      vertex -0.413599 -2.5 0.573978
    endloop
  endfacet
  facet normal 0 -1 0
    outer loop
      vertex -5 -2.5 2.5
      vertex -0.820676 -2.5 0.496324
      vertex -0.618358 -2.5 0.541548
    endloop
  endfacet
  facet normal 0 -1 0
    outer loop
      vertex -5 -2.5 2.5
      vertex -1.01976 -2.5 0.438486
      vertex -0.820676 -2.5 0.496324
    endloop
  endfacet
  facet normal 0 -1 0
    outer loop
      vertex -5 -2.5 2.5
      vertex -1.21481 -2.5 0.368262
      vertex -1.01976 -2.5 0.438486
    endloop
  endfacet
  facet normal 0 -1 0
    outer loop
      vertex -5 -2.5 2.5
      vertex -1.40507 -2.5 0.285929
      vertex -1.21481 -2.5 0.368262
    endloop
  endfacet
  facet normal 0 -1 0
    outer loop
      vertex -5 -2.5 2.5
      vertex -1.58979 -2.5 0.191812
      vertex -1.40507 -2.5 0.285929
    endloop
  endfacet
  facet normal 0 -1 0
    outer loop
      vertex -5 -2.5 2.5
      vertex -1.76823 -2.5 0.0862818
      vertex -1.58979 -2.5 0.191812
    endloop
  endfacet
  facet normal 0 -1 0
    outer loop
      vertex -5 -2.5 2.5
      vertex -1.93969 -2.5 -0.0302439
      vertex -1.76823 -2.5 0.0862818
    endloop
  endfacet
  facet normal 0 -1 0
    outer loop
      vertex -5 -2.5 2.5
      vertex -2.1035 -2.5 -0.157306
      vertex -1.93969 -2.5 -0.0302439
    endloop
  endfacet
  facet normal 0 -1 0
    outer loop
      vertex -5 -2.5 2.5
      vertex -2.259 -2.5 -0.294403
      vertex -2.1035 -2.5 -0.157306
    endloop
  endfacet
  facet normal 0 -1 0
    outer loop
      vertex -5 -2.5 2.5
      vertex -2.4056 -2.5 -0.440994
      vertex -2.259 -2.5 -0.294403
    endloop
  endfacet
  facet normal 0 -1 0
    outer loop
      vertex -5 -2.5 2.5
      vertex -2.54269 -2.5 -0.5965
      vertex -2.4056 -2.5 -0.440994
    endloop
  endfacet
  facet normal 0 -1 0
    outer loop
      vertex -5 -2.5 2.5
      vertex -2.66976 -2.5 -0.760308
      vertex -2.54269 -2.5 -0.5965
    endloop
  endfacet
  facet normal 0 -1 0
    outer loop
      vertex -5 -2.5 2.5
      vertex -2.78628 -2.5 -0.931771
      vertex -2.66976 -2.5 -0.760308
    endloop
  endfacet
  facet normal 0 -1 0
    outer loop
      vertex -5 -2.5 2.5
      vertex -2.89181 -2.5 -1.11021
      vertex -2.78628 -2.5 -0.931771
    endloop
  endfacet
  facet normal 0 -1 0
    outer loop
      vertex -5 -2.5 -2.5
      vertex -2.89181 -2.5 -1.11021
      vertex -5 -2.5 2.5
    endloop
  endfacet
  facet normal 0 -1 0
    outer loop
      vertex -2.89181 -2.5 -1.11021
      vertex -5 -2.5 -2.5
      vertex -2.98593 -2.5 -1.29493
    endloop
  endfacet
  facet normal 0 -1 0
    outer loop
      vertex -2.98593 -2.5 -1.29493
      vertex -5 -2.5 -2.5
      vertex -3.06826 -2.5 -1.48519
    endloop
  endfacet
  facet normal 0 -1 0
    outer loop
      vertex -3.06826 -2.5 -1.48519
      vertex -5 -2.5 -2.5
      vertex -3.13849 -2.5 -1.68024
    endloop
  endfacet
  facet normal 0 -1 0
    outer loop
      vertex -3.13849 -2.5 -1.68024
      vertex -5 -2.5 -2.5
      vertex -3.19632 -2.5 -1.87932
    endloop
  endfacet
  facet normal 0 -1 0
    outer loop
      vertex -3.19632 -2.5 -1.87932
      vertex -5 -2.5 -2.5
      vertex -3.24155 -2.5 -2.08164
    endloop
  endfacet
  facet normal 0 -1 0
    outer loop
      vertex -3.24155 -2.5 -2.08164
      vertex -5 -2.5 -2.5
      vertex -3.27398 -2.5 -2.2864
    endloop
  endfacet
  facet normal 0 -1 0
    outer loop
      vertex -3.27398 -2.5 -2.2864
      vertex -5 -2.5 -2.5
      vertex -3.29349 -2.5 -2.49279
    endloop
  endfacet
  facet normal 0 -1 0
    outer loop
      vertex -3.29349 -2.5 -2.49279
      vertex -5 -2.5 -2.5
      vertex -3.29371 -2.5 -2.5
    endloop
  endfacet
  facet normal 0 -1 0
    outer loop
      vertex 0.207209 -2.5 0.593488
      vertex 5 -2.5 2.5
      vertex 0 -2.5 0.599999
    endloop
  endfacet
  facet normal 0 -1 0
    outer loop
      vertex 0.413599 -2.5 0.573978
      vertex 5 -2.5 2.5
      vertex 0.207209 -2.5 0.593488
    endloop
  endfacet
  facet normal 0 -1 0
    outer loop
      vertex 0.618358 -2.5 0.541548
      vertex 5 -2.5 2.5
      vertex 0.413599 -2.5 0.573978
    endloop
  endfacet
  facet normal 0 -1 0
    outer loop
      vertex 0.820676 -2.5 0.496324
      vertex 5 -2.5 2.5
      vertex 0.618358 -2.5 0.541548
    endloop
  endfacet
  facet normal 0 -1 0
    outer loop
      vertex 1.01976 -2.5 0.438486
      vertex 5 -2.5 2.5
      vertex 0.820676 -2.5 0.496324
    endloop
  endfacet
  facet normal 0 -1 0
    outer loop
      vertex 1.21481 -2.5 0.368262
      vertex 5 -2.5 2.5
      vertex 1.01976 -2.5 0.438486
    endloop
  endfacet
  facet normal 0 -1 0
    outer loop
      vertex 1.40507 -2.5 0.285929
      vertex 5 -2.5 2.5
      vertex 1.21481 -2.5 0.368262
    endloop
  endfacet
  facet normal 0 -1 0
    outer loop
      vertex 1.58979 -2.5 0.191812
      vertex 5 -2.5 2.5
      vertex 1.40507 -2.5 0.285929
    endloop
  endfacet
  facet normal 0 -1 0
    outer loop
      vertex 1.76823 -2.5 0.0862818
      vertex 5 -2.5 2.5
      vertex 1.58979 -2.5 0.191812
    endloop
  endfacet
  facet normal 0 -1 0
    outer loop
      vertex 1.93969 -2.5 -0.0302439
      vertex 5 -2.5 2.5
      vertex 1.76823 -2.5 0.0862818
    endloop
  endfacet
  facet normal 0 -1 0
    outer loop
      vertex 2.1035 -2.5 -0.157306
      vertex 5 -2.5 2.5
      vertex 1.93969 -2.5 -0.0302439
    endloop
  endfacet
  facet normal 0 -1 0
    outer loop
      vertex 2.259 -2.5 -0.294403
      vertex 5 -2.5 2.5
      vertex 2.1035 -2.5 -0.157306
    endloop
  endfacet
  facet normal 0 -1 0
    outer loop
      vertex 2.4056 -2.5 -0.440994
      vertex 5 -2.5 2.5
      vertex 2.259 -2.5 -0.294403
    endloop
  endfacet
  facet normal 0 -1 0
    outer loop
      vertex 2.54269 -2.5 -0.5965
      vertex 5 -2.5 2.5
      vertex 2.4056 -2.5 -0.440994
    endloop
  endfacet
  facet normal 0 -1 0
    outer loop
      vertex 2.66976 -2.5 -0.760308
      vertex 5 -2.5 2.5
      vertex 2.54269 -2.5 -0.5965
    endloop
  endfacet
  facet normal 0 -1 0
    outer loop
      vertex 2.78628 -2.5 -0.931771
      vertex 5 -2.5 2.5
      vertex 2.66976 -2.5 -0.760308
    endloop
  endfacet
  facet normal 0 -1 0
    outer loop
      vertex 2.89181 -2.5 -1.11021
      vertex 5 -2.5 2.5
      vertex 2.78628 -2.5 -0.931771
    endloop
  endfacet
  facet normal 0 -1 0
    outer loop
      vertex 5 -2.5 -2.5
      vertex 2.89181 -2.5 -1.11021
      vertex 2.98593 -2.5 -1.29493
    endloop
  endfacet
  facet normal 0 -1 0
    outer loop
      vertex 5 -2.5 -2.5
      vertex 2.98593 -2.5 -1.29493
      vertex 3.06826 -2.5 -1.48519
    endloop
  endfacet
  facet normal 0 -1 0
    outer loop
      vertex 5 -2.5 -2.5
      vertex 3.06826 -2.5 -1.48519
      vertex 3.13849 -2.5 -1.68024
    endloop
  endfacet
  facet normal 0 -1 0
    outer loop
      vertex 5 -2.5 -2.5
      vertex 3.13849 -2.5 -1.68024
      vertex 3.19632 -2.5 -1.87932
    endloop
  endfacet
  facet normal 0 -1 0
    outer loop
      vertex 5 -2.5 -2.5
      vertex 3.19632 -2.5 -1.87932
      vertex 3.24155 -2.5 -2.08164
    endloop
  endfacet
  facet normal 0 -1 0
    outer loop
      vertex 5 -2.5 -2.5
      vertex 3.24155 -2.5 -2.08164
      vertex 3.27398 -2.5 -2.2864
    endloop
  endfacet
  facet normal 0 -1 0
    outer loop
      vertex 5 -2.5 -2.5
      vertex 3.27398 -2.5 -2.2864
      vertex 3.29349 -2.5 -2.49279
    endloop
  endfacet
  facet normal 0 -1 0
    outer loop
      vertex 5 -2.5 -2.5
      vertex 3.29349 -2.5 -2.49279
      vertex 3.29371 -2.5 -2.5
    endloop
  endfacet
  facet normal 0 -1 0
    outer loop
      vertex 2.89181 -2.5 -1.11021
      vertex 5 -2.5 -2.5
      vertex 5 -2.5 2.5
    endloop
  endfacet
  facet normal -0.999535 0 -0.030499
    outer loop
      vertex 3.29371 -2.5 -2.5
      vertex 3.29349 2.5 -2.49279
      vertex 3.29371 2.5 -2.5
    endloop
  endfacet
  facet normal -0.999535 -0 -0.030499
    outer loop
      vertex 3.29349 2.5 -2.49279
      vertex 3.29371 -2.5 -2.5
      vertex 3.29349 -2.5 -2.49279
    endloop
  endfacet
  facet normal -0.995562 0 -0.0941102
    outer loop
      vertex 3.29349 -2.5 -2.49279
      vertex 3.27398 2.5 -2.2864
      vertex 3.29349 2.5 -2.49279
    endloop
  endfacet
  facet normal -0.995562 -0 -0.0941102
    outer loop
      vertex 3.27398 2.5 -2.2864
      vertex 3.29349 -2.5 -2.49279
      vertex 3.27398 -2.5 -2.2864
    endloop
  endfacet
  facet normal 0.999535 0 -0.030499
    outer loop
      vertex -3.29349 -2.5 -2.49279
      vertex -3.29371 2.5 -2.5
      vertex -3.29349 2.5 -2.49279
    endloop
  endfacet
  facet normal 0.999535 0 -0.030499
    outer loop
      vertex -3.29371 2.5 -2.5
      vertex -3.29349 -2.5 -2.49279
      vertex -3.29371 -2.5 -2.5
    endloop
  endfacet
  facet normal 0.0314069 0 -0.999507
    outer loop
      vertex -0.207209 -2.5 0.593488
      vertex 0 2.5 0.599999
      vertex 0 -2.5 0.599999
    endloop
  endfacet
  facet normal 0.0314069 0 -0.999507
    outer loop
      vertex 0 2.5 0.599999
      vertex -0.207209 -2.5 0.593488
      vertex -0.207209 2.5 0.593488
    endloop
  endfacet
  facet normal -0.661326 0 -0.750098
    outer loop
      vertex 2.1035 -2.5 -0.157306
      vertex 2.259 2.5 -0.294403
      vertex 2.259 -2.5 -0.294403
    endloop
  endfacet
  facet normal -0.661326 0 -0.750098
    outer loop
      vertex 2.259 2.5 -0.294403
      vertex 2.1035 -2.5 -0.157306
      vertex 2.1035 2.5 -0.157306
    endloop
  endfacet
  facet normal 0.707085 0 -0.707128
    outer loop
      vertex -2.259 -2.5 -0.294403
      vertex -2.4056 2.5 -0.440994
      vertex -2.259 2.5 -0.294403
    endloop
  endfacet
  facet normal 0.707085 0 -0.707128
    outer loop
      vertex -2.4056 2.5 -0.440994
      vertex -2.259 -2.5 -0.294403
      vertex -2.4056 -2.5 -0.440994
    endloop
  endfacet
  facet normal 0.397148 0 -0.917754
    outer loop
      vertex -1.40507 -2.5 0.285929
      vertex -1.21481 2.5 0.368262
      vertex -1.21481 -2.5 0.368262
    endloop
  endfacet
  facet normal 0.397148 0 -0.917754
    outer loop
      vertex -1.21481 2.5 0.368262
      vertex -1.40507 -2.5 0.285929
      vertex -1.40507 2.5 0.285929
    endloop
  endfacet
  facet normal -0.91776 0 -0.397136
    outer loop
      vertex 3.06826 -2.5 -1.48519
      vertex 2.98593 2.5 -1.29493
      vertex 3.06826 2.5 -1.48519
    endloop
  endfacet
  facet normal -0.91776 -0 -0.397136
    outer loop
      vertex 2.98593 2.5 -1.29493
      vertex 3.06826 -2.5 -1.48519
      vertex 2.98593 -2.5 -1.29493
    endloop
  endfacet
  facet normal -0.338745 0 -0.940878
    outer loop
      vertex 1.01976 -2.5 0.438486
      vertex 1.21481 2.5 0.368262
      vertex 1.21481 -2.5 0.368262
    endloop
  endfacet
  facet normal -0.338745 0 -0.940878
    outer loop
      vertex 1.21481 2.5 0.368262
      vertex 1.01976 -2.5 0.438486
      vertex 1.01976 2.5 0.438486
    endloop
  endfacet
  facet normal 0.827094 0 -0.562063
    outer loop
      vertex -2.66976 -2.5 -0.760308
      vertex -2.78628 2.5 -0.931771
      vertex -2.66976 2.5 -0.760308
    endloop
  endfacet
  facet normal 0.827094 0 -0.562063
    outer loop
      vertex -2.78628 2.5 -0.931771
      vertex -2.66976 -2.5 -0.760308
      vertex -2.78628 -2.5 -0.931771
    endloop
  endfacet
  facet normal 0.218146 0 -0.975916
    outer loop
      vertex -0.820676 -2.5 0.496324
      vertex -0.618358 2.5 0.541548
      vertex -0.618358 -2.5 0.541548
    endloop
  endfacet
  facet normal 0.218146 0 -0.975916
    outer loop
      vertex -0.618358 2.5 0.541548
      vertex -0.820676 -2.5 0.496324
      vertex -0.820676 2.5 0.496324
    endloop
  endfacet
  facet normal -0.891006 0 -0.453992
    outer loop
      vertex 2.98593 -2.5 -1.29493
      vertex 2.89181 2.5 -1.11021
      vertex 2.98593 2.5 -1.29493
    endloop
  endfacet
  facet normal -0.891006 -0 -0.453992
    outer loop
      vertex 2.89181 2.5 -1.11021
      vertex 2.98593 -2.5 -1.29493
      vertex 2.89181 -2.5 -1.11021
    endloop
  endfacet
  facet normal -0.750128 0 -0.661293
    outer loop
      vertex 2.54269 -2.5 -0.5965
      vertex 2.4056 2.5 -0.440994
      vertex 2.54269 2.5 -0.5965
    endloop
  endfacet
  facet normal -0.750128 -0 -0.661293
    outer loop
      vertex 2.4056 2.5 -0.440994
      vertex 2.54269 -2.5 -0.5965
      vertex 2.4056 -2.5 -0.440994
    endloop
  endfacet
  facet normal -0.156431 0 -0.987689
    outer loop
      vertex 0.413599 -2.5 0.573978
      vertex 0.618358 2.5 0.541548
      vertex 0.618358 -2.5 0.541548
    endloop
  endfacet
  facet normal -0.156431 0 -0.987689
    outer loop
      vertex 0.618358 2.5 0.541548
      vertex 0.413599 -2.5 0.573978
      vertex 0.413599 2.5 0.573978
    endloop
  endfacet
  facet normal -0.0941102 0 -0.995562
    outer loop
      vertex 0.207209 -2.5 0.593488
      vertex 0.413599 2.5 0.573978
      vertex 0.413599 -2.5 0.573978
    endloop
  endfacet
  facet normal -0.0941102 0 -0.995562
    outer loop
      vertex 0.413599 2.5 0.573978
      vertex 0.207209 -2.5 0.593488
      vertex 0.207209 2.5 0.593488
    endloop
  endfacet
  facet normal -0.612901 0 -0.79016
    outer loop
      vertex 1.93969 -2.5 -0.0302439
      vertex 2.1035 2.5 -0.157306
      vertex 2.1035 -2.5 -0.157306
    endloop
  endfacet
  facet normal -0.612901 0 -0.79016
    outer loop
      vertex 2.1035 2.5 -0.157306
      vertex 1.93969 -2.5 -0.0302439
      vertex 1.93969 2.5 -0.0302439
    endloop
  endfacet
  facet normal -0.397148 0 -0.917754
    outer loop
      vertex 1.21481 -2.5 0.368262
      vertex 1.40507 2.5 0.285929
      vertex 1.40507 -2.5 0.285929
    endloop
  endfacet
  facet normal -0.397148 0 -0.917754
    outer loop
      vertex 1.40507 2.5 0.285929
      vertex 1.21481 -2.5 0.368262
      vertex 1.21481 2.5 0.368262
    endloop
  endfacet
  facet normal 0.97591 0 -0.218171
    outer loop
      vertex -3.19632 -2.5 -1.87932
      vertex -3.24155 2.5 -2.08164
      vertex -3.19632 2.5 -1.87932
    endloop
  endfacet
  facet normal 0.97591 0 -0.218171
    outer loop
      vertex -3.24155 2.5 -2.08164
      vertex -3.19632 -2.5 -1.87932
      vertex -3.24155 -2.5 -2.08164
    endloop
  endfacet
  facet normal 0.860739 0 -0.509047
    outer loop
      vertex -2.78628 -2.5 -0.931771
      vertex -2.89181 2.5 -1.11021
      vertex -2.78628 2.5 -0.931771
    endloop
  endfacet
  facet normal 0.860739 0 -0.509047
    outer loop
      vertex -2.89181 2.5 -1.11021
      vertex -2.78628 -2.5 -0.931771
      vertex -2.89181 -2.5 -1.11021
    endloop
  endfacet
  facet normal 0.562089 0 -0.827077
    outer loop
      vertex -1.93969 -2.5 -0.0302439
      vertex -1.76823 2.5 0.0862818
      vertex -1.76823 -2.5 0.0862818
    endloop
  endfacet
  facet normal 0.562089 0 -0.827077
    outer loop
      vertex -1.76823 2.5 0.0862818
      vertex -1.93969 -2.5 -0.0302439
      vertex -1.93969 2.5 -0.0302439
    endloop
  endfacet
  facet normal 0.156431 0 -0.987689
    outer loop
      vertex -0.618358 -2.5 0.541548
      vertex -0.413599 2.5 0.573978
      vertex -0.413599 -2.5 0.573978
    endloop
  endfacet
  facet normal 0.156431 0 -0.987689
    outer loop
      vertex -0.413599 2.5 0.573978
      vertex -0.618358 -2.5 0.541548
      vertex -0.618358 2.5 0.541548
    endloop
  endfacet
  facet normal -0.97591 0 -0.218171
    outer loop
      vertex 3.24155 -2.5 -2.08164
      vertex 3.19632 2.5 -1.87932
      vertex 3.24155 2.5 -2.08164
    endloop
  endfacet
  facet normal -0.97591 -0 -0.218171
    outer loop
      vertex 3.19632 2.5 -1.87932
      vertex 3.24155 -2.5 -2.08164
      vertex 3.19632 -2.5 -1.87932
    endloop
  endfacet
  facet normal -0.940869 0 -0.338771
    outer loop
      vertex 3.13849 -2.5 -1.68024
      vertex 3.06826 2.5 -1.48519
      vertex 3.13849 2.5 -1.68024
    endloop
  endfacet
  facet normal -0.940869 -0 -0.338771
    outer loop
      vertex 3.06826 2.5 -1.48519
      vertex 3.13849 -2.5 -1.68024
      vertex 3.06826 -2.5 -1.48519
    endloop
  endfacet
  facet normal -0.960304 0 -0.278955
    outer loop
      vertex 3.19632 -2.5 -1.87932
      vertex 3.13849 2.5 -1.68024
      vertex 3.19632 2.5 -1.87932
    endloop
  endfacet
  facet normal -0.960304 -0 -0.278955
    outer loop
      vertex 3.13849 2.5 -1.68024
      vertex 3.19632 -2.5 -1.87932
      vertex 3.13849 -2.5 -1.68024
    endloop
  endfacet
  facet normal -0.790138 0 -0.61293
    outer loop
      vertex 2.66976 -2.5 -0.760308
      vertex 2.54269 2.5 -0.5965
      vertex 2.66976 2.5 -0.760308
    endloop
  endfacet
  facet normal -0.790138 -0 -0.61293
    outer loop
      vertex 2.54269 2.5 -0.5965
      vertex 2.66976 -2.5 -0.760308
      vertex 2.54269 -2.5 -0.5965
    endloop
  endfacet
  facet normal -0.218146 0 -0.975916
    outer loop
      vertex 0.618358 -2.5 0.541548
      vertex 0.820676 2.5 0.496324
      vertex 0.820676 -2.5 0.496324
    endloop
  endfacet
  facet normal -0.218146 0 -0.975916
    outer loop
      vertex 0.820676 2.5 0.496324
      vertex 0.618358 -2.5 0.541548
      vertex 0.618358 2.5 0.541548
    endloop
  endfacet
  facet normal -0.0314069 0 -0.999507
    outer loop
      vertex 0 -2.5 0.599999
      vertex 0.207209 2.5 0.593488
      vertex 0.207209 -2.5 0.593488
    endloop
  endfacet
  facet normal -0.0314069 0 -0.999507
    outer loop
      vertex 0.207209 2.5 0.593488
      vertex 0 -2.5 0.599999
      vertex 0 2.5 0.599999
    endloop
  endfacet
  facet normal -0.453981 0 -0.891011
    outer loop
      vertex 1.40507 -2.5 0.285929
      vertex 1.58979 2.5 0.191812
      vertex 1.58979 -2.5 0.191812
    endloop
  endfacet
  facet normal -0.453981 0 -0.891011
    outer loop
      vertex 1.58979 2.5 0.191812
      vertex 1.40507 -2.5 0.285929
      vertex 1.40507 2.5 0.285929
    endloop
  endfacet
  facet normal 0.987689 0 -0.156431
    outer loop
      vertex -3.24155 -2.5 -2.08164
      vertex -3.27398 2.5 -2.2864
      vertex -3.24155 2.5 -2.08164
    endloop
  endfacet
  facet normal 0.987689 0 -0.156431
    outer loop
      vertex -3.27398 2.5 -2.2864
      vertex -3.24155 -2.5 -2.08164
      vertex -3.27398 -2.5 -2.2864
    endloop
  endfacet
  facet normal 0.790138 0 -0.61293
    outer loop
      vertex -2.54269 -2.5 -0.5965
      vertex -2.66976 2.5 -0.760308
      vertex -2.54269 2.5 -0.5965
    endloop
  endfacet
  facet normal 0.790138 0 -0.61293
    outer loop
      vertex -2.66976 2.5 -0.760308
      vertex -2.54269 -2.5 -0.5965
      vertex -2.66976 -2.5 -0.760308
    endloop
  endfacet
  facet normal 0.91776 0 -0.397136
    outer loop
      vertex -2.98593 -2.5 -1.29493
      vertex -3.06826 2.5 -1.48519
      vertex -2.98593 2.5 -1.29493
    endloop
  endfacet
  facet normal 0.91776 0 -0.397136
    outer loop
      vertex -3.06826 2.5 -1.48519
      vertex -2.98593 -2.5 -1.29493
      vertex -3.06826 -2.5 -1.48519
    endloop
  endfacet
  facet normal 0.960304 0 -0.278955
    outer loop
      vertex -3.13849 -2.5 -1.68024
      vertex -3.19632 2.5 -1.87932
      vertex -3.13849 2.5 -1.68024
    endloop
  endfacet
  facet normal 0.960304 0 -0.278955
    outer loop
      vertex -3.19632 2.5 -1.87932
      vertex -3.13849 -2.5 -1.68024
      vertex -3.19632 -2.5 -1.87932
    endloop
  endfacet
  facet normal 0.612901 0 -0.79016
    outer loop
      vertex -2.1035 -2.5 -0.157306
      vertex -1.93969 2.5 -0.0302439
      vertex -1.93969 -2.5 -0.0302439
    endloop
  endfacet
  facet normal 0.612901 0 -0.79016
    outer loop
      vertex -1.93969 2.5 -0.0302439
      vertex -2.1035 -2.5 -0.157306
      vertex -2.1035 2.5 -0.157306
    endloop
  endfacet
  facet normal 0.453981 0 -0.891011
    outer loop
      vertex -1.58979 -2.5 0.191812
      vertex -1.40507 2.5 0.285929
      vertex -1.40507 -2.5 0.285929
    endloop
  endfacet
  facet normal 0.453981 0 -0.891011
    outer loop
      vertex -1.40507 2.5 0.285929
      vertex -1.58979 -2.5 0.191812
      vertex -1.58979 2.5 0.191812
    endloop
  endfacet
  facet normal 0.278986 0 -0.960295
    outer loop
      vertex -1.01976 -2.5 0.438486
      vertex -0.820676 2.5 0.496324
      vertex -0.820676 -2.5 0.496324
    endloop
  endfacet
  facet normal 0.278986 0 -0.960295
    outer loop
      vertex -0.820676 2.5 0.496324
      vertex -1.01976 -2.5 0.438486
      vertex -1.01976 2.5 0.438486
    endloop
  endfacet
  facet normal 0.338745 0 -0.940878
    outer loop
      vertex -1.21481 -2.5 0.368262
      vertex -1.01976 2.5 0.438486
      vertex -1.01976 -2.5 0.438486
    endloop
  endfacet
  facet normal 0.338745 0 -0.940878
    outer loop
      vertex -1.01976 2.5 0.438486
      vertex -1.21481 -2.5 0.368262
      vertex -1.21481 2.5 0.368262
    endloop
  endfacet
  facet normal 0.0941102 0 -0.995562
    outer loop
      vertex -0.413599 -2.5 0.573978
      vertex -0.207209 2.5 0.593488
      vertex -0.207209 -2.5 0.593488
    endloop
  endfacet
  facet normal 0.0941102 0 -0.995562
    outer loop
      vertex -0.207209 2.5 0.593488
      vertex -0.413599 -2.5 0.573978
      vertex -0.413599 2.5 0.573978
    endloop
  endfacet
  facet normal -0.987689 0 -0.156431
    outer loop
      vertex 3.27398 -2.5 -2.2864
      vertex 3.24155 2.5 -2.08164
      vertex 3.27398 2.5 -2.2864
    endloop
  endfacet
  facet normal -0.987689 -0 -0.156431
    outer loop
      vertex 3.24155 2.5 -2.08164
      vertex 3.27398 -2.5 -2.2864
      vertex 3.24155 -2.5 -2.08164
    endloop
  endfacet
  facet normal -0.707085 0 -0.707128
    outer loop
      vertex 2.4056 -2.5 -0.440994
      vertex 2.259 2.5 -0.294403
      vertex 2.4056 2.5 -0.440994
    endloop
  endfacet
  facet normal -0.707085 -0 -0.707128
    outer loop
      vertex 2.259 2.5 -0.294403
      vertex 2.4056 -2.5 -0.440994
      vertex 2.259 -2.5 -0.294403
    endloop
  endfacet
  facet normal -0.860739 0 -0.509047
    outer loop
      vertex 2.89181 -2.5 -1.11021
      vertex 2.78628 2.5 -0.931771
      vertex 2.89181 2.5 -1.11021
    endloop
  endfacet
  facet normal -0.860739 -0 -0.509047
    outer loop
      vertex 2.78628 2.5 -0.931771
      vertex 2.89181 -2.5 -1.11021
      vertex 2.78628 -2.5 -0.931771
    endloop
  endfacet
  facet normal -0.827094 0 -0.562063
    outer loop
      vertex 2.78628 -2.5 -0.931771
      vertex 2.66976 2.5 -0.760308
      vertex 2.78628 2.5 -0.931771
    endloop
  endfacet
  facet normal -0.827094 -0 -0.562063
    outer loop
      vertex 2.66976 2.5 -0.760308
      vertex 2.78628 -2.5 -0.931771
      vertex 2.66976 -2.5 -0.760308
    endloop
  endfacet
  facet normal -0.278986 0 -0.960295
    outer loop
      vertex 0.820676 -2.5 0.496324
      vertex 1.01976 2.5 0.438486
      vertex 1.01976 -2.5 0.438486
    endloop
  endfacet
  facet normal -0.278986 0 -0.960295
    outer loop
      vertex 1.01976 2.5 0.438486
      vertex 0.820676 -2.5 0.496324
      vertex 0.820676 2.5 0.496324
    endloop
  endfacet
  facet normal -0.562089 0 -0.827077
    outer loop
      vertex 1.76823 -2.5 0.0862818
      vertex 1.93969 2.5 -0.0302439
      vertex 1.93969 -2.5 -0.0302439
    endloop
  endfacet
  facet normal -0.562089 0 -0.827077
    outer loop
      vertex 1.93969 2.5 -0.0302439
      vertex 1.76823 -2.5 0.0862818
      vertex 1.76823 2.5 0.0862818
    endloop
  endfacet
  facet normal -0.509045 0 -0.86074
    outer loop
      vertex 1.58979 -2.5 0.191812
      vertex 1.76823 2.5 0.0862818
      vertex 1.76823 -2.5 0.0862818
    endloop
  endfacet
  facet normal -0.509045 0 -0.86074
    outer loop
      vertex 1.76823 2.5 0.0862818
      vertex 1.58979 -2.5 0.191812
      vertex 1.58979 2.5 0.191812
    endloop
  endfacet
  facet normal 0.750128 0 -0.661293
    outer loop
      vertex -2.4056 -2.5 -0.440994
      vertex -2.54269 2.5 -0.5965
      vertex -2.4056 2.5 -0.440994
    endloop
  endfacet
  facet normal 0.750128 0 -0.661293
    outer loop
      vertex -2.54269 2.5 -0.5965
      vertex -2.4056 -2.5 -0.440994
      vertex -2.54269 -2.5 -0.5965
    endloop
  endfacet
  facet normal 0.891006 0 -0.453992
    outer loop
      vertex -2.89181 -2.5 -1.11021
      vertex -2.98593 2.5 -1.29493
      vertex -2.89181 2.5 -1.11021
    endloop
  endfacet
  facet normal 0.891006 0 -0.453992
    outer loop
      vertex -2.98593 2.5 -1.29493
      vertex -2.89181 -2.5 -1.11021
      vertex -2.98593 -2.5 -1.29493
    endloop
  endfacet
  facet normal 0.940869 0 -0.338771
    outer loop
      vertex -3.06826 -2.5 -1.48519
      vertex -3.13849 2.5 -1.68024
      vertex -3.06826 2.5 -1.48519
    endloop
  endfacet
  facet normal 0.940869 0 -0.338771
    outer loop
      vertex -3.13849 2.5 -1.68024
      vertex -3.06826 -2.5 -1.48519
      vertex -3.13849 -2.5 -1.68024
    endloop
  endfacet
  facet normal 0.995562 0 -0.0941102
    outer loop
      vertex -3.27398 -2.5 -2.2864
      vertex -3.29349 2.5 -2.49279
      vertex -3.27398 2.5 -2.2864
    endloop
  endfacet
  facet normal 0.995562 0 -0.0941102
    outer loop
      vertex -3.29349 2.5 -2.49279
      vertex -3.27398 -2.5 -2.2864
      vertex -3.29349 -2.5 -2.49279
    endloop
  endfacet
  facet normal 0.661326 0 -0.750098
    outer loop
      vertex -2.259 -2.5 -0.294403
      vertex -2.1035 2.5 -0.157306
      vertex -2.1035 -2.5 -0.157306
    endloop
  endfacet
  facet normal 0.661326 0 -0.750098
    outer loop
      vertex -2.1035 2.5 -0.157306
      vertex -2.259 -2.5 -0.294403
      vertex -2.259 2.5 -0.294403
    endloop
  endfacet
  facet normal 0.509045 0 -0.86074
    outer loop
      vertex -1.76823 -2.5 0.0862818
      vertex -1.58979 2.5 0.191812
      vertex -1.58979 -2.5 0.191812
    endloop
  endfacet
  facet normal 0.509045 0 -0.86074
    outer loop
      vertex -1.58979 2.5 0.191812
      vertex -1.76823 -2.5 0.0862818
      vertex -1.76823 2.5 0.0862818
    endloop
  endfacet
endsolid OpenSCAD_Model
