solid OpenSCAD_Model
  facet normal -1 0 0
    outer loop
      vertex -5 -2.5 -2.5
      vertex -5 2.5 2.5
      vertex -5 2.5 -2.5
    endloop
  endfacet
  facet normal -1 -0 0
    outer loop
      vertex -5 2.5 2.5
      vertex -5 -2.5 -2.5
      vertex -5 -2.5 2.5
    endloop
  endfacet
  facet normal -0 0 1
    outer loop
      vertex -5 2.5 2.5
      vertex 5 -2.5 2.5
      vertex 5 2.5 2.5
    endloop
  endfacet
  facet normal 0 0 1
    outer loop
      vertex 5 -2.5 2.5
      vertex -5 2.5 2.5
      vertex -5 -2.5 2.5
    endloop
  endfacet
  facet normal 1 -0 0
    outer loop
      vertex 5 -2.5 2.5
      vertex 5 2.5 -2.5
      vertex 5 2.5 2.5
    endloop
  endfacet
  facet normal 1 0 0
    outer loop
      vertex 5 2.5 -2.5
      vertex 5 -2.5 2.5
      vertex 5 -2.5 -2.5
    endloop
  endfacet
  facet normal 0 1 0
    outer loop
      vertex 5 2.5 2.5
      vertex 0 2.5 1.6
      vertex -5 2.5 2.5
    endloop
  endfacet
  facet normal 0 1 0
    outer loop
      vertex 5 2.5 2.5
      vertex 0.244883 2.5 1.5923
      vertex 0 2.5 1.6
    endloop
  endfacet
  facet normal 0 1 0
    outer loop
      vertex 5 2.5 2.5
      vertex 0.488799 2.5 1.56925
      vertex 0.244883 2.5 1.5923
    endloop
  endfacet
  facet normal 0 1 0
    outer loop
      vertex 5 2.5 2.5
      vertex 0.730786 2.5 1.53092
      vertex 0.488799 2.5 1.56925
    endloop
  endfacet
  facet normal 0 1 0
    outer loop
      vertex 5 2.5 2.5
      vertex 0.96989 2.5 1.47747
      vertex 0.730786 2.5 1.53092
    endloop
  endfacet
  facet normal 0 1 0
    outer loop
      vertex 5 2.5 2.5
      vertex 1.20517 2.5 1.40912
      vertex 0.96989 2.5 1.47747
    endloop
  endfacet
  facet normal 0 1 0
    outer loop
      vertex 5 2.5 2.5
      vertex 1.43569 2.5 1.32613
      vertex 1.20517 2.5 1.40912
    endloop
  endfacet
  facet normal 0 1 0
    outer loop
      vertex 5 2.5 2.5
      vertex 1.66054 2.5 1.22882
      vertex 1.43569 2.5 1.32613
    endloop
  endfacet
  facet normal 0 1 0
    outer loop
      vertex 5 2.5 2.5
      vertex 1.87884 2.5 1.1176
      vertex 1.66054 2.5 1.22882
    endloop
  endfacet
  facet normal 0 1 0
    outer loop
      vertex 5 2.5 2.5
      vertex 2.08972 2.5 0.992878
      vertex 1.87884 2.5 1.1176
    endloop
  endfacet
  facet normal 0 1 0
    outer loop
      vertex 5 2.5 2.5
      vertex 2.29236 2.5 0.855165
      vertex 2.08972 2.5 0.992878
    endloop
  endfacet
  facet normal 0 1 0
    outer loop
      vertex 5 2.5 2.5
      vertex 2.48595 2.5 0.705001
      vertex 2.29236 2.5 0.855165
    endloop
  endfacet
  facet normal 0 1 0
    outer loop
      vertex 5 2.5 2.5
      vertex 2.66973 2.5 0.542977
      vertex 2.48595 2.5 0.705001
    endloop
  endfacet
  facet normal 0 1 0
    outer loop
      vertex 5 2.5 2.5
      vertex 2.84298 2.5 0.369733
      vertex 2.66973 2.5 0.542977
    endloop
  endfacet
  facet normal 0 1 0
    outer loop
      vertex 5 2.5 2.5
      vertex 3.005 2.5 0.185953
      vertex 2.84298 2.5 0.369733
    endloop
  endfacet
  facet normal 0 1 0
    outer loop
      vertex 5 2.5 2.5
      vertex 3.15517 2.5 -0.00763702
      vertex 3.005 2.5 0.185953
    endloop
  endfacet
  facet normal 0 1 0
    outer loop
      vertex 5 2.5 2.5
      vertex 3.29288 2.5 -0.210275
      vertex 3.15517 2.5 -0.00763702
    endloop
  endfacet
  facet normal 0 1 0
    outer loop
      vertex 5 2.5 2.5
      vertex 3.4176 2.5 -0.42116
      vertex 3.29288 2.5 -0.210275
    endloop
  endfacet
  facet normal 0 1 0
    outer loop
      vertex 5 2.5 2.5
      vertex 3.52882 2.5 -0.639461
      vertex 3.4176 2.5 -0.42116
    endloop
  endfacet
  facet normal 0 1 0
    outer loop
      vertex 5 2.5 2.5
      vertex 3.62613 2.5 -0.864314
      vertex 3.52882 2.5 -0.639461
    endloop
  endfacet
  facet normal 0 1 0
    outer loop
      vertex 5 2.5 2.5
      vertex 3.70912 2.5 -1.09483
      vertex 3.62613 2.5 -0.864314
    endloop
  endfacet
  facet normal 0 1 -0
    outer loop
      vertex 5 2.5 -2.5
      vertex 3.70912 2.5 -1.09483
      vertex 5 2.5 2.5
    endloop
  endfacet
  facet normal 0 1 0
    outer loop
      vertex 3.70912 2.5 -1.09483
      vertex 5 2.5 -2.5
      vertex 3.77747 2.5 -1.33011
    endloop
  endfacet
  facet normal 0 1 0
    outer loop
      vertex 3.77747 2.5 -1.33011
      vertex 5 2.5 -2.5
      vertex 3.83092 2.5 -1.56921
    endloop
  endfacet
  facet normal 0 1 0
    outer loop
      vertex 3.83092 2.5 -1.56921
      vertex 5 2.5 -2.5
      vertex 3.86925 2.5 -1.8112
    endloop
  endfacet
  facet normal 0 1 0
    outer loop
      vertex 3.86925 2.5 -1.8112
      vertex 5 2.5 -2.5
      vertex 3.8923 2.5 -2.05512
    endloop
  endfacet
  facet normal 0 1 0
    outer loop
      vertex 3.8923 2.5 -2.05512
      vertex 5 2.5 -2.5
      vertex 3.9 2.5 -2.3
    endloop
  endfacet
  facet normal 0 1 0
    outer loop
      vertex 3.9 2.5 -2.3
      vertex 5 2.5 -2.5
      vertex 3.89371 2.5 -2.5
    endloop
  endfacet
  facet normal 0 1 -0
    outer loop
      vertex -0.244883 2.5 1.5923
      vertex -5 2.5 2.5
      vertex 0 2.5 1.6
    endloop
  endfacet
  facet normal 0 1 -0
    outer loop
      vertex -0.488799 2.5 1.56925
      vertex -5 2.5 2.5
      vertex -0.244883 2.5 1.5923
    endloop
  endfacet
  facet normal 0 1 -0
    outer loop
      vertex -0.730786 2.5 1.53092
      vertex -5 2.5 2.5
      vertex -0.488799 2.5 1.56925
    endloop
  endfacet
  facet normal 0 1 -0
    outer loop
      vertex -0.96989 2.5 1.47747
      vertex -5 2.5 2.5
      vertex -0.730786 2.5 1.53092
    endloop
  endfacet
  facet normal 0 1 -0
    outer loop
      vertex -1.20517 2.5 1.40912
      vertex -5 2.5 2.5
      vertex -0.96989 2.5 1.47747
    endloop
  endfacet
  facet normal 0 1 -0
    outer loop
      vertex -1.43569 2.5 1.32613
      vertex -5 2.5 2.5
      vertex -1.20517 2.5 1.40912
    endloop
  endfacet
  facet normal 0 1 -0
    outer loop
      vertex -1.66054 2.5 1.22882
      vertex -5 2.5 2.5
      vertex -1.43569 2.5 1.32613
    endloop
  endfacet
  facet normal 0 1 -0
    outer loop
      vertex -1.87884 2.5 1.1176
      vertex -5 2.5 2.5
      vertex -1.66054 2.5 1.22882
    endloop
  endfacet
  facet normal 0 1 -0
    outer loop
      vertex -2.08972 2.5 0.992878
      vertex -5 2.5 2.5
      vertex -1.87884 2.5 1.1176
    endloop
  endfacet
  facet normal 0 1 -0
    outer loop
      vertex -2.29236 2.5 0.855165
      vertex -5 2.5 2.5
      vertex -2.08972 2.5 0.992878
    endloop
  endfacet
  facet normal 0 1 -0
    outer loop
      vertex -2.48595 2.5 0.705001
      vertex -5 2.5 2.5
      vertex -2.29236 2.5 0.855165
    endloop
  endfacet
  facet normal 0 1 -0
    outer loop
      vertex -2.66973 2.5 0.542977
      vertex -5 2.5 2.5
      vertex -2.48595 2.5 0.705001
    endloop
  endfacet
  facet normal 0 1 -0
    outer loop
      vertex -2.84298 2.5 0.369733
      vertex -5 2.5 2.5
      vertex -2.66973 2.5 0.542977
    endloop
  endfacet
  facet normal 0 1 -0
    outer loop
      vertex -3.005 2.5 0.185953
      vertex -5 2.5 2.5
      vertex -2.84298 2.5 0.369733
    endloop
  endfacet
  facet normal 0 1 -0
    outer loop
      vertex -3.15517 2.5 -0.00763702
      vertex -5 2.5 2.5
      vertex -3.005 2.5 0.185953
    endloop
  endfacet
  facet normal 0 1 -0
    outer loop
      vertex -3.29288 2.5 -0.210275
      vertex -5 2.5 2.5
      vertex -3.15517 2.5 -0.00763702
    endloop
  endfacet
  facet normal 0 1 -0
    outer loop
      vertex -3.4176 2.5 -0.42116
      vertex -5 2.5 2.5
      vertex -3.29288 2.5 -0.210275
    endloop
  endfacet
  facet normal 0 1 -0
    outer loop
      vertex -3.52882 2.5 -0.639461
      vertex -5 2.5 2.5
      vertex -3.4176 2.5 -0.42116
    endloop
  endfacet
  facet normal 0 1 -0
    outer loop
      vertex -3.62613 2.5 -0.864314
      vertex -5 2.5 2.5
      vertex -3.52882 2.5 -0.639461
    endloop
  endfacet
  facet normal 0 1 -0
    outer loop
      vertex -3.70912 2.5 -1.09483
      vertex -5 2.5 2.5
      vertex -3.62613 2.5 -0.864314
    endloop
  endfacet
  facet normal 0 1 0
    outer loop
      vertex -5 2.5 -2.5
      vertex -3.70912 2.5 -1.09483
      vertex -3.77747 2.5 -1.33011
    endloop
  endfacet
  facet normal 0 1 0
    outer loop
      vertex -5 2.5 -2.5
      vertex -3.77747 2.5 -1.33011
      vertex -3.83092 2.5 -1.56921
    endloop
  endfacet
  facet normal 0 1 0
    outer loop
      vertex -5 2.5 -2.5
      vertex -3.83092 2.5 -1.56921
      vertex -3.86925 2.5 -1.8112
    endloop
  endfacet
  facet normal 0 1 0
    outer loop
      vertex -5 2.5 -2.5
      vertex -3.86925 2.5 -1.8112
      vertex -3.8923 2.5 -2.05512
    endloop
  endfacet
  facet normal 0 1 0
    outer loop
      vertex -5 2.5 -2.5
      vertex -3.8923 2.5 -2.05512
      vertex -3.9 2.5 -2.3
    endloop
  endfacet
  facet normal 0 1 0
    outer loop
      vertex -5 2.5 -2.5
      vertex -3.9 2.5 -2.3
      vertex -3.89371 2.5 -2.5
    endloop
  endfacet
  facet normal 0 1 0
    outer loop
      vertex -3.70912 2.5 -1.09483
      vertex -5 2.5 -2.5
      vertex -5 2.5 2.5
    endloop
  endfacet
  facet normal 0 0 -1
    outer loop
      vertex -5 -2.5 -2.5
      vertex -3.89371 2.5 -2.5
      vertex -3.89371 -2.5 -2.5
    endloop
  endfacet
  facet normal -0 0 -1
    outer loop
      vertex -3.89371 2.5 -2.5
      vertex -5 -2.5 -2.5
      vertex -5 2.5 -2.5
    endloop
  endfacet
  facet normal 0 0 -1
    outer loop
      vertex 3.89371 -2.5 -2.5
      vertex 5 2.5 -2.5
      vertex 5 -2.5 -2.5
    endloop
  endfacet
  facet normal -0 0 -1
    outer loop
      vertex 5 2.5 -2.5
      vertex 3.89371 -2.5 -2.5
      vertex 3.89371 2.5 -2.5
    endloop
  endfacet
  facet normal 0 -1 0
    outer loop
      vertex -5 -2.5 2.5
      vertex 0 -2.5 1.6
      vertex 5 -2.5 2.5
    endloop
  endfacet
  facet normal 0 -1 0
    outer loop
      vertex -5 -2.5 2.5
      vertex -0.244883 -2.5 1.5923
      vertex 0 -2.5 1.6
    endloop
  endfacet
  facet normal 0 -1 0
    outer loop
      vertex -5 -2.5 2.5
      vertex -0.488799 -2.5 1.56925
      vertex -0.244883 -2.5 1.5923
    endloop
  endfacet
  facet normal 0 -1 0
    outer loop
      vertex -5 -2.5 2.5
      vertex -0.730786 -2.5 1.53092
      vertex -0.488799 -2.5 1.56925
    endloop
  endfacet
  facet normal 0 -1 0
    outer loop
      vertex -5 -2.5 2.5
      vertex -0.96989 -2.5 1.47747
      vertex -0.730786 -2.5 1.53092
    endloop
  endfacet
  facet normal 0 -1 0
    outer loop
      vertex -5 -2.5 2.5
      vertex -1.20517 -2.5 1.40912
      vertex -0.96989 -2.5 1.47747
    endloop
  endfacet
  facet normal 0 -1 0
    outer loop
      vertex -5 -2.5 2.5
      vertex -1.43569 -2.5 1.32613
      vertex -1.20517 -2.5 1.40912
    endloop
  endfacet
  facet normal 0 -1 0
    outer loop
      vertex -5 -2.5 2.5
      vertex -1.66054 -2.5 1.22882
      vertex -1.43569 -2.5 1.32613
    endloop
  endfacet
  facet normal 0 -1 0
    outer loop
      vertex -5 -2.5 2.5
      vertex -1.87884 -2.5 1.1176
      vertex -1.66054 -2.5 1.22882
    endloop
  endfacet
  facet normal 0 -1 0
    outer loop
      vertex -5 -2.5 2.5
      vertex -2.08972 -2.5 0.992878
      vertex -1.87884 -2.5 1.1176
    endloop
  endfacet
  facet normal 0 -1 0
    outer loop
      vertex -5 -2.5 2.5
      vertex -2.29236 -2.5 0.855165
      vertex -2.08972 -2.5 0.992878
    endloop
  endfacet
  facet normal 0 -1 0
    outer loop
      vertex -5 -2.5 2.5
      vertex -2.48595 -2.5 0.705001
      vertex -2.29236 -2.5 0.855165
    endloop
  endfacet
  facet normal 0 -1 0
    outer loop
      vertex -5 -2.5 2.5
      vertex -2.66973 -2.5 0.542977
      vertex -2.48595 -2.5 0.705001
    endloop
  endfacet
  facet normal 0 -1 0
    outer loop
      vertex -5 -2.5 2.5
      vertex -2.84298 -2.5 0.369733
      vertex -2.66973 -2.5 0.542977
    endloop
  endfacet
  facet normal 0 -1 0
    outer loop
      vertex -5 -2.5 2.5
      vertex -3.005 -2.5 0.185953
      vertex -2.84298 -2.5 0.369733
    endloop
  endfacet
  facet normal 0 -1 0
    outer loop
      vertex -5 -2.5 2.5
      vertex -3.15517 -2.5 -0.00763702
      vertex -3.005 -2.5 0.185953
    endloop
  endfacet
  facet normal 0 -1 0
    outer loop
      vertex -5 -2.5 2.5
      vertex -3.29288 -2.5 -0.210275
      vertex -3.15517 -2.5 -0.00763702
    endloop
  endfacet
  facet normal 0 -1 0
    outer loop
      vertex -5 -2.5 2.5
      vertex -3.4176 -2.5 -0.42116
      vertex -3.29288 -2.5 -0.210275
    endloop
  endfacet
  facet normal 0 -1 0
    outer loop
      vertex -5 -2.5 2.5
      vertex -3.52882 -2.5 -0.639461
      vertex -3.4176 -2.5 -0.42116
    endloop
  endfacet
  facet normal 0 -1 0
    outer loop
      vertex -5 -2.5 2.5
      vertex -3.62613 -2.5 -0.864314
      vertex -3.52882 -2.5 -0.639461
    endloop
  endfacet
  facet normal 0 -1 0
    outer loop
      vertex -5 -2.5 2.5
      vertex -3.70912 -2.5 -1.09483
      vertex -3.62613 -2.5 -0.864314
    endloop
  endfacet
  facet normal 0 -1 0
    outer loop
      vertex -5 -2.5 -2.5
      vertex -3.70912 -2.5 -1.09483
      vertex -5 -2.5 2.5
    endloop
  endfacet
  facet normal 0 -1 0
    outer loop
      vertex -3.70912 -2.5 -1.09483
      vertex -5 -2.5 -2.5
      vertex -3.77747 -2.5 -1.33011
    endloop
  endfacet
  facet normal 0 -1 0
    outer loop
      vertex -3.77747 -2.5 -1.33011
      vertex -5 -2.5 -2.5
      vertex -3.83092 -2.5 -1.56921
    endloop
  endfacet
  facet normal 0 -1 0
    outer loop
      vertex -3.83092 -2.5 -1.56921
      vertex -5 -2.5 -2.5
      vertex -3.86925 -2.5 -1.8112
    endloop
  endfacet
  facet normal 0 -1 0
    outer loop
      vertex -3.86925 -2.5 -1.8112
      vertex -5 -2.5 -2.5
      vertex -3.8923 -2.5 -2.05512
    endloop
  endfacet
  facet normal 0 -1 0
    outer loop
      vertex -3.8923 -2.5 -2.05512
      vertex -5 -2.5 -2.5
      vertex -3.9 -2.5 -2.3
    endloop
  endfacet
  facet normal 0 -1 -0
    outer loop
      vertex -3.9 -2.5 -2.3
      vertex -5 -2.5 -2.5
      vertex -3.89371 -2.5 -2.5
    endloop
  endfacet
  facet normal 0 -1 0
    outer loop
      vertex 0.244883 -2.5 1.5923
      vertex 5 -2.5 2.5
      vertex 0 -2.5 1.6
    endloop
  endfacet
  facet normal 0 -1 0
    outer loop
      vertex 0.488799 -2.5 1.56925
      vertex 5 -2.5 2.5
      vertex 0.244883 -2.5 1.5923
    endloop
  endfacet
  facet normal 0 -1 0
    outer loop
      vertex 0.730786 -2.5 1.53092
      vertex 5 -2.5 2.5
      vertex 0.488799 -2.5 1.56925
    endloop
  endfacet
  facet normal 0 -1 0
    outer loop
      vertex 0.96989 -2.5 1.47747
      vertex 5 -2.5 2.5
      vertex 0.730786 -2.5 1.53092
    endloop
  endfacet
  facet normal 0 -1 0
    outer loop
      vertex 1.20517 -2.5 1.40912
      vertex 5 -2.5 2.5
      vertex 0.96989 -2.5 1.47747
    endloop
  endfacet
  facet normal 0 -1 0
    outer loop
      vertex 1.43569 -2.5 1.32613
      vertex 5 -2.5 2.5
      vertex 1.20517 -2.5 1.40912
    endloop
  endfacet
  facet normal 0 -1 0
    outer loop
      vertex 1.66054 -2.5 1.22882
      vertex 5 -2.5 2.5
      vertex 1.43569 -2.5 1.32613
    endloop
  endfacet
  facet normal 0 -1 0
    outer loop
      vertex 1.87884 -2.5 1.1176
      vertex 5 -2.5 2.5
      vertex 1.66054 -2.5 1.22882
    endloop
  endfacet
  facet normal 0 -1 0
    outer loop
      vertex 2.08972 -2.5 0.992878
      vertex 5 -2.5 2.5
      vertex 1.87884 -2.5 1.1176
    endloop
  endfacet
  facet normal 0 -1 0
    outer loop
      vertex 2.29236 -2.5 0.855165
      vertex 5 -2.5 2.5
      vertex 2.08972 -2.5 0.992878
    endloop
  endfacet
  facet normal 0 -1 0
    outer loop
      vertex 2.48595 -2.5 0.705001
      vertex 5 -2.5 2.5
      vertex 2.29236 -2.5 0.855165
    endloop
  endfacet
  facet normal 0 -1 0
    outer loop
      vertex 2.66973 -2.5 0.542977
      vertex 5 -2.5 2.5
      vertex 2.48595 -2.5 0.705001
    endloop
  endfacet
  facet normal 0 -1 0
    outer loop
      vertex 2.84298 -2.5 0.369733
      vertex 5 -2.5 2.5
      vertex 2.66973 -2.5 0.542977
    endloop
  endfacet
  facet normal 0 -1 0
    outer loop
      vertex 3.005 -2.5 0.185953
      vertex 5 -2.5 2.5
      vertex 2.84298 -2.5 0.369733
    endloop
  endfacet
  facet normal 0 -1 0
    outer loop
      vertex 3.15517 -2.5 -0.00763702
      vertex 5 -2.5 2.5
      vertex 3.005 -2.5 0.185953
    endloop
  endfacet
  facet normal 0 -1 0
    outer loop
      vertex 3.29288 -2.5 -0.210275
      vertex 5 -2.5 2.5
      vertex 3.15517 -2.5 -0.00763702
    endloop
  endfacet
  facet normal 0 -1 0
    outer loop
      vertex 3.4176 -2.5 -0.42116
      vertex 5 -2.5 2.5
      vertex 3.29288 -2.5 -0.210275
    endloop
  endfacet
  facet normal 0 -1 0
    outer loop
      vertex 3.52882 -2.5 -0.639461
      vertex 5 -2.5 2.5
      vertex 3.4176 -2.5 -0.42116
    endloop
  endfacet
  facet normal 0 -1 0
    outer loop
      vertex 3.62613 -2.5 -0.864314
      vertex 5 -2.5 2.5
      vertex 3.52882 -2.5 -0.639461
    endloop
  endfacet
  facet normal 0 -1 0
    outer loop
      vertex 3.70912 -2.5 -1.09483
      vertex 5 -2.5 2.5
      vertex 3.62613 -2.5 -0.864314
    endloop
  endfacet
  facet normal 0 -1 0
    outer loop
      vertex 5 -2.5 -2.5
      vertex 3.70912 -2.5 -1.09483
      vertex 3.77747 -2.5 -1.33011
    endloop
  endfacet
  facet normal 0 -1 0
    outer loop
      vertex 5 -2.5 -2.5
      vertex 3.77747 -2.5 -1.33011
      vertex 3.83092 -2.5 -1.56921
    endloop
  endfacet
  facet normal 0 -1 0
    outer loop
      vertex 5 -2.5 -2.5
      vertex 3.83092 -2.5 -1.56921
      vertex 3.86925 -2.5 -1.8112
    endloop
  endfacet
  facet normal 0 -1 0
    outer loop
      vertex 5 -2.5 -2.5
      vertex 3.86925 -2.5 -1.8112
      vertex 3.8923 -2.5 -2.05512
    endloop
  endfacet
  facet normal 0 -1 0
    outer loop
      vertex 5 -2.5 -2.5
      vertex 3.8923 -2.5 -2.05512
      vertex 3.9 -2.5 -2.3
    endloop
  endfacet
  facet normal 0 -1 0
    outer loop
      vertex 5 -2.5 -2.5
      vertex 3.9 -2.5 -2.3
      vertex 3.89371 -2.5 -2.5
    endloop
  endfacet
  facet normal 0 -1 0
    outer loop
      vertex 3.70912 -2.5 -1.09483
      vertex 5 -2.5 -2.5
      vertex 5 -2.5 2.5
    endloop
  endfacet
  facet normal -0.999506 0 -0.0314284
    outer loop
      vertex 3.9 -2.5 -2.3
      vertex 3.8923 2.5 -2.05512
      vertex 3.9 2.5 -2.3
    endloop
  endfacet
  facet normal -0.999506 -0 -0.0314284
    outer loop
      vertex 3.8923 2.5 -2.05512
      vertex 3.9 -2.5 -2.3
      vertex 3.8923 -2.5 -2.05512
    endloop
  endfacet
  facet normal -0.995565 0 -0.0940791
    outer loop
      vertex 3.8923 -2.5 -2.05512
      vertex 3.86925 2.5 -1.8112
      vertex 3.8923 2.5 -2.05512
    endloop
  endfacet
  facet normal -0.995565 -0 -0.0940791
    outer loop
      vertex 3.86925 2.5 -1.8112
      vertex 3.8923 -2.5 -2.05512
      vertex 3.86925 -2.5 -1.8112
    endloop
  endfacet
  facet normal 0.0314281 0 -0.999506
    outer loop
      vertex -0.244883 -2.5 1.5923
      vertex 0 2.5 1.6
      vertex 0 -2.5 1.6
    endloop
  endfacet
  facet normal 0.0314281 0 -0.999506
    outer loop
      vertex 0 2.5 1.6
      vertex -0.244883 -2.5 1.5923
      vertex -0.244883 2.5 1.5923
    endloop
  endfacet
  facet normal -0.707095 0 -0.707119
    outer loop
      vertex 2.84298 -2.5 0.369733
      vertex 2.66973 2.5 0.542977
      vertex 2.84298 2.5 0.369733
    endloop
  endfacet
  facet normal -0.707095 -0 -0.707119
    outer loop
      vertex 2.66973 2.5 0.542977
      vertex 2.84298 -2.5 0.369733
      vertex 2.66973 -2.5 0.542977
    endloop
  endfacet
  facet normal 0.707095 0 -0.707119
    outer loop
      vertex -2.66973 -2.5 0.542977
      vertex -2.84298 2.5 0.369733
      vertex -2.66973 2.5 0.542977
    endloop
  endfacet
  facet normal 0.707095 0 -0.707119
    outer loop
      vertex -2.84298 2.5 0.369733
      vertex -2.66973 -2.5 0.542977
      vertex -2.84298 -2.5 0.369733
    endloop
  endfacet
  facet normal 0.397178 0 -0.917742
    outer loop
      vertex -1.66054 -2.5 1.22882
      vertex -1.43569 2.5 1.32613
      vertex -1.43569 -2.5 1.32613
    endloop
  endfacet
  facet normal 0.397178 0 -0.917742
    outer loop
      vertex -1.43569 2.5 1.32613
      vertex -1.66054 -2.5 1.22882
      vertex -1.66054 2.5 1.22882
    endloop
  endfacet
  facet normal -0.917744 0 -0.397173
    outer loop
      vertex 3.62613 -2.5 -0.864314
      vertex 3.52882 2.5 -0.639461
      vertex 3.62613 2.5 -0.864314
    endloop
  endfacet
  facet normal -0.917744 -0 -0.397173
    outer loop
      vertex 3.52882 2.5 -0.639461
      vertex 3.62613 -2.5 -0.864314
      vertex 3.52882 -2.5 -0.639461
    endloop
  endfacet
  facet normal -0.562081 0 -0.827082
    outer loop
      vertex 2.08972 -2.5 0.992878
      vertex 2.29236 2.5 0.855165
      vertex 2.29236 -2.5 0.855165
    endloop
  endfacet
  facet normal -0.562081 0 -0.827082
    outer loop
      vertex 2.29236 2.5 0.855165
      vertex 2.08972 -2.5 0.992878
      vertex 2.08972 2.5 0.992878
    endloop
  endfacet
  facet normal 0.827086 0 -0.562076
    outer loop
      vertex -3.15517 -2.5 -0.00763702
      vertex -3.29288 2.5 -0.210275
      vertex -3.15517 2.5 -0.00763702
    endloop
  endfacet
  facet normal 0.827086 0 -0.562076
    outer loop
      vertex -3.29288 2.5 -0.210275
      vertex -3.15517 -2.5 -0.00763702
      vertex -3.29288 -2.5 -0.210275
    endloop
  endfacet
  facet normal -0.975913 0 -0.218162
    outer loop
      vertex 3.83092 -2.5 -1.56921
      vertex 3.77747 2.5 -1.33011
      vertex 3.83092 2.5 -1.56921
    endloop
  endfacet
  facet normal -0.975913 -0 -0.218162
    outer loop
      vertex 3.77747 2.5 -1.33011
      vertex 3.83092 -2.5 -1.56921
      vertex 3.77747 -2.5 -1.33011
    endloop
  endfacet
  facet normal -0.156447 0 -0.987686
    outer loop
      vertex 0.488799 -2.5 1.56925
      vertex 0.730786 2.5 1.53092
      vertex 0.730786 -2.5 1.53092
    endloop
  endfacet
  facet normal -0.156447 0 -0.987686
    outer loop
      vertex 0.730786 2.5 1.53092
      vertex 0.488799 -2.5 1.56925
      vertex 0.488799 2.5 1.56925
    endloop
  endfacet
  facet normal -0.612908 0 -0.790155
    outer loop
      vertex 2.29236 -2.5 0.855165
      vertex 2.48595 2.5 0.705001
      vertex 2.48595 -2.5 0.705001
    endloop
  endfacet
  facet normal -0.612908 0 -0.790155
    outer loop
      vertex 2.48595 2.5 0.705001
      vertex 2.29236 -2.5 0.855165
      vertex 2.29236 2.5 0.855165
    endloop
  endfacet
  facet normal 0.860737 0 -0.50905
    outer loop
      vertex -3.29288 -2.5 -0.210275
      vertex -3.4176 2.5 -0.42116
      vertex -3.29288 2.5 -0.210275
    endloop
  endfacet
  facet normal 0.860737 0 -0.50905
    outer loop
      vertex -3.4176 2.5 -0.42116
      vertex -3.29288 -2.5 -0.210275
      vertex -3.4176 -2.5 -0.42116
    endloop
  endfacet
  facet normal 0.975913 0 -0.218162
    outer loop
      vertex -3.77747 -2.5 -1.33011
      vertex -3.83092 2.5 -1.56921
      vertex -3.77747 2.5 -1.33011
    endloop
  endfacet
  facet normal 0.975913 0 -0.218162
    outer loop
      vertex -3.83092 2.5 -1.56921
      vertex -3.77747 -2.5 -1.33011
      vertex -3.83092 -2.5 -1.56921
    endloop
  endfacet
  facet normal 0.987687 0 -0.156445
    outer loop
      vertex -3.83092 -2.5 -1.56921
      vertex -3.86925 2.5 -1.8112
      vertex -3.83092 2.5 -1.56921
    endloop
  endfacet
  facet normal 0.987687 0 -0.156445
    outer loop
      vertex -3.86925 2.5 -1.8112
      vertex -3.83092 -2.5 -1.56921
      vertex -3.86925 -2.5 -1.8112
    endloop
  endfacet
  facet normal 0.562081 0 -0.827082
    outer loop
      vertex -2.29236 -2.5 0.855165
      vertex -2.08972 2.5 0.992878
      vertex -2.08972 -2.5 0.992878
    endloop
  endfacet
  facet normal 0.562081 0 -0.827082
    outer loop
      vertex -2.08972 2.5 0.992878
      vertex -2.29236 -2.5 0.855165
      vertex -2.29236 2.5 0.855165
    endloop
  endfacet
  facet normal 0.661312 0 -0.750111
    outer loop
      vertex -2.66973 -2.5 0.542977
      vertex -2.48595 2.5 0.705001
      vertex -2.48595 -2.5 0.705001
    endloop
  endfacet
  facet normal 0.661312 0 -0.750111
    outer loop
      vertex -2.48595 2.5 0.705001
      vertex -2.66973 -2.5 0.542977
      vertex -2.66973 2.5 0.542977
    endloop
  endfacet
  facet normal 0.0940806 0 -0.995565
    outer loop
      vertex -0.488799 -2.5 1.56925
      vertex -0.244883 2.5 1.5923
      vertex -0.244883 -2.5 1.5923
    endloop
  endfacet
  facet normal 0.0940806 0 -0.995565
    outer loop
      vertex -0.244883 2.5 1.5923
      vertex -0.488799 -2.5 1.56925
      vertex -0.488799 2.5 1.56925
    endloop
  endfacet
  facet normal -0.987687 0 -0.156445
    outer loop
      vertex 3.86925 -2.5 -1.8112
      vertex 3.83092 2.5 -1.56921
      vertex 3.86925 2.5 -1.8112
    endloop
  endfacet
  facet normal -0.987687 -0 -0.156445
    outer loop
      vertex 3.83092 2.5 -1.56921
      vertex 3.86925 -2.5 -1.8112
      vertex 3.83092 -2.5 -1.56921
    endloop
  endfacet
  facet normal -0.750119 0 -0.661303
    outer loop
      vertex 3.005 -2.5 0.185953
      vertex 2.84298 2.5 0.369733
      vertex 3.005 2.5 0.185953
    endloop
  endfacet
  facet normal -0.750119 -0 -0.661303
    outer loop
      vertex 2.84298 2.5 0.369733
      vertex 3.005 -2.5 0.185953
      vertex 2.84298 -2.5 0.369733
    endloop
  endfacet
  facet normal -0.827086 0 -0.562076
    outer loop
      vertex 3.29288 -2.5 -0.210275
      vertex 3.15517 2.5 -0.00763702
      vertex 3.29288 2.5 -0.210275
    endloop
  endfacet
  facet normal -0.827086 -0 -0.562076
    outer loop
      vertex 3.15517 2.5 -0.00763702
      vertex 3.29288 -2.5 -0.210275
      vertex 3.15517 -2.5 -0.00763702
    endloop
  endfacet
  facet normal -0.891023 0 -0.453958
    outer loop
      vertex 3.52882 -2.5 -0.639461
      vertex 3.4176 2.5 -0.42116
      vertex 3.52882 2.5 -0.639461
    endloop
  endfacet
  facet normal -0.891023 -0 -0.453958
    outer loop
      vertex 3.4176 2.5 -0.42116
      vertex 3.52882 -2.5 -0.639461
      vertex 3.4176 -2.5 -0.42116
    endloop
  endfacet
  facet normal -0.0940806 0 -0.995565
    outer loop
      vertex 0.244883 -2.5 1.5923
      vertex 0.488799 2.5 1.56925
      vertex 0.488799 -2.5 1.56925
    endloop
  endfacet
  facet normal -0.0940806 0 -0.995565
    outer loop
      vertex 0.488799 2.5 1.56925
      vertex 0.244883 -2.5 1.5923
      vertex 0.244883 2.5 1.5923
    endloop
  endfacet
  facet normal -0.278972 0 -0.960299
    outer loop
      vertex 0.96989 -2.5 1.47747
      vertex 1.20517 2.5 1.40912
      vertex 1.20517 -2.5 1.40912
    endloop
  endfacet
  facet normal -0.278972 0 -0.960299
    outer loop
      vertex 1.20517 2.5 1.40912
      vertex 0.96989 -2.5 1.47747
      vertex 0.96989 2.5 1.47747
    endloop
  endfacet
  facet normal -0.397178 0 -0.917742
    outer loop
      vertex 1.43569 -2.5 1.32613
      vertex 1.66054 2.5 1.22882
      vertex 1.66054 -2.5 1.22882
    endloop
  endfacet
  facet normal -0.397178 0 -0.917742
    outer loop
      vertex 1.66054 2.5 1.22882
      vertex 1.43569 -2.5 1.32613
      vertex 1.43569 2.5 1.32613
    endloop
  endfacet
  facet normal -0.509065 0 -0.860728
    outer loop
      vertex 1.87884 -2.5 1.1176
      vertex 2.08972 2.5 0.992878
      vertex 2.08972 -2.5 0.992878
    endloop
  endfacet
  facet normal -0.509065 0 -0.860728
    outer loop
      vertex 2.08972 2.5 0.992878
      vertex 1.87884 -2.5 1.1176
      vertex 1.87884 2.5 1.1176
    endloop
  endfacet
  facet normal -0.661312 0 -0.750111
    outer loop
      vertex 2.48595 -2.5 0.705001
      vertex 2.66973 2.5 0.542977
      vertex 2.66973 -2.5 0.542977
    endloop
  endfacet
  facet normal -0.661312 0 -0.750111
    outer loop
      vertex 2.66973 2.5 0.542977
      vertex 2.48595 -2.5 0.705001
      vertex 2.48595 2.5 0.705001
    endloop
  endfacet
  facet normal 0.995565 0 -0.0940791
    outer loop
      vertex -3.86925 -2.5 -1.8112
      vertex -3.8923 2.5 -2.05512
      vertex -3.86925 2.5 -1.8112
    endloop
  endfacet
  facet normal 0.995565 0 -0.0940791
    outer loop
      vertex -3.8923 2.5 -2.05512
      vertex -3.86925 -2.5 -1.8112
      vertex -3.8923 -2.5 -2.05512
    endloop
  endfacet
  facet normal 0.790143 0 -0.612923
    outer loop
      vertex -3.005 -2.5 0.185953
      vertex -3.15517 2.5 -0.00763702
      vertex -3.005 2.5 0.185953
    endloop
  endfacet
  facet normal 0.790143 0 -0.612923
    outer loop
      vertex -3.15517 2.5 -0.00763702
      vertex -3.005 -2.5 0.185953
      vertex -3.15517 -2.5 -0.00763702
    endloop
  endfacet
  facet normal 0.917744 0 -0.397173
    outer loop
      vertex -3.52882 -2.5 -0.639461
      vertex -3.62613 2.5 -0.864314
      vertex -3.52882 2.5 -0.639461
    endloop
  endfacet
  facet normal 0.917744 0 -0.397173
    outer loop
      vertex -3.62613 2.5 -0.864314
      vertex -3.52882 -2.5 -0.639461
      vertex -3.62613 -2.5 -0.864314
    endloop
  endfacet
  facet normal 0.940882 0 -0.338735
    outer loop
      vertex -3.62613 -2.5 -0.864314
      vertex -3.70912 2.5 -1.09483
      vertex -3.62613 2.5 -0.864314
    endloop
  endfacet
  facet normal 0.940882 0 -0.338735
    outer loop
      vertex -3.70912 2.5 -1.09483
      vertex -3.62613 -2.5 -0.864314
      vertex -3.70912 -2.5 -1.09483
    endloop
  endfacet
  facet normal 0.612908 0 -0.790155
    outer loop
      vertex -2.48595 -2.5 0.705001
      vertex -2.29236 2.5 0.855165
      vertex -2.29236 -2.5 0.855165
    endloop
  endfacet
  facet normal 0.612908 0 -0.790155
    outer loop
      vertex -2.29236 2.5 0.855165
      vertex -2.48595 -2.5 0.705001
      vertex -2.48595 2.5 0.705001
    endloop
  endfacet
  facet normal 0.45396 0 -0.891022
    outer loop
      vertex -1.87884 -2.5 1.1176
      vertex -1.66054 2.5 1.22882
      vertex -1.66054 -2.5 1.22882
    endloop
  endfacet
  facet normal 0.45396 0 -0.891022
    outer loop
      vertex -1.66054 2.5 1.22882
      vertex -1.87884 -2.5 1.1176
      vertex -1.87884 2.5 1.1176
    endloop
  endfacet
  facet normal 0.278972 0 -0.960299
    outer loop
      vertex -1.20517 -2.5 1.40912
      vertex -0.96989 2.5 1.47747
      vertex -0.96989 -2.5 1.47747
    endloop
  endfacet
  facet normal 0.278972 0 -0.960299
    outer loop
      vertex -0.96989 2.5 1.47747
      vertex -1.20517 -2.5 1.40912
      vertex -1.20517 2.5 1.40912
    endloop
  endfacet
  facet normal 0.33873 0 -0.940884
    outer loop
      vertex -1.43569 -2.5 1.32613
      vertex -1.20517 2.5 1.40912
      vertex -1.20517 -2.5 1.40912
    endloop
  endfacet
  facet normal 0.33873 0 -0.940884
    outer loop
      vertex -1.20517 2.5 1.40912
      vertex -1.43569 -2.5 1.32613
      vertex -1.43569 2.5 1.32613
    endloop
  endfacet
  facet normal 0.218158 0 -0.975913
    outer loop
      vertex -0.96989 -2.5 1.47747
      vertex -0.730786 2.5 1.53092
      vertex -0.730786 -2.5 1.53092
    endloop
  endfacet
  facet normal 0.218158 0 -0.975913
    outer loop
      vertex -0.730786 2.5 1.53092
      vertex -0.96989 -2.5 1.47747
      vertex -0.96989 2.5 1.47747
    endloop
  endfacet
  facet normal -0.999506 0 0.0314345
    outer loop
      vertex 3.89371 -2.5 -2.5
      vertex 3.9 2.5 -2.3
      vertex 3.89371 2.5 -2.5
    endloop
  endfacet
  facet normal -0.999506 0 0.0314345
    outer loop
      vertex 3.9 2.5 -2.3
      vertex 3.89371 -2.5 -2.5
      vertex 3.9 -2.5 -2.3
    endloop
  endfacet
  facet normal -0.960299 0 -0.278972
    outer loop
      vertex 3.77747 -2.5 -1.33011
      vertex 3.70912 2.5 -1.09483
      vertex 3.77747 2.5 -1.33011
    endloop
  endfacet
  facet normal -0.960299 -0 -0.278972
    outer loop
      vertex 3.70912 2.5 -1.09483
      vertex 3.77747 -2.5 -1.33011
      vertex 3.70912 -2.5 -1.09483
    endloop
  endfacet
  facet normal -0.940882 0 -0.338735
    outer loop
      vertex 3.70912 -2.5 -1.09483
      vertex 3.62613 2.5 -0.864314
      vertex 3.70912 2.5 -1.09483
    endloop
  endfacet
  facet normal -0.940882 -0 -0.338735
    outer loop
      vertex 3.62613 2.5 -0.864314
      vertex 3.70912 -2.5 -1.09483
      vertex 3.62613 -2.5 -0.864314
    endloop
  endfacet
  facet normal -0.790143 0 -0.612923
    outer loop
      vertex 3.15517 -2.5 -0.00763702
      vertex 3.005 2.5 0.185953
      vertex 3.15517 2.5 -0.00763702
    endloop
  endfacet
  facet normal -0.790143 -0 -0.612923
    outer loop
      vertex 3.005 2.5 0.185953
      vertex 3.15517 -2.5 -0.00763702
      vertex 3.005 -2.5 0.185953
    endloop
  endfacet
  facet normal -0.860737 0 -0.50905
    outer loop
      vertex 3.4176 -2.5 -0.42116
      vertex 3.29288 2.5 -0.210275
      vertex 3.4176 2.5 -0.42116
    endloop
  endfacet
  facet normal -0.860737 -0 -0.50905
    outer loop
      vertex 3.29288 2.5 -0.210275
      vertex 3.4176 -2.5 -0.42116
      vertex 3.29288 -2.5 -0.210275
    endloop
  endfacet
  facet normal -0.33873 0 -0.940884
    outer loop
      vertex 1.20517 -2.5 1.40912
      vertex 1.43569 2.5 1.32613
      vertex 1.43569 -2.5 1.32613
    endloop
  endfacet
  facet normal -0.33873 0 -0.940884
    outer loop
      vertex 1.43569 2.5 1.32613
      vertex 1.20517 -2.5 1.40912
      vertex 1.20517 2.5 1.40912
    endloop
  endfacet
  facet normal -0.218158 0 -0.975913
    outer loop
      vertex 0.730786 -2.5 1.53092
      vertex 0.96989 2.5 1.47747
      vertex 0.96989 -2.5 1.47747
    endloop
  endfacet
  facet normal -0.218158 0 -0.975913
    outer loop
      vertex 0.96989 2.5 1.47747
      vertex 0.730786 -2.5 1.53092
      vertex 0.730786 2.5 1.53092
    endloop
  endfacet
  facet normal -0.0314281 0 -0.999506
    outer loop
      vertex 0 -2.5 1.6
      vertex 0.244883 2.5 1.5923
      vertex 0.244883 -2.5 1.5923
    endloop
  endfacet
  facet normal -0.0314281 0 -0.999506
    outer loop
      vertex 0.244883 2.5 1.5923
      vertex 0 -2.5 1.6
      vertex 0 2.5 1.6
    endloop
  endfacet
  facet normal -0.45396 0 -0.891022
    outer loop
      vertex 1.66054 -2.5 1.22882
      vertex 1.87884 2.5 1.1176
      vertex 1.87884 -2.5 1.1176
    endloop
  endfacet
  facet normal -0.45396 0 -0.891022
    outer loop
      vertex 1.87884 2.5 1.1176
      vertex 1.66054 -2.5 1.22882
      vertex 1.66054 2.5 1.22882
    endloop
  endfacet
  facet normal 0.750119 0 -0.661303
    outer loop
      vertex -2.84298 -2.5 0.369733
      vertex -3.005 2.5 0.185953
      vertex -2.84298 2.5 0.369733
    endloop
  endfacet
  facet normal 0.750119 0 -0.661303
    outer loop
      vertex -3.005 2.5 0.185953
      vertex -2.84298 -2.5 0.369733
      vertex -3.005 -2.5 0.185953
    endloop
  endfacet
  facet normal 0.891023 0 -0.453958
    outer loop
      vertex -3.4176 -2.5 -0.42116
      vertex -3.52882 2.5 -0.639461
      vertex -3.4176 2.5 -0.42116
    endloop
  endfacet
  facet normal 0.891023 0 -0.453958
    outer loop
      vertex -3.52882 2.5 -0.639461
      vertex -3.4176 -2.5 -0.42116
      vertex -3.52882 -2.5 -0.639461
    endloop
  endfacet
  facet normal 0.960299 0 -0.278972
    outer loop
      vertex -3.70912 -2.5 -1.09483
      vertex -3.77747 2.5 -1.33011
      vertex -3.70912 2.5 -1.09483
    endloop
  endfacet
  facet normal 0.960299 0 -0.278972
    outer loop
      vertex -3.77747 2.5 -1.33011
      vertex -3.70912 -2.5 -1.09483
      vertex -3.77747 -2.5 -1.33011
    endloop
  endfacet
  facet normal 0.999506 0 -0.0314284
    outer loop
      vertex -3.8923 -2.5 -2.05512
      vertex -3.9 2.5 -2.3
      vertex -3.8923 2.5 -2.05512
    endloop
  endfacet
  facet normal 0.999506 0 -0.0314284
    outer loop
      vertex -3.9 2.5 -2.3
      vertex -3.8923 -2.5 -2.05512
      vertex -3.9 -2.5 -2.3
    endloop
  endfacet
  facet normal 0.999506 -0 0.0314345
    outer loop
      vertex -3.9 -2.5 -2.3
      vertex -3.89371 2.5 -2.5
      vertex -3.9 2.5 -2.3
    endloop
  endfacet
  facet normal 0.999506 0 0.0314345
    outer loop
      vertex -3.89371 2.5 -2.5
      vertex -3.9 -2.5 -2.3
      vertex -3.89371 -2.5 -2.5
    endloop
  endfacet
  facet normal 0.509065 0 -0.860728
    outer loop
      vertex -2.08972 -2.5 0.992878
      vertex -1.87884 2.5 1.1176
      vertex -1.87884 -2.5 1.1176
    endloop
  endfacet
  facet normal 0.509065 0 -0.860728
    outer loop
      vertex -1.87884 2.5 1.1176
      vertex -2.08972 -2.5 0.992878
      vertex -2.08972 2.5 0.992878
    endloop
  endfacet
  facet normal 0.156447 0 -0.987686
    outer loop
      vertex -0.730786 -2.5 1.53092
      vertex -0.488799 2.5 1.56925
      vertex -0.488799 -2.5 1.56925
    endloop
  endfacet
  facet normal 0.156447 0 -0.987686
    outer loop
      vertex -0.488799 2.5 1.56925
      vertex -0.730786 -2.5 1.53092
      vertex -0.730786 2.5 1.53092
    endloop
  endfacet
endsolid OpenSCAD_Model
