solid OpenSCAD_Model
  facet normal -1 0 0
    outer loop
      vertex -5 -2.5 -2.5
      vertex -5 2.5 2.5
      vertex -5 2.5 -2.5
    endloop
  endfacet
  facet normal -1 -0 0
    outer loop
      vertex -5 2.5 2.5
      vertex -5 -2.5 -2.5
      vertex -5 -2.5 2.5
    endloop
  endfacet
  facet normal -0 0 1
    outer loop
      vertex -5 2.5 2.5
      vertex 5 -2.5 2.5
      vertex 5 2.5 2.5
    endloop
  endfacet
  facet normal 0 0 1
    outer loop
      vertex 5 -2.5 2.5
      vertex -5 2.5 2.5
      vertex -5 -2.5 2.5
    endloop
  endfacet
  facet normal 1 -0 0
    outer loop
      vertex 5 -2.5 2.5
      vertex 5 2.5 -2.5
      vertex 5 2.5 2.5
    endloop
  endfacet
  facet normal 1 0 0
    outer loop
      vertex 5 2.5 -2.5
      vertex 5 -2.5 2.5
      vertex 5 -2.5 -2.5
    endloop
  endfacet
  facet normal 0 1 0
    outer loop
      vertex 5 2.5 2.5
      vertex 0 2.5 0.7
      vertex -5 2.5 2.5
    endloop
  endfacet
  facet normal 0 1 0
    outer loop
      vertex 5 2.5 2.5
      vertex 0.232325 2.5 0.692698
      vertex 0 2.5 0.7
    endloop
  endfacet
  facet normal 0 1 0
    outer loop
      vertex 5 2.5 2.5
      vertex 0.463733 2.5 0.670824
      vertex 0.232325 2.5 0.692698
    endloop
  endfacet
  facet normal 0 1 0
    outer loop
      vertex 5 2.5 2.5
      vertex 0.693311 2.5 0.634462
      vertex 0.463733 2.5 0.670824
    endloop
  endfacet
  facet normal 0 1 0
    outer loop
      vertex 5 2.5 2.5
      vertex 0.920152 2.5 0.583757
      vertex 0.693311 2.5 0.634462
    endloop
  endfacet
  facet normal 0 1 0
    outer loop
      vertex 5 2.5 2.5
      vertex 1.14336 2.5 0.518909
      vertex 0.920152 2.5 0.583757
    endloop
  endfacet
  facet normal 0 1 0
    outer loop
      vertex 5 2.5 2.5
      vertex 1.36206 2.5 0.440172
      vertex 1.14336 2.5 0.518909
    endloop
  endfacet
  facet normal 0 1 0
    outer loop
      vertex 5 2.5 2.5
      vertex 1.57538 2.5 0.347859
      vertex 1.36206 2.5 0.440172
    endloop
  endfacet
  facet normal 0 1 0
    outer loop
      vertex 5 2.5 2.5
      vertex 1.78249 2.5 0.242334
      vertex 1.57538 2.5 0.347859
    endloop
  endfacet
  facet normal 0 1 0
    outer loop
      vertex 5 2.5 2.5
      vertex 1.98256 2.5 0.124013
      vertex 1.78249 2.5 0.242334
    endloop
  endfacet
  facet normal 0 1 0
    outer loop
      vertex 5 2.5 2.5
      vertex 2.1748 2.5 -0.00663662
      vertex 1.98256 2.5 0.124013
    endloop
  endfacet
  facet normal 0 1 0
    outer loop
      vertex 5 2.5 2.5
      vertex 2.35847 2.5 -0.1491
      vertex 2.1748 2.5 -0.00663662
    endloop
  endfacet
  facet normal 0 1 0
    outer loop
      vertex 5 2.5 2.5
      vertex 2.53282 2.5 -0.302815
      vertex 2.35847 2.5 -0.1491
    endloop
  endfacet
  facet normal 0 1 0
    outer loop
      vertex 5 2.5 2.5
      vertex 2.69718 2.5 -0.467175
      vertex 2.53282 2.5 -0.302815
    endloop
  endfacet
  facet normal 0 1 0
    outer loop
      vertex 5 2.5 2.5
      vertex 2.8509 2.5 -0.641531
      vertex 2.69718 2.5 -0.467175
    endloop
  endfacet
  facet normal 0 1 0
    outer loop
      vertex 5 2.5 2.5
      vertex 2.99336 2.5 -0.825194
      vertex 2.8509 2.5 -0.641531
    endloop
  endfacet
  facet normal 0 1 0
    outer loop
      vertex 5 2.5 2.5
      vertex 3.12401 2.5 -1.01744
      vertex 2.99336 2.5 -0.825194
    endloop
  endfacet
  facet normal 0 1 0
    outer loop
      vertex 5 2.5 2.5
      vertex 3.24233 2.5 -1.21751
      vertex 3.12401 2.5 -1.01744
    endloop
  endfacet
  facet normal 0 1 -0
    outer loop
      vertex 5 2.5 -2.5
      vertex 3.24233 2.5 -1.21751
      vertex 5 2.5 2.5
    endloop
  endfacet
  facet normal 0 1 0
    outer loop
      vertex 3.24233 2.5 -1.21751
      vertex 5 2.5 -2.5
      vertex 3.34786 2.5 -1.42462
    endloop
  endfacet
  facet normal 0 1 0
    outer loop
      vertex 3.34786 2.5 -1.42462
      vertex 5 2.5 -2.5
      vertex 3.44017 2.5 -1.63794
    endloop
  endfacet
  facet normal 0 1 0
    outer loop
      vertex 3.44017 2.5 -1.63794
      vertex 5 2.5 -2.5
      vertex 3.51891 2.5 -1.85664
    endloop
  endfacet
  facet normal 0 1 0
    outer loop
      vertex 3.51891 2.5 -1.85664
      vertex 5 2.5 -2.5
      vertex 3.58376 2.5 -2.07985
    endloop
  endfacet
  facet normal 0 1 0
    outer loop
      vertex 3.58376 2.5 -2.07985
      vertex 5 2.5 -2.5
      vertex 3.63446 2.5 -2.30669
    endloop
  endfacet
  facet normal 0 1 0
    outer loop
      vertex 3.63446 2.5 -2.30669
      vertex 5 2.5 -2.5
      vertex 3.66508 2.5 -2.5
    endloop
  endfacet
  facet normal 0 1 -0
    outer loop
      vertex -0.232325 2.5 0.692698
      vertex -5 2.5 2.5
      vertex 0 2.5 0.7
    endloop
  endfacet
  facet normal 0 1 -0
    outer loop
      vertex -0.463733 2.5 0.670824
      vertex -5 2.5 2.5
      vertex -0.232325 2.5 0.692698
    endloop
  endfacet
  facet normal 0 1 -0
    outer loop
      vertex -0.693311 2.5 0.634462
      vertex -5 2.5 2.5
      vertex -0.463733 2.5 0.670824
    endloop
  endfacet
  facet normal 0 1 -0
    outer loop
      vertex -0.920152 2.5 0.583757
      vertex -5 2.5 2.5
      vertex -0.693311 2.5 0.634462
    endloop
  endfacet
  facet normal 0 1 -0
    outer loop
      vertex -1.14336 2.5 0.518909
      vertex -5 2.5 2.5
      vertex -0.920152 2.5 0.583757
    endloop
  endfacet
  facet normal 0 1 -0
    outer loop
      vertex -1.36206 2.5 0.440172
      vertex -5 2.5 2.5
      vertex -1.14336 2.5 0.518909
    endloop
  endfacet
  facet normal 0 1 -0
    outer loop
      vertex -1.57538 2.5 0.347859
      vertex -5 2.5 2.5
      vertex -1.36206 2.5 0.440172
    endloop
  endfacet
  facet normal 0 1 -0
    outer loop
      vertex -1.78249 2.5 0.242334
      vertex -5 2.5 2.5
      vertex -1.57538 2.5 0.347859
    endloop
  endfacet
  facet normal 0 1 -0
    outer loop
      vertex -1.98256 2.5 0.124013
      vertex -5 2.5 2.5
      vertex -1.78249 2.5 0.242334
    endloop
  endfacet
  facet normal 0 1 -0
    outer loop
      vertex -2.1748 2.5 -0.00663662
      vertex -5 2.5 2.5
      vertex -1.98256 2.5 0.124013
    endloop
  endfacet
  facet normal 0 1 -0
    outer loop
      vertex -2.35847 2.5 -0.1491
      vertex -5 2.5 2.5
      vertex -2.1748 2.5 -0.00663662
    endloop
  endfacet
  facet normal 0 1 -0
    outer loop
      vertex -2.53282 2.5 -0.302815
      vertex -5 2.5 2.5
      vertex -2.35847 2.5 -0.1491
    endloop
  endfacet
  facet normal 0 1 -0
    outer loop
      vertex -2.69718 2.5 -0.467175
      vertex -5 2.5 2.5
      vertex -2.53282 2.5 -0.302815
    endloop
  endfacet
  facet normal 0 1 -0
    outer loop
      vertex -2.8509 2.5 -0.641531
      vertex -5 2.5 2.5
      vertex -2.69718 2.5 -0.467175
    endloop
  endfacet
  facet normal 0 1 -0
    outer loop
      vertex -2.99336 2.5 -0.825194
      vertex -5 2.5 2.5
      vertex -2.8509 2.5 -0.641531
    endloop
  endfacet
  facet normal 0 1 -0
    outer loop
      vertex -3.12401 2.5 -1.01744
      vertex -5 2.5 2.5
      vertex -2.99336 2.5 -0.825194
    endloop
  endfacet
  facet normal 0 1 -0
    outer loop
      vertex -3.24233 2.5 -1.21751
      vertex -5 2.5 2.5
      vertex -3.12401 2.5 -1.01744
    endloop
  endfacet
  facet normal 0 1 0
    outer loop
      vertex -5 2.5 -2.5
      vertex -3.24233 2.5 -1.21751
      vertex -3.34786 2.5 -1.42462
    endloop
  endfacet
  facet normal 0 1 0
    outer loop
      vertex -5 2.5 -2.5
      vertex -3.34786 2.5 -1.42462
      vertex -3.44017 2.5 -1.63794
    endloop
  endfacet
  facet normal 0 1 0
    outer loop
      vertex -5 2.5 -2.5
      vertex -3.44017 2.5 -1.63794
      vertex -3.51891 2.5 -1.85664
    endloop
  endfacet
  facet normal 0 1 0
    outer loop
      vertex -5 2.5 -2.5
      vertex -3.51891 2.5 -1.85664
      vertex -3.58376 2.5 -2.07985
    endloop
  endfacet
  facet normal 0 1 0
    outer loop
      vertex -5 2.5 -2.5
      vertex -3.58376 2.5 -2.07985
      vertex -3.63446 2.5 -2.30669
    endloop
  endfacet
  facet normal 0 1 0
    outer loop
      vertex -5 2.5 -2.5
      vertex -3.63446 2.5 -2.30669
      vertex -3.66508 2.5 -2.5
    endloop
  endfacet
  facet normal 0 1 0
    outer loop
      vertex -3.24233 2.5 -1.21751
      vertex -5 2.5 -2.5
      vertex -5 2.5 2.5
    endloop
  endfacet
  facet normal 0 0 -1
    outer loop
      vertex -5 -2.5 -2.5
      vertex -3.66508 2.5 -2.5
      vertex -3.66508 -2.5 -2.5
    endloop
  endfacet
  facet normal -0 0 -1
    outer loop
      vertex -3.66508 2.5 -2.5
      vertex -5 -2.5 -2.5
      vertex -5 2.5 -2.5
    endloop
  endfacet
  facet normal 0 0 -1
    outer loop
      vertex 3.66508 -2.5 -2.5
      vertex 5 2.5 -2.5
      vertex 5 -2.5 -2.5
    endloop
  endfacet
  facet normal -0 0 -1
    outer loop
      vertex 5 2.5 -2.5
      vertex 3.66508 -2.5 -2.5
      vertex 3.66508 2.5 -2.5
    endloop
  endfacet
  facet normal 0 -1 0
    outer loop
      vertex -5 -2.5 2.5
      vertex 0 -2.5 0.7
      vertex 5 -2.5 2.5
    endloop
  endfacet
  facet normal 0 -1 0
    outer loop
      vertex -5 -2.5 2.5
      vertex -0.232325 -2.5 0.692698
      vertex 0 -2.5 0.7
    endloop
  endfacet
  facet normal 0 -1 0
    outer loop
      vertex -5 -2.5 2.5
      vertex -0.463733 -2.5 0.670824
      vertex -0.232325 -2.5 0.692698
    endloop
  endfacet
  facet normal 0 -1 0
    outer loop
      vertex -5 -2.5 2.5
      vertex -0.693311 -2.5 0.634462
      vertex -0.463733 -2.5 0.670824
    endloop
  endfacet
  facet normal 0 -1 0
    outer loop
      vertex -5 -2.5 2.5
      vertex -0.920152 -2.5 0.583757
      vertex -0.693311 -2.5 0.634462
    endloop
  endfacet
  facet normal 0 -1 0
    outer loop
      vertex -5 -2.5 2.5
      vertex -1.14336 -2.5 0.518909
      vertex -0.920152 -2.5 0.583757
    endloop
  endfacet
  facet normal 0 -1 0
    outer loop
      vertex -5 -2.5 2.5
      vertex -1.36206 -2.5 0.440172
      vertex -1.14336 -2.5 0.518909
    endloop
  endfacet
  facet normal 0 -1 0
    outer loop
      vertex -5 -2.5 2.5
      vertex -1.57538 -2.5 0.347859
      vertex -1.36206 -2.5 0.440172
    endloop
  endfacet
  facet normal 0 -1 0
    outer loop
      vertex -5 -2.5 2.5
      vertex -1.78249 -2.5 0.242334
      vertex -1.57538 -2.5 0.347859
    endloop
  endfacet
  facet normal 0 -1 0
    outer loop
      vertex -5 -2.5 2.5
      vertex -1.98256 -2.5 0.124013
      vertex -1.78249 -2.5 0.242334
    endloop
  endfacet
  facet normal 0 -1 0
    outer loop
      vertex -5 -2.5 2.5
      vertex -2.1748 -2.5 -0.00663662
      vertex -1.98256 -2.5 0.124013
    endloop
  endfacet
  facet normal 0 -1 0
    outer loop
      vertex -5 -2.5 2.5
      vertex -2.35847 -2.5 -0.1491
      vertex -2.1748 -2.5 -0.00663662
    endloop
  endfacet
  facet normal 0 -1 0
    outer loop
      vertex -5 -2.5 2.5
      vertex -2.53282 -2.5 -0.302815
      vertex -2.35847 -2.5 -0.1491
    endloop
  endfacet
  facet normal 0 -1 0
    outer loop
      vertex -5 -2.5 2.5
      vertex -2.69718 -2.5 -0.467175
      vertex -2.53282 -2.5 -0.302815
    endloop
  endfacet
  facet normal 0 -1 0
    outer loop
      vertex -5 -2.5 2.5
      vertex -2.8509 -2.5 -0.641531
      vertex -2.69718 -2.5 -0.467175
    endloop
  endfacet
  facet normal 0 -1 0
    outer loop
      vertex -5 -2.5 2.5
      vertex -2.99336 -2.5 -0.825194
      vertex -2.8509 -2.5 -0.641531
    endloop
  endfacet
  facet normal 0 -1 0
    outer loop
      vertex -5 -2.5 2.5
      vertex -3.12401 -2.5 -1.01744
      vertex -2.99336 -2.5 -0.825194
    endloop
  endfacet
  facet normal 0 -1 0
    outer loop
      vertex -5 -2.5 2.5
      vertex -3.24233 -2.5 -1.21751
      vertex -3.12401 -2.5 -1.01744
    endloop
  endfacet
  facet normal 0 -1 0
    outer loop
      vertex -5 -2.5 -2.5
      vertex -3.24233 -2.5 -1.21751
      vertex -5 -2.5 2.5
    endloop
  endfacet
  facet normal 0 -1 0
    outer loop
      vertex -3.24233 -2.5 -1.21751
      vertex -5 -2.5 -2.5
      vertex -3.34786 -2.5 -1.42462
    endloop
  endfacet
  facet normal 0 -1 0
    outer loop
      vertex -3.34786 -2.5 -1.42462
      vertex -5 -2.5 -2.5
      vertex -3.44017 -2.5 -1.63794
    endloop
  endfacet
  facet normal 0 -1 0
    outer loop
      vertex -3.44017 -2.5 -1.63794
      vertex -5 -2.5 -2.5
      vertex -3.51891 -2.5 -1.85664
    endloop
  endfacet
  facet normal 0 -1 0
    outer loop
      vertex -3.51891 -2.5 -1.85664
      vertex -5 -2.5 -2.5
      vertex -3.58376 -2.5 -2.07985
    endloop
  endfacet
  facet normal 0 -1 0
    outer loop
      vertex -3.58376 -2.5 -2.07985
      vertex -5 -2.5 -2.5
      vertex -3.63446 -2.5 -2.30669
    endloop
  endfacet
  facet normal 0 -1 0
    outer loop
      vertex -3.63446 -2.5 -2.30669
      vertex -5 -2.5 -2.5
      vertex -3.66508 -2.5 -2.5
    endloop
  endfacet
  facet normal 0 -1 0
    outer loop
      vertex 0.232325 -2.5 0.692698
      vertex 5 -2.5 2.5
      vertex 0 -2.5 0.7
    endloop
  endfacet
  facet normal 0 -1 0
    outer loop
      vertex 0.463733 -2.5 0.670824
      vertex 5 -2.5 2.5
      vertex 0.232325 -2.5 0.692698
    endloop
  endfacet
  facet normal 0 -1 0
    outer loop
      vertex 0.693311 -2.5 0.634462
      vertex 5 -2.5 2.5
      vertex 0.463733 -2.5 0.670824
    endloop
  endfacet
  facet normal 0 -1 0
    outer loop
      vertex 0.920152 -2.5 0.583757
      vertex 5 -2.5 2.5
      vertex 0.693311 -2.5 0.634462
    endloop
  endfacet
  facet normal 0 -1 0
    outer loop
      vertex 1.14336 -2.5 0.518909
      vertex 5 -2.5 2.5
      vertex 0.920152 -2.5 0.583757
    endloop
  endfacet
  facet normal 0 -1 0
    outer loop
      vertex 1.36206 -2.5 0.440172
      vertex 5 -2.5 2.5
      vertex 1.14336 -2.5 0.518909
    endloop
  endfacet
  facet normal 0 -1 0
    outer loop
      vertex 1.57538 -2.5 0.347859
      vertex 5 -2.5 2.5
      vertex 1.36206 -2.5 0.440172
    endloop
  endfacet
  facet normal 0 -1 0
    outer loop
      vertex 1.78249 -2.5 0.242334
      vertex 5 -2.5 2.5
      vertex 1.57538 -2.5 0.347859
    endloop
  endfacet
  facet normal 0 -1 0
    outer loop
      vertex 1.98256 -2.5 0.124013
      vertex 5 -2.5 2.5
      vertex 1.78249 -2.5 0.242334
    endloop
  endfacet
  facet normal 0 -1 0
    outer loop
      vertex 2.1748 -2.5 -0.00663662
      vertex 5 -2.5 2.5
      vertex 1.98256 -2.5 0.124013
    endloop
  endfacet
  facet normal 0 -1 0
    outer loop
      vertex 2.35847 -2.5 -0.1491
      vertex 5 -2.5 2.5
      vertex 2.1748 -2.5 -0.00663662
    endloop
  endfacet
  facet normal 0 -1 0
    outer loop
      vertex 2.53282 -2.5 -0.302815
      vertex 5 -2.5 2.5
      vertex 2.35847 -2.5 -0.1491
    endloop
  endfacet
  facet normal 0 -1 0
    outer loop
      vertex 2.69718 -2.5 -0.467175
      vertex 5 -2.5 2.5
      vertex 2.53282 -2.5 -0.302815
    endloop
  endfacet
  facet normal 0 -1 0
    outer loop
      vertex 2.8509 -2.5 -0.641531
      vertex 5 -2.5 2.5
      vertex 2.69718 -2.5 -0.467175
    endloop
  endfacet
  facet normal 0 -1 0
    outer loop
      vertex 2.99336 -2.5 -0.825194
      vertex 5 -2.5 2.5
      vertex 2.8509 -2.5 -0.641531
    endloop
  endfacet
  facet normal 0 -1 0
    outer loop
      vertex 3.12401 -2.5 -1.01744
      vertex 5 -2.5 2.5
      vertex 2.99336 -2.5 -0.825194
    endloop
  endfacet
  facet normal 0 -1 0
    outer loop
      vertex 3.24233 -2.5 -1.21751
      vertex 5 -2.5 2.5
      vertex 3.12401 -2.5 -1.01744
    endloop
  endfacet
  facet normal 0 -1 0
    outer loop
      vertex 5 -2.5 -2.5
      vertex 3.24233 -2.5 -1.21751
      vertex 3.34786 -2.5 -1.42462
    endloop
  endfacet
  facet normal 0 -1 0
    outer loop
      vertex 5 -2.5 -2.5
      vertex 3.34786 -2.5 -1.42462
      vertex 3.44017 -2.5 -1.63794
    endloop
  endfacet
  facet normal 0 -1 0
    outer loop
      vertex 5 -2.5 -2.5
      vertex 3.44017 -2.5 -1.63794
      vertex 3.51891 -2.5 -1.85664
    endloop
  endfacet
  facet normal 0 -1 0
    outer loop
      vertex 5 -2.5 -2.5
      vertex 3.51891 -2.5 -1.85664
      vertex 3.58376 -2.5 -2.07985
    endloop
  endfacet
  facet normal 0 -1 0
    outer loop
      vertex 5 -2.5 -2.5
      vertex 3.58376 -2.5 -2.07985
      vertex 3.63446 -2.5 -2.30669
    endloop
  endfacet
  facet normal 0 -1 0
    outer loop
      vertex 5 -2.5 -2.5
      vertex 3.63446 -2.5 -2.30669
      vertex 3.66508 -2.5 -2.5
    endloop
  endfacet
  facet normal 0 -1 0
    outer loop
      vertex 3.24233 -2.5 -1.21751
      vertex 5 -2.5 -2.5
      vertex 5 -2.5 2.5
    endloop
  endfacet
  facet normal -0.0314146 0 -0.999506
    outer loop
      vertex 0 -2.5 0.7
      vertex 0.232325 2.5 0.692698
      vertex 0.232325 -2.5 0.692698
    endloop
  endfacet
  facet normal -0.0314146 0 -0.999506
    outer loop
      vertex 0.232325 2.5 0.692698
      vertex 0 -2.5 0.7
      vertex 0 2.5 0.7
    endloop
  endfacet
  facet normal -0.707107 0 -0.707107
    outer loop
      vertex 2.69718 -2.5 -0.467175
      vertex 2.53282 2.5 -0.302815
      vertex 2.69718 2.5 -0.467175
    endloop
  endfacet
  facet normal -0.707107 -0 -0.707107
    outer loop
      vertex 2.53282 2.5 -0.302815
      vertex 2.69718 -2.5 -0.467175
      vertex 2.53282 -2.5 -0.302815
    endloop
  endfacet
  facet normal 0.661323 0 -0.750101
    outer loop
      vertex -2.53282 -2.5 -0.302815
      vertex -2.35847 2.5 -0.1491
      vertex -2.35847 -2.5 -0.1491
    endloop
  endfacet
  facet normal 0.661323 0 -0.750101
    outer loop
      vertex -2.35847 2.5 -0.1491
      vertex -2.53282 -2.5 -0.302815
      vertex -2.53282 2.5 -0.302815
    endloop
  endfacet
  facet normal -0.917757 0 -0.397141
    outer loop
      vertex 3.44017 -2.5 -1.63794
      vertex 3.34786 2.5 -1.42462
      vertex 3.44017 2.5 -1.63794
    endloop
  endfacet
  facet normal -0.917757 -0 -0.397141
    outer loop
      vertex 3.34786 2.5 -1.42462
      vertex 3.44017 -2.5 -1.63794
      vertex 3.34786 -2.5 -1.42462
    endloop
  endfacet
  facet normal 0.790163 0 -0.612897
    outer loop
      vertex -2.8509 -2.5 -0.641531
      vertex -2.99336 2.5 -0.825194
      vertex -2.8509 2.5 -0.641531
    endloop
  endfacet
  facet normal 0.790163 0 -0.612897
    outer loop
      vertex -2.99336 2.5 -0.825194
      vertex -2.8509 -2.5 -0.641531
      vertex -2.99336 -2.5 -0.825194
    endloop
  endfacet
  facet normal 0.156436 0 -0.987688
    outer loop
      vertex -0.693311 -2.5 0.634462
      vertex -0.463733 2.5 0.670824
      vertex -0.463733 -2.5 0.670824
    endloop
  endfacet
  facet normal 0.156436 0 -0.987688
    outer loop
      vertex -0.463733 2.5 0.670824
      vertex -0.693311 -2.5 0.634462
      vertex -0.693311 2.5 0.634462
    endloop
  endfacet
  facet normal -0.891003 0 -0.453998
    outer loop
      vertex 3.34786 -2.5 -1.42462
      vertex 3.24233 2.5 -1.21751
      vertex 3.34786 2.5 -1.42462
    endloop
  endfacet
  facet normal -0.891003 -0 -0.453998
    outer loop
      vertex 3.24233 2.5 -1.21751
      vertex 3.34786 -2.5 -1.42462
      vertex 3.24233 -2.5 -1.21751
    endloop
  endfacet
  facet normal -0.218143 0 -0.975917
    outer loop
      vertex 0.693311 -2.5 0.634462
      vertex 0.920152 2.5 0.583757
      vertex 0.920152 -2.5 0.583757
    endloop
  endfacet
  facet normal -0.218143 0 -0.975917
    outer loop
      vertex 0.920152 2.5 0.583757
      vertex 0.693311 -2.5 0.634462
      vertex 0.693311 2.5 0.634462
    endloop
  endfacet
  facet normal 0.891003 0 -0.453998
    outer loop
      vertex -3.24233 -2.5 -1.21751
      vertex -3.34786 2.5 -1.42462
      vertex -3.24233 2.5 -1.21751
    endloop
  endfacet
  facet normal 0.891003 0 -0.453998
    outer loop
      vertex -3.34786 2.5 -1.42462
      vertex -3.24233 -2.5 -1.21751
      vertex -3.34786 -2.5 -1.42462
    endloop
  endfacet
  facet normal 0.827081 0 -0.562083
    outer loop
      vertex -2.99336 -2.5 -0.825194
      vertex -3.12401 2.5 -1.01744
      vertex -2.99336 2.5 -0.825194
    endloop
  endfacet
  facet normal 0.827081 0 -0.562083
    outer loop
      vertex -3.12401 2.5 -1.01744
      vertex -2.99336 -2.5 -0.825194
      vertex -3.12401 -2.5 -1.01744
    endloop
  endfacet
  facet normal 0.960292 0 -0.278997
    outer loop
      vertex -3.51891 -2.5 -1.85664
      vertex -3.58376 2.5 -2.07985
      vertex -3.51891 2.5 -1.85664
    endloop
  endfacet
  facet normal 0.960292 0 -0.278997
    outer loop
      vertex -3.58376 2.5 -2.07985
      vertex -3.51891 -2.5 -1.85664
      vertex -3.58376 -2.5 -2.07985
    endloop
  endfacet
  facet normal 0.975921 0 -0.218124
    outer loop
      vertex -3.58376 -2.5 -2.07985
      vertex -3.63446 2.5 -2.30669
      vertex -3.58376 2.5 -2.07985
    endloop
  endfacet
  facet normal 0.975921 0 -0.218124
    outer loop
      vertex -3.63446 2.5 -2.30669
      vertex -3.58376 -2.5 -2.07985
      vertex -3.63446 -2.5 -2.30669
    endloop
  endfacet
  facet normal 0.509041 0 -0.860742
    outer loop
      vertex -1.98256 -2.5 0.124013
      vertex -1.78249 2.5 0.242334
      vertex -1.78249 -2.5 0.242334
    endloop
  endfacet
  facet normal 0.509041 0 -0.860742
    outer loop
      vertex -1.78249 2.5 0.242334
      vertex -1.98256 -2.5 0.124013
      vertex -1.98256 2.5 0.124013
    endloop
  endfacet
  facet normal 0.0941062 0 -0.995562
    outer loop
      vertex -0.463733 -2.5 0.670824
      vertex -0.232325 2.5 0.692698
      vertex -0.232325 -2.5 0.692698
    endloop
  endfacet
  facet normal 0.0941062 0 -0.995562
    outer loop
      vertex -0.232325 2.5 0.692698
      vertex -0.463733 -2.5 0.670824
      vertex -0.463733 2.5 0.670824
    endloop
  endfacet
  facet normal -0.975921 0 -0.218124
    outer loop
      vertex 3.63446 -2.5 -2.30669
      vertex 3.58376 2.5 -2.07985
      vertex 3.63446 2.5 -2.30669
    endloop
  endfacet
  facet normal -0.975921 -0 -0.218124
    outer loop
      vertex 3.58376 2.5 -2.07985
      vertex 3.63446 -2.5 -2.30669
      vertex 3.58376 -2.5 -2.07985
    endloop
  endfacet
  facet normal -0.940876 0 -0.33875
    outer loop
      vertex 3.51891 -2.5 -1.85664
      vertex 3.44017 2.5 -1.63794
      vertex 3.51891 2.5 -1.85664
    endloop
  endfacet
  facet normal -0.940876 -0 -0.33875
    outer loop
      vertex 3.44017 2.5 -1.63794
      vertex 3.51891 -2.5 -1.85664
      vertex 3.44017 -2.5 -1.63794
    endloop
  endfacet
  facet normal -0.960292 0 -0.278997
    outer loop
      vertex 3.58376 -2.5 -2.07985
      vertex 3.51891 2.5 -1.85664
      vertex 3.58376 2.5 -2.07985
    endloop
  endfacet
  facet normal -0.960292 -0 -0.278997
    outer loop
      vertex 3.51891 2.5 -1.85664
      vertex 3.58376 -2.5 -2.07985
      vertex 3.51891 -2.5 -1.85664
    endloop
  endfacet
  facet normal -0.790163 0 -0.612897
    outer loop
      vertex 2.99336 -2.5 -0.825194
      vertex 2.8509 2.5 -0.641531
      vertex 2.99336 2.5 -0.825194
    endloop
  endfacet
  facet normal -0.790163 -0 -0.612897
    outer loop
      vertex 2.8509 2.5 -0.641531
      vertex 2.99336 -2.5 -0.825194
      vertex 2.8509 -2.5 -0.641531
    endloop
  endfacet
  facet normal -0.156436 0 -0.987688
    outer loop
      vertex 0.463733 -2.5 0.670824
      vertex 0.693311 2.5 0.634462
      vertex 0.693311 -2.5 0.634462
    endloop
  endfacet
  facet normal -0.156436 0 -0.987688
    outer loop
      vertex 0.693311 2.5 0.634462
      vertex 0.463733 -2.5 0.670824
      vertex 0.463733 2.5 0.670824
    endloop
  endfacet
  facet normal -0.278991 0 -0.960294
    outer loop
      vertex 0.920152 -2.5 0.583757
      vertex 1.14336 2.5 0.518909
      vertex 1.14336 -2.5 0.518909
    endloop
  endfacet
  facet normal -0.278991 0 -0.960294
    outer loop
      vertex 1.14336 2.5 0.518909
      vertex 0.920152 -2.5 0.583757
      vertex 0.920152 2.5 0.583757
    endloop
  endfacet
  facet normal -0.397152 0 -0.917753
    outer loop
      vertex 1.36206 -2.5 0.440172
      vertex 1.57538 2.5 0.347859
      vertex 1.57538 -2.5 0.347859
    endloop
  endfacet
  facet normal -0.397152 0 -0.917753
    outer loop
      vertex 1.57538 2.5 0.347859
      vertex 1.36206 -2.5 0.440172
      vertex 1.36206 2.5 0.440172
    endloop
  endfacet
  facet normal -0.509041 0 -0.860742
    outer loop
      vertex 1.78249 -2.5 0.242334
      vertex 1.98256 2.5 0.124013
      vertex 1.98256 -2.5 0.124013
    endloop
  endfacet
  facet normal -0.509041 0 -0.860742
    outer loop
      vertex 1.98256 2.5 0.124013
      vertex 1.78249 -2.5 0.242334
      vertex 1.78249 2.5 0.242334
    endloop
  endfacet
  facet normal -0.562094 0 -0.827074
    outer loop
      vertex 1.98256 -2.5 0.124013
      vertex 2.1748 2.5 -0.00663662
      vertex 2.1748 -2.5 -0.00663662
    endloop
  endfacet
  facet normal -0.562094 0 -0.827074
    outer loop
      vertex 2.1748 2.5 -0.00663662
      vertex 1.98256 -2.5 0.124013
      vertex 1.98256 2.5 0.124013
    endloop
  endfacet
  facet normal 0.987686 0 -0.156448
    outer loop
      vertex -3.63446 -2.5 -2.30669
      vertex -3.66508 2.5 -2.5
      vertex -3.63446 2.5 -2.30669
    endloop
  endfacet
  facet normal 0.987686 0 -0.156448
    outer loop
      vertex -3.66508 2.5 -2.5
      vertex -3.63446 -2.5 -2.30669
      vertex -3.66508 -2.5 -2.5
    endloop
  endfacet
  facet normal 0.750101 0 -0.661323
    outer loop
      vertex -2.69718 -2.5 -0.467175
      vertex -2.8509 2.5 -0.641531
      vertex -2.69718 2.5 -0.467175
    endloop
  endfacet
  facet normal 0.750101 0 -0.661323
    outer loop
      vertex -2.8509 2.5 -0.641531
      vertex -2.69718 -2.5 -0.467175
      vertex -2.8509 -2.5 -0.641531
    endloop
  endfacet
  facet normal 0.860744 0 -0.509038
    outer loop
      vertex -3.12401 -2.5 -1.01744
      vertex -3.24233 2.5 -1.21751
      vertex -3.12401 2.5 -1.01744
    endloop
  endfacet
  facet normal 0.860744 0 -0.509038
    outer loop
      vertex -3.24233 2.5 -1.21751
      vertex -3.12401 -2.5 -1.01744
      vertex -3.24233 -2.5 -1.21751
    endloop
  endfacet
  facet normal 0.917757 0 -0.397141
    outer loop
      vertex -3.34786 -2.5 -1.42462
      vertex -3.44017 2.5 -1.63794
      vertex -3.34786 2.5 -1.42462
    endloop
  endfacet
  facet normal 0.917757 0 -0.397141
    outer loop
      vertex -3.44017 2.5 -1.63794
      vertex -3.34786 -2.5 -1.42462
      vertex -3.44017 -2.5 -1.63794
    endloop
  endfacet
  facet normal 0.562094 0 -0.827074
    outer loop
      vertex -2.1748 -2.5 -0.00663662
      vertex -1.98256 2.5 0.124013
      vertex -1.98256 -2.5 0.124013
    endloop
  endfacet
  facet normal 0.562094 0 -0.827074
    outer loop
      vertex -1.98256 2.5 0.124013
      vertex -2.1748 -2.5 -0.00663662
      vertex -2.1748 2.5 -0.00663662
    endloop
  endfacet
  facet normal 0.453981 0 -0.891011
    outer loop
      vertex -1.78249 -2.5 0.242334
      vertex -1.57538 2.5 0.347859
      vertex -1.57538 -2.5 0.347859
    endloop
  endfacet
  facet normal 0.453981 0 -0.891011
    outer loop
      vertex -1.57538 2.5 0.347859
      vertex -1.78249 -2.5 0.242334
      vertex -1.78249 2.5 0.242334
    endloop
  endfacet
  facet normal 0.338739 0 -0.940881
    outer loop
      vertex -1.36206 -2.5 0.440172
      vertex -1.14336 2.5 0.518909
      vertex -1.14336 -2.5 0.518909
    endloop
  endfacet
  facet normal 0.338739 0 -0.940881
    outer loop
      vertex -1.14336 2.5 0.518909
      vertex -1.36206 -2.5 0.440172
      vertex -1.36206 2.5 0.440172
    endloop
  endfacet
  facet normal 0.218143 0 -0.975917
    outer loop
      vertex -0.920152 -2.5 0.583757
      vertex -0.693311 2.5 0.634462
      vertex -0.693311 -2.5 0.634462
    endloop
  endfacet
  facet normal 0.218143 0 -0.975917
    outer loop
      vertex -0.693311 2.5 0.634462
      vertex -0.920152 -2.5 0.583757
      vertex -0.920152 2.5 0.583757
    endloop
  endfacet
  facet normal 0.0314146 0 -0.999506
    outer loop
      vertex -0.232325 -2.5 0.692698
      vertex 0 2.5 0.7
      vertex 0 -2.5 0.7
    endloop
  endfacet
  facet normal 0.0314146 0 -0.999506
    outer loop
      vertex 0 2.5 0.7
      vertex -0.232325 -2.5 0.692698
      vertex -0.232325 2.5 0.692698
    endloop
  endfacet
  facet normal -0.987686 0 -0.156448
    outer loop
      vertex 3.66508 -2.5 -2.5
      vertex 3.63446 2.5 -2.30669
      vertex 3.66508 2.5 -2.5
    endloop
  endfacet
  facet normal -0.987686 -0 -0.156448
    outer loop
      vertex 3.63446 2.5 -2.30669
      vertex 3.66508 -2.5 -2.5
      vertex 3.63446 -2.5 -2.30669
    endloop
  endfacet
  facet normal -0.750101 0 -0.661323
    outer loop
      vertex 2.8509 -2.5 -0.641531
      vertex 2.69718 2.5 -0.467175
      vertex 2.8509 2.5 -0.641531
    endloop
  endfacet
  facet normal -0.750101 -0 -0.661323
    outer loop
      vertex 2.69718 2.5 -0.467175
      vertex 2.8509 -2.5 -0.641531
      vertex 2.69718 -2.5 -0.467175
    endloop
  endfacet
  facet normal -0.860744 0 -0.509038
    outer loop
      vertex 3.24233 -2.5 -1.21751
      vertex 3.12401 2.5 -1.01744
      vertex 3.24233 2.5 -1.21751
    endloop
  endfacet
  facet normal -0.860744 -0 -0.509038
    outer loop
      vertex 3.12401 2.5 -1.01744
      vertex 3.24233 -2.5 -1.21751
      vertex 3.12401 -2.5 -1.01744
    endloop
  endfacet
  facet normal -0.827081 0 -0.562083
    outer loop
      vertex 3.12401 -2.5 -1.01744
      vertex 2.99336 2.5 -0.825194
      vertex 3.12401 2.5 -1.01744
    endloop
  endfacet
  facet normal -0.827081 -0 -0.562083
    outer loop
      vertex 2.99336 2.5 -0.825194
      vertex 3.12401 -2.5 -1.01744
      vertex 2.99336 -2.5 -0.825194
    endloop
  endfacet
  facet normal -0.338739 0 -0.940881
    outer loop
      vertex 1.14336 -2.5 0.518909
      vertex 1.36206 2.5 0.440172
      vertex 1.36206 -2.5 0.440172
    endloop
  endfacet
  facet normal -0.338739 0 -0.940881
    outer loop
      vertex 1.36206 2.5 0.440172
      vertex 1.14336 -2.5 0.518909
      vertex 1.14336 2.5 0.518909
    endloop
  endfacet
  facet normal -0.0941062 0 -0.995562
    outer loop
      vertex 0.232325 -2.5 0.692698
      vertex 0.463733 2.5 0.670824
      vertex 0.463733 -2.5 0.670824
    endloop
  endfacet
  facet normal -0.0941062 0 -0.995562
    outer loop
      vertex 0.463733 2.5 0.670824
      vertex 0.232325 -2.5 0.692698
      vertex 0.232325 2.5 0.692698
    endloop
  endfacet
  facet normal -0.453981 0 -0.891011
    outer loop
      vertex 1.57538 -2.5 0.347859
      vertex 1.78249 2.5 0.242334
      vertex 1.78249 -2.5 0.242334
    endloop
  endfacet
  facet normal -0.453981 0 -0.891011
    outer loop
      vertex 1.78249 2.5 0.242334
      vertex 1.57538 -2.5 0.347859
      vertex 1.57538 2.5 0.347859
    endloop
  endfacet
  facet normal -0.661323 0 -0.750101
    outer loop
      vertex 2.35847 -2.5 -0.1491
      vertex 2.53282 2.5 -0.302815
      vertex 2.53282 -2.5 -0.302815
    endloop
  endfacet
  facet normal -0.661323 0 -0.750101
    outer loop
      vertex 2.53282 2.5 -0.302815
      vertex 2.35847 -2.5 -0.1491
      vertex 2.35847 2.5 -0.1491
    endloop
  endfacet
  facet normal -0.612892 0 -0.790167
    outer loop
      vertex 2.1748 -2.5 -0.00663662
      vertex 2.35847 2.5 -0.1491
      vertex 2.35847 -2.5 -0.1491
    endloop
  endfacet
  facet normal -0.612892 0 -0.790167
    outer loop
      vertex 2.35847 2.5 -0.1491
      vertex 2.1748 -2.5 -0.00663662
      vertex 2.1748 2.5 -0.00663662
    endloop
  endfacet
  facet normal 0.707107 0 -0.707107
    outer loop
      vertex -2.53282 -2.5 -0.302815
      vertex -2.69718 2.5 -0.467175
      vertex -2.53282 2.5 -0.302815
    endloop
  endfacet
  facet normal 0.707107 0 -0.707107
    outer loop
      vertex -2.69718 2.5 -0.467175
      vertex -2.53282 -2.5 -0.302815
      vertex -2.69718 -2.5 -0.467175
    endloop
  endfacet
  facet normal 0.940876 0 -0.33875
    outer loop
      vertex -3.44017 -2.5 -1.63794
      vertex -3.51891 2.5 -1.85664
      vertex -3.44017 2.5 -1.63794
    endloop
  endfacet
  facet normal 0.940876 0 -0.33875
    outer loop
      vertex -3.51891 2.5 -1.85664
      vertex -3.44017 -2.5 -1.63794
      vertex -3.51891 -2.5 -1.85664
    endloop
  endfacet
  facet normal 0.612892 0 -0.790167
    outer loop
      vertex -2.35847 -2.5 -0.1491
      vertex -2.1748 2.5 -0.00663662
      vertex -2.1748 -2.5 -0.00663662
    endloop
  endfacet
  facet normal 0.612892 0 -0.790167
    outer loop
      vertex -2.1748 2.5 -0.00663662
      vertex -2.35847 -2.5 -0.1491
      vertex -2.35847 2.5 -0.1491
    endloop
  endfacet
  facet normal 0.397152 0 -0.917753
    outer loop
      vertex -1.57538 -2.5 0.347859
      vertex -1.36206 2.5 0.440172
      vertex -1.36206 -2.5 0.440172
    endloop
  endfacet
  facet normal 0.397152 0 -0.917753
    outer loop
      vertex -1.36206 2.5 0.440172
      vertex -1.57538 -2.5 0.347859
      vertex -1.57538 2.5 0.347859
    endloop
  endfacet
  facet normal 0.278991 0 -0.960294
    outer loop
      vertex -1.14336 -2.5 0.518909
      vertex -0.920152 2.5 0.583757
      vertex -0.920152 -2.5 0.583757
    endloop
  endfacet
  facet normal 0.278991 0 -0.960294
    outer loop
      vertex -0.920152 2.5 0.583757
      vertex -1.14336 -2.5 0.518909
      vertex -1.14336 2.5 0.518909
    endloop
  endfacet
endsolid OpenSCAD_Model
