solid OpenSCAD_Model
  facet normal -1 0 0
    outer loop
      vertex -5 -2.5 -2.5
      vertex -5 2.5 2.5
      vertex -5 2.5 -2.5
    endloop
  endfacet
  facet normal -1 -0 0
    outer loop
      vertex -5 2.5 2.5
      vertex -5 -2.5 -2.5
      vertex -5 -2.5 2.5
    endloop
  endfacet
  facet normal -0 0 1
    outer loop
      vertex -5 2.5 2.5
      vertex 5 -2.5 2.5
      vertex 5 2.5 2.5
    endloop
  endfacet
  facet normal 0 0 1
    outer loop
      vertex 5 -2.5 2.5
      vertex -5 2.5 2.5
      vertex -5 -2.5 2.5
    endloop
  endfacet
  facet normal 1 -0 0
    outer loop
      vertex 5 -2.5 2.5
      vertex 5 2.5 -2.5
      vertex 5 2.5 2.5
    endloop
  endfacet
  facet normal 1 0 0
    outer loop
      vertex 5 2.5 -2.5
      vertex 5 -2.5 2.5
      vertex 5 -2.5 -2.5
    endloop
  endfacet
  facet normal 0 1 0
    outer loop
      vertex 5 2.5 2.5
      vertex 0 2.5 1.7
      vertex -5 2.5 2.5
    endloop
  endfacet
  facet normal 0 1 0
    outer loop
      vertex 5 2.5 2.5
      vertex 0.244883 2.5 1.6923
      vertex 0 2.5 1.7
    endloop
  endfacet
  facet normal 0 1 0
    outer loop
      vertex 5 2.5 2.5
      vertex 0.488799 2.5 1.66925
      vertex 0.244883 2.5 1.6923
    endloop
  endfacet
  facet normal 0 1 0
    outer loop
      vertex 5 2.5 2.5
      vertex 0.730786 2.5 1.63092
      vertex 0.488799 2.5 1.66925
    endloop
  endfacet
  facet normal 0 1 0
    outer loop
      vertex 5 2.5 2.5
      vertex 0.96989 2.5 1.57747
      vertex 0.730786 2.5 1.63092
    endloop
  endfacet
  facet normal 0 1 0
    outer loop
      vertex 5 2.5 2.5
      vertex 1.20517 2.5 1.50912
      vertex 0.96989 2.5 1.57747
    endloop
  endfacet
  facet normal 0 1 0
    outer loop
      vertex 5 2.5 2.5
      vertex 1.43569 2.5 1.42613
      vertex 1.20517 2.5 1.50912
    endloop
  endfacet
  facet normal 0 1 0
    outer loop
      vertex 5 2.5 2.5
      vertex 1.66054 2.5 1.32882
      vertex 1.43569 2.5 1.42613
    endloop
  endfacet
  facet normal 0 1 0
    outer loop
      vertex 5 2.5 2.5
      vertex 1.87884 2.5 1.2176
      vertex 1.66054 2.5 1.32882
    endloop
  endfacet
  facet normal 0 1 0
    outer loop
      vertex 5 2.5 2.5
      vertex 2.08972 2.5 1.09288
      vertex 1.87884 2.5 1.2176
    endloop
  endfacet
  facet normal 0 1 0
    outer loop
      vertex 5 2.5 2.5
      vertex 2.29236 2.5 0.955166
      vertex 2.08972 2.5 1.09288
    endloop
  endfacet
  facet normal 0 1 0
    outer loop
      vertex 5 2.5 2.5
      vertex 2.48595 2.5 0.805001
      vertex 2.29236 2.5 0.955166
    endloop
  endfacet
  facet normal 0 1 0
    outer loop
      vertex 5 2.5 2.5
      vertex 2.66973 2.5 0.642977
      vertex 2.48595 2.5 0.805001
    endloop
  endfacet
  facet normal 0 1 0
    outer loop
      vertex 5 2.5 2.5
      vertex 2.84298 2.5 0.469733
      vertex 2.66973 2.5 0.642977
    endloop
  endfacet
  facet normal 0 1 0
    outer loop
      vertex 5 2.5 2.5
      vertex 3.005 2.5 0.285954
      vertex 2.84298 2.5 0.469733
    endloop
  endfacet
  facet normal 0 1 0
    outer loop
      vertex 5 2.5 2.5
      vertex 3.15517 2.5 0.0923624
      vertex 3.005 2.5 0.285954
    endloop
  endfacet
  facet normal 0 1 0
    outer loop
      vertex 5 2.5 2.5
      vertex 3.29288 2.5 -0.110275
      vertex 3.15517 2.5 0.0923624
    endloop
  endfacet
  facet normal 0 1 0
    outer loop
      vertex 5 2.5 2.5
      vertex 3.4176 2.5 -0.32116
      vertex 3.29288 2.5 -0.110275
    endloop
  endfacet
  facet normal 0 1 0
    outer loop
      vertex 5 2.5 2.5
      vertex 3.52882 2.5 -0.53946
      vertex 3.4176 2.5 -0.32116
    endloop
  endfacet
  facet normal 0 1 0
    outer loop
      vertex 5 2.5 2.5
      vertex 3.62613 2.5 -0.764314
      vertex 3.52882 2.5 -0.53946
    endloop
  endfacet
  facet normal 0 1 0
    outer loop
      vertex 5 2.5 2.5
      vertex 3.70912 2.5 -0.994833
      vertex 3.62613 2.5 -0.764314
    endloop
  endfacet
  facet normal 0 1 -0
    outer loop
      vertex 5 2.5 -2.5
      vertex 3.70912 2.5 -0.994833
      vertex 5 2.5 2.5
    endloop
  endfacet
  facet normal 0 1 0
    outer loop
      vertex 3.70912 2.5 -0.994833
      vertex 5 2.5 -2.5
      vertex 3.77747 2.5 -1.23011
    endloop
  endfacet
  facet normal 0 1 0
    outer loop
      vertex 3.77747 2.5 -1.23011
      vertex 5 2.5 -2.5
      vertex 3.83092 2.5 -1.46921
    endloop
  endfacet
  facet normal 0 1 0
    outer loop
      vertex 3.83092 2.5 -1.46921
      vertex 5 2.5 -2.5
      vertex 3.86925 2.5 -1.7112
    endloop
  endfacet
  facet normal 0 1 0
    outer loop
      vertex 3.86925 2.5 -1.7112
      vertex 5 2.5 -2.5
      vertex 3.8923 2.5 -1.95512
    endloop
  endfacet
  facet normal 0 1 0
    outer loop
      vertex 3.8923 2.5 -1.95512
      vertex 5 2.5 -2.5
      vertex 3.9 2.5 -2.2
    endloop
  endfacet
  facet normal 0 1 0
    outer loop
      vertex 3.9 2.5 -2.2
      vertex 5 2.5 -2.5
      vertex 3.8923 2.5 -2.44488
    endloop
  endfacet
  facet normal 0 1 0
    outer loop
      vertex 3.8923 2.5 -2.44488
      vertex 5 2.5 -2.5
      vertex 3.88709 2.5 -2.5
    endloop
  endfacet
  facet normal 0 1 -0
    outer loop
      vertex -0.244883 2.5 1.6923
      vertex -5 2.5 2.5
      vertex 0 2.5 1.7
    endloop
  endfacet
  facet normal 0 1 -0
    outer loop
      vertex -0.488799 2.5 1.66925
      vertex -5 2.5 2.5
      vertex -0.244883 2.5 1.6923
    endloop
  endfacet
  facet normal 0 1 -0
    outer loop
      vertex -0.730786 2.5 1.63092
      vertex -5 2.5 2.5
      vertex -0.488799 2.5 1.66925
    endloop
  endfacet
  facet normal 0 1 -0
    outer loop
      vertex -0.96989 2.5 1.57747
      vertex -5 2.5 2.5
      vertex -0.730786 2.5 1.63092
    endloop
  endfacet
  facet normal 0 1 -0
    outer loop
      vertex -1.20517 2.5 1.50912
      vertex -5 2.5 2.5
      vertex -0.96989 2.5 1.57747
    endloop
  endfacet
  facet normal 0 1 -0
    outer loop
      vertex -1.43569 2.5 1.42613
      vertex -5 2.5 2.5
      vertex -1.20517 2.5 1.50912
    endloop
  endfacet
  facet normal 0 1 -0
    outer loop
      vertex -1.66054 2.5 1.32882
      vertex -5 2.5 2.5
      vertex -1.43569 2.5 1.42613
    endloop
  endfacet
  facet normal 0 1 -0
    outer loop
      vertex -1.87884 2.5 1.2176
      vertex -5 2.5 2.5
      vertex -1.66054 2.5 1.32882
    endloop
  endfacet
  facet normal 0 1 -0
    outer loop
      vertex -2.08972 2.5 1.09288
      vertex -5 2.5 2.5
      vertex -1.87884 2.5 1.2176
    endloop
  endfacet
  facet normal 0 1 -0
    outer loop
      vertex -2.29236 2.5 0.955166
      vertex -5 2.5 2.5
      vertex -2.08972 2.5 1.09288
    endloop
  endfacet
  facet normal 0 1 -0
    outer loop
      vertex -2.48595 2.5 0.805001
      vertex -5 2.5 2.5
      vertex -2.29236 2.5 0.955166
    endloop
  endfacet
  facet normal 0 1 -0
    outer loop
      vertex -2.66973 2.5 0.642977
      vertex -5 2.5 2.5
      vertex -2.48595 2.5 0.805001
    endloop
  endfacet
  facet normal 0 1 -0
    outer loop
      vertex -2.84298 2.5 0.469733
      vertex -5 2.5 2.5
      vertex -2.66973 2.5 0.642977
    endloop
  endfacet
  facet normal 0 1 -0
    outer loop
      vertex -3.005 2.5 0.285954
      vertex -5 2.5 2.5
      vertex -2.84298 2.5 0.469733
    endloop
  endfacet
  facet normal 0 1 -0
    outer loop
      vertex -3.15517 2.5 0.0923624
      vertex -5 2.5 2.5
      vertex -3.005 2.5 0.285954
    endloop
  endfacet
  facet normal 0 1 -0
    outer loop
      vertex -3.29288 2.5 -0.110275
      vertex -5 2.5 2.5
      vertex -3.15517 2.5 0.0923624
    endloop
  endfacet
  facet normal 0 1 -0
    outer loop
      vertex -3.4176 2.5 -0.32116
      vertex -5 2.5 2.5
      vertex -3.29288 2.5 -0.110275
    endloop
  endfacet
  facet normal 0 1 -0
    outer loop
      vertex -3.52882 2.5 -0.53946
      vertex -5 2.5 2.5
      vertex -3.4176 2.5 -0.32116
    endloop
  endfacet
  facet normal 0 1 -0
    outer loop
      vertex -3.62613 2.5 -0.764314
      vertex -5 2.5 2.5
      vertex -3.52882 2.5 -0.53946
    endloop
  endfacet
  facet normal 0 1 -0
    outer loop
      vertex -3.70912 2.5 -0.994833
      vertex -5 2.5 2.5
      vertex -3.62613 2.5 -0.764314
    endloop
  endfacet
  facet normal 0 1 0
    outer loop
      vertex -5 2.5 -2.5
      vertex -3.70912 2.5 -0.994833
      vertex -3.77747 2.5 -1.23011
    endloop
  endfacet
  facet normal 0 1 0
    outer loop
      vertex -5 2.5 -2.5
      vertex -3.77747 2.5 -1.23011
      vertex -3.83092 2.5 -1.46921
    endloop
  endfacet
  facet normal 0 1 0
    outer loop
      vertex -5 2.5 -2.5
      vertex -3.83092 2.5 -1.46921
      vertex -3.86925 2.5 -1.7112
    endloop
  endfacet
  facet normal 0 1 0
    outer loop
      vertex -5 2.5 -2.5
      vertex -3.86925 2.5 -1.7112
      vertex -3.8923 2.5 -1.95512
    endloop
  endfacet
  facet normal 0 1 0
    outer loop
      vertex -5 2.5 -2.5
      vertex -3.8923 2.5 -1.95512
      vertex -3.9 2.5 -2.2
    endloop
  endfacet
  facet normal 0 1 0
    outer loop
      vertex -5 2.5 -2.5
      vertex -3.9 2.5 -2.2
      vertex -3.8923 2.5 -2.44488
    endloop
  endfacet
  facet normal 0 1 0
    outer loop
      vertex -5 2.5 -2.5
      vertex -3.8923 2.5 -2.44488
      vertex -3.88709 2.5 -2.5
    endloop
  endfacet
  facet normal 0 1 0
    outer loop
      vertex -3.70912 2.5 -0.994833
      vertex -5 2.5 -2.5
      vertex -5 2.5 2.5
    endloop
  endfacet
  facet normal 0 0 -1
    outer loop
      vertex -5 -2.5 -2.5
      vertex -3.88709 2.5 -2.5
      vertex -3.88709 -2.5 -2.5
    endloop
  endfacet
  facet normal -0 0 -1
    outer loop
      vertex -3.88709 2.5 -2.5
      vertex -5 -2.5 -2.5
      vertex -5 2.5 -2.5
    endloop
  endfacet
  facet normal 0 0 -1
    outer loop
      vertex 3.88709 -2.5 -2.5
      vertex 5 2.5 -2.5
      vertex 5 -2.5 -2.5
    endloop
  endfacet
  facet normal -0 0 -1
    outer loop
      vertex 5 2.5 -2.5
      vertex 3.88709 -2.5 -2.5
      vertex 3.88709 2.5 -2.5
    endloop
  endfacet
  facet normal 0 -1 0
    outer loop
      vertex -5 -2.5 2.5
      vertex 0 -2.5 1.7
      vertex 5 -2.5 2.5
    endloop
  endfacet
  facet normal 0 -1 0
    outer loop
      vertex -5 -2.5 2.5
      vertex -0.244883 -2.5 1.6923
      vertex 0 -2.5 1.7
    endloop
  endfacet
  facet normal 0 -1 0
    outer loop
      vertex -5 -2.5 2.5
      vertex -0.488799 -2.5 1.66925
      vertex -0.244883 -2.5 1.6923
    endloop
  endfacet
  facet normal 0 -1 0
    outer loop
      vertex -5 -2.5 2.5
      vertex -0.730786 -2.5 1.63092
      vertex -0.488799 -2.5 1.66925
    endloop
  endfacet
  facet normal 0 -1 0
    outer loop
      vertex -5 -2.5 2.5
      vertex -0.96989 -2.5 1.57747
      vertex -0.730786 -2.5 1.63092
    endloop
  endfacet
  facet normal 0 -1 0
    outer loop
      vertex -5 -2.5 2.5
      vertex -1.20517 -2.5 1.50912
      vertex -0.96989 -2.5 1.57747
    endloop
  endfacet
  facet normal 0 -1 0
    outer loop
      vertex -5 -2.5 2.5
      vertex -1.43569 -2.5 1.42613
      vertex -1.20517 -2.5 1.50912
    endloop
  endfacet
  facet normal 0 -1 0
    outer loop
      vertex -5 -2.5 2.5
      vertex -1.66054 -2.5 1.32882
      vertex -1.43569 -2.5 1.42613
    endloop
  endfacet
  facet normal 0 -1 0
    outer loop
      vertex -5 -2.5 2.5
      vertex -1.87884 -2.5 1.2176
      vertex -1.66054 -2.5 1.32882
    endloop
  endfacet
  facet normal 0 -1 0
    outer loop
      vertex -5 -2.5 2.5
      vertex -2.08972 -2.5 1.09288
      vertex -1.87884 -2.5 1.2176
    endloop
  endfacet
  facet normal 0 -1 0
    outer loop
      vertex -5 -2.5 2.5
      vertex -2.29236 -2.5 0.955166
      vertex -2.08972 -2.5 1.09288
    endloop
  endfacet
  facet normal 0 -1 0
    outer loop
      vertex -5 -2.5 2.5
      vertex -2.48595 -2.5 0.805001
      vertex -2.29236 -2.5 0.955166
    endloop
  endfacet
  facet normal 0 -1 0
    outer loop
      vertex -5 -2.5 2.5
      vertex -2.66973 -2.5 0.642977
      vertex -2.48595 -2.5 0.805001
    endloop
  endfacet
  facet normal 0 -1 0
    outer loop
      vertex -5 -2.5 2.5
      vertex -2.84298 -2.5 0.469733
      vertex -2.66973 -2.5 0.642977
    endloop
  endfacet
  facet normal 0 -1 0
    outer loop
      vertex -5 -2.5 2.5
      vertex -3.005 -2.5 0.285954
      vertex -2.84298 -2.5 0.469733
    endloop
  endfacet
  facet normal 0 -1 0
    outer loop
      vertex -5 -2.5 2.5
      vertex -3.15517 -2.5 0.0923624
      vertex -3.005 -2.5 0.285954
    endloop
  endfacet
  facet normal 0 -1 0
    outer loop
      vertex -5 -2.5 2.5
      vertex -3.29288 -2.5 -0.110275
      vertex -3.15517 -2.5 0.0923624
    endloop
  endfacet
  facet normal 0 -1 0
    outer loop
      vertex -5 -2.5 2.5
      vertex -3.4176 -2.5 -0.32116
      vertex -3.29288 -2.5 -0.110275
    endloop
  endfacet
  facet normal 0 -1 0
    outer loop
      vertex -5 -2.5 2.5
      vertex -3.52882 -2.5 -0.53946
      vertex -3.4176 -2.5 -0.32116
    endloop
  endfacet
  facet normal 0 -1 0
    outer loop
      vertex -5 -2.5 2.5
      vertex -3.62613 -2.5 -0.764314
      vertex -3.52882 -2.5 -0.53946
    endloop
  endfacet
  facet normal 0 -1 0
    outer loop
      vertex -5 -2.5 2.5
      vertex -3.70912 -2.5 -0.994833
      vertex -3.62613 -2.5 -0.764314
    endloop
  endfacet
  facet normal 0 -1 0
    outer loop
      vertex -5 -2.5 -2.5
      vertex -3.70912 -2.5 -0.994833
      vertex -5 -2.5 2.5
    endloop
  endfacet
  facet normal 0 -1 0
    outer loop
      vertex -3.70912 -2.5 -0.994833
      vertex -5 -2.5 -2.5
      vertex -3.77747 -2.5 -1.23011
    endloop
  endfacet
  facet normal 0 -1 0
    outer loop
      vertex -3.77747 -2.5 -1.23011
      vertex -5 -2.5 -2.5
      vertex -3.83092 -2.5 -1.46921
    endloop
  endfacet
  facet normal 0 -1 0
    outer loop
      vertex -3.83092 -2.5 -1.46921
      vertex -5 -2.5 -2.5
      vertex -3.86925 -2.5 -1.7112
    endloop
  endfacet
  facet normal 0 -1 0
    outer loop
      vertex -3.86925 -2.5 -1.7112
      vertex -5 -2.5 -2.5
      vertex -3.8923 -2.5 -1.95512
    endloop
  endfacet
  facet normal 0 -1 0
    outer loop
      vertex -3.8923 -2.5 -1.95512
      vertex -5 -2.5 -2.5
      vertex -3.9 -2.5 -2.2
    endloop
  endfacet
  facet normal 0 -1 -0
    outer loop
      vertex -3.9 -2.5 -2.2
      vertex -5 -2.5 -2.5
      vertex -3.8923 -2.5 -2.44488
    endloop
  endfacet
  facet normal 0 -1 -0
    outer loop
      vertex -3.8923 -2.5 -2.44488
      vertex -5 -2.5 -2.5
      vertex -3.88709 -2.5 -2.5
    endloop
  endfacet
  facet normal 0 -1 0
    outer loop
      vertex 0.244883 -2.5 1.6923
      vertex 5 -2.5 2.5
      vertex 0 -2.5 1.7
    endloop
  endfacet
  facet normal 0 -1 0
    outer loop
      vertex 0.488799 -2.5 1.66925
      vertex 5 -2.5 2.5
      vertex 0.244883 -2.5 1.6923
    endloop
  endfacet
  facet normal 0 -1 0
    outer loop
      vertex 0.730786 -2.5 1.63092
      vertex 5 -2.5 2.5
      vertex 0.488799 -2.5 1.66925
    endloop
  endfacet
  facet normal 0 -1 0
    outer loop
      vertex 0.96989 -2.5 1.57747
      vertex 5 -2.5 2.5
      vertex 0.730786 -2.5 1.63092
    endloop
  endfacet
  facet normal 0 -1 0
    outer loop
      vertex 1.20517 -2.5 1.50912
      vertex 5 -2.5 2.5
      vertex 0.96989 -2.5 1.57747
    endloop
  endfacet
  facet normal 0 -1 0
    outer loop
      vertex 1.43569 -2.5 1.42613
      vertex 5 -2.5 2.5
      vertex 1.20517 -2.5 1.50912
    endloop
  endfacet
  facet normal 0 -1 0
    outer loop
      vertex 1.66054 -2.5 1.32882
      vertex 5 -2.5 2.5
      vertex 1.43569 -2.5 1.42613
    endloop
  endfacet
  facet normal 0 -1 0
    outer loop
      vertex 1.87884 -2.5 1.2176
      vertex 5 -2.5 2.5
      vertex 1.66054 -2.5 1.32882
    endloop
  endfacet
  facet normal 0 -1 0
    outer loop
      vertex 2.08972 -2.5 1.09288
      vertex 5 -2.5 2.5
      vertex 1.87884 -2.5 1.2176
    endloop
  endfacet
  facet normal 0 -1 0
    outer loop
      vertex 2.29236 -2.5 0.955166
      vertex 5 -2.5 2.5
      vertex 2.08972 -2.5 1.09288
    endloop
  endfacet
  facet normal 0 -1 0
    outer loop
      vertex 2.48595 -2.5 0.805001
      vertex 5 -2.5 2.5
      vertex 2.29236 -2.5 0.955166
    endloop
  endfacet
  facet normal 0 -1 0
    outer loop
      vertex 2.66973 -2.5 0.642977
      vertex 5 -2.5 2.5
      vertex 2.48595 -2.5 0.805001
    endloop
  endfacet
  facet normal 0 -1 0
    outer loop
      vertex 2.84298 -2.5 0.469733
      vertex 5 -2.5 2.5
      vertex 2.66973 -2.5 0.642977
    endloop
  endfacet
  facet normal 0 -1 0
    outer loop
      vertex 3.005 -2.5 0.285954
      vertex 5 -2.5 2.5
      vertex 2.84298 -2.5 0.469733
    endloop
  endfacet
  facet normal 0 -1 0
    outer loop
      vertex 3.15517 -2.5 0.0923624
      vertex 5 -2.5 2.5
      vertex 3.005 -2.5 0.285954
    endloop
  endfacet
  facet normal 0 -1 0
    outer loop
      vertex 3.29288 -2.5 -0.110275
      vertex 5 -2.5 2.5
      vertex 3.15517 -2.5 0.0923624
    endloop
  endfacet
  facet normal 0 -1 0
    outer loop
      vertex 3.4176 -2.5 -0.32116
      vertex 5 -2.5 2.5
      vertex 3.29288 -2.5 -0.110275
    endloop
  endfacet
  facet normal 0 -1 0
    outer loop
      vertex 3.52882 -2.5 -0.53946
      vertex 5 -2.5 2.5
      vertex 3.4176 -2.5 -0.32116
    endloop
  endfacet
  facet normal 0 -1 0
    outer loop
      vertex 3.62613 -2.5 -0.764314
      vertex 5 -2.5 2.5
      vertex 3.52882 -2.5 -0.53946
    endloop
  endfacet
  facet normal 0 -1 0
    outer loop
      vertex 3.70912 -2.5 -0.994833
      vertex 5 -2.5 2.5
      vertex 3.62613 -2.5 -0.764314
    endloop
  endfacet
  facet normal 0 -1 0
    outer loop
      vertex 5 -2.5 -2.5
      vertex 3.70912 -2.5 -0.994833
      vertex 3.77747 -2.5 -1.23011
    endloop
  endfacet
  facet normal 0 -1 0
    outer loop
      vertex 5 -2.5 -2.5
      vertex 3.77747 -2.5 -1.23011
      vertex 3.83092 -2.5 -1.46921
    endloop
  endfacet
  facet normal 0 -1 0
    outer loop
      vertex 5 -2.5 -2.5
      vertex 3.83092 -2.5 -1.46921
      vertex 3.86925 -2.5 -1.7112
    endloop
  endfacet
  facet normal 0 -1 0
    outer loop
      vertex 5 -2.5 -2.5
      vertex 3.86925 -2.5 -1.7112
      vertex 3.8923 -2.5 -1.95512
    endloop
  endfacet
  facet normal 0 -1 0
    outer loop
      vertex 5 -2.5 -2.5
      vertex 3.8923 -2.5 -1.95512
      vertex 3.9 -2.5 -2.2
    endloop
  endfacet
  facet normal 0 -1 0
    outer loop
      vertex 5 -2.5 -2.5
      vertex 3.9 -2.5 -2.2
      vertex 3.8923 -2.5 -2.44488
    endloop
  endfacet
  facet normal 0 -1 0
    outer loop
      vertex 5 -2.5 -2.5
      vertex 3.8923 -2.5 -2.44488
      vertex 3.88709 -2.5 -2.5
    endloop
  endfacet
  facet normal 0 -1 0
    outer loop
      vertex 3.70912 -2.5 -0.994833
      vertex 5 -2.5 -2.5
      vertex 5 -2.5 2.5
    endloop
  endfacet
  facet normal -0.999506 0 -0.0314284
    outer loop
      vertex 3.9 -2.5 -2.2
      vertex 3.8923 2.5 -1.95512
      vertex 3.9 2.5 -2.2
    endloop
  endfacet
  facet normal -0.999506 -0 -0.0314284
    outer loop
      vertex 3.8923 2.5 -1.95512
      vertex 3.9 -2.5 -2.2
      vertex 3.8923 -2.5 -1.95512
    endloop
  endfacet
  facet normal -0.995565 0 -0.0940791
    outer loop
      vertex 3.8923 -2.5 -1.95512
      vertex 3.86925 2.5 -1.7112
      vertex 3.8923 2.5 -1.95512
    endloop
  endfacet
  facet normal -0.995565 -0 -0.0940791
    outer loop
      vertex 3.86925 2.5 -1.7112
      vertex 3.8923 -2.5 -1.95512
      vertex 3.86925 -2.5 -1.7112
    endloop
  endfacet
  facet normal 0.999506 0 -0.0314284
    outer loop
      vertex -3.8923 -2.5 -1.95512
      vertex -3.9 2.5 -2.2
      vertex -3.8923 2.5 -1.95512
    endloop
  endfacet
  facet normal 0.999506 0 -0.0314284
    outer loop
      vertex -3.9 2.5 -2.2
      vertex -3.8923 -2.5 -1.95512
      vertex -3.9 -2.5 -2.2
    endloop
  endfacet
  facet normal -0.0314281 0 -0.999506
    outer loop
      vertex 0 -2.5 1.7
      vertex 0.244883 2.5 1.6923
      vertex 0.244883 -2.5 1.6923
    endloop
  endfacet
  facet normal -0.0314281 0 -0.999506
    outer loop
      vertex 0.244883 2.5 1.6923
      vertex 0 -2.5 1.7
      vertex 0 2.5 1.7
    endloop
  endfacet
  facet normal -0.707095 0 -0.707119
    outer loop
      vertex 2.66973 -2.5 0.642977
      vertex 2.84298 2.5 0.469733
      vertex 2.84298 -2.5 0.469733
    endloop
  endfacet
  facet normal -0.707095 0 -0.707119
    outer loop
      vertex 2.84298 2.5 0.469733
      vertex 2.66973 -2.5 0.642977
      vertex 2.66973 2.5 0.642977
    endloop
  endfacet
  facet normal 0.707095 0 -0.707119
    outer loop
      vertex -2.84298 -2.5 0.469733
      vertex -2.66973 2.5 0.642977
      vertex -2.66973 -2.5 0.642977
    endloop
  endfacet
  facet normal 0.707095 0 -0.707119
    outer loop
      vertex -2.66973 2.5 0.642977
      vertex -2.84298 -2.5 0.469733
      vertex -2.84298 2.5 0.469733
    endloop
  endfacet
  facet normal -0.917744 0 -0.397172
    outer loop
      vertex 3.62613 -2.5 -0.764314
      vertex 3.52882 2.5 -0.53946
      vertex 3.62613 2.5 -0.764314
    endloop
  endfacet
  facet normal -0.917744 -0 -0.397172
    outer loop
      vertex 3.52882 2.5 -0.53946
      vertex 3.62613 -2.5 -0.764314
      vertex 3.52882 -2.5 -0.53946
    endloop
  endfacet
  facet normal -0.397178 0 -0.917742
    outer loop
      vertex 1.43569 -2.5 1.42613
      vertex 1.66054 2.5 1.32882
      vertex 1.66054 -2.5 1.32882
    endloop
  endfacet
  facet normal -0.397178 0 -0.917742
    outer loop
      vertex 1.66054 2.5 1.32882
      vertex 1.43569 -2.5 1.42613
      vertex 1.43569 2.5 1.42613
    endloop
  endfacet
  facet normal -0.975913 0 -0.218162
    outer loop
      vertex 3.83092 -2.5 -1.46921
      vertex 3.77747 2.5 -1.23011
      vertex 3.83092 2.5 -1.46921
    endloop
  endfacet
  facet normal -0.975913 -0 -0.218162
    outer loop
      vertex 3.77747 2.5 -1.23011
      vertex 3.83092 -2.5 -1.46921
      vertex 3.77747 -2.5 -1.23011
    endloop
  endfacet
  facet normal -0.218158 0 -0.975913
    outer loop
      vertex 0.730786 -2.5 1.63092
      vertex 0.96989 2.5 1.57747
      vertex 0.96989 -2.5 1.57747
    endloop
  endfacet
  facet normal -0.218158 0 -0.975913
    outer loop
      vertex 0.96989 2.5 1.57747
      vertex 0.730786 -2.5 1.63092
      vertex 0.730786 2.5 1.63092
    endloop
  endfacet
  facet normal -0.661312 0 -0.750111
    outer loop
      vertex 2.48595 -2.5 0.805001
      vertex 2.66973 2.5 0.642977
      vertex 2.66973 -2.5 0.642977
    endloop
  endfacet
  facet normal -0.661312 0 -0.750111
    outer loop
      vertex 2.66973 2.5 0.642977
      vertex 2.48595 -2.5 0.805001
      vertex 2.48595 2.5 0.805001
    endloop
  endfacet
  facet normal 0.827085 0 -0.562077
    outer loop
      vertex -3.15517 -2.5 0.0923624
      vertex -3.29288 2.5 -0.110275
      vertex -3.15517 2.5 0.0923624
    endloop
  endfacet
  facet normal 0.827085 0 -0.562077
    outer loop
      vertex -3.29288 2.5 -0.110275
      vertex -3.15517 -2.5 0.0923624
      vertex -3.29288 -2.5 -0.110275
    endloop
  endfacet
  facet normal 0.860737 0 -0.50905
    outer loop
      vertex -3.29288 -2.5 -0.110275
      vertex -3.4176 2.5 -0.32116
      vertex -3.29288 2.5 -0.110275
    endloop
  endfacet
  facet normal 0.860737 0 -0.50905
    outer loop
      vertex -3.4176 2.5 -0.32116
      vertex -3.29288 -2.5 -0.110275
      vertex -3.4176 -2.5 -0.32116
    endloop
  endfacet
  facet normal 0.975913 0 -0.218162
    outer loop
      vertex -3.77747 -2.5 -1.23011
      vertex -3.83092 2.5 -1.46921
      vertex -3.77747 2.5 -1.23011
    endloop
  endfacet
  facet normal 0.975913 0 -0.218162
    outer loop
      vertex -3.83092 2.5 -1.46921
      vertex -3.77747 -2.5 -1.23011
      vertex -3.83092 -2.5 -1.46921
    endloop
  endfacet
  facet normal 0.987687 0 -0.156445
    outer loop
      vertex -3.83092 -2.5 -1.46921
      vertex -3.86925 2.5 -1.7112
      vertex -3.83092 2.5 -1.46921
    endloop
  endfacet
  facet normal 0.987687 0 -0.156445
    outer loop
      vertex -3.86925 2.5 -1.7112
      vertex -3.83092 -2.5 -1.46921
      vertex -3.86925 -2.5 -1.7112
    endloop
  endfacet
  facet normal 0.562083 0 -0.827081
    outer loop
      vertex -2.29236 -2.5 0.955166
      vertex -2.08972 2.5 1.09288
      vertex -2.08972 -2.5 1.09288
    endloop
  endfacet
  facet normal 0.562083 0 -0.827081
    outer loop
      vertex -2.08972 2.5 1.09288
      vertex -2.29236 -2.5 0.955166
      vertex -2.29236 2.5 0.955166
    endloop
  endfacet
  facet normal 0.0940806 0 -0.995565
    outer loop
      vertex -0.488799 -2.5 1.66925
      vertex -0.244883 2.5 1.6923
      vertex -0.244883 -2.5 1.6923
    endloop
  endfacet
  facet normal 0.0940806 0 -0.995565
    outer loop
      vertex -0.244883 2.5 1.6923
      vertex -0.488799 -2.5 1.66925
      vertex -0.488799 2.5 1.66925
    endloop
  endfacet
  facet normal -0.987687 0 -0.156445
    outer loop
      vertex 3.86925 -2.5 -1.7112
      vertex 3.83092 2.5 -1.46921
      vertex 3.86925 2.5 -1.7112
    endloop
  endfacet
  facet normal -0.987687 -0 -0.156445
    outer loop
      vertex 3.83092 2.5 -1.46921
      vertex 3.86925 -2.5 -1.7112
      vertex 3.83092 -2.5 -1.46921
    endloop
  endfacet
  facet normal -0.750117 0 -0.661305
    outer loop
      vertex 3.005 -2.5 0.285954
      vertex 2.84298 2.5 0.469733
      vertex 3.005 2.5 0.285954
    endloop
  endfacet
  facet normal -0.750117 -0 -0.661305
    outer loop
      vertex 2.84298 2.5 0.469733
      vertex 3.005 -2.5 0.285954
      vertex 2.84298 -2.5 0.469733
    endloop
  endfacet
  facet normal -0.827085 0 -0.562077
    outer loop
      vertex 3.29288 -2.5 -0.110275
      vertex 3.15517 2.5 0.0923624
      vertex 3.29288 2.5 -0.110275
    endloop
  endfacet
  facet normal -0.827085 -0 -0.562077
    outer loop
      vertex 3.15517 2.5 0.0923624
      vertex 3.29288 -2.5 -0.110275
      vertex 3.15517 -2.5 0.0923624
    endloop
  endfacet
  facet normal -0.891022 0 -0.45396
    outer loop
      vertex 3.52882 -2.5 -0.53946
      vertex 3.4176 2.5 -0.32116
      vertex 3.52882 2.5 -0.53946
    endloop
  endfacet
  facet normal -0.891022 -0 -0.45396
    outer loop
      vertex 3.4176 2.5 -0.32116
      vertex 3.52882 -2.5 -0.53946
      vertex 3.4176 -2.5 -0.32116
    endloop
  endfacet
  facet normal -0.156447 0 -0.987686
    outer loop
      vertex 0.488799 -2.5 1.66925
      vertex 0.730786 2.5 1.63092
      vertex 0.730786 -2.5 1.63092
    endloop
  endfacet
  facet normal -0.156447 0 -0.987686
    outer loop
      vertex 0.730786 2.5 1.63092
      vertex 0.488799 -2.5 1.66925
      vertex 0.488799 2.5 1.66925
    endloop
  endfacet
  facet normal -0.33873 0 -0.940884
    outer loop
      vertex 1.20517 -2.5 1.50912
      vertex 1.43569 2.5 1.42613
      vertex 1.43569 -2.5 1.42613
    endloop
  endfacet
  facet normal -0.33873 0 -0.940884
    outer loop
      vertex 1.43569 2.5 1.42613
      vertex 1.20517 -2.5 1.50912
      vertex 1.20517 2.5 1.50912
    endloop
  endfacet
  facet normal -0.509059 0 -0.860731
    outer loop
      vertex 1.87884 -2.5 1.2176
      vertex 2.08972 2.5 1.09288
      vertex 2.08972 -2.5 1.09288
    endloop
  endfacet
  facet normal -0.509059 0 -0.860731
    outer loop
      vertex 2.08972 2.5 1.09288
      vertex 1.87884 -2.5 1.2176
      vertex 1.87884 2.5 1.2176
    endloop
  endfacet
  facet normal -0.45396 0 -0.891022
    outer loop
      vertex 1.66054 -2.5 1.32882
      vertex 1.87884 2.5 1.2176
      vertex 1.87884 -2.5 1.2176
    endloop
  endfacet
  facet normal -0.45396 0 -0.891022
    outer loop
      vertex 1.87884 2.5 1.2176
      vertex 1.66054 -2.5 1.32882
      vertex 1.66054 2.5 1.32882
    endloop
  endfacet
  facet normal 0.917744 0 -0.397172
    outer loop
      vertex -3.52882 -2.5 -0.53946
      vertex -3.62613 2.5 -0.764314
      vertex -3.52882 2.5 -0.53946
    endloop
  endfacet
  facet normal 0.917744 0 -0.397172
    outer loop
      vertex -3.62613 2.5 -0.764314
      vertex -3.52882 -2.5 -0.53946
      vertex -3.62613 -2.5 -0.764314
    endloop
  endfacet
  facet normal 0.940883 0 -0.338731
    outer loop
      vertex -3.62613 -2.5 -0.764314
      vertex -3.70912 2.5 -0.994833
      vertex -3.62613 2.5 -0.764314
    endloop
  endfacet
  facet normal 0.940883 0 -0.338731
    outer loop
      vertex -3.70912 2.5 -0.994833
      vertex -3.62613 -2.5 -0.764314
      vertex -3.70912 -2.5 -0.994833
    endloop
  endfacet
  facet normal 0.995565 0 -0.0940791
    outer loop
      vertex -3.86925 -2.5 -1.7112
      vertex -3.8923 2.5 -1.95512
      vertex -3.86925 2.5 -1.7112
    endloop
  endfacet
  facet normal 0.995565 0 -0.0940791
    outer loop
      vertex -3.8923 2.5 -1.95512
      vertex -3.86925 -2.5 -1.7112
      vertex -3.8923 -2.5 -1.95512
    endloop
  endfacet
  facet normal 0.61291 0 -0.790153
    outer loop
      vertex -2.48595 -2.5 0.805001
      vertex -2.29236 2.5 0.955166
      vertex -2.29236 -2.5 0.955166
    endloop
  endfacet
  facet normal 0.61291 0 -0.790153
    outer loop
      vertex -2.29236 2.5 0.955166
      vertex -2.48595 -2.5 0.805001
      vertex -2.48595 2.5 0.805001
    endloop
  endfacet
  facet normal 0.509059 0 -0.860731
    outer loop
      vertex -2.08972 -2.5 1.09288
      vertex -1.87884 2.5 1.2176
      vertex -1.87884 -2.5 1.2176
    endloop
  endfacet
  facet normal 0.509059 0 -0.860731
    outer loop
      vertex -1.87884 2.5 1.2176
      vertex -2.08972 -2.5 1.09288
      vertex -2.08972 2.5 1.09288
    endloop
  endfacet
  facet normal 0.397178 0 -0.917742
    outer loop
      vertex -1.66054 -2.5 1.32882
      vertex -1.43569 2.5 1.42613
      vertex -1.43569 -2.5 1.42613
    endloop
  endfacet
  facet normal 0.397178 0 -0.917742
    outer loop
      vertex -1.43569 2.5 1.42613
      vertex -1.66054 -2.5 1.32882
      vertex -1.66054 2.5 1.32882
    endloop
  endfacet
  facet normal 0.278972 0 -0.960299
    outer loop
      vertex -1.20517 -2.5 1.50912
      vertex -0.96989 2.5 1.57747
      vertex -0.96989 -2.5 1.57747
    endloop
  endfacet
  facet normal 0.278972 0 -0.960299
    outer loop
      vertex -0.96989 2.5 1.57747
      vertex -1.20517 -2.5 1.50912
      vertex -1.20517 2.5 1.50912
    endloop
  endfacet
  facet normal 0.0314281 0 -0.999506
    outer loop
      vertex -0.244883 -2.5 1.6923
      vertex 0 2.5 1.7
      vertex 0 -2.5 1.7
    endloop
  endfacet
  facet normal 0.0314281 0 -0.999506
    outer loop
      vertex 0 2.5 1.7
      vertex -0.244883 -2.5 1.6923
      vertex -0.244883 2.5 1.6923
    endloop
  endfacet
  facet normal -0.999506 0 0.0314284
    outer loop
      vertex 3.8923 -2.5 -2.44488
      vertex 3.9 2.5 -2.2
      vertex 3.8923 2.5 -2.44488
    endloop
  endfacet
  facet normal -0.999506 0 0.0314284
    outer loop
      vertex 3.9 2.5 -2.2
      vertex 3.8923 -2.5 -2.44488
      vertex 3.9 -2.5 -2.2
    endloop
  endfacet
  facet normal 0.999506 -0 0.0314284
    outer loop
      vertex -3.9 -2.5 -2.2
      vertex -3.8923 2.5 -2.44488
      vertex -3.9 2.5 -2.2
    endloop
  endfacet
  facet normal 0.999506 0 0.0314284
    outer loop
      vertex -3.8923 2.5 -2.44488
      vertex -3.9 -2.5 -2.2
      vertex -3.8923 -2.5 -2.44488
    endloop
  endfacet
  facet normal -0.960298 0 -0.278975
    outer loop
      vertex 3.77747 -2.5 -1.23011
      vertex 3.70912 2.5 -0.994833
      vertex 3.77747 2.5 -1.23011
    endloop
  endfacet
  facet normal -0.960298 -0 -0.278975
    outer loop
      vertex 3.70912 2.5 -0.994833
      vertex 3.77747 -2.5 -1.23011
      vertex 3.70912 -2.5 -0.994833
    endloop
  endfacet
  facet normal -0.940883 0 -0.338731
    outer loop
      vertex 3.70912 -2.5 -0.994833
      vertex 3.62613 2.5 -0.764314
      vertex 3.70912 2.5 -0.994833
    endloop
  endfacet
  facet normal -0.940883 -0 -0.338731
    outer loop
      vertex 3.62613 2.5 -0.764314
      vertex 3.70912 -2.5 -0.994833
      vertex 3.62613 -2.5 -0.764314
    endloop
  endfacet
  facet normal -0.790145 0 -0.61292
    outer loop
      vertex 3.15517 -2.5 0.0923624
      vertex 3.005 2.5 0.285954
      vertex 3.15517 2.5 0.0923624
    endloop
  endfacet
  facet normal -0.790145 -0 -0.61292
    outer loop
      vertex 3.005 2.5 0.285954
      vertex 3.15517 -2.5 0.0923624
      vertex 3.005 -2.5 0.285954
    endloop
  endfacet
  facet normal -0.860737 0 -0.50905
    outer loop
      vertex 3.4176 -2.5 -0.32116
      vertex 3.29288 2.5 -0.110275
      vertex 3.4176 2.5 -0.32116
    endloop
  endfacet
  facet normal -0.860737 -0 -0.50905
    outer loop
      vertex 3.29288 2.5 -0.110275
      vertex 3.4176 -2.5 -0.32116
      vertex 3.29288 -2.5 -0.110275
    endloop
  endfacet
  facet normal -0.278972 0 -0.960299
    outer loop
      vertex 0.96989 -2.5 1.57747
      vertex 1.20517 2.5 1.50912
      vertex 1.20517 -2.5 1.50912
    endloop
  endfacet
  facet normal -0.278972 0 -0.960299
    outer loop
      vertex 1.20517 2.5 1.50912
      vertex 0.96989 -2.5 1.57747
      vertex 0.96989 2.5 1.57747
    endloop
  endfacet
  facet normal -0.0940806 0 -0.995565
    outer loop
      vertex 0.244883 -2.5 1.6923
      vertex 0.488799 2.5 1.66925
      vertex 0.488799 -2.5 1.66925
    endloop
  endfacet
  facet normal -0.0940806 0 -0.995565
    outer loop
      vertex 0.488799 2.5 1.66925
      vertex 0.244883 -2.5 1.6923
      vertex 0.244883 2.5 1.6923
    endloop
  endfacet
  facet normal -0.61291 0 -0.790153
    outer loop
      vertex 2.29236 -2.5 0.955166
      vertex 2.48595 2.5 0.805001
      vertex 2.48595 -2.5 0.805001
    endloop
  endfacet
  facet normal -0.61291 0 -0.790153
    outer loop
      vertex 2.48595 2.5 0.805001
      vertex 2.29236 -2.5 0.955166
      vertex 2.29236 2.5 0.955166
    endloop
  endfacet
  facet normal -0.562083 0 -0.827081
    outer loop
      vertex 2.08972 -2.5 1.09288
      vertex 2.29236 2.5 0.955166
      vertex 2.29236 -2.5 0.955166
    endloop
  endfacet
  facet normal -0.562083 0 -0.827081
    outer loop
      vertex 2.29236 2.5 0.955166
      vertex 2.08972 -2.5 1.09288
      vertex 2.08972 2.5 1.09288
    endloop
  endfacet
  facet normal 0.790145 0 -0.61292
    outer loop
      vertex -3.005 -2.5 0.285954
      vertex -3.15517 2.5 0.0923624
      vertex -3.005 2.5 0.285954
    endloop
  endfacet
  facet normal 0.790145 0 -0.61292
    outer loop
      vertex -3.15517 2.5 0.0923624
      vertex -3.005 -2.5 0.285954
      vertex -3.15517 -2.5 0.0923624
    endloop
  endfacet
  facet normal 0.750117 0 -0.661305
    outer loop
      vertex -2.84298 -2.5 0.469733
      vertex -3.005 2.5 0.285954
      vertex -2.84298 2.5 0.469733
    endloop
  endfacet
  facet normal 0.750117 0 -0.661305
    outer loop
      vertex -3.005 2.5 0.285954
      vertex -2.84298 -2.5 0.469733
      vertex -3.005 -2.5 0.285954
    endloop
  endfacet
  facet normal 0.891022 0 -0.45396
    outer loop
      vertex -3.4176 -2.5 -0.32116
      vertex -3.52882 2.5 -0.53946
      vertex -3.4176 2.5 -0.32116
    endloop
  endfacet
  facet normal 0.891022 0 -0.45396
    outer loop
      vertex -3.52882 2.5 -0.53946
      vertex -3.4176 -2.5 -0.32116
      vertex -3.52882 -2.5 -0.53946
    endloop
  endfacet
  facet normal 0.960298 0 -0.278975
    outer loop
      vertex -3.70912 -2.5 -0.994833
      vertex -3.77747 2.5 -1.23011
      vertex -3.70912 2.5 -0.994833
    endloop
  endfacet
  facet normal 0.960298 0 -0.278975
    outer loop
      vertex -3.77747 2.5 -1.23011
      vertex -3.70912 -2.5 -0.994833
      vertex -3.77747 -2.5 -1.23011
    endloop
  endfacet
  facet normal 0.661312 0 -0.750111
    outer loop
      vertex -2.66973 -2.5 0.642977
      vertex -2.48595 2.5 0.805001
      vertex -2.48595 -2.5 0.805001
    endloop
  endfacet
  facet normal 0.661312 0 -0.750111
    outer loop
      vertex -2.48595 2.5 0.805001
      vertex -2.66973 -2.5 0.642977
      vertex -2.66973 2.5 0.642977
    endloop
  endfacet
  facet normal 0.45396 0 -0.891022
    outer loop
      vertex -1.87884 -2.5 1.2176
      vertex -1.66054 2.5 1.32882
      vertex -1.66054 -2.5 1.32882
    endloop
  endfacet
  facet normal 0.45396 0 -0.891022
    outer loop
      vertex -1.66054 2.5 1.32882
      vertex -1.87884 -2.5 1.2176
      vertex -1.87884 2.5 1.2176
    endloop
  endfacet
  facet normal 0.33873 0 -0.940884
    outer loop
      vertex -1.43569 -2.5 1.42613
      vertex -1.20517 2.5 1.50912
      vertex -1.20517 -2.5 1.50912
    endloop
  endfacet
  facet normal 0.33873 0 -0.940884
    outer loop
      vertex -1.20517 2.5 1.50912
      vertex -1.43569 -2.5 1.42613
      vertex -1.43569 2.5 1.42613
    endloop
  endfacet
  facet normal 0.156447 0 -0.987686
    outer loop
      vertex -0.730786 -2.5 1.63092
      vertex -0.488799 2.5 1.66925
      vertex -0.488799 -2.5 1.66925
    endloop
  endfacet
  facet normal 0.156447 0 -0.987686
    outer loop
      vertex -0.488799 2.5 1.66925
      vertex -0.730786 -2.5 1.63092
      vertex -0.730786 2.5 1.63092
    endloop
  endfacet
  facet normal 0.218158 0 -0.975913
    outer loop
      vertex -0.96989 -2.5 1.57747
      vertex -0.730786 2.5 1.63092
      vertex -0.730786 -2.5 1.63092
    endloop
  endfacet
  facet normal 0.218158 0 -0.975913
    outer loop
      vertex -0.730786 2.5 1.63092
      vertex -0.96989 -2.5 1.57747
      vertex -0.96989 2.5 1.57747
    endloop
  endfacet
  facet normal 0.995563 -0 0.0941016
    outer loop
      vertex -3.8923 -2.5 -2.44488
      vertex -3.88709 2.5 -2.5
      vertex -3.8923 2.5 -2.44488
    endloop
  endfacet
  facet normal 0.995563 0 0.0941016
    outer loop
      vertex -3.88709 2.5 -2.5
      vertex -3.8923 -2.5 -2.44488
      vertex -3.88709 -2.5 -2.5
    endloop
  endfacet
  facet normal -0.995563 0 0.0941016
    outer loop
      vertex 3.88709 -2.5 -2.5
      vertex 3.8923 2.5 -2.44488
      vertex 3.88709 2.5 -2.5
    endloop
  endfacet
  facet normal -0.995563 0 0.0941016
    outer loop
      vertex 3.8923 2.5 -2.44488
      vertex 3.88709 -2.5 -2.5
      vertex 3.8923 -2.5 -2.44488
    endloop
  endfacet
endsolid OpenSCAD_Model
