solid OpenSCAD_Model
  facet normal -1 0 0
    outer loop
      vertex -5 -2.5 -2.5
      vertex -5 2.5 2.5
      vertex -5 2.5 -2.5
    endloop
  endfacet
  facet normal -1 -0 0
    outer loop
      vertex -5 2.5 2.5
      vertex -5 -2.5 -2.5
      vertex -5 -2.5 2.5
    endloop
  endfacet
  facet normal -0 0 1
    outer loop
      vertex -5 2.5 2.5
      vertex 5 -2.5 2.5
      vertex 5 2.5 2.5
    endloop
  endfacet
  facet normal 0 0 1
    outer loop
      vertex 5 -2.5 2.5
      vertex -5 2.5 2.5
      vertex -5 -2.5 2.5
    endloop
  endfacet
  facet normal 1 -0 0
    outer loop
      vertex 5 -2.5 2.5
      vertex 5 2.5 -2.5
      vertex 5 2.5 2.5
    endloop
  endfacet
  facet normal 1 0 0
    outer loop
      vertex 5 2.5 -2.5
      vertex 5 -2.5 2.5
      vertex 5 -2.5 -2.5
    endloop
  endfacet
  facet normal 0 1 0
    outer loop
      vertex 5 2.5 2.5
      vertex 0 2.5 0.5
      vertex -5 2.5 2.5
    endloop
  endfacet
  facet normal 0 1 0
    outer loop
      vertex 5 2.5 2.5
      vertex 0.20093 2.5 0.493685
      vertex 0 2.5 0.5
    endloop
  endfacet
  facet normal 0 1 0
    outer loop
      vertex 5 2.5 2.5
      vertex 0.401066 2.5 0.474767
      vertex 0.20093 2.5 0.493685
    endloop
  endfacet
  facet normal 0 1 0
    outer loop
      vertex 5 2.5 2.5
      vertex 0.59962 2.5 0.443318
      vertex 0.401066 2.5 0.474767
    endloop
  endfacet
  facet normal 0 1 0
    outer loop
      vertex 5 2.5 2.5
      vertex 0.795807 2.5 0.399466
      vertex 0.59962 2.5 0.443318
    endloop
  endfacet
  facet normal 0 1 0
    outer loop
      vertex 5 2.5 2.5
      vertex 0.988853 2.5 0.34338
      vertex 0.795807 2.5 0.399466
    endloop
  endfacet
  facet normal 0 1 0
    outer loop
      vertex 5 2.5 2.5
      vertex 1.178 2.5 0.275284
      vertex 0.988853 2.5 0.34338
    endloop
  endfacet
  facet normal 0 1 0
    outer loop
      vertex 5 2.5 2.5
      vertex 1.36249 2.5 0.195446
      vertex 1.178 2.5 0.275284
    endloop
  endfacet
  facet normal 0 1 0
    outer loop
      vertex 5 2.5 2.5
      vertex 1.54161 2.5 0.104181
      vertex 1.36249 2.5 0.195446
    endloop
  endfacet
  facet normal 0 1 0
    outer loop
      vertex 5 2.5 2.5
      vertex 1.71465 2.5 0.00184917
      vertex 1.54161 2.5 0.104181
    endloop
  endfacet
  facet normal 0 1 0
    outer loop
      vertex 5 2.5 2.5
      vertex 1.88091 2.5 -0.111145
      vertex 1.71465 2.5 0.00184917
    endloop
  endfacet
  facet normal 0 1 0
    outer loop
      vertex 5 2.5 2.5
      vertex 2.03976 2.5 -0.234357
      vertex 1.88091 2.5 -0.111145
    endloop
  endfacet
  facet normal 0 1 0
    outer loop
      vertex 5 2.5 2.5
      vertex 2.19055 2.5 -0.3673
      vertex 2.03976 2.5 -0.234357
    endloop
  endfacet
  facet normal 0 1 0
    outer loop
      vertex 5 2.5 2.5
      vertex 2.3327 2.5 -0.509449
      vertex 2.19055 2.5 -0.3673
    endloop
  endfacet
  facet normal 0 1 0
    outer loop
      vertex 5 2.5 2.5
      vertex 2.46564 2.5 -0.660243
      vertex 2.3327 2.5 -0.509449
    endloop
  endfacet
  facet normal 0 1 0
    outer loop
      vertex 5 2.5 2.5
      vertex 2.58885 2.5 -0.819087
      vertex 2.46564 2.5 -0.660243
    endloop
  endfacet
  facet normal 0 1 0
    outer loop
      vertex 5 2.5 2.5
      vertex 2.70185 2.5 -0.985353
      vertex 2.58885 2.5 -0.819087
    endloop
  endfacet
  facet normal 0 1 0
    outer loop
      vertex 5 2.5 2.5
      vertex 2.80418 2.5 -1.15839
      vertex 2.70185 2.5 -0.985353
    endloop
  endfacet
  facet normal 0 1 -0
    outer loop
      vertex 5 2.5 -2.5
      vertex 2.80418 2.5 -1.15839
      vertex 5 2.5 2.5
    endloop
  endfacet
  facet normal 0 1 0
    outer loop
      vertex 2.80418 2.5 -1.15839
      vertex 5 2.5 -2.5
      vertex 2.89545 2.5 -1.33751
    endloop
  endfacet
  facet normal 0 1 0
    outer loop
      vertex 2.89545 2.5 -1.33751
      vertex 5 2.5 -2.5
      vertex 2.97528 2.5 -1.522
    endloop
  endfacet
  facet normal 0 1 0
    outer loop
      vertex 2.97528 2.5 -1.522
      vertex 5 2.5 -2.5
      vertex 3.04338 2.5 -1.71115
    endloop
  endfacet
  facet normal 0 1 0
    outer loop
      vertex 3.04338 2.5 -1.71115
      vertex 5 2.5 -2.5
      vertex 3.09947 2.5 -1.90419
    endloop
  endfacet
  facet normal 0 1 0
    outer loop
      vertex 3.09947 2.5 -1.90419
      vertex 5 2.5 -2.5
      vertex 3.14332 2.5 -2.10038
    endloop
  endfacet
  facet normal 0 1 0
    outer loop
      vertex 3.14332 2.5 -2.10038
      vertex 5 2.5 -2.5
      vertex 3.17477 2.5 -2.29893
    endloop
  endfacet
  facet normal 0 1 0
    outer loop
      vertex 3.17477 2.5 -2.29893
      vertex 5 2.5 -2.5
      vertex 3.19368 2.5 -2.49907
    endloop
  endfacet
  facet normal 0 1 0
    outer loop
      vertex 3.19368 2.5 -2.49907
      vertex 5 2.5 -2.5
      vertex 3.19371 2.5 -2.5
    endloop
  endfacet
  facet normal 0 1 -0
    outer loop
      vertex -0.20093 2.5 0.493685
      vertex -5 2.5 2.5
      vertex 0 2.5 0.5
    endloop
  endfacet
  facet normal 0 1 -0
    outer loop
      vertex -0.401066 2.5 0.474767
      vertex -5 2.5 2.5
      vertex -0.20093 2.5 0.493685
    endloop
  endfacet
  facet normal 0 1 -0
    outer loop
      vertex -0.59962 2.5 0.443318
      vertex -5 2.5 2.5
      vertex -0.401066 2.5 0.474767
    endloop
  endfacet
  facet normal 0 1 -0
    outer loop
      vertex -0.795807 2.5 0.399466
      vertex -5 2.5 2.5
      vertex -0.59962 2.5 0.443318
    endloop
  endfacet
  facet normal 0 1 -0
    outer loop
      vertex -0.988853 2.5 0.34338
      vertex -5 2.5 2.5
      vertex -0.795807 2.5 0.399466
    endloop
  endfacet
  facet normal 0 1 -0
    outer loop
      vertex -1.178 2.5 0.275284
      vertex -5 2.5 2.5
      vertex -0.988853 2.5 0.34338
    endloop
  endfacet
  facet normal 0 1 -0
    outer loop
      vertex -1.36249 2.5 0.195446
      vertex -5 2.5 2.5
      vertex -1.178 2.5 0.275284
    endloop
  endfacet
  facet normal 0 1 -0
    outer loop
      vertex -1.54161 2.5 0.104181
      vertex -5 2.5 2.5
      vertex -1.36249 2.5 0.195446
    endloop
  endfacet
  facet normal 0 1 -0
    outer loop
      vertex -1.71465 2.5 0.00184917
      vertex -5 2.5 2.5
      vertex -1.54161 2.5 0.104181
    endloop
  endfacet
  facet normal 0 1 -0
    outer loop
      vertex -1.88091 2.5 -0.111145
      vertex -5 2.5 2.5
      vertex -1.71465 2.5 0.00184917
    endloop
  endfacet
  facet normal 0 1 -0
    outer loop
      vertex -2.03976 2.5 -0.234357
      vertex -5 2.5 2.5
      vertex -1.88091 2.5 -0.111145
    endloop
  endfacet
  facet normal 0 1 -0
    outer loop
      vertex -2.19055 2.5 -0.3673
      vertex -5 2.5 2.5
      vertex -2.03976 2.5 -0.234357
    endloop
  endfacet
  facet normal 0 1 -0
    outer loop
      vertex -2.3327 2.5 -0.509449
      vertex -5 2.5 2.5
      vertex -2.19055 2.5 -0.3673
    endloop
  endfacet
  facet normal 0 1 -0
    outer loop
      vertex -2.46564 2.5 -0.660243
      vertex -5 2.5 2.5
      vertex -2.3327 2.5 -0.509449
    endloop
  endfacet
  facet normal 0 1 -0
    outer loop
      vertex -2.58885 2.5 -0.819087
      vertex -5 2.5 2.5
      vertex -2.46564 2.5 -0.660243
    endloop
  endfacet
  facet normal 0 1 -0
    outer loop
      vertex -2.70185 2.5 -0.985353
      vertex -5 2.5 2.5
      vertex -2.58885 2.5 -0.819087
    endloop
  endfacet
  facet normal 0 1 -0
    outer loop
      vertex -2.80418 2.5 -1.15839
      vertex -5 2.5 2.5
      vertex -2.70185 2.5 -0.985353
    endloop
  endfacet
  facet normal 0 1 0
    outer loop
      vertex -5 2.5 -2.5
      vertex -2.80418 2.5 -1.15839
      vertex -2.89545 2.5 -1.33751
    endloop
  endfacet
  facet normal 0 1 0
    outer loop
      vertex -5 2.5 -2.5
      vertex -2.89545 2.5 -1.33751
      vertex -2.97528 2.5 -1.522
    endloop
  endfacet
  facet normal 0 1 0
    outer loop
      vertex -5 2.5 -2.5
      vertex -2.97528 2.5 -1.522
      vertex -3.04338 2.5 -1.71115
    endloop
  endfacet
  facet normal 0 1 0
    outer loop
      vertex -5 2.5 -2.5
      vertex -3.04338 2.5 -1.71115
      vertex -3.09947 2.5 -1.90419
    endloop
  endfacet
  facet normal 0 1 0
    outer loop
      vertex -5 2.5 -2.5
      vertex -3.09947 2.5 -1.90419
      vertex -3.14332 2.5 -2.10038
    endloop
  endfacet
  facet normal 0 1 0
    outer loop
      vertex -5 2.5 -2.5
      vertex -3.14332 2.5 -2.10038
      vertex -3.17477 2.5 -2.29893
    endloop
  endfacet
  facet normal 0 1 0
    outer loop
      vertex -5 2.5 -2.5
      vertex -3.17477 2.5 -2.29893
      vertex -3.19368 2.5 -2.49907
    endloop
  endfacet
  facet normal 0 1 0
    outer loop
      vertex -5 2.5 -2.5
      vertex -3.19368 2.5 -2.49907
      vertex -3.19371 2.5 -2.5
    endloop
  endfacet
  facet normal 0 1 0
    outer loop
      vertex -2.80418 2.5 -1.15839
      vertex -5 2.5 -2.5
      vertex -5 2.5 2.5
    endloop
  endfacet
  facet normal 0 0 -1
    outer loop
      vertex -5 -2.5 -2.5
      vertex -3.19371 2.5 -2.5
      vertex -3.19371 -2.5 -2.5
    endloop
  endfacet
  facet normal -0 0 -1
    outer loop
      vertex -3.19371 2.5 -2.5
      vertex -5 -2.5 -2.5
      vertex -5 2.5 -2.5
    endloop
  endfacet
  facet normal 0 0 -1
    outer loop
      vertex 3.19371 -2.5 -2.5
      vertex 5 2.5 -2.5
      vertex 5 -2.5 -2.5
    endloop
  endfacet
  facet normal -0 0 -1
    outer loop
      vertex 5 2.5 -2.5
      vertex 3.19371 -2.5 -2.5
      vertex 3.19371 2.5 -2.5
    endloop
  endfacet
  facet normal 0 -1 0
    outer loop
      vertex -5 -2.5 2.5
      vertex 0 -2.5 0.5
      vertex 5 -2.5 2.5
    endloop
  endfacet
  facet normal 0 -1 0
    outer loop
      vertex -5 -2.5 2.5
      vertex -0.20093 -2.5 0.493685
      vertex 0 -2.5 0.5
    endloop
  endfacet
  facet normal 0 -1 0
    outer loop
      vertex -5 -2.5 2.5
      vertex -0.401066 -2.5 0.474767
      vertex -0.20093 -2.5 0.493685
    endloop
  endfacet
  facet normal 0 -1 0
    outer loop
      vertex -5 -2.5 2.5
      vertex -0.59962 -2.5 0.443318
      vertex -0.401066 -2.5 0.474767
    endloop
  endfacet
  facet normal 0 -1 0
    outer loop
      vertex -5 -2.5 2.5
      vertex -0.795807 -2.5 0.399466
      vertex -0.59962 -2.5 0.443318
    endloop
  endfacet
  facet normal 0 -1 0
    outer loop
      vertex -5 -2.5 2.5
      vertex -0.988853 -2.5 0.34338
      vertex -0.795807 -2.5 0.399466
    endloop
  endfacet
  facet normal 0 -1 0
    outer loop
      vertex -5 -2.5 2.5
      vertex -1.178 -2.5 0.275284
      vertex -0.988853 -2.5 0.34338
    endloop
  endfacet
  facet normal 0 -1 0
    outer loop
      vertex -5 -2.5 2.5
      vertex -1.36249 -2.5 0.195446
      vertex -1.178 -2.5 0.275284
    endloop
  endfacet
  facet normal 0 -1 0
    outer loop
      vertex -5 -2.5 2.5
      vertex -1.54161 -2.5 0.104181
      vertex -1.36249 -2.5 0.195446
    endloop
  endfacet
  facet normal 0 -1 0
    outer loop
      vertex -5 -2.5 2.5
      vertex -1.71465 -2.5 0.00184917
      vertex -1.54161 -2.5 0.104181
    endloop
  endfacet
  facet normal 0 -1 0
    outer loop
      vertex -5 -2.5 2.5
      vertex -1.88091 -2.5 -0.111145
      vertex -1.71465 -2.5 0.00184917
    endloop
  endfacet
  facet normal 0 -1 0
    outer loop
      vertex -5 -2.5 2.5
      vertex -2.03976 -2.5 -0.234357
      vertex -1.88091 -2.5 -0.111145
    endloop
  endfacet
  facet normal 0 -1 0
    outer loop
      vertex -5 -2.5 2.5
      vertex -2.19055 -2.5 -0.3673
      vertex -2.03976 -2.5 -0.234357
    endloop
  endfacet
  facet normal 0 -1 0
    outer loop
      vertex -5 -2.5 2.5
      vertex -2.3327 -2.5 -0.509449
      vertex -2.19055 -2.5 -0.3673
    endloop
  endfacet
  facet normal 0 -1 0
    outer loop
      vertex -5 -2.5 2.5
      vertex -2.46564 -2.5 -0.660243
      vertex -2.3327 -2.5 -0.509449
    endloop
  endfacet
  facet normal 0 -1 0
    outer loop
      vertex -5 -2.5 2.5
      vertex -2.58885 -2.5 -0.819087
      vertex -2.46564 -2.5 -0.660243
    endloop
  endfacet
  facet normal 0 -1 0
    outer loop
      vertex -5 -2.5 2.5
      vertex -2.70185 -2.5 -0.985353
      vertex -2.58885 -2.5 -0.819087
    endloop
  endfacet
  facet normal 0 -1 0
    outer loop
      vertex -5 -2.5 2.5
      vertex -2.80418 -2.5 -1.15839
      vertex -2.70185 -2.5 -0.985353
    endloop
  endfacet
  facet normal 0 -1 0
    outer loop
      vertex -5 -2.5 -2.5
      vertex -2.80418 -2.5 -1.15839
      vertex -5 -2.5 2.5
    endloop
  endfacet
  facet normal 0 -1 0
    outer loop
      vertex -2.80418 -2.5 -1.15839
      vertex -5 -2.5 -2.5
      vertex -2.89545 -2.5 -1.33751
    endloop
  endfacet
  facet normal 0 -1 0
    outer loop
      vertex -2.89545 -2.5 -1.33751
      vertex -5 -2.5 -2.5
      vertex -2.97528 -2.5 -1.522
    endloop
  endfacet
  facet normal 0 -1 0
    outer loop
      vertex -2.97528 -2.5 -1.522
      vertex -5 -2.5 -2.5
      vertex -3.04338 -2.5 -1.71115
    endloop
  endfacet
  facet normal 0 -1 0
    outer loop
      vertex -3.04338 -2.5 -1.71115
      vertex -5 -2.5 -2.5
      vertex -3.09947 -2.5 -1.90419
    endloop
  endfacet
  facet normal 0 -1 0
    outer loop
      vertex -3.09947 -2.5 -1.90419
      vertex -5 -2.5 -2.5
      vertex -3.14332 -2.5 -2.10038
    endloop
  endfacet
  facet normal 0 -1 0
    outer loop
      vertex -3.14332 -2.5 -2.10038
      vertex -5 -2.5 -2.5
      vertex -3.17477 -2.5 -2.29893
    endloop
  endfacet
  facet normal 0 -1 0
    outer loop
      vertex -3.17477 -2.5 -2.29893
      vertex -5 -2.5 -2.5
      vertex -3.19368 -2.5 -2.49907
    endloop
  endfacet
  facet normal 0 -1 0
    outer loop
      vertex -3.19368 -2.5 -2.49907
      vertex -5 -2.5 -2.5
      vertex -3.19371 -2.5 -2.5
    endloop
  endfacet
  facet normal 0 -1 0
    outer loop
      vertex 0.20093 -2.5 0.493685
      vertex 5 -2.5 2.5
      vertex 0 -2.5 0.5
    endloop
  endfacet
  facet normal 0 -1 0
    outer loop
      vertex 0.401066 -2.5 0.474767
      vertex 5 -2.5 2.5
      vertex 0.20093 -2.5 0.493685
    endloop
  endfacet
  facet normal 0 -1 0
    outer loop
      vertex 0.59962 -2.5 0.443318
      vertex 5 -2.5 2.5
      vertex 0.401066 -2.5 0.474767
    endloop
  endfacet
  facet normal 0 -1 0
    outer loop
      vertex 0.795807 -2.5 0.399466
      vertex 5 -2.5 2.5
      vertex 0.59962 -2.5 0.443318
    endloop
  endfacet
  facet normal 0 -1 0
    outer loop
      vertex 0.988853 -2.5 0.34338
      vertex 5 -2.5 2.5
      vertex 0.795807 -2.5 0.399466
    endloop
  endfacet
  facet normal 0 -1 0
    outer loop
      vertex 1.178 -2.5 0.275284
      vertex 5 -2.5 2.5
      vertex 0.988853 -2.5 0.34338
    endloop
  endfacet
  facet normal 0 -1 0
    outer loop
      vertex 1.36249 -2.5 0.195446
      vertex 5 -2.5 2.5
      vertex 1.178 -2.5 0.275284
    endloop
  endfacet
  facet normal 0 -1 0
    outer loop
      vertex 1.54161 -2.5 0.104181
      vertex 5 -2.5 2.5
      vertex 1.36249 -2.5 0.195446
    endloop
  endfacet
  facet normal 0 -1 0
    outer loop
      vertex 1.71465 -2.5 0.00184917
      vertex 5 -2.5 2.5
      vertex 1.54161 -2.5 0.104181
    endloop
  endfacet
  facet normal 0 -1 0
    outer loop
      vertex 1.88091 -2.5 -0.111145
      vertex 5 -2.5 2.5
      vertex 1.71465 -2.5 0.00184917
    endloop
  endfacet
  facet normal 0 -1 0
    outer loop
      vertex 2.03976 -2.5 -0.234357
      vertex 5 -2.5 2.5
      vertex 1.88091 -2.5 -0.111145
    endloop
  endfacet
  facet normal 0 -1 0
    outer loop
      vertex 2.19055 -2.5 -0.3673
      vertex 5 -2.5 2.5
      vertex 2.03976 -2.5 -0.234357
    endloop
  endfacet
  facet normal 0 -1 0
    outer loop
      vertex 2.3327 -2.5 -0.509449
      vertex 5 -2.5 2.5
      vertex 2.19055 -2.5 -0.3673
    endloop
  endfacet
  facet normal 0 -1 0
    outer loop
      vertex 2.46564 -2.5 -0.660243
      vertex 5 -2.5 2.5
      vertex 2.3327 -2.5 -0.509449
    endloop
  endfacet
  facet normal 0 -1 0
    outer loop
      vertex 2.58885 -2.5 -0.819087
      vertex 5 -2.5 2.5
      vertex 2.46564 -2.5 -0.660243
    endloop
  endfacet
  facet normal 0 -1 0
    outer loop
      vertex 2.70185 -2.5 -0.985353
      vertex 5 -2.5 2.5
      vertex 2.58885 -2.5 -0.819087
    endloop
  endfacet
  facet normal 0 -1 0
    outer loop
      vertex 2.80418 -2.5 -1.15839
      vertex 5 -2.5 2.5
      vertex 2.70185 -2.5 -0.985353
    endloop
  endfacet
  facet normal 0 -1 0
    outer loop
      vertex 5 -2.5 -2.5
      vertex 2.80418 -2.5 -1.15839
      vertex 2.89545 -2.5 -1.33751
    endloop
  endfacet
  facet normal 0 -1 0
    outer loop
      vertex 5 -2.5 -2.5
      vertex 2.89545 -2.5 -1.33751
      vertex 2.97528 -2.5 -1.522
    endloop
  endfacet
  facet normal 0 -1 0
    outer loop
      vertex 5 -2.5 -2.5
      vertex 2.97528 -2.5 -1.522
      vertex 3.04338 -2.5 -1.71115
    endloop
  endfacet
  facet normal 0 -1 0
    outer loop
      vertex 5 -2.5 -2.5
      vertex 3.04338 -2.5 -1.71115
      vertex 3.09947 -2.5 -1.90419
    endloop
  endfacet
  facet normal 0 -1 0
    outer loop
      vertex 5 -2.5 -2.5
      vertex 3.09947 -2.5 -1.90419
      vertex 3.14332 -2.5 -2.10038
    endloop
  endfacet
  facet normal 0 -1 0
    outer loop
      vertex 5 -2.5 -2.5
      vertex 3.14332 -2.5 -2.10038
      vertex 3.17477 -2.5 -2.29893
    endloop
  endfacet
  facet normal 0 -1 0
    outer loop
      vertex 5 -2.5 -2.5
      vertex 3.17477 -2.5 -2.29893
      vertex 3.19368 -2.5 -2.49907
    endloop
  endfacet
  facet normal 0 -1 0
    outer loop
      vertex 5 -2.5 -2.5
      vertex 3.19368 -2.5 -2.49907
      vertex 3.19371 -2.5 -2.5
    endloop
  endfacet
  facet normal 0 -1 0
    outer loop
      vertex 2.80418 -2.5 -1.15839
      vertex 5 -2.5 -2.5
      vertex 5 -2.5 2.5
    endloop
  endfacet
  facet normal -0.99948 0 -0.0322413
    outer loop
      vertex 3.19371 -2.5 -2.5
      vertex 3.19368 2.5 -2.49907
      vertex 3.19371 2.5 -2.5
    endloop
  endfacet
  facet normal -0.99948 -0 -0.0322413
    outer loop
      vertex 3.19368 2.5 -2.49907
      vertex 3.19371 -2.5 -2.5
      vertex 3.19368 -2.5 -2.49907
    endloop
  endfacet
  facet normal -0.995566 0 -0.0940649
    outer loop
      vertex 3.19368 -2.5 -2.49907
      vertex 3.17477 2.5 -2.29893
      vertex 3.19368 2.5 -2.49907
    endloop
  endfacet
  facet normal -0.995566 -0 -0.0940649
    outer loop
      vertex 3.17477 2.5 -2.29893
      vertex 3.19368 -2.5 -2.49907
      vertex 3.17477 -2.5 -2.29893
    endloop
  endfacet
  facet normal 0.99948 0 -0.0322413
    outer loop
      vertex -3.19368 -2.5 -2.49907
      vertex -3.19371 2.5 -2.5
      vertex -3.19368 2.5 -2.49907
    endloop
  endfacet
  facet normal 0.99948 0 -0.0322413
    outer loop
      vertex -3.19371 2.5 -2.5
      vertex -3.19368 -2.5 -2.49907
      vertex -3.19371 -2.5 -2.5
    endloop
  endfacet
  facet normal -0.0314133 0 -0.999506
    outer loop
      vertex 0 -2.5 0.5
      vertex 0.20093 2.5 0.493685
      vertex 0.20093 -2.5 0.493685
    endloop
  endfacet
  facet normal -0.0314133 0 -0.999506
    outer loop
      vertex 0.20093 2.5 0.493685
      vertex 0 -2.5 0.5
      vertex 0 2.5 0.5
    endloop
  endfacet
  facet normal -0.707104 0 -0.707109
    outer loop
      vertex 2.3327 -2.5 -0.509449
      vertex 2.19055 2.5 -0.3673
      vertex 2.3327 2.5 -0.509449
    endloop
  endfacet
  facet normal -0.707104 -0 -0.707109
    outer loop
      vertex 2.19055 2.5 -0.3673
      vertex 2.3327 -2.5 -0.509449
      vertex 2.19055 -2.5 -0.3673
    endloop
  endfacet
  facet normal 0.661322 0 -0.750102
    outer loop
      vertex -2.19055 -2.5 -0.3673
      vertex -2.03976 2.5 -0.234357
      vertex -2.03976 -2.5 -0.234357
    endloop
  endfacet
  facet normal 0.661322 0 -0.750102
    outer loop
      vertex -2.03976 2.5 -0.234357
      vertex -2.19055 -2.5 -0.3673
      vertex -2.19055 2.5 -0.3673
    endloop
  endfacet
  facet normal -0.917765 0 -0.397123
    outer loop
      vertex 2.97528 -2.5 -1.522
      vertex 2.89545 2.5 -1.33751
      vertex 2.97528 2.5 -1.522
    endloop
  endfacet
  facet normal -0.917765 -0 -0.397123
    outer loop
      vertex 2.89545 2.5 -1.33751
      vertex 2.97528 -2.5 -1.522
      vertex 2.89545 -2.5 -1.33751
    endloop
  endfacet
  facet normal -0.562097 0 -0.827071
    outer loop
      vertex 1.71465 -2.5 0.00184917
      vertex 1.88091 2.5 -0.111145
      vertex 1.88091 -2.5 -0.111145
    endloop
  endfacet
  facet normal -0.562097 0 -0.827071
    outer loop
      vertex 1.88091 2.5 -0.111145
      vertex 1.71465 -2.5 0.00184917
      vertex 1.71465 2.5 0.00184917
    endloop
  endfacet
  facet normal 0.15644 0 -0.987687
    outer loop
      vertex -0.59962 -2.5 0.443318
      vertex -0.401066 2.5 0.474767
      vertex -0.401066 -2.5 0.474767
    endloop
  endfacet
  facet normal 0.15644 0 -0.987687
    outer loop
      vertex -0.401066 2.5 0.474767
      vertex -0.59962 -2.5 0.443318
      vertex -0.59962 2.5 0.443318
    endloop
  endfacet
  facet normal -0.975921 0 -0.218126
    outer loop
      vertex 3.14332 -2.5 -2.10038
      vertex 3.09947 2.5 -1.90419
      vertex 3.14332 2.5 -2.10038
    endloop
  endfacet
  facet normal -0.975921 -0 -0.218126
    outer loop
      vertex 3.09947 2.5 -1.90419
      vertex 3.14332 -2.5 -2.10038
      vertex 3.09947 -2.5 -1.90419
    endloop
  endfacet
  facet normal -0.827067 0 -0.562103
    outer loop
      vertex 2.70185 -2.5 -0.985353
      vertex 2.58885 2.5 -0.819087
      vertex 2.70185 2.5 -0.985353
    endloop
  endfacet
  facet normal -0.827067 -0 -0.562103
    outer loop
      vertex 2.58885 2.5 -0.819087
      vertex 2.70185 -2.5 -0.985353
      vertex 2.58885 -2.5 -0.819087
    endloop
  endfacet
  facet normal -0.218139 0 -0.975918
    outer loop
      vertex 0.59962 -2.5 0.443318
      vertex 0.795807 2.5 0.399466
      vertex 0.795807 -2.5 0.399466
    endloop
  endfacet
  facet normal -0.218139 0 -0.975918
    outer loop
      vertex 0.795807 2.5 0.399466
      vertex 0.59962 -2.5 0.443318
      vertex 0.59962 2.5 0.443318
    endloop
  endfacet
  facet normal -0.612892 0 -0.790166
    outer loop
      vertex 1.88091 -2.5 -0.111145
      vertex 2.03976 2.5 -0.234357
      vertex 2.03976 -2.5 -0.234357
    endloop
  endfacet
  facet normal -0.612892 0 -0.790166
    outer loop
      vertex 2.03976 2.5 -0.234357
      vertex 1.88091 -2.5 -0.111145
      vertex 1.88091 2.5 -0.111145
    endloop
  endfacet
  facet normal 0.827067 0 -0.562103
    outer loop
      vertex -2.58885 -2.5 -0.819087
      vertex -2.70185 2.5 -0.985353
      vertex -2.58885 2.5 -0.819087
    endloop
  endfacet
  facet normal 0.827067 0 -0.562103
    outer loop
      vertex -2.70185 2.5 -0.985353
      vertex -2.58885 -2.5 -0.819087
      vertex -2.70185 -2.5 -0.985353
    endloop
  endfacet
  facet normal 0.86075 0 -0.509027
    outer loop
      vertex -2.70185 -2.5 -0.985353
      vertex -2.80418 2.5 -1.15839
      vertex -2.70185 2.5 -0.985353
    endloop
  endfacet
  facet normal 0.86075 0 -0.509027
    outer loop
      vertex -2.80418 2.5 -1.15839
      vertex -2.70185 -2.5 -0.985353
      vertex -2.80418 -2.5 -1.15839
    endloop
  endfacet
  facet normal 0.975921 0 -0.218126
    outer loop
      vertex -3.09947 -2.5 -1.90419
      vertex -3.14332 2.5 -2.10038
      vertex -3.09947 2.5 -1.90419
    endloop
  endfacet
  facet normal 0.975921 0 -0.218126
    outer loop
      vertex -3.14332 2.5 -2.10038
      vertex -3.09947 -2.5 -1.90419
      vertex -3.14332 -2.5 -2.10038
    endloop
  endfacet
  facet normal 0.509028 0 -0.86075
    outer loop
      vertex -1.71465 -2.5 0.00184917
      vertex -1.54161 2.5 0.104181
      vertex -1.54161 -2.5 0.104181
    endloop
  endfacet
  facet normal 0.509028 0 -0.86075
    outer loop
      vertex -1.54161 2.5 0.104181
      vertex -1.71465 -2.5 0.00184917
      vertex -1.71465 2.5 0.00184917
    endloop
  endfacet
  facet normal 0.0941062 0 -0.995562
    outer loop
      vertex -0.401066 -2.5 0.474767
      vertex -0.20093 2.5 0.493685
      vertex -0.20093 -2.5 0.493685
    endloop
  endfacet
  facet normal 0.0941062 0 -0.995562
    outer loop
      vertex -0.20093 2.5 0.493685
      vertex -0.401066 -2.5 0.474767
      vertex -0.401066 2.5 0.474767
    endloop
  endfacet
  facet normal -0.987686 0 -0.156448
    outer loop
      vertex 3.17477 -2.5 -2.29893
      vertex 3.14332 2.5 -2.10038
      vertex 3.17477 2.5 -2.29893
    endloop
  endfacet
  facet normal -0.987686 -0 -0.156448
    outer loop
      vertex 3.14332 2.5 -2.10038
      vertex 3.17477 -2.5 -2.29893
      vertex 3.14332 -2.5 -2.10038
    endloop
  endfacet
  facet normal -0.960285 0 -0.279022
    outer loop
      vertex 3.09947 -2.5 -1.90419
      vertex 3.04338 2.5 -1.71115
      vertex 3.09947 2.5 -1.90419
    endloop
  endfacet
  facet normal -0.960285 -0 -0.279022
    outer loop
      vertex 3.04338 2.5 -1.71115
      vertex 3.09947 -2.5 -1.90419
      vertex 3.04338 -2.5 -1.71115
    endloop
  endfacet
  facet normal -0.79016 0 -0.612901
    outer loop
      vertex 2.58885 -2.5 -0.819087
      vertex 2.46564 2.5 -0.660243
      vertex 2.58885 2.5 -0.819087
    endloop
  endfacet
  facet normal -0.79016 -0 -0.612901
    outer loop
      vertex 2.46564 2.5 -0.660243
      vertex 2.58885 -2.5 -0.819087
      vertex 2.46564 -2.5 -0.660243
    endloop
  endfacet
  facet normal -0.15644 0 -0.987687
    outer loop
      vertex 0.401066 -2.5 0.474767
      vertex 0.59962 2.5 0.443318
      vertex 0.59962 -2.5 0.443318
    endloop
  endfacet
  facet normal -0.15644 0 -0.987687
    outer loop
      vertex 0.59962 2.5 0.443318
      vertex 0.401066 -2.5 0.474767
      vertex 0.401066 2.5 0.474767
    endloop
  endfacet
  facet normal -0.278995 0 -0.960292
    outer loop
      vertex 0.795807 -2.5 0.399466
      vertex 0.988853 2.5 0.34338
      vertex 0.988853 -2.5 0.34338
    endloop
  endfacet
  facet normal -0.278995 0 -0.960292
    outer loop
      vertex 0.988853 2.5 0.34338
      vertex 0.795807 -2.5 0.399466
      vertex 0.795807 2.5 0.399466
    endloop
  endfacet
  facet normal -0.397156 0 -0.917751
    outer loop
      vertex 1.178 -2.5 0.275284
      vertex 1.36249 2.5 0.195446
      vertex 1.36249 -2.5 0.195446
    endloop
  endfacet
  facet normal -0.397156 0 -0.917751
    outer loop
      vertex 1.36249 2.5 0.195446
      vertex 1.178 -2.5 0.275284
      vertex 1.178 2.5 0.275284
    endloop
  endfacet
  facet normal -0.509028 0 -0.86075
    outer loop
      vertex 1.54161 -2.5 0.104181
      vertex 1.71465 2.5 0.00184917
      vertex 1.71465 -2.5 0.00184917
    endloop
  endfacet
  facet normal -0.509028 0 -0.86075
    outer loop
      vertex 1.71465 2.5 0.00184917
      vertex 1.54161 -2.5 0.104181
      vertex 1.54161 2.5 0.104181
    endloop
  endfacet
  facet normal -0.661322 0 -0.750102
    outer loop
      vertex 2.03976 -2.5 -0.234357
      vertex 2.19055 2.5 -0.3673
      vertex 2.19055 -2.5 -0.3673
    endloop
  endfacet
  facet normal -0.661322 0 -0.750102
    outer loop
      vertex 2.19055 2.5 -0.3673
      vertex 2.03976 -2.5 -0.234357
      vertex 2.03976 2.5 -0.234357
    endloop
  endfacet
  facet normal 0.987686 0 -0.156448
    outer loop
      vertex -3.14332 -2.5 -2.10038
      vertex -3.17477 2.5 -2.29893
      vertex -3.14332 2.5 -2.10038
    endloop
  endfacet
  facet normal 0.987686 0 -0.156448
    outer loop
      vertex -3.17477 2.5 -2.29893
      vertex -3.14332 -2.5 -2.10038
      vertex -3.17477 -2.5 -2.29893
    endloop
  endfacet
  facet normal 0.917765 0 -0.397123
    outer loop
      vertex -2.89545 -2.5 -1.33751
      vertex -2.97528 2.5 -1.522
      vertex -2.89545 2.5 -1.33751
    endloop
  endfacet
  facet normal 0.917765 0 -0.397123
    outer loop
      vertex -2.97528 2.5 -1.522
      vertex -2.89545 -2.5 -1.33751
      vertex -2.97528 -2.5 -1.522
    endloop
  endfacet
  facet normal 0.940878 0 -0.338746
    outer loop
      vertex -2.97528 -2.5 -1.522
      vertex -3.04338 2.5 -1.71115
      vertex -2.97528 2.5 -1.522
    endloop
  endfacet
  facet normal 0.940878 0 -0.338746
    outer loop
      vertex -3.04338 2.5 -1.71115
      vertex -2.97528 -2.5 -1.522
      vertex -3.04338 -2.5 -1.71115
    endloop
  endfacet
  facet normal 0.562097 0 -0.827071
    outer loop
      vertex -1.88091 -2.5 -0.111145
      vertex -1.71465 2.5 0.00184917
      vertex -1.71465 -2.5 0.00184917
    endloop
  endfacet
  facet normal 0.562097 0 -0.827071
    outer loop
      vertex -1.71465 2.5 0.00184917
      vertex -1.88091 -2.5 -0.111145
      vertex -1.88091 2.5 -0.111145
    endloop
  endfacet
  facet normal 0.453986 0 -0.891009
    outer loop
      vertex -1.54161 -2.5 0.104181
      vertex -1.36249 2.5 0.195446
      vertex -1.36249 -2.5 0.195446
    endloop
  endfacet
  facet normal 0.453986 0 -0.891009
    outer loop
      vertex -1.36249 2.5 0.195446
      vertex -1.54161 -2.5 0.104181
      vertex -1.54161 2.5 0.104181
    endloop
  endfacet
  facet normal 0.338733 0 -0.940883
    outer loop
      vertex -1.178 -2.5 0.275284
      vertex -0.988853 2.5 0.34338
      vertex -0.988853 -2.5 0.34338
    endloop
  endfacet
  facet normal 0.338733 0 -0.940883
    outer loop
      vertex -0.988853 2.5 0.34338
      vertex -1.178 -2.5 0.275284
      vertex -1.178 2.5 0.275284
    endloop
  endfacet
  facet normal 0.218139 0 -0.975918
    outer loop
      vertex -0.795807 -2.5 0.399466
      vertex -0.59962 2.5 0.443318
      vertex -0.59962 -2.5 0.443318
    endloop
  endfacet
  facet normal 0.218139 0 -0.975918
    outer loop
      vertex -0.59962 2.5 0.443318
      vertex -0.795807 -2.5 0.399466
      vertex -0.795807 2.5 0.399466
    endloop
  endfacet
  facet normal 0.0314133 0 -0.999506
    outer loop
      vertex -0.20093 -2.5 0.493685
      vertex 0 2.5 0.5
      vertex 0 -2.5 0.5
    endloop
  endfacet
  facet normal 0.0314133 0 -0.999506
    outer loop
      vertex 0 2.5 0.5
      vertex -0.20093 -2.5 0.493685
      vertex -0.20093 2.5 0.493685
    endloop
  endfacet
  facet normal -0.940878 0 -0.338746
    outer loop
      vertex 3.04338 -2.5 -1.71115
      vertex 2.97528 2.5 -1.522
      vertex 3.04338 2.5 -1.71115
    endloop
  endfacet
  facet normal -0.940878 -0 -0.338746
    outer loop
      vertex 2.97528 2.5 -1.522
      vertex 3.04338 -2.5 -1.71115
      vertex 2.97528 -2.5 -1.522
    endloop
  endfacet
  facet normal -0.750118 0 -0.661304
    outer loop
      vertex 2.46564 -2.5 -0.660243
      vertex 2.3327 2.5 -0.509449
      vertex 2.46564 2.5 -0.660243
    endloop
  endfacet
  facet normal -0.750118 -0 -0.661304
    outer loop
      vertex 2.3327 2.5 -0.509449
      vertex 2.46564 -2.5 -0.660243
      vertex 2.3327 -2.5 -0.509449
    endloop
  endfacet
  facet normal -0.890999 0 -0.454006
    outer loop
      vertex 2.89545 -2.5 -1.33751
      vertex 2.80418 2.5 -1.15839
      vertex 2.89545 2.5 -1.33751
    endloop
  endfacet
  facet normal -0.890999 -0 -0.454006
    outer loop
      vertex 2.80418 2.5 -1.15839
      vertex 2.89545 -2.5 -1.33751
      vertex 2.80418 -2.5 -1.15839
    endloop
  endfacet
  facet normal -0.86075 0 -0.509027
    outer loop
      vertex 2.80418 -2.5 -1.15839
      vertex 2.70185 2.5 -0.985353
      vertex 2.80418 2.5 -1.15839
    endloop
  endfacet
  facet normal -0.86075 -0 -0.509027
    outer loop
      vertex 2.70185 2.5 -0.985353
      vertex 2.80418 -2.5 -1.15839
      vertex 2.70185 -2.5 -0.985353
    endloop
  endfacet
  facet normal -0.338733 0 -0.940883
    outer loop
      vertex 0.988853 -2.5 0.34338
      vertex 1.178 2.5 0.275284
      vertex 1.178 -2.5 0.275284
    endloop
  endfacet
  facet normal -0.338733 0 -0.940883
    outer loop
      vertex 1.178 2.5 0.275284
      vertex 0.988853 -2.5 0.34338
      vertex 0.988853 2.5 0.34338
    endloop
  endfacet
  facet normal -0.0941062 0 -0.995562
    outer loop
      vertex 0.20093 -2.5 0.493685
      vertex 0.401066 2.5 0.474767
      vertex 0.401066 -2.5 0.474767
    endloop
  endfacet
  facet normal -0.0941062 0 -0.995562
    outer loop
      vertex 0.401066 2.5 0.474767
      vertex 0.20093 -2.5 0.493685
      vertex 0.20093 2.5 0.493685
    endloop
  endfacet
  facet normal -0.453986 0 -0.891009
    outer loop
      vertex 1.36249 -2.5 0.195446
      vertex 1.54161 2.5 0.104181
      vertex 1.54161 -2.5 0.104181
    endloop
  endfacet
  facet normal -0.453986 0 -0.891009
    outer loop
      vertex 1.54161 2.5 0.104181
      vertex 1.36249 -2.5 0.195446
      vertex 1.36249 2.5 0.195446
    endloop
  endfacet
  facet normal 0.79016 0 -0.612901
    outer loop
      vertex -2.46564 -2.5 -0.660243
      vertex -2.58885 2.5 -0.819087
      vertex -2.46564 2.5 -0.660243
    endloop
  endfacet
  facet normal 0.79016 0 -0.612901
    outer loop
      vertex -2.58885 2.5 -0.819087
      vertex -2.46564 -2.5 -0.660243
      vertex -2.58885 -2.5 -0.819087
    endloop
  endfacet
  facet normal 0.750118 0 -0.661304
    outer loop
      vertex -2.3327 -2.5 -0.509449
      vertex -2.46564 2.5 -0.660243
      vertex -2.3327 2.5 -0.509449
    endloop
  endfacet
  facet normal 0.750118 0 -0.661304
    outer loop
      vertex -2.46564 2.5 -0.660243
      vertex -2.3327 -2.5 -0.509449
      vertex -2.46564 -2.5 -0.660243
    endloop
  endfacet
  facet normal 0.890999 0 -0.454006
    outer loop
      vertex -2.80418 -2.5 -1.15839
      vertex -2.89545 2.5 -1.33751
      vertex -2.80418 2.5 -1.15839
    endloop
  endfacet
  facet normal 0.890999 0 -0.454006
    outer loop
      vertex -2.89545 2.5 -1.33751
      vertex -2.80418 -2.5 -1.15839
      vertex -2.89545 -2.5 -1.33751
    endloop
  endfacet
  facet normal 0.960285 0 -0.279022
    outer loop
      vertex -3.04338 -2.5 -1.71115
      vertex -3.09947 2.5 -1.90419
      vertex -3.04338 2.5 -1.71115
    endloop
  endfacet
  facet normal 0.960285 0 -0.279022
    outer loop
      vertex -3.09947 2.5 -1.90419
      vertex -3.04338 -2.5 -1.71115
      vertex -3.09947 -2.5 -1.90419
    endloop
  endfacet
  facet normal 0.995566 0 -0.0940649
    outer loop
      vertex -3.17477 -2.5 -2.29893
      vertex -3.19368 2.5 -2.49907
      vertex -3.17477 2.5 -2.29893
    endloop
  endfacet
  facet normal 0.995566 0 -0.0940649
    outer loop
      vertex -3.19368 2.5 -2.49907
      vertex -3.17477 -2.5 -2.29893
      vertex -3.19368 -2.5 -2.49907
    endloop
  endfacet
  facet normal 0.612892 0 -0.790166
    outer loop
      vertex -2.03976 -2.5 -0.234357
      vertex -1.88091 2.5 -0.111145
      vertex -1.88091 -2.5 -0.111145
    endloop
  endfacet
  facet normal 0.612892 0 -0.790166
    outer loop
      vertex -1.88091 2.5 -0.111145
      vertex -2.03976 -2.5 -0.234357
      vertex -2.03976 2.5 -0.234357
    endloop
  endfacet
  facet normal 0.397156 0 -0.917751
    outer loop
      vertex -1.36249 -2.5 0.195446
      vertex -1.178 2.5 0.275284
      vertex -1.178 -2.5 0.275284
    endloop
  endfacet
  facet normal 0.397156 0 -0.917751
    outer loop
      vertex -1.178 2.5 0.275284
      vertex -1.36249 -2.5 0.195446
      vertex -1.36249 2.5 0.195446
    endloop
  endfacet
  facet normal 0.278995 0 -0.960292
    outer loop
      vertex -0.988853 -2.5 0.34338
      vertex -0.795807 2.5 0.399466
      vertex -0.795807 -2.5 0.399466
    endloop
  endfacet
  facet normal 0.278995 0 -0.960292
    outer loop
      vertex -0.795807 2.5 0.399466
      vertex -0.988853 -2.5 0.34338
      vertex -0.988853 2.5 0.34338
    endloop
  endfacet
  facet normal 0.707104 0 -0.707109
    outer loop
      vertex -2.19055 -2.5 -0.3673
      vertex -2.3327 2.5 -0.509449
      vertex -2.19055 2.5 -0.3673
    endloop
  endfacet
  facet normal 0.707104 0 -0.707109
    outer loop
      vertex -2.3327 2.5 -0.509449
      vertex -2.19055 -2.5 -0.3673
      vertex -2.3327 -2.5 -0.509449
    endloop
  endfacet
endsolid OpenSCAD_Model
