solid OpenSCAD_Model
  facet normal -1 0 0
    outer loop
      vertex -5 -2.5 -2.5
      vertex -5 2.5 2.5
      vertex -5 2.5 -2.5
    endloop
  endfacet
  facet normal -1 -0 0
    outer loop
      vertex -5 2.5 2.5
      vertex -5 -2.5 -2.5
      vertex -5 -2.5 2.5
    endloop
  endfacet
  facet normal -0 0 1
    outer loop
      vertex -5 2.5 2.5
      vertex 5 -2.5 2.5
      vertex 5 2.5 2.5
    endloop
  endfacet
  facet normal 0 0 1
    outer loop
      vertex 5 -2.5 2.5
      vertex -5 2.5 2.5
      vertex -5 -2.5 2.5
    endloop
  endfacet
  facet normal 1 -0 0
    outer loop
      vertex 5 -2.5 2.5
      vertex 5 2.5 -2.5
      vertex 5 2.5 2.5
    endloop
  endfacet
  facet normal 1 0 0
    outer loop
      vertex 5 2.5 -2.5
      vertex 5 -2.5 2.5
      vertex 5 -2.5 -2.5
    endloop
  endfacet
  facet normal 0 0 -1
    outer loop
      vertex -5 -2.5 -2.5
      vertex -3.56388 2.5 -2.5
      vertex -3.56388 -2.5 -2.5
    endloop
  endfacet
  facet normal -0 0 -1
    outer loop
      vertex -3.56388 2.5 -2.5
      vertex -5 -2.5 -2.5
      vertex -5 2.5 -2.5
    endloop
  endfacet
  facet normal 0 0 -1
    outer loop
      vertex 3.56388 -2.5 -2.5
      vertex 5 2.5 -2.5
      vertex 5 -2.5 -2.5
    endloop
  endfacet
  facet normal -0 0 -1
    outer loop
      vertex 5 2.5 -2.5
      vertex 3.56388 -2.5 -2.5
      vertex 3.56388 2.5 -2.5
    endloop
  endfacet
  facet normal 0 -1 0
    outer loop
      vertex -5 -2.5 2.5
      vertex 0 -2.5 0.599999
      vertex 5 -2.5 2.5
    endloop
  endfacet
  facet normal 0 -1 0
    outer loop
      vertex -5 -2.5 2.5
      vertex -0.226046 -2.5 0.592896
      vertex 0 -2.5 0.599999
    endloop
  endfacet
  facet normal 0 -1 0
    outer loop
      vertex -5 -2.5 2.5
      vertex -0.4512 -2.5 0.571612
      vertex -0.226046 -2.5 0.592896
    endloop
  endfacet
  facet normal 0 -1 0
    outer loop
      vertex -5 -2.5 2.5
      vertex -0.674572 -2.5 0.536234
      vertex -0.4512 -2.5 0.571612
    endloop
  endfacet
  facet normal 0 -1 0
    outer loop
      vertex -5 -2.5 2.5
      vertex -0.895283 -2.5 0.486899
      vertex -0.674572 -2.5 0.536234
    endloop
  endfacet
  facet normal 0 -1 0
    outer loop
      vertex -5 -2.5 2.5
      vertex -1.11246 -2.5 0.423803
      vertex -0.895283 -2.5 0.486899
    endloop
  endfacet
  facet normal 0 -1 0
    outer loop
      vertex -5 -2.5 2.5
      vertex -1.32525 -2.5 0.347195
      vertex -1.11246 -2.5 0.423803
    endloop
  endfacet
  facet normal 0 -1 0
    outer loop
      vertex -5 -2.5 2.5
      vertex -1.53281 -2.5 0.257377
      vertex -1.32525 -2.5 0.347195
    endloop
  endfacet
  facet normal 0 -1 0
    outer loop
      vertex -5 -2.5 2.5
      vertex -1.73431 -2.5 0.154703
      vertex -1.53281 -2.5 0.257377
    endloop
  endfacet
  facet normal 0 -1 0
    outer loop
      vertex -5 -2.5 2.5
      vertex -1.92898 -2.5 0.0395803
      vertex -1.73431 -2.5 0.154703
    endloop
  endfacet
  facet normal 0 -1 0
    outer loop
      vertex -5 -2.5 2.5
      vertex -2.11603 -2.5 -0.0875387
      vertex -1.92898 -2.5 0.0395803
    endloop
  endfacet
  facet normal 0 -1 0
    outer loop
      vertex -5 -2.5 2.5
      vertex -2.29473 -2.5 -0.226151
      vertex -2.11603 -2.5 -0.0875387
    endloop
  endfacet
  facet normal 0 -1 0
    outer loop
      vertex -5 -2.5 2.5
      vertex -2.46437 -2.5 -0.375712
      vertex -2.29473 -2.5 -0.226151
    endloop
  endfacet
  facet normal 0 -1 0
    outer loop
      vertex -5 -2.5 2.5
      vertex -2.62429 -2.5 -0.53563
      vertex -2.46437 -2.5 -0.375712
    endloop
  endfacet
  facet normal 0 -1 0
    outer loop
      vertex -5 -2.5 2.5
      vertex -2.77385 -2.5 -0.705274
      vertex -2.62429 -2.5 -0.53563
    endloop
  endfacet
  facet normal 0 -1 0
    outer loop
      vertex -5 -2.5 2.5
      vertex -2.91246 -2.5 -0.883972
      vertex -2.77385 -2.5 -0.705274
    endloop
  endfacet
  facet normal 0 -1 0
    outer loop
      vertex -5 -2.5 2.5
      vertex -3.03958 -2.5 -1.07102
      vertex -2.91246 -2.5 -0.883972
    endloop
  endfacet
  facet normal 0 -1 0
    outer loop
      vertex -5 -2.5 2.5
      vertex -3.1547 -2.5 -1.26569
      vertex -3.03958 -2.5 -1.07102
    endloop
  endfacet
  facet normal 0 -1 0
    outer loop
      vertex -5 -2.5 -2.5
      vertex -3.1547 -2.5 -1.26569
      vertex -5 -2.5 2.5
    endloop
  endfacet
  facet normal 0 -1 0
    outer loop
      vertex -3.1547 -2.5 -1.26569
      vertex -5 -2.5 -2.5
      vertex -3.25738 -2.5 -1.46719
    endloop
  endfacet
  facet normal 0 -1 0
    outer loop
      vertex -3.25738 -2.5 -1.46719
      vertex -5 -2.5 -2.5
      vertex -3.34719 -2.5 -1.67475
    endloop
  endfacet
  facet normal 0 -1 0
    outer loop
      vertex -3.34719 -2.5 -1.67475
      vertex -5 -2.5 -2.5
      vertex -3.4238 -2.5 -1.88754
    endloop
  endfacet
  facet normal 0 -1 0
    outer loop
      vertex -3.4238 -2.5 -1.88754
      vertex -5 -2.5 -2.5
      vertex -3.4869 -2.5 -2.10472
    endloop
  endfacet
  facet normal 0 -1 0
    outer loop
      vertex -3.4869 -2.5 -2.10472
      vertex -5 -2.5 -2.5
      vertex -3.53623 -2.5 -2.32543
    endloop
  endfacet
  facet normal 0 -1 0
    outer loop
      vertex -3.53623 -2.5 -2.32543
      vertex -5 -2.5 -2.5
      vertex -3.56388 -2.5 -2.5
    endloop
  endfacet
  facet normal 0 -1 0
    outer loop
      vertex 0.226046 -2.5 0.592896
      vertex 5 -2.5 2.5
      vertex 0 -2.5 0.599999
    endloop
  endfacet
  facet normal 0 -1 0
    outer loop
      vertex 0.4512 -2.5 0.571612
      vertex 5 -2.5 2.5
      vertex 0.226046 -2.5 0.592896
    endloop
  endfacet
  facet normal 0 -1 0
    outer loop
      vertex 0.674572 -2.5 0.536234
      vertex 5 -2.5 2.5
      vertex 0.4512 -2.5 0.571612
    endloop
  endfacet
  facet normal 0 -1 0
    outer loop
      vertex 0.895283 -2.5 0.486899
      vertex 5 -2.5 2.5
      vertex 0.674572 -2.5 0.536234
    endloop
  endfacet
  facet normal 0 -1 0
    outer loop
      vertex 1.11246 -2.5 0.423803
      vertex 5 -2.5 2.5
      vertex 0.895283 -2.5 0.486899
    endloop
  endfacet
  facet normal 0 -1 0
    outer loop
      vertex 1.32525 -2.5 0.347195
      vertex 5 -2.5 2.5
      vertex 1.11246 -2.5 0.423803
    endloop
  endfacet
  facet normal 0 -1 0
    outer loop
      vertex 1.53281 -2.5 0.257377
      vertex 5 -2.5 2.5
      vertex 1.32525 -2.5 0.347195
    endloop
  endfacet
  facet normal 0 -1 0
    outer loop
      vertex 1.73431 -2.5 0.154703
      vertex 5 -2.5 2.5
      vertex 1.53281 -2.5 0.257377
    endloop
  endfacet
  facet normal 0 -1 0
    outer loop
      vertex 1.92898 -2.5 0.0395803
      vertex 5 -2.5 2.5
      vertex 1.73431 -2.5 0.154703
    endloop
  endfacet
  facet normal 0 -1 0
    outer loop
      vertex 2.11603 -2.5 -0.0875387
      vertex 5 -2.5 2.5
      vertex 1.92898 -2.5 0.0395803
    endloop
  endfacet
  facet normal 0 -1 0
    outer loop
      vertex 2.29473 -2.5 -0.226151
      vertex 5 -2.5 2.5
      vertex 2.11603 -2.5 -0.0875387
    endloop
  endfacet
  facet normal 0 -1 0
    outer loop
      vertex 2.46437 -2.5 -0.375712
      vertex 5 -2.5 2.5
      vertex 2.29473 -2.5 -0.226151
    endloop
  endfacet
  facet normal 0 -1 0
    outer loop
      vertex 2.62429 -2.5 -0.53563
      vertex 5 -2.5 2.5
      vertex 2.46437 -2.5 -0.375712
    endloop
  endfacet
  facet normal 0 -1 0
    outer loop
      vertex 2.77385 -2.5 -0.705274
      vertex 5 -2.5 2.5
      vertex 2.62429 -2.5 -0.53563
    endloop
  endfacet
  facet normal 0 -1 0
    outer loop
      vertex 2.91246 -2.5 -0.883972
      vertex 5 -2.5 2.5
      vertex 2.77385 -2.5 -0.705274
    endloop
  endfacet
  facet normal 0 -1 0
    outer loop
      vertex 3.03958 -2.5 -1.07102
      vertex 5 -2.5 2.5
      vertex 2.91246 -2.5 -0.883972
    endloop
  endfacet
  facet normal 0 -1 0
    outer loop
      vertex 3.1547 -2.5 -1.26569
      vertex 5 -2.5 2.5
      vertex 3.03958 -2.5 -1.07102
    endloop
  endfacet
  facet normal 0 -1 0
    outer loop
      vertex 5 -2.5 -2.5
      vertex 3.1547 -2.5 -1.26569
      vertex 3.25738 -2.5 -1.46719
    endloop
  endfacet
  facet normal 0 -1 0
    outer loop
      vertex 5 -2.5 -2.5
      vertex 3.25738 -2.5 -1.46719
      vertex 3.34719 -2.5 -1.67475
    endloop
  endfacet
  facet normal 0 -1 0
    outer loop
      vertex 5 -2.5 -2.5
      vertex 3.34719 -2.5 -1.67475
      vertex 3.4238 -2.5 -1.88754
    endloop
  endfacet
  facet normal 0 -1 0
    outer loop
      vertex 5 -2.5 -2.5
      vertex 3.4238 -2.5 -1.88754
      vertex 3.4869 -2.5 -2.10472
    endloop
  endfacet
  facet normal 0 -1 0
    outer loop
      vertex 5 -2.5 -2.5
      vertex 3.4869 -2.5 -2.10472
      vertex 3.53623 -2.5 -2.32543
    endloop
  endfacet
  facet normal 0 -1 0
    outer loop
      vertex 5 -2.5 -2.5
      vertex 3.53623 -2.5 -2.32543
      vertex 3.56388 -2.5 -2.5
    endloop
  endfacet
  facet normal 0 -1 0
    outer loop
      vertex 3.1547 -2.5 -1.26569
      vertex 5 -2.5 -2.5
      vertex 5 -2.5 2.5
    endloop
  endfacet
  facet normal 0 1 0
    outer loop
      vertex 5 2.5 2.5
      vertex 0 2.5 0.599999
      vertex -5 2.5 2.5
    endloop
  endfacet
  facet normal 0 1 0
    outer loop
      vertex 5 2.5 2.5
      vertex 0.226046 2.5 0.592896
      vertex 0 2.5 0.599999
    endloop
  endfacet
  facet normal 0 1 0
    outer loop
      vertex 5 2.5 2.5
      vertex 0.4512 2.5 0.571612
      vertex 0.226046 2.5 0.592896
    endloop
  endfacet
  facet normal 0 1 0
    outer loop
      vertex 5 2.5 2.5
      vertex 0.674572 2.5 0.536234
      vertex 0.4512 2.5 0.571612
    endloop
  endfacet
  facet normal 0 1 0
    outer loop
      vertex 5 2.5 2.5
      vertex 0.895283 2.5 0.486899
      vertex 0.674572 2.5 0.536234
    endloop
  endfacet
  facet normal 0 1 0
    outer loop
      vertex 5 2.5 2.5
      vertex 1.11246 2.5 0.423803
      vertex 0.895283 2.5 0.486899
    endloop
  endfacet
  facet normal 0 1 0
    outer loop
      vertex 5 2.5 2.5
      vertex 1.32525 2.5 0.347195
      vertex 1.11246 2.5 0.423803
    endloop
  endfacet
  facet normal 0 1 0
    outer loop
      vertex 5 2.5 2.5
      vertex 1.53281 2.5 0.257377
      vertex 1.32525 2.5 0.347195
    endloop
  endfacet
  facet normal 0 1 0
    outer loop
      vertex 5 2.5 2.5
      vertex 1.73431 2.5 0.154703
      vertex 1.53281 2.5 0.257377
    endloop
  endfacet
  facet normal 0 1 0
    outer loop
      vertex 5 2.5 2.5
      vertex 1.92898 2.5 0.0395803
      vertex 1.73431 2.5 0.154703
    endloop
  endfacet
  facet normal 0 1 0
    outer loop
      vertex 5 2.5 2.5
      vertex 2.11603 2.5 -0.0875387
      vertex 1.92898 2.5 0.0395803
    endloop
  endfacet
  facet normal 0 1 0
    outer loop
      vertex 5 2.5 2.5
      vertex 2.29473 2.5 -0.226151
      vertex 2.11603 2.5 -0.0875387
    endloop
  endfacet
  facet normal 0 1 0
    outer loop
      vertex 5 2.5 2.5
      vertex 2.46437 2.5 -0.375712
      vertex 2.29473 2.5 -0.226151
    endloop
  endfacet
  facet normal 0 1 0
    outer loop
      vertex 5 2.5 2.5
      vertex 2.62429 2.5 -0.53563
      vertex 2.46437 2.5 -0.375712
    endloop
  endfacet
  facet normal 0 1 0
    outer loop
      vertex 5 2.5 2.5
      vertex 2.77385 2.5 -0.705274
      vertex 2.62429 2.5 -0.53563
    endloop
  endfacet
  facet normal 0 1 0
    outer loop
      vertex 5 2.5 2.5
      vertex 2.91246 2.5 -0.883972
      vertex 2.77385 2.5 -0.705274
    endloop
  endfacet
  facet normal 0 1 0
    outer loop
      vertex 5 2.5 2.5
      vertex 3.03958 2.5 -1.07102
      vertex 2.91246 2.5 -0.883972
    endloop
  endfacet
  facet normal 0 1 0
    outer loop
      vertex 5 2.5 2.5
      vertex 3.1547 2.5 -1.26569
      vertex 3.03958 2.5 -1.07102
    endloop
  endfacet
  facet normal 0 1 -0
    outer loop
      vertex 5 2.5 -2.5
      vertex 3.1547 2.5 -1.26569
      vertex 5 2.5 2.5
    endloop
  endfacet
  facet normal 0 1 0
    outer loop
      vertex 3.1547 2.5 -1.26569
      vertex 5 2.5 -2.5
      vertex 3.25738 2.5 -1.46719
    endloop
  endfacet
  facet normal 0 1 0
    outer loop
      vertex 3.25738 2.5 -1.46719
      vertex 5 2.5 -2.5
      vertex 3.34719 2.5 -1.67475
    endloop
  endfacet
  facet normal 0 1 0
    outer loop
      vertex 3.34719 2.5 -1.67475
      vertex 5 2.5 -2.5
      vertex 3.4238 2.5 -1.88754
    endloop
  endfacet
  facet normal 0 1 0
    outer loop
      vertex 3.4238 2.5 -1.88754
      vertex 5 2.5 -2.5
      vertex 3.4869 2.5 -2.10472
    endloop
  endfacet
  facet normal 0 1 0
    outer loop
      vertex 3.4869 2.5 -2.10472
      vertex 5 2.5 -2.5
      vertex 3.53623 2.5 -2.32543
    endloop
  endfacet
  facet normal 0 1 0
    outer loop
      vertex 3.53623 2.5 -2.32543
      vertex 5 2.5 -2.5
      vertex 3.56388 2.5 -2.5
    endloop
  endfacet
  facet normal 0 1 -0
    outer loop
      vertex -0.226046 2.5 0.592896
      vertex -5 2.5 2.5
      vertex 0 2.5 0.599999
    endloop
  endfacet
  facet normal 0 1 -0
    outer loop
      vertex -0.4512 2.5 0.571612
      vertex -5 2.5 2.5
      vertex -0.226046 2.5 0.592896
    endloop
  endfacet
  facet normal 0 1 -0
    outer loop
      vertex -0.674572 2.5 0.536234
      vertex -5 2.5 2.5
      vertex -0.4512 2.5 0.571612
    endloop
  endfacet
  facet normal 0 1 -0
    outer loop
      vertex -0.895283 2.5 0.486899
      vertex -5 2.5 2.5
      vertex -0.674572 2.5 0.536234
    endloop
  endfacet
  facet normal 0 1 -0
    outer loop
      vertex -1.11246 2.5 0.423803
      vertex -5 2.5 2.5
      vertex -0.895283 2.5 0.486899
    endloop
  endfacet
  facet normal 0 1 -0
    outer loop
      vertex -1.32525 2.5 0.347195
      vertex -5 2.5 2.5
      vertex -1.11246 2.5 0.423803
    endloop
  endfacet
  facet normal 0 1 -0
    outer loop
      vertex -1.53281 2.5 0.257377
      vertex -5 2.5 2.5
      vertex -1.32525 2.5 0.347195
    endloop
  endfacet
  facet normal 0 1 -0
    outer loop
      vertex -1.73431 2.5 0.154703
      vertex -5 2.5 2.5
      vertex -1.53281 2.5 0.257377
    endloop
  endfacet
  facet normal 0 1 -0
    outer loop
      vertex -1.92898 2.5 0.0395803
      vertex -5 2.5 2.5
      vertex -1.73431 2.5 0.154703
    endloop
  endfacet
  facet normal 0 1 -0
    outer loop
      vertex -2.11603 2.5 -0.0875387
      vertex -5 2.5 2.5
      vertex -1.92898 2.5 0.0395803
    endloop
  endfacet
  facet normal 0 1 -0
    outer loop
      vertex -2.29473 2.5 -0.226151
      vertex -5 2.5 2.5
      vertex -2.11603 2.5 -0.0875387
    endloop
  endfacet
  facet normal 0 1 -0
    outer loop
      vertex -2.46437 2.5 -0.375712
      vertex -5 2.5 2.5
      vertex -2.29473 2.5 -0.226151
    endloop
  endfacet
  facet normal 0 1 -0
    outer loop
      vertex -2.62429 2.5 -0.53563
      vertex -5 2.5 2.5
      vertex -2.46437 2.5 -0.375712
    endloop
  endfacet
  facet normal 0 1 -0
    outer loop
      vertex -2.77385 2.5 -0.705274
      vertex -5 2.5 2.5
      vertex -2.62429 2.5 -0.53563
    endloop
  endfacet
  facet normal 0 1 -0
    outer loop
      vertex -2.91246 2.5 -0.883972
      vertex -5 2.5 2.5
      vertex -2.77385 2.5 -0.705274
    endloop
  endfacet
  facet normal 0 1 -0
    outer loop
      vertex -3.03958 2.5 -1.07102
      vertex -5 2.5 2.5
      vertex -2.91246 2.5 -0.883972
    endloop
  endfacet
  facet normal 0 1 -0
    outer loop
      vertex -3.1547 2.5 -1.26569
      vertex -5 2.5 2.5
      vertex -3.03958 2.5 -1.07102
    endloop
  endfacet
  facet normal 0 1 0
    outer loop
      vertex -5 2.5 -2.5
      vertex -3.1547 2.5 -1.26569
      vertex -3.25738 2.5 -1.46719
    endloop
  endfacet
  facet normal 0 1 0
    outer loop
      vertex -5 2.5 -2.5
      vertex -3.25738 2.5 -1.46719
      vertex -3.34719 2.5 -1.67475
    endloop
  endfacet
  facet normal 0 1 0
    outer loop
      vertex -5 2.5 -2.5
      vertex -3.34719 2.5 -1.67475
      vertex -3.4238 2.5 -1.88754
    endloop
  endfacet
  facet normal 0 1 0
    outer loop
      vertex -5 2.5 -2.5
      vertex -3.4238 2.5 -1.88754
      vertex -3.4869 2.5 -2.10472
    endloop
  endfacet
  facet normal 0 1 0
    outer loop
      vertex -5 2.5 -2.5
      vertex -3.4869 2.5 -2.10472
      vertex -3.53623 2.5 -2.32543
    endloop
  endfacet
  facet normal 0 1 0
    outer loop
      vertex -5 2.5 -2.5
      vertex -3.53623 2.5 -2.32543
      vertex -3.56388 2.5 -2.5
    endloop
  endfacet
  facet normal 0 1 0
    outer loop
      vertex -3.1547 2.5 -1.26569
      vertex -5 2.5 -2.5
      vertex -5 2.5 2.5
    endloop
  endfacet
  facet normal -0.0314073 0 -0.999507
    outer loop
      vertex 0 -2.5 0.599999
      vertex 0.226046 2.5 0.592896
      vertex 0.226046 -2.5 0.592896
    endloop
  endfacet
  facet normal -0.0314073 0 -0.999507
    outer loop
      vertex 0.226046 2.5 0.592896
      vertex 0 -2.5 0.599999
      vertex 0 2.5 0.599999
    endloop
  endfacet
  facet normal -0.707102 0 -0.707111
    outer loop
      vertex 2.62429 -2.5 -0.53563
      vertex 2.46437 2.5 -0.375712
      vertex 2.62429 2.5 -0.53563
    endloop
  endfacet
  facet normal -0.707102 -0 -0.707111
    outer loop
      vertex 2.46437 2.5 -0.375712
      vertex 2.62429 -2.5 -0.53563
      vertex 2.46437 -2.5 -0.375712
    endloop
  endfacet
  facet normal 0.66132 0 -0.750104
    outer loop
      vertex -2.46437 -2.5 -0.375712
      vertex -2.29473 2.5 -0.226151
      vertex -2.29473 -2.5 -0.226151
    endloop
  endfacet
  facet normal 0.66132 0 -0.750104
    outer loop
      vertex -2.29473 2.5 -0.226151
      vertex -2.46437 -2.5 -0.375712
      vertex -2.46437 2.5 -0.375712
    endloop
  endfacet
  facet normal 0.338734 0 -0.940882
    outer loop
      vertex -1.32525 -2.5 0.347195
      vertex -1.11246 2.5 0.423803
      vertex -1.11246 -2.5 0.423803
    endloop
  endfacet
  facet normal 0.338734 0 -0.940882
    outer loop
      vertex -1.11246 2.5 0.423803
      vertex -1.32525 -2.5 0.347195
      vertex -1.32525 2.5 0.347195
    endloop
  endfacet
  facet normal -0.91777 0 -0.397114
    outer loop
      vertex 3.34719 -2.5 -1.67475
      vertex 3.25738 2.5 -1.46719
      vertex 3.34719 2.5 -1.67475
    endloop
  endfacet
  facet normal -0.91777 -0 -0.397114
    outer loop
      vertex 3.25738 2.5 -1.46719
      vertex 3.34719 -2.5 -1.67475
      vertex 3.25738 -2.5 -1.46719
    endloop
  endfacet
  facet normal -0.397143 0 -0.917757
    outer loop
      vertex 1.32525 -2.5 0.347195
      vertex 1.53281 2.5 0.257377
      vertex 1.53281 -2.5 0.257377
    endloop
  endfacet
  facet normal -0.397143 0 -0.917757
    outer loop
      vertex 1.53281 2.5 0.257377
      vertex 1.32525 -2.5 0.347195
      vertex 1.32525 2.5 0.347195
    endloop
  endfacet
  facet normal 0.79016 0 -0.6129
    outer loop
      vertex -2.77385 -2.5 -0.705274
      vertex -2.91246 2.5 -0.883972
      vertex -2.77385 2.5 -0.705274
    endloop
  endfacet
  facet normal 0.79016 0 -0.6129
    outer loop
      vertex -2.91246 2.5 -0.883972
      vertex -2.77385 -2.5 -0.705274
      vertex -2.91246 -2.5 -0.883972
    endloop
  endfacet
  facet normal 0.156432 0 -0.987689
    outer loop
      vertex -0.674572 -2.5 0.536234
      vertex -0.4512 2.5 0.571612
      vertex -0.4512 -2.5 0.571612
    endloop
  endfacet
  facet normal 0.156432 0 -0.987689
    outer loop
      vertex -0.4512 2.5 0.571612
      vertex -0.674572 -2.5 0.536234
      vertex -0.674572 2.5 0.536234
    endloop
  endfacet
  facet normal -0.975921 0 -0.218124
    outer loop
      vertex 3.53623 -2.5 -2.32543
      vertex 3.4869 2.5 -2.10472
      vertex 3.53623 2.5 -2.32543
    endloop
  endfacet
  facet normal -0.975921 -0 -0.218124
    outer loop
      vertex 3.4869 2.5 -2.10472
      vertex 3.53623 -2.5 -2.32543
      vertex 3.4869 -2.5 -2.10472
    endloop
  endfacet
  facet normal -0.96029 0 -0.279005
    outer loop
      vertex 3.4869 -2.5 -2.10472
      vertex 3.4238 2.5 -1.88754
      vertex 3.4869 2.5 -2.10472
    endloop
  endfacet
  facet normal -0.96029 -0 -0.279005
    outer loop
      vertex 3.4238 2.5 -1.88754
      vertex 3.4869 -2.5 -2.10472
      vertex 3.4238 -2.5 -1.88754
    endloop
  endfacet
  facet normal -0.218144 0 -0.975917
    outer loop
      vertex 0.674572 -2.5 0.536234
      vertex 0.895283 2.5 0.486899
      vertex 0.895283 -2.5 0.486899
    endloop
  endfacet
  facet normal -0.218144 0 -0.975917
    outer loop
      vertex 0.895283 2.5 0.486899
      vertex 0.674572 -2.5 0.536234
      vertex 0.674572 2.5 0.536234
    endloop
  endfacet
  facet normal -0.562083 0 -0.827081
    outer loop
      vertex 1.92898 -2.5 0.0395803
      vertex 2.11603 2.5 -0.0875387
      vertex 2.11603 -2.5 -0.0875387
    endloop
  endfacet
  facet normal -0.562083 0 -0.827081
    outer loop
      vertex 2.11603 2.5 -0.0875387
      vertex 1.92898 -2.5 0.0395803
      vertex 1.92898 2.5 0.0395803
    endloop
  endfacet
  facet normal -0.454007 0 -0.890998
    outer loop
      vertex 1.53281 -2.5 0.257377
      vertex 1.73431 2.5 0.154703
      vertex 1.73431 -2.5 0.154703
    endloop
  endfacet
  facet normal -0.454007 0 -0.890998
    outer loop
      vertex 1.73431 2.5 0.154703
      vertex 1.53281 -2.5 0.257377
      vertex 1.53281 2.5 0.257377
    endloop
  endfacet
  facet normal 0.96029 0 -0.279005
    outer loop
      vertex -3.4238 -2.5 -1.88754
      vertex -3.4869 2.5 -2.10472
      vertex -3.4238 2.5 -1.88754
    endloop
  endfacet
  facet normal 0.96029 0 -0.279005
    outer loop
      vertex -3.4869 2.5 -2.10472
      vertex -3.4238 -2.5 -1.88754
      vertex -3.4869 -2.5 -2.10472
    endloop
  endfacet
  facet normal 0.827076 0 -0.56209
    outer loop
      vertex -2.91246 -2.5 -0.883972
      vertex -3.03958 2.5 -1.07102
      vertex -2.91246 2.5 -0.883972
    endloop
  endfacet
  facet normal 0.827076 0 -0.56209
    outer loop
      vertex -3.03958 2.5 -1.07102
      vertex -2.91246 -2.5 -0.883972
      vertex -3.03958 -2.5 -1.07102
    endloop
  endfacet
  facet normal 0.975921 0 -0.218124
    outer loop
      vertex -3.4869 -2.5 -2.10472
      vertex -3.53623 2.5 -2.32543
      vertex -3.4869 2.5 -2.10472
    endloop
  endfacet
  facet normal 0.975921 0 -0.218124
    outer loop
      vertex -3.53623 2.5 -2.32543
      vertex -3.4869 -2.5 -2.10472
      vertex -3.53623 -2.5 -2.32543
    endloop
  endfacet
  facet normal 0.509026 0 -0.860751
    outer loop
      vertex -1.92898 -2.5 0.0395803
      vertex -1.73431 2.5 0.154703
      vertex -1.73431 -2.5 0.154703
    endloop
  endfacet
  facet normal 0.509026 0 -0.860751
    outer loop
      vertex -1.73431 2.5 0.154703
      vertex -1.92898 -2.5 0.0395803
      vertex -1.92898 2.5 0.0395803
    endloop
  endfacet
  facet normal 0.0941113 0 -0.995562
    outer loop
      vertex -0.4512 -2.5 0.571612
      vertex -0.226046 2.5 0.592896
      vertex -0.226046 -2.5 0.592896
    endloop
  endfacet
  facet normal 0.0941113 0 -0.995562
    outer loop
      vertex -0.226046 2.5 0.592896
      vertex -0.4512 -2.5 0.571612
      vertex -0.4512 2.5 0.571612
    endloop
  endfacet
  facet normal -0.987688 0 -0.156439
    outer loop
      vertex 3.56388 -2.5 -2.5
      vertex 3.53623 2.5 -2.32543
      vertex 3.56388 2.5 -2.5
    endloop
  endfacet
  facet normal -0.987688 -0 -0.156439
    outer loop
      vertex 3.53623 2.5 -2.32543
      vertex 3.56388 -2.5 -2.5
      vertex 3.53623 -2.5 -2.32543
    endloop
  endfacet
  facet normal -0.79016 0 -0.6129
    outer loop
      vertex 2.91246 -2.5 -0.883972
      vertex 2.77385 2.5 -0.705274
      vertex 2.91246 2.5 -0.883972
    endloop
  endfacet
  facet normal -0.79016 -0 -0.6129
    outer loop
      vertex 2.77385 2.5 -0.705274
      vertex 2.91246 -2.5 -0.883972
      vertex 2.77385 -2.5 -0.705274
    endloop
  endfacet
  facet normal -0.827076 0 -0.56209
    outer loop
      vertex 3.03958 -2.5 -1.07102
      vertex 2.91246 2.5 -0.883972
      vertex 3.03958 2.5 -1.07102
    endloop
  endfacet
  facet normal -0.827076 -0 -0.56209
    outer loop
      vertex 2.91246 2.5 -0.883972
      vertex 3.03958 -2.5 -1.07102
      vertex 2.91246 -2.5 -0.883972
    endloop
  endfacet
  facet normal -0.156432 0 -0.987689
    outer loop
      vertex 0.4512 -2.5 0.571612
      vertex 0.674572 2.5 0.536234
      vertex 0.674572 -2.5 0.536234
    endloop
  endfacet
  facet normal -0.156432 0 -0.987689
    outer loop
      vertex 0.674572 2.5 0.536234
      vertex 0.4512 -2.5 0.571612
      vertex 0.4512 2.5 0.571612
    endloop
  endfacet
  facet normal -0.338734 0 -0.940882
    outer loop
      vertex 1.11246 -2.5 0.423803
      vertex 1.32525 2.5 0.347195
      vertex 1.32525 -2.5 0.347195
    endloop
  endfacet
  facet normal -0.338734 0 -0.940882
    outer loop
      vertex 1.32525 2.5 0.347195
      vertex 1.11246 -2.5 0.423803
      vertex 1.11246 2.5 0.423803
    endloop
  endfacet
  facet normal -0.509026 0 -0.860751
    outer loop
      vertex 1.73431 -2.5 0.154703
      vertex 1.92898 2.5 0.0395803
      vertex 1.92898 -2.5 0.0395803
    endloop
  endfacet
  facet normal -0.509026 0 -0.860751
    outer loop
      vertex 1.92898 2.5 0.0395803
      vertex 1.73431 -2.5 0.154703
      vertex 1.73431 2.5 0.154703
    endloop
  endfacet
  facet normal 0.987688 0 -0.156439
    outer loop
      vertex -3.53623 -2.5 -2.32543
      vertex -3.56388 2.5 -2.5
      vertex -3.53623 2.5 -2.32543
    endloop
  endfacet
  facet normal 0.987688 0 -0.156439
    outer loop
      vertex -3.56388 2.5 -2.5
      vertex -3.53623 -2.5 -2.32543
      vertex -3.56388 -2.5 -2.5
    endloop
  endfacet
  facet normal 0.750114 0 -0.661309
    outer loop
      vertex -2.62429 -2.5 -0.53563
      vertex -2.77385 2.5 -0.705274
      vertex -2.62429 2.5 -0.53563
    endloop
  endfacet
  facet normal 0.750114 0 -0.661309
    outer loop
      vertex -2.77385 2.5 -0.705274
      vertex -2.62429 -2.5 -0.53563
      vertex -2.77385 -2.5 -0.705274
    endloop
  endfacet
  facet normal 0.890988 0 -0.454028
    outer loop
      vertex -3.1547 -2.5 -1.26569
      vertex -3.25738 2.5 -1.46719
      vertex -3.1547 2.5 -1.26569
    endloop
  endfacet
  facet normal 0.890988 0 -0.454028
    outer loop
      vertex -3.25738 2.5 -1.46719
      vertex -3.1547 -2.5 -1.26569
      vertex -3.25738 -2.5 -1.46719
    endloop
  endfacet
  facet normal 0.94088 0 -0.338741
    outer loop
      vertex -3.34719 -2.5 -1.67475
      vertex -3.4238 2.5 -1.88754
      vertex -3.34719 2.5 -1.67475
    endloop
  endfacet
  facet normal 0.94088 0 -0.338741
    outer loop
      vertex -3.4238 2.5 -1.88754
      vertex -3.34719 -2.5 -1.67475
      vertex -3.4238 -2.5 -1.88754
    endloop
  endfacet
  facet normal 0.562083 0 -0.827081
    outer loop
      vertex -2.11603 -2.5 -0.0875387
      vertex -1.92898 2.5 0.0395803
      vertex -1.92898 -2.5 0.0395803
    endloop
  endfacet
  facet normal 0.562083 0 -0.827081
    outer loop
      vertex -1.92898 2.5 0.0395803
      vertex -2.11603 -2.5 -0.0875387
      vertex -2.11603 2.5 -0.0875387
    endloop
  endfacet
  facet normal 0.397143 0 -0.917757
    outer loop
      vertex -1.53281 -2.5 0.257377
      vertex -1.32525 2.5 0.347195
      vertex -1.32525 -2.5 0.347195
    endloop
  endfacet
  facet normal 0.397143 0 -0.917757
    outer loop
      vertex -1.32525 2.5 0.347195
      vertex -1.53281 -2.5 0.257377
      vertex -1.53281 2.5 0.257377
    endloop
  endfacet
  facet normal 0.218144 0 -0.975917
    outer loop
      vertex -0.895283 -2.5 0.486899
      vertex -0.674572 2.5 0.536234
      vertex -0.674572 -2.5 0.536234
    endloop
  endfacet
  facet normal 0.218144 0 -0.975917
    outer loop
      vertex -0.674572 2.5 0.536234
      vertex -0.895283 -2.5 0.486899
      vertex -0.895283 2.5 0.486899
    endloop
  endfacet
  facet normal 0.278992 0 -0.960293
    outer loop
      vertex -1.11246 -2.5 0.423803
      vertex -0.895283 2.5 0.486899
      vertex -0.895283 -2.5 0.486899
    endloop
  endfacet
  facet normal 0.278992 0 -0.960293
    outer loop
      vertex -0.895283 2.5 0.486899
      vertex -1.11246 -2.5 0.423803
      vertex -1.11246 2.5 0.423803
    endloop
  endfacet
  facet normal 0.0314073 0 -0.999507
    outer loop
      vertex -0.226046 -2.5 0.592896
      vertex 0 2.5 0.599999
      vertex 0 -2.5 0.599999
    endloop
  endfacet
  facet normal 0.0314073 0 -0.999507
    outer loop
      vertex 0 2.5 0.599999
      vertex -0.226046 -2.5 0.592896
      vertex -0.226046 2.5 0.592896
    endloop
  endfacet
  facet normal -0.94088 0 -0.338741
    outer loop
      vertex 3.4238 -2.5 -1.88754
      vertex 3.34719 2.5 -1.67475
      vertex 3.4238 2.5 -1.88754
    endloop
  endfacet
  facet normal -0.94088 -0 -0.338741
    outer loop
      vertex 3.34719 2.5 -1.67475
      vertex 3.4238 -2.5 -1.88754
      vertex 3.34719 -2.5 -1.67475
    endloop
  endfacet
  facet normal -0.750114 0 -0.661309
    outer loop
      vertex 2.77385 -2.5 -0.705274
      vertex 2.62429 2.5 -0.53563
      vertex 2.77385 2.5 -0.705274
    endloop
  endfacet
  facet normal -0.750114 -0 -0.661309
    outer loop
      vertex 2.62429 2.5 -0.53563
      vertex 2.77385 -2.5 -0.705274
      vertex 2.62429 -2.5 -0.53563
    endloop
  endfacet
  facet normal -0.890988 0 -0.454028
    outer loop
      vertex 3.25738 -2.5 -1.46719
      vertex 3.1547 2.5 -1.26569
      vertex 3.25738 2.5 -1.46719
    endloop
  endfacet
  facet normal -0.890988 -0 -0.454028
    outer loop
      vertex 3.1547 2.5 -1.26569
      vertex 3.25738 -2.5 -1.46719
      vertex 3.1547 -2.5 -1.26569
    endloop
  endfacet
  facet normal -0.860757 0 -0.509017
    outer loop
      vertex 3.1547 -2.5 -1.26569
      vertex 3.03958 2.5 -1.07102
      vertex 3.1547 2.5 -1.26569
    endloop
  endfacet
  facet normal -0.860757 -0 -0.509017
    outer loop
      vertex 3.03958 2.5 -1.07102
      vertex 3.1547 -2.5 -1.26569
      vertex 3.03958 -2.5 -1.07102
    endloop
  endfacet
  facet normal -0.278992 0 -0.960293
    outer loop
      vertex 0.895283 -2.5 0.486899
      vertex 1.11246 2.5 0.423803
      vertex 1.11246 -2.5 0.423803
    endloop
  endfacet
  facet normal -0.278992 0 -0.960293
    outer loop
      vertex 1.11246 2.5 0.423803
      vertex 0.895283 -2.5 0.486899
      vertex 0.895283 2.5 0.486899
    endloop
  endfacet
  facet normal -0.0941113 0 -0.995562
    outer loop
      vertex 0.226046 -2.5 0.592896
      vertex 0.4512 2.5 0.571612
      vertex 0.4512 -2.5 0.571612
    endloop
  endfacet
  facet normal -0.0941113 0 -0.995562
    outer loop
      vertex 0.4512 2.5 0.571612
      vertex 0.226046 -2.5 0.592896
      vertex 0.226046 2.5 0.592896
    endloop
  endfacet
  facet normal -0.66132 0 -0.750104
    outer loop
      vertex 2.29473 -2.5 -0.226151
      vertex 2.46437 2.5 -0.375712
      vertex 2.46437 -2.5 -0.375712
    endloop
  endfacet
  facet normal -0.66132 0 -0.750104
    outer loop
      vertex 2.46437 2.5 -0.375712
      vertex 2.29473 -2.5 -0.226151
      vertex 2.29473 2.5 -0.226151
    endloop
  endfacet
  facet normal -0.612903 0 -0.790158
    outer loop
      vertex 2.11603 -2.5 -0.0875387
      vertex 2.29473 2.5 -0.226151
      vertex 2.29473 -2.5 -0.226151
    endloop
  endfacet
  facet normal -0.612903 0 -0.790158
    outer loop
      vertex 2.29473 2.5 -0.226151
      vertex 2.11603 -2.5 -0.0875387
      vertex 2.11603 2.5 -0.0875387
    endloop
  endfacet
  facet normal 0.707102 0 -0.707111
    outer loop
      vertex -2.46437 -2.5 -0.375712
      vertex -2.62429 2.5 -0.53563
      vertex -2.46437 2.5 -0.375712
    endloop
  endfacet
  facet normal 0.707102 0 -0.707111
    outer loop
      vertex -2.62429 2.5 -0.53563
      vertex -2.46437 -2.5 -0.375712
      vertex -2.62429 -2.5 -0.53563
    endloop
  endfacet
  facet normal 0.860757 0 -0.509017
    outer loop
      vertex -3.03958 -2.5 -1.07102
      vertex -3.1547 2.5 -1.26569
      vertex -3.03958 2.5 -1.07102
    endloop
  endfacet
  facet normal 0.860757 0 -0.509017
    outer loop
      vertex -3.1547 2.5 -1.26569
      vertex -3.03958 -2.5 -1.07102
      vertex -3.1547 -2.5 -1.26569
    endloop
  endfacet
  facet normal 0.91777 0 -0.397114
    outer loop
      vertex -3.25738 -2.5 -1.46719
      vertex -3.34719 2.5 -1.67475
      vertex -3.25738 2.5 -1.46719
    endloop
  endfacet
  facet normal 0.91777 0 -0.397114
    outer loop
      vertex -3.34719 2.5 -1.67475
      vertex -3.25738 -2.5 -1.46719
      vertex -3.34719 -2.5 -1.67475
    endloop
  endfacet
  facet normal 0.612903 0 -0.790158
    outer loop
      vertex -2.29473 -2.5 -0.226151
      vertex -2.11603 2.5 -0.0875387
      vertex -2.11603 -2.5 -0.0875387
    endloop
  endfacet
  facet normal 0.612903 0 -0.790158
    outer loop
      vertex -2.11603 2.5 -0.0875387
      vertex -2.29473 -2.5 -0.226151
      vertex -2.29473 2.5 -0.226151
    endloop
  endfacet
  facet normal 0.454007 0 -0.890998
    outer loop
      vertex -1.73431 -2.5 0.154703
      vertex -1.53281 2.5 0.257377
      vertex -1.53281 -2.5 0.257377
    endloop
  endfacet
  facet normal 0.454007 0 -0.890998
    outer loop
      vertex -1.53281 2.5 0.257377
      vertex -1.73431 -2.5 0.154703
      vertex -1.73431 2.5 0.154703
    endloop
  endfacet
endsolid OpenSCAD_Model
