solid OpenSCAD_Model
  facet normal -1 0 0
    outer loop
      vertex -5 -2.5 -2.5
      vertex -5 2.5 2.5
      vertex -5 2.5 -2.5
    endloop
  endfacet
  facet normal -1 -0 0
    outer loop
      vertex -5 2.5 2.5
      vertex -5 -2.5 -2.5
      vertex -5 -2.5 2.5
    endloop
  endfacet
  facet normal -0 0 1
    outer loop
      vertex -5 2.5 2.5
      vertex 5 -2.5 2.5
      vertex 5 2.5 2.5
    endloop
  endfacet
  facet normal 0 0 1
    outer loop
      vertex 5 -2.5 2.5
      vertex -5 2.5 2.5
      vertex -5 -2.5 2.5
    endloop
  endfacet
  facet normal 1 -0 0
    outer loop
      vertex 5 -2.5 2.5
      vertex 5 2.5 -2.5
      vertex 5 2.5 2.5
    endloop
  endfacet
  facet normal 1 0 0
    outer loop
      vertex 5 2.5 -2.5
      vertex 5 -2.5 2.5
      vertex 5 -2.5 -2.5
    endloop
  endfacet
  facet normal 0 0 -1
    outer loop
      vertex -5 -2.5 -2.5
      vertex -3.67685 2.5 -2.5
      vertex -3.67685 -2.5 -2.5
    endloop
  endfacet
  facet normal -0 0 -1
    outer loop
      vertex -3.67685 2.5 -2.5
      vertex -5 -2.5 -2.5
      vertex -5 2.5 -2.5
    endloop
  endfacet
  facet normal 0 0 -1
    outer loop
      vertex 3.67685 -2.5 -2.5
      vertex 5 2.5 -2.5
      vertex 5 -2.5 -2.5
    endloop
  endfacet
  facet normal -0 0 -1
    outer loop
      vertex 5 2.5 -2.5
      vertex 3.67685 -2.5 -2.5
      vertex 3.67685 2.5 -2.5
    endloop
  endfacet
  facet normal 0 -1 0
    outer loop
      vertex -5 -2.5 2.5
      vertex 0 -2.5 0.799999
      vertex 5 -2.5 2.5
    endloop
  endfacet
  facet normal 0 -1 0
    outer loop
      vertex -5 -2.5 2.5
      vertex -0.232325 -2.5 0.792699
      vertex 0 -2.5 0.799999
    endloop
  endfacet
  facet normal 0 -1 0
    outer loop
      vertex -5 -2.5 2.5
      vertex -0.463733 -2.5 0.770823
      vertex -0.232325 -2.5 0.792699
    endloop
  endfacet
  facet normal 0 -1 0
    outer loop
      vertex -5 -2.5 2.5
      vertex -0.693311 -2.5 0.734463
      vertex -0.463733 -2.5 0.770823
    endloop
  endfacet
  facet normal 0 -1 0
    outer loop
      vertex -5 -2.5 2.5
      vertex -0.920152 -2.5 0.683757
      vertex -0.693311 -2.5 0.734463
    endloop
  endfacet
  facet normal 0 -1 0
    outer loop
      vertex -5 -2.5 2.5
      vertex -1.14336 -2.5 0.618909
      vertex -0.920152 -2.5 0.683757
    endloop
  endfacet
  facet normal 0 -1 0
    outer loop
      vertex -5 -2.5 2.5
      vertex -1.36206 -2.5 0.540173
      vertex -1.14336 -2.5 0.618909
    endloop
  endfacet
  facet normal 0 -1 0
    outer loop
      vertex -5 -2.5 2.5
      vertex -1.57538 -2.5 0.44786
      vertex -1.36206 -2.5 0.540173
    endloop
  endfacet
  facet normal 0 -1 0
    outer loop
      vertex -5 -2.5 2.5
      vertex -1.78249 -2.5 0.342334
      vertex -1.57538 -2.5 0.44786
    endloop
  endfacet
  facet normal 0 -1 0
    outer loop
      vertex -5 -2.5 2.5
      vertex -1.98256 -2.5 0.224012
      vertex -1.78249 -2.5 0.342334
    endloop
  endfacet
  facet normal 0 -1 0
    outer loop
      vertex -5 -2.5 2.5
      vertex -2.1748 -2.5 0.0933628
      vertex -1.98256 -2.5 0.224012
    endloop
  endfacet
  facet normal 0 -1 0
    outer loop
      vertex -5 -2.5 2.5
      vertex -2.35847 -2.5 -0.0491009
      vertex -2.1748 -2.5 0.0933628
    endloop
  endfacet
  facet normal 0 -1 0
    outer loop
      vertex -5 -2.5 2.5
      vertex -2.53282 -2.5 -0.202816
      vertex -2.35847 -2.5 -0.0491009
    endloop
  endfacet
  facet normal 0 -1 0
    outer loop
      vertex -5 -2.5 2.5
      vertex -2.69718 -2.5 -0.367175
      vertex -2.53282 -2.5 -0.202816
    endloop
  endfacet
  facet normal 0 -1 0
    outer loop
      vertex -5 -2.5 2.5
      vertex -2.8509 -2.5 -0.541531
      vertex -2.69718 -2.5 -0.367175
    endloop
  endfacet
  facet normal 0 -1 0
    outer loop
      vertex -5 -2.5 2.5
      vertex -2.99336 -2.5 -0.725194
      vertex -2.8509 -2.5 -0.541531
    endloop
  endfacet
  facet normal 0 -1 0
    outer loop
      vertex -5 -2.5 2.5
      vertex -3.12401 -2.5 -0.91744
      vertex -2.99336 -2.5 -0.725194
    endloop
  endfacet
  facet normal 0 -1 0
    outer loop
      vertex -5 -2.5 2.5
      vertex -3.24233 -2.5 -1.11751
      vertex -3.12401 -2.5 -0.91744
    endloop
  endfacet
  facet normal 0 -1 0
    outer loop
      vertex -5 -2.5 -2.5
      vertex -3.24233 -2.5 -1.11751
      vertex -5 -2.5 2.5
    endloop
  endfacet
  facet normal 0 -1 0
    outer loop
      vertex -3.24233 -2.5 -1.11751
      vertex -5 -2.5 -2.5
      vertex -3.34786 -2.5 -1.32462
    endloop
  endfacet
  facet normal 0 -1 0
    outer loop
      vertex -3.34786 -2.5 -1.32462
      vertex -5 -2.5 -2.5
      vertex -3.44017 -2.5 -1.53794
    endloop
  endfacet
  facet normal 0 -1 0
    outer loop
      vertex -3.44017 -2.5 -1.53794
      vertex -5 -2.5 -2.5
      vertex -3.51891 -2.5 -1.75664
    endloop
  endfacet
  facet normal 0 -1 0
    outer loop
      vertex -3.51891 -2.5 -1.75664
      vertex -5 -2.5 -2.5
      vertex -3.58376 -2.5 -1.97985
    endloop
  endfacet
  facet normal 0 -1 0
    outer loop
      vertex -3.58376 -2.5 -1.97985
      vertex -5 -2.5 -2.5
      vertex -3.63446 -2.5 -2.20669
    endloop
  endfacet
  facet normal 0 -1 0
    outer loop
      vertex -3.63446 -2.5 -2.20669
      vertex -5 -2.5 -2.5
      vertex -3.67082 -2.5 -2.43627
    endloop
  endfacet
  facet normal 0 -1 0
    outer loop
      vertex -3.67082 -2.5 -2.43627
      vertex -5 -2.5 -2.5
      vertex -3.67685 -2.5 -2.5
    endloop
  endfacet
  facet normal 0 -1 0
    outer loop
      vertex 0.232325 -2.5 0.792699
      vertex 5 -2.5 2.5
      vertex 0 -2.5 0.799999
    endloop
  endfacet
  facet normal 0 -1 0
    outer loop
      vertex 0.463733 -2.5 0.770823
      vertex 5 -2.5 2.5
      vertex 0.232325 -2.5 0.792699
    endloop
  endfacet
  facet normal 0 -1 0
    outer loop
      vertex 0.693311 -2.5 0.734463
      vertex 5 -2.5 2.5
      vertex 0.463733 -2.5 0.770823
    endloop
  endfacet
  facet normal 0 -1 0
    outer loop
      vertex 0.920152 -2.5 0.683757
      vertex 5 -2.5 2.5
      vertex 0.693311 -2.5 0.734463
    endloop
  endfacet
  facet normal 0 -1 0
    outer loop
      vertex 1.14336 -2.5 0.618909
      vertex 5 -2.5 2.5
      vertex 0.920152 -2.5 0.683757
    endloop
  endfacet
  facet normal 0 -1 0
    outer loop
      vertex 1.36206 -2.5 0.540173
      vertex 5 -2.5 2.5
      vertex 1.14336 -2.5 0.618909
    endloop
  endfacet
  facet normal 0 -1 0
    outer loop
      vertex 1.57538 -2.5 0.44786
      vertex 5 -2.5 2.5
      vertex 1.36206 -2.5 0.540173
    endloop
  endfacet
  facet normal 0 -1 0
    outer loop
      vertex 1.78249 -2.5 0.342334
      vertex 5 -2.5 2.5
      vertex 1.57538 -2.5 0.44786
    endloop
  endfacet
  facet normal 0 -1 0
    outer loop
      vertex 1.98256 -2.5 0.224012
      vertex 5 -2.5 2.5
      vertex 1.78249 -2.5 0.342334
    endloop
  endfacet
  facet normal 0 -1 0
    outer loop
      vertex 2.1748 -2.5 0.0933628
      vertex 5 -2.5 2.5
      vertex 1.98256 -2.5 0.224012
    endloop
  endfacet
  facet normal 0 -1 0
    outer loop
      vertex 2.35847 -2.5 -0.0491009
      vertex 5 -2.5 2.5
      vertex 2.1748 -2.5 0.0933628
    endloop
  endfacet
  facet normal 0 -1 0
    outer loop
      vertex 2.53282 -2.5 -0.202816
      vertex 5 -2.5 2.5
      vertex 2.35847 -2.5 -0.0491009
    endloop
  endfacet
  facet normal 0 -1 0
    outer loop
      vertex 2.69718 -2.5 -0.367175
      vertex 5 -2.5 2.5
      vertex 2.53282 -2.5 -0.202816
    endloop
  endfacet
  facet normal 0 -1 0
    outer loop
      vertex 2.8509 -2.5 -0.541531
      vertex 5 -2.5 2.5
      vertex 2.69718 -2.5 -0.367175
    endloop
  endfacet
  facet normal 0 -1 0
    outer loop
      vertex 2.99336 -2.5 -0.725194
      vertex 5 -2.5 2.5
      vertex 2.8509 -2.5 -0.541531
    endloop
  endfacet
  facet normal 0 -1 0
    outer loop
      vertex 3.12401 -2.5 -0.91744
      vertex 5 -2.5 2.5
      vertex 2.99336 -2.5 -0.725194
    endloop
  endfacet
  facet normal 0 -1 0
    outer loop
      vertex 3.24233 -2.5 -1.11751
      vertex 5 -2.5 2.5
      vertex 3.12401 -2.5 -0.91744
    endloop
  endfacet
  facet normal 0 -1 0
    outer loop
      vertex 5 -2.5 -2.5
      vertex 3.24233 -2.5 -1.11751
      vertex 3.34786 -2.5 -1.32462
    endloop
  endfacet
  facet normal 0 -1 0
    outer loop
      vertex 5 -2.5 -2.5
      vertex 3.34786 -2.5 -1.32462
      vertex 3.44017 -2.5 -1.53794
    endloop
  endfacet
  facet normal 0 -1 0
    outer loop
      vertex 5 -2.5 -2.5
      vertex 3.44017 -2.5 -1.53794
      vertex 3.51891 -2.5 -1.75664
    endloop
  endfacet
  facet normal 0 -1 0
    outer loop
      vertex 5 -2.5 -2.5
      vertex 3.51891 -2.5 -1.75664
      vertex 3.58376 -2.5 -1.97985
    endloop
  endfacet
  facet normal 0 -1 0
    outer loop
      vertex 5 -2.5 -2.5
      vertex 3.58376 -2.5 -1.97985
      vertex 3.63446 -2.5 -2.20669
    endloop
  endfacet
  facet normal 0 -1 0
    outer loop
      vertex 5 -2.5 -2.5
      vertex 3.63446 -2.5 -2.20669
      vertex 3.67082 -2.5 -2.43627
    endloop
  endfacet
  facet normal 0 -1 0
    outer loop
      vertex 5 -2.5 -2.5
      vertex 3.67082 -2.5 -2.43627
      vertex 3.67685 -2.5 -2.5
    endloop
  endfacet
  facet normal 0 -1 0
    outer loop
      vertex 3.24233 -2.5 -1.11751
      vertex 5 -2.5 -2.5
      vertex 5 -2.5 2.5
    endloop
  endfacet
  facet normal 0 1 0
    outer loop
      vertex 5 2.5 2.5
      vertex 0 2.5 0.799999
      vertex -5 2.5 2.5
    endloop
  endfacet
  facet normal 0 1 0
    outer loop
      vertex 5 2.5 2.5
      vertex 0.232325 2.5 0.792699
      vertex 0 2.5 0.799999
    endloop
  endfacet
  facet normal 0 1 0
    outer loop
      vertex 5 2.5 2.5
      vertex 0.463733 2.5 0.770823
      vertex 0.232325 2.5 0.792699
    endloop
  endfacet
  facet normal 0 1 0
    outer loop
      vertex 5 2.5 2.5
      vertex 0.693311 2.5 0.734463
      vertex 0.463733 2.5 0.770823
    endloop
  endfacet
  facet normal 0 1 0
    outer loop
      vertex 5 2.5 2.5
      vertex 0.920152 2.5 0.683757
      vertex 0.693311 2.5 0.734463
    endloop
  endfacet
  facet normal 0 1 0
    outer loop
      vertex 5 2.5 2.5
      vertex 1.14336 2.5 0.618909
      vertex 0.920152 2.5 0.683757
    endloop
  endfacet
  facet normal 0 1 0
    outer loop
      vertex 5 2.5 2.5
      vertex 1.36206 2.5 0.540173
      vertex 1.14336 2.5 0.618909
    endloop
  endfacet
  facet normal 0 1 0
    outer loop
      vertex 5 2.5 2.5
      vertex 1.57538 2.5 0.44786
      vertex 1.36206 2.5 0.540173
    endloop
  endfacet
  facet normal 0 1 0
    outer loop
      vertex 5 2.5 2.5
      vertex 1.78249 2.5 0.342334
      vertex 1.57538 2.5 0.44786
    endloop
  endfacet
  facet normal 0 1 0
    outer loop
      vertex 5 2.5 2.5
      vertex 1.98256 2.5 0.224012
      vertex 1.78249 2.5 0.342334
    endloop
  endfacet
  facet normal 0 1 0
    outer loop
      vertex 5 2.5 2.5
      vertex 2.1748 2.5 0.0933628
      vertex 1.98256 2.5 0.224012
    endloop
  endfacet
  facet normal 0 1 0
    outer loop
      vertex 5 2.5 2.5
      vertex 2.35847 2.5 -0.0491009
      vertex 2.1748 2.5 0.0933628
    endloop
  endfacet
  facet normal 0 1 0
    outer loop
      vertex 5 2.5 2.5
      vertex 2.53282 2.5 -0.202816
      vertex 2.35847 2.5 -0.0491009
    endloop
  endfacet
  facet normal 0 1 0
    outer loop
      vertex 5 2.5 2.5
      vertex 2.69718 2.5 -0.367175
      vertex 2.53282 2.5 -0.202816
    endloop
  endfacet
  facet normal 0 1 0
    outer loop
      vertex 5 2.5 2.5
      vertex 2.8509 2.5 -0.541531
      vertex 2.69718 2.5 -0.367175
    endloop
  endfacet
  facet normal 0 1 0
    outer loop
      vertex 5 2.5 2.5
      vertex 2.99336 2.5 -0.725194
      vertex 2.8509 2.5 -0.541531
    endloop
  endfacet
  facet normal 0 1 0
    outer loop
      vertex 5 2.5 2.5
      vertex 3.12401 2.5 -0.91744
      vertex 2.99336 2.5 -0.725194
    endloop
  endfacet
  facet normal 0 1 0
    outer loop
      vertex 5 2.5 2.5
      vertex 3.24233 2.5 -1.11751
      vertex 3.12401 2.5 -0.91744
    endloop
  endfacet
  facet normal 0 1 -0
    outer loop
      vertex 5 2.5 -2.5
      vertex 3.24233 2.5 -1.11751
      vertex 5 2.5 2.5
    endloop
  endfacet
  facet normal 0 1 0
    outer loop
      vertex 3.24233 2.5 -1.11751
      vertex 5 2.5 -2.5
      vertex 3.34786 2.5 -1.32462
    endloop
  endfacet
  facet normal 0 1 0
    outer loop
      vertex 3.34786 2.5 -1.32462
      vertex 5 2.5 -2.5
      vertex 3.44017 2.5 -1.53794
    endloop
  endfacet
  facet normal 0 1 0
    outer loop
      vertex 3.44017 2.5 -1.53794
      vertex 5 2.5 -2.5
      vertex 3.51891 2.5 -1.75664
    endloop
  endfacet
  facet normal 0 1 0
    outer loop
      vertex 3.51891 2.5 -1.75664
      vertex 5 2.5 -2.5
      vertex 3.58376 2.5 -1.97985
    endloop
  endfacet
  facet normal 0 1 0
    outer loop
      vertex 3.58376 2.5 -1.97985
      vertex 5 2.5 -2.5
      vertex 3.63446 2.5 -2.20669
    endloop
  endfacet
  facet normal 0 1 0
    outer loop
      vertex 3.63446 2.5 -2.20669
      vertex 5 2.5 -2.5
      vertex 3.67082 2.5 -2.43627
    endloop
  endfacet
  facet normal 0 1 0
    outer loop
      vertex 3.67082 2.5 -2.43627
      vertex 5 2.5 -2.5
      vertex 3.67685 2.5 -2.5
    endloop
  endfacet
  facet normal 0 1 -0
    outer loop
      vertex -0.232325 2.5 0.792699
      vertex -5 2.5 2.5
      vertex 0 2.5 0.799999
    endloop
  endfacet
  facet normal 0 1 -0
    outer loop
      vertex -0.463733 2.5 0.770823
      vertex -5 2.5 2.5
      vertex -0.232325 2.5 0.792699
    endloop
  endfacet
  facet normal 0 1 -0
    outer loop
      vertex -0.693311 2.5 0.734463
      vertex -5 2.5 2.5
      vertex -0.463733 2.5 0.770823
    endloop
  endfacet
  facet normal 0 1 -0
    outer loop
      vertex -0.920152 2.5 0.683757
      vertex -5 2.5 2.5
      vertex -0.693311 2.5 0.734463
    endloop
  endfacet
  facet normal 0 1 -0
    outer loop
      vertex -1.14336 2.5 0.618909
      vertex -5 2.5 2.5
      vertex -0.920152 2.5 0.683757
    endloop
  endfacet
  facet normal 0 1 -0
    outer loop
      vertex -1.36206 2.5 0.540173
      vertex -5 2.5 2.5
      vertex -1.14336 2.5 0.618909
    endloop
  endfacet
  facet normal 0 1 -0
    outer loop
      vertex -1.57538 2.5 0.44786
      vertex -5 2.5 2.5
      vertex -1.36206 2.5 0.540173
    endloop
  endfacet
  facet normal 0 1 -0
    outer loop
      vertex -1.78249 2.5 0.342334
      vertex -5 2.5 2.5
      vertex -1.57538 2.5 0.44786
    endloop
  endfacet
  facet normal 0 1 -0
    outer loop
      vertex -1.98256 2.5 0.224012
      vertex -5 2.5 2.5
      vertex -1.78249 2.5 0.342334
    endloop
  endfacet
  facet normal 0 1 -0
    outer loop
      vertex -2.1748 2.5 0.0933628
      vertex -5 2.5 2.5
      vertex -1.98256 2.5 0.224012
    endloop
  endfacet
  facet normal 0 1 -0
    outer loop
      vertex -2.35847 2.5 -0.0491009
      vertex -5 2.5 2.5
      vertex -2.1748 2.5 0.0933628
    endloop
  endfacet
  facet normal 0 1 -0
    outer loop
      vertex -2.53282 2.5 -0.202816
      vertex -5 2.5 2.5
      vertex -2.35847 2.5 -0.0491009
    endloop
  endfacet
  facet normal 0 1 -0
    outer loop
      vertex -2.69718 2.5 -0.367175
      vertex -5 2.5 2.5
      vertex -2.53282 2.5 -0.202816
    endloop
  endfacet
  facet normal 0 1 -0
    outer loop
      vertex -2.8509 2.5 -0.541531
      vertex -5 2.5 2.5
      vertex -2.69718 2.5 -0.367175
    endloop
  endfacet
  facet normal 0 1 -0
    outer loop
      vertex -2.99336 2.5 -0.725194
      vertex -5 2.5 2.5
      vertex -2.8509 2.5 -0.541531
    endloop
  endfacet
  facet normal 0 1 -0
    outer loop
      vertex -3.12401 2.5 -0.91744
      vertex -5 2.5 2.5
      vertex -2.99336 2.5 -0.725194
    endloop
  endfacet
  facet normal 0 1 -0
    outer loop
      vertex -3.24233 2.5 -1.11751
      vertex -5 2.5 2.5
      vertex -3.12401 2.5 -0.91744
    endloop
  endfacet
  facet normal 0 1 0
    outer loop
      vertex -5 2.5 -2.5
      vertex -3.24233 2.5 -1.11751
      vertex -3.34786 2.5 -1.32462
    endloop
  endfacet
  facet normal 0 1 0
    outer loop
      vertex -5 2.5 -2.5
      vertex -3.34786 2.5 -1.32462
      vertex -3.44017 2.5 -1.53794
    endloop
  endfacet
  facet normal 0 1 0
    outer loop
      vertex -5 2.5 -2.5
      vertex -3.44017 2.5 -1.53794
      vertex -3.51891 2.5 -1.75664
    endloop
  endfacet
  facet normal 0 1 0
    outer loop
      vertex -5 2.5 -2.5
      vertex -3.51891 2.5 -1.75664
      vertex -3.58376 2.5 -1.97985
    endloop
  endfacet
  facet normal 0 1 0
    outer loop
      vertex -5 2.5 -2.5
      vertex -3.58376 2.5 -1.97985
      vertex -3.63446 2.5 -2.20669
    endloop
  endfacet
  facet normal 0 1 0
    outer loop
      vertex -5 2.5 -2.5
      vertex -3.63446 2.5 -2.20669
      vertex -3.67082 2.5 -2.43627
    endloop
  endfacet
  facet normal 0 1 0
    outer loop
      vertex -5 2.5 -2.5
      vertex -3.67082 2.5 -2.43627
      vertex -3.67685 2.5 -2.5
    endloop
  endfacet
  facet normal 0 1 0
    outer loop
      vertex -3.24233 2.5 -1.11751
      vertex -5 2.5 -2.5
      vertex -5 2.5 2.5
    endloop
  endfacet
  facet normal -0.995554 0 -0.0941972
    outer loop
      vertex 3.67685 -2.5 -2.5
      vertex 3.67082 2.5 -2.43627
      vertex 3.67685 2.5 -2.5
    endloop
  endfacet
  facet normal -0.995554 -0 -0.0941972
    outer loop
      vertex 3.67082 2.5 -2.43627
      vertex 3.67685 -2.5 -2.5
      vertex 3.67082 -2.5 -2.43627
    endloop
  endfacet
  facet normal 0.031406 0 -0.999507
    outer loop
      vertex -0.232325 -2.5 0.792699
      vertex 0 2.5 0.799999
      vertex 0 -2.5 0.799999
    endloop
  endfacet
  facet normal 0.031406 0 -0.999507
    outer loop
      vertex 0 2.5 0.799999
      vertex -0.232325 -2.5 0.792699
      vertex -0.232325 2.5 0.792699
    endloop
  endfacet
  facet normal -0.661324 0 -0.750101
    outer loop
      vertex 2.35847 -2.5 -0.0491009
      vertex 2.53282 2.5 -0.202816
      vertex 2.53282 -2.5 -0.202816
    endloop
  endfacet
  facet normal -0.661324 0 -0.750101
    outer loop
      vertex 2.53282 2.5 -0.202816
      vertex 2.35847 -2.5 -0.0491009
      vertex 2.35847 2.5 -0.0491009
    endloop
  endfacet
  facet normal 0.707105 0 -0.707109
    outer loop
      vertex -2.69718 -2.5 -0.367175
      vertex -2.53282 2.5 -0.202816
      vertex -2.53282 -2.5 -0.202816
    endloop
  endfacet
  facet normal 0.707105 0 -0.707109
    outer loop
      vertex -2.53282 2.5 -0.202816
      vertex -2.69718 -2.5 -0.367175
      vertex -2.69718 2.5 -0.367175
    endloop
  endfacet
  facet normal -0.891003 0 -0.453998
    outer loop
      vertex 3.34786 -2.5 -1.32462
      vertex 3.24233 2.5 -1.11751
      vertex 3.34786 2.5 -1.32462
    endloop
  endfacet
  facet normal -0.891003 -0 -0.453998
    outer loop
      vertex 3.24233 2.5 -1.11751
      vertex 3.34786 -2.5 -1.32462
      vertex 3.24233 -2.5 -1.11751
    endloop
  endfacet
  facet normal 0.218147 0 -0.975916
    outer loop
      vertex -0.920152 -2.5 0.683757
      vertex -0.693311 2.5 0.734463
      vertex -0.693311 -2.5 0.734463
    endloop
  endfacet
  facet normal 0.218147 0 -0.975916
    outer loop
      vertex -0.693311 2.5 0.734463
      vertex -0.920152 -2.5 0.683757
      vertex -0.920152 2.5 0.683757
    endloop
  endfacet
  facet normal -0.860744 0 -0.509038
    outer loop
      vertex 3.24233 -2.5 -1.11751
      vertex 3.12401 2.5 -0.91744
      vertex 3.24233 2.5 -1.11751
    endloop
  endfacet
  facet normal -0.860744 -0 -0.509038
    outer loop
      vertex 3.12401 2.5 -0.91744
      vertex 3.24233 -2.5 -1.11751
      vertex 3.12401 -2.5 -0.91744
    endloop
  endfacet
  facet normal -0.156428 0 -0.987689
    outer loop
      vertex 0.463733 -2.5 0.770823
      vertex 0.693311 2.5 0.734463
      vertex 0.693311 -2.5 0.734463
    endloop
  endfacet
  facet normal -0.156428 0 -0.987689
    outer loop
      vertex 0.693311 2.5 0.734463
      vertex 0.463733 -2.5 0.770823
      vertex 0.463733 2.5 0.770823
    endloop
  endfacet
  facet normal -0.612893 0 -0.790166
    outer loop
      vertex 2.1748 -2.5 0.0933628
      vertex 2.35847 2.5 -0.0491009
      vertex 2.35847 -2.5 -0.0491009
    endloop
  endfacet
  facet normal -0.612893 0 -0.790166
    outer loop
      vertex 2.35847 2.5 -0.0491009
      vertex 2.1748 -2.5 0.0933628
      vertex 2.1748 2.5 0.0933628
    endloop
  endfacet
  facet normal 0.975921 0 -0.218124
    outer loop
      vertex -3.58376 -2.5 -1.97985
      vertex -3.63446 2.5 -2.20669
      vertex -3.58376 2.5 -1.97985
    endloop
  endfacet
  facet normal 0.975921 0 -0.218124
    outer loop
      vertex -3.63446 2.5 -2.20669
      vertex -3.58376 -2.5 -1.97985
      vertex -3.63446 -2.5 -2.20669
    endloop
  endfacet
  facet normal 0.827081 0 -0.562083
    outer loop
      vertex -2.99336 -2.5 -0.725194
      vertex -3.12401 2.5 -0.91744
      vertex -2.99336 2.5 -0.725194
    endloop
  endfacet
  facet normal 0.827081 0 -0.562083
    outer loop
      vertex -3.12401 2.5 -0.91744
      vertex -2.99336 -2.5 -0.725194
      vertex -3.12401 -2.5 -0.91744
    endloop
  endfacet
  facet normal 0.860744 0 -0.509038
    outer loop
      vertex -3.12401 -2.5 -0.91744
      vertex -3.24233 2.5 -1.11751
      vertex -3.12401 2.5 -0.91744
    endloop
  endfacet
  facet normal 0.860744 0 -0.509038
    outer loop
      vertex -3.24233 2.5 -1.11751
      vertex -3.12401 -2.5 -0.91744
      vertex -3.24233 -2.5 -1.11751
    endloop
  endfacet
  facet normal 0.562092 0 -0.827075
    outer loop
      vertex -2.1748 -2.5 0.0933628
      vertex -1.98256 2.5 0.224012
      vertex -1.98256 -2.5 0.224012
    endloop
  endfacet
  facet normal 0.562092 0 -0.827075
    outer loop
      vertex -1.98256 2.5 0.224012
      vertex -2.1748 -2.5 0.0933628
      vertex -2.1748 2.5 0.0933628
    endloop
  endfacet
  facet normal 0.156428 0 -0.987689
    outer loop
      vertex -0.693311 -2.5 0.734463
      vertex -0.463733 2.5 0.770823
      vertex -0.463733 -2.5 0.770823
    endloop
  endfacet
  facet normal 0.156428 0 -0.987689
    outer loop
      vertex -0.463733 2.5 0.770823
      vertex -0.693311 -2.5 0.734463
      vertex -0.693311 2.5 0.734463
    endloop
  endfacet
  facet normal -0.975921 0 -0.218124
    outer loop
      vertex 3.63446 -2.5 -2.20669
      vertex 3.58376 2.5 -1.97985
      vertex 3.63446 2.5 -2.20669
    endloop
  endfacet
  facet normal -0.975921 -0 -0.218124
    outer loop
      vertex 3.58376 2.5 -1.97985
      vertex 3.63446 -2.5 -2.20669
      vertex 3.58376 -2.5 -1.97985
    endloop
  endfacet
  facet normal -0.940876 0 -0.33875
    outer loop
      vertex 3.51891 -2.5 -1.75664
      vertex 3.44017 2.5 -1.53794
      vertex 3.51891 2.5 -1.75664
    endloop
  endfacet
  facet normal -0.940876 -0 -0.33875
    outer loop
      vertex 3.44017 2.5 -1.53794
      vertex 3.51891 -2.5 -1.75664
      vertex 3.44017 -2.5 -1.53794
    endloop
  endfacet
  facet normal -0.960292 0 -0.278997
    outer loop
      vertex 3.58376 -2.5 -1.97985
      vertex 3.51891 2.5 -1.75664
      vertex 3.58376 2.5 -1.97985
    endloop
  endfacet
  facet normal -0.960292 -0 -0.278997
    outer loop
      vertex 3.51891 2.5 -1.75664
      vertex 3.58376 -2.5 -1.97985
      vertex 3.51891 -2.5 -1.75664
    endloop
  endfacet
  facet normal -0.750101 0 -0.661323
    outer loop
      vertex 2.8509 -2.5 -0.541531
      vertex 2.69718 2.5 -0.367175
      vertex 2.8509 2.5 -0.541531
    endloop
  endfacet
  facet normal -0.750101 -0 -0.661323
    outer loop
      vertex 2.69718 2.5 -0.367175
      vertex 2.8509 -2.5 -0.541531
      vertex 2.69718 -2.5 -0.367175
    endloop
  endfacet
  facet normal -0.0941147 0 -0.995561
    outer loop
      vertex 0.232325 -2.5 0.792699
      vertex 0.463733 2.5 0.770823
      vertex 0.463733 -2.5 0.770823
    endloop
  endfacet
  facet normal -0.0941147 0 -0.995561
    outer loop
      vertex 0.463733 2.5 0.770823
      vertex 0.232325 -2.5 0.792699
      vertex 0.232325 2.5 0.792699
    endloop
  endfacet
  facet normal -0.218147 0 -0.975916
    outer loop
      vertex 0.693311 -2.5 0.734463
      vertex 0.920152 2.5 0.683757
      vertex 0.920152 -2.5 0.683757
    endloop
  endfacet
  facet normal -0.218147 0 -0.975916
    outer loop
      vertex 0.920152 2.5 0.683757
      vertex 0.693311 -2.5 0.734463
      vertex 0.693311 2.5 0.734463
    endloop
  endfacet
  facet normal -0.338735 0 -0.940882
    outer loop
      vertex 1.14336 -2.5 0.618909
      vertex 1.36206 2.5 0.540173
      vertex 1.36206 -2.5 0.540173
    endloop
  endfacet
  facet normal -0.338735 0 -0.940882
    outer loop
      vertex 1.36206 2.5 0.540173
      vertex 1.14336 -2.5 0.618909
      vertex 1.14336 2.5 0.618909
    endloop
  endfacet
  facet normal -0.453984 0 -0.89101
    outer loop
      vertex 1.57538 -2.5 0.44786
      vertex 1.78249 2.5 0.342334
      vertex 1.78249 -2.5 0.342334
    endloop
  endfacet
  facet normal -0.453984 0 -0.89101
    outer loop
      vertex 1.78249 2.5 0.342334
      vertex 1.57538 -2.5 0.44786
      vertex 1.57538 2.5 0.44786
    endloop
  endfacet
  facet normal 0.98769 0 -0.156426
    outer loop
      vertex -3.63446 -2.5 -2.20669
      vertex -3.67082 2.5 -2.43627
      vertex -3.63446 2.5 -2.20669
    endloop
  endfacet
  facet normal 0.98769 0 -0.156426
    outer loop
      vertex -3.67082 2.5 -2.43627
      vertex -3.63446 -2.5 -2.20669
      vertex -3.67082 -2.5 -2.43627
    endloop
  endfacet
  facet normal 0.917757 0 -0.397141
    outer loop
      vertex -3.34786 -2.5 -1.32462
      vertex -3.44017 2.5 -1.53794
      vertex -3.34786 2.5 -1.32462
    endloop
  endfacet
  facet normal 0.917757 0 -0.397141
    outer loop
      vertex -3.44017 2.5 -1.53794
      vertex -3.34786 -2.5 -1.32462
      vertex -3.44017 -2.5 -1.53794
    endloop
  endfacet
  facet normal 0.960292 0 -0.278997
    outer loop
      vertex -3.51891 -2.5 -1.75664
      vertex -3.58376 2.5 -1.97985
      vertex -3.51891 2.5 -1.75664
    endloop
  endfacet
  facet normal 0.960292 0 -0.278997
    outer loop
      vertex -3.58376 2.5 -1.97985
      vertex -3.51891 -2.5 -1.75664
      vertex -3.58376 -2.5 -1.97985
    endloop
  endfacet
  facet normal 0.612893 0 -0.790166
    outer loop
      vertex -2.35847 -2.5 -0.0491009
      vertex -2.1748 2.5 0.0933628
      vertex -2.1748 -2.5 0.0933628
    endloop
  endfacet
  facet normal 0.612893 0 -0.790166
    outer loop
      vertex -2.1748 2.5 0.0933628
      vertex -2.35847 -2.5 -0.0491009
      vertex -2.35847 2.5 -0.0491009
    endloop
  endfacet
  facet normal 0.453984 0 -0.89101
    outer loop
      vertex -1.78249 -2.5 0.342334
      vertex -1.57538 2.5 0.44786
      vertex -1.57538 -2.5 0.44786
    endloop
  endfacet
  facet normal 0.453984 0 -0.89101
    outer loop
      vertex -1.57538 2.5 0.44786
      vertex -1.78249 -2.5 0.342334
      vertex -1.78249 2.5 0.342334
    endloop
  endfacet
  facet normal 0.397152 0 -0.917753
    outer loop
      vertex -1.57538 -2.5 0.44786
      vertex -1.36206 2.5 0.540173
      vertex -1.36206 -2.5 0.540173
    endloop
  endfacet
  facet normal 0.397152 0 -0.917753
    outer loop
      vertex -1.36206 2.5 0.540173
      vertex -1.57538 -2.5 0.44786
      vertex -1.57538 2.5 0.44786
    endloop
  endfacet
  facet normal 0.278991 0 -0.960294
    outer loop
      vertex -1.14336 -2.5 0.618909
      vertex -0.920152 2.5 0.683757
      vertex -0.920152 -2.5 0.683757
    endloop
  endfacet
  facet normal 0.278991 0 -0.960294
    outer loop
      vertex -0.920152 2.5 0.683757
      vertex -1.14336 -2.5 0.618909
      vertex -1.14336 2.5 0.618909
    endloop
  endfacet
  facet normal 0.0941147 0 -0.995561
    outer loop
      vertex -0.463733 -2.5 0.770823
      vertex -0.232325 2.5 0.792699
      vertex -0.232325 -2.5 0.792699
    endloop
  endfacet
  facet normal 0.0941147 0 -0.995561
    outer loop
      vertex -0.232325 2.5 0.792699
      vertex -0.463733 -2.5 0.770823
      vertex -0.463733 2.5 0.770823
    endloop
  endfacet
  facet normal -0.98769 0 -0.156426
    outer loop
      vertex 3.67082 -2.5 -2.43627
      vertex 3.63446 2.5 -2.20669
      vertex 3.67082 2.5 -2.43627
    endloop
  endfacet
  facet normal -0.98769 -0 -0.156426
    outer loop
      vertex 3.63446 2.5 -2.20669
      vertex 3.67082 -2.5 -2.43627
      vertex 3.63446 -2.5 -2.20669
    endloop
  endfacet
  facet normal -0.917757 0 -0.397141
    outer loop
      vertex 3.44017 -2.5 -1.53794
      vertex 3.34786 2.5 -1.32462
      vertex 3.44017 2.5 -1.53794
    endloop
  endfacet
  facet normal -0.917757 -0 -0.397141
    outer loop
      vertex 3.34786 2.5 -1.32462
      vertex 3.44017 -2.5 -1.53794
      vertex 3.34786 -2.5 -1.32462
    endloop
  endfacet
  facet normal -0.707105 0 -0.707109
    outer loop
      vertex 2.53282 -2.5 -0.202816
      vertex 2.69718 2.5 -0.367175
      vertex 2.69718 -2.5 -0.367175
    endloop
  endfacet
  facet normal -0.707105 0 -0.707109
    outer loop
      vertex 2.69718 2.5 -0.367175
      vertex 2.53282 -2.5 -0.202816
      vertex 2.53282 2.5 -0.202816
    endloop
  endfacet
  facet normal -0.827081 0 -0.562083
    outer loop
      vertex 3.12401 -2.5 -0.91744
      vertex 2.99336 2.5 -0.725194
      vertex 3.12401 2.5 -0.91744
    endloop
  endfacet
  facet normal -0.827081 -0 -0.562083
    outer loop
      vertex 2.99336 2.5 -0.725194
      vertex 3.12401 -2.5 -0.91744
      vertex 2.99336 -2.5 -0.725194
    endloop
  endfacet
  facet normal -0.790163 0 -0.612897
    outer loop
      vertex 2.99336 -2.5 -0.725194
      vertex 2.8509 2.5 -0.541531
      vertex 2.99336 2.5 -0.725194
    endloop
  endfacet
  facet normal -0.790163 -0 -0.612897
    outer loop
      vertex 2.8509 2.5 -0.541531
      vertex 2.99336 -2.5 -0.725194
      vertex 2.8509 -2.5 -0.541531
    endloop
  endfacet
  facet normal -0.278991 0 -0.960294
    outer loop
      vertex 0.920152 -2.5 0.683757
      vertex 1.14336 2.5 0.618909
      vertex 1.14336 -2.5 0.618909
    endloop
  endfacet
  facet normal -0.278991 0 -0.960294
    outer loop
      vertex 1.14336 2.5 0.618909
      vertex 0.920152 -2.5 0.683757
      vertex 0.920152 2.5 0.683757
    endloop
  endfacet
  facet normal -0.031406 0 -0.999507
    outer loop
      vertex 0 -2.5 0.799999
      vertex 0.232325 2.5 0.792699
      vertex 0.232325 -2.5 0.792699
    endloop
  endfacet
  facet normal -0.031406 0 -0.999507
    outer loop
      vertex 0.232325 2.5 0.792699
      vertex 0 -2.5 0.799999
      vertex 0 2.5 0.799999
    endloop
  endfacet
  facet normal -0.397152 0 -0.917753
    outer loop
      vertex 1.36206 -2.5 0.540173
      vertex 1.57538 2.5 0.44786
      vertex 1.57538 -2.5 0.44786
    endloop
  endfacet
  facet normal -0.397152 0 -0.917753
    outer loop
      vertex 1.57538 2.5 0.44786
      vertex 1.36206 -2.5 0.540173
      vertex 1.36206 2.5 0.540173
    endloop
  endfacet
  facet normal -0.562092 0 -0.827075
    outer loop
      vertex 1.98256 -2.5 0.224012
      vertex 2.1748 2.5 0.0933628
      vertex 2.1748 -2.5 0.0933628
    endloop
  endfacet
  facet normal -0.562092 0 -0.827075
    outer loop
      vertex 2.1748 2.5 0.0933628
      vertex 1.98256 -2.5 0.224012
      vertex 1.98256 2.5 0.224012
    endloop
  endfacet
  facet normal -0.509044 0 -0.86074
    outer loop
      vertex 1.78249 -2.5 0.342334
      vertex 1.98256 2.5 0.224012
      vertex 1.98256 -2.5 0.224012
    endloop
  endfacet
  facet normal -0.509044 0 -0.86074
    outer loop
      vertex 1.98256 2.5 0.224012
      vertex 1.78249 -2.5 0.342334
      vertex 1.78249 2.5 0.342334
    endloop
  endfacet
  facet normal 0.790163 0 -0.612897
    outer loop
      vertex -2.8509 -2.5 -0.541531
      vertex -2.99336 2.5 -0.725194
      vertex -2.8509 2.5 -0.541531
    endloop
  endfacet
  facet normal 0.790163 0 -0.612897
    outer loop
      vertex -2.99336 2.5 -0.725194
      vertex -2.8509 -2.5 -0.541531
      vertex -2.99336 -2.5 -0.725194
    endloop
  endfacet
  facet normal 0.750101 0 -0.661323
    outer loop
      vertex -2.69718 -2.5 -0.367175
      vertex -2.8509 2.5 -0.541531
      vertex -2.69718 2.5 -0.367175
    endloop
  endfacet
  facet normal 0.750101 0 -0.661323
    outer loop
      vertex -2.8509 2.5 -0.541531
      vertex -2.69718 -2.5 -0.367175
      vertex -2.8509 -2.5 -0.541531
    endloop
  endfacet
  facet normal 0.891003 0 -0.453998
    outer loop
      vertex -3.24233 -2.5 -1.11751
      vertex -3.34786 2.5 -1.32462
      vertex -3.24233 2.5 -1.11751
    endloop
  endfacet
  facet normal 0.891003 0 -0.453998
    outer loop
      vertex -3.34786 2.5 -1.32462
      vertex -3.24233 -2.5 -1.11751
      vertex -3.34786 -2.5 -1.32462
    endloop
  endfacet
  facet normal 0.940876 0 -0.33875
    outer loop
      vertex -3.44017 -2.5 -1.53794
      vertex -3.51891 2.5 -1.75664
      vertex -3.44017 2.5 -1.53794
    endloop
  endfacet
  facet normal 0.940876 0 -0.33875
    outer loop
      vertex -3.51891 2.5 -1.75664
      vertex -3.44017 -2.5 -1.53794
      vertex -3.51891 -2.5 -1.75664
    endloop
  endfacet
  facet normal 0.995554 0 -0.0941972
    outer loop
      vertex -3.67082 -2.5 -2.43627
      vertex -3.67685 2.5 -2.5
      vertex -3.67082 2.5 -2.43627
    endloop
  endfacet
  facet normal 0.995554 0 -0.0941972
    outer loop
      vertex -3.67685 2.5 -2.5
      vertex -3.67082 -2.5 -2.43627
      vertex -3.67685 -2.5 -2.5
    endloop
  endfacet
  facet normal 0.661324 0 -0.750101
    outer loop
      vertex -2.53282 -2.5 -0.202816
      vertex -2.35847 2.5 -0.0491009
      vertex -2.35847 -2.5 -0.0491009
    endloop
  endfacet
  facet normal 0.661324 0 -0.750101
    outer loop
      vertex -2.35847 2.5 -0.0491009
      vertex -2.53282 -2.5 -0.202816
      vertex -2.53282 2.5 -0.202816
    endloop
  endfacet
  facet normal 0.509044 0 -0.86074
    outer loop
      vertex -1.98256 -2.5 0.224012
      vertex -1.78249 2.5 0.342334
      vertex -1.78249 -2.5 0.342334
    endloop
  endfacet
  facet normal 0.509044 0 -0.86074
    outer loop
      vertex -1.78249 2.5 0.342334
      vertex -1.98256 -2.5 0.224012
      vertex -1.98256 2.5 0.224012
    endloop
  endfacet
  facet normal 0.338735 0 -0.940882
    outer loop
      vertex -1.36206 -2.5 0.540173
      vertex -1.14336 2.5 0.618909
      vertex -1.14336 -2.5 0.618909
    endloop
  endfacet
  facet normal 0.338735 0 -0.940882
    outer loop
      vertex -1.14336 2.5 0.618909
      vertex -1.36206 -2.5 0.540173
      vertex -1.36206 2.5 0.540173
    endloop
  endfacet
endsolid OpenSCAD_Model
