solid OpenSCAD_Model
  facet normal -1 0 0
    outer loop
      vertex -5 -2.5 -2.5
      vertex -5 2.5 2.5
      vertex -5 2.5 -2.5
    endloop
  endfacet
  facet normal -1 -0 0
    outer loop
      vertex -5 2.5 2.5
      vertex -5 -2.5 -2.5
      vertex -5 -2.5 2.5
    endloop
  endfacet
  facet normal -0 0 1
    outer loop
      vertex -5 2.5 2.5
      vertex 5 -2.5 2.5
      vertex 5 2.5 2.5
    endloop
  endfacet
  facet normal 0 0 1
    outer loop
      vertex 5 -2.5 2.5
      vertex -5 2.5 2.5
      vertex -5 -2.5 2.5
    endloop
  endfacet
  facet normal 1 -0 0
    outer loop
      vertex 5 -2.5 2.5
      vertex 5 2.5 -2.5
      vertex 5 2.5 2.5
    endloop
  endfacet
  facet normal 1 0 0
    outer loop
      vertex 5 2.5 -2.5
      vertex 5 -2.5 2.5
      vertex 5 -2.5 -2.5
    endloop
  endfacet
  facet normal 0 1 0
    outer loop
      vertex 5 2.5 2.5
      vertex 0 2.5 0.799999
      vertex -5 2.5 2.5
    endloop
  endfacet
  facet normal 0 1 0
    outer loop
      vertex 5 2.5 2.5
      vertex 0.19465 2.5 0.793882
      vertex 0 2.5 0.799999
    endloop
  endfacet
  facet normal 0 1 0
    outer loop
      vertex 5 2.5 2.5
      vertex 0.388533 2.5 0.775555
      vertex 0.19465 2.5 0.793882
    endloop
  endfacet
  facet normal 0 1 0
    outer loop
      vertex 5 2.5 2.5
      vertex 0.580882 2.5 0.74509
      vertex 0.388533 2.5 0.775555
    endloop
  endfacet
  facet normal 0 1 0
    outer loop
      vertex 5 2.5 2.5
      vertex 0.770938 2.5 0.702607
      vertex 0.580882 2.5 0.74509
    endloop
  endfacet
  facet normal 0 1 0
    outer loop
      vertex 5 2.5 2.5
      vertex 0.957952 2.5 0.648274
      vertex 0.770938 2.5 0.702607
    endloop
  endfacet
  facet normal 0 1 0
    outer loop
      vertex 5 2.5 2.5
      vertex 1.14119 2.5 0.582307
      vertex 0.957952 2.5 0.648274
    endloop
  endfacet
  facet normal 0 1 0
    outer loop
      vertex 5 2.5 2.5
      vertex 1.31992 2.5 0.504963
      vertex 1.14119 2.5 0.582307
    endloop
  endfacet
  facet normal 0 1 0
    outer loop
      vertex 5 2.5 2.5
      vertex 1.49344 2.5 0.416551
      vertex 1.31992 2.5 0.504963
    endloop
  endfacet
  facet normal 0 1 0
    outer loop
      vertex 5 2.5 2.5
      vertex 1.66106 2.5 0.317416
      vertex 1.49344 2.5 0.416551
    endloop
  endfacet
  facet normal 0 1 0
    outer loop
      vertex 5 2.5 2.5
      vertex 1.82213 2.5 0.207952
      vertex 1.66106 2.5 0.317416
    endloop
  endfacet
  facet normal 0 1 0
    outer loop
      vertex 5 2.5 2.5
      vertex 1.97601 2.5 0.0885906
      vertex 1.82213 2.5 0.207952
    endloop
  endfacet
  facet normal 0 1 0
    outer loop
      vertex 5 2.5 2.5
      vertex 2.1221 2.5 -0.0401964
      vertex 1.97601 2.5 0.0885906
    endloop
  endfacet
  facet normal 0 1 0
    outer loop
      vertex 5 2.5 2.5
      vertex 2.2598 2.5 -0.177903
      vertex 2.1221 2.5 -0.0401964
    endloop
  endfacet
  facet normal 0 1 0
    outer loop
      vertex 5 2.5 2.5
      vertex 2.38859 2.5 -0.323985
      vertex 2.2598 2.5 -0.177903
    endloop
  endfacet
  facet normal 0 1 0
    outer loop
      vertex 5 2.5 2.5
      vertex 2.50795 2.5 -0.477865
      vertex 2.38859 2.5 -0.323985
    endloop
  endfacet
  facet normal 0 1 0
    outer loop
      vertex 5 2.5 2.5
      vertex 2.61742 2.5 -0.638936
      vertex 2.50795 2.5 -0.477865
    endloop
  endfacet
  facet normal 0 1 0
    outer loop
      vertex 5 2.5 2.5
      vertex 2.71655 2.5 -0.806563
      vertex 2.61742 2.5 -0.638936
    endloop
  endfacet
  facet normal 0 1 0
    outer loop
      vertex 5 2.5 2.5
      vertex 2.80496 2.5 -0.980083
      vertex 2.71655 2.5 -0.806563
    endloop
  endfacet
  facet normal 0 1 -0
    outer loop
      vertex 5 2.5 -2.5
      vertex 2.80496 2.5 -0.980083
      vertex 5 2.5 2.5
    endloop
  endfacet
  facet normal 0 1 0
    outer loop
      vertex 2.80496 2.5 -0.980083
      vertex 5 2.5 -2.5
      vertex 2.88231 2.5 -1.15881
    endloop
  endfacet
  facet normal 0 1 0
    outer loop
      vertex 2.88231 2.5 -1.15881
      vertex 5 2.5 -2.5
      vertex 2.94827 2.5 -1.34205
    endloop
  endfacet
  facet normal 0 1 0
    outer loop
      vertex 2.94827 2.5 -1.34205
      vertex 5 2.5 -2.5
      vertex 3.00261 2.5 -1.52906
    endloop
  endfacet
  facet normal 0 1 0
    outer loop
      vertex 3.00261 2.5 -1.52906
      vertex 5 2.5 -2.5
      vertex 3.04509 2.5 -1.71912
    endloop
  endfacet
  facet normal 0 1 0
    outer loop
      vertex 3.04509 2.5 -1.71912
      vertex 5 2.5 -2.5
      vertex 3.07555 2.5 -1.91147
    endloop
  endfacet
  facet normal 0 1 0
    outer loop
      vertex 3.07555 2.5 -1.91147
      vertex 5 2.5 -2.5
      vertex 3.09388 2.5 -2.10535
    endloop
  endfacet
  facet normal 0 1 0
    outer loop
      vertex 3.09388 2.5 -2.10535
      vertex 5 2.5 -2.5
      vertex 3.1 2.5 -2.3
    endloop
  endfacet
  facet normal 0 1 0
    outer loop
      vertex 3.1 2.5 -2.3
      vertex 5 2.5 -2.5
      vertex 3.09388 2.5 -2.49465
    endloop
  endfacet
  facet normal 0 1 0
    outer loop
      vertex 3.09388 2.5 -2.49465
      vertex 5 2.5 -2.5
      vertex 3.09338 2.5 -2.5
    endloop
  endfacet
  facet normal 0 1 -0
    outer loop
      vertex -0.19465 2.5 0.793882
      vertex -5 2.5 2.5
      vertex 0 2.5 0.799999
    endloop
  endfacet
  facet normal 0 1 -0
    outer loop
      vertex -0.388533 2.5 0.775555
      vertex -5 2.5 2.5
      vertex -0.19465 2.5 0.793882
    endloop
  endfacet
  facet normal 0 1 -0
    outer loop
      vertex -0.580882 2.5 0.74509
      vertex -5 2.5 2.5
      vertex -0.388533 2.5 0.775555
    endloop
  endfacet
  facet normal 0 1 -0
    outer loop
      vertex -0.770938 2.5 0.702607
      vertex -5 2.5 2.5
      vertex -0.580882 2.5 0.74509
    endloop
  endfacet
  facet normal 0 1 -0
    outer loop
      vertex -0.957952 2.5 0.648274
      vertex -5 2.5 2.5
      vertex -0.770938 2.5 0.702607
    endloop
  endfacet
  facet normal 0 1 -0
    outer loop
      vertex -1.14119 2.5 0.582307
      vertex -5 2.5 2.5
      vertex -0.957952 2.5 0.648274
    endloop
  endfacet
  facet normal 0 1 -0
    outer loop
      vertex -1.31992 2.5 0.504963
      vertex -5 2.5 2.5
      vertex -1.14119 2.5 0.582307
    endloop
  endfacet
  facet normal 0 1 -0
    outer loop
      vertex -1.49344 2.5 0.416551
      vertex -5 2.5 2.5
      vertex -1.31992 2.5 0.504963
    endloop
  endfacet
  facet normal 0 1 -0
    outer loop
      vertex -1.66106 2.5 0.317416
      vertex -5 2.5 2.5
      vertex -1.49344 2.5 0.416551
    endloop
  endfacet
  facet normal 0 1 -0
    outer loop
      vertex -1.82213 2.5 0.207952
      vertex -5 2.5 2.5
      vertex -1.66106 2.5 0.317416
    endloop
  endfacet
  facet normal 0 1 -0
    outer loop
      vertex -1.97601 2.5 0.0885906
      vertex -5 2.5 2.5
      vertex -1.82213 2.5 0.207952
    endloop
  endfacet
  facet normal 0 1 -0
    outer loop
      vertex -2.1221 2.5 -0.0401964
      vertex -5 2.5 2.5
      vertex -1.97601 2.5 0.0885906
    endloop
  endfacet
  facet normal 0 1 -0
    outer loop
      vertex -2.2598 2.5 -0.177903
      vertex -5 2.5 2.5
      vertex -2.1221 2.5 -0.0401964
    endloop
  endfacet
  facet normal 0 1 -0
    outer loop
      vertex -2.38859 2.5 -0.323985
      vertex -5 2.5 2.5
      vertex -2.2598 2.5 -0.177903
    endloop
  endfacet
  facet normal 0 1 -0
    outer loop
      vertex -2.50795 2.5 -0.477865
      vertex -5 2.5 2.5
      vertex -2.38859 2.5 -0.323985
    endloop
  endfacet
  facet normal 0 1 -0
    outer loop
      vertex -2.61742 2.5 -0.638936
      vertex -5 2.5 2.5
      vertex -2.50795 2.5 -0.477865
    endloop
  endfacet
  facet normal 0 1 -0
    outer loop
      vertex -2.71655 2.5 -0.806563
      vertex -5 2.5 2.5
      vertex -2.61742 2.5 -0.638936
    endloop
  endfacet
  facet normal 0 1 -0
    outer loop
      vertex -2.80496 2.5 -0.980083
      vertex -5 2.5 2.5
      vertex -2.71655 2.5 -0.806563
    endloop
  endfacet
  facet normal 0 1 0
    outer loop
      vertex -5 2.5 -2.5
      vertex -2.80496 2.5 -0.980083
      vertex -2.88231 2.5 -1.15881
    endloop
  endfacet
  facet normal 0 1 0
    outer loop
      vertex -5 2.5 -2.5
      vertex -2.88231 2.5 -1.15881
      vertex -2.94827 2.5 -1.34205
    endloop
  endfacet
  facet normal 0 1 0
    outer loop
      vertex -5 2.5 -2.5
      vertex -2.94827 2.5 -1.34205
      vertex -3.00261 2.5 -1.52906
    endloop
  endfacet
  facet normal 0 1 0
    outer loop
      vertex -5 2.5 -2.5
      vertex -3.00261 2.5 -1.52906
      vertex -3.04509 2.5 -1.71912
    endloop
  endfacet
  facet normal 0 1 0
    outer loop
      vertex -5 2.5 -2.5
      vertex -3.04509 2.5 -1.71912
      vertex -3.07555 2.5 -1.91147
    endloop
  endfacet
  facet normal 0 1 0
    outer loop
      vertex -5 2.5 -2.5
      vertex -3.07555 2.5 -1.91147
      vertex -3.09388 2.5 -2.10535
    endloop
  endfacet
  facet normal 0 1 0
    outer loop
      vertex -5 2.5 -2.5
      vertex -3.09388 2.5 -2.10535
      vertex -3.1 2.5 -2.3
    endloop
  endfacet
  facet normal 0 1 0
    outer loop
      vertex -5 2.5 -2.5
      vertex -3.1 2.5 -2.3
      vertex -3.09388 2.5 -2.49465
    endloop
  endfacet
  facet normal 0 1 0
    outer loop
      vertex -5 2.5 -2.5
      vertex -3.09388 2.5 -2.49465
      vertex -3.09338 2.5 -2.5
    endloop
  endfacet
  facet normal 0 1 0
    outer loop
      vertex -2.80496 2.5 -0.980083
      vertex -5 2.5 -2.5
      vertex -5 2.5 2.5
    endloop
  endfacet
  facet normal 0 0 -1
    outer loop
      vertex -5 -2.5 -2.5
      vertex -3.09338 2.5 -2.5
      vertex -3.09338 -2.5 -2.5
    endloop
  endfacet
  facet normal -0 0 -1
    outer loop
      vertex -3.09338 2.5 -2.5
      vertex -5 -2.5 -2.5
      vertex -5 2.5 -2.5
    endloop
  endfacet
  facet normal 0 0 -1
    outer loop
      vertex 3.09338 -2.5 -2.5
      vertex 5 2.5 -2.5
      vertex 5 -2.5 -2.5
    endloop
  endfacet
  facet normal -0 0 -1
    outer loop
      vertex 5 2.5 -2.5
      vertex 3.09338 -2.5 -2.5
      vertex 3.09338 2.5 -2.5
    endloop
  endfacet
  facet normal 0 -1 0
    outer loop
      vertex -5 -2.5 2.5
      vertex 0 -2.5 0.799999
      vertex 5 -2.5 2.5
    endloop
  endfacet
  facet normal 0 -1 0
    outer loop
      vertex -5 -2.5 2.5
      vertex -0.19465 -2.5 0.793882
      vertex 0 -2.5 0.799999
    endloop
  endfacet
  facet normal 0 -1 0
    outer loop
      vertex -5 -2.5 2.5
      vertex -0.388533 -2.5 0.775555
      vertex -0.19465 -2.5 0.793882
    endloop
  endfacet
  facet normal 0 -1 0
    outer loop
      vertex -5 -2.5 2.5
      vertex -0.580882 -2.5 0.74509
      vertex -0.388533 -2.5 0.775555
    endloop
  endfacet
  facet normal 0 -1 0
    outer loop
      vertex -5 -2.5 2.5
      vertex -0.770938 -2.5 0.702607
      vertex -0.580882 -2.5 0.74509
    endloop
  endfacet
  facet normal 0 -1 0
    outer loop
      vertex -5 -2.5 2.5
      vertex -0.957952 -2.5 0.648274
      vertex -0.770938 -2.5 0.702607
    endloop
  endfacet
  facet normal 0 -1 0
    outer loop
      vertex -5 -2.5 2.5
      vertex -1.14119 -2.5 0.582307
      vertex -0.957952 -2.5 0.648274
    endloop
  endfacet
  facet normal 0 -1 0
    outer loop
      vertex -5 -2.5 2.5
      vertex -1.31992 -2.5 0.504963
      vertex -1.14119 -2.5 0.582307
    endloop
  endfacet
  facet normal 0 -1 0
    outer loop
      vertex -5 -2.5 2.5
      vertex -1.49344 -2.5 0.416551
      vertex -1.31992 -2.5 0.504963
    endloop
  endfacet
  facet normal 0 -1 0
    outer loop
      vertex -5 -2.5 2.5
      vertex -1.66106 -2.5 0.317416
      vertex -1.49344 -2.5 0.416551
    endloop
  endfacet
  facet normal 0 -1 0
    outer loop
      vertex -5 -2.5 2.5
      vertex -1.82213 -2.5 0.207952
      vertex -1.66106 -2.5 0.317416
    endloop
  endfacet
  facet normal 0 -1 0
    outer loop
      vertex -5 -2.5 2.5
      vertex -1.97601 -2.5 0.0885906
      vertex -1.82213 -2.5 0.207952
    endloop
  endfacet
  facet normal 0 -1 0
    outer loop
      vertex -5 -2.5 2.5
      vertex -2.1221 -2.5 -0.0401964
      vertex -1.97601 -2.5 0.0885906
    endloop
  endfacet
  facet normal 0 -1 0
    outer loop
      vertex -5 -2.5 2.5
      vertex -2.2598 -2.5 -0.177903
      vertex -2.1221 -2.5 -0.0401964
    endloop
  endfacet
  facet normal 0 -1 0
    outer loop
      vertex -5 -2.5 2.5
      vertex -2.38859 -2.5 -0.323985
      vertex -2.2598 -2.5 -0.177903
    endloop
  endfacet
  facet normal 0 -1 0
    outer loop
      vertex -5 -2.5 2.5
      vertex -2.50795 -2.5 -0.477865
      vertex -2.38859 -2.5 -0.323985
    endloop
  endfacet
  facet normal 0 -1 0
    outer loop
      vertex -5 -2.5 2.5
      vertex -2.61742 -2.5 -0.638936
      vertex -2.50795 -2.5 -0.477865
    endloop
  endfacet
  facet normal 0 -1 0
    outer loop
      vertex -5 -2.5 2.5
      vertex -2.71655 -2.5 -0.806563
      vertex -2.61742 -2.5 -0.638936
    endloop
  endfacet
  facet normal 0 -1 0
    outer loop
      vertex -5 -2.5 2.5
      vertex -2.80496 -2.5 -0.980083
      vertex -2.71655 -2.5 -0.806563
    endloop
  endfacet
  facet normal 0 -1 0
    outer loop
      vertex -5 -2.5 -2.5
      vertex -2.80496 -2.5 -0.980083
      vertex -5 -2.5 2.5
    endloop
  endfacet
  facet normal 0 -1 0
    outer loop
      vertex -2.80496 -2.5 -0.980083
      vertex -5 -2.5 -2.5
      vertex -2.88231 -2.5 -1.15881
    endloop
  endfacet
  facet normal 0 -1 0
    outer loop
      vertex -2.88231 -2.5 -1.15881
      vertex -5 -2.5 -2.5
      vertex -2.94827 -2.5 -1.34205
    endloop
  endfacet
  facet normal 0 -1 0
    outer loop
      vertex -2.94827 -2.5 -1.34205
      vertex -5 -2.5 -2.5
      vertex -3.00261 -2.5 -1.52906
    endloop
  endfacet
  facet normal 0 -1 0
    outer loop
      vertex -3.00261 -2.5 -1.52906
      vertex -5 -2.5 -2.5
      vertex -3.04509 -2.5 -1.71912
    endloop
  endfacet
  facet normal 0 -1 0
    outer loop
      vertex -3.04509 -2.5 -1.71912
      vertex -5 -2.5 -2.5
      vertex -3.07555 -2.5 -1.91147
    endloop
  endfacet
  facet normal 0 -1 0
    outer loop
      vertex -3.07555 -2.5 -1.91147
      vertex -5 -2.5 -2.5
      vertex -3.09388 -2.5 -2.10535
    endloop
  endfacet
  facet normal 0 -1 0
    outer loop
      vertex -3.09388 -2.5 -2.10535
      vertex -5 -2.5 -2.5
      vertex -3.1 -2.5 -2.3
    endloop
  endfacet
  facet normal 0 -1 -0
    outer loop
      vertex -3.1 -2.5 -2.3
      vertex -5 -2.5 -2.5
      vertex -3.09388 -2.5 -2.49465
    endloop
  endfacet
  facet normal 0 -1 -0
    outer loop
      vertex -3.09388 -2.5 -2.49465
      vertex -5 -2.5 -2.5
      vertex -3.09338 -2.5 -2.5
    endloop
  endfacet
  facet normal 0 -1 0
    outer loop
      vertex 0.19465 -2.5 0.793882
      vertex 5 -2.5 2.5
      vertex 0 -2.5 0.799999
    endloop
  endfacet
  facet normal 0 -1 0
    outer loop
      vertex 0.388533 -2.5 0.775555
      vertex 5 -2.5 2.5
      vertex 0.19465 -2.5 0.793882
    endloop
  endfacet
  facet normal 0 -1 0
    outer loop
      vertex 0.580882 -2.5 0.74509
      vertex 5 -2.5 2.5
      vertex 0.388533 -2.5 0.775555
    endloop
  endfacet
  facet normal 0 -1 0
    outer loop
      vertex 0.770938 -2.5 0.702607
      vertex 5 -2.5 2.5
      vertex 0.580882 -2.5 0.74509
    endloop
  endfacet
  facet normal 0 -1 0
    outer loop
      vertex 0.957952 -2.5 0.648274
      vertex 5 -2.5 2.5
      vertex 0.770938 -2.5 0.702607
    endloop
  endfacet
  facet normal 0 -1 0
    outer loop
      vertex 1.14119 -2.5 0.582307
      vertex 5 -2.5 2.5
      vertex 0.957952 -2.5 0.648274
    endloop
  endfacet
  facet normal 0 -1 0
    outer loop
      vertex 1.31992 -2.5 0.504963
      vertex 5 -2.5 2.5
      vertex 1.14119 -2.5 0.582307
    endloop
  endfacet
  facet normal 0 -1 0
    outer loop
      vertex 1.49344 -2.5 0.416551
      vertex 5 -2.5 2.5
      vertex 1.31992 -2.5 0.504963
    endloop
  endfacet
  facet normal 0 -1 0
    outer loop
      vertex 1.66106 -2.5 0.317416
      vertex 5 -2.5 2.5
      vertex 1.49344 -2.5 0.416551
    endloop
  endfacet
  facet normal 0 -1 0
    outer loop
      vertex 1.82213 -2.5 0.207952
      vertex 5 -2.5 2.5
      vertex 1.66106 -2.5 0.317416
    endloop
  endfacet
  facet normal 0 -1 0
    outer loop
      vertex 1.97601 -2.5 0.0885906
      vertex 5 -2.5 2.5
      vertex 1.82213 -2.5 0.207952
    endloop
  endfacet
  facet normal 0 -1 0
    outer loop
      vertex 2.1221 -2.5 -0.0401964
      vertex 5 -2.5 2.5
      vertex 1.97601 -2.5 0.0885906
    endloop
  endfacet
  facet normal 0 -1 0
    outer loop
      vertex 2.2598 -2.5 -0.177903
      vertex 5 -2.5 2.5
      vertex 2.1221 -2.5 -0.0401964
    endloop
  endfacet
  facet normal 0 -1 0
    outer loop
      vertex 2.38859 -2.5 -0.323985
      vertex 5 -2.5 2.5
      vertex 2.2598 -2.5 -0.177903
    endloop
  endfacet
  facet normal 0 -1 0
    outer loop
      vertex 2.50795 -2.5 -0.477865
      vertex 5 -2.5 2.5
      vertex 2.38859 -2.5 -0.323985
    endloop
  endfacet
  facet normal 0 -1 0
    outer loop
      vertex 2.61742 -2.5 -0.638936
      vertex 5 -2.5 2.5
      vertex 2.50795 -2.5 -0.477865
    endloop
  endfacet
  facet normal 0 -1 0
    outer loop
      vertex 2.71655 -2.5 -0.806563
      vertex 5 -2.5 2.5
      vertex 2.61742 -2.5 -0.638936
    endloop
  endfacet
  facet normal 0 -1 0
    outer loop
      vertex 2.80496 -2.5 -0.980083
      vertex 5 -2.5 2.5
      vertex 2.71655 -2.5 -0.806563
    endloop
  endfacet
  facet normal 0 -1 0
    outer loop
      vertex 5 -2.5 -2.5
      vertex 2.80496 -2.5 -0.980083
      vertex 2.88231 -2.5 -1.15881
    endloop
  endfacet
  facet normal 0 -1 0
    outer loop
      vertex 5 -2.5 -2.5
      vertex 2.88231 -2.5 -1.15881
      vertex 2.94827 -2.5 -1.34205
    endloop
  endfacet
  facet normal 0 -1 0
    outer loop
      vertex 5 -2.5 -2.5
      vertex 2.94827 -2.5 -1.34205
      vertex 3.00261 -2.5 -1.52906
    endloop
  endfacet
  facet normal 0 -1 0
    outer loop
      vertex 5 -2.5 -2.5
      vertex 3.00261 -2.5 -1.52906
      vertex 3.04509 -2.5 -1.71912
    endloop
  endfacet
  facet normal 0 -1 0
    outer loop
      vertex 5 -2.5 -2.5
      vertex 3.04509 -2.5 -1.71912
      vertex 3.07555 -2.5 -1.91147
    endloop
  endfacet
  facet normal 0 -1 0
    outer loop
      vertex 5 -2.5 -2.5
      vertex 3.07555 -2.5 -1.91147
      vertex 3.09388 -2.5 -2.10535
    endloop
  endfacet
  facet normal 0 -1 0
    outer loop
      vertex 5 -2.5 -2.5
      vertex 3.09388 -2.5 -2.10535
      vertex 3.1 -2.5 -2.3
    endloop
  endfacet
  facet normal 0 -1 0
    outer loop
      vertex 5 -2.5 -2.5
      vertex 3.1 -2.5 -2.3
      vertex 3.09388 -2.5 -2.49465
    endloop
  endfacet
  facet normal 0 -1 0
    outer loop
      vertex 5 -2.5 -2.5
      vertex 3.09388 -2.5 -2.49465
      vertex 3.09338 -2.5 -2.5
    endloop
  endfacet
  facet normal 0 -1 0
    outer loop
      vertex 2.80496 -2.5 -0.980083
      vertex 5 -2.5 -2.5
      vertex 5 -2.5 2.5
    endloop
  endfacet
  facet normal -0.999506 0 -0.0314255
    outer loop
      vertex 3.1 -2.5 -2.3
      vertex 3.09388 2.5 -2.10535
      vertex 3.1 2.5 -2.3
    endloop
  endfacet
  facet normal -0.999506 -0 -0.0314255
    outer loop
      vertex 3.09388 2.5 -2.10535
      vertex 3.1 -2.5 -2.3
      vertex 3.09388 -2.5 -2.10535
    endloop
  endfacet
  facet normal -0.995561 0 -0.0941233
    outer loop
      vertex 3.09388 -2.5 -2.10535
      vertex 3.07555 2.5 -1.91147
      vertex 3.09388 2.5 -2.10535
    endloop
  endfacet
  facet normal -0.995561 -0 -0.0941233
    outer loop
      vertex 3.07555 2.5 -1.91147
      vertex 3.09388 -2.5 -2.10535
      vertex 3.07555 -2.5 -1.91147
    endloop
  endfacet
  facet normal 0.999506 0 -0.0314255
    outer loop
      vertex -3.09388 -2.5 -2.10535
      vertex -3.1 2.5 -2.3
      vertex -3.09388 2.5 -2.10535
    endloop
  endfacet
  facet normal 0.999506 0 -0.0314255
    outer loop
      vertex -3.1 2.5 -2.3
      vertex -3.09388 -2.5 -2.10535
      vertex -3.1 -2.5 -2.3
    endloop
  endfacet
  facet normal 0.0314101 0 -0.999507
    outer loop
      vertex -0.19465 -2.5 0.793882
      vertex 0 2.5 0.799999
      vertex 0 -2.5 0.799999
    endloop
  endfacet
  facet normal 0.0314101 0 -0.999507
    outer loop
      vertex 0 2.5 0.799999
      vertex -0.19465 -2.5 0.793882
      vertex -0.19465 2.5 0.793882
    endloop
  endfacet
  facet normal -0.707124 0 -0.70709
    outer loop
      vertex 2.2598 -2.5 -0.177903
      vertex 2.1221 2.5 -0.0401964
      vertex 2.2598 2.5 -0.177903
    endloop
  endfacet
  facet normal -0.707124 -0 -0.70709
    outer loop
      vertex 2.1221 2.5 -0.0401964
      vertex 2.2598 -2.5 -0.177903
      vertex 2.1221 -2.5 -0.0401964
    endloop
  endfacet
  facet normal 0.707124 0 -0.70709
    outer loop
      vertex -2.1221 -2.5 -0.0401964
      vertex -2.2598 2.5 -0.177903
      vertex -2.1221 2.5 -0.0401964
    endloop
  endfacet
  facet normal 0.707124 0 -0.70709
    outer loop
      vertex -2.2598 2.5 -0.177903
      vertex -2.1221 -2.5 -0.0401964
      vertex -2.2598 -2.5 -0.177903
    endloop
  endfacet
  facet normal 0.397151 0 -0.917753
    outer loop
      vertex -1.31992 -2.5 0.504963
      vertex -1.14119 2.5 0.582307
      vertex -1.14119 -2.5 0.582307
    endloop
  endfacet
  facet normal 0.397151 0 -0.917753
    outer loop
      vertex -1.14119 2.5 0.582307
      vertex -1.31992 -2.5 0.504963
      vertex -1.31992 2.5 0.504963
    endloop
  endfacet
  facet normal -0.91774 0 -0.397182
    outer loop
      vertex 2.88231 -2.5 -1.15881
      vertex 2.80496 2.5 -0.980083
      vertex 2.88231 2.5 -1.15881
    endloop
  endfacet
  facet normal -0.91774 -0 -0.397182
    outer loop
      vertex 2.80496 2.5 -0.980083
      vertex 2.88231 -2.5 -1.15881
      vertex 2.80496 -2.5 -0.980083
    endloop
  endfacet
  facet normal -0.562087 0 -0.827078
    outer loop
      vertex 1.66106 -2.5 0.317416
      vertex 1.82213 2.5 0.207952
      vertex 1.82213 -2.5 0.207952
    endloop
  endfacet
  facet normal -0.562087 0 -0.827078
    outer loop
      vertex 1.82213 2.5 0.207952
      vertex 1.66106 -2.5 0.317416
      vertex 1.66106 2.5 0.317416
    endloop
  endfacet
  facet normal 0.218145 0 -0.975916
    outer loop
      vertex -0.770938 -2.5 0.702607
      vertex -0.580882 2.5 0.74509
      vertex -0.580882 -2.5 0.74509
    endloop
  endfacet
  facet normal 0.218145 0 -0.975916
    outer loop
      vertex -0.580882 2.5 0.74509
      vertex -0.770938 -2.5 0.702607
      vertex -0.770938 2.5 0.702607
    endloop
  endfacet
  facet normal -0.975921 0 -0.218126
    outer loop
      vertex 3.04509 -2.5 -1.71912
      vertex 3.00261 2.5 -1.52906
      vertex 3.04509 2.5 -1.71912
    endloop
  endfacet
  facet normal -0.975921 -0 -0.218126
    outer loop
      vertex 3.00261 2.5 -1.52906
      vertex 3.04509 -2.5 -1.71912
      vertex 3.00261 -2.5 -1.52906
    endloop
  endfacet
  facet normal -0.827066 0 -0.562105
    outer loop
      vertex 2.61742 -2.5 -0.638936
      vertex 2.50795 2.5 -0.477865
      vertex 2.61742 2.5 -0.638936
    endloop
  endfacet
  facet normal -0.827066 -0 -0.562105
    outer loop
      vertex 2.50795 2.5 -0.477865
      vertex 2.61742 -2.5 -0.638936
      vertex 2.50795 -2.5 -0.477865
    endloop
  endfacet
  facet normal -0.218145 0 -0.975916
    outer loop
      vertex 0.580882 -2.5 0.74509
      vertex 0.770938 2.5 0.702607
      vertex 0.770938 -2.5 0.702607
    endloop
  endfacet
  facet normal -0.218145 0 -0.975916
    outer loop
      vertex 0.770938 2.5 0.702607
      vertex 0.580882 -2.5 0.74509
      vertex 0.580882 2.5 0.74509
    endloop
  endfacet
  facet normal -0.156434 0 -0.987688
    outer loop
      vertex 0.388533 -2.5 0.775555
      vertex 0.580882 2.5 0.74509
      vertex 0.580882 -2.5 0.74509
    endloop
  endfacet
  facet normal -0.156434 0 -0.987688
    outer loop
      vertex 0.580882 2.5 0.74509
      vertex 0.388533 -2.5 0.775555
      vertex 0.388533 2.5 0.775555
    endloop
  endfacet
  facet normal -0.612907 0 -0.790155
    outer loop
      vertex 1.82213 -2.5 0.207952
      vertex 1.97601 2.5 0.0885906
      vertex 1.97601 -2.5 0.0885906
    endloop
  endfacet
  facet normal -0.612907 0 -0.790155
    outer loop
      vertex 1.97601 2.5 0.0885906
      vertex 1.82213 -2.5 0.207952
      vertex 1.82213 2.5 0.207952
    endloop
  endfacet
  facet normal 0.975921 0 -0.218126
    outer loop
      vertex -3.00261 -2.5 -1.52906
      vertex -3.04509 2.5 -1.71912
      vertex -3.00261 2.5 -1.52906
    endloop
  endfacet
  facet normal 0.975921 0 -0.218126
    outer loop
      vertex -3.04509 2.5 -1.71912
      vertex -3.00261 -2.5 -1.52906
      vertex -3.04509 -2.5 -1.71912
    endloop
  endfacet
  facet normal 0.827066 0 -0.562105
    outer loop
      vertex -2.50795 -2.5 -0.477865
      vertex -2.61742 2.5 -0.638936
      vertex -2.50795 2.5 -0.477865
    endloop
  endfacet
  facet normal 0.827066 0 -0.562105
    outer loop
      vertex -2.61742 2.5 -0.638936
      vertex -2.50795 -2.5 -0.477865
      vertex -2.61742 -2.5 -0.638936
    endloop
  endfacet
  facet normal 0.91774 0 -0.397182
    outer loop
      vertex -2.80496 -2.5 -0.980083
      vertex -2.88231 2.5 -1.15881
      vertex -2.80496 2.5 -0.980083
    endloop
  endfacet
  facet normal 0.91774 0 -0.397182
    outer loop
      vertex -2.88231 2.5 -1.15881
      vertex -2.80496 -2.5 -0.980083
      vertex -2.88231 -2.5 -1.15881
    endloop
  endfacet
  facet normal 0.860752 0 -0.509025
    outer loop
      vertex -2.61742 -2.5 -0.638936
      vertex -2.71655 2.5 -0.806563
      vertex -2.61742 2.5 -0.638936
    endloop
  endfacet
  facet normal 0.860752 0 -0.509025
    outer loop
      vertex -2.71655 2.5 -0.806563
      vertex -2.61742 -2.5 -0.638936
      vertex -2.71655 -2.5 -0.806563
    endloop
  endfacet
  facet normal 0.987693 0 -0.156408
    outer loop
      vertex -3.04509 -2.5 -1.71912
      vertex -3.07555 2.5 -1.91147
      vertex -3.04509 2.5 -1.71912
    endloop
  endfacet
  facet normal 0.987693 0 -0.156408
    outer loop
      vertex -3.07555 2.5 -1.91147
      vertex -3.04509 -2.5 -1.71912
      vertex -3.07555 -2.5 -1.91147
    endloop
  endfacet
  facet normal 0.562087 0 -0.827078
    outer loop
      vertex -1.82213 -2.5 0.207952
      vertex -1.66106 2.5 0.317416
      vertex -1.66106 -2.5 0.317416
    endloop
  endfacet
  facet normal 0.562087 0 -0.827078
    outer loop
      vertex -1.66106 2.5 0.317416
      vertex -1.82213 -2.5 0.207952
      vertex -1.82213 2.5 0.207952
    endloop
  endfacet
  facet normal 0.661287 0 -0.750133
    outer loop
      vertex -2.1221 -2.5 -0.0401964
      vertex -1.97601 2.5 0.0885906
      vertex -1.97601 -2.5 0.0885906
    endloop
  endfacet
  facet normal 0.661287 0 -0.750133
    outer loop
      vertex -1.97601 2.5 0.0885906
      vertex -2.1221 -2.5 -0.0401964
      vertex -2.1221 2.5 -0.0401964
    endloop
  endfacet
  facet normal 0.156434 0 -0.987688
    outer loop
      vertex -0.580882 -2.5 0.74509
      vertex -0.388533 2.5 0.775555
      vertex -0.388533 -2.5 0.775555
    endloop
  endfacet
  facet normal 0.156434 0 -0.987688
    outer loop
      vertex -0.388533 2.5 0.775555
      vertex -0.580882 -2.5 0.74509
      vertex -0.580882 2.5 0.74509
    endloop
  endfacet
  facet normal -0.987693 0 -0.156408
    outer loop
      vertex 3.07555 -2.5 -1.91147
      vertex 3.04509 2.5 -1.71912
      vertex 3.07555 2.5 -1.91147
    endloop
  endfacet
  facet normal -0.987693 -0 -0.156408
    outer loop
      vertex 3.04509 2.5 -1.71912
      vertex 3.07555 -2.5 -1.91147
      vertex 3.04509 -2.5 -1.71912
    endloop
  endfacet
  facet normal -0.790159 0 -0.612902
    outer loop
      vertex 2.50795 -2.5 -0.477865
      vertex 2.38859 2.5 -0.323985
      vertex 2.50795 2.5 -0.477865
    endloop
  endfacet
  facet normal -0.790159 -0 -0.612902
    outer loop
      vertex 2.38859 2.5 -0.323985
      vertex 2.50795 -2.5 -0.477865
      vertex 2.38859 -2.5 -0.323985
    endloop
  endfacet
  facet normal -0.0941066 0 -0.995562
    outer loop
      vertex 0.19465 -2.5 0.793882
      vertex 0.388533 2.5 0.775555
      vertex 0.388533 -2.5 0.775555
    endloop
  endfacet
  facet normal -0.0941066 0 -0.995562
    outer loop
      vertex 0.388533 2.5 0.775555
      vertex 0.19465 -2.5 0.793882
      vertex 0.19465 2.5 0.793882
    endloop
  endfacet
  facet normal -0.278993 0 -0.960293
    outer loop
      vertex 0.770938 -2.5 0.702607
      vertex 0.957952 2.5 0.648274
      vertex 0.957952 -2.5 0.648274
    endloop
  endfacet
  facet normal -0.278993 0 -0.960293
    outer loop
      vertex 0.957952 2.5 0.648274
      vertex 0.770938 -2.5 0.702607
      vertex 0.770938 2.5 0.702607
    endloop
  endfacet
  facet normal -0.397151 0 -0.917753
    outer loop
      vertex 1.14119 -2.5 0.582307
      vertex 1.31992 2.5 0.504963
      vertex 1.31992 -2.5 0.504963
    endloop
  endfacet
  facet normal -0.397151 0 -0.917753
    outer loop
      vertex 1.31992 2.5 0.504963
      vertex 1.14119 -2.5 0.582307
      vertex 1.14119 2.5 0.582307
    endloop
  endfacet
  facet normal -0.50906 0 -0.860731
    outer loop
      vertex 1.49344 -2.5 0.416551
      vertex 1.66106 2.5 0.317416
      vertex 1.66106 -2.5 0.317416
    endloop
  endfacet
  facet normal -0.50906 0 -0.860731
    outer loop
      vertex 1.66106 2.5 0.317416
      vertex 1.49344 -2.5 0.416551
      vertex 1.49344 2.5 0.416551
    endloop
  endfacet
  facet normal -0.661287 0 -0.750133
    outer loop
      vertex 1.97601 -2.5 0.0885906
      vertex 2.1221 2.5 -0.0401964
      vertex 2.1221 -2.5 -0.0401964
    endloop
  endfacet
  facet normal -0.661287 0 -0.750133
    outer loop
      vertex 2.1221 2.5 -0.0401964
      vertex 1.97601 -2.5 0.0885906
      vertex 1.97601 2.5 0.0885906
    endloop
  endfacet
  facet normal 0.891012 0 -0.453979
    outer loop
      vertex -2.71655 -2.5 -0.806563
      vertex -2.80496 2.5 -0.980083
      vertex -2.71655 2.5 -0.806563
    endloop
  endfacet
  facet normal 0.891012 0 -0.453979
    outer loop
      vertex -2.80496 2.5 -0.980083
      vertex -2.71655 -2.5 -0.806563
      vertex -2.80496 -2.5 -0.980083
    endloop
  endfacet
  facet normal 0.960282 0 -0.279032
    outer loop
      vertex -2.94827 -2.5 -1.34205
      vertex -3.00261 2.5 -1.52906
      vertex -2.94827 2.5 -1.34205
    endloop
  endfacet
  facet normal 0.960282 0 -0.279032
    outer loop
      vertex -3.00261 2.5 -1.52906
      vertex -2.94827 -2.5 -1.34205
      vertex -3.00261 -2.5 -1.52906
    endloop
  endfacet
  facet normal 0.995561 0 -0.0941233
    outer loop
      vertex -3.07555 -2.5 -1.91147
      vertex -3.09388 2.5 -2.10535
      vertex -3.07555 2.5 -1.91147
    endloop
  endfacet
  facet normal 0.995561 0 -0.0941233
    outer loop
      vertex -3.09388 2.5 -2.10535
      vertex -3.07555 -2.5 -1.91147
      vertex -3.09388 -2.5 -2.10535
    endloop
  endfacet
  facet normal 0.612907 0 -0.790155
    outer loop
      vertex -1.97601 -2.5 0.0885906
      vertex -1.82213 2.5 0.207952
      vertex -1.82213 -2.5 0.207952
    endloop
  endfacet
  facet normal 0.612907 0 -0.790155
    outer loop
      vertex -1.82213 2.5 0.207952
      vertex -1.97601 -2.5 0.0885906
      vertex -1.97601 2.5 0.0885906
    endloop
  endfacet
  facet normal 0.453987 0 -0.891008
    outer loop
      vertex -1.49344 -2.5 0.416551
      vertex -1.31992 2.5 0.504963
      vertex -1.31992 -2.5 0.504963
    endloop
  endfacet
  facet normal 0.453987 0 -0.891008
    outer loop
      vertex -1.31992 2.5 0.504963
      vertex -1.49344 -2.5 0.416551
      vertex -1.49344 2.5 0.416551
    endloop
  endfacet
  facet normal 0.278993 0 -0.960293
    outer loop
      vertex -0.957952 -2.5 0.648274
      vertex -0.770938 2.5 0.702607
      vertex -0.770938 -2.5 0.702607
    endloop
  endfacet
  facet normal 0.278993 0 -0.960293
    outer loop
      vertex -0.770938 2.5 0.702607
      vertex -0.957952 -2.5 0.648274
      vertex -0.957952 2.5 0.648274
    endloop
  endfacet
  facet normal 0.338725 0 -0.940885
    outer loop
      vertex -1.14119 -2.5 0.582307
      vertex -0.957952 2.5 0.648274
      vertex -0.957952 -2.5 0.648274
    endloop
  endfacet
  facet normal 0.338725 0 -0.940885
    outer loop
      vertex -0.957952 2.5 0.648274
      vertex -1.14119 -2.5 0.582307
      vertex -1.14119 2.5 0.582307
    endloop
  endfacet
  facet normal 0.0941066 0 -0.995562
    outer loop
      vertex -0.388533 -2.5 0.775555
      vertex -0.19465 2.5 0.793882
      vertex -0.19465 -2.5 0.793882
    endloop
  endfacet
  facet normal 0.0941066 0 -0.995562
    outer loop
      vertex -0.19465 2.5 0.793882
      vertex -0.388533 -2.5 0.775555
      vertex -0.388533 2.5 0.775555
    endloop
  endfacet
  facet normal -0.999506 0 0.0314255
    outer loop
      vertex 3.09388 -2.5 -2.49465
      vertex 3.1 2.5 -2.3
      vertex 3.09388 2.5 -2.49465
    endloop
  endfacet
  facet normal -0.999506 0 0.0314255
    outer loop
      vertex 3.1 2.5 -2.3
      vertex 3.09388 -2.5 -2.49465
      vertex 3.1 -2.5 -2.3
    endloop
  endfacet
  facet normal 0.999506 -0 0.0314255
    outer loop
      vertex -3.1 -2.5 -2.3
      vertex -3.09388 2.5 -2.49465
      vertex -3.1 2.5 -2.3
    endloop
  endfacet
  facet normal 0.999506 0 0.0314255
    outer loop
      vertex -3.09388 2.5 -2.49465
      vertex -3.1 -2.5 -2.3
      vertex -3.09388 -2.5 -2.49465
    endloop
  endfacet
  facet normal -0.960282 0 -0.279032
    outer loop
      vertex 3.00261 -2.5 -1.52906
      vertex 2.94827 2.5 -1.34205
      vertex 3.00261 2.5 -1.52906
    endloop
  endfacet
  facet normal -0.960282 -0 -0.279032
    outer loop
      vertex 2.94827 2.5 -1.34205
      vertex 3.00261 -2.5 -1.52906
      vertex 2.94827 -2.5 -1.34205
    endloop
  endfacet
  facet normal -0.940898 0 -0.33869
    outer loop
      vertex 2.94827 -2.5 -1.34205
      vertex 2.88231 2.5 -1.15881
      vertex 2.94827 2.5 -1.34205
    endloop
  endfacet
  facet normal -0.940898 -0 -0.33869
    outer loop
      vertex 2.88231 2.5 -1.15881
      vertex 2.94827 -2.5 -1.34205
      vertex 2.88231 -2.5 -1.15881
    endloop
  endfacet
  facet normal -0.750108 0 -0.661316
    outer loop
      vertex 2.38859 -2.5 -0.323985
      vertex 2.2598 2.5 -0.177903
      vertex 2.38859 2.5 -0.323985
    endloop
  endfacet
  facet normal -0.750108 -0 -0.661316
    outer loop
      vertex 2.2598 2.5 -0.177903
      vertex 2.38859 -2.5 -0.323985
      vertex 2.2598 -2.5 -0.177903
    endloop
  endfacet
  facet normal -0.891012 0 -0.453979
    outer loop
      vertex 2.80496 -2.5 -0.980083
      vertex 2.71655 2.5 -0.806563
      vertex 2.80496 2.5 -0.980083
    endloop
  endfacet
  facet normal -0.891012 -0 -0.453979
    outer loop
      vertex 2.71655 2.5 -0.806563
      vertex 2.80496 -2.5 -0.980083
      vertex 2.71655 -2.5 -0.806563
    endloop
  endfacet
  facet normal -0.860752 0 -0.509025
    outer loop
      vertex 2.71655 -2.5 -0.806563
      vertex 2.61742 2.5 -0.638936
      vertex 2.71655 2.5 -0.806563
    endloop
  endfacet
  facet normal -0.860752 -0 -0.509025
    outer loop
      vertex 2.61742 2.5 -0.638936
      vertex 2.71655 -2.5 -0.806563
      vertex 2.61742 -2.5 -0.638936
    endloop
  endfacet
  facet normal -0.338725 0 -0.940885
    outer loop
      vertex 0.957952 -2.5 0.648274
      vertex 1.14119 2.5 0.582307
      vertex 1.14119 -2.5 0.582307
    endloop
  endfacet
  facet normal -0.338725 0 -0.940885
    outer loop
      vertex 1.14119 2.5 0.582307
      vertex 0.957952 -2.5 0.648274
      vertex 0.957952 2.5 0.648274
    endloop
  endfacet
  facet normal -0.0314101 0 -0.999507
    outer loop
      vertex 0 -2.5 0.799999
      vertex 0.19465 2.5 0.793882
      vertex 0.19465 -2.5 0.793882
    endloop
  endfacet
  facet normal -0.0314101 0 -0.999507
    outer loop
      vertex 0.19465 2.5 0.793882
      vertex 0 -2.5 0.799999
      vertex 0 2.5 0.799999
    endloop
  endfacet
  facet normal -0.453987 0 -0.891008
    outer loop
      vertex 1.31992 -2.5 0.504963
      vertex 1.49344 2.5 0.416551
      vertex 1.49344 -2.5 0.416551
    endloop
  endfacet
  facet normal -0.453987 0 -0.891008
    outer loop
      vertex 1.49344 2.5 0.416551
      vertex 1.31992 -2.5 0.504963
      vertex 1.31992 2.5 0.504963
    endloop
  endfacet
  facet normal 0.790159 0 -0.612902
    outer loop
      vertex -2.38859 -2.5 -0.323985
      vertex -2.50795 2.5 -0.477865
      vertex -2.38859 2.5 -0.323985
    endloop
  endfacet
  facet normal 0.790159 0 -0.612902
    outer loop
      vertex -2.50795 2.5 -0.477865
      vertex -2.38859 -2.5 -0.323985
      vertex -2.50795 -2.5 -0.477865
    endloop
  endfacet
  facet normal 0.750108 0 -0.661316
    outer loop
      vertex -2.2598 -2.5 -0.177903
      vertex -2.38859 2.5 -0.323985
      vertex -2.2598 2.5 -0.177903
    endloop
  endfacet
  facet normal 0.750108 0 -0.661316
    outer loop
      vertex -2.38859 2.5 -0.323985
      vertex -2.2598 -2.5 -0.177903
      vertex -2.38859 -2.5 -0.323985
    endloop
  endfacet
  facet normal 0.940898 0 -0.33869
    outer loop
      vertex -2.88231 -2.5 -1.15881
      vertex -2.94827 2.5 -1.34205
      vertex -2.88231 2.5 -1.15881
    endloop
  endfacet
  facet normal 0.940898 0 -0.33869
    outer loop
      vertex -2.94827 2.5 -1.34205
      vertex -2.88231 -2.5 -1.15881
      vertex -2.94827 -2.5 -1.34205
    endloop
  endfacet
  facet normal 0.50906 0 -0.860731
    outer loop
      vertex -1.66106 -2.5 0.317416
      vertex -1.49344 2.5 0.416551
      vertex -1.49344 -2.5 0.416551
    endloop
  endfacet
  facet normal 0.50906 0 -0.860731
    outer loop
      vertex -1.49344 2.5 0.416551
      vertex -1.66106 -2.5 0.317416
      vertex -1.66106 2.5 0.317416
    endloop
  endfacet
  facet normal -0.995661 0 0.0930524
    outer loop
      vertex 3.09338 -2.5 -2.5
      vertex 3.09388 2.5 -2.49465
      vertex 3.09338 2.5 -2.5
    endloop
  endfacet
  facet normal -0.995661 0 0.0930524
    outer loop
      vertex 3.09388 2.5 -2.49465
      vertex 3.09338 -2.5 -2.5
      vertex 3.09388 -2.5 -2.49465
    endloop
  endfacet
  facet normal 0.995661 -0 0.0930524
    outer loop
      vertex -3.09388 -2.5 -2.49465
      vertex -3.09338 2.5 -2.5
      vertex -3.09388 2.5 -2.49465
    endloop
  endfacet
  facet normal 0.995661 0 0.0930524
    outer loop
      vertex -3.09338 2.5 -2.5
      vertex -3.09388 -2.5 -2.49465
      vertex -3.09338 -2.5 -2.5
    endloop
  endfacet
endsolid OpenSCAD_Model
