solid OpenSCAD_Model
  facet normal -1 0 0
    outer loop
      vertex -5 -2.5 -2.5
      vertex -5 2.5 2.5
      vertex -5 2.5 -2.5
    endloop
  endfacet
  facet normal -1 -0 0
    outer loop
      vertex -5 2.5 2.5
      vertex -5 -2.5 -2.5
      vertex -5 -2.5 2.5
    endloop
  endfacet
  facet normal -0 0 1
    outer loop
      vertex -5 2.5 2.5
      vertex 5 -2.5 2.5
      vertex 5 2.5 2.5
    endloop
  endfacet
  facet normal 0 0 1
    outer loop
      vertex 5 -2.5 2.5
      vertex -5 2.5 2.5
      vertex -5 -2.5 2.5
    endloop
  endfacet
  facet normal 1 -0 0
    outer loop
      vertex 5 -2.5 2.5
      vertex 5 2.5 -2.5
      vertex 5 2.5 2.5
    endloop
  endfacet
  facet normal 1 0 0
    outer loop
      vertex 5 2.5 -2.5
      vertex 5 -2.5 2.5
      vertex 5 -2.5 -2.5
    endloop
  endfacet
  facet normal 0 1 0
    outer loop
      vertex 5 2.5 2.5
      vertex 0 2.5 1.1
      vertex -5 2.5 2.5
    endloop
  endfacet
  facet normal 0 1 0
    outer loop
      vertex 5 2.5 2.5
      vertex 0.244883 2.5 1.0923
      vertex 0 2.5 1.1
    endloop
  endfacet
  facet normal 0 1 0
    outer loop
      vertex 5 2.5 2.5
      vertex 0.488799 2.5 1.06925
      vertex 0.244883 2.5 1.0923
    endloop
  endfacet
  facet normal 0 1 0
    outer loop
      vertex 5 2.5 2.5
      vertex 0.730786 2.5 1.03092
      vertex 0.488799 2.5 1.06925
    endloop
  endfacet
  facet normal 0 1 0
    outer loop
      vertex 5 2.5 2.5
      vertex 0.96989 2.5 0.977474
      vertex 0.730786 2.5 1.03092
    endloop
  endfacet
  facet normal 0 1 0
    outer loop
      vertex 5 2.5 2.5
      vertex 1.20517 2.5 0.90912
      vertex 0.96989 2.5 0.977474
    endloop
  endfacet
  facet normal 0 1 0
    outer loop
      vertex 5 2.5 2.5
      vertex 1.43569 2.5 0.826128
      vertex 1.20517 2.5 0.90912
    endloop
  endfacet
  facet normal 0 1 0
    outer loop
      vertex 5 2.5 2.5
      vertex 1.66054 2.5 0.728825
      vertex 1.43569 2.5 0.826128
    endloop
  endfacet
  facet normal 0 1 0
    outer loop
      vertex 5 2.5 2.5
      vertex 1.87884 2.5 0.617596
      vertex 1.66054 2.5 0.728825
    endloop
  endfacet
  facet normal 0 1 0
    outer loop
      vertex 5 2.5 2.5
      vertex 2.08972 2.5 0.492878
      vertex 1.87884 2.5 0.617596
    endloop
  endfacet
  facet normal 0 1 0
    outer loop
      vertex 5 2.5 2.5
      vertex 2.29236 2.5 0.355165
      vertex 2.08972 2.5 0.492878
    endloop
  endfacet
  facet normal 0 1 0
    outer loop
      vertex 5 2.5 2.5
      vertex 2.48595 2.5 0.205001
      vertex 2.29236 2.5 0.355165
    endloop
  endfacet
  facet normal 0 1 0
    outer loop
      vertex 5 2.5 2.5
      vertex 2.66973 2.5 0.0429773
      vertex 2.48595 2.5 0.205001
    endloop
  endfacet
  facet normal 0 1 0
    outer loop
      vertex 5 2.5 2.5
      vertex 2.84298 2.5 -0.130266
      vertex 2.66973 2.5 0.0429773
    endloop
  endfacet
  facet normal 0 1 0
    outer loop
      vertex 5 2.5 2.5
      vertex 3.005 2.5 -0.314046
      vertex 2.84298 2.5 -0.130266
    endloop
  endfacet
  facet normal 0 1 0
    outer loop
      vertex 5 2.5 2.5
      vertex 3.15517 2.5 -0.507637
      vertex 3.005 2.5 -0.314046
    endloop
  endfacet
  facet normal 0 1 0
    outer loop
      vertex 5 2.5 2.5
      vertex 3.29288 2.5 -0.710275
      vertex 3.15517 2.5 -0.507637
    endloop
  endfacet
  facet normal 0 1 0
    outer loop
      vertex 5 2.5 2.5
      vertex 3.4176 2.5 -0.92116
      vertex 3.29288 2.5 -0.710275
    endloop
  endfacet
  facet normal 0 1 0
    outer loop
      vertex 5 2.5 2.5
      vertex 3.52882 2.5 -1.13946
      vertex 3.4176 2.5 -0.92116
    endloop
  endfacet
  facet normal 0 1 -0
    outer loop
      vertex 5 2.5 -2.5
      vertex 3.52882 2.5 -1.13946
      vertex 5 2.5 2.5
    endloop
  endfacet
  facet normal 0 1 0
    outer loop
      vertex 3.52882 2.5 -1.13946
      vertex 5 2.5 -2.5
      vertex 3.62613 2.5 -1.36431
    endloop
  endfacet
  facet normal 0 1 0
    outer loop
      vertex 3.62613 2.5 -1.36431
      vertex 5 2.5 -2.5
      vertex 3.70912 2.5 -1.59483
    endloop
  endfacet
  facet normal 0 1 0
    outer loop
      vertex 3.70912 2.5 -1.59483
      vertex 5 2.5 -2.5
      vertex 3.77747 2.5 -1.83011
    endloop
  endfacet
  facet normal 0 1 0
    outer loop
      vertex 3.77747 2.5 -1.83011
      vertex 5 2.5 -2.5
      vertex 3.83092 2.5 -2.06921
    endloop
  endfacet
  facet normal 0 1 0
    outer loop
      vertex 3.83092 2.5 -2.06921
      vertex 5 2.5 -2.5
      vertex 3.86925 2.5 -2.3112
    endloop
  endfacet
  facet normal 0 1 0
    outer loop
      vertex 3.86925 2.5 -2.3112
      vertex 5 2.5 -2.5
      vertex 3.88709 2.5 -2.5
    endloop
  endfacet
  facet normal 0 1 -0
    outer loop
      vertex -0.244883 2.5 1.0923
      vertex -5 2.5 2.5
      vertex 0 2.5 1.1
    endloop
  endfacet
  facet normal 0 1 -0
    outer loop
      vertex -0.488799 2.5 1.06925
      vertex -5 2.5 2.5
      vertex -0.244883 2.5 1.0923
    endloop
  endfacet
  facet normal 0 1 -0
    outer loop
      vertex -0.730786 2.5 1.03092
      vertex -5 2.5 2.5
      vertex -0.488799 2.5 1.06925
    endloop
  endfacet
  facet normal 0 1 -0
    outer loop
      vertex -0.96989 2.5 0.977474
      vertex -5 2.5 2.5
      vertex -0.730786 2.5 1.03092
    endloop
  endfacet
  facet normal 0 1 -0
    outer loop
      vertex -1.20517 2.5 0.90912
      vertex -5 2.5 2.5
      vertex -0.96989 2.5 0.977474
    endloop
  endfacet
  facet normal 0 1 -0
    outer loop
      vertex -1.43569 2.5 0.826128
      vertex -5 2.5 2.5
      vertex -1.20517 2.5 0.90912
    endloop
  endfacet
  facet normal 0 1 -0
    outer loop
      vertex -1.66054 2.5 0.728825
      vertex -5 2.5 2.5
      vertex -1.43569 2.5 0.826128
    endloop
  endfacet
  facet normal 0 1 -0
    outer loop
      vertex -1.87884 2.5 0.617596
      vertex -5 2.5 2.5
      vertex -1.66054 2.5 0.728825
    endloop
  endfacet
  facet normal 0 1 -0
    outer loop
      vertex -2.08972 2.5 0.492878
      vertex -5 2.5 2.5
      vertex -1.87884 2.5 0.617596
    endloop
  endfacet
  facet normal 0 1 -0
    outer loop
      vertex -2.29236 2.5 0.355165
      vertex -5 2.5 2.5
      vertex -2.08972 2.5 0.492878
    endloop
  endfacet
  facet normal 0 1 -0
    outer loop
      vertex -2.48595 2.5 0.205001
      vertex -5 2.5 2.5
      vertex -2.29236 2.5 0.355165
    endloop
  endfacet
  facet normal 0 1 -0
    outer loop
      vertex -2.66973 2.5 0.0429773
      vertex -5 2.5 2.5
      vertex -2.48595 2.5 0.205001
    endloop
  endfacet
  facet normal 0 1 -0
    outer loop
      vertex -2.84298 2.5 -0.130266
      vertex -5 2.5 2.5
      vertex -2.66973 2.5 0.0429773
    endloop
  endfacet
  facet normal 0 1 -0
    outer loop
      vertex -3.005 2.5 -0.314046
      vertex -5 2.5 2.5
      vertex -2.84298 2.5 -0.130266
    endloop
  endfacet
  facet normal 0 1 -0
    outer loop
      vertex -3.15517 2.5 -0.507637
      vertex -5 2.5 2.5
      vertex -3.005 2.5 -0.314046
    endloop
  endfacet
  facet normal 0 1 -0
    outer loop
      vertex -3.29288 2.5 -0.710275
      vertex -5 2.5 2.5
      vertex -3.15517 2.5 -0.507637
    endloop
  endfacet
  facet normal 0 1 -0
    outer loop
      vertex -3.4176 2.5 -0.92116
      vertex -5 2.5 2.5
      vertex -3.29288 2.5 -0.710275
    endloop
  endfacet
  facet normal 0 1 -0
    outer loop
      vertex -3.52882 2.5 -1.13946
      vertex -5 2.5 2.5
      vertex -3.4176 2.5 -0.92116
    endloop
  endfacet
  facet normal 0 1 0
    outer loop
      vertex -5 2.5 -2.5
      vertex -3.52882 2.5 -1.13946
      vertex -3.62613 2.5 -1.36431
    endloop
  endfacet
  facet normal 0 1 0
    outer loop
      vertex -5 2.5 -2.5
      vertex -3.62613 2.5 -1.36431
      vertex -3.70912 2.5 -1.59483
    endloop
  endfacet
  facet normal 0 1 0
    outer loop
      vertex -5 2.5 -2.5
      vertex -3.70912 2.5 -1.59483
      vertex -3.77747 2.5 -1.83011
    endloop
  endfacet
  facet normal 0 1 0
    outer loop
      vertex -5 2.5 -2.5
      vertex -3.77747 2.5 -1.83011
      vertex -3.83092 2.5 -2.06921
    endloop
  endfacet
  facet normal 0 1 0
    outer loop
      vertex -5 2.5 -2.5
      vertex -3.83092 2.5 -2.06921
      vertex -3.86925 2.5 -2.3112
    endloop
  endfacet
  facet normal 0 1 0
    outer loop
      vertex -5 2.5 -2.5
      vertex -3.86925 2.5 -2.3112
      vertex -3.88709 2.5 -2.5
    endloop
  endfacet
  facet normal 0 1 0
    outer loop
      vertex -3.52882 2.5 -1.13946
      vertex -5 2.5 -2.5
      vertex -5 2.5 2.5
    endloop
  endfacet
  facet normal 0 0 -1
    outer loop
      vertex -5 -2.5 -2.5
      vertex -3.88709 2.5 -2.5
      vertex -3.88709 -2.5 -2.5
    endloop
  endfacet
  facet normal -0 0 -1
    outer loop
      vertex -3.88709 2.5 -2.5
      vertex -5 -2.5 -2.5
      vertex -5 2.5 -2.5
    endloop
  endfacet
  facet normal 0 0 -1
    outer loop
      vertex 3.88709 -2.5 -2.5
      vertex 5 2.5 -2.5
      vertex 5 -2.5 -2.5
    endloop
  endfacet
  facet normal -0 0 -1
    outer loop
      vertex 5 2.5 -2.5
      vertex 3.88709 -2.5 -2.5
      vertex 3.88709 2.5 -2.5
    endloop
  endfacet
  facet normal 0 -1 0
    outer loop
      vertex -5 -2.5 2.5
      vertex 0 -2.5 1.1
      vertex 5 -2.5 2.5
    endloop
  endfacet
  facet normal 0 -1 0
    outer loop
      vertex -5 -2.5 2.5
      vertex -0.244883 -2.5 1.0923
      vertex 0 -2.5 1.1
    endloop
  endfacet
  facet normal 0 -1 0
    outer loop
      vertex -5 -2.5 2.5
      vertex -0.488799 -2.5 1.06925
      vertex -0.244883 -2.5 1.0923
    endloop
  endfacet
  facet normal 0 -1 0
    outer loop
      vertex -5 -2.5 2.5
      vertex -0.730786 -2.5 1.03092
      vertex -0.488799 -2.5 1.06925
    endloop
  endfacet
  facet normal 0 -1 0
    outer loop
      vertex -5 -2.5 2.5
      vertex -0.96989 -2.5 0.977474
      vertex -0.730786 -2.5 1.03092
    endloop
  endfacet
  facet normal 0 -1 0
    outer loop
      vertex -5 -2.5 2.5
      vertex -1.20517 -2.5 0.90912
      vertex -0.96989 -2.5 0.977474
    endloop
  endfacet
  facet normal 0 -1 0
    outer loop
      vertex -5 -2.5 2.5
      vertex -1.43569 -2.5 0.826128
      vertex -1.20517 -2.5 0.90912
    endloop
  endfacet
  facet normal 0 -1 0
    outer loop
      vertex -5 -2.5 2.5
      vertex -1.66054 -2.5 0.728825
      vertex -1.43569 -2.5 0.826128
    endloop
  endfacet
  facet normal 0 -1 0
    outer loop
      vertex -5 -2.5 2.5
      vertex -1.87884 -2.5 0.617596
      vertex -1.66054 -2.5 0.728825
    endloop
  endfacet
  facet normal 0 -1 0
    outer loop
      vertex -5 -2.5 2.5
      vertex -2.08972 -2.5 0.492878
      vertex -1.87884 -2.5 0.617596
    endloop
  endfacet
  facet normal 0 -1 0
    outer loop
      vertex -5 -2.5 2.5
      vertex -2.29236 -2.5 0.355165
      vertex -2.08972 -2.5 0.492878
    endloop
  endfacet
  facet normal 0 -1 0
    outer loop
      vertex -5 -2.5 2.5
      vertex -2.48595 -2.5 0.205001
      vertex -2.29236 -2.5 0.355165
    endloop
  endfacet
  facet normal 0 -1 0
    outer loop
      vertex -5 -2.5 2.5
      vertex -2.66973 -2.5 0.0429773
      vertex -2.48595 -2.5 0.205001
    endloop
  endfacet
  facet normal 0 -1 0
    outer loop
      vertex -5 -2.5 2.5
      vertex -2.84298 -2.5 -0.130266
      vertex -2.66973 -2.5 0.0429773
    endloop
  endfacet
  facet normal 0 -1 0
    outer loop
      vertex -5 -2.5 2.5
      vertex -3.005 -2.5 -0.314046
      vertex -2.84298 -2.5 -0.130266
    endloop
  endfacet
  facet normal 0 -1 0
    outer loop
      vertex -5 -2.5 2.5
      vertex -3.15517 -2.5 -0.507637
      vertex -3.005 -2.5 -0.314046
    endloop
  endfacet
  facet normal 0 -1 0
    outer loop
      vertex -5 -2.5 2.5
      vertex -3.29288 -2.5 -0.710275
      vertex -3.15517 -2.5 -0.507637
    endloop
  endfacet
  facet normal 0 -1 0
    outer loop
      vertex -5 -2.5 2.5
      vertex -3.4176 -2.5 -0.92116
      vertex -3.29288 -2.5 -0.710275
    endloop
  endfacet
  facet normal 0 -1 0
    outer loop
      vertex -5 -2.5 2.5
      vertex -3.52882 -2.5 -1.13946
      vertex -3.4176 -2.5 -0.92116
    endloop
  endfacet
  facet normal 0 -1 0
    outer loop
      vertex -5 -2.5 -2.5
      vertex -3.52882 -2.5 -1.13946
      vertex -5 -2.5 2.5
    endloop
  endfacet
  facet normal 0 -1 0
    outer loop
      vertex -3.52882 -2.5 -1.13946
      vertex -5 -2.5 -2.5
      vertex -3.62613 -2.5 -1.36431
    endloop
  endfacet
  facet normal 0 -1 0
    outer loop
      vertex -3.62613 -2.5 -1.36431
      vertex -5 -2.5 -2.5
      vertex -3.70912 -2.5 -1.59483
    endloop
  endfacet
  facet normal 0 -1 0
    outer loop
      vertex -3.70912 -2.5 -1.59483
      vertex -5 -2.5 -2.5
      vertex -3.77747 -2.5 -1.83011
    endloop
  endfacet
  facet normal 0 -1 0
    outer loop
      vertex -3.77747 -2.5 -1.83011
      vertex -5 -2.5 -2.5
      vertex -3.83092 -2.5 -2.06921
    endloop
  endfacet
  facet normal 0 -1 0
    outer loop
      vertex -3.83092 -2.5 -2.06921
      vertex -5 -2.5 -2.5
      vertex -3.86925 -2.5 -2.3112
    endloop
  endfacet
  facet normal 0 -1 0
    outer loop
      vertex -3.86925 -2.5 -2.3112
      vertex -5 -2.5 -2.5
      vertex -3.88709 -2.5 -2.5
    endloop
  endfacet
  facet normal 0 -1 0
    outer loop
      vertex 0.244883 -2.5 1.0923
      vertex 5 -2.5 2.5
      vertex 0 -2.5 1.1
    endloop
  endfacet
  facet normal 0 -1 0
    outer loop
      vertex 0.488799 -2.5 1.06925
      vertex 5 -2.5 2.5
      vertex 0.244883 -2.5 1.0923
    endloop
  endfacet
  facet normal 0 -1 0
    outer loop
      vertex 0.730786 -2.5 1.03092
      vertex 5 -2.5 2.5
      vertex 0.488799 -2.5 1.06925
    endloop
  endfacet
  facet normal 0 -1 0
    outer loop
      vertex 0.96989 -2.5 0.977474
      vertex 5 -2.5 2.5
      vertex 0.730786 -2.5 1.03092
    endloop
  endfacet
  facet normal 0 -1 0
    outer loop
      vertex 1.20517 -2.5 0.90912
      vertex 5 -2.5 2.5
      vertex 0.96989 -2.5 0.977474
    endloop
  endfacet
  facet normal 0 -1 0
    outer loop
      vertex 1.43569 -2.5 0.826128
      vertex 5 -2.5 2.5
      vertex 1.20517 -2.5 0.90912
    endloop
  endfacet
  facet normal 0 -1 0
    outer loop
      vertex 1.66054 -2.5 0.728825
      vertex 5 -2.5 2.5
      vertex 1.43569 -2.5 0.826128
    endloop
  endfacet
  facet normal 0 -1 0
    outer loop
      vertex 1.87884 -2.5 0.617596
      vertex 5 -2.5 2.5
      vertex 1.66054 -2.5 0.728825
    endloop
  endfacet
  facet normal 0 -1 0
    outer loop
      vertex 2.08972 -2.5 0.492878
      vertex 5 -2.5 2.5
      vertex 1.87884 -2.5 0.617596
    endloop
  endfacet
  facet normal 0 -1 0
    outer loop
      vertex 2.29236 -2.5 0.355165
      vertex 5 -2.5 2.5
      vertex 2.08972 -2.5 0.492878
    endloop
  endfacet
  facet normal 0 -1 0
    outer loop
      vertex 2.48595 -2.5 0.205001
      vertex 5 -2.5 2.5
      vertex 2.29236 -2.5 0.355165
    endloop
  endfacet
  facet normal 0 -1 0
    outer loop
      vertex 2.66973 -2.5 0.0429773
      vertex 5 -2.5 2.5
      vertex 2.48595 -2.5 0.205001
    endloop
  endfacet
  facet normal 0 -1 0
    outer loop
      vertex 2.84298 -2.5 -0.130266
      vertex 5 -2.5 2.5
      vertex 2.66973 -2.5 0.0429773
    endloop
  endfacet
  facet normal 0 -1 0
    outer loop
      vertex 3.005 -2.5 -0.314046
      vertex 5 -2.5 2.5
      vertex 2.84298 -2.5 -0.130266
    endloop
  endfacet
  facet normal 0 -1 0
    outer loop
      vertex 3.15517 -2.5 -0.507637
      vertex 5 -2.5 2.5
      vertex 3.005 -2.5 -0.314046
    endloop
  endfacet
  facet normal 0 -1 0
    outer loop
      vertex 3.29288 -2.5 -0.710275
      vertex 5 -2.5 2.5
      vertex 3.15517 -2.5 -0.507637
    endloop
  endfacet
  facet normal 0 -1 0
    outer loop
      vertex 3.4176 -2.5 -0.92116
      vertex 5 -2.5 2.5
      vertex 3.29288 -2.5 -0.710275
    endloop
  endfacet
  facet normal 0 -1 0
    outer loop
      vertex 3.52882 -2.5 -1.13946
      vertex 5 -2.5 2.5
      vertex 3.4176 -2.5 -0.92116
    endloop
  endfacet
  facet normal 0 -1 0
    outer loop
      vertex 5 -2.5 -2.5
      vertex 3.52882 -2.5 -1.13946
      vertex 3.62613 -2.5 -1.36431
    endloop
  endfacet
  facet normal 0 -1 0
    outer loop
      vertex 5 -2.5 -2.5
      vertex 3.62613 -2.5 -1.36431
      vertex 3.70912 -2.5 -1.59483
    endloop
  endfacet
  facet normal 0 -1 0
    outer loop
      vertex 5 -2.5 -2.5
      vertex 3.70912 -2.5 -1.59483
      vertex 3.77747 -2.5 -1.83011
    endloop
  endfacet
  facet normal 0 -1 0
    outer loop
      vertex 5 -2.5 -2.5
      vertex 3.77747 -2.5 -1.83011
      vertex 3.83092 -2.5 -2.06921
    endloop
  endfacet
  facet normal 0 -1 0
    outer loop
      vertex 5 -2.5 -2.5
      vertex 3.83092 -2.5 -2.06921
      vertex 3.86925 -2.5 -2.3112
    endloop
  endfacet
  facet normal 0 -1 0
    outer loop
      vertex 5 -2.5 -2.5
      vertex 3.86925 -2.5 -2.3112
      vertex 3.88709 -2.5 -2.5
    endloop
  endfacet
  facet normal 0 -1 0
    outer loop
      vertex 3.52882 -2.5 -1.13946
      vertex 5 -2.5 -2.5
      vertex 5 -2.5 2.5
    endloop
  endfacet
  facet normal -0.995565 0 -0.0940725
    outer loop
      vertex 3.88709 -2.5 -2.5
      vertex 3.86925 2.5 -2.3112
      vertex 3.88709 2.5 -2.5
    endloop
  endfacet
  facet normal -0.995565 -0 -0.0940725
    outer loop
      vertex 3.86925 2.5 -2.3112
      vertex 3.88709 -2.5 -2.5
      vertex 3.86925 -2.5 -2.3112
    endloop
  endfacet
  facet normal 0.0314281 0 -0.999506
    outer loop
      vertex -0.244883 -2.5 1.0923
      vertex 0 2.5 1.1
      vertex 0 -2.5 1.1
    endloop
  endfacet
  facet normal 0.0314281 0 -0.999506
    outer loop
      vertex 0 2.5 1.1
      vertex -0.244883 -2.5 1.0923
      vertex -0.244883 2.5 1.0923
    endloop
  endfacet
  facet normal -0.707093 0 -0.70712
    outer loop
      vertex 2.66973 -2.5 0.0429773
      vertex 2.84298 2.5 -0.130266
      vertex 2.84298 -2.5 -0.130266
    endloop
  endfacet
  facet normal -0.707093 0 -0.70712
    outer loop
      vertex 2.84298 2.5 -0.130266
      vertex 2.66973 -2.5 0.0429773
      vertex 2.66973 2.5 0.0429773
    endloop
  endfacet
  facet normal 0.707093 0 -0.70712
    outer loop
      vertex -2.84298 -2.5 -0.130266
      vertex -2.66973 2.5 0.0429773
      vertex -2.66973 -2.5 0.0429773
    endloop
  endfacet
  facet normal 0.707093 0 -0.70712
    outer loop
      vertex -2.66973 2.5 0.0429773
      vertex -2.84298 -2.5 -0.130266
      vertex -2.84298 2.5 -0.130266
    endloop
  endfacet
  facet normal 0.397154 0 -0.917752
    outer loop
      vertex -1.66054 -2.5 0.728825
      vertex -1.43569 2.5 0.826128
      vertex -1.43569 -2.5 0.826128
    endloop
  endfacet
  facet normal 0.397154 0 -0.917752
    outer loop
      vertex -1.43569 2.5 0.826128
      vertex -1.66054 -2.5 0.728825
      vertex -1.66054 2.5 0.728825
    endloop
  endfacet
  facet normal -0.917742 0 -0.397178
    outer loop
      vertex 3.62613 -2.5 -1.36431
      vertex 3.52882 2.5 -1.13946
      vertex 3.62613 2.5 -1.36431
    endloop
  endfacet
  facet normal -0.917742 -0 -0.397178
    outer loop
      vertex 3.52882 2.5 -1.13946
      vertex 3.62613 -2.5 -1.36431
      vertex 3.52882 -2.5 -1.13946
    endloop
  endfacet
  facet normal -0.562081 0 -0.827082
    outer loop
      vertex 2.08972 -2.5 0.492878
      vertex 2.29236 2.5 0.355165
      vertex 2.29236 -2.5 0.355165
    endloop
  endfacet
  facet normal -0.562081 0 -0.827082
    outer loop
      vertex 2.29236 2.5 0.355165
      vertex 2.08972 -2.5 0.492878
      vertex 2.08972 2.5 0.492878
    endloop
  endfacet
  facet normal -0.975913 0 -0.218162
    outer loop
      vertex 3.83092 -2.5 -2.06921
      vertex 3.77747 2.5 -1.83011
      vertex 3.83092 2.5 -2.06921
    endloop
  endfacet
  facet normal -0.975913 -0 -0.218162
    outer loop
      vertex 3.77747 2.5 -1.83011
      vertex 3.83092 -2.5 -2.06921
      vertex 3.77747 -2.5 -1.83011
    endloop
  endfacet
  facet normal -0.156447 0 -0.987686
    outer loop
      vertex 0.488799 -2.5 1.06925
      vertex 0.730786 2.5 1.03092
      vertex 0.730786 -2.5 1.03092
    endloop
  endfacet
  facet normal -0.156447 0 -0.987686
    outer loop
      vertex 0.730786 2.5 1.03092
      vertex 0.488799 -2.5 1.06925
      vertex 0.488799 2.5 1.06925
    endloop
  endfacet
  facet normal -0.612908 0 -0.790155
    outer loop
      vertex 2.29236 -2.5 0.355165
      vertex 2.48595 2.5 0.205001
      vertex 2.48595 -2.5 0.205001
    endloop
  endfacet
  facet normal -0.612908 0 -0.790155
    outer loop
      vertex 2.48595 2.5 0.205001
      vertex 2.29236 -2.5 0.355165
      vertex 2.29236 2.5 0.355165
    endloop
  endfacet
  facet normal 0.827086 0 -0.562076
    outer loop
      vertex -3.15517 -2.5 -0.507637
      vertex -3.29288 2.5 -0.710275
      vertex -3.15517 2.5 -0.507637
    endloop
  endfacet
  facet normal 0.827086 0 -0.562076
    outer loop
      vertex -3.29288 2.5 -0.710275
      vertex -3.15517 -2.5 -0.507637
      vertex -3.29288 -2.5 -0.710275
    endloop
  endfacet
  facet normal 0.860737 0 -0.50905
    outer loop
      vertex -3.29288 -2.5 -0.710275
      vertex -3.4176 2.5 -0.92116
      vertex -3.29288 2.5 -0.710275
    endloop
  endfacet
  facet normal 0.860737 0 -0.50905
    outer loop
      vertex -3.4176 2.5 -0.92116
      vertex -3.29288 -2.5 -0.710275
      vertex -3.4176 -2.5 -0.92116
    endloop
  endfacet
  facet normal 0.975913 0 -0.218162
    outer loop
      vertex -3.77747 -2.5 -1.83011
      vertex -3.83092 2.5 -2.06921
      vertex -3.77747 2.5 -1.83011
    endloop
  endfacet
  facet normal 0.975913 0 -0.218162
    outer loop
      vertex -3.83092 2.5 -2.06921
      vertex -3.77747 -2.5 -1.83011
      vertex -3.83092 -2.5 -2.06921
    endloop
  endfacet
  facet normal 0.987687 0 -0.156445
    outer loop
      vertex -3.83092 -2.5 -2.06921
      vertex -3.86925 2.5 -2.3112
      vertex -3.83092 2.5 -2.06921
    endloop
  endfacet
  facet normal 0.987687 0 -0.156445
    outer loop
      vertex -3.86925 2.5 -2.3112
      vertex -3.83092 -2.5 -2.06921
      vertex -3.86925 -2.5 -2.3112
    endloop
  endfacet
  facet normal 0.562081 0 -0.827082
    outer loop
      vertex -2.29236 -2.5 0.355165
      vertex -2.08972 2.5 0.492878
      vertex -2.08972 -2.5 0.492878
    endloop
  endfacet
  facet normal 0.562081 0 -0.827082
    outer loop
      vertex -2.08972 2.5 0.492878
      vertex -2.29236 -2.5 0.355165
      vertex -2.29236 2.5 0.355165
    endloop
  endfacet
  facet normal 0.0940806 0 -0.995565
    outer loop
      vertex -0.488799 -2.5 1.06925
      vertex -0.244883 2.5 1.0923
      vertex -0.244883 -2.5 1.0923
    endloop
  endfacet
  facet normal 0.0940806 0 -0.995565
    outer loop
      vertex -0.244883 2.5 1.0923
      vertex -0.488799 -2.5 1.06925
      vertex -0.488799 2.5 1.06925
    endloop
  endfacet
  facet normal -0.987687 0 -0.156445
    outer loop
      vertex 3.86925 -2.5 -2.3112
      vertex 3.83092 2.5 -2.06921
      vertex 3.86925 2.5 -2.3112
    endloop
  endfacet
  facet normal -0.987687 -0 -0.156445
    outer loop
      vertex 3.83092 2.5 -2.06921
      vertex 3.86925 -2.5 -2.3112
      vertex 3.83092 -2.5 -2.06921
    endloop
  endfacet
  facet normal -0.750119 0 -0.661303
    outer loop
      vertex 3.005 -2.5 -0.314046
      vertex 2.84298 2.5 -0.130266
      vertex 3.005 2.5 -0.314046
    endloop
  endfacet
  facet normal -0.750119 -0 -0.661303
    outer loop
      vertex 2.84298 2.5 -0.130266
      vertex 3.005 -2.5 -0.314046
      vertex 2.84298 -2.5 -0.130266
    endloop
  endfacet
  facet normal -0.827086 0 -0.562076
    outer loop
      vertex 3.29288 -2.5 -0.710275
      vertex 3.15517 2.5 -0.507637
      vertex 3.29288 2.5 -0.710275
    endloop
  endfacet
  facet normal -0.827086 -0 -0.562076
    outer loop
      vertex 3.15517 2.5 -0.507637
      vertex 3.29288 -2.5 -0.710275
      vertex 3.15517 -2.5 -0.507637
    endloop
  endfacet
  facet normal -0.891022 0 -0.45396
    outer loop
      vertex 3.52882 -2.5 -1.13946
      vertex 3.4176 2.5 -0.92116
      vertex 3.52882 2.5 -1.13946
    endloop
  endfacet
  facet normal -0.891022 -0 -0.45396
    outer loop
      vertex 3.4176 2.5 -0.92116
      vertex 3.52882 -2.5 -1.13946
      vertex 3.4176 -2.5 -0.92116
    endloop
  endfacet
  facet normal -0.0940806 0 -0.995565
    outer loop
      vertex 0.244883 -2.5 1.0923
      vertex 0.488799 2.5 1.06925
      vertex 0.488799 -2.5 1.06925
    endloop
  endfacet
  facet normal -0.0940806 0 -0.995565
    outer loop
      vertex 0.488799 2.5 1.06925
      vertex 0.244883 -2.5 1.0923
      vertex 0.244883 2.5 1.0923
    endloop
  endfacet
  facet normal -0.278987 0 -0.960295
    outer loop
      vertex 0.96989 -2.5 0.977474
      vertex 1.20517 2.5 0.90912
      vertex 1.20517 -2.5 0.90912
    endloop
  endfacet
  facet normal -0.278987 0 -0.960295
    outer loop
      vertex 1.20517 2.5 0.90912
      vertex 0.96989 -2.5 0.977474
      vertex 0.96989 2.5 0.977474
    endloop
  endfacet
  facet normal -0.397154 0 -0.917752
    outer loop
      vertex 1.43569 -2.5 0.826128
      vertex 1.66054 2.5 0.728825
      vertex 1.66054 -2.5 0.728825
    endloop
  endfacet
  facet normal -0.397154 0 -0.917752
    outer loop
      vertex 1.66054 2.5 0.728825
      vertex 1.43569 -2.5 0.826128
      vertex 1.43569 2.5 0.826128
    endloop
  endfacet
  facet normal -0.509053 0 -0.860735
    outer loop
      vertex 1.87884 -2.5 0.617596
      vertex 2.08972 2.5 0.492878
      vertex 2.08972 -2.5 0.492878
    endloop
  endfacet
  facet normal -0.509053 0 -0.860735
    outer loop
      vertex 2.08972 2.5 0.492878
      vertex 1.87884 -2.5 0.617596
      vertex 1.87884 2.5 0.617596
    endloop
  endfacet
  facet normal -0.661311 0 -0.750111
    outer loop
      vertex 2.48595 -2.5 0.205001
      vertex 2.66973 2.5 0.0429773
      vertex 2.66973 -2.5 0.0429773
    endloop
  endfacet
  facet normal -0.661311 0 -0.750111
    outer loop
      vertex 2.66973 2.5 0.0429773
      vertex 2.48595 -2.5 0.205001
      vertex 2.48595 2.5 0.205001
    endloop
  endfacet
  facet normal 0.995565 0 -0.0940725
    outer loop
      vertex -3.86925 -2.5 -2.3112
      vertex -3.88709 2.5 -2.5
      vertex -3.86925 2.5 -2.3112
    endloop
  endfacet
  facet normal 0.995565 0 -0.0940725
    outer loop
      vertex -3.88709 2.5 -2.5
      vertex -3.86925 -2.5 -2.3112
      vertex -3.88709 -2.5 -2.5
    endloop
  endfacet
  facet normal 0.917742 0 -0.397178
    outer loop
      vertex -3.52882 -2.5 -1.13946
      vertex -3.62613 2.5 -1.36431
      vertex -3.52882 2.5 -1.13946
    endloop
  endfacet
  facet normal 0.917742 0 -0.397178
    outer loop
      vertex -3.62613 2.5 -1.36431
      vertex -3.52882 -2.5 -1.13946
      vertex -3.62613 -2.5 -1.36431
    endloop
  endfacet
  facet normal 0.940884 0 -0.33873
    outer loop
      vertex -3.62613 -2.5 -1.36431
      vertex -3.70912 2.5 -1.59483
      vertex -3.62613 2.5 -1.36431
    endloop
  endfacet
  facet normal 0.940884 0 -0.33873
    outer loop
      vertex -3.70912 2.5 -1.59483
      vertex -3.62613 -2.5 -1.36431
      vertex -3.70912 -2.5 -1.59483
    endloop
  endfacet
  facet normal 0.612908 0 -0.790155
    outer loop
      vertex -2.48595 -2.5 0.205001
      vertex -2.29236 2.5 0.355165
      vertex -2.29236 -2.5 0.355165
    endloop
  endfacet
  facet normal 0.612908 0 -0.790155
    outer loop
      vertex -2.29236 2.5 0.355165
      vertex -2.48595 -2.5 0.205001
      vertex -2.48595 2.5 0.205001
    endloop
  endfacet
  facet normal 0.453989 0 -0.891007
    outer loop
      vertex -1.87884 -2.5 0.617596
      vertex -1.66054 2.5 0.728825
      vertex -1.66054 -2.5 0.728825
    endloop
  endfacet
  facet normal 0.453989 0 -0.891007
    outer loop
      vertex -1.66054 2.5 0.728825
      vertex -1.87884 -2.5 0.617596
      vertex -1.87884 2.5 0.617596
    endloop
  endfacet
  facet normal 0.278987 0 -0.960295
    outer loop
      vertex -1.20517 -2.5 0.90912
      vertex -0.96989 2.5 0.977474
      vertex -0.96989 -2.5 0.977474
    endloop
  endfacet
  facet normal 0.278987 0 -0.960295
    outer loop
      vertex -0.96989 2.5 0.977474
      vertex -1.20517 -2.5 0.90912
      vertex -1.20517 2.5 0.90912
    endloop
  endfacet
  facet normal 0.338737 0 -0.940881
    outer loop
      vertex -1.43569 -2.5 0.826128
      vertex -1.20517 2.5 0.90912
      vertex -1.20517 -2.5 0.90912
    endloop
  endfacet
  facet normal 0.338737 0 -0.940881
    outer loop
      vertex -1.20517 2.5 0.90912
      vertex -1.43569 -2.5 0.826128
      vertex -1.43569 2.5 0.826128
    endloop
  endfacet
  facet normal 0.218143 0 -0.975917
    outer loop
      vertex -0.96989 -2.5 0.977474
      vertex -0.730786 2.5 1.03092
      vertex -0.730786 -2.5 1.03092
    endloop
  endfacet
  facet normal 0.218143 0 -0.975917
    outer loop
      vertex -0.730786 2.5 1.03092
      vertex -0.96989 -2.5 0.977474
      vertex -0.96989 2.5 0.977474
    endloop
  endfacet
  facet normal -0.960299 0 -0.278972
    outer loop
      vertex 3.77747 -2.5 -1.83011
      vertex 3.70912 2.5 -1.59483
      vertex 3.77747 2.5 -1.83011
    endloop
  endfacet
  facet normal -0.960299 -0 -0.278972
    outer loop
      vertex 3.70912 2.5 -1.59483
      vertex 3.77747 -2.5 -1.83011
      vertex 3.70912 -2.5 -1.59483
    endloop
  endfacet
  facet normal -0.940884 0 -0.33873
    outer loop
      vertex 3.70912 -2.5 -1.59483
      vertex 3.62613 2.5 -1.36431
      vertex 3.70912 2.5 -1.59483
    endloop
  endfacet
  facet normal -0.940884 -0 -0.33873
    outer loop
      vertex 3.62613 2.5 -1.36431
      vertex 3.70912 -2.5 -1.59483
      vertex 3.62613 -2.5 -1.36431
    endloop
  endfacet
  facet normal -0.790144 0 -0.612921
    outer loop
      vertex 3.15517 -2.5 -0.507637
      vertex 3.005 2.5 -0.314046
      vertex 3.15517 2.5 -0.507637
    endloop
  endfacet
  facet normal -0.790144 -0 -0.612921
    outer loop
      vertex 3.005 2.5 -0.314046
      vertex 3.15517 -2.5 -0.507637
      vertex 3.005 -2.5 -0.314046
    endloop
  endfacet
  facet normal -0.860737 0 -0.50905
    outer loop
      vertex 3.4176 -2.5 -0.92116
      vertex 3.29288 2.5 -0.710275
      vertex 3.4176 2.5 -0.92116
    endloop
  endfacet
  facet normal -0.860737 -0 -0.50905
    outer loop
      vertex 3.29288 2.5 -0.710275
      vertex 3.4176 -2.5 -0.92116
      vertex 3.29288 -2.5 -0.710275
    endloop
  endfacet
  facet normal -0.338737 0 -0.940881
    outer loop
      vertex 1.20517 -2.5 0.90912
      vertex 1.43569 2.5 0.826128
      vertex 1.43569 -2.5 0.826128
    endloop
  endfacet
  facet normal -0.338737 0 -0.940881
    outer loop
      vertex 1.43569 2.5 0.826128
      vertex 1.20517 -2.5 0.90912
      vertex 1.20517 2.5 0.90912
    endloop
  endfacet
  facet normal -0.218143 0 -0.975917
    outer loop
      vertex 0.730786 -2.5 1.03092
      vertex 0.96989 2.5 0.977474
      vertex 0.96989 -2.5 0.977474
    endloop
  endfacet
  facet normal -0.218143 0 -0.975917
    outer loop
      vertex 0.96989 2.5 0.977474
      vertex 0.730786 -2.5 1.03092
      vertex 0.730786 2.5 1.03092
    endloop
  endfacet
  facet normal -0.0314281 0 -0.999506
    outer loop
      vertex 0 -2.5 1.1
      vertex 0.244883 2.5 1.0923
      vertex 0.244883 -2.5 1.0923
    endloop
  endfacet
  facet normal -0.0314281 0 -0.999506
    outer loop
      vertex 0.244883 2.5 1.0923
      vertex 0 -2.5 1.1
      vertex 0 2.5 1.1
    endloop
  endfacet
  facet normal -0.453989 0 -0.891007
    outer loop
      vertex 1.66054 -2.5 0.728825
      vertex 1.87884 2.5 0.617596
      vertex 1.87884 -2.5 0.617596
    endloop
  endfacet
  facet normal -0.453989 0 -0.891007
    outer loop
      vertex 1.87884 2.5 0.617596
      vertex 1.66054 -2.5 0.728825
      vertex 1.66054 2.5 0.728825
    endloop
  endfacet
  facet normal 0.790144 0 -0.612921
    outer loop
      vertex -3.005 -2.5 -0.314046
      vertex -3.15517 2.5 -0.507637
      vertex -3.005 2.5 -0.314046
    endloop
  endfacet
  facet normal 0.790144 0 -0.612921
    outer loop
      vertex -3.15517 2.5 -0.507637
      vertex -3.005 -2.5 -0.314046
      vertex -3.15517 -2.5 -0.507637
    endloop
  endfacet
  facet normal 0.750119 0 -0.661303
    outer loop
      vertex -2.84298 -2.5 -0.130266
      vertex -3.005 2.5 -0.314046
      vertex -2.84298 2.5 -0.130266
    endloop
  endfacet
  facet normal 0.750119 0 -0.661303
    outer loop
      vertex -3.005 2.5 -0.314046
      vertex -2.84298 -2.5 -0.130266
      vertex -3.005 -2.5 -0.314046
    endloop
  endfacet
  facet normal 0.891022 0 -0.45396
    outer loop
      vertex -3.4176 -2.5 -0.92116
      vertex -3.52882 2.5 -1.13946
      vertex -3.4176 2.5 -0.92116
    endloop
  endfacet
  facet normal 0.891022 0 -0.45396
    outer loop
      vertex -3.52882 2.5 -1.13946
      vertex -3.4176 -2.5 -0.92116
      vertex -3.52882 -2.5 -1.13946
    endloop
  endfacet
  facet normal 0.960299 0 -0.278972
    outer loop
      vertex -3.70912 -2.5 -1.59483
      vertex -3.77747 2.5 -1.83011
      vertex -3.70912 2.5 -1.59483
    endloop
  endfacet
  facet normal 0.960299 0 -0.278972
    outer loop
      vertex -3.77747 2.5 -1.83011
      vertex -3.70912 -2.5 -1.59483
      vertex -3.77747 -2.5 -1.83011
    endloop
  endfacet
  facet normal 0.661311 0 -0.750111
    outer loop
      vertex -2.66973 -2.5 0.0429773
      vertex -2.48595 2.5 0.205001
      vertex -2.48595 -2.5 0.205001
    endloop
  endfacet
  facet normal 0.661311 0 -0.750111
    outer loop
      vertex -2.48595 2.5 0.205001
      vertex -2.66973 -2.5 0.0429773
      vertex -2.66973 2.5 0.0429773
    endloop
  endfacet
  facet normal 0.509053 0 -0.860735
    outer loop
      vertex -2.08972 -2.5 0.492878
      vertex -1.87884 2.5 0.617596
      vertex -1.87884 -2.5 0.617596
    endloop
  endfacet
  facet normal 0.509053 0 -0.860735
    outer loop
      vertex -1.87884 2.5 0.617596
      vertex -2.08972 -2.5 0.492878
      vertex -2.08972 2.5 0.492878
    endloop
  endfacet
  facet normal 0.156447 0 -0.987686
    outer loop
      vertex -0.730786 -2.5 1.03092
      vertex -0.488799 2.5 1.06925
      vertex -0.488799 -2.5 1.06925
    endloop
  endfacet
  facet normal 0.156447 0 -0.987686
    outer loop
      vertex -0.488799 2.5 1.06925
      vertex -0.730786 -2.5 1.03092
      vertex -0.730786 2.5 1.03092
    endloop
  endfacet
endsolid OpenSCAD_Model
