solid OpenSCAD_Model
  facet normal -1 0 0
    outer loop
      vertex -5 -2.5 -2.5
      vertex -5 2.5 2.5
      vertex -5 2.5 -2.5
    endloop
  endfacet
  facet normal -1 -0 0
    outer loop
      vertex -5 2.5 2.5
      vertex -5 -2.5 -2.5
      vertex -5 -2.5 2.5
    endloop
  endfacet
  facet normal -0 0 1
    outer loop
      vertex -5 2.5 2.5
      vertex 5 -2.5 2.5
      vertex 5 2.5 2.5
    endloop
  endfacet
  facet normal 0 0 1
    outer loop
      vertex 5 -2.5 2.5
      vertex -5 2.5 2.5
      vertex -5 -2.5 2.5
    endloop
  endfacet
  facet normal 1 -0 0
    outer loop
      vertex 5 -2.5 2.5
      vertex 5 2.5 -2.5
      vertex 5 2.5 2.5
    endloop
  endfacet
  facet normal 1 0 0
    outer loop
      vertex 5 2.5 -2.5
      vertex 5 -2.5 2.5
      vertex 5 -2.5 -2.5
    endloop
  endfacet
  facet normal 0 0 -1
    outer loop
      vertex -5 -2.5 -2.5
      vertex -3.49686 2.5 -2.5
      vertex -3.49686 -2.5 -2.5
    endloop
  endfacet
  facet normal -0 0 -1
    outer loop
      vertex -3.49686 2.5 -2.5
      vertex -5 -2.5 -2.5
      vertex -5 2.5 -2.5
    endloop
  endfacet
  facet normal 0 0 -1
    outer loop
      vertex 3.49686 -2.5 -2.5
      vertex 5 2.5 -2.5
      vertex 5 -2.5 -2.5
    endloop
  endfacet
  facet normal -0 0 -1
    outer loop
      vertex 5 2.5 -2.5
      vertex 3.49686 -2.5 -2.5
      vertex 3.49686 2.5 -2.5
    endloop
  endfacet
  facet normal 0 -1 0
    outer loop
      vertex -5 -2.5 2.5
      vertex 0 -2.5 0.9
      vertex 5 -2.5 2.5
    endloop
  endfacet
  facet normal 0 -1 0
    outer loop
      vertex -5 -2.5 2.5
      vertex -0.219767 -2.5 0.893093
      vertex 0 -2.5 0.9
    endloop
  endfacet
  facet normal 0 -1 0
    outer loop
      vertex -5 -2.5 2.5
      vertex -0.438665 -2.5 0.872401
      vertex -0.219767 -2.5 0.893093
    endloop
  endfacet
  facet normal 0 -1 0
    outer loop
      vertex -5 -2.5 2.5
      vertex -0.655834 -2.5 0.838005
      vertex -0.438665 -2.5 0.872401
    endloop
  endfacet
  facet normal 0 -1 0
    outer loop
      vertex -5 -2.5 2.5
      vertex -0.870414 -2.5 0.790041
      vertex -0.655834 -2.5 0.838005
    endloop
  endfacet
  facet normal 0 -1 0
    outer loop
      vertex -5 -2.5 2.5
      vertex -1.08156 -2.5 0.728698
      vertex -0.870414 -2.5 0.790041
    endloop
  endfacet
  facet normal 0 -1 0
    outer loop
      vertex -5 -2.5 2.5
      vertex -1.28843 -2.5 0.654217
      vertex -1.08156 -2.5 0.728698
    endloop
  endfacet
  facet normal 0 -1 0
    outer loop
      vertex -5 -2.5 2.5
      vertex -1.49023 -2.5 0.566895
      vertex -1.28843 -2.5 0.654217
    endloop
  endfacet
  facet normal 0 -1 0
    outer loop
      vertex -5 -2.5 2.5
      vertex -1.68614 -2.5 0.467072
      vertex -1.49023 -2.5 0.566895
    endloop
  endfacet
  facet normal 0 -1 0
    outer loop
      vertex -5 -2.5 2.5
      vertex -1.87539 -2.5 0.355147
      vertex -1.68614 -2.5 0.467072
    endloop
  endfacet
  facet normal 0 -1 0
    outer loop
      vertex -5 -2.5 2.5
      vertex -2.05725 -2.5 0.231559
      vertex -1.87539 -2.5 0.355147
    endloop
  endfacet
  facet normal 0 -1 0
    outer loop
      vertex -5 -2.5 2.5
      vertex -2.23098 -2.5 0.096796
      vertex -2.05725 -2.5 0.231559
    endloop
  endfacet
  facet normal 0 -1 0
    outer loop
      vertex -5 -2.5 2.5
      vertex -2.39591 -2.5 -0.0486097
      vertex -2.23098 -2.5 0.096796
    endloop
  endfacet
  facet normal 0 -1 0
    outer loop
      vertex -5 -2.5 2.5
      vertex -2.55139 -2.5 -0.204084
      vertex -2.39591 -2.5 -0.0486097
    endloop
  endfacet
  facet normal 0 -1 0
    outer loop
      vertex -5 -2.5 2.5
      vertex -2.6968 -2.5 -0.369016
      vertex -2.55139 -2.5 -0.204084
    endloop
  endfacet
  facet normal 0 -1 0
    outer loop
      vertex -5 -2.5 2.5
      vertex -2.83156 -2.5 -0.542751
      vertex -2.6968 -2.5 -0.369016
    endloop
  endfacet
  facet normal 0 -1 0
    outer loop
      vertex -5 -2.5 2.5
      vertex -2.95515 -2.5 -0.724606
      vertex -2.83156 -2.5 -0.542751
    endloop
  endfacet
  facet normal 0 -1 0
    outer loop
      vertex -5 -2.5 2.5
      vertex -3.06707 -2.5 -0.913861
      vertex -2.95515 -2.5 -0.724606
    endloop
  endfacet
  facet normal 0 -1 0
    outer loop
      vertex -5 -2.5 2.5
      vertex -3.16689 -2.5 -1.10977
      vertex -3.06707 -2.5 -0.913861
    endloop
  endfacet
  facet normal 0 -1 0
    outer loop
      vertex -5 -2.5 -2.5
      vertex -3.16689 -2.5 -1.10977
      vertex -5 -2.5 2.5
    endloop
  endfacet
  facet normal 0 -1 0
    outer loop
      vertex -3.16689 -2.5 -1.10977
      vertex -5 -2.5 -2.5
      vertex -3.25422 -2.5 -1.31156
    endloop
  endfacet
  facet normal 0 -1 0
    outer loop
      vertex -3.25422 -2.5 -1.31156
      vertex -5 -2.5 -2.5
      vertex -3.3287 -2.5 -1.51844
    endloop
  endfacet
  facet normal 0 -1 0
    outer loop
      vertex -3.3287 -2.5 -1.51844
      vertex -5 -2.5 -2.5
      vertex -3.39004 -2.5 -1.72958
    endloop
  endfacet
  facet normal 0 -1 0
    outer loop
      vertex -3.39004 -2.5 -1.72958
      vertex -5 -2.5 -2.5
      vertex -3.438 -2.5 -1.94417
    endloop
  endfacet
  facet normal 0 -1 0
    outer loop
      vertex -3.438 -2.5 -1.94417
      vertex -5 -2.5 -2.5
      vertex -3.4724 -2.5 -2.16133
    endloop
  endfacet
  facet normal 0 -1 0
    outer loop
      vertex -3.4724 -2.5 -2.16133
      vertex -5 -2.5 -2.5
      vertex -3.49309 -2.5 -2.38023
    endloop
  endfacet
  facet normal 0 -1 0
    outer loop
      vertex -3.49309 -2.5 -2.38023
      vertex -5 -2.5 -2.5
      vertex -3.49686 -2.5 -2.5
    endloop
  endfacet
  facet normal 0 -1 0
    outer loop
      vertex 0.219767 -2.5 0.893093
      vertex 5 -2.5 2.5
      vertex 0 -2.5 0.9
    endloop
  endfacet
  facet normal 0 -1 0
    outer loop
      vertex 0.438665 -2.5 0.872401
      vertex 5 -2.5 2.5
      vertex 0.219767 -2.5 0.893093
    endloop
  endfacet
  facet normal 0 -1 0
    outer loop
      vertex 0.655834 -2.5 0.838005
      vertex 5 -2.5 2.5
      vertex 0.438665 -2.5 0.872401
    endloop
  endfacet
  facet normal 0 -1 0
    outer loop
      vertex 0.870414 -2.5 0.790041
      vertex 5 -2.5 2.5
      vertex 0.655834 -2.5 0.838005
    endloop
  endfacet
  facet normal 0 -1 0
    outer loop
      vertex 1.08156 -2.5 0.728698
      vertex 5 -2.5 2.5
      vertex 0.870414 -2.5 0.790041
    endloop
  endfacet
  facet normal 0 -1 0
    outer loop
      vertex 1.28843 -2.5 0.654217
      vertex 5 -2.5 2.5
      vertex 1.08156 -2.5 0.728698
    endloop
  endfacet
  facet normal 0 -1 0
    outer loop
      vertex 1.49023 -2.5 0.566895
      vertex 5 -2.5 2.5
      vertex 1.28843 -2.5 0.654217
    endloop
  endfacet
  facet normal 0 -1 0
    outer loop
      vertex 1.68614 -2.5 0.467072
      vertex 5 -2.5 2.5
      vertex 1.49023 -2.5 0.566895
    endloop
  endfacet
  facet normal 0 -1 0
    outer loop
      vertex 1.87539 -2.5 0.355147
      vertex 5 -2.5 2.5
      vertex 1.68614 -2.5 0.467072
    endloop
  endfacet
  facet normal 0 -1 0
    outer loop
      vertex 2.05725 -2.5 0.231559
      vertex 5 -2.5 2.5
      vertex 1.87539 -2.5 0.355147
    endloop
  endfacet
  facet normal 0 -1 0
    outer loop
      vertex 2.23098 -2.5 0.096796
      vertex 5 -2.5 2.5
      vertex 2.05725 -2.5 0.231559
    endloop
  endfacet
  facet normal 0 -1 0
    outer loop
      vertex 2.39591 -2.5 -0.0486097
      vertex 5 -2.5 2.5
      vertex 2.23098 -2.5 0.096796
    endloop
  endfacet
  facet normal 0 -1 0
    outer loop
      vertex 2.55139 -2.5 -0.204084
      vertex 5 -2.5 2.5
      vertex 2.39591 -2.5 -0.0486097
    endloop
  endfacet
  facet normal 0 -1 0
    outer loop
      vertex 2.6968 -2.5 -0.369016
      vertex 5 -2.5 2.5
      vertex 2.55139 -2.5 -0.204084
    endloop
  endfacet
  facet normal 0 -1 0
    outer loop
      vertex 2.83156 -2.5 -0.542751
      vertex 5 -2.5 2.5
      vertex 2.6968 -2.5 -0.369016
    endloop
  endfacet
  facet normal 0 -1 0
    outer loop
      vertex 2.95515 -2.5 -0.724606
      vertex 5 -2.5 2.5
      vertex 2.83156 -2.5 -0.542751
    endloop
  endfacet
  facet normal 0 -1 0
    outer loop
      vertex 3.06707 -2.5 -0.913861
      vertex 5 -2.5 2.5
      vertex 2.95515 -2.5 -0.724606
    endloop
  endfacet
  facet normal 0 -1 0
    outer loop
      vertex 3.16689 -2.5 -1.10977
      vertex 5 -2.5 2.5
      vertex 3.06707 -2.5 -0.913861
    endloop
  endfacet
  facet normal 0 -1 0
    outer loop
      vertex 5 -2.5 -2.5
      vertex 3.16689 -2.5 -1.10977
      vertex 3.25422 -2.5 -1.31156
    endloop
  endfacet
  facet normal 0 -1 0
    outer loop
      vertex 5 -2.5 -2.5
      vertex 3.25422 -2.5 -1.31156
      vertex 3.3287 -2.5 -1.51844
    endloop
  endfacet
  facet normal 0 -1 0
    outer loop
      vertex 5 -2.5 -2.5
      vertex 3.3287 -2.5 -1.51844
      vertex 3.39004 -2.5 -1.72958
    endloop
  endfacet
  facet normal 0 -1 0
    outer loop
      vertex 5 -2.5 -2.5
      vertex 3.39004 -2.5 -1.72958
      vertex 3.438 -2.5 -1.94417
    endloop
  endfacet
  facet normal 0 -1 0
    outer loop
      vertex 5 -2.5 -2.5
      vertex 3.438 -2.5 -1.94417
      vertex 3.4724 -2.5 -2.16133
    endloop
  endfacet
  facet normal 0 -1 0
    outer loop
      vertex 5 -2.5 -2.5
      vertex 3.4724 -2.5 -2.16133
      vertex 3.49309 -2.5 -2.38023
    endloop
  endfacet
  facet normal 0 -1 0
    outer loop
      vertex 5 -2.5 -2.5
      vertex 3.49309 -2.5 -2.38023
      vertex 3.49686 -2.5 -2.5
    endloop
  endfacet
  facet normal 0 -1 0
    outer loop
      vertex 3.16689 -2.5 -1.10977
      vertex 5 -2.5 -2.5
      vertex 5 -2.5 2.5
    endloop
  endfacet
  facet normal 0 1 0
    outer loop
      vertex 5 2.5 2.5
      vertex 0 2.5 0.9
      vertex -5 2.5 2.5
    endloop
  endfacet
  facet normal 0 1 0
    outer loop
      vertex 5 2.5 2.5
      vertex 0.219767 2.5 0.893093
      vertex 0 2.5 0.9
    endloop
  endfacet
  facet normal 0 1 0
    outer loop
      vertex 5 2.5 2.5
      vertex 0.438665 2.5 0.872401
      vertex 0.219767 2.5 0.893093
    endloop
  endfacet
  facet normal 0 1 0
    outer loop
      vertex 5 2.5 2.5
      vertex 0.655834 2.5 0.838005
      vertex 0.438665 2.5 0.872401
    endloop
  endfacet
  facet normal 0 1 0
    outer loop
      vertex 5 2.5 2.5
      vertex 0.870414 2.5 0.790041
      vertex 0.655834 2.5 0.838005
    endloop
  endfacet
  facet normal 0 1 0
    outer loop
      vertex 5 2.5 2.5
      vertex 1.08156 2.5 0.728698
      vertex 0.870414 2.5 0.790041
    endloop
  endfacet
  facet normal 0 1 0
    outer loop
      vertex 5 2.5 2.5
      vertex 1.28843 2.5 0.654217
      vertex 1.08156 2.5 0.728698
    endloop
  endfacet
  facet normal 0 1 0
    outer loop
      vertex 5 2.5 2.5
      vertex 1.49023 2.5 0.566895
      vertex 1.28843 2.5 0.654217
    endloop
  endfacet
  facet normal 0 1 0
    outer loop
      vertex 5 2.5 2.5
      vertex 1.68614 2.5 0.467072
      vertex 1.49023 2.5 0.566895
    endloop
  endfacet
  facet normal 0 1 0
    outer loop
      vertex 5 2.5 2.5
      vertex 1.87539 2.5 0.355147
      vertex 1.68614 2.5 0.467072
    endloop
  endfacet
  facet normal 0 1 0
    outer loop
      vertex 5 2.5 2.5
      vertex 2.05725 2.5 0.231559
      vertex 1.87539 2.5 0.355147
    endloop
  endfacet
  facet normal 0 1 0
    outer loop
      vertex 5 2.5 2.5
      vertex 2.23098 2.5 0.096796
      vertex 2.05725 2.5 0.231559
    endloop
  endfacet
  facet normal 0 1 0
    outer loop
      vertex 5 2.5 2.5
      vertex 2.39591 2.5 -0.0486097
      vertex 2.23098 2.5 0.096796
    endloop
  endfacet
  facet normal 0 1 0
    outer loop
      vertex 5 2.5 2.5
      vertex 2.55139 2.5 -0.204084
      vertex 2.39591 2.5 -0.0486097
    endloop
  endfacet
  facet normal 0 1 0
    outer loop
      vertex 5 2.5 2.5
      vertex 2.6968 2.5 -0.369016
      vertex 2.55139 2.5 -0.204084
    endloop
  endfacet
  facet normal 0 1 0
    outer loop
      vertex 5 2.5 2.5
      vertex 2.83156 2.5 -0.542751
      vertex 2.6968 2.5 -0.369016
    endloop
  endfacet
  facet normal 0 1 0
    outer loop
      vertex 5 2.5 2.5
      vertex 2.95515 2.5 -0.724606
      vertex 2.83156 2.5 -0.542751
    endloop
  endfacet
  facet normal 0 1 0
    outer loop
      vertex 5 2.5 2.5
      vertex 3.06707 2.5 -0.913861
      vertex 2.95515 2.5 -0.724606
    endloop
  endfacet
  facet normal 0 1 0
    outer loop
      vertex 5 2.5 2.5
      vertex 3.16689 2.5 -1.10977
      vertex 3.06707 2.5 -0.913861
    endloop
  endfacet
  facet normal 0 1 -0
    outer loop
      vertex 5 2.5 -2.5
      vertex 3.16689 2.5 -1.10977
      vertex 5 2.5 2.5
    endloop
  endfacet
  facet normal 0 1 0
    outer loop
      vertex 3.16689 2.5 -1.10977
      vertex 5 2.5 -2.5
      vertex 3.25422 2.5 -1.31156
    endloop
  endfacet
  facet normal 0 1 0
    outer loop
      vertex 3.25422 2.5 -1.31156
      vertex 5 2.5 -2.5
      vertex 3.3287 2.5 -1.51844
    endloop
  endfacet
  facet normal 0 1 0
    outer loop
      vertex 3.3287 2.5 -1.51844
      vertex 5 2.5 -2.5
      vertex 3.39004 2.5 -1.72958
    endloop
  endfacet
  facet normal 0 1 0
    outer loop
      vertex 3.39004 2.5 -1.72958
      vertex 5 2.5 -2.5
      vertex 3.438 2.5 -1.94417
    endloop
  endfacet
  facet normal 0 1 0
    outer loop
      vertex 3.438 2.5 -1.94417
      vertex 5 2.5 -2.5
      vertex 3.4724 2.5 -2.16133
    endloop
  endfacet
  facet normal 0 1 0
    outer loop
      vertex 3.4724 2.5 -2.16133
      vertex 5 2.5 -2.5
      vertex 3.49309 2.5 -2.38023
    endloop
  endfacet
  facet normal 0 1 0
    outer loop
      vertex 3.49309 2.5 -2.38023
      vertex 5 2.5 -2.5
      vertex 3.49686 2.5 -2.5
    endloop
  endfacet
  facet normal 0 1 -0
    outer loop
      vertex -0.219767 2.5 0.893093
      vertex -5 2.5 2.5
      vertex 0 2.5 0.9
    endloop
  endfacet
  facet normal 0 1 -0
    outer loop
      vertex -0.438665 2.5 0.872401
      vertex -5 2.5 2.5
      vertex -0.219767 2.5 0.893093
    endloop
  endfacet
  facet normal 0 1 -0
    outer loop
      vertex -0.655834 2.5 0.838005
      vertex -5 2.5 2.5
      vertex -0.438665 2.5 0.872401
    endloop
  endfacet
  facet normal 0 1 -0
    outer loop
      vertex -0.870414 2.5 0.790041
      vertex -5 2.5 2.5
      vertex -0.655834 2.5 0.838005
    endloop
  endfacet
  facet normal 0 1 -0
    outer loop
      vertex -1.08156 2.5 0.728698
      vertex -5 2.5 2.5
      vertex -0.870414 2.5 0.790041
    endloop
  endfacet
  facet normal 0 1 -0
    outer loop
      vertex -1.28843 2.5 0.654217
      vertex -5 2.5 2.5
      vertex -1.08156 2.5 0.728698
    endloop
  endfacet
  facet normal 0 1 -0
    outer loop
      vertex -1.49023 2.5 0.566895
      vertex -5 2.5 2.5
      vertex -1.28843 2.5 0.654217
    endloop
  endfacet
  facet normal 0 1 -0
    outer loop
      vertex -1.68614 2.5 0.467072
      vertex -5 2.5 2.5
      vertex -1.49023 2.5 0.566895
    endloop
  endfacet
  facet normal 0 1 -0
    outer loop
      vertex -1.87539 2.5 0.355147
      vertex -5 2.5 2.5
      vertex -1.68614 2.5 0.467072
    endloop
  endfacet
  facet normal 0 1 -0
    outer loop
      vertex -2.05725 2.5 0.231559
      vertex -5 2.5 2.5
      vertex -1.87539 2.5 0.355147
    endloop
  endfacet
  facet normal 0 1 -0
    outer loop
      vertex -2.23098 2.5 0.096796
      vertex -5 2.5 2.5
      vertex -2.05725 2.5 0.231559
    endloop
  endfacet
  facet normal 0 1 -0
    outer loop
      vertex -2.39591 2.5 -0.0486097
      vertex -5 2.5 2.5
      vertex -2.23098 2.5 0.096796
    endloop
  endfacet
  facet normal 0 1 -0
    outer loop
      vertex -2.55139 2.5 -0.204084
      vertex -5 2.5 2.5
      vertex -2.39591 2.5 -0.0486097
    endloop
  endfacet
  facet normal 0 1 -0
    outer loop
      vertex -2.6968 2.5 -0.369016
      vertex -5 2.5 2.5
      vertex -2.55139 2.5 -0.204084
    endloop
  endfacet
  facet normal 0 1 -0
    outer loop
      vertex -2.83156 2.5 -0.542751
      vertex -5 2.5 2.5
      vertex -2.6968 2.5 -0.369016
    endloop
  endfacet
  facet normal 0 1 -0
    outer loop
      vertex -2.95515 2.5 -0.724606
      vertex -5 2.5 2.5
      vertex -2.83156 2.5 -0.542751
    endloop
  endfacet
  facet normal 0 1 -0
    outer loop
      vertex -3.06707 2.5 -0.913861
      vertex -5 2.5 2.5
      vertex -2.95515 2.5 -0.724606
    endloop
  endfacet
  facet normal 0 1 -0
    outer loop
      vertex -3.16689 2.5 -1.10977
      vertex -5 2.5 2.5
      vertex -3.06707 2.5 -0.913861
    endloop
  endfacet
  facet normal 0 1 0
    outer loop
      vertex -5 2.5 -2.5
      vertex -3.16689 2.5 -1.10977
      vertex -3.25422 2.5 -1.31156
    endloop
  endfacet
  facet normal 0 1 0
    outer loop
      vertex -5 2.5 -2.5
      vertex -3.25422 2.5 -1.31156
      vertex -3.3287 2.5 -1.51844
    endloop
  endfacet
  facet normal 0 1 0
    outer loop
      vertex -5 2.5 -2.5
      vertex -3.3287 2.5 -1.51844
      vertex -3.39004 2.5 -1.72958
    endloop
  endfacet
  facet normal 0 1 0
    outer loop
      vertex -5 2.5 -2.5
      vertex -3.39004 2.5 -1.72958
      vertex -3.438 2.5 -1.94417
    endloop
  endfacet
  facet normal 0 1 0
    outer loop
      vertex -5 2.5 -2.5
      vertex -3.438 2.5 -1.94417
      vertex -3.4724 2.5 -2.16133
    endloop
  endfacet
  facet normal 0 1 0
    outer loop
      vertex -5 2.5 -2.5
      vertex -3.4724 2.5 -2.16133
      vertex -3.49309 2.5 -2.38023
    endloop
  endfacet
  facet normal 0 1 0
    outer loop
      vertex -5 2.5 -2.5
      vertex -3.49309 2.5 -2.38023
      vertex -3.49686 2.5 -2.5
    endloop
  endfacet
  facet normal 0 1 0
    outer loop
      vertex -3.16689 2.5 -1.10977
      vertex -5 2.5 -2.5
      vertex -5 2.5 2.5
    endloop
  endfacet
  facet normal -0.999505 0 -0.0314614
    outer loop
      vertex 3.49686 -2.5 -2.5
      vertex 3.49309 2.5 -2.38023
      vertex 3.49686 2.5 -2.5
    endloop
  endfacet
  facet normal -0.999505 -0 -0.0314614
    outer loop
      vertex 3.49309 2.5 -2.38023
      vertex 3.49686 -2.5 -2.5
      vertex 3.49309 -2.5 -2.38023
    endloop
  endfacet
  facet normal -0.995563 0 -0.0940987
    outer loop
      vertex 3.49309 -2.5 -2.38023
      vertex 3.4724 2.5 -2.16133
      vertex 3.49309 2.5 -2.38023
    endloop
  endfacet
  facet normal -0.995563 -0 -0.0940987
    outer loop
      vertex 3.4724 2.5 -2.16133
      vertex 3.49309 -2.5 -2.38023
      vertex 3.4724 -2.5 -2.16133
    endloop
  endfacet
  facet normal 0.999505 0 -0.0314614
    outer loop
      vertex -3.49309 -2.5 -2.38023
      vertex -3.49686 2.5 -2.5
      vertex -3.49309 2.5 -2.38023
    endloop
  endfacet
  facet normal 0.999505 0 -0.0314614
    outer loop
      vertex -3.49686 2.5 -2.5
      vertex -3.49309 -2.5 -2.38023
      vertex -3.49686 -2.5 -2.5
    endloop
  endfacet
  facet normal -0.0314132 0 -0.999506
    outer loop
      vertex 0 -2.5 0.9
      vertex 0.219767 2.5 0.893093
      vertex 0.219767 -2.5 0.893093
    endloop
  endfacet
  facet normal -0.0314132 0 -0.999506
    outer loop
      vertex 0.219767 2.5 0.893093
      vertex 0 -2.5 0.9
      vertex 0 2.5 0.9
    endloop
  endfacet
  facet normal -0.707094 0 -0.70712
    outer loop
      vertex 2.39591 -2.5 -0.0486097
      vertex 2.55139 2.5 -0.204084
      vertex 2.55139 -2.5 -0.204084
    endloop
  endfacet
  facet normal -0.707094 0 -0.70712
    outer loop
      vertex 2.55139 2.5 -0.204084
      vertex 2.39591 -2.5 -0.0486097
      vertex 2.39591 2.5 -0.0486097
    endloop
  endfacet
  facet normal 0.707094 0 -0.70712
    outer loop
      vertex -2.55139 -2.5 -0.204084
      vertex -2.39591 2.5 -0.0486097
      vertex -2.39591 -2.5 -0.0486097
    endloop
  endfacet
  facet normal 0.707094 0 -0.70712
    outer loop
      vertex -2.39591 2.5 -0.0486097
      vertex -2.55139 -2.5 -0.204084
      vertex -2.55139 2.5 -0.204084
    endloop
  endfacet
  facet normal -0.917742 0 -0.397177
    outer loop
      vertex 3.25422 -2.5 -1.31156
      vertex 3.16689 2.5 -1.10977
      vertex 3.25422 2.5 -1.31156
    endloop
  endfacet
  facet normal -0.917742 -0 -0.397177
    outer loop
      vertex 3.16689 2.5 -1.10977
      vertex 3.25422 -2.5 -1.31156
      vertex 3.16689 -2.5 -1.10977
    endloop
  endfacet
  facet normal -0.39713 0 -0.917762
    outer loop
      vertex 1.28843 -2.5 0.654217
      vertex 1.49023 2.5 0.566895
      vertex 1.49023 -2.5 0.566895
    endloop
  endfacet
  facet normal -0.39713 0 -0.917762
    outer loop
      vertex 1.49023 2.5 0.566895
      vertex 1.28843 -2.5 0.654217
      vertex 1.28843 2.5 0.654217
    endloop
  endfacet
  facet normal 0.827077 0 -0.562088
    outer loop
      vertex -2.83156 -2.5 -0.542751
      vertex -2.95515 2.5 -0.724606
      vertex -2.83156 2.5 -0.542751
    endloop
  endfacet
  facet normal 0.827077 0 -0.562088
    outer loop
      vertex -2.95515 2.5 -0.724606
      vertex -2.83156 -2.5 -0.542751
      vertex -2.95515 -2.5 -0.724606
    endloop
  endfacet
  facet normal -0.975923 0 -0.218115
    outer loop
      vertex 3.438 -2.5 -1.94417
      vertex 3.39004 2.5 -1.72958
      vertex 3.438 2.5 -1.94417
    endloop
  endfacet
  facet normal -0.975923 -0 -0.218115
    outer loop
      vertex 3.39004 2.5 -1.72958
      vertex 3.438 -2.5 -1.94417
      vertex 3.39004 -2.5 -1.72958
    endloop
  endfacet
  facet normal -0.891008 0 -0.453988
    outer loop
      vertex 3.16689 -2.5 -1.10977
      vertex 3.06707 2.5 -0.913861
      vertex 3.16689 2.5 -1.10977
    endloop
  endfacet
  facet normal -0.891008 -0 -0.453988
    outer loop
      vertex 3.06707 2.5 -0.913861
      vertex 3.16689 -2.5 -1.10977
      vertex 3.06707 -2.5 -0.913861
    endloop
  endfacet
  facet normal -0.750105 0 -0.661319
    outer loop
      vertex 2.6968 -2.5 -0.369016
      vertex 2.55139 2.5 -0.204084
      vertex 2.6968 2.5 -0.369016
    endloop
  endfacet
  facet normal -0.750105 -0 -0.661319
    outer loop
      vertex 2.55139 2.5 -0.204084
      vertex 2.6968 -2.5 -0.369016
      vertex 2.55139 -2.5 -0.204084
    endloop
  endfacet
  facet normal -0.218142 0 -0.975917
    outer loop
      vertex 0.655834 -2.5 0.838005
      vertex 0.870414 2.5 0.790041
      vertex 0.870414 -2.5 0.790041
    endloop
  endfacet
  facet normal -0.218142 0 -0.975917
    outer loop
      vertex 0.870414 2.5 0.790041
      vertex 0.655834 -2.5 0.838005
      vertex 0.655834 2.5 0.838005
    endloop
  endfacet
  facet normal -0.661313 0 -0.75011
    outer loop
      vertex 2.23098 -2.5 0.096796
      vertex 2.39591 2.5 -0.0486097
      vertex 2.39591 -2.5 -0.0486097
    endloop
  endfacet
  facet normal -0.661313 0 -0.75011
    outer loop
      vertex 2.39591 2.5 -0.0486097
      vertex 2.23098 -2.5 0.096796
      vertex 2.23098 2.5 0.096796
    endloop
  endfacet
  facet normal -0.453997 0 -0.891003
    outer loop
      vertex 1.49023 -2.5 0.566895
      vertex 1.68614 2.5 0.467072
      vertex 1.68614 -2.5 0.467072
    endloop
  endfacet
  facet normal -0.453997 0 -0.891003
    outer loop
      vertex 1.68614 2.5 0.467072
      vertex 1.49023 -2.5 0.566895
      vertex 1.49023 2.5 0.566895
    endloop
  endfacet
  facet normal 0.975923 0 -0.218115
    outer loop
      vertex -3.39004 -2.5 -1.72958
      vertex -3.438 2.5 -1.94417
      vertex -3.39004 2.5 -1.72958
    endloop
  endfacet
  facet normal 0.975923 0 -0.218115
    outer loop
      vertex -3.438 2.5 -1.94417
      vertex -3.39004 -2.5 -1.72958
      vertex -3.438 -2.5 -1.94417
    endloop
  endfacet
  facet normal 0.860752 0 -0.509024
    outer loop
      vertex -2.95515 -2.5 -0.724606
      vertex -3.06707 2.5 -0.913861
      vertex -2.95515 2.5 -0.724606
    endloop
  endfacet
  facet normal 0.860752 0 -0.509024
    outer loop
      vertex -3.06707 2.5 -0.913861
      vertex -2.95515 -2.5 -0.724606
      vertex -3.06707 -2.5 -0.913861
    endloop
  endfacet
  facet normal 0.987685 0 -0.156458
    outer loop
      vertex -3.438 -2.5 -1.94417
      vertex -3.4724 2.5 -2.16133
      vertex -3.438 2.5 -1.94417
    endloop
  endfacet
  facet normal 0.987685 0 -0.156458
    outer loop
      vertex -3.4724 2.5 -2.16133
      vertex -3.438 -2.5 -1.94417
      vertex -3.4724 -2.5 -2.16133
    endloop
  endfacet
  facet normal 0.562071 0 -0.827089
    outer loop
      vertex -2.05725 -2.5 0.231559
      vertex -1.87539 2.5 0.355147
      vertex -1.87539 -2.5 0.355147
    endloop
  endfacet
  facet normal 0.562071 0 -0.827089
    outer loop
      vertex -1.87539 2.5 0.355147
      vertex -2.05725 -2.5 0.231559
      vertex -2.05725 2.5 0.231559
    endloop
  endfacet
  facet normal 0.0941085 0 -0.995562
    outer loop
      vertex -0.438665 -2.5 0.872401
      vertex -0.219767 2.5 0.893093
      vertex -0.219767 -2.5 0.893093
    endloop
  endfacet
  facet normal 0.0941085 0 -0.995562
    outer loop
      vertex -0.219767 2.5 0.893093
      vertex -0.438665 -2.5 0.872401
      vertex -0.438665 2.5 0.872401
    endloop
  endfacet
  facet normal -0.987685 0 -0.156458
    outer loop
      vertex 3.4724 -2.5 -2.16133
      vertex 3.438 2.5 -1.94417
      vertex 3.4724 2.5 -2.16133
    endloop
  endfacet
  facet normal -0.987685 -0 -0.156458
    outer loop
      vertex 3.438 2.5 -1.94417
      vertex 3.4724 -2.5 -2.16133
      vertex 3.438 -2.5 -1.94417
    endloop
  endfacet
  facet normal -0.940883 0 -0.338732
    outer loop
      vertex 3.3287 -2.5 -1.51844
      vertex 3.25422 2.5 -1.31156
      vertex 3.3287 2.5 -1.51844
    endloop
  endfacet
  facet normal -0.940883 -0 -0.338732
    outer loop
      vertex 3.25422 2.5 -1.31156
      vertex 3.3287 -2.5 -1.51844
      vertex 3.25422 -2.5 -1.31156
    endloop
  endfacet
  facet normal -0.960296 0 -0.278983
    outer loop
      vertex 3.39004 -2.5 -1.72958
      vertex 3.3287 2.5 -1.51844
      vertex 3.39004 2.5 -1.72958
    endloop
  endfacet
  facet normal -0.960296 -0 -0.278983
    outer loop
      vertex 3.3287 2.5 -1.51844
      vertex 3.39004 -2.5 -1.72958
      vertex 3.3287 -2.5 -1.51844
    endloop
  endfacet
  facet normal -0.790161 0 -0.612899
    outer loop
      vertex 2.83156 -2.5 -0.542751
      vertex 2.6968 2.5 -0.369016
      vertex 2.83156 2.5 -0.542751
    endloop
  endfacet
  facet normal -0.790161 -0 -0.612899
    outer loop
      vertex 2.6968 2.5 -0.369016
      vertex 2.83156 -2.5 -0.542751
      vertex 2.6968 -2.5 -0.369016
    endloop
  endfacet
  facet normal -0.156434 0 -0.987688
    outer loop
      vertex 0.438665 -2.5 0.872401
      vertex 0.655834 2.5 0.838005
      vertex 0.655834 -2.5 0.838005
    endloop
  endfacet
  facet normal -0.156434 0 -0.987688
    outer loop
      vertex 0.655834 2.5 0.838005
      vertex 0.438665 -2.5 0.872401
      vertex 0.438665 2.5 0.872401
    endloop
  endfacet
  facet normal -0.338751 0 -0.940876
    outer loop
      vertex 1.08156 -2.5 0.728698
      vertex 1.28843 2.5 0.654217
      vertex 1.28843 -2.5 0.654217
    endloop
  endfacet
  facet normal -0.338751 0 -0.940876
    outer loop
      vertex 1.28843 2.5 0.654217
      vertex 1.08156 -2.5 0.728698
      vertex 1.08156 2.5 0.728698
    endloop
  endfacet
  facet normal -0.509051 0 -0.860736
    outer loop
      vertex 1.68614 -2.5 0.467072
      vertex 1.87539 2.5 0.355147
      vertex 1.87539 -2.5 0.355147
    endloop
  endfacet
  facet normal -0.509051 0 -0.860736
    outer loop
      vertex 1.87539 2.5 0.355147
      vertex 1.68614 -2.5 0.467072
      vertex 1.68614 2.5 0.467072
    endloop
  endfacet
  facet normal 0.790161 0 -0.612899
    outer loop
      vertex -2.6968 -2.5 -0.369016
      vertex -2.83156 2.5 -0.542751
      vertex -2.6968 2.5 -0.369016
    endloop
  endfacet
  facet normal 0.790161 0 -0.612899
    outer loop
      vertex -2.83156 2.5 -0.542751
      vertex -2.6968 -2.5 -0.369016
      vertex -2.83156 -2.5 -0.542751
    endloop
  endfacet
  facet normal 0.917742 0 -0.397177
    outer loop
      vertex -3.16689 -2.5 -1.10977
      vertex -3.25422 2.5 -1.31156
      vertex -3.16689 2.5 -1.10977
    endloop
  endfacet
  facet normal 0.917742 0 -0.397177
    outer loop
      vertex -3.25422 2.5 -1.31156
      vertex -3.16689 -2.5 -1.10977
      vertex -3.25422 -2.5 -1.31156
    endloop
  endfacet
  facet normal 0.960296 0 -0.278983
    outer loop
      vertex -3.3287 -2.5 -1.51844
      vertex -3.39004 2.5 -1.72958
      vertex -3.3287 2.5 -1.51844
    endloop
  endfacet
  facet normal 0.960296 0 -0.278983
    outer loop
      vertex -3.39004 2.5 -1.72958
      vertex -3.3287 -2.5 -1.51844
      vertex -3.39004 -2.5 -1.72958
    endloop
  endfacet
  facet normal 0.995563 0 -0.0940987
    outer loop
      vertex -3.4724 -2.5 -2.16133
      vertex -3.49309 2.5 -2.38023
      vertex -3.4724 2.5 -2.16133
    endloop
  endfacet
  facet normal 0.995563 0 -0.0940987
    outer loop
      vertex -3.49309 2.5 -2.38023
      vertex -3.4724 -2.5 -2.16133
      vertex -3.49309 -2.5 -2.38023
    endloop
  endfacet
  facet normal 0.612919 0 -0.790146
    outer loop
      vertex -2.23098 -2.5 0.096796
      vertex -2.05725 2.5 0.231559
      vertex -2.05725 -2.5 0.231559
    endloop
  endfacet
  facet normal 0.612919 0 -0.790146
    outer loop
      vertex -2.05725 2.5 0.231559
      vertex -2.23098 -2.5 0.096796
      vertex -2.23098 2.5 0.096796
    endloop
  endfacet
  facet normal 0.509051 0 -0.860736
    outer loop
      vertex -1.87539 -2.5 0.355147
      vertex -1.68614 2.5 0.467072
      vertex -1.68614 -2.5 0.467072
    endloop
  endfacet
  facet normal 0.509051 0 -0.860736
    outer loop
      vertex -1.68614 2.5 0.467072
      vertex -1.87539 -2.5 0.355147
      vertex -1.87539 2.5 0.355147
    endloop
  endfacet
  facet normal 0.39713 0 -0.917762
    outer loop
      vertex -1.49023 -2.5 0.566895
      vertex -1.28843 2.5 0.654217
      vertex -1.28843 -2.5 0.654217
    endloop
  endfacet
  facet normal 0.39713 0 -0.917762
    outer loop
      vertex -1.28843 2.5 0.654217
      vertex -1.49023 -2.5 0.566895
      vertex -1.49023 2.5 0.566895
    endloop
  endfacet
  facet normal 0.278989 0 -0.960294
    outer loop
      vertex -1.08156 -2.5 0.728698
      vertex -0.870414 2.5 0.790041
      vertex -0.870414 -2.5 0.790041
    endloop
  endfacet
  facet normal 0.278989 0 -0.960294
    outer loop
      vertex -0.870414 2.5 0.790041
      vertex -1.08156 -2.5 0.728698
      vertex -1.08156 2.5 0.728698
    endloop
  endfacet
  facet normal 0.218142 0 -0.975917
    outer loop
      vertex -0.870414 -2.5 0.790041
      vertex -0.655834 2.5 0.838005
      vertex -0.655834 -2.5 0.838005
    endloop
  endfacet
  facet normal 0.218142 0 -0.975917
    outer loop
      vertex -0.655834 2.5 0.838005
      vertex -0.870414 -2.5 0.790041
      vertex -0.870414 2.5 0.790041
    endloop
  endfacet
  facet normal 0.0314132 0 -0.999506
    outer loop
      vertex -0.219767 -2.5 0.893093
      vertex 0 2.5 0.9
      vertex 0 -2.5 0.9
    endloop
  endfacet
  facet normal 0.0314132 0 -0.999506
    outer loop
      vertex 0 2.5 0.9
      vertex -0.219767 -2.5 0.893093
      vertex -0.219767 2.5 0.893093
    endloop
  endfacet
  facet normal -0.860752 0 -0.509024
    outer loop
      vertex 3.06707 -2.5 -0.913861
      vertex 2.95515 2.5 -0.724606
      vertex 3.06707 2.5 -0.913861
    endloop
  endfacet
  facet normal -0.860752 -0 -0.509024
    outer loop
      vertex 2.95515 2.5 -0.724606
      vertex 3.06707 -2.5 -0.913861
      vertex 2.95515 -2.5 -0.724606
    endloop
  endfacet
  facet normal -0.827077 0 -0.562088
    outer loop
      vertex 2.95515 -2.5 -0.724606
      vertex 2.83156 2.5 -0.542751
      vertex 2.95515 2.5 -0.724606
    endloop
  endfacet
  facet normal -0.827077 -0 -0.562088
    outer loop
      vertex 2.83156 2.5 -0.542751
      vertex 2.95515 -2.5 -0.724606
      vertex 2.83156 -2.5 -0.542751
    endloop
  endfacet
  facet normal -0.278989 0 -0.960294
    outer loop
      vertex 0.870414 -2.5 0.790041
      vertex 1.08156 2.5 0.728698
      vertex 1.08156 -2.5 0.728698
    endloop
  endfacet
  facet normal -0.278989 0 -0.960294
    outer loop
      vertex 1.08156 2.5 0.728698
      vertex 0.870414 -2.5 0.790041
      vertex 0.870414 2.5 0.790041
    endloop
  endfacet
  facet normal -0.0941085 0 -0.995562
    outer loop
      vertex 0.219767 -2.5 0.893093
      vertex 0.438665 2.5 0.872401
      vertex 0.438665 -2.5 0.872401
    endloop
  endfacet
  facet normal -0.0941085 0 -0.995562
    outer loop
      vertex 0.438665 2.5 0.872401
      vertex 0.219767 -2.5 0.893093
      vertex 0.219767 2.5 0.893093
    endloop
  endfacet
  facet normal -0.612919 0 -0.790146
    outer loop
      vertex 2.05725 -2.5 0.231559
      vertex 2.23098 2.5 0.096796
      vertex 2.23098 -2.5 0.096796
    endloop
  endfacet
  facet normal -0.612919 0 -0.790146
    outer loop
      vertex 2.23098 2.5 0.096796
      vertex 2.05725 -2.5 0.231559
      vertex 2.05725 2.5 0.231559
    endloop
  endfacet
  facet normal -0.562071 0 -0.827089
    outer loop
      vertex 1.87539 -2.5 0.355147
      vertex 2.05725 2.5 0.231559
      vertex 2.05725 -2.5 0.231559
    endloop
  endfacet
  facet normal -0.562071 0 -0.827089
    outer loop
      vertex 2.05725 2.5 0.231559
      vertex 1.87539 -2.5 0.355147
      vertex 1.87539 2.5 0.355147
    endloop
  endfacet
  facet normal 0.750105 0 -0.661319
    outer loop
      vertex -2.55139 -2.5 -0.204084
      vertex -2.6968 2.5 -0.369016
      vertex -2.55139 2.5 -0.204084
    endloop
  endfacet
  facet normal 0.750105 0 -0.661319
    outer loop
      vertex -2.6968 2.5 -0.369016
      vertex -2.55139 -2.5 -0.204084
      vertex -2.6968 -2.5 -0.369016
    endloop
  endfacet
  facet normal 0.891008 0 -0.453988
    outer loop
      vertex -3.06707 -2.5 -0.913861
      vertex -3.16689 2.5 -1.10977
      vertex -3.06707 2.5 -0.913861
    endloop
  endfacet
  facet normal 0.891008 0 -0.453988
    outer loop
      vertex -3.16689 2.5 -1.10977
      vertex -3.06707 -2.5 -0.913861
      vertex -3.16689 -2.5 -1.10977
    endloop
  endfacet
  facet normal 0.940883 0 -0.338732
    outer loop
      vertex -3.25422 -2.5 -1.31156
      vertex -3.3287 2.5 -1.51844
      vertex -3.25422 2.5 -1.31156
    endloop
  endfacet
  facet normal 0.940883 0 -0.338732
    outer loop
      vertex -3.3287 2.5 -1.51844
      vertex -3.25422 -2.5 -1.31156
      vertex -3.3287 -2.5 -1.51844
    endloop
  endfacet
  facet normal 0.661313 0 -0.75011
    outer loop
      vertex -2.39591 -2.5 -0.0486097
      vertex -2.23098 2.5 0.096796
      vertex -2.23098 -2.5 0.096796
    endloop
  endfacet
  facet normal 0.661313 0 -0.75011
    outer loop
      vertex -2.23098 2.5 0.096796
      vertex -2.39591 -2.5 -0.0486097
      vertex -2.39591 2.5 -0.0486097
    endloop
  endfacet
  facet normal 0.453997 0 -0.891003
    outer loop
      vertex -1.68614 -2.5 0.467072
      vertex -1.49023 2.5 0.566895
      vertex -1.49023 -2.5 0.566895
    endloop
  endfacet
  facet normal 0.453997 0 -0.891003
    outer loop
      vertex -1.49023 2.5 0.566895
      vertex -1.68614 -2.5 0.467072
      vertex -1.68614 2.5 0.467072
    endloop
  endfacet
  facet normal 0.338751 0 -0.940876
    outer loop
      vertex -1.28843 -2.5 0.654217
      vertex -1.08156 2.5 0.728698
      vertex -1.08156 -2.5 0.728698
    endloop
  endfacet
  facet normal 0.338751 0 -0.940876
    outer loop
      vertex -1.08156 2.5 0.728698
      vertex -1.28843 -2.5 0.654217
      vertex -1.28843 2.5 0.654217
    endloop
  endfacet
  facet normal 0.156434 0 -0.987688
    outer loop
      vertex -0.655834 -2.5 0.838005
      vertex -0.438665 2.5 0.872401
      vertex -0.438665 -2.5 0.872401
    endloop
  endfacet
  facet normal 0.156434 0 -0.987688
    outer loop
      vertex -0.438665 2.5 0.872401
      vertex -0.655834 -2.5 0.838005
      vertex -0.655834 2.5 0.838005
    endloop
  endfacet
endsolid OpenSCAD_Model
