solid OpenSCAD_Model
  facet normal -1 0 0
    outer loop
      vertex -5 -2.5 -2.5
      vertex -5 2.5 2.5
      vertex -5 2.5 -2.5
    endloop
  endfacet
  facet normal -1 -0 0
    outer loop
      vertex -5 2.5 2.5
      vertex -5 -2.5 -2.5
      vertex -5 -2.5 2.5
    endloop
  endfacet
  facet normal -0 0 1
    outer loop
      vertex -5 2.5 2.5
      vertex 5 -2.5 2.5
      vertex 5 2.5 2.5
    endloop
  endfacet
  facet normal 0 0 1
    outer loop
      vertex 5 -2.5 2.5
      vertex -5 2.5 2.5
      vertex -5 -2.5 2.5
    endloop
  endfacet
  facet normal 1 -0 0
    outer loop
      vertex 5 -2.5 2.5
      vertex 5 2.5 -2.5
      vertex 5 2.5 2.5
    endloop
  endfacet
  facet normal 1 0 0
    outer loop
      vertex 5 2.5 -2.5
      vertex 5 -2.5 2.5
      vertex 5 -2.5 -2.5
    endloop
  endfacet
  facet normal 0 1 0
    outer loop
      vertex 5 2.5 2.5
      vertex 0 2.5 1
      vertex -5 2.5 2.5
    endloop
  endfacet
  facet normal 0 1 0
    outer loop
      vertex 5 2.5 2.5
      vertex 0.244883 2.5 0.992304
      vertex 0 2.5 1
    endloop
  endfacet
  facet normal 0 1 0
    outer loop
      vertex 5 2.5 2.5
      vertex 0.488799 2.5 0.969247
      vertex 0.244883 2.5 0.992304
    endloop
  endfacet
  facet normal 0 1 0
    outer loop
      vertex 5 2.5 2.5
      vertex 0.730786 2.5 0.93092
      vertex 0.488799 2.5 0.969247
    endloop
  endfacet
  facet normal 0 1 0
    outer loop
      vertex 5 2.5 2.5
      vertex 0.96989 2.5 0.877474
      vertex 0.730786 2.5 0.93092
    endloop
  endfacet
  facet normal 0 1 0
    outer loop
      vertex 5 2.5 2.5
      vertex 1.20517 2.5 0.80912
      vertex 0.96989 2.5 0.877474
    endloop
  endfacet
  facet normal 0 1 0
    outer loop
      vertex 5 2.5 2.5
      vertex 1.43569 2.5 0.726128
      vertex 1.20517 2.5 0.80912
    endloop
  endfacet
  facet normal 0 1 0
    outer loop
      vertex 5 2.5 2.5
      vertex 1.66054 2.5 0.628825
      vertex 1.43569 2.5 0.726128
    endloop
  endfacet
  facet normal 0 1 0
    outer loop
      vertex 5 2.5 2.5
      vertex 1.87884 2.5 0.517595
      vertex 1.66054 2.5 0.628825
    endloop
  endfacet
  facet normal 0 1 0
    outer loop
      vertex 5 2.5 2.5
      vertex 2.08972 2.5 0.392879
      vertex 1.87884 2.5 0.517595
    endloop
  endfacet
  facet normal 0 1 0
    outer loop
      vertex 5 2.5 2.5
      vertex 2.29236 2.5 0.255166
      vertex 2.08972 2.5 0.392879
    endloop
  endfacet
  facet normal 0 1 0
    outer loop
      vertex 5 2.5 2.5
      vertex 2.48595 2.5 0.105001
      vertex 2.29236 2.5 0.255166
    endloop
  endfacet
  facet normal 0 1 0
    outer loop
      vertex 5 2.5 2.5
      vertex 2.66973 2.5 -0.0570221
      vertex 2.48595 2.5 0.105001
    endloop
  endfacet
  facet normal 0 1 0
    outer loop
      vertex 5 2.5 2.5
      vertex 2.84298 2.5 -0.230266
      vertex 2.66973 2.5 -0.0570221
    endloop
  endfacet
  facet normal 0 1 0
    outer loop
      vertex 5 2.5 2.5
      vertex 3.005 2.5 -0.414046
      vertex 2.84298 2.5 -0.230266
    endloop
  endfacet
  facet normal 0 1 0
    outer loop
      vertex 5 2.5 2.5
      vertex 3.15517 2.5 -0.607637
      vertex 3.005 2.5 -0.414046
    endloop
  endfacet
  facet normal 0 1 0
    outer loop
      vertex 5 2.5 2.5
      vertex 3.29288 2.5 -0.810275
      vertex 3.15517 2.5 -0.607637
    endloop
  endfacet
  facet normal 0 1 0
    outer loop
      vertex 5 2.5 2.5
      vertex 3.4176 2.5 -1.02116
      vertex 3.29288 2.5 -0.810275
    endloop
  endfacet
  facet normal 0 1 0
    outer loop
      vertex 5 2.5 2.5
      vertex 3.52882 2.5 -1.23946
      vertex 3.4176 2.5 -1.02116
    endloop
  endfacet
  facet normal 0 1 -0
    outer loop
      vertex 5 2.5 -2.5
      vertex 3.52882 2.5 -1.23946
      vertex 5 2.5 2.5
    endloop
  endfacet
  facet normal 0 1 0
    outer loop
      vertex 3.52882 2.5 -1.23946
      vertex 5 2.5 -2.5
      vertex 3.62613 2.5 -1.46431
    endloop
  endfacet
  facet normal 0 1 0
    outer loop
      vertex 3.62613 2.5 -1.46431
      vertex 5 2.5 -2.5
      vertex 3.70912 2.5 -1.69483
    endloop
  endfacet
  facet normal 0 1 0
    outer loop
      vertex 3.70912 2.5 -1.69483
      vertex 5 2.5 -2.5
      vertex 3.77747 2.5 -1.93011
    endloop
  endfacet
  facet normal 0 1 0
    outer loop
      vertex 3.77747 2.5 -1.93011
      vertex 5 2.5 -2.5
      vertex 3.83092 2.5 -2.16921
    endloop
  endfacet
  facet normal 0 1 0
    outer loop
      vertex 3.83092 2.5 -2.16921
      vertex 5 2.5 -2.5
      vertex 3.86925 2.5 -2.4112
    endloop
  endfacet
  facet normal 0 1 0
    outer loop
      vertex 3.86925 2.5 -2.4112
      vertex 5 2.5 -2.5
      vertex 3.87764 2.5 -2.5
    endloop
  endfacet
  facet normal 0 1 -0
    outer loop
      vertex -0.244883 2.5 0.992304
      vertex -5 2.5 2.5
      vertex 0 2.5 1
    endloop
  endfacet
  facet normal 0 1 -0
    outer loop
      vertex -0.488799 2.5 0.969247
      vertex -5 2.5 2.5
      vertex -0.244883 2.5 0.992304
    endloop
  endfacet
  facet normal 0 1 -0
    outer loop
      vertex -0.730786 2.5 0.93092
      vertex -5 2.5 2.5
      vertex -0.488799 2.5 0.969247
    endloop
  endfacet
  facet normal 0 1 -0
    outer loop
      vertex -0.96989 2.5 0.877474
      vertex -5 2.5 2.5
      vertex -0.730786 2.5 0.93092
    endloop
  endfacet
  facet normal 0 1 -0
    outer loop
      vertex -1.20517 2.5 0.80912
      vertex -5 2.5 2.5
      vertex -0.96989 2.5 0.877474
    endloop
  endfacet
  facet normal 0 1 -0
    outer loop
      vertex -1.43569 2.5 0.726128
      vertex -5 2.5 2.5
      vertex -1.20517 2.5 0.80912
    endloop
  endfacet
  facet normal 0 1 -0
    outer loop
      vertex -1.66054 2.5 0.628825
      vertex -5 2.5 2.5
      vertex -1.43569 2.5 0.726128
    endloop
  endfacet
  facet normal 0 1 -0
    outer loop
      vertex -1.87884 2.5 0.517595
      vertex -5 2.5 2.5
      vertex -1.66054 2.5 0.628825
    endloop
  endfacet
  facet normal 0 1 -0
    outer loop
      vertex -2.08972 2.5 0.392879
      vertex -5 2.5 2.5
      vertex -1.87884 2.5 0.517595
    endloop
  endfacet
  facet normal 0 1 -0
    outer loop
      vertex -2.29236 2.5 0.255166
      vertex -5 2.5 2.5
      vertex -2.08972 2.5 0.392879
    endloop
  endfacet
  facet normal 0 1 -0
    outer loop
      vertex -2.48595 2.5 0.105001
      vertex -5 2.5 2.5
      vertex -2.29236 2.5 0.255166
    endloop
  endfacet
  facet normal 0 1 -0
    outer loop
      vertex -2.66973 2.5 -0.0570221
      vertex -5 2.5 2.5
      vertex -2.48595 2.5 0.105001
    endloop
  endfacet
  facet normal 0 1 -0
    outer loop
      vertex -2.84298 2.5 -0.230266
      vertex -5 2.5 2.5
      vertex -2.66973 2.5 -0.0570221
    endloop
  endfacet
  facet normal 0 1 -0
    outer loop
      vertex -3.005 2.5 -0.414046
      vertex -5 2.5 2.5
      vertex -2.84298 2.5 -0.230266
    endloop
  endfacet
  facet normal 0 1 -0
    outer loop
      vertex -3.15517 2.5 -0.607637
      vertex -5 2.5 2.5
      vertex -3.005 2.5 -0.414046
    endloop
  endfacet
  facet normal 0 1 -0
    outer loop
      vertex -3.29288 2.5 -0.810275
      vertex -5 2.5 2.5
      vertex -3.15517 2.5 -0.607637
    endloop
  endfacet
  facet normal 0 1 -0
    outer loop
      vertex -3.4176 2.5 -1.02116
      vertex -5 2.5 2.5
      vertex -3.29288 2.5 -0.810275
    endloop
  endfacet
  facet normal 0 1 -0
    outer loop
      vertex -3.52882 2.5 -1.23946
      vertex -5 2.5 2.5
      vertex -3.4176 2.5 -1.02116
    endloop
  endfacet
  facet normal 0 1 0
    outer loop
      vertex -5 2.5 -2.5
      vertex -3.52882 2.5 -1.23946
      vertex -3.62613 2.5 -1.46431
    endloop
  endfacet
  facet normal 0 1 0
    outer loop
      vertex -5 2.5 -2.5
      vertex -3.62613 2.5 -1.46431
      vertex -3.70912 2.5 -1.69483
    endloop
  endfacet
  facet normal 0 1 0
    outer loop
      vertex -5 2.5 -2.5
      vertex -3.70912 2.5 -1.69483
      vertex -3.77747 2.5 -1.93011
    endloop
  endfacet
  facet normal 0 1 0
    outer loop
      vertex -5 2.5 -2.5
      vertex -3.77747 2.5 -1.93011
      vertex -3.83092 2.5 -2.16921
    endloop
  endfacet
  facet normal 0 1 0
    outer loop
      vertex -5 2.5 -2.5
      vertex -3.83092 2.5 -2.16921
      vertex -3.86925 2.5 -2.4112
    endloop
  endfacet
  facet normal 0 1 0
    outer loop
      vertex -5 2.5 -2.5
      vertex -3.86925 2.5 -2.4112
      vertex -3.87764 2.5 -2.5
    endloop
  endfacet
  facet normal 0 1 0
    outer loop
      vertex -3.52882 2.5 -1.23946
      vertex -5 2.5 -2.5
      vertex -5 2.5 2.5
    endloop
  endfacet
  facet normal 0 0 -1
    outer loop
      vertex -5 -2.5 -2.5
      vertex -3.87764 2.5 -2.5
      vertex -3.87764 -2.5 -2.5
    endloop
  endfacet
  facet normal -0 0 -1
    outer loop
      vertex -3.87764 2.5 -2.5
      vertex -5 -2.5 -2.5
      vertex -5 2.5 -2.5
    endloop
  endfacet
  facet normal 0 0 -1
    outer loop
      vertex 3.87764 -2.5 -2.5
      vertex 5 2.5 -2.5
      vertex 5 -2.5 -2.5
    endloop
  endfacet
  facet normal -0 0 -1
    outer loop
      vertex 5 2.5 -2.5
      vertex 3.87764 -2.5 -2.5
      vertex 3.87764 2.5 -2.5
    endloop
  endfacet
  facet normal 0 -1 0
    outer loop
      vertex -5 -2.5 2.5
      vertex 0 -2.5 1
      vertex 5 -2.5 2.5
    endloop
  endfacet
  facet normal 0 -1 0
    outer loop
      vertex -5 -2.5 2.5
      vertex -0.244883 -2.5 0.992304
      vertex 0 -2.5 1
    endloop
  endfacet
  facet normal 0 -1 0
    outer loop
      vertex -5 -2.5 2.5
      vertex -0.488799 -2.5 0.969247
      vertex -0.244883 -2.5 0.992304
    endloop
  endfacet
  facet normal 0 -1 0
    outer loop
      vertex -5 -2.5 2.5
      vertex -0.730786 -2.5 0.93092
      vertex -0.488799 -2.5 0.969247
    endloop
  endfacet
  facet normal 0 -1 0
    outer loop
      vertex -5 -2.5 2.5
      vertex -0.96989 -2.5 0.877474
      vertex -0.730786 -2.5 0.93092
    endloop
  endfacet
  facet normal 0 -1 0
    outer loop
      vertex -5 -2.5 2.5
      vertex -1.20517 -2.5 0.80912
      vertex -0.96989 -2.5 0.877474
    endloop
  endfacet
  facet normal 0 -1 0
    outer loop
      vertex -5 -2.5 2.5
      vertex -1.43569 -2.5 0.726128
      vertex -1.20517 -2.5 0.80912
    endloop
  endfacet
  facet normal 0 -1 0
    outer loop
      vertex -5 -2.5 2.5
      vertex -1.66054 -2.5 0.628825
      vertex -1.43569 -2.5 0.726128
    endloop
  endfacet
  facet normal 0 -1 0
    outer loop
      vertex -5 -2.5 2.5
      vertex -1.87884 -2.5 0.517595
      vertex -1.66054 -2.5 0.628825
    endloop
  endfacet
  facet normal 0 -1 0
    outer loop
      vertex -5 -2.5 2.5
      vertex -2.08972 -2.5 0.392879
      vertex -1.87884 -2.5 0.517595
    endloop
  endfacet
  facet normal 0 -1 0
    outer loop
      vertex -5 -2.5 2.5
      vertex -2.29236 -2.5 0.255166
      vertex -2.08972 -2.5 0.392879
    endloop
  endfacet
  facet normal 0 -1 0
    outer loop
      vertex -5 -2.5 2.5
      vertex -2.48595 -2.5 0.105001
      vertex -2.29236 -2.5 0.255166
    endloop
  endfacet
  facet normal 0 -1 0
    outer loop
      vertex -5 -2.5 2.5
      vertex -2.66973 -2.5 -0.0570221
      vertex -2.48595 -2.5 0.105001
    endloop
  endfacet
  facet normal 0 -1 0
    outer loop
      vertex -5 -2.5 2.5
      vertex -2.84298 -2.5 -0.230266
      vertex -2.66973 -2.5 -0.0570221
    endloop
  endfacet
  facet normal 0 -1 0
    outer loop
      vertex -5 -2.5 2.5
      vertex -3.005 -2.5 -0.414046
      vertex -2.84298 -2.5 -0.230266
    endloop
  endfacet
  facet normal 0 -1 0
    outer loop
      vertex -5 -2.5 2.5
      vertex -3.15517 -2.5 -0.607637
      vertex -3.005 -2.5 -0.414046
    endloop
  endfacet
  facet normal 0 -1 0
    outer loop
      vertex -5 -2.5 2.5
      vertex -3.29288 -2.5 -0.810275
      vertex -3.15517 -2.5 -0.607637
    endloop
  endfacet
  facet normal 0 -1 0
    outer loop
      vertex -5 -2.5 2.5
      vertex -3.4176 -2.5 -1.02116
      vertex -3.29288 -2.5 -0.810275
    endloop
  endfacet
  facet normal 0 -1 0
    outer loop
      vertex -5 -2.5 2.5
      vertex -3.52882 -2.5 -1.23946
      vertex -3.4176 -2.5 -1.02116
    endloop
  endfacet
  facet normal 0 -1 0
    outer loop
      vertex -5 -2.5 -2.5
      vertex -3.52882 -2.5 -1.23946
      vertex -5 -2.5 2.5
    endloop
  endfacet
  facet normal 0 -1 0
    outer loop
      vertex -3.52882 -2.5 -1.23946
      vertex -5 -2.5 -2.5
      vertex -3.62613 -2.5 -1.46431
    endloop
  endfacet
  facet normal 0 -1 0
    outer loop
      vertex -3.62613 -2.5 -1.46431
      vertex -5 -2.5 -2.5
      vertex -3.70912 -2.5 -1.69483
    endloop
  endfacet
  facet normal 0 -1 0
    outer loop
      vertex -3.70912 -2.5 -1.69483
      vertex -5 -2.5 -2.5
      vertex -3.77747 -2.5 -1.93011
    endloop
  endfacet
  facet normal 0 -1 0
    outer loop
      vertex -3.77747 -2.5 -1.93011
      vertex -5 -2.5 -2.5
      vertex -3.83092 -2.5 -2.16921
    endloop
  endfacet
  facet normal 0 -1 0
    outer loop
      vertex -3.83092 -2.5 -2.16921
      vertex -5 -2.5 -2.5
      vertex -3.86925 -2.5 -2.4112
    endloop
  endfacet
  facet normal 0 -1 0
    outer loop
      vertex -3.86925 -2.5 -2.4112
      vertex -5 -2.5 -2.5
      vertex -3.87764 -2.5 -2.5
    endloop
  endfacet
  facet normal 0 -1 0
    outer loop
      vertex 0.244883 -2.5 0.992304
      vertex 5 -2.5 2.5
      vertex 0 -2.5 1
    endloop
  endfacet
  facet normal 0 -1 0
    outer loop
      vertex 0.488799 -2.5 0.969247
      vertex 5 -2.5 2.5
      vertex 0.244883 -2.5 0.992304
    endloop
  endfacet
  facet normal 0 -1 0
    outer loop
      vertex 0.730786 -2.5 0.93092
      vertex 5 -2.5 2.5
      vertex 0.488799 -2.5 0.969247
    endloop
  endfacet
  facet normal 0 -1 0
    outer loop
      vertex 0.96989 -2.5 0.877474
      vertex 5 -2.5 2.5
      vertex 0.730786 -2.5 0.93092
    endloop
  endfacet
  facet normal 0 -1 0
    outer loop
      vertex 1.20517 -2.5 0.80912
      vertex 5 -2.5 2.5
      vertex 0.96989 -2.5 0.877474
    endloop
  endfacet
  facet normal 0 -1 0
    outer loop
      vertex 1.43569 -2.5 0.726128
      vertex 5 -2.5 2.5
      vertex 1.20517 -2.5 0.80912
    endloop
  endfacet
  facet normal 0 -1 0
    outer loop
      vertex 1.66054 -2.5 0.628825
      vertex 5 -2.5 2.5
      vertex 1.43569 -2.5 0.726128
    endloop
  endfacet
  facet normal 0 -1 0
    outer loop
      vertex 1.87884 -2.5 0.517595
      vertex 5 -2.5 2.5
      vertex 1.66054 -2.5 0.628825
    endloop
  endfacet
  facet normal 0 -1 0
    outer loop
      vertex 2.08972 -2.5 0.392879
      vertex 5 -2.5 2.5
      vertex 1.87884 -2.5 0.517595
    endloop
  endfacet
  facet normal 0 -1 0
    outer loop
      vertex 2.29236 -2.5 0.255166
      vertex 5 -2.5 2.5
      vertex 2.08972 -2.5 0.392879
    endloop
  endfacet
  facet normal 0 -1 0
    outer loop
      vertex 2.48595 -2.5 0.105001
      vertex 5 -2.5 2.5
      vertex 2.29236 -2.5 0.255166
    endloop
  endfacet
  facet normal 0 -1 0
    outer loop
      vertex 2.66973 -2.5 -0.0570221
      vertex 5 -2.5 2.5
      vertex 2.48595 -2.5 0.105001
    endloop
  endfacet
  facet normal 0 -1 0
    outer loop
      vertex 2.84298 -2.5 -0.230266
      vertex 5 -2.5 2.5
      vertex 2.66973 -2.5 -0.0570221
    endloop
  endfacet
  facet normal 0 -1 0
    outer loop
      vertex 3.005 -2.5 -0.414046
      vertex 5 -2.5 2.5
      vertex 2.84298 -2.5 -0.230266
    endloop
  endfacet
  facet normal 0 -1 0
    outer loop
      vertex 3.15517 -2.5 -0.607637
      vertex 5 -2.5 2.5
      vertex 3.005 -2.5 -0.414046
    endloop
  endfacet
  facet normal 0 -1 0
    outer loop
      vertex 3.29288 -2.5 -0.810275
      vertex 5 -2.5 2.5
      vertex 3.15517 -2.5 -0.607637
    endloop
  endfacet
  facet normal 0 -1 0
    outer loop
      vertex 3.4176 -2.5 -1.02116
      vertex 5 -2.5 2.5
      vertex 3.29288 -2.5 -0.810275
    endloop
  endfacet
  facet normal 0 -1 0
    outer loop
      vertex 3.52882 -2.5 -1.23946
      vertex 5 -2.5 2.5
      vertex 3.4176 -2.5 -1.02116
    endloop
  endfacet
  facet normal 0 -1 0
    outer loop
      vertex 5 -2.5 -2.5
      vertex 3.52882 -2.5 -1.23946
      vertex 3.62613 -2.5 -1.46431
    endloop
  endfacet
  facet normal 0 -1 0
    outer loop
      vertex 5 -2.5 -2.5
      vertex 3.62613 -2.5 -1.46431
      vertex 3.70912 -2.5 -1.69483
    endloop
  endfacet
  facet normal 0 -1 0
    outer loop
      vertex 5 -2.5 -2.5
      vertex 3.70912 -2.5 -1.69483
      vertex 3.77747 -2.5 -1.93011
    endloop
  endfacet
  facet normal 0 -1 0
    outer loop
      vertex 5 -2.5 -2.5
      vertex 3.77747 -2.5 -1.93011
      vertex 3.83092 -2.5 -2.16921
    endloop
  endfacet
  facet normal 0 -1 0
    outer loop
      vertex 5 -2.5 -2.5
      vertex 3.83092 -2.5 -2.16921
      vertex 3.86925 -2.5 -2.4112
    endloop
  endfacet
  facet normal 0 -1 0
    outer loop
      vertex 5 -2.5 -2.5
      vertex 3.86925 -2.5 -2.4112
      vertex 3.87764 -2.5 -2.5
    endloop
  endfacet
  facet normal 0 -1 0
    outer loop
      vertex 3.52882 -2.5 -1.23946
      vertex 5 -2.5 -2.5
      vertex 5 -2.5 2.5
    endloop
  endfacet
  facet normal -0.995566 0 -0.0940631
    outer loop
      vertex 3.87764 -2.5 -2.5
      vertex 3.86925 2.5 -2.4112
      vertex 3.87764 2.5 -2.5
    endloop
  endfacet
  facet normal -0.995566 -0 -0.0940631
    outer loop
      vertex 3.86925 2.5 -2.4112
      vertex 3.87764 -2.5 -2.5
      vertex 3.86925 -2.5 -2.4112
    endloop
  endfacet
  facet normal -0.0314117 0 -0.999507
    outer loop
      vertex 0 -2.5 1
      vertex 0.244883 2.5 0.992304
      vertex 0.244883 -2.5 0.992304
    endloop
  endfacet
  facet normal -0.0314117 0 -0.999507
    outer loop
      vertex 0.244883 2.5 0.992304
      vertex 0 -2.5 1
      vertex 0 2.5 1
    endloop
  endfacet
  facet normal -0.707094 0 -0.707119
    outer loop
      vertex 2.66973 -2.5 -0.0570221
      vertex 2.84298 2.5 -0.230266
      vertex 2.84298 -2.5 -0.230266
    endloop
  endfacet
  facet normal -0.707094 0 -0.707119
    outer loop
      vertex 2.84298 2.5 -0.230266
      vertex 2.66973 -2.5 -0.0570221
      vertex 2.66973 2.5 -0.0570221
    endloop
  endfacet
  facet normal 0.707094 0 -0.707119
    outer loop
      vertex -2.84298 -2.5 -0.230266
      vertex -2.66973 2.5 -0.0570221
      vertex -2.66973 -2.5 -0.0570221
    endloop
  endfacet
  facet normal 0.707094 0 -0.707119
    outer loop
      vertex -2.66973 2.5 -0.0570221
      vertex -2.84298 -2.5 -0.230266
      vertex -2.84298 2.5 -0.230266
    endloop
  endfacet
  facet normal -0.917742 0 -0.397178
    outer loop
      vertex 3.62613 -2.5 -1.46431
      vertex 3.52882 2.5 -1.23946
      vertex 3.62613 2.5 -1.46431
    endloop
  endfacet
  facet normal -0.917742 -0 -0.397178
    outer loop
      vertex 3.52882 2.5 -1.23946
      vertex 3.62613 -2.5 -1.46431
      vertex 3.52882 -2.5 -1.23946
    endloop
  endfacet
  facet normal -0.397154 0 -0.917752
    outer loop
      vertex 1.43569 -2.5 0.726128
      vertex 1.66054 2.5 0.628825
      vertex 1.66054 -2.5 0.628825
    endloop
  endfacet
  facet normal -0.397154 0 -0.917752
    outer loop
      vertex 1.66054 2.5 0.628825
      vertex 1.43569 -2.5 0.726128
      vertex 1.43569 2.5 0.726128
    endloop
  endfacet
  facet normal -0.562081 0 -0.827082
    outer loop
      vertex 2.08972 -2.5 0.392879
      vertex 2.29236 2.5 0.255166
      vertex 2.29236 -2.5 0.255166
    endloop
  endfacet
  facet normal -0.562081 0 -0.827082
    outer loop
      vertex 2.29236 2.5 0.255166
      vertex 2.08972 -2.5 0.392879
      vertex 2.08972 2.5 0.392879
    endloop
  endfacet
  facet normal 0.827086 0 -0.562076
    outer loop
      vertex -3.15517 -2.5 -0.607637
      vertex -3.29288 2.5 -0.810275
      vertex -3.15517 2.5 -0.607637
    endloop
  endfacet
  facet normal 0.827086 0 -0.562076
    outer loop
      vertex -3.29288 2.5 -0.810275
      vertex -3.15517 -2.5 -0.607637
      vertex -3.29288 -2.5 -0.810275
    endloop
  endfacet
  facet normal -0.975913 0 -0.218162
    outer loop
      vertex 3.83092 -2.5 -2.16921
      vertex 3.77747 2.5 -1.93011
      vertex 3.83092 2.5 -2.16921
    endloop
  endfacet
  facet normal -0.975913 -0 -0.218162
    outer loop
      vertex 3.77747 2.5 -1.93011
      vertex 3.83092 -2.5 -2.16921
      vertex 3.77747 -2.5 -1.93011
    endloop
  endfacet
  facet normal -0.218143 0 -0.975917
    outer loop
      vertex 0.730786 -2.5 0.93092
      vertex 0.96989 2.5 0.877474
      vertex 0.96989 -2.5 0.877474
    endloop
  endfacet
  facet normal -0.218143 0 -0.975917
    outer loop
      vertex 0.96989 2.5 0.877474
      vertex 0.730786 -2.5 0.93092
      vertex 0.730786 2.5 0.93092
    endloop
  endfacet
  facet normal -0.61291 0 -0.790153
    outer loop
      vertex 2.29236 -2.5 0.255166
      vertex 2.48595 2.5 0.105001
      vertex 2.48595 -2.5 0.105001
    endloop
  endfacet
  facet normal -0.61291 0 -0.790153
    outer loop
      vertex 2.48595 2.5 0.105001
      vertex 2.29236 -2.5 0.255166
      vertex 2.29236 2.5 0.255166
    endloop
  endfacet
  facet normal 0.860737 0 -0.50905
    outer loop
      vertex -3.29288 -2.5 -0.810275
      vertex -3.4176 2.5 -1.02116
      vertex -3.29288 2.5 -0.810275
    endloop
  endfacet
  facet normal 0.860737 0 -0.50905
    outer loop
      vertex -3.4176 2.5 -1.02116
      vertex -3.29288 -2.5 -0.810275
      vertex -3.4176 -2.5 -1.02116
    endloop
  endfacet
  facet normal 0.975913 0 -0.218162
    outer loop
      vertex -3.77747 -2.5 -1.93011
      vertex -3.83092 2.5 -2.16921
      vertex -3.77747 2.5 -1.93011
    endloop
  endfacet
  facet normal 0.975913 0 -0.218162
    outer loop
      vertex -3.83092 2.5 -2.16921
      vertex -3.77747 -2.5 -1.93011
      vertex -3.83092 -2.5 -2.16921
    endloop
  endfacet
  facet normal 0.987687 0 -0.156445
    outer loop
      vertex -3.83092 -2.5 -2.16921
      vertex -3.86925 2.5 -2.4112
      vertex -3.83092 2.5 -2.16921
    endloop
  endfacet
  facet normal 0.987687 0 -0.156445
    outer loop
      vertex -3.86925 2.5 -2.4112
      vertex -3.83092 -2.5 -2.16921
      vertex -3.86925 -2.5 -2.4112
    endloop
  endfacet
  facet normal 0.562081 0 -0.827082
    outer loop
      vertex -2.29236 -2.5 0.255166
      vertex -2.08972 2.5 0.392879
      vertex -2.08972 -2.5 0.392879
    endloop
  endfacet
  facet normal 0.562081 0 -0.827082
    outer loop
      vertex -2.08972 2.5 0.392879
      vertex -2.29236 -2.5 0.255166
      vertex -2.29236 2.5 0.255166
    endloop
  endfacet
  facet normal 0.0941089 0 -0.995562
    outer loop
      vertex -0.488799 -2.5 0.969247
      vertex -0.244883 2.5 0.992304
      vertex -0.244883 -2.5 0.992304
    endloop
  endfacet
  facet normal 0.0941089 0 -0.995562
    outer loop
      vertex -0.244883 2.5 0.992304
      vertex -0.488799 -2.5 0.969247
      vertex -0.488799 2.5 0.969247
    endloop
  endfacet
  facet normal -0.987687 0 -0.156445
    outer loop
      vertex 3.86925 -2.5 -2.4112
      vertex 3.83092 2.5 -2.16921
      vertex 3.86925 2.5 -2.4112
    endloop
  endfacet
  facet normal -0.987687 -0 -0.156445
    outer loop
      vertex 3.83092 2.5 -2.16921
      vertex 3.86925 -2.5 -2.4112
      vertex 3.83092 -2.5 -2.16921
    endloop
  endfacet
  facet normal -0.750119 0 -0.661303
    outer loop
      vertex 3.005 -2.5 -0.414046
      vertex 2.84298 2.5 -0.230266
      vertex 3.005 2.5 -0.414046
    endloop
  endfacet
  facet normal -0.750119 -0 -0.661303
    outer loop
      vertex 2.84298 2.5 -0.230266
      vertex 3.005 -2.5 -0.414046
      vertex 2.84298 -2.5 -0.230266
    endloop
  endfacet
  facet normal -0.827086 0 -0.562076
    outer loop
      vertex 3.29288 -2.5 -0.810275
      vertex 3.15517 2.5 -0.607637
      vertex 3.29288 2.5 -0.810275
    endloop
  endfacet
  facet normal -0.827086 -0 -0.562076
    outer loop
      vertex 3.15517 2.5 -0.607637
      vertex 3.29288 -2.5 -0.810275
      vertex 3.15517 -2.5 -0.607637
    endloop
  endfacet
  facet normal -0.891022 0 -0.45396
    outer loop
      vertex 3.52882 -2.5 -1.23946
      vertex 3.4176 2.5 -1.02116
      vertex 3.52882 2.5 -1.23946
    endloop
  endfacet
  facet normal -0.891022 -0 -0.45396
    outer loop
      vertex 3.4176 2.5 -1.02116
      vertex 3.52882 -2.5 -1.23946
      vertex 3.4176 -2.5 -1.02116
    endloop
  endfacet
  facet normal -0.156435 0 -0.987688
    outer loop
      vertex 0.488799 -2.5 0.969247
      vertex 0.730786 2.5 0.93092
      vertex 0.730786 -2.5 0.93092
    endloop
  endfacet
  facet normal -0.156435 0 -0.987688
    outer loop
      vertex 0.730786 2.5 0.93092
      vertex 0.488799 -2.5 0.969247
      vertex 0.488799 2.5 0.969247
    endloop
  endfacet
  facet normal -0.338737 0 -0.940881
    outer loop
      vertex 1.20517 -2.5 0.80912
      vertex 1.43569 2.5 0.726128
      vertex 1.43569 -2.5 0.726128
    endloop
  endfacet
  facet normal -0.338737 0 -0.940881
    outer loop
      vertex 1.43569 2.5 0.726128
      vertex 1.20517 -2.5 0.80912
      vertex 1.20517 2.5 0.80912
    endloop
  endfacet
  facet normal -0.509047 0 -0.860739
    outer loop
      vertex 1.87884 -2.5 0.517595
      vertex 2.08972 2.5 0.392879
      vertex 2.08972 -2.5 0.392879
    endloop
  endfacet
  facet normal -0.509047 0 -0.860739
    outer loop
      vertex 2.08972 2.5 0.392879
      vertex 1.87884 -2.5 0.517595
      vertex 1.87884 2.5 0.517595
    endloop
  endfacet
  facet normal -0.453992 0 -0.891006
    outer loop
      vertex 1.66054 -2.5 0.628825
      vertex 1.87884 2.5 0.517595
      vertex 1.87884 -2.5 0.517595
    endloop
  endfacet
  facet normal -0.453992 0 -0.891006
    outer loop
      vertex 1.87884 2.5 0.517595
      vertex 1.66054 -2.5 0.628825
      vertex 1.66054 2.5 0.628825
    endloop
  endfacet
  facet normal -0.66131 0 -0.750113
    outer loop
      vertex 2.48595 -2.5 0.105001
      vertex 2.66973 2.5 -0.0570221
      vertex 2.66973 -2.5 -0.0570221
    endloop
  endfacet
  facet normal -0.66131 0 -0.750113
    outer loop
      vertex 2.66973 2.5 -0.0570221
      vertex 2.48595 -2.5 0.105001
      vertex 2.48595 2.5 0.105001
    endloop
  endfacet
  facet normal 0.790144 0 -0.612921
    outer loop
      vertex -3.005 -2.5 -0.414046
      vertex -3.15517 2.5 -0.607637
      vertex -3.005 2.5 -0.414046
    endloop
  endfacet
  facet normal 0.790144 0 -0.612921
    outer loop
      vertex -3.15517 2.5 -0.607637
      vertex -3.005 -2.5 -0.414046
      vertex -3.15517 -2.5 -0.607637
    endloop
  endfacet
  facet normal 0.917742 0 -0.397178
    outer loop
      vertex -3.52882 -2.5 -1.23946
      vertex -3.62613 2.5 -1.46431
      vertex -3.52882 2.5 -1.23946
    endloop
  endfacet
  facet normal 0.917742 0 -0.397178
    outer loop
      vertex -3.62613 2.5 -1.46431
      vertex -3.52882 -2.5 -1.23946
      vertex -3.62613 -2.5 -1.46431
    endloop
  endfacet
  facet normal 0.940884 0 -0.33873
    outer loop
      vertex -3.62613 -2.5 -1.46431
      vertex -3.70912 2.5 -1.69483
      vertex -3.62613 2.5 -1.46431
    endloop
  endfacet
  facet normal 0.940884 0 -0.33873
    outer loop
      vertex -3.70912 2.5 -1.69483
      vertex -3.62613 -2.5 -1.46431
      vertex -3.70912 -2.5 -1.69483
    endloop
  endfacet
  facet normal 0.995566 0 -0.0940631
    outer loop
      vertex -3.86925 -2.5 -2.4112
      vertex -3.87764 2.5 -2.5
      vertex -3.86925 2.5 -2.4112
    endloop
  endfacet
  facet normal 0.995566 0 -0.0940631
    outer loop
      vertex -3.87764 2.5 -2.5
      vertex -3.86925 -2.5 -2.4112
      vertex -3.87764 -2.5 -2.5
    endloop
  endfacet
  facet normal 0.61291 0 -0.790153
    outer loop
      vertex -2.48595 -2.5 0.105001
      vertex -2.29236 2.5 0.255166
      vertex -2.29236 -2.5 0.255166
    endloop
  endfacet
  facet normal 0.61291 0 -0.790153
    outer loop
      vertex -2.29236 2.5 0.255166
      vertex -2.48595 -2.5 0.105001
      vertex -2.48595 2.5 0.105001
    endloop
  endfacet
  facet normal 0.509047 0 -0.860739
    outer loop
      vertex -2.08972 -2.5 0.392879
      vertex -1.87884 2.5 0.517595
      vertex -1.87884 -2.5 0.517595
    endloop
  endfacet
  facet normal 0.509047 0 -0.860739
    outer loop
      vertex -1.87884 2.5 0.517595
      vertex -2.08972 -2.5 0.392879
      vertex -2.08972 2.5 0.392879
    endloop
  endfacet
  facet normal 0.397154 0 -0.917752
    outer loop
      vertex -1.66054 -2.5 0.628825
      vertex -1.43569 2.5 0.726128
      vertex -1.43569 -2.5 0.726128
    endloop
  endfacet
  facet normal 0.397154 0 -0.917752
    outer loop
      vertex -1.43569 2.5 0.726128
      vertex -1.66054 -2.5 0.628825
      vertex -1.66054 2.5 0.628825
    endloop
  endfacet
  facet normal 0.278987 0 -0.960295
    outer loop
      vertex -1.20517 -2.5 0.80912
      vertex -0.96989 2.5 0.877474
      vertex -0.96989 -2.5 0.877474
    endloop
  endfacet
  facet normal 0.278987 0 -0.960295
    outer loop
      vertex -0.96989 2.5 0.877474
      vertex -1.20517 -2.5 0.80912
      vertex -1.20517 2.5 0.80912
    endloop
  endfacet
  facet normal 0.218143 0 -0.975917
    outer loop
      vertex -0.96989 -2.5 0.877474
      vertex -0.730786 2.5 0.93092
      vertex -0.730786 -2.5 0.93092
    endloop
  endfacet
  facet normal 0.218143 0 -0.975917
    outer loop
      vertex -0.730786 2.5 0.93092
      vertex -0.96989 -2.5 0.877474
      vertex -0.96989 2.5 0.877474
    endloop
  endfacet
  facet normal 0.0314117 0 -0.999507
    outer loop
      vertex -0.244883 -2.5 0.992304
      vertex 0 2.5 1
      vertex 0 -2.5 1
    endloop
  endfacet
  facet normal 0.0314117 0 -0.999507
    outer loop
      vertex 0 2.5 1
      vertex -0.244883 -2.5 0.992304
      vertex -0.244883 2.5 0.992304
    endloop
  endfacet
  facet normal -0.960299 0 -0.278972
    outer loop
      vertex 3.77747 -2.5 -1.93011
      vertex 3.70912 2.5 -1.69483
      vertex 3.77747 2.5 -1.93011
    endloop
  endfacet
  facet normal -0.960299 -0 -0.278972
    outer loop
      vertex 3.70912 2.5 -1.69483
      vertex 3.77747 -2.5 -1.93011
      vertex 3.70912 -2.5 -1.69483
    endloop
  endfacet
  facet normal -0.940884 0 -0.33873
    outer loop
      vertex 3.70912 -2.5 -1.69483
      vertex 3.62613 2.5 -1.46431
      vertex 3.70912 2.5 -1.69483
    endloop
  endfacet
  facet normal -0.940884 -0 -0.33873
    outer loop
      vertex 3.62613 2.5 -1.46431
      vertex 3.70912 -2.5 -1.69483
      vertex 3.62613 -2.5 -1.46431
    endloop
  endfacet
  facet normal -0.790144 0 -0.612921
    outer loop
      vertex 3.15517 -2.5 -0.607637
      vertex 3.005 2.5 -0.414046
      vertex 3.15517 2.5 -0.607637
    endloop
  endfacet
  facet normal -0.790144 -0 -0.612921
    outer loop
      vertex 3.005 2.5 -0.414046
      vertex 3.15517 -2.5 -0.607637
      vertex 3.005 -2.5 -0.414046
    endloop
  endfacet
  facet normal -0.860737 0 -0.50905
    outer loop
      vertex 3.4176 -2.5 -1.02116
      vertex 3.29288 2.5 -0.810275
      vertex 3.4176 2.5 -1.02116
    endloop
  endfacet
  facet normal -0.860737 -0 -0.50905
    outer loop
      vertex 3.29288 2.5 -0.810275
      vertex 3.4176 -2.5 -1.02116
      vertex 3.29288 -2.5 -0.810275
    endloop
  endfacet
  facet normal -0.278987 0 -0.960295
    outer loop
      vertex 0.96989 -2.5 0.877474
      vertex 1.20517 2.5 0.80912
      vertex 1.20517 -2.5 0.80912
    endloop
  endfacet
  facet normal -0.278987 0 -0.960295
    outer loop
      vertex 1.20517 2.5 0.80912
      vertex 0.96989 -2.5 0.877474
      vertex 0.96989 2.5 0.877474
    endloop
  endfacet
  facet normal -0.0941089 0 -0.995562
    outer loop
      vertex 0.244883 -2.5 0.992304
      vertex 0.488799 2.5 0.969247
      vertex 0.488799 -2.5 0.969247
    endloop
  endfacet
  facet normal -0.0941089 0 -0.995562
    outer loop
      vertex 0.488799 2.5 0.969247
      vertex 0.244883 -2.5 0.992304
      vertex 0.244883 2.5 0.992304
    endloop
  endfacet
  facet normal 0.750119 0 -0.661303
    outer loop
      vertex -2.84298 -2.5 -0.230266
      vertex -3.005 2.5 -0.414046
      vertex -2.84298 2.5 -0.230266
    endloop
  endfacet
  facet normal 0.750119 0 -0.661303
    outer loop
      vertex -3.005 2.5 -0.414046
      vertex -2.84298 -2.5 -0.230266
      vertex -3.005 -2.5 -0.414046
    endloop
  endfacet
  facet normal 0.891022 0 -0.45396
    outer loop
      vertex -3.4176 -2.5 -1.02116
      vertex -3.52882 2.5 -1.23946
      vertex -3.4176 2.5 -1.02116
    endloop
  endfacet
  facet normal 0.891022 0 -0.45396
    outer loop
      vertex -3.52882 2.5 -1.23946
      vertex -3.4176 -2.5 -1.02116
      vertex -3.52882 -2.5 -1.23946
    endloop
  endfacet
  facet normal 0.960299 0 -0.278972
    outer loop
      vertex -3.70912 -2.5 -1.69483
      vertex -3.77747 2.5 -1.93011
      vertex -3.70912 2.5 -1.69483
    endloop
  endfacet
  facet normal 0.960299 0 -0.278972
    outer loop
      vertex -3.77747 2.5 -1.93011
      vertex -3.70912 -2.5 -1.69483
      vertex -3.77747 -2.5 -1.93011
    endloop
  endfacet
  facet normal 0.66131 0 -0.750113
    outer loop
      vertex -2.66973 -2.5 -0.0570221
      vertex -2.48595 2.5 0.105001
      vertex -2.48595 -2.5 0.105001
    endloop
  endfacet
  facet normal 0.66131 0 -0.750113
    outer loop
      vertex -2.48595 2.5 0.105001
      vertex -2.66973 -2.5 -0.0570221
      vertex -2.66973 2.5 -0.0570221
    endloop
  endfacet
  facet normal 0.453992 0 -0.891006
    outer loop
      vertex -1.87884 -2.5 0.517595
      vertex -1.66054 2.5 0.628825
      vertex -1.66054 -2.5 0.628825
    endloop
  endfacet
  facet normal 0.453992 0 -0.891006
    outer loop
      vertex -1.66054 2.5 0.628825
      vertex -1.87884 -2.5 0.517595
      vertex -1.87884 2.5 0.517595
    endloop
  endfacet
  facet normal 0.338737 0 -0.940881
    outer loop
      vertex -1.43569 -2.5 0.726128
      vertex -1.20517 2.5 0.80912
      vertex -1.20517 -2.5 0.80912
    endloop
  endfacet
  facet normal 0.338737 0 -0.940881
    outer loop
      vertex -1.20517 2.5 0.80912
      vertex -1.43569 -2.5 0.726128
      vertex -1.43569 2.5 0.726128
    endloop
  endfacet
  facet normal 0.156435 0 -0.987688
    outer loop
      vertex -0.730786 -2.5 0.93092
      vertex -0.488799 2.5 0.969247
      vertex -0.488799 -2.5 0.969247
    endloop
  endfacet
  facet normal 0.156435 0 -0.987688
    outer loop
      vertex -0.488799 2.5 0.969247
      vertex -0.730786 -2.5 0.93092
      vertex -0.730786 2.5 0.93092
    endloop
  endfacet
endsolid OpenSCAD_Model
