solid OpenSCAD_Model
  facet normal -1 0 0
    outer loop
      vertex -5 -2.5 -2.5
      vertex -5 2.5 2.5
      vertex -5 2.5 -2.5
    endloop
  endfacet
  facet normal -1 -0 0
    outer loop
      vertex -5 2.5 2.5
      vertex -5 -2.5 -2.5
      vertex -5 -2.5 2.5
    endloop
  endfacet
  facet normal -0 0 1
    outer loop
      vertex -5 2.5 2.5
      vertex 5 -2.5 2.5
      vertex 5 2.5 2.5
    endloop
  endfacet
  facet normal 0 0 1
    outer loop
      vertex 5 -2.5 2.5
      vertex -5 2.5 2.5
      vertex -5 -2.5 2.5
    endloop
  endfacet
  facet normal 1 -0 0
    outer loop
      vertex 5 -2.5 2.5
      vertex 5 2.5 -2.5
      vertex 5 2.5 2.5
    endloop
  endfacet
  facet normal 1 0 0
    outer loop
      vertex 5 2.5 -2.5
      vertex 5 -2.5 2.5
      vertex 5 -2.5 -2.5
    endloop
  endfacet
  facet normal 0 0 -1
    outer loop
      vertex -5 -2.5 -2.5
      vertex -4 2.5 -2.5
      vertex -4 -2.5 -2.5
    endloop
  endfacet
  facet normal -0 0 -1
    outer loop
      vertex -4 2.5 -2.5
      vertex -5 -2.5 -2.5
      vertex -5 2.5 -2.5
    endloop
  endfacet
  facet normal 0 0 -1
    outer loop
      vertex 4 -2.5 -2.5
      vertex 5 2.5 -2.5
      vertex 5 -2.5 -2.5
    endloop
  endfacet
  facet normal -0 0 -1
    outer loop
      vertex 5 2.5 -2.5
      vertex 4 -2.5 -2.5
      vertex 4 2.5 -2.5
    endloop
  endfacet
  facet normal 0 -1 0
    outer loop
      vertex -5 -2.5 2.5
      vertex 0 -2.5 1.5
      vertex 5 -2.5 2.5
    endloop
  endfacet
  facet normal 0 -1 0
    outer loop
      vertex -5 -2.5 2.5
      vertex -0.251162 -2.5 1.49211
      vertex 0 -2.5 1.5
    endloop
  endfacet
  facet normal 0 -1 0
    outer loop
      vertex -5 -2.5 2.5
      vertex -0.501332 -2.5 1.46846
      vertex -0.251162 -2.5 1.49211
    endloop
  endfacet
  facet normal 0 -1 0
    outer loop
      vertex -5 -2.5 2.5
      vertex -0.749525 -2.5 1.42915
      vertex -0.501332 -2.5 1.46846
    endloop
  endfacet
  facet normal 0 -1 0
    outer loop
      vertex -5 -2.5 2.5
      vertex -0.994759 -2.5 1.37433
      vertex -0.749525 -2.5 1.42915
    endloop
  endfacet
  facet normal 0 -1 0
    outer loop
      vertex -5 -2.5 2.5
      vertex -1.23607 -2.5 1.30423
      vertex -0.994759 -2.5 1.37433
    endloop
  endfacet
  facet normal 0 -1 0
    outer loop
      vertex -5 -2.5 2.5
      vertex -1.4725 -2.5 1.21911
      vertex -1.23607 -2.5 1.30423
    endloop
  endfacet
  facet normal 0 -1 0
    outer loop
      vertex -5 -2.5 2.5
      vertex -1.70312 -2.5 1.11931
      vertex -1.4725 -2.5 1.21911
    endloop
  endfacet
  facet normal 0 -1 0
    outer loop
      vertex -5 -2.5 2.5
      vertex -1.92701 -2.5 1.00523
      vertex -1.70312 -2.5 1.11931
    endloop
  endfacet
  facet normal 0 -1 0
    outer loop
      vertex -5 -2.5 2.5
      vertex -2.14331 -2.5 0.877311
      vertex -1.92701 -2.5 1.00523
    endloop
  endfacet
  facet normal 0 -1 0
    outer loop
      vertex -5 -2.5 2.5
      vertex -2.35114 -2.5 0.736068
      vertex -2.14331 -2.5 0.877311
    endloop
  endfacet
  facet normal 0 -1 0
    outer loop
      vertex -5 -2.5 2.5
      vertex -2.5497 -2.5 0.582052
      vertex -2.35114 -2.5 0.736068
    endloop
  endfacet
  facet normal 0 -1 0
    outer loop
      vertex -5 -2.5 2.5
      vertex -2.73819 -2.5 0.415874
      vertex -2.5497 -2.5 0.582052
    endloop
  endfacet
  facet normal 0 -1 0
    outer loop
      vertex -5 -2.5 2.5
      vertex -2.91587 -2.5 0.238188
      vertex -2.73819 -2.5 0.415874
    endloop
  endfacet
  facet normal 0 -1 0
    outer loop
      vertex -5 -2.5 2.5
      vertex -3.08205 -2.5 0.049695
      vertex -2.91587 -2.5 0.238188
    endloop
  endfacet
  facet normal 0 -1 0
    outer loop
      vertex -5 -2.5 2.5
      vertex -3.23607 -2.5 -0.148858
      vertex -3.08205 -2.5 0.049695
    endloop
  endfacet
  facet normal 0 -1 0
    outer loop
      vertex -5 -2.5 2.5
      vertex -3.37731 -2.5 -0.356692
      vertex -3.23607 -2.5 -0.148858
    endloop
  endfacet
  facet normal 0 -1 0
    outer loop
      vertex -5 -2.5 2.5
      vertex -3.50523 -2.5 -0.572985
      vertex -3.37731 -2.5 -0.356692
    endloop
  endfacet
  facet normal 0 -1 0
    outer loop
      vertex -5 -2.5 2.5
      vertex -3.61931 -2.5 -0.796883
      vertex -3.50523 -2.5 -0.572985
    endloop
  endfacet
  facet normal 0 -1 0
    outer loop
      vertex -5 -2.5 2.5
      vertex -3.71911 -2.5 -1.0275
      vertex -3.61931 -2.5 -0.796883
    endloop
  endfacet
  facet normal 0 -1 0
    outer loop
      vertex -5 -2.5 -2.5
      vertex -3.71911 -2.5 -1.0275
      vertex -5 -2.5 2.5
    endloop
  endfacet
  facet normal 0 -1 0
    outer loop
      vertex -3.71911 -2.5 -1.0275
      vertex -5 -2.5 -2.5
      vertex -3.80423 -2.5 -1.26393
    endloop
  endfacet
  facet normal 0 -1 0
    outer loop
      vertex -3.80423 -2.5 -1.26393
      vertex -5 -2.5 -2.5
      vertex -3.87433 -2.5 -1.50524
    endloop
  endfacet
  facet normal 0 -1 0
    outer loop
      vertex -3.87433 -2.5 -1.50524
      vertex -5 -2.5 -2.5
      vertex -3.92915 -2.5 -1.75047
    endloop
  endfacet
  facet normal 0 -1 0
    outer loop
      vertex -3.92915 -2.5 -1.75047
      vertex -5 -2.5 -2.5
      vertex -3.96846 -2.5 -1.99867
    endloop
  endfacet
  facet normal 0 -1 0
    outer loop
      vertex -3.96846 -2.5 -1.99867
      vertex -5 -2.5 -2.5
      vertex -3.99211 -2.5 -2.24884
    endloop
  endfacet
  facet normal 0 -1 0
    outer loop
      vertex -3.99211 -2.5 -2.24884
      vertex -5 -2.5 -2.5
      vertex -4 -2.5 -2.5
    endloop
  endfacet
  facet normal 0 -1 0
    outer loop
      vertex 0.251162 -2.5 1.49211
      vertex 5 -2.5 2.5
      vertex 0 -2.5 1.5
    endloop
  endfacet
  facet normal 0 -1 0
    outer loop
      vertex 0.501332 -2.5 1.46846
      vertex 5 -2.5 2.5
      vertex 0.251162 -2.5 1.49211
    endloop
  endfacet
  facet normal 0 -1 0
    outer loop
      vertex 0.749525 -2.5 1.42915
      vertex 5 -2.5 2.5
      vertex 0.501332 -2.5 1.46846
    endloop
  endfacet
  facet normal 0 -1 0
    outer loop
      vertex 0.994759 -2.5 1.37433
      vertex 5 -2.5 2.5
      vertex 0.749525 -2.5 1.42915
    endloop
  endfacet
  facet normal 0 -1 0
    outer loop
      vertex 1.23607 -2.5 1.30423
      vertex 5 -2.5 2.5
      vertex 0.994759 -2.5 1.37433
    endloop
  endfacet
  facet normal 0 -1 0
    outer loop
      vertex 1.4725 -2.5 1.21911
      vertex 5 -2.5 2.5
      vertex 1.23607 -2.5 1.30423
    endloop
  endfacet
  facet normal 0 -1 0
    outer loop
      vertex 1.70312 -2.5 1.11931
      vertex 5 -2.5 2.5
      vertex 1.4725 -2.5 1.21911
    endloop
  endfacet
  facet normal 0 -1 0
    outer loop
      vertex 1.92701 -2.5 1.00523
      vertex 5 -2.5 2.5
      vertex 1.70312 -2.5 1.11931
    endloop
  endfacet
  facet normal 0 -1 0
    outer loop
      vertex 2.14331 -2.5 0.877311
      vertex 5 -2.5 2.5
      vertex 1.92701 -2.5 1.00523
    endloop
  endfacet
  facet normal 0 -1 0
    outer loop
      vertex 2.35114 -2.5 0.736068
      vertex 5 -2.5 2.5
      vertex 2.14331 -2.5 0.877311
    endloop
  endfacet
  facet normal 0 -1 0
    outer loop
      vertex 2.5497 -2.5 0.582052
      vertex 5 -2.5 2.5
      vertex 2.35114 -2.5 0.736068
    endloop
  endfacet
  facet normal 0 -1 0
    outer loop
      vertex 2.73819 -2.5 0.415874
      vertex 5 -2.5 2.5
      vertex 2.5497 -2.5 0.582052
    endloop
  endfacet
  facet normal 0 -1 0
    outer loop
      vertex 2.91587 -2.5 0.238188
      vertex 5 -2.5 2.5
      vertex 2.73819 -2.5 0.415874
    endloop
  endfacet
  facet normal 0 -1 0
    outer loop
      vertex 3.08205 -2.5 0.049695
      vertex 5 -2.5 2.5
      vertex 2.91587 -2.5 0.238188
    endloop
  endfacet
  facet normal 0 -1 0
    outer loop
      vertex 3.23607 -2.5 -0.148858
      vertex 5 -2.5 2.5
      vertex 3.08205 -2.5 0.049695
    endloop
  endfacet
  facet normal 0 -1 0
    outer loop
      vertex 3.37731 -2.5 -0.356692
      vertex 5 -2.5 2.5
      vertex 3.23607 -2.5 -0.148858
    endloop
  endfacet
  facet normal 0 -1 0
    outer loop
      vertex 3.50523 -2.5 -0.572985
      vertex 5 -2.5 2.5
      vertex 3.37731 -2.5 -0.356692
    endloop
  endfacet
  facet normal 0 -1 0
    outer loop
      vertex 3.61931 -2.5 -0.796883
      vertex 5 -2.5 2.5
      vertex 3.50523 -2.5 -0.572985
    endloop
  endfacet
  facet normal 0 -1 0
    outer loop
      vertex 3.71911 -2.5 -1.0275
      vertex 5 -2.5 2.5
      vertex 3.61931 -2.5 -0.796883
    endloop
  endfacet
  facet normal 0 -1 0
    outer loop
      vertex 5 -2.5 -2.5
      vertex 3.71911 -2.5 -1.0275
      vertex 3.80423 -2.5 -1.26393
    endloop
  endfacet
  facet normal 0 -1 0
    outer loop
      vertex 5 -2.5 -2.5
      vertex 3.80423 -2.5 -1.26393
      vertex 3.87433 -2.5 -1.50524
    endloop
  endfacet
  facet normal 0 -1 0
    outer loop
      vertex 5 -2.5 -2.5
      vertex 3.87433 -2.5 -1.50524
      vertex 3.92915 -2.5 -1.75047
    endloop
  endfacet
  facet normal 0 -1 0
    outer loop
      vertex 5 -2.5 -2.5
      vertex 3.92915 -2.5 -1.75047
      vertex 3.96846 -2.5 -1.99867
    endloop
  endfacet
  facet normal 0 -1 0
    outer loop
      vertex 5 -2.5 -2.5
      vertex 3.96846 -2.5 -1.99867
      vertex 3.99211 -2.5 -2.24884
    endloop
  endfacet
  facet normal 0 -1 0
    outer loop
      vertex 5 -2.5 -2.5
      vertex 3.99211 -2.5 -2.24884
      vertex 4 -2.5 -2.5
    endloop
  endfacet
  facet normal 0 -1 0
    outer loop
      vertex 3.71911 -2.5 -1.0275
      vertex 5 -2.5 -2.5
      vertex 5 -2.5 2.5
    endloop
  endfacet
  facet normal 0 1 0
    outer loop
      vertex 5 2.5 2.5
      vertex 0 2.5 1.5
      vertex -5 2.5 2.5
    endloop
  endfacet
  facet normal 0 1 0
    outer loop
      vertex 5 2.5 2.5
      vertex 0.251162 2.5 1.49211
      vertex 0 2.5 1.5
    endloop
  endfacet
  facet normal 0 1 0
    outer loop
      vertex 5 2.5 2.5
      vertex 0.501332 2.5 1.46846
      vertex 0.251162 2.5 1.49211
    endloop
  endfacet
  facet normal 0 1 0
    outer loop
      vertex 5 2.5 2.5
      vertex 0.749525 2.5 1.42915
      vertex 0.501332 2.5 1.46846
    endloop
  endfacet
  facet normal 0 1 0
    outer loop
      vertex 5 2.5 2.5
      vertex 0.994759 2.5 1.37433
      vertex 0.749525 2.5 1.42915
    endloop
  endfacet
  facet normal 0 1 0
    outer loop
      vertex 5 2.5 2.5
      vertex 1.23607 2.5 1.30423
      vertex 0.994759 2.5 1.37433
    endloop
  endfacet
  facet normal 0 1 0
    outer loop
      vertex 5 2.5 2.5
      vertex 1.4725 2.5 1.21911
      vertex 1.23607 2.5 1.30423
    endloop
  endfacet
  facet normal 0 1 0
    outer loop
      vertex 5 2.5 2.5
      vertex 1.70312 2.5 1.11931
      vertex 1.4725 2.5 1.21911
    endloop
  endfacet
  facet normal 0 1 0
    outer loop
      vertex 5 2.5 2.5
      vertex 1.92701 2.5 1.00523
      vertex 1.70312 2.5 1.11931
    endloop
  endfacet
  facet normal 0 1 0
    outer loop
      vertex 5 2.5 2.5
      vertex 2.14331 2.5 0.877311
      vertex 1.92701 2.5 1.00523
    endloop
  endfacet
  facet normal 0 1 0
    outer loop
      vertex 5 2.5 2.5
      vertex 2.35114 2.5 0.736068
      vertex 2.14331 2.5 0.877311
    endloop
  endfacet
  facet normal 0 1 0
    outer loop
      vertex 5 2.5 2.5
      vertex 2.5497 2.5 0.582052
      vertex 2.35114 2.5 0.736068
    endloop
  endfacet
  facet normal 0 1 0
    outer loop
      vertex 5 2.5 2.5
      vertex 2.73819 2.5 0.415874
      vertex 2.5497 2.5 0.582052
    endloop
  endfacet
  facet normal 0 1 0
    outer loop
      vertex 5 2.5 2.5
      vertex 2.91587 2.5 0.238188
      vertex 2.73819 2.5 0.415874
    endloop
  endfacet
  facet normal 0 1 0
    outer loop
      vertex 5 2.5 2.5
      vertex 3.08205 2.5 0.049695
      vertex 2.91587 2.5 0.238188
    endloop
  endfacet
  facet normal 0 1 0
    outer loop
      vertex 5 2.5 2.5
      vertex 3.23607 2.5 -0.148858
      vertex 3.08205 2.5 0.049695
    endloop
  endfacet
  facet normal 0 1 0
    outer loop
      vertex 5 2.5 2.5
      vertex 3.37731 2.5 -0.356692
      vertex 3.23607 2.5 -0.148858
    endloop
  endfacet
  facet normal 0 1 0
    outer loop
      vertex 5 2.5 2.5
      vertex 3.50523 2.5 -0.572985
      vertex 3.37731 2.5 -0.356692
    endloop
  endfacet
  facet normal 0 1 0
    outer loop
      vertex 5 2.5 2.5
      vertex 3.61931 2.5 -0.796883
      vertex 3.50523 2.5 -0.572985
    endloop
  endfacet
  facet normal 0 1 0
    outer loop
      vertex 5 2.5 2.5
      vertex 3.71911 2.5 -1.0275
      vertex 3.61931 2.5 -0.796883
    endloop
  endfacet
  facet normal 0 1 -0
    outer loop
      vertex 5 2.5 -2.5
      vertex 3.71911 2.5 -1.0275
      vertex 5 2.5 2.5
    endloop
  endfacet
  facet normal 0 1 0
    outer loop
      vertex 3.71911 2.5 -1.0275
      vertex 5 2.5 -2.5
      vertex 3.80423 2.5 -1.26393
    endloop
  endfacet
  facet normal 0 1 0
    outer loop
      vertex 3.80423 2.5 -1.26393
      vertex 5 2.5 -2.5
      vertex 3.87433 2.5 -1.50524
    endloop
  endfacet
  facet normal 0 1 0
    outer loop
      vertex 3.87433 2.5 -1.50524
      vertex 5 2.5 -2.5
      vertex 3.92915 2.5 -1.75047
    endloop
  endfacet
  facet normal 0 1 0
    outer loop
      vertex 3.92915 2.5 -1.75047
      vertex 5 2.5 -2.5
      vertex 3.96846 2.5 -1.99867
    endloop
  endfacet
  facet normal 0 1 0
    outer loop
      vertex 3.96846 2.5 -1.99867
      vertex 5 2.5 -2.5
      vertex 3.99211 2.5 -2.24884
    endloop
  endfacet
  facet normal 0 1 0
    outer loop
      vertex 3.99211 2.5 -2.24884
      vertex 5 2.5 -2.5
      vertex 4 2.5 -2.5
    endloop
  endfacet
  facet normal 0 1 -0
    outer loop
      vertex -0.251162 2.5 1.49211
      vertex -5 2.5 2.5
      vertex 0 2.5 1.5
    endloop
  endfacet
  facet normal 0 1 -0
    outer loop
      vertex -0.501332 2.5 1.46846
      vertex -5 2.5 2.5
      vertex -0.251162 2.5 1.49211
    endloop
  endfacet
  facet normal 0 1 -0
    outer loop
      vertex -0.749525 2.5 1.42915
      vertex -5 2.5 2.5
      vertex -0.501332 2.5 1.46846
    endloop
  endfacet
  facet normal 0 1 -0
    outer loop
      vertex -0.994759 2.5 1.37433
      vertex -5 2.5 2.5
      vertex -0.749525 2.5 1.42915
    endloop
  endfacet
  facet normal 0 1 -0
    outer loop
      vertex -1.23607 2.5 1.30423
      vertex -5 2.5 2.5
      vertex -0.994759 2.5 1.37433
    endloop
  endfacet
  facet normal 0 1 -0
    outer loop
      vertex -1.4725 2.5 1.21911
      vertex -5 2.5 2.5
      vertex -1.23607 2.5 1.30423
    endloop
  endfacet
  facet normal 0 1 -0
    outer loop
      vertex -1.70312 2.5 1.11931
      vertex -5 2.5 2.5
      vertex -1.4725 2.5 1.21911
    endloop
  endfacet
  facet normal 0 1 -0
    outer loop
      vertex -1.92701 2.5 1.00523
      vertex -5 2.5 2.5
      vertex -1.70312 2.5 1.11931
    endloop
  endfacet
  facet normal 0 1 -0
    outer loop
      vertex -2.14331 2.5 0.877311
      vertex -5 2.5 2.5
      vertex -1.92701 2.5 1.00523
    endloop
  endfacet
  facet normal 0 1 -0
    outer loop
      vertex -2.35114 2.5 0.736068
      vertex -5 2.5 2.5
      vertex -2.14331 2.5 0.877311
    endloop
  endfacet
  facet normal 0 1 -0
    outer loop
      vertex -2.5497 2.5 0.582052
      vertex -5 2.5 2.5
      vertex -2.35114 2.5 0.736068
    endloop
  endfacet
  facet normal 0 1 -0
    outer loop
      vertex -2.73819 2.5 0.415874
      vertex -5 2.5 2.5
      vertex -2.5497 2.5 0.582052
    endloop
  endfacet
  facet normal 0 1 -0
    outer loop
      vertex -2.91587 2.5 0.238188
      vertex -5 2.5 2.5
      vertex -2.73819 2.5 0.415874
    endloop
  endfacet
  facet normal 0 1 -0
    outer loop
      vertex -3.08205 2.5 0.049695
      vertex -5 2.5 2.5
      vertex -2.91587 2.5 0.238188
    endloop
  endfacet
  facet normal 0 1 -0
    outer loop
      vertex -3.23607 2.5 -0.148858
      vertex -5 2.5 2.5
      vertex -3.08205 2.5 0.049695
    endloop
  endfacet
  facet normal 0 1 -0
    outer loop
      vertex -3.37731 2.5 -0.356692
      vertex -5 2.5 2.5
      vertex -3.23607 2.5 -0.148858
    endloop
  endfacet
  facet normal 0 1 -0
    outer loop
      vertex -3.50523 2.5 -0.572985
      vertex -5 2.5 2.5
      vertex -3.37731 2.5 -0.356692
    endloop
  endfacet
  facet normal 0 1 -0
    outer loop
      vertex -3.61931 2.5 -0.796883
      vertex -5 2.5 2.5
      vertex -3.50523 2.5 -0.572985
    endloop
  endfacet
  facet normal 0 1 -0
    outer loop
      vertex -3.71911 2.5 -1.0275
      vertex -5 2.5 2.5
      vertex -3.61931 2.5 -0.796883
    endloop
  endfacet
  facet normal 0 1 0
    outer loop
      vertex -5 2.5 -2.5
      vertex -3.71911 2.5 -1.0275
      vertex -3.80423 2.5 -1.26393
    endloop
  endfacet
  facet normal 0 1 0
    outer loop
      vertex -5 2.5 -2.5
      vertex -3.80423 2.5 -1.26393
      vertex -3.87433 2.5 -1.50524
    endloop
  endfacet
  facet normal 0 1 0
    outer loop
      vertex -5 2.5 -2.5
      vertex -3.87433 2.5 -1.50524
      vertex -3.92915 2.5 -1.75047
    endloop
  endfacet
  facet normal 0 1 0
    outer loop
      vertex -5 2.5 -2.5
      vertex -3.92915 2.5 -1.75047
      vertex -3.96846 2.5 -1.99867
    endloop
  endfacet
  facet normal 0 1 0
    outer loop
      vertex -5 2.5 -2.5
      vertex -3.96846 2.5 -1.99867
      vertex -3.99211 2.5 -2.24884
    endloop
  endfacet
  facet normal 0 1 0
    outer loop
      vertex -5 2.5 -2.5
      vertex -3.99211 2.5 -2.24884
      vertex -4 2.5 -2.5
    endloop
  endfacet
  facet normal 0 1 0
    outer loop
      vertex -3.71911 2.5 -1.0275
      vertex -5 2.5 -2.5
      vertex -5 2.5 2.5
    endloop
  endfacet
  facet normal -0.999507 0 -0.0313987
    outer loop
      vertex 4 -2.5 -2.5
      vertex 3.99211 2.5 -2.24884
      vertex 4 2.5 -2.5
    endloop
  endfacet
  facet normal -0.999507 -0 -0.0313987
    outer loop
      vertex 3.99211 2.5 -2.24884
      vertex 4 -2.5 -2.5
      vertex 3.99211 -2.5 -2.24884
    endloop
  endfacet
  facet normal -0.995561 0 -0.0941161
    outer loop
      vertex 3.99211 -2.5 -2.24884
      vertex 3.96846 2.5 -1.99867
      vertex 3.99211 2.5 -2.24884
    endloop
  endfacet
  facet normal -0.995561 -0 -0.0941161
    outer loop
      vertex 3.96846 2.5 -1.99867
      vertex 3.99211 -2.5 -2.24884
      vertex 3.96846 -2.5 -1.99867
    endloop
  endfacet
  facet normal 0.999507 0 -0.0313987
    outer loop
      vertex -3.99211 -2.5 -2.24884
      vertex -4 2.5 -2.5
      vertex -3.99211 2.5 -2.24884
    endloop
  endfacet
  facet normal 0.999507 0 -0.0313987
    outer loop
      vertex -4 2.5 -2.5
      vertex -3.99211 -2.5 -2.24884
      vertex -4 -2.5 -2.5
    endloop
  endfacet
  facet normal -0.0313985 0 -0.999507
    outer loop
      vertex 0 -2.5 1.5
      vertex 0.251162 2.5 1.49211
      vertex 0.251162 -2.5 1.49211
    endloop
  endfacet
  facet normal -0.0313985 0 -0.999507
    outer loop
      vertex 0.251162 2.5 1.49211
      vertex 0 -2.5 1.5
      vertex 0 2.5 1.5
    endloop
  endfacet
  facet normal -0.707119 0 -0.707095
    outer loop
      vertex 2.91587 -2.5 0.238188
      vertex 2.73819 2.5 0.415874
      vertex 2.91587 2.5 0.238188
    endloop
  endfacet
  facet normal -0.707119 -0 -0.707095
    outer loop
      vertex 2.73819 2.5 0.415874
      vertex 2.91587 -2.5 0.238188
      vertex 2.73819 -2.5 0.415874
    endloop
  endfacet
  facet normal 0.661316 0 -0.750108
    outer loop
      vertex -2.73819 -2.5 0.415874
      vertex -2.5497 2.5 0.582052
      vertex -2.5497 -2.5 0.582052
    endloop
  endfacet
  facet normal 0.661316 0 -0.750108
    outer loop
      vertex -2.5497 2.5 0.582052
      vertex -2.73819 -2.5 0.415874
      vertex -2.73819 2.5 0.415874
    endloop
  endfacet
  facet normal 0.338738 0 -0.940881
    outer loop
      vertex -1.4725 -2.5 1.21911
      vertex -1.23607 2.5 1.30423
      vertex -1.23607 -2.5 1.30423
    endloop
  endfacet
  facet normal 0.338738 0 -0.940881
    outer loop
      vertex -1.23607 2.5 1.30423
      vertex -1.4725 -2.5 1.21911
      vertex -1.4725 2.5 1.21911
    endloop
  endfacet
  facet normal -0.91775 0 -0.397158
    outer loop
      vertex 3.71911 -2.5 -1.0275
      vertex 3.61931 2.5 -0.796883
      vertex 3.71911 2.5 -1.0275
    endloop
  endfacet
  facet normal -0.91775 -0 -0.397158
    outer loop
      vertex 3.61931 2.5 -0.796883
      vertex 3.71911 -2.5 -1.0275
      vertex 3.61931 -2.5 -0.796883
    endloop
  endfacet
  facet normal -0.975913 0 -0.218161
    outer loop
      vertex 3.92915 -2.5 -1.75047
      vertex 3.87433 2.5 -1.50524
      vertex 3.92915 2.5 -1.75047
    endloop
  endfacet
  facet normal -0.975913 -0 -0.218161
    outer loop
      vertex 3.87433 2.5 -1.50524
      vertex 3.92915 -2.5 -1.75047
      vertex 3.87433 -2.5 -1.50524
    endloop
  endfacet
  facet normal -0.891009 0 -0.453985
    outer loop
      vertex 3.61931 -2.5 -0.796883
      vertex 3.50523 2.5 -0.572985
      vertex 3.61931 2.5 -0.796883
    endloop
  endfacet
  facet normal -0.891009 -0 -0.453985
    outer loop
      vertex 3.50523 2.5 -0.572985
      vertex 3.61931 -2.5 -0.796883
      vertex 3.50523 -2.5 -0.572985
    endloop
  endfacet
  facet normal -0.750109 0 -0.661314
    outer loop
      vertex 3.08205 -2.5 0.049695
      vertex 2.91587 2.5 0.238188
      vertex 3.08205 2.5 0.049695
    endloop
  endfacet
  facet normal -0.750109 -0 -0.661314
    outer loop
      vertex 2.91587 2.5 0.238188
      vertex 3.08205 -2.5 0.049695
      vertex 2.91587 -2.5 0.238188
    endloop
  endfacet
  facet normal -0.218157 0 -0.975914
    outer loop
      vertex 0.749525 -2.5 1.42915
      vertex 0.994759 2.5 1.37433
      vertex 0.994759 -2.5 1.37433
    endloop
  endfacet
  facet normal -0.218157 0 -0.975914
    outer loop
      vertex 0.994759 2.5 1.37433
      vertex 0.749525 -2.5 1.42915
      vertex 0.749525 2.5 1.42915
    endloop
  endfacet
  facet normal -0.156435 0 -0.987688
    outer loop
      vertex 0.501332 -2.5 1.46846
      vertex 0.749525 2.5 1.42915
      vertex 0.749525 -2.5 1.42915
    endloop
  endfacet
  facet normal -0.156435 0 -0.987688
    outer loop
      vertex 0.749525 2.5 1.42915
      vertex 0.501332 -2.5 1.46846
      vertex 0.501332 2.5 1.46846
    endloop
  endfacet
  facet normal 0.790142 0 -0.612923
    outer loop
      vertex -3.08205 -2.5 0.049695
      vertex -3.23607 2.5 -0.148858
      vertex -3.08205 2.5 0.049695
    endloop
  endfacet
  facet normal 0.790142 0 -0.612923
    outer loop
      vertex -3.23607 2.5 -0.148858
      vertex -3.08205 -2.5 0.049695
      vertex -3.23607 -2.5 -0.148858
    endloop
  endfacet
  facet normal 0.827088 0 -0.562073
    outer loop
      vertex -3.23607 -2.5 -0.148858
      vertex -3.37731 2.5 -0.356692
      vertex -3.23607 2.5 -0.148858
    endloop
  endfacet
  facet normal 0.827088 0 -0.562073
    outer loop
      vertex -3.37731 2.5 -0.356692
      vertex -3.23607 -2.5 -0.148858
      vertex -3.37731 -2.5 -0.356692
    endloop
  endfacet
  facet normal 0.975913 0 -0.218161
    outer loop
      vertex -3.87433 -2.5 -1.50524
      vertex -3.92915 2.5 -1.75047
      vertex -3.87433 2.5 -1.50524
    endloop
  endfacet
  facet normal 0.975913 0 -0.218161
    outer loop
      vertex -3.92915 2.5 -1.75047
      vertex -3.87433 -2.5 -1.50524
      vertex -3.92915 -2.5 -1.75047
    endloop
  endfacet
  facet normal 0.987689 0 -0.156431
    outer loop
      vertex -3.92915 -2.5 -1.75047
      vertex -3.96846 2.5 -1.99867
      vertex -3.92915 2.5 -1.75047
    endloop
  endfacet
  facet normal 0.987689 0 -0.156431
    outer loop
      vertex -3.96846 2.5 -1.99867
      vertex -3.92915 -2.5 -1.75047
      vertex -3.96846 -2.5 -1.99867
    endloop
  endfacet
  facet normal 0.50904 0 -0.860743
    outer loop
      vertex -2.14331 -2.5 0.877311
      vertex -1.92701 2.5 1.00523
      vertex -1.92701 -2.5 1.00523
    endloop
  endfacet
  facet normal 0.50904 0 -0.860743
    outer loop
      vertex -1.92701 2.5 1.00523
      vertex -2.14331 -2.5 0.877311
      vertex -2.14331 2.5 0.877311
    endloop
  endfacet
  facet normal 0.0313985 0 -0.999507
    outer loop
      vertex -0.251162 -2.5 1.49211
      vertex 0 2.5 1.5
      vertex 0 -2.5 1.5
    endloop
  endfacet
  facet normal 0.0313985 0 -0.999507
    outer loop
      vertex 0 2.5 1.5
      vertex -0.251162 -2.5 1.49211
      vertex -0.251162 2.5 1.49211
    endloop
  endfacet
  facet normal -0.987689 0 -0.156431
    outer loop
      vertex 3.96846 -2.5 -1.99867
      vertex 3.92915 2.5 -1.75047
      vertex 3.96846 2.5 -1.99867
    endloop
  endfacet
  facet normal -0.987689 -0 -0.156431
    outer loop
      vertex 3.92915 2.5 -1.75047
      vertex 3.96846 -2.5 -1.99867
      vertex 3.92915 -2.5 -1.75047
    endloop
  endfacet
  facet normal -0.940881 0 -0.338738
    outer loop
      vertex 3.80423 -2.5 -1.26393
      vertex 3.71911 2.5 -1.0275
      vertex 3.80423 2.5 -1.26393
    endloop
  endfacet
  facet normal -0.940881 -0 -0.338738
    outer loop
      vertex 3.71911 2.5 -1.0275
      vertex 3.80423 -2.5 -1.26393
      vertex 3.71911 -2.5 -1.0275
    endloop
  endfacet
  facet normal -0.960301 0 -0.278965
    outer loop
      vertex 3.87433 -2.5 -1.50524
      vertex 3.80423 2.5 -1.26393
      vertex 3.87433 2.5 -1.50524
    endloop
  endfacet
  facet normal -0.960301 -0 -0.278965
    outer loop
      vertex 3.80423 2.5 -1.26393
      vertex 3.87433 -2.5 -1.50524
      vertex 3.80423 -2.5 -1.26393
    endloop
  endfacet
  facet normal -0.790142 0 -0.612923
    outer loop
      vertex 3.23607 -2.5 -0.148858
      vertex 3.08205 2.5 0.049695
      vertex 3.23607 2.5 -0.148858
    endloop
  endfacet
  facet normal -0.790142 -0 -0.612923
    outer loop
      vertex 3.08205 2.5 0.049695
      vertex 3.23607 -2.5 -0.148858
      vertex 3.08205 -2.5 0.049695
    endloop
  endfacet
  facet normal -0.338738 0 -0.940881
    outer loop
      vertex 1.23607 -2.5 1.30423
      vertex 1.4725 2.5 1.21911
      vertex 1.4725 -2.5 1.21911
    endloop
  endfacet
  facet normal -0.338738 0 -0.940881
    outer loop
      vertex 1.4725 2.5 1.21911
      vertex 1.23607 -2.5 1.30423
      vertex 1.23607 2.5 1.30423
    endloop
  endfacet
  facet normal -0.0941161 0 -0.995561
    outer loop
      vertex 0.251162 -2.5 1.49211
      vertex 0.501332 2.5 1.46846
      vertex 0.501332 -2.5 1.46846
    endloop
  endfacet
  facet normal -0.0941161 0 -0.995561
    outer loop
      vertex 0.501332 2.5 1.46846
      vertex 0.251162 -2.5 1.49211
      vertex 0.251162 2.5 1.49211
    endloop
  endfacet
  facet normal -0.397154 0 -0.917752
    outer loop
      vertex 1.4725 -2.5 1.21911
      vertex 1.70312 2.5 1.11931
      vertex 1.70312 -2.5 1.11931
    endloop
  endfacet
  facet normal -0.397154 0 -0.917752
    outer loop
      vertex 1.70312 2.5 1.11931
      vertex 1.4725 -2.5 1.21911
      vertex 1.4725 2.5 1.21911
    endloop
  endfacet
  facet normal -0.50904 0 -0.860743
    outer loop
      vertex 1.92701 -2.5 1.00523
      vertex 2.14331 2.5 0.877311
      vertex 2.14331 -2.5 0.877311
    endloop
  endfacet
  facet normal -0.50904 0 -0.860743
    outer loop
      vertex 2.14331 2.5 0.877311
      vertex 1.92701 -2.5 1.00523
      vertex 1.92701 2.5 1.00523
    endloop
  endfacet
  facet normal -0.562088 0 -0.827077
    outer loop
      vertex 2.14331 -2.5 0.877311
      vertex 2.35114 2.5 0.736068
      vertex 2.35114 -2.5 0.736068
    endloop
  endfacet
  facet normal -0.562088 0 -0.827077
    outer loop
      vertex 2.35114 2.5 0.736068
      vertex 2.14331 -2.5 0.877311
      vertex 2.14331 2.5 0.877311
    endloop
  endfacet
  facet normal 0.860734 0 -0.509055
    outer loop
      vertex -3.37731 -2.5 -0.356692
      vertex -3.50523 2.5 -0.572985
      vertex -3.37731 2.5 -0.356692
    endloop
  endfacet
  facet normal 0.860734 0 -0.509055
    outer loop
      vertex -3.50523 2.5 -0.572985
      vertex -3.37731 -2.5 -0.356692
      vertex -3.50523 -2.5 -0.572985
    endloop
  endfacet
  facet normal 0.91775 0 -0.397158
    outer loop
      vertex -3.61931 -2.5 -0.796883
      vertex -3.71911 2.5 -1.0275
      vertex -3.61931 2.5 -0.796883
    endloop
  endfacet
  facet normal 0.91775 0 -0.397158
    outer loop
      vertex -3.71911 2.5 -1.0275
      vertex -3.61931 -2.5 -0.796883
      vertex -3.71911 -2.5 -1.0275
    endloop
  endfacet
  facet normal 0.940881 0 -0.338738
    outer loop
      vertex -3.71911 -2.5 -1.0275
      vertex -3.80423 2.5 -1.26393
      vertex -3.71911 2.5 -1.0275
    endloop
  endfacet
  facet normal 0.940881 0 -0.338738
    outer loop
      vertex -3.80423 2.5 -1.26393
      vertex -3.71911 -2.5 -1.0275
      vertex -3.80423 -2.5 -1.26393
    endloop
  endfacet
  facet normal 0.995561 0 -0.0941161
    outer loop
      vertex -3.96846 -2.5 -1.99867
      vertex -3.99211 2.5 -2.24884
      vertex -3.96846 2.5 -1.99867
    endloop
  endfacet
  facet normal 0.995561 0 -0.0941161
    outer loop
      vertex -3.99211 2.5 -2.24884
      vertex -3.96846 -2.5 -1.99867
      vertex -3.99211 -2.5 -2.24884
    endloop
  endfacet
  facet normal 0.562088 0 -0.827077
    outer loop
      vertex -2.35114 -2.5 0.736068
      vertex -2.14331 2.5 0.877311
      vertex -2.14331 -2.5 0.877311
    endloop
  endfacet
  facet normal 0.562088 0 -0.827077
    outer loop
      vertex -2.14331 2.5 0.877311
      vertex -2.35114 -2.5 0.736068
      vertex -2.35114 2.5 0.736068
    endloop
  endfacet
  facet normal 0.453998 0 -0.891003
    outer loop
      vertex -1.92701 -2.5 1.00523
      vertex -1.70312 2.5 1.11931
      vertex -1.70312 -2.5 1.11931
    endloop
  endfacet
  facet normal 0.453998 0 -0.891003
    outer loop
      vertex -1.70312 2.5 1.11931
      vertex -1.92701 -2.5 1.00523
      vertex -1.92701 2.5 1.00523
    endloop
  endfacet
  facet normal 0.218157 0 -0.975914
    outer loop
      vertex -0.994759 -2.5 1.37433
      vertex -0.749525 2.5 1.42915
      vertex -0.749525 -2.5 1.42915
    endloop
  endfacet
  facet normal 0.218157 0 -0.975914
    outer loop
      vertex -0.749525 2.5 1.42915
      vertex -0.994759 -2.5 1.37433
      vertex -0.994759 2.5 1.37433
    endloop
  endfacet
  facet normal 0.278964 0 -0.960301
    outer loop
      vertex -1.23607 -2.5 1.30423
      vertex -0.994759 2.5 1.37433
      vertex -0.994759 -2.5 1.37433
    endloop
  endfacet
  facet normal 0.278964 0 -0.960301
    outer loop
      vertex -0.994759 2.5 1.37433
      vertex -1.23607 -2.5 1.30423
      vertex -1.23607 2.5 1.30423
    endloop
  endfacet
  facet normal -0.860734 0 -0.509055
    outer loop
      vertex 3.50523 -2.5 -0.572985
      vertex 3.37731 2.5 -0.356692
      vertex 3.50523 2.5 -0.572985
    endloop
  endfacet
  facet normal -0.860734 -0 -0.509055
    outer loop
      vertex 3.37731 2.5 -0.356692
      vertex 3.50523 -2.5 -0.572985
      vertex 3.37731 -2.5 -0.356692
    endloop
  endfacet
  facet normal -0.827088 0 -0.562073
    outer loop
      vertex 3.37731 -2.5 -0.356692
      vertex 3.23607 2.5 -0.148858
      vertex 3.37731 2.5 -0.356692
    endloop
  endfacet
  facet normal -0.827088 -0 -0.562073
    outer loop
      vertex 3.23607 2.5 -0.148858
      vertex 3.37731 -2.5 -0.356692
      vertex 3.23607 -2.5 -0.148858
    endloop
  endfacet
  facet normal -0.278964 0 -0.960301
    outer loop
      vertex 0.994759 -2.5 1.37433
      vertex 1.23607 2.5 1.30423
      vertex 1.23607 -2.5 1.30423
    endloop
  endfacet
  facet normal -0.278964 0 -0.960301
    outer loop
      vertex 1.23607 2.5 1.30423
      vertex 0.994759 -2.5 1.37433
      vertex 0.994759 2.5 1.37433
    endloop
  endfacet
  facet normal -0.453998 0 -0.891003
    outer loop
      vertex 1.70312 -2.5 1.11931
      vertex 1.92701 2.5 1.00523
      vertex 1.92701 -2.5 1.00523
    endloop
  endfacet
  facet normal -0.453998 0 -0.891003
    outer loop
      vertex 1.92701 2.5 1.00523
      vertex 1.70312 -2.5 1.11931
      vertex 1.70312 2.5 1.11931
    endloop
  endfacet
  facet normal -0.661316 0 -0.750108
    outer loop
      vertex 2.5497 -2.5 0.582052
      vertex 2.73819 2.5 0.415874
      vertex 2.73819 -2.5 0.415874
    endloop
  endfacet
  facet normal -0.661316 0 -0.750108
    outer loop
      vertex 2.73819 2.5 0.415874
      vertex 2.5497 -2.5 0.582052
      vertex 2.5497 2.5 0.582052
    endloop
  endfacet
  facet normal -0.6129 0 -0.790161
    outer loop
      vertex 2.35114 -2.5 0.736068
      vertex 2.5497 2.5 0.582052
      vertex 2.5497 -2.5 0.582052
    endloop
  endfacet
  facet normal -0.6129 0 -0.790161
    outer loop
      vertex 2.5497 2.5 0.582052
      vertex 2.35114 -2.5 0.736068
      vertex 2.35114 2.5 0.736068
    endloop
  endfacet
  facet normal 0.750109 0 -0.661314
    outer loop
      vertex -2.91587 -2.5 0.238188
      vertex -3.08205 2.5 0.049695
      vertex -2.91587 2.5 0.238188
    endloop
  endfacet
  facet normal 0.750109 0 -0.661314
    outer loop
      vertex -3.08205 2.5 0.049695
      vertex -2.91587 -2.5 0.238188
      vertex -3.08205 -2.5 0.049695
    endloop
  endfacet
  facet normal 0.707119 0 -0.707095
    outer loop
      vertex -2.73819 -2.5 0.415874
      vertex -2.91587 2.5 0.238188
      vertex -2.73819 2.5 0.415874
    endloop
  endfacet
  facet normal 0.707119 0 -0.707095
    outer loop
      vertex -2.91587 2.5 0.238188
      vertex -2.73819 -2.5 0.415874
      vertex -2.91587 -2.5 0.238188
    endloop
  endfacet
  facet normal 0.891009 0 -0.453985
    outer loop
      vertex -3.50523 -2.5 -0.572985
      vertex -3.61931 2.5 -0.796883
      vertex -3.50523 2.5 -0.572985
    endloop
  endfacet
  facet normal 0.891009 0 -0.453985
    outer loop
      vertex -3.61931 2.5 -0.796883
      vertex -3.50523 -2.5 -0.572985
      vertex -3.61931 -2.5 -0.796883
    endloop
  endfacet
  facet normal 0.960301 0 -0.278965
    outer loop
      vertex -3.80423 -2.5 -1.26393
      vertex -3.87433 2.5 -1.50524
      vertex -3.80423 2.5 -1.26393
    endloop
  endfacet
  facet normal 0.960301 0 -0.278965
    outer loop
      vertex -3.87433 2.5 -1.50524
      vertex -3.80423 -2.5 -1.26393
      vertex -3.87433 -2.5 -1.50524
    endloop
  endfacet
  facet normal 0.6129 0 -0.790161
    outer loop
      vertex -2.5497 -2.5 0.582052
      vertex -2.35114 2.5 0.736068
      vertex -2.35114 -2.5 0.736068
    endloop
  endfacet
  facet normal 0.6129 0 -0.790161
    outer loop
      vertex -2.35114 2.5 0.736068
      vertex -2.5497 -2.5 0.582052
      vertex -2.5497 2.5 0.582052
    endloop
  endfacet
  facet normal 0.397154 0 -0.917752
    outer loop
      vertex -1.70312 -2.5 1.11931
      vertex -1.4725 2.5 1.21911
      vertex -1.4725 -2.5 1.21911
    endloop
  endfacet
  facet normal 0.397154 0 -0.917752
    outer loop
      vertex -1.4725 2.5 1.21911
      vertex -1.70312 -2.5 1.11931
      vertex -1.70312 2.5 1.11931
    endloop
  endfacet
  facet normal 0.0941161 0 -0.995561
    outer loop
      vertex -0.501332 -2.5 1.46846
      vertex -0.251162 2.5 1.49211
      vertex -0.251162 -2.5 1.49211
    endloop
  endfacet
  facet normal 0.0941161 0 -0.995561
    outer loop
      vertex -0.251162 2.5 1.49211
      vertex -0.501332 -2.5 1.46846
      vertex -0.501332 2.5 1.46846
    endloop
  endfacet
  facet normal 0.156435 0 -0.987688
    outer loop
      vertex -0.749525 -2.5 1.42915
      vertex -0.501332 2.5 1.46846
      vertex -0.501332 -2.5 1.46846
    endloop
  endfacet
  facet normal 0.156435 0 -0.987688
    outer loop
      vertex -0.501332 2.5 1.46846
      vertex -0.749525 -2.5 1.42915
      vertex -0.749525 2.5 1.42915
    endloop
  endfacet
endsolid OpenSCAD_Model
