solid OpenSCAD_Model
  facet normal -1 0 0
    outer loop
      vertex -5 -2.5 -2.5
      vertex -5 2.5 2.5
      vertex -5 2.5 -2.5
    endloop
  endfacet
  facet normal -1 -0 0
    outer loop
      vertex -5 2.5 2.5
      vertex -5 -2.5 -2.5
      vertex -5 -2.5 2.5
    endloop
  endfacet
  facet normal -0 0 1
    outer loop
      vertex -5 2.5 2.5
      vertex 5 -2.5 2.5
      vertex 5 2.5 2.5
    endloop
  endfacet
  facet normal 0 0 1
    outer loop
      vertex 5 -2.5 2.5
      vertex -5 2.5 2.5
      vertex -5 -2.5 2.5
    endloop
  endfacet
  facet normal 1 -0 0
    outer loop
      vertex 5 -2.5 2.5
      vertex 5 2.5 -2.5
      vertex 5 2.5 2.5
    endloop
  endfacet
  facet normal 1 0 0
    outer loop
      vertex 5 2.5 -2.5
      vertex 5 -2.5 2.5
      vertex 5 -2.5 -2.5
    endloop
  endfacet
  facet normal 0 1 0
    outer loop
      vertex 5 2.5 2.5
      vertex 0 2.5 0.9
      vertex -5 2.5 2.5
    endloop
  endfacet
  facet normal 0 1 0
    outer loop
      vertex 5 2.5 2.5
      vertex 0.20093 2.5 0.893685
      vertex 0 2.5 0.9
    endloop
  endfacet
  facet normal 0 1 0
    outer loop
      vertex 5 2.5 2.5
      vertex 0.401066 2.5 0.874766
      vertex 0.20093 2.5 0.893685
    endloop
  endfacet
  facet normal 0 1 0
    outer loop
      vertex 5 2.5 2.5
      vertex 0.59962 2.5 0.843319
      vertex 0.401066 2.5 0.874766
    endloop
  endfacet
  facet normal 0 1 0
    outer loop
      vertex 5 2.5 2.5
      vertex 0.795807 2.5 0.799465
      vertex 0.59962 2.5 0.843319
    endloop
  endfacet
  facet normal 0 1 0
    outer loop
      vertex 5 2.5 2.5
      vertex 0.988853 2.5 0.743381
      vertex 0.795807 2.5 0.799465
    endloop
  endfacet
  facet normal 0 1 0
    outer loop
      vertex 5 2.5 2.5
      vertex 1.178 2.5 0.675284
      vertex 0.988853 2.5 0.743381
    endloop
  endfacet
  facet normal 0 1 0
    outer loop
      vertex 5 2.5 2.5
      vertex 1.36249 2.5 0.595446
      vertex 1.178 2.5 0.675284
    endloop
  endfacet
  facet normal 0 1 0
    outer loop
      vertex 5 2.5 2.5
      vertex 1.54161 2.5 0.504181
      vertex 1.36249 2.5 0.595446
    endloop
  endfacet
  facet normal 0 1 0
    outer loop
      vertex 5 2.5 2.5
      vertex 1.71465 2.5 0.401849
      vertex 1.54161 2.5 0.504181
    endloop
  endfacet
  facet normal 0 1 0
    outer loop
      vertex 5 2.5 2.5
      vertex 1.88091 2.5 0.288854
      vertex 1.71465 2.5 0.401849
    endloop
  endfacet
  facet normal 0 1 0
    outer loop
      vertex 5 2.5 2.5
      vertex 2.03976 2.5 0.165642
      vertex 1.88091 2.5 0.288854
    endloop
  endfacet
  facet normal 0 1 0
    outer loop
      vertex 5 2.5 2.5
      vertex 2.19055 2.5 0.0326996
      vertex 2.03976 2.5 0.165642
    endloop
  endfacet
  facet normal 0 1 0
    outer loop
      vertex 5 2.5 2.5
      vertex 2.3327 2.5 -0.109448
      vertex 2.19055 2.5 0.0326996
    endloop
  endfacet
  facet normal 0 1 0
    outer loop
      vertex 5 2.5 2.5
      vertex 2.46564 2.5 -0.260242
      vertex 2.3327 2.5 -0.109448
    endloop
  endfacet
  facet normal 0 1 0
    outer loop
      vertex 5 2.5 2.5
      vertex 2.58885 2.5 -0.419086
      vertex 2.46564 2.5 -0.260242
    endloop
  endfacet
  facet normal 0 1 0
    outer loop
      vertex 5 2.5 2.5
      vertex 2.70185 2.5 -0.585354
      vertex 2.58885 2.5 -0.419086
    endloop
  endfacet
  facet normal 0 1 0
    outer loop
      vertex 5 2.5 2.5
      vertex 2.80418 2.5 -0.758388
      vertex 2.70185 2.5 -0.585354
    endloop
  endfacet
  facet normal 0 1 0
    outer loop
      vertex 5 2.5 2.5
      vertex 2.89545 2.5 -0.937506
      vertex 2.80418 2.5 -0.758388
    endloop
  endfacet
  facet normal 0 1 -0
    outer loop
      vertex 5 2.5 -2.5
      vertex 2.89545 2.5 -0.937506
      vertex 5 2.5 2.5
    endloop
  endfacet
  facet normal 0 1 0
    outer loop
      vertex 2.89545 2.5 -0.937506
      vertex 5 2.5 -2.5
      vertex 2.97528 2.5 -1.122
    endloop
  endfacet
  facet normal 0 1 0
    outer loop
      vertex 2.97528 2.5 -1.122
      vertex 5 2.5 -2.5
      vertex 3.04338 2.5 -1.31114
    endloop
  endfacet
  facet normal 0 1 0
    outer loop
      vertex 3.04338 2.5 -1.31114
      vertex 5 2.5 -2.5
      vertex 3.09947 2.5 -1.50419
    endloop
  endfacet
  facet normal 0 1 0
    outer loop
      vertex 3.09947 2.5 -1.50419
      vertex 5 2.5 -2.5
      vertex 3.14332 2.5 -1.70038
    endloop
  endfacet
  facet normal 0 1 0
    outer loop
      vertex 3.14332 2.5 -1.70038
      vertex 5 2.5 -2.5
      vertex 3.17477 2.5 -1.89893
    endloop
  endfacet
  facet normal 0 1 0
    outer loop
      vertex 3.17477 2.5 -1.89893
      vertex 5 2.5 -2.5
      vertex 3.19368 2.5 -2.09907
    endloop
  endfacet
  facet normal 0 1 0
    outer loop
      vertex 3.19368 2.5 -2.09907
      vertex 5 2.5 -2.5
      vertex 3.2 2.5 -2.3
    endloop
  endfacet
  facet normal 0 1 0
    outer loop
      vertex 3.2 2.5 -2.3
      vertex 5 2.5 -2.5
      vertex 3.19371 2.5 -2.5
    endloop
  endfacet
  facet normal 0 1 -0
    outer loop
      vertex -0.20093 2.5 0.893685
      vertex -5 2.5 2.5
      vertex 0 2.5 0.9
    endloop
  endfacet
  facet normal 0 1 -0
    outer loop
      vertex -0.401066 2.5 0.874766
      vertex -5 2.5 2.5
      vertex -0.20093 2.5 0.893685
    endloop
  endfacet
  facet normal 0 1 -0
    outer loop
      vertex -0.59962 2.5 0.843319
      vertex -5 2.5 2.5
      vertex -0.401066 2.5 0.874766
    endloop
  endfacet
  facet normal 0 1 -0
    outer loop
      vertex -0.795807 2.5 0.799465
      vertex -5 2.5 2.5
      vertex -0.59962 2.5 0.843319
    endloop
  endfacet
  facet normal 0 1 -0
    outer loop
      vertex -0.988853 2.5 0.743381
      vertex -5 2.5 2.5
      vertex -0.795807 2.5 0.799465
    endloop
  endfacet
  facet normal 0 1 -0
    outer loop
      vertex -1.178 2.5 0.675284
      vertex -5 2.5 2.5
      vertex -0.988853 2.5 0.743381
    endloop
  endfacet
  facet normal 0 1 -0
    outer loop
      vertex -1.36249 2.5 0.595446
      vertex -5 2.5 2.5
      vertex -1.178 2.5 0.675284
    endloop
  endfacet
  facet normal 0 1 -0
    outer loop
      vertex -1.54161 2.5 0.504181
      vertex -5 2.5 2.5
      vertex -1.36249 2.5 0.595446
    endloop
  endfacet
  facet normal 0 1 -0
    outer loop
      vertex -1.71465 2.5 0.401849
      vertex -5 2.5 2.5
      vertex -1.54161 2.5 0.504181
    endloop
  endfacet
  facet normal 0 1 -0
    outer loop
      vertex -1.88091 2.5 0.288854
      vertex -5 2.5 2.5
      vertex -1.71465 2.5 0.401849
    endloop
  endfacet
  facet normal 0 1 -0
    outer loop
      vertex -2.03976 2.5 0.165642
      vertex -5 2.5 2.5
      vertex -1.88091 2.5 0.288854
    endloop
  endfacet
  facet normal 0 1 -0
    outer loop
      vertex -2.19055 2.5 0.0326996
      vertex -5 2.5 2.5
      vertex -2.03976 2.5 0.165642
    endloop
  endfacet
  facet normal 0 1 -0
    outer loop
      vertex -2.3327 2.5 -0.109448
      vertex -5 2.5 2.5
      vertex -2.19055 2.5 0.0326996
    endloop
  endfacet
  facet normal 0 1 -0
    outer loop
      vertex -2.46564 2.5 -0.260242
      vertex -5 2.5 2.5
      vertex -2.3327 2.5 -0.109448
    endloop
  endfacet
  facet normal 0 1 -0
    outer loop
      vertex -2.58885 2.5 -0.419086
      vertex -5 2.5 2.5
      vertex -2.46564 2.5 -0.260242
    endloop
  endfacet
  facet normal 0 1 -0
    outer loop
      vertex -2.70185 2.5 -0.585354
      vertex -5 2.5 2.5
      vertex -2.58885 2.5 -0.419086
    endloop
  endfacet
  facet normal 0 1 -0
    outer loop
      vertex -2.80418 2.5 -0.758388
      vertex -5 2.5 2.5
      vertex -2.70185 2.5 -0.585354
    endloop
  endfacet
  facet normal 0 1 -0
    outer loop
      vertex -2.89545 2.5 -0.937506
      vertex -5 2.5 2.5
      vertex -2.80418 2.5 -0.758388
    endloop
  endfacet
  facet normal 0 1 0
    outer loop
      vertex -5 2.5 -2.5
      vertex -2.89545 2.5 -0.937506
      vertex -2.97528 2.5 -1.122
    endloop
  endfacet
  facet normal 0 1 0
    outer loop
      vertex -5 2.5 -2.5
      vertex -2.97528 2.5 -1.122
      vertex -3.04338 2.5 -1.31114
    endloop
  endfacet
  facet normal 0 1 0
    outer loop
      vertex -5 2.5 -2.5
      vertex -3.04338 2.5 -1.31114
      vertex -3.09947 2.5 -1.50419
    endloop
  endfacet
  facet normal 0 1 0
    outer loop
      vertex -5 2.5 -2.5
      vertex -3.09947 2.5 -1.50419
      vertex -3.14332 2.5 -1.70038
    endloop
  endfacet
  facet normal 0 1 0
    outer loop
      vertex -5 2.5 -2.5
      vertex -3.14332 2.5 -1.70038
      vertex -3.17477 2.5 -1.89893
    endloop
  endfacet
  facet normal 0 1 0
    outer loop
      vertex -5 2.5 -2.5
      vertex -3.17477 2.5 -1.89893
      vertex -3.19368 2.5 -2.09907
    endloop
  endfacet
  facet normal 0 1 0
    outer loop
      vertex -5 2.5 -2.5
      vertex -3.19368 2.5 -2.09907
      vertex -3.2 2.5 -2.3
    endloop
  endfacet
  facet normal 0 1 0
    outer loop
      vertex -5 2.5 -2.5
      vertex -3.2 2.5 -2.3
      vertex -3.19371 2.5 -2.5
    endloop
  endfacet
  facet normal 0 1 0
    outer loop
      vertex -2.89545 2.5 -0.937506
      vertex -5 2.5 -2.5
      vertex -5 2.5 2.5
    endloop
  endfacet
  facet normal 0 0 -1
    outer loop
      vertex -5 -2.5 -2.5
      vertex -3.19371 2.5 -2.5
      vertex -3.19371 -2.5 -2.5
    endloop
  endfacet
  facet normal -0 0 -1
    outer loop
      vertex -3.19371 2.5 -2.5
      vertex -5 -2.5 -2.5
      vertex -5 2.5 -2.5
    endloop
  endfacet
  facet normal 0 0 -1
    outer loop
      vertex 3.19371 -2.5 -2.5
      vertex 5 2.5 -2.5
      vertex 5 -2.5 -2.5
    endloop
  endfacet
  facet normal -0 0 -1
    outer loop
      vertex 5 2.5 -2.5
      vertex 3.19371 -2.5 -2.5
      vertex 3.19371 2.5 -2.5
    endloop
  endfacet
  facet normal 0 -1 0
    outer loop
      vertex -5 -2.5 2.5
      vertex 0 -2.5 0.9
      vertex 5 -2.5 2.5
    endloop
  endfacet
  facet normal 0 -1 0
    outer loop
      vertex -5 -2.5 2.5
      vertex -0.20093 -2.5 0.893685
      vertex 0 -2.5 0.9
    endloop
  endfacet
  facet normal 0 -1 0
    outer loop
      vertex -5 -2.5 2.5
      vertex -0.401066 -2.5 0.874766
      vertex -0.20093 -2.5 0.893685
    endloop
  endfacet
  facet normal 0 -1 0
    outer loop
      vertex -5 -2.5 2.5
      vertex -0.59962 -2.5 0.843319
      vertex -0.401066 -2.5 0.874766
    endloop
  endfacet
  facet normal 0 -1 0
    outer loop
      vertex -5 -2.5 2.5
      vertex -0.795807 -2.5 0.799465
      vertex -0.59962 -2.5 0.843319
    endloop
  endfacet
  facet normal 0 -1 0
    outer loop
      vertex -5 -2.5 2.5
      vertex -0.988853 -2.5 0.743381
      vertex -0.795807 -2.5 0.799465
    endloop
  endfacet
  facet normal 0 -1 0
    outer loop
      vertex -5 -2.5 2.5
      vertex -1.178 -2.5 0.675284
      vertex -0.988853 -2.5 0.743381
    endloop
  endfacet
  facet normal 0 -1 0
    outer loop
      vertex -5 -2.5 2.5
      vertex -1.36249 -2.5 0.595446
      vertex -1.178 -2.5 0.675284
    endloop
  endfacet
  facet normal 0 -1 0
    outer loop
      vertex -5 -2.5 2.5
      vertex -1.54161 -2.5 0.504181
      vertex -1.36249 -2.5 0.595446
    endloop
  endfacet
  facet normal 0 -1 0
    outer loop
      vertex -5 -2.5 2.5
      vertex -1.71465 -2.5 0.401849
      vertex -1.54161 -2.5 0.504181
    endloop
  endfacet
  facet normal 0 -1 0
    outer loop
      vertex -5 -2.5 2.5
      vertex -1.88091 -2.5 0.288854
      vertex -1.71465 -2.5 0.401849
    endloop
  endfacet
  facet normal 0 -1 0
    outer loop
      vertex -5 -2.5 2.5
      vertex -2.03976 -2.5 0.165642
      vertex -1.88091 -2.5 0.288854
    endloop
  endfacet
  facet normal 0 -1 0
    outer loop
      vertex -5 -2.5 2.5
      vertex -2.19055 -2.5 0.0326996
      vertex -2.03976 -2.5 0.165642
    endloop
  endfacet
  facet normal 0 -1 0
    outer loop
      vertex -5 -2.5 2.5
      vertex -2.3327 -2.5 -0.109448
      vertex -2.19055 -2.5 0.0326996
    endloop
  endfacet
  facet normal 0 -1 0
    outer loop
      vertex -5 -2.5 2.5
      vertex -2.46564 -2.5 -0.260242
      vertex -2.3327 -2.5 -0.109448
    endloop
  endfacet
  facet normal 0 -1 0
    outer loop
      vertex -5 -2.5 2.5
      vertex -2.58885 -2.5 -0.419086
      vertex -2.46564 -2.5 -0.260242
    endloop
  endfacet
  facet normal 0 -1 0
    outer loop
      vertex -5 -2.5 2.5
      vertex -2.70185 -2.5 -0.585354
      vertex -2.58885 -2.5 -0.419086
    endloop
  endfacet
  facet normal 0 -1 0
    outer loop
      vertex -5 -2.5 2.5
      vertex -2.80418 -2.5 -0.758388
      vertex -2.70185 -2.5 -0.585354
    endloop
  endfacet
  facet normal 0 -1 0
    outer loop
      vertex -5 -2.5 2.5
      vertex -2.89545 -2.5 -0.937506
      vertex -2.80418 -2.5 -0.758388
    endloop
  endfacet
  facet normal 0 -1 0
    outer loop
      vertex -5 -2.5 -2.5
      vertex -2.89545 -2.5 -0.937506
      vertex -5 -2.5 2.5
    endloop
  endfacet
  facet normal 0 -1 0
    outer loop
      vertex -2.89545 -2.5 -0.937506
      vertex -5 -2.5 -2.5
      vertex -2.97528 -2.5 -1.122
    endloop
  endfacet
  facet normal 0 -1 0
    outer loop
      vertex -2.97528 -2.5 -1.122
      vertex -5 -2.5 -2.5
      vertex -3.04338 -2.5 -1.31114
    endloop
  endfacet
  facet normal 0 -1 0
    outer loop
      vertex -3.04338 -2.5 -1.31114
      vertex -5 -2.5 -2.5
      vertex -3.09947 -2.5 -1.50419
    endloop
  endfacet
  facet normal 0 -1 0
    outer loop
      vertex -3.09947 -2.5 -1.50419
      vertex -5 -2.5 -2.5
      vertex -3.14332 -2.5 -1.70038
    endloop
  endfacet
  facet normal 0 -1 0
    outer loop
      vertex -3.14332 -2.5 -1.70038
      vertex -5 -2.5 -2.5
      vertex -3.17477 -2.5 -1.89893
    endloop
  endfacet
  facet normal 0 -1 0
    outer loop
      vertex -3.17477 -2.5 -1.89893
      vertex -5 -2.5 -2.5
      vertex -3.19368 -2.5 -2.09907
    endloop
  endfacet
  facet normal 0 -1 0
    outer loop
      vertex -3.19368 -2.5 -2.09907
      vertex -5 -2.5 -2.5
      vertex -3.2 -2.5 -2.3
    endloop
  endfacet
  facet normal 0 -1 -0
    outer loop
      vertex -3.2 -2.5 -2.3
      vertex -5 -2.5 -2.5
      vertex -3.19371 -2.5 -2.5
    endloop
  endfacet
  facet normal 0 -1 0
    outer loop
      vertex 0.20093 -2.5 0.893685
      vertex 5 -2.5 2.5
      vertex 0 -2.5 0.9
    endloop
  endfacet
  facet normal 0 -1 0
    outer loop
      vertex 0.401066 -2.5 0.874766
      vertex 5 -2.5 2.5
      vertex 0.20093 -2.5 0.893685
    endloop
  endfacet
  facet normal 0 -1 0
    outer loop
      vertex 0.59962 -2.5 0.843319
      vertex 5 -2.5 2.5
      vertex 0.401066 -2.5 0.874766
    endloop
  endfacet
  facet normal 0 -1 0
    outer loop
      vertex 0.795807 -2.5 0.799465
      vertex 5 -2.5 2.5
      vertex 0.59962 -2.5 0.843319
    endloop
  endfacet
  facet normal 0 -1 0
    outer loop
      vertex 0.988853 -2.5 0.743381
      vertex 5 -2.5 2.5
      vertex 0.795807 -2.5 0.799465
    endloop
  endfacet
  facet normal 0 -1 0
    outer loop
      vertex 1.178 -2.5 0.675284
      vertex 5 -2.5 2.5
      vertex 0.988853 -2.5 0.743381
    endloop
  endfacet
  facet normal 0 -1 0
    outer loop
      vertex 1.36249 -2.5 0.595446
      vertex 5 -2.5 2.5
      vertex 1.178 -2.5 0.675284
    endloop
  endfacet
  facet normal 0 -1 0
    outer loop
      vertex 1.54161 -2.5 0.504181
      vertex 5 -2.5 2.5
      vertex 1.36249 -2.5 0.595446
    endloop
  endfacet
  facet normal 0 -1 0
    outer loop
      vertex 1.71465 -2.5 0.401849
      vertex 5 -2.5 2.5
      vertex 1.54161 -2.5 0.504181
    endloop
  endfacet
  facet normal 0 -1 0
    outer loop
      vertex 1.88091 -2.5 0.288854
      vertex 5 -2.5 2.5
      vertex 1.71465 -2.5 0.401849
    endloop
  endfacet
  facet normal 0 -1 0
    outer loop
      vertex 2.03976 -2.5 0.165642
      vertex 5 -2.5 2.5
      vertex 1.88091 -2.5 0.288854
    endloop
  endfacet
  facet normal 0 -1 0
    outer loop
      vertex 2.19055 -2.5 0.0326996
      vertex 5 -2.5 2.5
      vertex 2.03976 -2.5 0.165642
    endloop
  endfacet
  facet normal 0 -1 0
    outer loop
      vertex 2.3327 -2.5 -0.109448
      vertex 5 -2.5 2.5
      vertex 2.19055 -2.5 0.0326996
    endloop
  endfacet
  facet normal 0 -1 0
    outer loop
      vertex 2.46564 -2.5 -0.260242
      vertex 5 -2.5 2.5
      vertex 2.3327 -2.5 -0.109448
    endloop
  endfacet
  facet normal 0 -1 0
    outer loop
      vertex 2.58885 -2.5 -0.419086
      vertex 5 -2.5 2.5
      vertex 2.46564 -2.5 -0.260242
    endloop
  endfacet
  facet normal 0 -1 0
    outer loop
      vertex 2.70185 -2.5 -0.585354
      vertex 5 -2.5 2.5
      vertex 2.58885 -2.5 -0.419086
    endloop
  endfacet
  facet normal 0 -1 0
    outer loop
      vertex 2.80418 -2.5 -0.758388
      vertex 5 -2.5 2.5
      vertex 2.70185 -2.5 -0.585354
    endloop
  endfacet
  facet normal 0 -1 0
    outer loop
      vertex 2.89545 -2.5 -0.937506
      vertex 5 -2.5 2.5
      vertex 2.80418 -2.5 -0.758388
    endloop
  endfacet
  facet normal 0 -1 0
    outer loop
      vertex 5 -2.5 -2.5
      vertex 2.89545 -2.5 -0.937506
      vertex 2.97528 -2.5 -1.122
    endloop
  endfacet
  facet normal 0 -1 0
    outer loop
      vertex 5 -2.5 -2.5
      vertex 2.97528 -2.5 -1.122
      vertex 3.04338 -2.5 -1.31114
    endloop
  endfacet
  facet normal 0 -1 0
    outer loop
      vertex 5 -2.5 -2.5
      vertex 3.04338 -2.5 -1.31114
      vertex 3.09947 -2.5 -1.50419
    endloop
  endfacet
  facet normal 0 -1 0
    outer loop
      vertex 5 -2.5 -2.5
      vertex 3.09947 -2.5 -1.50419
      vertex 3.14332 -2.5 -1.70038
    endloop
  endfacet
  facet normal 0 -1 0
    outer loop
      vertex 5 -2.5 -2.5
      vertex 3.14332 -2.5 -1.70038
      vertex 3.17477 -2.5 -1.89893
    endloop
  endfacet
  facet normal 0 -1 0
    outer loop
      vertex 5 -2.5 -2.5
      vertex 3.17477 -2.5 -1.89893
      vertex 3.19368 -2.5 -2.09907
    endloop
  endfacet
  facet normal 0 -1 0
    outer loop
      vertex 5 -2.5 -2.5
      vertex 3.19368 -2.5 -2.09907
      vertex 3.2 -2.5 -2.3
    endloop
  endfacet
  facet normal 0 -1 0
    outer loop
      vertex 5 -2.5 -2.5
      vertex 3.2 -2.5 -2.3
      vertex 3.19371 -2.5 -2.5
    endloop
  endfacet
  facet normal 0 -1 0
    outer loop
      vertex 2.89545 -2.5 -0.937506
      vertex 5 -2.5 -2.5
      vertex 5 -2.5 2.5
    endloop
  endfacet
  facet normal -0.999506 0 -0.0314382
    outer loop
      vertex 3.2 -2.5 -2.3
      vertex 3.19368 2.5 -2.09907
      vertex 3.2 2.5 -2.3
    endloop
  endfacet
  facet normal -0.999506 -0 -0.0314382
    outer loop
      vertex 3.19368 2.5 -2.09907
      vertex 3.2 -2.5 -2.3
      vertex 3.19368 -2.5 -2.09907
    endloop
  endfacet
  facet normal -0.995566 0 -0.0940649
    outer loop
      vertex 3.19368 -2.5 -2.09907
      vertex 3.17477 2.5 -1.89893
      vertex 3.19368 2.5 -2.09907
    endloop
  endfacet
  facet normal -0.995566 -0 -0.0940649
    outer loop
      vertex 3.17477 2.5 -1.89893
      vertex 3.19368 -2.5 -2.09907
      vertex 3.17477 -2.5 -1.89893
    endloop
  endfacet
  facet normal 0.999506 0 -0.0314382
    outer loop
      vertex -3.19368 -2.5 -2.09907
      vertex -3.2 2.5 -2.3
      vertex -3.19368 2.5 -2.09907
    endloop
  endfacet
  facet normal 0.999506 0 -0.0314382
    outer loop
      vertex -3.2 2.5 -2.3
      vertex -3.19368 -2.5 -2.09907
      vertex -3.2 -2.5 -2.3
    endloop
  endfacet
  facet normal 0.0314133 0 -0.999506
    outer loop
      vertex -0.20093 -2.5 0.893685
      vertex 0 2.5 0.9
      vertex 0 -2.5 0.9
    endloop
  endfacet
  facet normal 0.0314133 0 -0.999506
    outer loop
      vertex 0 2.5 0.9
      vertex -0.20093 -2.5 0.893685
      vertex -0.20093 2.5 0.893685
    endloop
  endfacet
  facet normal -0.707101 0 -0.707113
    outer loop
      vertex 2.19055 -2.5 0.0326996
      vertex 2.3327 2.5 -0.109448
      vertex 2.3327 -2.5 -0.109448
    endloop
  endfacet
  facet normal -0.707101 0 -0.707113
    outer loop
      vertex 2.3327 2.5 -0.109448
      vertex 2.19055 -2.5 0.0326996
      vertex 2.19055 2.5 0.0326996
    endloop
  endfacet
  facet normal 0.707101 0 -0.707113
    outer loop
      vertex -2.3327 -2.5 -0.109448
      vertex -2.19055 2.5 0.0326996
      vertex -2.19055 -2.5 0.0326996
    endloop
  endfacet
  facet normal 0.707101 0 -0.707113
    outer loop
      vertex -2.19055 2.5 0.0326996
      vertex -2.3327 -2.5 -0.109448
      vertex -2.3327 2.5 -0.109448
    endloop
  endfacet
  facet normal 0.397156 0 -0.917751
    outer loop
      vertex -1.36249 -2.5 0.595446
      vertex -1.178 2.5 0.675284
      vertex -1.178 -2.5 0.675284
    endloop
  endfacet
  facet normal 0.397156 0 -0.917751
    outer loop
      vertex -1.178 2.5 0.675284
      vertex -1.36249 -2.5 0.595446
      vertex -1.36249 2.5 0.595446
    endloop
  endfacet
  facet normal -0.917769 0 -0.397116
    outer loop
      vertex 2.97528 -2.5 -1.122
      vertex 2.89545 2.5 -0.937506
      vertex 2.97528 2.5 -1.122
    endloop
  endfacet
  facet normal -0.917769 -0 -0.397116
    outer loop
      vertex 2.89545 2.5 -0.937506
      vertex 2.97528 -2.5 -1.122
      vertex 2.89545 -2.5 -0.937506
    endloop
  endfacet
  facet normal 0.218148 0 -0.975916
    outer loop
      vertex -0.795807 -2.5 0.799465
      vertex -0.59962 2.5 0.843319
      vertex -0.59962 -2.5 0.843319
    endloop
  endfacet
  facet normal 0.218148 0 -0.975916
    outer loop
      vertex -0.59962 2.5 0.843319
      vertex -0.795807 -2.5 0.799465
      vertex -0.795807 2.5 0.799465
    endloop
  endfacet
  facet normal -0.975921 0 -0.218126
    outer loop
      vertex 3.14332 -2.5 -1.70038
      vertex 3.09947 2.5 -1.50419
      vertex 3.14332 2.5 -1.70038
    endloop
  endfacet
  facet normal -0.975921 -0 -0.218126
    outer loop
      vertex 3.09947 2.5 -1.50419
      vertex 3.14332 -2.5 -1.70038
      vertex 3.09947 -2.5 -1.50419
    endloop
  endfacet
  facet normal -0.960289 0 -0.279008
    outer loop
      vertex 3.09947 -2.5 -1.50419
      vertex 3.04338 2.5 -1.31114
      vertex 3.09947 2.5 -1.50419
    endloop
  endfacet
  facet normal -0.960289 -0 -0.279008
    outer loop
      vertex 3.04338 2.5 -1.31114
      vertex 3.09947 -2.5 -1.50419
      vertex 3.04338 -2.5 -1.31114
    endloop
  endfacet
  facet normal -0.890997 0 -0.45401
    outer loop
      vertex 2.89545 -2.5 -0.937506
      vertex 2.80418 2.5 -0.758388
      vertex 2.89545 2.5 -0.937506
    endloop
  endfacet
  facet normal -0.890997 -0 -0.45401
    outer loop
      vertex 2.80418 2.5 -0.758388
      vertex 2.89545 -2.5 -0.937506
      vertex 2.80418 -2.5 -0.758388
    endloop
  endfacet
  facet normal -0.750118 0 -0.661304
    outer loop
      vertex 2.46564 -2.5 -0.260242
      vertex 2.3327 2.5 -0.109448
      vertex 2.46564 2.5 -0.260242
    endloop
  endfacet
  facet normal -0.750118 -0 -0.661304
    outer loop
      vertex 2.3327 2.5 -0.109448
      vertex 2.46564 -2.5 -0.260242
      vertex 2.3327 -2.5 -0.109448
    endloop
  endfacet
  facet normal -0.218148 0 -0.975916
    outer loop
      vertex 0.59962 -2.5 0.843319
      vertex 0.795807 2.5 0.799465
      vertex 0.795807 -2.5 0.799465
    endloop
  endfacet
  facet normal -0.218148 0 -0.975916
    outer loop
      vertex 0.795807 2.5 0.799465
      vertex 0.59962 -2.5 0.843319
      vertex 0.59962 2.5 0.843319
    endloop
  endfacet
  facet normal -0.15643 0 -0.987689
    outer loop
      vertex 0.401066 -2.5 0.874766
      vertex 0.59962 2.5 0.843319
      vertex 0.59962 -2.5 0.843319
    endloop
  endfacet
  facet normal -0.15643 0 -0.987689
    outer loop
      vertex 0.59962 2.5 0.843319
      vertex 0.401066 -2.5 0.874766
      vertex 0.401066 2.5 0.874766
    endloop
  endfacet
  facet normal 0.82707 0 -0.562098
    outer loop
      vertex -2.58885 -2.5 -0.419086
      vertex -2.70185 2.5 -0.585354
      vertex -2.58885 2.5 -0.419086
    endloop
  endfacet
  facet normal 0.82707 0 -0.562098
    outer loop
      vertex -2.70185 2.5 -0.585354
      vertex -2.58885 -2.5 -0.419086
      vertex -2.70185 -2.5 -0.585354
    endloop
  endfacet
  facet normal 0.860746 0 -0.509034
    outer loop
      vertex -2.70185 -2.5 -0.585354
      vertex -2.80418 2.5 -0.758388
      vertex -2.70185 2.5 -0.585354
    endloop
  endfacet
  facet normal 0.860746 0 -0.509034
    outer loop
      vertex -2.80418 2.5 -0.758388
      vertex -2.70185 -2.5 -0.585354
      vertex -2.80418 -2.5 -0.758388
    endloop
  endfacet
  facet normal 0.975921 0 -0.218126
    outer loop
      vertex -3.09947 -2.5 -1.50419
      vertex -3.14332 2.5 -1.70038
      vertex -3.09947 2.5 -1.50419
    endloop
  endfacet
  facet normal 0.975921 0 -0.218126
    outer loop
      vertex -3.14332 2.5 -1.70038
      vertex -3.09947 -2.5 -1.50419
      vertex -3.14332 -2.5 -1.70038
    endloop
  endfacet
  facet normal 0.5621 0 -0.827069
    outer loop
      vertex -1.88091 -2.5 0.288854
      vertex -1.71465 2.5 0.401849
      vertex -1.71465 -2.5 0.401849
    endloop
  endfacet
  facet normal 0.5621 0 -0.827069
    outer loop
      vertex -1.71465 2.5 0.401849
      vertex -1.88091 -2.5 0.288854
      vertex -1.88091 2.5 0.288854
    endloop
  endfacet
  facet normal 0.661321 0 -0.750103
    outer loop
      vertex -2.19055 -2.5 0.0326996
      vertex -2.03976 2.5 0.165642
      vertex -2.03976 -2.5 0.165642
    endloop
  endfacet
  facet normal 0.661321 0 -0.750103
    outer loop
      vertex -2.03976 2.5 0.165642
      vertex -2.19055 -2.5 0.0326996
      vertex -2.19055 2.5 0.0326996
    endloop
  endfacet
  facet normal 0.15643 0 -0.987689
    outer loop
      vertex -0.59962 -2.5 0.843319
      vertex -0.401066 2.5 0.874766
      vertex -0.401066 -2.5 0.874766
    endloop
  endfacet
  facet normal 0.15643 0 -0.987689
    outer loop
      vertex -0.401066 2.5 0.874766
      vertex -0.59962 -2.5 0.843319
      vertex -0.59962 2.5 0.843319
    endloop
  endfacet
  facet normal -0.987686 0 -0.156448
    outer loop
      vertex 3.17477 -2.5 -1.89893
      vertex 3.14332 2.5 -1.70038
      vertex 3.17477 2.5 -1.89893
    endloop
  endfacet
  facet normal -0.987686 -0 -0.156448
    outer loop
      vertex 3.14332 2.5 -1.70038
      vertex 3.17477 -2.5 -1.89893
      vertex 3.14332 -2.5 -1.70038
    endloop
  endfacet
  facet normal -0.79016 0 -0.612901
    outer loop
      vertex 2.58885 -2.5 -0.419086
      vertex 2.46564 2.5 -0.260242
      vertex 2.58885 2.5 -0.419086
    endloop
  endfacet
  facet normal -0.79016 -0 -0.612901
    outer loop
      vertex 2.46564 2.5 -0.260242
      vertex 2.58885 -2.5 -0.419086
      vertex 2.46564 -2.5 -0.260242
    endloop
  endfacet
  facet normal -0.0941112 0 -0.995562
    outer loop
      vertex 0.20093 -2.5 0.893685
      vertex 0.401066 2.5 0.874766
      vertex 0.401066 -2.5 0.874766
    endloop
  endfacet
  facet normal -0.0941112 0 -0.995562
    outer loop
      vertex 0.401066 2.5 0.874766
      vertex 0.20093 -2.5 0.893685
      vertex 0.20093 2.5 0.893685
    endloop
  endfacet
  facet normal -0.338737 0 -0.940881
    outer loop
      vertex 0.988853 -2.5 0.743381
      vertex 1.178 2.5 0.675284
      vertex 1.178 -2.5 0.675284
    endloop
  endfacet
  facet normal -0.338737 0 -0.940881
    outer loop
      vertex 1.178 2.5 0.675284
      vertex 0.988853 -2.5 0.743381
      vertex 0.988853 2.5 0.743381
    endloop
  endfacet
  facet normal -0.397156 0 -0.917751
    outer loop
      vertex 1.178 -2.5 0.675284
      vertex 1.36249 2.5 0.595446
      vertex 1.36249 -2.5 0.595446
    endloop
  endfacet
  facet normal -0.397156 0 -0.917751
    outer loop
      vertex 1.36249 2.5 0.595446
      vertex 1.178 -2.5 0.675284
      vertex 1.178 2.5 0.675284
    endloop
  endfacet
  facet normal -0.509028 0 -0.86075
    outer loop
      vertex 1.54161 -2.5 0.504181
      vertex 1.71465 2.5 0.401849
      vertex 1.71465 -2.5 0.401849
    endloop
  endfacet
  facet normal -0.509028 0 -0.86075
    outer loop
      vertex 1.71465 2.5 0.401849
      vertex 1.54161 -2.5 0.504181
      vertex 1.54161 2.5 0.504181
    endloop
  endfacet
  facet normal -0.5621 0 -0.827069
    outer loop
      vertex 1.71465 -2.5 0.401849
      vertex 1.88091 2.5 0.288854
      vertex 1.88091 -2.5 0.288854
    endloop
  endfacet
  facet normal -0.5621 0 -0.827069
    outer loop
      vertex 1.88091 2.5 0.288854
      vertex 1.71465 -2.5 0.401849
      vertex 1.71465 2.5 0.401849
    endloop
  endfacet
  facet normal 0.987686 0 -0.156448
    outer loop
      vertex -3.14332 -2.5 -1.70038
      vertex -3.17477 2.5 -1.89893
      vertex -3.14332 2.5 -1.70038
    endloop
  endfacet
  facet normal 0.987686 0 -0.156448
    outer loop
      vertex -3.17477 2.5 -1.89893
      vertex -3.14332 -2.5 -1.70038
      vertex -3.17477 -2.5 -1.89893
    endloop
  endfacet
  facet normal 0.917769 0 -0.397116
    outer loop
      vertex -2.89545 -2.5 -0.937506
      vertex -2.97528 2.5 -1.122
      vertex -2.89545 2.5 -0.937506
    endloop
  endfacet
  facet normal 0.917769 0 -0.397116
    outer loop
      vertex -2.97528 2.5 -1.122
      vertex -2.89545 -2.5 -0.937506
      vertex -2.97528 -2.5 -1.122
    endloop
  endfacet
  facet normal 0.940872 0 -0.338762
    outer loop
      vertex -2.97528 -2.5 -1.122
      vertex -3.04338 2.5 -1.31114
      vertex -2.97528 2.5 -1.122
    endloop
  endfacet
  facet normal 0.940872 0 -0.338762
    outer loop
      vertex -3.04338 2.5 -1.31114
      vertex -2.97528 -2.5 -1.122
      vertex -3.04338 -2.5 -1.31114
    endloop
  endfacet
  facet normal 0.612892 0 -0.790166
    outer loop
      vertex -2.03976 -2.5 0.165642
      vertex -1.88091 2.5 0.288854
      vertex -1.88091 -2.5 0.288854
    endloop
  endfacet
  facet normal 0.612892 0 -0.790166
    outer loop
      vertex -1.88091 2.5 0.288854
      vertex -2.03976 -2.5 0.165642
      vertex -2.03976 2.5 0.165642
    endloop
  endfacet
  facet normal 0.453986 0 -0.891009
    outer loop
      vertex -1.54161 -2.5 0.504181
      vertex -1.36249 2.5 0.595446
      vertex -1.36249 -2.5 0.595446
    endloop
  endfacet
  facet normal 0.453986 0 -0.891009
    outer loop
      vertex -1.36249 2.5 0.595446
      vertex -1.54161 -2.5 0.504181
      vertex -1.54161 2.5 0.504181
    endloop
  endfacet
  facet normal 0.278986 0 -0.960295
    outer loop
      vertex -0.988853 -2.5 0.743381
      vertex -0.795807 2.5 0.799465
      vertex -0.795807 -2.5 0.799465
    endloop
  endfacet
  facet normal 0.278986 0 -0.960295
    outer loop
      vertex -0.795807 2.5 0.799465
      vertex -0.988853 -2.5 0.743381
      vertex -0.988853 2.5 0.743381
    endloop
  endfacet
  facet normal 0.338737 0 -0.940881
    outer loop
      vertex -1.178 -2.5 0.675284
      vertex -0.988853 2.5 0.743381
      vertex -0.988853 -2.5 0.743381
    endloop
  endfacet
  facet normal 0.338737 0 -0.940881
    outer loop
      vertex -0.988853 2.5 0.743381
      vertex -1.178 -2.5 0.675284
      vertex -1.178 2.5 0.675284
    endloop
  endfacet
  facet normal 0.0941112 0 -0.995562
    outer loop
      vertex -0.401066 -2.5 0.874766
      vertex -0.20093 2.5 0.893685
      vertex -0.20093 -2.5 0.893685
    endloop
  endfacet
  facet normal 0.0941112 0 -0.995562
    outer loop
      vertex -0.20093 2.5 0.893685
      vertex -0.401066 -2.5 0.874766
      vertex -0.401066 2.5 0.874766
    endloop
  endfacet
  facet normal 0.999506 -0 0.0314345
    outer loop
      vertex -3.2 -2.5 -2.3
      vertex -3.19371 2.5 -2.5
      vertex -3.2 2.5 -2.3
    endloop
  endfacet
  facet normal 0.999506 0 0.0314345
    outer loop
      vertex -3.19371 2.5 -2.5
      vertex -3.2 -2.5 -2.3
      vertex -3.19371 -2.5 -2.5
    endloop
  endfacet
  facet normal -0.940872 0 -0.338762
    outer loop
      vertex 3.04338 -2.5 -1.31114
      vertex 2.97528 2.5 -1.122
      vertex 3.04338 2.5 -1.31114
    endloop
  endfacet
  facet normal -0.940872 -0 -0.338762
    outer loop
      vertex 2.97528 2.5 -1.122
      vertex 3.04338 -2.5 -1.31114
      vertex 2.97528 -2.5 -1.122
    endloop
  endfacet
  facet normal -0.860746 0 -0.509034
    outer loop
      vertex 2.80418 -2.5 -0.758388
      vertex 2.70185 2.5 -0.585354
      vertex 2.80418 2.5 -0.758388
    endloop
  endfacet
  facet normal -0.860746 -0 -0.509034
    outer loop
      vertex 2.70185 2.5 -0.585354
      vertex 2.80418 -2.5 -0.758388
      vertex 2.70185 -2.5 -0.585354
    endloop
  endfacet
  facet normal -0.82707 0 -0.562098
    outer loop
      vertex 2.70185 -2.5 -0.585354
      vertex 2.58885 2.5 -0.419086
      vertex 2.70185 2.5 -0.585354
    endloop
  endfacet
  facet normal -0.82707 -0 -0.562098
    outer loop
      vertex 2.58885 2.5 -0.419086
      vertex 2.70185 -2.5 -0.585354
      vertex 2.58885 -2.5 -0.419086
    endloop
  endfacet
  facet normal -0.278986 0 -0.960295
    outer loop
      vertex 0.795807 -2.5 0.799465
      vertex 0.988853 2.5 0.743381
      vertex 0.988853 -2.5 0.743381
    endloop
  endfacet
  facet normal -0.278986 0 -0.960295
    outer loop
      vertex 0.988853 2.5 0.743381
      vertex 0.795807 -2.5 0.799465
      vertex 0.795807 2.5 0.799465
    endloop
  endfacet
  facet normal -0.0314133 0 -0.999506
    outer loop
      vertex 0 -2.5 0.9
      vertex 0.20093 2.5 0.893685
      vertex 0.20093 -2.5 0.893685
    endloop
  endfacet
  facet normal -0.0314133 0 -0.999506
    outer loop
      vertex 0.20093 2.5 0.893685
      vertex 0 -2.5 0.9
      vertex 0 2.5 0.9
    endloop
  endfacet
  facet normal -0.453986 0 -0.891009
    outer loop
      vertex 1.36249 -2.5 0.595446
      vertex 1.54161 2.5 0.504181
      vertex 1.54161 -2.5 0.504181
    endloop
  endfacet
  facet normal -0.453986 0 -0.891009
    outer loop
      vertex 1.54161 2.5 0.504181
      vertex 1.36249 -2.5 0.595446
      vertex 1.36249 2.5 0.595446
    endloop
  endfacet
  facet normal -0.661321 0 -0.750103
    outer loop
      vertex 2.03976 -2.5 0.165642
      vertex 2.19055 2.5 0.0326996
      vertex 2.19055 -2.5 0.0326996
    endloop
  endfacet
  facet normal -0.661321 0 -0.750103
    outer loop
      vertex 2.19055 2.5 0.0326996
      vertex 2.03976 -2.5 0.165642
      vertex 2.03976 2.5 0.165642
    endloop
  endfacet
  facet normal -0.612892 0 -0.790166
    outer loop
      vertex 1.88091 -2.5 0.288854
      vertex 2.03976 2.5 0.165642
      vertex 2.03976 -2.5 0.165642
    endloop
  endfacet
  facet normal -0.612892 0 -0.790166
    outer loop
      vertex 2.03976 2.5 0.165642
      vertex 1.88091 -2.5 0.288854
      vertex 1.88091 2.5 0.288854
    endloop
  endfacet
  facet normal 0.79016 0 -0.612901
    outer loop
      vertex -2.46564 -2.5 -0.260242
      vertex -2.58885 2.5 -0.419086
      vertex -2.46564 2.5 -0.260242
    endloop
  endfacet
  facet normal 0.79016 0 -0.612901
    outer loop
      vertex -2.58885 2.5 -0.419086
      vertex -2.46564 -2.5 -0.260242
      vertex -2.58885 -2.5 -0.419086
    endloop
  endfacet
  facet normal 0.750118 0 -0.661304
    outer loop
      vertex -2.3327 -2.5 -0.109448
      vertex -2.46564 2.5 -0.260242
      vertex -2.3327 2.5 -0.109448
    endloop
  endfacet
  facet normal 0.750118 0 -0.661304
    outer loop
      vertex -2.46564 2.5 -0.260242
      vertex -2.3327 -2.5 -0.109448
      vertex -2.46564 -2.5 -0.260242
    endloop
  endfacet
  facet normal 0.890997 0 -0.45401
    outer loop
      vertex -2.80418 -2.5 -0.758388
      vertex -2.89545 2.5 -0.937506
      vertex -2.80418 2.5 -0.758388
    endloop
  endfacet
  facet normal 0.890997 0 -0.45401
    outer loop
      vertex -2.89545 2.5 -0.937506
      vertex -2.80418 -2.5 -0.758388
      vertex -2.89545 -2.5 -0.937506
    endloop
  endfacet
  facet normal 0.960289 0 -0.279008
    outer loop
      vertex -3.04338 -2.5 -1.31114
      vertex -3.09947 2.5 -1.50419
      vertex -3.04338 2.5 -1.31114
    endloop
  endfacet
  facet normal 0.960289 0 -0.279008
    outer loop
      vertex -3.09947 2.5 -1.50419
      vertex -3.04338 -2.5 -1.31114
      vertex -3.09947 -2.5 -1.50419
    endloop
  endfacet
  facet normal 0.995566 0 -0.0940649
    outer loop
      vertex -3.17477 -2.5 -1.89893
      vertex -3.19368 2.5 -2.09907
      vertex -3.17477 2.5 -1.89893
    endloop
  endfacet
  facet normal 0.995566 0 -0.0940649
    outer loop
      vertex -3.19368 2.5 -2.09907
      vertex -3.17477 -2.5 -1.89893
      vertex -3.19368 -2.5 -2.09907
    endloop
  endfacet
  facet normal 0.509028 0 -0.86075
    outer loop
      vertex -1.71465 -2.5 0.401849
      vertex -1.54161 2.5 0.504181
      vertex -1.54161 -2.5 0.504181
    endloop
  endfacet
  facet normal 0.509028 0 -0.86075
    outer loop
      vertex -1.54161 2.5 0.504181
      vertex -1.71465 -2.5 0.401849
      vertex -1.71465 2.5 0.401849
    endloop
  endfacet
  facet normal -0.999506 0 0.0314345
    outer loop
      vertex 3.19371 -2.5 -2.5
      vertex 3.2 2.5 -2.3
      vertex 3.19371 2.5 -2.5
    endloop
  endfacet
  facet normal -0.999506 0 0.0314345
    outer loop
      vertex 3.2 2.5 -2.3
      vertex 3.19371 -2.5 -2.5
      vertex 3.2 -2.5 -2.3
    endloop
  endfacet
endsolid OpenSCAD_Model
