solid OpenSCAD_Model
  facet normal -1 0 0
    outer loop
      vertex -5 -2.5 -2.5
      vertex -5 2.5 2.5
      vertex -5 2.5 -2.5
    endloop
  endfacet
  facet normal -1 -0 0
    outer loop
      vertex -5 2.5 2.5
      vertex -5 -2.5 -2.5
      vertex -5 -2.5 2.5
    endloop
  endfacet
  facet normal -0 0 1
    outer loop
      vertex -5 2.5 2.5
      vertex 5 -2.5 2.5
      vertex 5 2.5 2.5
    endloop
  endfacet
  facet normal 0 0 1
    outer loop
      vertex 5 -2.5 2.5
      vertex -5 2.5 2.5
      vertex -5 -2.5 2.5
    endloop
  endfacet
  facet normal 1 -0 0
    outer loop
      vertex 5 -2.5 2.5
      vertex 5 2.5 -2.5
      vertex 5 2.5 2.5
    endloop
  endfacet
  facet normal 1 0 0
    outer loop
      vertex 5 2.5 -2.5
      vertex 5 -2.5 2.5
      vertex 5 -2.5 -2.5
    endloop
  endfacet
  facet normal 0 0 -1
    outer loop
      vertex -5 -2.5 -2.5
      vertex -3.6 2.5 -2.5
      vertex -3.6 -2.5 -2.5
    endloop
  endfacet
  facet normal -0 0 -1
    outer loop
      vertex -3.6 2.5 -2.5
      vertex -5 -2.5 -2.5
      vertex -5 2.5 -2.5
    endloop
  endfacet
  facet normal 0 0 -1
    outer loop
      vertex 3.6 -2.5 -2.5
      vertex 5 2.5 -2.5
      vertex 5 -2.5 -2.5
    endloop
  endfacet
  facet normal -0 0 -1
    outer loop
      vertex 5 2.5 -2.5
      vertex 3.6 -2.5 -2.5
      vertex 3.6 2.5 -2.5
    endloop
  endfacet
  facet normal 0 -1 0
    outer loop
      vertex -5 -2.5 2.5
      vertex 0 -2.5 1.1
      vertex 5 -2.5 2.5
    endloop
  endfacet
  facet normal 0 -1 0
    outer loop
      vertex -5 -2.5 2.5
      vertex -0.226046 -2.5 1.0929
      vertex 0 -2.5 1.1
    endloop
  endfacet
  facet normal 0 -1 0
    outer loop
      vertex -5 -2.5 2.5
      vertex -0.4512 -2.5 1.07161
      vertex -0.226046 -2.5 1.0929
    endloop
  endfacet
  facet normal 0 -1 0
    outer loop
      vertex -5 -2.5 2.5
      vertex -0.674572 -2.5 1.03623
      vertex -0.4512 -2.5 1.07161
    endloop
  endfacet
  facet normal 0 -1 0
    outer loop
      vertex -5 -2.5 2.5
      vertex -0.895283 -2.5 0.986899
      vertex -0.674572 -2.5 1.03623
    endloop
  endfacet
  facet normal 0 -1 0
    outer loop
      vertex -5 -2.5 2.5
      vertex -1.11246 -2.5 0.923803
      vertex -0.895283 -2.5 0.986899
    endloop
  endfacet
  facet normal 0 -1 0
    outer loop
      vertex -5 -2.5 2.5
      vertex -1.32525 -2.5 0.847195
      vertex -1.11246 -2.5 0.923803
    endloop
  endfacet
  facet normal 0 -1 0
    outer loop
      vertex -5 -2.5 2.5
      vertex -1.53281 -2.5 0.757377
      vertex -1.32525 -2.5 0.847195
    endloop
  endfacet
  facet normal 0 -1 0
    outer loop
      vertex -5 -2.5 2.5
      vertex -1.73431 -2.5 0.654703
      vertex -1.53281 -2.5 0.757377
    endloop
  endfacet
  facet normal 0 -1 0
    outer loop
      vertex -5 -2.5 2.5
      vertex -1.92898 -2.5 0.53958
      vertex -1.73431 -2.5 0.654703
    endloop
  endfacet
  facet normal 0 -1 0
    outer loop
      vertex -5 -2.5 2.5
      vertex -2.11603 -2.5 0.41246
      vertex -1.92898 -2.5 0.53958
    endloop
  endfacet
  facet normal 0 -1 0
    outer loop
      vertex -5 -2.5 2.5
      vertex -2.29473 -2.5 0.273848
      vertex -2.11603 -2.5 0.41246
    endloop
  endfacet
  facet normal 0 -1 0
    outer loop
      vertex -5 -2.5 2.5
      vertex -2.46437 -2.5 0.124287
      vertex -2.29473 -2.5 0.273848
    endloop
  endfacet
  facet normal 0 -1 0
    outer loop
      vertex -5 -2.5 2.5
      vertex -2.62429 -2.5 -0.0356302
      vertex -2.46437 -2.5 0.124287
    endloop
  endfacet
  facet normal 0 -1 0
    outer loop
      vertex -5 -2.5 2.5
      vertex -2.77385 -2.5 -0.205274
      vertex -2.62429 -2.5 -0.0356302
    endloop
  endfacet
  facet normal 0 -1 0
    outer loop
      vertex -5 -2.5 2.5
      vertex -2.91246 -2.5 -0.383972
      vertex -2.77385 -2.5 -0.205274
    endloop
  endfacet
  facet normal 0 -1 0
    outer loop
      vertex -5 -2.5 2.5
      vertex -3.03958 -2.5 -0.571023
      vertex -2.91246 -2.5 -0.383972
    endloop
  endfacet
  facet normal 0 -1 0
    outer loop
      vertex -5 -2.5 2.5
      vertex -3.1547 -2.5 -0.765686
      vertex -3.03958 -2.5 -0.571023
    endloop
  endfacet
  facet normal 0 -1 0
    outer loop
      vertex -5 -2.5 2.5
      vertex -3.25738 -2.5 -0.967194
      vertex -3.1547 -2.5 -0.765686
    endloop
  endfacet
  facet normal 0 -1 0
    outer loop
      vertex -5 -2.5 -2.5
      vertex -3.25738 -2.5 -0.967194
      vertex -5 -2.5 2.5
    endloop
  endfacet
  facet normal 0 -1 0
    outer loop
      vertex -3.25738 -2.5 -0.967194
      vertex -5 -2.5 -2.5
      vertex -3.34719 -2.5 -1.17475
    endloop
  endfacet
  facet normal 0 -1 0
    outer loop
      vertex -3.34719 -2.5 -1.17475
      vertex -5 -2.5 -2.5
      vertex -3.4238 -2.5 -1.38754
    endloop
  endfacet
  facet normal 0 -1 0
    outer loop
      vertex -3.4238 -2.5 -1.38754
      vertex -5 -2.5 -2.5
      vertex -3.4869 -2.5 -1.60472
    endloop
  endfacet
  facet normal 0 -1 0
    outer loop
      vertex -3.4869 -2.5 -1.60472
      vertex -5 -2.5 -2.5
      vertex -3.53623 -2.5 -1.82543
    endloop
  endfacet
  facet normal 0 -1 0
    outer loop
      vertex -3.53623 -2.5 -1.82543
      vertex -5 -2.5 -2.5
      vertex -3.57161 -2.5 -2.0488
    endloop
  endfacet
  facet normal 0 -1 0
    outer loop
      vertex -3.57161 -2.5 -2.0488
      vertex -5 -2.5 -2.5
      vertex -3.5929 -2.5 -2.27395
    endloop
  endfacet
  facet normal 0 -1 0
    outer loop
      vertex -3.5929 -2.5 -2.27395
      vertex -5 -2.5 -2.5
      vertex -3.6 -2.5 -2.5
    endloop
  endfacet
  facet normal 0 -1 0
    outer loop
      vertex 0.226046 -2.5 1.0929
      vertex 5 -2.5 2.5
      vertex 0 -2.5 1.1
    endloop
  endfacet
  facet normal 0 -1 0
    outer loop
      vertex 0.4512 -2.5 1.07161
      vertex 5 -2.5 2.5
      vertex 0.226046 -2.5 1.0929
    endloop
  endfacet
  facet normal 0 -1 0
    outer loop
      vertex 0.674572 -2.5 1.03623
      vertex 5 -2.5 2.5
      vertex 0.4512 -2.5 1.07161
    endloop
  endfacet
  facet normal 0 -1 0
    outer loop
      vertex 0.895283 -2.5 0.986899
      vertex 5 -2.5 2.5
      vertex 0.674572 -2.5 1.03623
    endloop
  endfacet
  facet normal 0 -1 0
    outer loop
      vertex 1.11246 -2.5 0.923803
      vertex 5 -2.5 2.5
      vertex 0.895283 -2.5 0.986899
    endloop
  endfacet
  facet normal 0 -1 0
    outer loop
      vertex 1.32525 -2.5 0.847195
      vertex 5 -2.5 2.5
      vertex 1.11246 -2.5 0.923803
    endloop
  endfacet
  facet normal 0 -1 0
    outer loop
      vertex 1.53281 -2.5 0.757377
      vertex 5 -2.5 2.5
      vertex 1.32525 -2.5 0.847195
    endloop
  endfacet
  facet normal 0 -1 0
    outer loop
      vertex 1.73431 -2.5 0.654703
      vertex 5 -2.5 2.5
      vertex 1.53281 -2.5 0.757377
    endloop
  endfacet
  facet normal 0 -1 0
    outer loop
      vertex 1.92898 -2.5 0.53958
      vertex 5 -2.5 2.5
      vertex 1.73431 -2.5 0.654703
    endloop
  endfacet
  facet normal 0 -1 0
    outer loop
      vertex 2.11603 -2.5 0.41246
      vertex 5 -2.5 2.5
      vertex 1.92898 -2.5 0.53958
    endloop
  endfacet
  facet normal 0 -1 0
    outer loop
      vertex 2.29473 -2.5 0.273848
      vertex 5 -2.5 2.5
      vertex 2.11603 -2.5 0.41246
    endloop
  endfacet
  facet normal 0 -1 0
    outer loop
      vertex 2.46437 -2.5 0.124287
      vertex 5 -2.5 2.5
      vertex 2.29473 -2.5 0.273848
    endloop
  endfacet
  facet normal 0 -1 0
    outer loop
      vertex 2.62429 -2.5 -0.0356302
      vertex 5 -2.5 2.5
      vertex 2.46437 -2.5 0.124287
    endloop
  endfacet
  facet normal 0 -1 0
    outer loop
      vertex 2.77385 -2.5 -0.205274
      vertex 5 -2.5 2.5
      vertex 2.62429 -2.5 -0.0356302
    endloop
  endfacet
  facet normal 0 -1 0
    outer loop
      vertex 2.91246 -2.5 -0.383972
      vertex 5 -2.5 2.5
      vertex 2.77385 -2.5 -0.205274
    endloop
  endfacet
  facet normal 0 -1 0
    outer loop
      vertex 3.03958 -2.5 -0.571023
      vertex 5 -2.5 2.5
      vertex 2.91246 -2.5 -0.383972
    endloop
  endfacet
  facet normal 0 -1 0
    outer loop
      vertex 3.1547 -2.5 -0.765686
      vertex 5 -2.5 2.5
      vertex 3.03958 -2.5 -0.571023
    endloop
  endfacet
  facet normal 0 -1 0
    outer loop
      vertex 3.25738 -2.5 -0.967194
      vertex 5 -2.5 2.5
      vertex 3.1547 -2.5 -0.765686
    endloop
  endfacet
  facet normal 0 -1 0
    outer loop
      vertex 5 -2.5 -2.5
      vertex 3.25738 -2.5 -0.967194
      vertex 3.34719 -2.5 -1.17475
    endloop
  endfacet
  facet normal 0 -1 0
    outer loop
      vertex 5 -2.5 -2.5
      vertex 3.34719 -2.5 -1.17475
      vertex 3.4238 -2.5 -1.38754
    endloop
  endfacet
  facet normal 0 -1 0
    outer loop
      vertex 5 -2.5 -2.5
      vertex 3.4238 -2.5 -1.38754
      vertex 3.4869 -2.5 -1.60472
    endloop
  endfacet
  facet normal 0 -1 0
    outer loop
      vertex 5 -2.5 -2.5
      vertex 3.4869 -2.5 -1.60472
      vertex 3.53623 -2.5 -1.82543
    endloop
  endfacet
  facet normal 0 -1 0
    outer loop
      vertex 5 -2.5 -2.5
      vertex 3.53623 -2.5 -1.82543
      vertex 3.57161 -2.5 -2.0488
    endloop
  endfacet
  facet normal 0 -1 0
    outer loop
      vertex 5 -2.5 -2.5
      vertex 3.57161 -2.5 -2.0488
      vertex 3.5929 -2.5 -2.27395
    endloop
  endfacet
  facet normal 0 -1 0
    outer loop
      vertex 5 -2.5 -2.5
      vertex 3.5929 -2.5 -2.27395
      vertex 3.6 -2.5 -2.5
    endloop
  endfacet
  facet normal 0 -1 0
    outer loop
      vertex 3.25738 -2.5 -0.967194
      vertex 5 -2.5 -2.5
      vertex 5 -2.5 2.5
    endloop
  endfacet
  facet normal 0 1 0
    outer loop
      vertex 5 2.5 2.5
      vertex 0 2.5 1.1
      vertex -5 2.5 2.5
    endloop
  endfacet
  facet normal 0 1 0
    outer loop
      vertex 5 2.5 2.5
      vertex 0.226046 2.5 1.0929
      vertex 0 2.5 1.1
    endloop
  endfacet
  facet normal 0 1 0
    outer loop
      vertex 5 2.5 2.5
      vertex 0.4512 2.5 1.07161
      vertex 0.226046 2.5 1.0929
    endloop
  endfacet
  facet normal 0 1 0
    outer loop
      vertex 5 2.5 2.5
      vertex 0.674572 2.5 1.03623
      vertex 0.4512 2.5 1.07161
    endloop
  endfacet
  facet normal 0 1 0
    outer loop
      vertex 5 2.5 2.5
      vertex 0.895283 2.5 0.986899
      vertex 0.674572 2.5 1.03623
    endloop
  endfacet
  facet normal 0 1 0
    outer loop
      vertex 5 2.5 2.5
      vertex 1.11246 2.5 0.923803
      vertex 0.895283 2.5 0.986899
    endloop
  endfacet
  facet normal 0 1 0
    outer loop
      vertex 5 2.5 2.5
      vertex 1.32525 2.5 0.847195
      vertex 1.11246 2.5 0.923803
    endloop
  endfacet
  facet normal 0 1 0
    outer loop
      vertex 5 2.5 2.5
      vertex 1.53281 2.5 0.757377
      vertex 1.32525 2.5 0.847195
    endloop
  endfacet
  facet normal 0 1 0
    outer loop
      vertex 5 2.5 2.5
      vertex 1.73431 2.5 0.654703
      vertex 1.53281 2.5 0.757377
    endloop
  endfacet
  facet normal 0 1 0
    outer loop
      vertex 5 2.5 2.5
      vertex 1.92898 2.5 0.53958
      vertex 1.73431 2.5 0.654703
    endloop
  endfacet
  facet normal 0 1 0
    outer loop
      vertex 5 2.5 2.5
      vertex 2.11603 2.5 0.41246
      vertex 1.92898 2.5 0.53958
    endloop
  endfacet
  facet normal 0 1 0
    outer loop
      vertex 5 2.5 2.5
      vertex 2.29473 2.5 0.273848
      vertex 2.11603 2.5 0.41246
    endloop
  endfacet
  facet normal 0 1 0
    outer loop
      vertex 5 2.5 2.5
      vertex 2.46437 2.5 0.124287
      vertex 2.29473 2.5 0.273848
    endloop
  endfacet
  facet normal 0 1 0
    outer loop
      vertex 5 2.5 2.5
      vertex 2.62429 2.5 -0.0356302
      vertex 2.46437 2.5 0.124287
    endloop
  endfacet
  facet normal 0 1 0
    outer loop
      vertex 5 2.5 2.5
      vertex 2.77385 2.5 -0.205274
      vertex 2.62429 2.5 -0.0356302
    endloop
  endfacet
  facet normal 0 1 0
    outer loop
      vertex 5 2.5 2.5
      vertex 2.91246 2.5 -0.383972
      vertex 2.77385 2.5 -0.205274
    endloop
  endfacet
  facet normal 0 1 0
    outer loop
      vertex 5 2.5 2.5
      vertex 3.03958 2.5 -0.571023
      vertex 2.91246 2.5 -0.383972
    endloop
  endfacet
  facet normal 0 1 0
    outer loop
      vertex 5 2.5 2.5
      vertex 3.1547 2.5 -0.765686
      vertex 3.03958 2.5 -0.571023
    endloop
  endfacet
  facet normal 0 1 0
    outer loop
      vertex 5 2.5 2.5
      vertex 3.25738 2.5 -0.967194
      vertex 3.1547 2.5 -0.765686
    endloop
  endfacet
  facet normal 0 1 -0
    outer loop
      vertex 5 2.5 -2.5
      vertex 3.25738 2.5 -0.967194
      vertex 5 2.5 2.5
    endloop
  endfacet
  facet normal 0 1 0
    outer loop
      vertex 3.25738 2.5 -0.967194
      vertex 5 2.5 -2.5
      vertex 3.34719 2.5 -1.17475
    endloop
  endfacet
  facet normal 0 1 0
    outer loop
      vertex 3.34719 2.5 -1.17475
      vertex 5 2.5 -2.5
      vertex 3.4238 2.5 -1.38754
    endloop
  endfacet
  facet normal 0 1 0
    outer loop
      vertex 3.4238 2.5 -1.38754
      vertex 5 2.5 -2.5
      vertex 3.4869 2.5 -1.60472
    endloop
  endfacet
  facet normal 0 1 0
    outer loop
      vertex 3.4869 2.5 -1.60472
      vertex 5 2.5 -2.5
      vertex 3.53623 2.5 -1.82543
    endloop
  endfacet
  facet normal 0 1 0
    outer loop
      vertex 3.53623 2.5 -1.82543
      vertex 5 2.5 -2.5
      vertex 3.57161 2.5 -2.0488
    endloop
  endfacet
  facet normal 0 1 0
    outer loop
      vertex 3.57161 2.5 -2.0488
      vertex 5 2.5 -2.5
      vertex 3.5929 2.5 -2.27395
    endloop
  endfacet
  facet normal 0 1 0
    outer loop
      vertex 3.5929 2.5 -2.27395
      vertex 5 2.5 -2.5
      vertex 3.6 2.5 -2.5
    endloop
  endfacet
  facet normal 0 1 -0
    outer loop
      vertex -0.226046 2.5 1.0929
      vertex -5 2.5 2.5
      vertex 0 2.5 1.1
    endloop
  endfacet
  facet normal 0 1 -0
    outer loop
      vertex -0.4512 2.5 1.07161
      vertex -5 2.5 2.5
      vertex -0.226046 2.5 1.0929
    endloop
  endfacet
  facet normal 0 1 -0
    outer loop
      vertex -0.674572 2.5 1.03623
      vertex -5 2.5 2.5
      vertex -0.4512 2.5 1.07161
    endloop
  endfacet
  facet normal 0 1 -0
    outer loop
      vertex -0.895283 2.5 0.986899
      vertex -5 2.5 2.5
      vertex -0.674572 2.5 1.03623
    endloop
  endfacet
  facet normal 0 1 -0
    outer loop
      vertex -1.11246 2.5 0.923803
      vertex -5 2.5 2.5
      vertex -0.895283 2.5 0.986899
    endloop
  endfacet
  facet normal 0 1 -0
    outer loop
      vertex -1.32525 2.5 0.847195
      vertex -5 2.5 2.5
      vertex -1.11246 2.5 0.923803
    endloop
  endfacet
  facet normal 0 1 -0
    outer loop
      vertex -1.53281 2.5 0.757377
      vertex -5 2.5 2.5
      vertex -1.32525 2.5 0.847195
    endloop
  endfacet
  facet normal 0 1 -0
    outer loop
      vertex -1.73431 2.5 0.654703
      vertex -5 2.5 2.5
      vertex -1.53281 2.5 0.757377
    endloop
  endfacet
  facet normal 0 1 -0
    outer loop
      vertex -1.92898 2.5 0.53958
      vertex -5 2.5 2.5
      vertex -1.73431 2.5 0.654703
    endloop
  endfacet
  facet normal 0 1 -0
    outer loop
      vertex -2.11603 2.5 0.41246
      vertex -5 2.5 2.5
      vertex -1.92898 2.5 0.53958
    endloop
  endfacet
  facet normal 0 1 -0
    outer loop
      vertex -2.29473 2.5 0.273848
      vertex -5 2.5 2.5
      vertex -2.11603 2.5 0.41246
    endloop
  endfacet
  facet normal 0 1 -0
    outer loop
      vertex -2.46437 2.5 0.124287
      vertex -5 2.5 2.5
      vertex -2.29473 2.5 0.273848
    endloop
  endfacet
  facet normal 0 1 -0
    outer loop
      vertex -2.62429 2.5 -0.0356302
      vertex -5 2.5 2.5
      vertex -2.46437 2.5 0.124287
    endloop
  endfacet
  facet normal 0 1 -0
    outer loop
      vertex -2.77385 2.5 -0.205274
      vertex -5 2.5 2.5
      vertex -2.62429 2.5 -0.0356302
    endloop
  endfacet
  facet normal 0 1 -0
    outer loop
      vertex -2.91246 2.5 -0.383972
      vertex -5 2.5 2.5
      vertex -2.77385 2.5 -0.205274
    endloop
  endfacet
  facet normal 0 1 -0
    outer loop
      vertex -3.03958 2.5 -0.571023
      vertex -5 2.5 2.5
      vertex -2.91246 2.5 -0.383972
    endloop
  endfacet
  facet normal 0 1 -0
    outer loop
      vertex -3.1547 2.5 -0.765686
      vertex -5 2.5 2.5
      vertex -3.03958 2.5 -0.571023
    endloop
  endfacet
  facet normal 0 1 -0
    outer loop
      vertex -3.25738 2.5 -0.967194
      vertex -5 2.5 2.5
      vertex -3.1547 2.5 -0.765686
    endloop
  endfacet
  facet normal 0 1 0
    outer loop
      vertex -5 2.5 -2.5
      vertex -3.25738 2.5 -0.967194
      vertex -3.34719 2.5 -1.17475
    endloop
  endfacet
  facet normal 0 1 0
    outer loop
      vertex -5 2.5 -2.5
      vertex -3.34719 2.5 -1.17475
      vertex -3.4238 2.5 -1.38754
    endloop
  endfacet
  facet normal 0 1 0
    outer loop
      vertex -5 2.5 -2.5
      vertex -3.4238 2.5 -1.38754
      vertex -3.4869 2.5 -1.60472
    endloop
  endfacet
  facet normal 0 1 0
    outer loop
      vertex -5 2.5 -2.5
      vertex -3.4869 2.5 -1.60472
      vertex -3.53623 2.5 -1.82543
    endloop
  endfacet
  facet normal 0 1 0
    outer loop
      vertex -5 2.5 -2.5
      vertex -3.53623 2.5 -1.82543
      vertex -3.57161 2.5 -2.0488
    endloop
  endfacet
  facet normal 0 1 0
    outer loop
      vertex -5 2.5 -2.5
      vertex -3.57161 2.5 -2.0488
      vertex -3.5929 2.5 -2.27395
    endloop
  endfacet
  facet normal 0 1 0
    outer loop
      vertex -5 2.5 -2.5
      vertex -3.5929 2.5 -2.27395
      vertex -3.6 2.5 -2.5
    endloop
  endfacet
  facet normal 0 1 0
    outer loop
      vertex -3.25738 2.5 -0.967194
      vertex -5 2.5 -2.5
      vertex -5 2.5 2.5
    endloop
  endfacet
  facet normal -0.999507 0 -0.0313935
    outer loop
      vertex 3.6 -2.5 -2.5
      vertex 3.5929 2.5 -2.27395
      vertex 3.6 2.5 -2.5
    endloop
  endfacet
  facet normal -0.999507 -0 -0.0313935
    outer loop
      vertex 3.5929 2.5 -2.27395
      vertex 3.6 -2.5 -2.5
      vertex 3.5929 -2.5 -2.27395
    endloop
  endfacet
  facet normal -0.995559 0 -0.0941392
    outer loop
      vertex 3.5929 -2.5 -2.27395
      vertex 3.57161 2.5 -2.0488
      vertex 3.5929 2.5 -2.27395
    endloop
  endfacet
  facet normal -0.995559 -0 -0.0941392
    outer loop
      vertex 3.57161 2.5 -2.0488
      vertex 3.5929 -2.5 -2.27395
      vertex 3.57161 -2.5 -2.0488
    endloop
  endfacet
  facet normal 0.999507 0 -0.0313935
    outer loop
      vertex -3.5929 -2.5 -2.27395
      vertex -3.6 2.5 -2.5
      vertex -3.5929 2.5 -2.27395
    endloop
  endfacet
  facet normal 0.999507 0 -0.0313935
    outer loop
      vertex -3.6 2.5 -2.5
      vertex -3.5929 -2.5 -2.27395
      vertex -3.6 -2.5 -2.5
    endloop
  endfacet
  facet normal -0.0313941 0 -0.999507
    outer loop
      vertex 0 -2.5 1.1
      vertex 0.226046 2.5 1.0929
      vertex 0.226046 -2.5 1.0929
    endloop
  endfacet
  facet normal -0.0313941 0 -0.999507
    outer loop
      vertex 0.226046 2.5 1.0929
      vertex 0 -2.5 1.1
      vertex 0 2.5 1.1
    endloop
  endfacet
  facet normal -0.707101 0 -0.707113
    outer loop
      vertex 2.46437 -2.5 0.124287
      vertex 2.62429 2.5 -0.0356302
      vertex 2.62429 -2.5 -0.0356302
    endloop
  endfacet
  facet normal -0.707101 0 -0.707113
    outer loop
      vertex 2.62429 2.5 -0.0356302
      vertex 2.46437 -2.5 0.124287
      vertex 2.46437 2.5 0.124287
    endloop
  endfacet
  facet normal 0.707101 0 -0.707113
    outer loop
      vertex -2.62429 -2.5 -0.0356302
      vertex -2.46437 2.5 0.124287
      vertex -2.46437 -2.5 0.124287
    endloop
  endfacet
  facet normal 0.707101 0 -0.707113
    outer loop
      vertex -2.46437 2.5 0.124287
      vertex -2.62429 -2.5 -0.0356302
      vertex -2.62429 2.5 -0.0356302
    endloop
  endfacet
  facet normal -0.917767 0 -0.39712
    outer loop
      vertex 3.34719 -2.5 -1.17475
      vertex 3.25738 2.5 -0.967194
      vertex 3.34719 2.5 -1.17475
    endloop
  endfacet
  facet normal -0.917767 -0 -0.39712
    outer loop
      vertex 3.25738 2.5 -0.967194
      vertex 3.34719 -2.5 -1.17475
      vertex 3.25738 -2.5 -0.967194
    endloop
  endfacet
  facet normal -0.397143 0 -0.917757
    outer loop
      vertex 1.32525 -2.5 0.847195
      vertex 1.53281 2.5 0.757377
      vertex 1.53281 -2.5 0.757377
    endloop
  endfacet
  facet normal -0.397143 0 -0.917757
    outer loop
      vertex 1.53281 2.5 0.757377
      vertex 1.32525 -2.5 0.847195
      vertex 1.32525 2.5 0.847195
    endloop
  endfacet
  facet normal -0.975921 0 -0.218124
    outer loop
      vertex 3.53623 -2.5 -1.82543
      vertex 3.4869 2.5 -1.60472
      vertex 3.53623 2.5 -1.82543
    endloop
  endfacet
  facet normal -0.975921 -0 -0.218124
    outer loop
      vertex 3.4869 2.5 -1.60472
      vertex 3.53623 -2.5 -1.82543
      vertex 3.4869 -2.5 -1.60472
    endloop
  endfacet
  facet normal -0.96029 0 -0.279005
    outer loop
      vertex 3.4869 -2.5 -1.60472
      vertex 3.4238 2.5 -1.38754
      vertex 3.4869 2.5 -1.60472
    endloop
  endfacet
  facet normal -0.96029 -0 -0.279005
    outer loop
      vertex 3.4238 2.5 -1.38754
      vertex 3.4869 -2.5 -1.60472
      vertex 3.4238 -2.5 -1.38754
    endloop
  endfacet
  facet normal -0.82708 0 -0.562084
    outer loop
      vertex 3.03958 -2.5 -0.571023
      vertex 2.91246 2.5 -0.383972
      vertex 3.03958 2.5 -0.571023
    endloop
  endfacet
  facet normal -0.82708 -0 -0.562084
    outer loop
      vertex 2.91246 2.5 -0.383972
      vertex 3.03958 -2.5 -0.571023
      vertex 2.91246 -2.5 -0.383972
    endloop
  endfacet
  facet normal -0.750114 0 -0.661309
    outer loop
      vertex 2.77385 -2.5 -0.205274
      vertex 2.62429 2.5 -0.0356302
      vertex 2.77385 2.5 -0.205274
    endloop
  endfacet
  facet normal -0.750114 -0 -0.661309
    outer loop
      vertex 2.62429 2.5 -0.0356302
      vertex 2.77385 -2.5 -0.205274
      vertex 2.62429 -2.5 -0.0356302
    endloop
  endfacet
  facet normal -0.218127 0 -0.97592
    outer loop
      vertex 0.674572 -2.5 1.03623
      vertex 0.895283 2.5 0.986899
      vertex 0.895283 -2.5 0.986899
    endloop
  endfacet
  facet normal -0.218127 0 -0.97592
    outer loop
      vertex 0.895283 2.5 0.986899
      vertex 0.674572 -2.5 1.03623
      vertex 0.674572 2.5 1.03623
    endloop
  endfacet
  facet normal -0.66132 0 -0.750104
    outer loop
      vertex 2.29473 -2.5 0.273848
      vertex 2.46437 2.5 0.124287
      vertex 2.46437 -2.5 0.124287
    endloop
  endfacet
  facet normal -0.66132 0 -0.750104
    outer loop
      vertex 2.46437 2.5 0.124287
      vertex 2.29473 -2.5 0.273848
      vertex 2.29473 2.5 0.273848
    endloop
  endfacet
  facet normal -0.454007 0 -0.890998
    outer loop
      vertex 1.53281 -2.5 0.757377
      vertex 1.73431 2.5 0.654703
      vertex 1.73431 -2.5 0.654703
    endloop
  endfacet
  facet normal -0.454007 0 -0.890998
    outer loop
      vertex 1.73431 2.5 0.654703
      vertex 1.53281 -2.5 0.757377
      vertex 1.53281 2.5 0.757377
    endloop
  endfacet
  facet normal 0.82708 0 -0.562084
    outer loop
      vertex -2.91246 -2.5 -0.383972
      vertex -3.03958 2.5 -0.571023
      vertex -2.91246 2.5 -0.383972
    endloop
  endfacet
  facet normal 0.82708 0 -0.562084
    outer loop
      vertex -3.03958 2.5 -0.571023
      vertex -2.91246 -2.5 -0.383972
      vertex -3.03958 -2.5 -0.571023
    endloop
  endfacet
  facet normal 0.917767 0 -0.39712
    outer loop
      vertex -3.25738 -2.5 -0.967194
      vertex -3.34719 2.5 -1.17475
      vertex -3.25738 2.5 -0.967194
    endloop
  endfacet
  facet normal 0.917767 0 -0.39712
    outer loop
      vertex -3.34719 2.5 -1.17475
      vertex -3.25738 -2.5 -0.967194
      vertex -3.34719 -2.5 -1.17475
    endloop
  endfacet
  facet normal 0.860749 0 -0.50903
    outer loop
      vertex -3.03958 -2.5 -0.571023
      vertex -3.1547 2.5 -0.765686
      vertex -3.03958 2.5 -0.571023
    endloop
  endfacet
  facet normal 0.860749 0 -0.50903
    outer loop
      vertex -3.1547 2.5 -0.765686
      vertex -3.03958 -2.5 -0.571023
      vertex -3.1547 -2.5 -0.765686
    endloop
  endfacet
  facet normal 0.975921 0 -0.218124
    outer loop
      vertex -3.4869 -2.5 -1.60472
      vertex -3.53623 2.5 -1.82543
      vertex -3.4869 2.5 -1.60472
    endloop
  endfacet
  facet normal 0.975921 0 -0.218124
    outer loop
      vertex -3.53623 2.5 -1.82543
      vertex -3.4869 -2.5 -1.60472
      vertex -3.53623 -2.5 -1.82543
    endloop
  endfacet
  facet normal 0.562086 0 -0.827079
    outer loop
      vertex -2.11603 -2.5 0.41246
      vertex -1.92898 2.5 0.53958
      vertex -1.92898 -2.5 0.53958
    endloop
  endfacet
  facet normal 0.562086 0 -0.827079
    outer loop
      vertex -1.92898 2.5 0.53958
      vertex -2.11603 -2.5 0.41246
      vertex -2.11603 2.5 0.41246
    endloop
  endfacet
  facet normal 0.0941376 0 -0.995559
    outer loop
      vertex -0.4512 -2.5 1.07161
      vertex -0.226046 2.5 1.0929
      vertex -0.226046 -2.5 1.0929
    endloop
  endfacet
  facet normal 0.0941376 0 -0.995559
    outer loop
      vertex -0.226046 2.5 1.0929
      vertex -0.4512 -2.5 1.07161
      vertex -0.4512 2.5 1.07161
    endloop
  endfacet
  facet normal -0.987687 0 -0.156442
    outer loop
      vertex 3.57161 -2.5 -2.0488
      vertex 3.53623 2.5 -1.82543
      vertex 3.57161 2.5 -2.0488
    endloop
  endfacet
  facet normal -0.987687 -0 -0.156442
    outer loop
      vertex 3.53623 2.5 -1.82543
      vertex 3.57161 -2.5 -2.0488
      vertex 3.53623 -2.5 -1.82543
    endloop
  endfacet
  facet normal -0.79016 0 -0.6129
    outer loop
      vertex 2.91246 -2.5 -0.383972
      vertex 2.77385 2.5 -0.205274
      vertex 2.91246 2.5 -0.383972
    endloop
  endfacet
  facet normal -0.79016 -0 -0.6129
    outer loop
      vertex 2.77385 2.5 -0.205274
      vertex 2.91246 -2.5 -0.383972
      vertex 2.77385 -2.5 -0.205274
    endloop
  endfacet
  facet normal -0.15644 0 -0.987687
    outer loop
      vertex 0.4512 -2.5 1.07161
      vertex 0.674572 2.5 1.03623
      vertex 0.674572 -2.5 1.03623
    endloop
  endfacet
  facet normal -0.15644 0 -0.987687
    outer loop
      vertex 0.674572 2.5 1.03623
      vertex 0.4512 -2.5 1.07161
      vertex 0.4512 2.5 1.07161
    endloop
  endfacet
  facet normal -0.338734 0 -0.940882
    outer loop
      vertex 1.11246 -2.5 0.923803
      vertex 1.32525 2.5 0.847195
      vertex 1.32525 -2.5 0.847195
    endloop
  endfacet
  facet normal -0.338734 0 -0.940882
    outer loop
      vertex 1.32525 2.5 0.847195
      vertex 1.11246 -2.5 0.923803
      vertex 1.11246 2.5 0.923803
    endloop
  endfacet
  facet normal -0.509027 0 -0.860751
    outer loop
      vertex 1.73431 -2.5 0.654703
      vertex 1.92898 2.5 0.53958
      vertex 1.92898 -2.5 0.53958
    endloop
  endfacet
  facet normal -0.509027 0 -0.860751
    outer loop
      vertex 1.92898 2.5 0.53958
      vertex 1.73431 -2.5 0.654703
      vertex 1.73431 2.5 0.654703
    endloop
  endfacet
  facet normal 0.987687 0 -0.156442
    outer loop
      vertex -3.53623 -2.5 -1.82543
      vertex -3.57161 2.5 -2.0488
      vertex -3.53623 2.5 -1.82543
    endloop
  endfacet
  facet normal 0.987687 0 -0.156442
    outer loop
      vertex -3.57161 2.5 -2.0488
      vertex -3.53623 -2.5 -1.82543
      vertex -3.57161 -2.5 -2.0488
    endloop
  endfacet
  facet normal 0.890995 0 -0.454013
    outer loop
      vertex -3.1547 -2.5 -0.765686
      vertex -3.25738 2.5 -0.967194
      vertex -3.1547 2.5 -0.765686
    endloop
  endfacet
  facet normal 0.890995 0 -0.454013
    outer loop
      vertex -3.25738 2.5 -0.967194
      vertex -3.1547 -2.5 -0.765686
      vertex -3.25738 -2.5 -0.967194
    endloop
  endfacet
  facet normal 0.94088 0 -0.338741
    outer loop
      vertex -3.34719 -2.5 -1.17475
      vertex -3.4238 2.5 -1.38754
      vertex -3.34719 2.5 -1.17475
    endloop
  endfacet
  facet normal 0.94088 0 -0.338741
    outer loop
      vertex -3.4238 2.5 -1.38754
      vertex -3.34719 -2.5 -1.17475
      vertex -3.4238 -2.5 -1.38754
    endloop
  endfacet
  facet normal 0.612902 0 -0.790159
    outer loop
      vertex -2.29473 -2.5 0.273848
      vertex -2.11603 2.5 0.41246
      vertex -2.11603 -2.5 0.41246
    endloop
  endfacet
  facet normal 0.612902 0 -0.790159
    outer loop
      vertex -2.11603 2.5 0.41246
      vertex -2.29473 -2.5 0.273848
      vertex -2.29473 2.5 0.273848
    endloop
  endfacet
  facet normal 0.509027 0 -0.860751
    outer loop
      vertex -1.92898 -2.5 0.53958
      vertex -1.73431 2.5 0.654703
      vertex -1.73431 -2.5 0.654703
    endloop
  endfacet
  facet normal 0.509027 0 -0.860751
    outer loop
      vertex -1.73431 2.5 0.654703
      vertex -1.92898 -2.5 0.53958
      vertex -1.92898 2.5 0.53958
    endloop
  endfacet
  facet normal 0.397143 0 -0.917757
    outer loop
      vertex -1.53281 -2.5 0.757377
      vertex -1.32525 2.5 0.847195
      vertex -1.32525 -2.5 0.847195
    endloop
  endfacet
  facet normal 0.397143 0 -0.917757
    outer loop
      vertex -1.32525 2.5 0.847195
      vertex -1.53281 -2.5 0.757377
      vertex -1.53281 2.5 0.757377
    endloop
  endfacet
  facet normal 0.278992 0 -0.960293
    outer loop
      vertex -1.11246 -2.5 0.923803
      vertex -0.895283 2.5 0.986899
      vertex -0.895283 -2.5 0.986899
    endloop
  endfacet
  facet normal 0.278992 0 -0.960293
    outer loop
      vertex -0.895283 2.5 0.986899
      vertex -1.11246 -2.5 0.923803
      vertex -1.11246 2.5 0.923803
    endloop
  endfacet
  facet normal 0.0313941 0 -0.999507
    outer loop
      vertex -0.226046 -2.5 1.0929
      vertex 0 2.5 1.1
      vertex 0 -2.5 1.1
    endloop
  endfacet
  facet normal 0.0313941 0 -0.999507
    outer loop
      vertex 0 2.5 1.1
      vertex -0.226046 -2.5 1.0929
      vertex -0.226046 2.5 1.0929
    endloop
  endfacet
  facet normal -0.94088 0 -0.338741
    outer loop
      vertex 3.4238 -2.5 -1.38754
      vertex 3.34719 2.5 -1.17475
      vertex 3.4238 2.5 -1.38754
    endloop
  endfacet
  facet normal -0.94088 -0 -0.338741
    outer loop
      vertex 3.34719 2.5 -1.17475
      vertex 3.4238 -2.5 -1.38754
      vertex 3.34719 -2.5 -1.17475
    endloop
  endfacet
  facet normal -0.890995 0 -0.454013
    outer loop
      vertex 3.25738 -2.5 -0.967194
      vertex 3.1547 2.5 -0.765686
      vertex 3.25738 2.5 -0.967194
    endloop
  endfacet
  facet normal -0.890995 -0 -0.454013
    outer loop
      vertex 3.1547 2.5 -0.765686
      vertex 3.25738 -2.5 -0.967194
      vertex 3.1547 -2.5 -0.765686
    endloop
  endfacet
  facet normal -0.860749 0 -0.50903
    outer loop
      vertex 3.1547 -2.5 -0.765686
      vertex 3.03958 2.5 -0.571023
      vertex 3.1547 2.5 -0.765686
    endloop
  endfacet
  facet normal -0.860749 -0 -0.50903
    outer loop
      vertex 3.03958 2.5 -0.571023
      vertex 3.1547 -2.5 -0.765686
      vertex 3.03958 -2.5 -0.571023
    endloop
  endfacet
  facet normal -0.278992 0 -0.960293
    outer loop
      vertex 0.895283 -2.5 0.986899
      vertex 1.11246 2.5 0.923803
      vertex 1.11246 -2.5 0.923803
    endloop
  endfacet
  facet normal -0.278992 0 -0.960293
    outer loop
      vertex 1.11246 2.5 0.923803
      vertex 0.895283 -2.5 0.986899
      vertex 0.895283 2.5 0.986899
    endloop
  endfacet
  facet normal -0.0941376 0 -0.995559
    outer loop
      vertex 0.226046 -2.5 1.0929
      vertex 0.4512 2.5 1.07161
      vertex 0.4512 -2.5 1.07161
    endloop
  endfacet
  facet normal -0.0941376 0 -0.995559
    outer loop
      vertex 0.4512 2.5 1.07161
      vertex 0.226046 -2.5 1.0929
      vertex 0.226046 2.5 1.0929
    endloop
  endfacet
  facet normal -0.612902 0 -0.790159
    outer loop
      vertex 2.11603 -2.5 0.41246
      vertex 2.29473 2.5 0.273848
      vertex 2.29473 -2.5 0.273848
    endloop
  endfacet
  facet normal -0.612902 0 -0.790159
    outer loop
      vertex 2.29473 2.5 0.273848
      vertex 2.11603 -2.5 0.41246
      vertex 2.11603 2.5 0.41246
    endloop
  endfacet
  facet normal -0.562086 0 -0.827079
    outer loop
      vertex 1.92898 -2.5 0.53958
      vertex 2.11603 2.5 0.41246
      vertex 2.11603 -2.5 0.41246
    endloop
  endfacet
  facet normal -0.562086 0 -0.827079
    outer loop
      vertex 2.11603 2.5 0.41246
      vertex 1.92898 -2.5 0.53958
      vertex 1.92898 2.5 0.53958
    endloop
  endfacet
  facet normal 0.79016 0 -0.6129
    outer loop
      vertex -2.77385 -2.5 -0.205274
      vertex -2.91246 2.5 -0.383972
      vertex -2.77385 2.5 -0.205274
    endloop
  endfacet
  facet normal 0.79016 0 -0.6129
    outer loop
      vertex -2.91246 2.5 -0.383972
      vertex -2.77385 -2.5 -0.205274
      vertex -2.91246 -2.5 -0.383972
    endloop
  endfacet
  facet normal 0.750114 0 -0.661309
    outer loop
      vertex -2.62429 -2.5 -0.0356302
      vertex -2.77385 2.5 -0.205274
      vertex -2.62429 2.5 -0.0356302
    endloop
  endfacet
  facet normal 0.750114 0 -0.661309
    outer loop
      vertex -2.77385 2.5 -0.205274
      vertex -2.62429 -2.5 -0.0356302
      vertex -2.77385 -2.5 -0.205274
    endloop
  endfacet
  facet normal 0.96029 0 -0.279005
    outer loop
      vertex -3.4238 -2.5 -1.38754
      vertex -3.4869 2.5 -1.60472
      vertex -3.4238 2.5 -1.38754
    endloop
  endfacet
  facet normal 0.96029 0 -0.279005
    outer loop
      vertex -3.4869 2.5 -1.60472
      vertex -3.4238 -2.5 -1.38754
      vertex -3.4869 -2.5 -1.60472
    endloop
  endfacet
  facet normal 0.995559 0 -0.0941392
    outer loop
      vertex -3.57161 -2.5 -2.0488
      vertex -3.5929 2.5 -2.27395
      vertex -3.57161 2.5 -2.0488
    endloop
  endfacet
  facet normal 0.995559 0 -0.0941392
    outer loop
      vertex -3.5929 2.5 -2.27395
      vertex -3.57161 -2.5 -2.0488
      vertex -3.5929 -2.5 -2.27395
    endloop
  endfacet
  facet normal 0.66132 0 -0.750104
    outer loop
      vertex -2.46437 -2.5 0.124287
      vertex -2.29473 2.5 0.273848
      vertex -2.29473 -2.5 0.273848
    endloop
  endfacet
  facet normal 0.66132 0 -0.750104
    outer loop
      vertex -2.29473 2.5 0.273848
      vertex -2.46437 -2.5 0.124287
      vertex -2.46437 2.5 0.124287
    endloop
  endfacet
  facet normal 0.454007 0 -0.890998
    outer loop
      vertex -1.73431 -2.5 0.654703
      vertex -1.53281 2.5 0.757377
      vertex -1.53281 -2.5 0.757377
    endloop
  endfacet
  facet normal 0.454007 0 -0.890998
    outer loop
      vertex -1.53281 2.5 0.757377
      vertex -1.73431 -2.5 0.654703
      vertex -1.73431 2.5 0.654703
    endloop
  endfacet
  facet normal 0.338734 0 -0.940882
    outer loop
      vertex -1.32525 -2.5 0.847195
      vertex -1.11246 2.5 0.923803
      vertex -1.11246 -2.5 0.923803
    endloop
  endfacet
  facet normal 0.338734 0 -0.940882
    outer loop
      vertex -1.11246 2.5 0.923803
      vertex -1.32525 -2.5 0.847195
      vertex -1.32525 2.5 0.847195
    endloop
  endfacet
  facet normal 0.15644 0 -0.987687
    outer loop
      vertex -0.674572 -2.5 1.03623
      vertex -0.4512 2.5 1.07161
      vertex -0.4512 -2.5 1.07161
    endloop
  endfacet
  facet normal 0.15644 0 -0.987687
    outer loop
      vertex -0.4512 2.5 1.07161
      vertex -0.674572 -2.5 1.03623
      vertex -0.674572 2.5 1.03623
    endloop
  endfacet
  facet normal 0.218127 0 -0.97592
    outer loop
      vertex -0.895283 -2.5 0.986899
      vertex -0.674572 2.5 1.03623
      vertex -0.674572 -2.5 1.03623
    endloop
  endfacet
  facet normal 0.218127 0 -0.97592
    outer loop
      vertex -0.674572 2.5 1.03623
      vertex -0.895283 -2.5 0.986899
      vertex -0.895283 2.5 0.986899
    endloop
  endfacet
endsolid OpenSCAD_Model
