solid OpenSCAD_Model
  facet normal -1 0 0
    outer loop
      vertex -5 -2.5 -2.5
      vertex -5 2.5 2.5
      vertex -5 2.5 -2.5
    endloop
  endfacet
  facet normal -1 -0 0
    outer loop
      vertex -5 2.5 2.5
      vertex -5 -2.5 -2.5
      vertex -5 -2.5 2.5
    endloop
  endfacet
  facet normal -0 0 1
    outer loop
      vertex -5 2.5 2.5
      vertex 5 -2.5 2.5
      vertex 5 2.5 2.5
    endloop
  endfacet
  facet normal 0 0 1
    outer loop
      vertex 5 -2.5 2.5
      vertex -5 2.5 2.5
      vertex -5 -2.5 2.5
    endloop
  endfacet
  facet normal 1 -0 0
    outer loop
      vertex 5 -2.5 2.5
      vertex 5 2.5 -2.5
      vertex 5 2.5 2.5
    endloop
  endfacet
  facet normal 1 0 0
    outer loop
      vertex 5 2.5 -2.5
      vertex 5 -2.5 2.5
      vertex 5 -2.5 -2.5
    endloop
  endfacet
  facet normal 0 0 -1
    outer loop
      vertex -5 -2.5 -2.5
      vertex -3.97804 2.5 -2.5
      vertex -3.97804 -2.5 -2.5
    endloop
  endfacet
  facet normal -0 0 -1
    outer loop
      vertex -3.97804 2.5 -2.5
      vertex -5 -2.5 -2.5
      vertex -5 2.5 -2.5
    endloop
  endfacet
  facet normal 0 0 -1
    outer loop
      vertex 3.97804 -2.5 -2.5
      vertex 5 2.5 -2.5
      vertex 5 -2.5 -2.5
    endloop
  endfacet
  facet normal -0 0 -1
    outer loop
      vertex 5 2.5 -2.5
      vertex 3.97804 -2.5 -2.5
      vertex 3.97804 2.5 -2.5
    endloop
  endfacet
  facet normal 0 -1 0
    outer loop
      vertex -5 -2.5 2.5
      vertex 0 -2.5 1.1
      vertex 5 -2.5 2.5
    endloop
  endfacet
  facet normal 0 -1 0
    outer loop
      vertex -5 -2.5 2.5
      vertex -0.251162 -2.5 1.09211
      vertex 0 -2.5 1.1
    endloop
  endfacet
  facet normal 0 -1 0
    outer loop
      vertex -5 -2.5 2.5
      vertex -0.501332 -2.5 1.06846
      vertex -0.251162 -2.5 1.09211
    endloop
  endfacet
  facet normal 0 -1 0
    outer loop
      vertex -5 -2.5 2.5
      vertex -0.749525 -2.5 1.02915
      vertex -0.501332 -2.5 1.06846
    endloop
  endfacet
  facet normal 0 -1 0
    outer loop
      vertex -5 -2.5 2.5
      vertex -0.994759 -2.5 0.974332
      vertex -0.749525 -2.5 1.02915
    endloop
  endfacet
  facet normal 0 -1 0
    outer loop
      vertex -5 -2.5 2.5
      vertex -1.23607 -2.5 0.904225
      vertex -0.994759 -2.5 0.974332
    endloop
  endfacet
  facet normal 0 -1 0
    outer loop
      vertex -5 -2.5 2.5
      vertex -1.4725 -2.5 0.819105
      vertex -1.23607 -2.5 0.904225
    endloop
  endfacet
  facet normal 0 -1 0
    outer loop
      vertex -5 -2.5 2.5
      vertex -1.70312 -2.5 0.719308
      vertex -1.4725 -2.5 0.819105
    endloop
  endfacet
  facet normal 0 -1 0
    outer loop
      vertex -5 -2.5 2.5
      vertex -1.92701 -2.5 0.605227
      vertex -1.70312 -2.5 0.719308
    endloop
  endfacet
  facet normal 0 -1 0
    outer loop
      vertex -5 -2.5 2.5
      vertex -2.14331 -2.5 0.477311
      vertex -1.92701 -2.5 0.605227
    endloop
  endfacet
  facet normal 0 -1 0
    outer loop
      vertex -5 -2.5 2.5
      vertex -2.35114 -2.5 0.336067
      vertex -2.14331 -2.5 0.477311
    endloop
  endfacet
  facet normal 0 -1 0
    outer loop
      vertex -5 -2.5 2.5
      vertex -2.5497 -2.5 0.182053
      vertex -2.35114 -2.5 0.336067
    endloop
  endfacet
  facet normal 0 -1 0
    outer loop
      vertex -5 -2.5 2.5
      vertex -2.73819 -2.5 0.0158739
      vertex -2.5497 -2.5 0.182053
    endloop
  endfacet
  facet normal 0 -1 0
    outer loop
      vertex -5 -2.5 2.5
      vertex -2.91587 -2.5 -0.161811
      vertex -2.73819 -2.5 0.0158739
    endloop
  endfacet
  facet normal 0 -1 0
    outer loop
      vertex -5 -2.5 2.5
      vertex -3.08205 -2.5 -0.350304
      vertex -2.91587 -2.5 -0.161811
    endloop
  endfacet
  facet normal 0 -1 0
    outer loop
      vertex -5 -2.5 2.5
      vertex -3.23607 -2.5 -0.548859
      vertex -3.08205 -2.5 -0.350304
    endloop
  endfacet
  facet normal 0 -1 0
    outer loop
      vertex -5 -2.5 2.5
      vertex -3.37731 -2.5 -0.756692
      vertex -3.23607 -2.5 -0.548859
    endloop
  endfacet
  facet normal 0 -1 0
    outer loop
      vertex -5 -2.5 2.5
      vertex -3.50523 -2.5 -0.972985
      vertex -3.37731 -2.5 -0.756692
    endloop
  endfacet
  facet normal 0 -1 0
    outer loop
      vertex -5 -2.5 2.5
      vertex -3.61931 -2.5 -1.19688
      vertex -3.50523 -2.5 -0.972985
    endloop
  endfacet
  facet normal 0 -1 0
    outer loop
      vertex -5 -2.5 -2.5
      vertex -3.61931 -2.5 -1.19688
      vertex -5 -2.5 2.5
    endloop
  endfacet
  facet normal 0 -1 0
    outer loop
      vertex -3.61931 -2.5 -1.19688
      vertex -5 -2.5 -2.5
      vertex -3.71911 -2.5 -1.4275
    endloop
  endfacet
  facet normal 0 -1 0
    outer loop
      vertex -3.71911 -2.5 -1.4275
      vertex -5 -2.5 -2.5
      vertex -3.80423 -2.5 -1.66393
    endloop
  endfacet
  facet normal 0 -1 0
    outer loop
      vertex -3.80423 -2.5 -1.66393
      vertex -5 -2.5 -2.5
      vertex -3.87433 -2.5 -1.90524
    endloop
  endfacet
  facet normal 0 -1 0
    outer loop
      vertex -3.87433 -2.5 -1.90524
      vertex -5 -2.5 -2.5
      vertex -3.92915 -2.5 -2.15047
    endloop
  endfacet
  facet normal 0 -1 0
    outer loop
      vertex -3.92915 -2.5 -2.15047
      vertex -5 -2.5 -2.5
      vertex -3.96846 -2.5 -2.39867
    endloop
  endfacet
  facet normal 0 -1 0
    outer loop
      vertex -3.96846 -2.5 -2.39867
      vertex -5 -2.5 -2.5
      vertex -3.97804 -2.5 -2.5
    endloop
  endfacet
  facet normal 0 -1 0
    outer loop
      vertex 0.251162 -2.5 1.09211
      vertex 5 -2.5 2.5
      vertex 0 -2.5 1.1
    endloop
  endfacet
  facet normal 0 -1 0
    outer loop
      vertex 0.501332 -2.5 1.06846
      vertex 5 -2.5 2.5
      vertex 0.251162 -2.5 1.09211
    endloop
  endfacet
  facet normal 0 -1 0
    outer loop
      vertex 0.749525 -2.5 1.02915
      vertex 5 -2.5 2.5
      vertex 0.501332 -2.5 1.06846
    endloop
  endfacet
  facet normal 0 -1 0
    outer loop
      vertex 0.994759 -2.5 0.974332
      vertex 5 -2.5 2.5
      vertex 0.749525 -2.5 1.02915
    endloop
  endfacet
  facet normal 0 -1 0
    outer loop
      vertex 1.23607 -2.5 0.904225
      vertex 5 -2.5 2.5
      vertex 0.994759 -2.5 0.974332
    endloop
  endfacet
  facet normal 0 -1 0
    outer loop
      vertex 1.4725 -2.5 0.819105
      vertex 5 -2.5 2.5
      vertex 1.23607 -2.5 0.904225
    endloop
  endfacet
  facet normal 0 -1 0
    outer loop
      vertex 1.70312 -2.5 0.719308
      vertex 5 -2.5 2.5
      vertex 1.4725 -2.5 0.819105
    endloop
  endfacet
  facet normal 0 -1 0
    outer loop
      vertex 1.92701 -2.5 0.605227
      vertex 5 -2.5 2.5
      vertex 1.70312 -2.5 0.719308
    endloop
  endfacet
  facet normal 0 -1 0
    outer loop
      vertex 2.14331 -2.5 0.477311
      vertex 5 -2.5 2.5
      vertex 1.92701 -2.5 0.605227
    endloop
  endfacet
  facet normal 0 -1 0
    outer loop
      vertex 2.35114 -2.5 0.336067
      vertex 5 -2.5 2.5
      vertex 2.14331 -2.5 0.477311
    endloop
  endfacet
  facet normal 0 -1 0
    outer loop
      vertex 2.5497 -2.5 0.182053
      vertex 5 -2.5 2.5
      vertex 2.35114 -2.5 0.336067
    endloop
  endfacet
  facet normal 0 -1 0
    outer loop
      vertex 2.73819 -2.5 0.0158739
      vertex 5 -2.5 2.5
      vertex 2.5497 -2.5 0.182053
    endloop
  endfacet
  facet normal 0 -1 0
    outer loop
      vertex 2.91587 -2.5 -0.161811
      vertex 5 -2.5 2.5
      vertex 2.73819 -2.5 0.0158739
    endloop
  endfacet
  facet normal 0 -1 0
    outer loop
      vertex 3.08205 -2.5 -0.350304
      vertex 5 -2.5 2.5
      vertex 2.91587 -2.5 -0.161811
    endloop
  endfacet
  facet normal 0 -1 0
    outer loop
      vertex 3.23607 -2.5 -0.548859
      vertex 5 -2.5 2.5
      vertex 3.08205 -2.5 -0.350304
    endloop
  endfacet
  facet normal 0 -1 0
    outer loop
      vertex 3.37731 -2.5 -0.756692
      vertex 5 -2.5 2.5
      vertex 3.23607 -2.5 -0.548859
    endloop
  endfacet
  facet normal 0 -1 0
    outer loop
      vertex 3.50523 -2.5 -0.972985
      vertex 5 -2.5 2.5
      vertex 3.37731 -2.5 -0.756692
    endloop
  endfacet
  facet normal 0 -1 0
    outer loop
      vertex 3.61931 -2.5 -1.19688
      vertex 5 -2.5 2.5
      vertex 3.50523 -2.5 -0.972985
    endloop
  endfacet
  facet normal 0 -1 0
    outer loop
      vertex 5 -2.5 -2.5
      vertex 3.61931 -2.5 -1.19688
      vertex 3.71911 -2.5 -1.4275
    endloop
  endfacet
  facet normal 0 -1 0
    outer loop
      vertex 5 -2.5 -2.5
      vertex 3.71911 -2.5 -1.4275
      vertex 3.80423 -2.5 -1.66393
    endloop
  endfacet
  facet normal 0 -1 0
    outer loop
      vertex 5 -2.5 -2.5
      vertex 3.80423 -2.5 -1.66393
      vertex 3.87433 -2.5 -1.90524
    endloop
  endfacet
  facet normal 0 -1 0
    outer loop
      vertex 5 -2.5 -2.5
      vertex 3.87433 -2.5 -1.90524
      vertex 3.92915 -2.5 -2.15047
    endloop
  endfacet
  facet normal 0 -1 0
    outer loop
      vertex 5 -2.5 -2.5
      vertex 3.92915 -2.5 -2.15047
      vertex 3.96846 -2.5 -2.39867
    endloop
  endfacet
  facet normal 0 -1 0
    outer loop
      vertex 5 -2.5 -2.5
      vertex 3.96846 -2.5 -2.39867
      vertex 3.97804 -2.5 -2.5
    endloop
  endfacet
  facet normal 0 -1 0
    outer loop
      vertex 3.61931 -2.5 -1.19688
      vertex 5 -2.5 -2.5
      vertex 5 -2.5 2.5
    endloop
  endfacet
  facet normal 0 1 0
    outer loop
      vertex 5 2.5 2.5
      vertex 0 2.5 1.1
      vertex -5 2.5 2.5
    endloop
  endfacet
  facet normal 0 1 0
    outer loop
      vertex 5 2.5 2.5
      vertex 0.251162 2.5 1.09211
      vertex 0 2.5 1.1
    endloop
  endfacet
  facet normal 0 1 0
    outer loop
      vertex 5 2.5 2.5
      vertex 0.501332 2.5 1.06846
      vertex 0.251162 2.5 1.09211
    endloop
  endfacet
  facet normal 0 1 0
    outer loop
      vertex 5 2.5 2.5
      vertex 0.749525 2.5 1.02915
      vertex 0.501332 2.5 1.06846
    endloop
  endfacet
  facet normal 0 1 0
    outer loop
      vertex 5 2.5 2.5
      vertex 0.994759 2.5 0.974332
      vertex 0.749525 2.5 1.02915
    endloop
  endfacet
  facet normal 0 1 0
    outer loop
      vertex 5 2.5 2.5
      vertex 1.23607 2.5 0.904225
      vertex 0.994759 2.5 0.974332
    endloop
  endfacet
  facet normal 0 1 0
    outer loop
      vertex 5 2.5 2.5
      vertex 1.4725 2.5 0.819105
      vertex 1.23607 2.5 0.904225
    endloop
  endfacet
  facet normal 0 1 0
    outer loop
      vertex 5 2.5 2.5
      vertex 1.70312 2.5 0.719308
      vertex 1.4725 2.5 0.819105
    endloop
  endfacet
  facet normal 0 1 0
    outer loop
      vertex 5 2.5 2.5
      vertex 1.92701 2.5 0.605227
      vertex 1.70312 2.5 0.719308
    endloop
  endfacet
  facet normal 0 1 0
    outer loop
      vertex 5 2.5 2.5
      vertex 2.14331 2.5 0.477311
      vertex 1.92701 2.5 0.605227
    endloop
  endfacet
  facet normal 0 1 0
    outer loop
      vertex 5 2.5 2.5
      vertex 2.35114 2.5 0.336067
      vertex 2.14331 2.5 0.477311
    endloop
  endfacet
  facet normal 0 1 0
    outer loop
      vertex 5 2.5 2.5
      vertex 2.5497 2.5 0.182053
      vertex 2.35114 2.5 0.336067
    endloop
  endfacet
  facet normal 0 1 0
    outer loop
      vertex 5 2.5 2.5
      vertex 2.73819 2.5 0.0158739
      vertex 2.5497 2.5 0.182053
    endloop
  endfacet
  facet normal 0 1 0
    outer loop
      vertex 5 2.5 2.5
      vertex 2.91587 2.5 -0.161811
      vertex 2.73819 2.5 0.0158739
    endloop
  endfacet
  facet normal 0 1 0
    outer loop
      vertex 5 2.5 2.5
      vertex 3.08205 2.5 -0.350304
      vertex 2.91587 2.5 -0.161811
    endloop
  endfacet
  facet normal 0 1 0
    outer loop
      vertex 5 2.5 2.5
      vertex 3.23607 2.5 -0.548859
      vertex 3.08205 2.5 -0.350304
    endloop
  endfacet
  facet normal 0 1 0
    outer loop
      vertex 5 2.5 2.5
      vertex 3.37731 2.5 -0.756692
      vertex 3.23607 2.5 -0.548859
    endloop
  endfacet
  facet normal 0 1 0
    outer loop
      vertex 5 2.5 2.5
      vertex 3.50523 2.5 -0.972985
      vertex 3.37731 2.5 -0.756692
    endloop
  endfacet
  facet normal 0 1 0
    outer loop
      vertex 5 2.5 2.5
      vertex 3.61931 2.5 -1.19688
      vertex 3.50523 2.5 -0.972985
    endloop
  endfacet
  facet normal 0 1 -0
    outer loop
      vertex 5 2.5 -2.5
      vertex 3.61931 2.5 -1.19688
      vertex 5 2.5 2.5
    endloop
  endfacet
  facet normal 0 1 0
    outer loop
      vertex 3.61931 2.5 -1.19688
      vertex 5 2.5 -2.5
      vertex 3.71911 2.5 -1.4275
    endloop
  endfacet
  facet normal 0 1 0
    outer loop
      vertex 3.71911 2.5 -1.4275
      vertex 5 2.5 -2.5
      vertex 3.80423 2.5 -1.66393
    endloop
  endfacet
  facet normal 0 1 0
    outer loop
      vertex 3.80423 2.5 -1.66393
      vertex 5 2.5 -2.5
      vertex 3.87433 2.5 -1.90524
    endloop
  endfacet
  facet normal 0 1 0
    outer loop
      vertex 3.87433 2.5 -1.90524
      vertex 5 2.5 -2.5
      vertex 3.92915 2.5 -2.15047
    endloop
  endfacet
  facet normal 0 1 0
    outer loop
      vertex 3.92915 2.5 -2.15047
      vertex 5 2.5 -2.5
      vertex 3.96846 2.5 -2.39867
    endloop
  endfacet
  facet normal 0 1 0
    outer loop
      vertex 3.96846 2.5 -2.39867
      vertex 5 2.5 -2.5
      vertex 3.97804 2.5 -2.5
    endloop
  endfacet
  facet normal 0 1 -0
    outer loop
      vertex -0.251162 2.5 1.09211
      vertex -5 2.5 2.5
      vertex 0 2.5 1.1
    endloop
  endfacet
  facet normal 0 1 -0
    outer loop
      vertex -0.501332 2.5 1.06846
      vertex -5 2.5 2.5
      vertex -0.251162 2.5 1.09211
    endloop
  endfacet
  facet normal 0 1 -0
    outer loop
      vertex -0.749525 2.5 1.02915
      vertex -5 2.5 2.5
      vertex -0.501332 2.5 1.06846
    endloop
  endfacet
  facet normal 0 1 -0
    outer loop
      vertex -0.994759 2.5 0.974332
      vertex -5 2.5 2.5
      vertex -0.749525 2.5 1.02915
    endloop
  endfacet
  facet normal 0 1 -0
    outer loop
      vertex -1.23607 2.5 0.904225
      vertex -5 2.5 2.5
      vertex -0.994759 2.5 0.974332
    endloop
  endfacet
  facet normal 0 1 -0
    outer loop
      vertex -1.4725 2.5 0.819105
      vertex -5 2.5 2.5
      vertex -1.23607 2.5 0.904225
    endloop
  endfacet
  facet normal 0 1 -0
    outer loop
      vertex -1.70312 2.5 0.719308
      vertex -5 2.5 2.5
      vertex -1.4725 2.5 0.819105
    endloop
  endfacet
  facet normal 0 1 -0
    outer loop
      vertex -1.92701 2.5 0.605227
      vertex -5 2.5 2.5
      vertex -1.70312 2.5 0.719308
    endloop
  endfacet
  facet normal 0 1 -0
    outer loop
      vertex -2.14331 2.5 0.477311
      vertex -5 2.5 2.5
      vertex -1.92701 2.5 0.605227
    endloop
  endfacet
  facet normal 0 1 -0
    outer loop
      vertex -2.35114 2.5 0.336067
      vertex -5 2.5 2.5
      vertex -2.14331 2.5 0.477311
    endloop
  endfacet
  facet normal 0 1 -0
    outer loop
      vertex -2.5497 2.5 0.182053
      vertex -5 2.5 2.5
      vertex -2.35114 2.5 0.336067
    endloop
  endfacet
  facet normal 0 1 -0
    outer loop
      vertex -2.73819 2.5 0.0158739
      vertex -5 2.5 2.5
      vertex -2.5497 2.5 0.182053
    endloop
  endfacet
  facet normal 0 1 -0
    outer loop
      vertex -2.91587 2.5 -0.161811
      vertex -5 2.5 2.5
      vertex -2.73819 2.5 0.0158739
    endloop
  endfacet
  facet normal 0 1 -0
    outer loop
      vertex -3.08205 2.5 -0.350304
      vertex -5 2.5 2.5
      vertex -2.91587 2.5 -0.161811
    endloop
  endfacet
  facet normal 0 1 -0
    outer loop
      vertex -3.23607 2.5 -0.548859
      vertex -5 2.5 2.5
      vertex -3.08205 2.5 -0.350304
    endloop
  endfacet
  facet normal 0 1 -0
    outer loop
      vertex -3.37731 2.5 -0.756692
      vertex -5 2.5 2.5
      vertex -3.23607 2.5 -0.548859
    endloop
  endfacet
  facet normal 0 1 -0
    outer loop
      vertex -3.50523 2.5 -0.972985
      vertex -5 2.5 2.5
      vertex -3.37731 2.5 -0.756692
    endloop
  endfacet
  facet normal 0 1 -0
    outer loop
      vertex -3.61931 2.5 -1.19688
      vertex -5 2.5 2.5
      vertex -3.50523 2.5 -0.972985
    endloop
  endfacet
  facet normal 0 1 0
    outer loop
      vertex -5 2.5 -2.5
      vertex -3.61931 2.5 -1.19688
      vertex -3.71911 2.5 -1.4275
    endloop
  endfacet
  facet normal 0 1 0
    outer loop
      vertex -5 2.5 -2.5
      vertex -3.71911 2.5 -1.4275
      vertex -3.80423 2.5 -1.66393
    endloop
  endfacet
  facet normal 0 1 0
    outer loop
      vertex -5 2.5 -2.5
      vertex -3.80423 2.5 -1.66393
      vertex -3.87433 2.5 -1.90524
    endloop
  endfacet
  facet normal 0 1 0
    outer loop
      vertex -5 2.5 -2.5
      vertex -3.87433 2.5 -1.90524
      vertex -3.92915 2.5 -2.15047
    endloop
  endfacet
  facet normal 0 1 0
    outer loop
      vertex -5 2.5 -2.5
      vertex -3.92915 2.5 -2.15047
      vertex -3.96846 2.5 -2.39867
    endloop
  endfacet
  facet normal 0 1 0
    outer loop
      vertex -5 2.5 -2.5
      vertex -3.96846 2.5 -2.39867
      vertex -3.97804 2.5 -2.5
    endloop
  endfacet
  facet normal 0 1 0
    outer loop
      vertex -3.61931 2.5 -1.19688
      vertex -5 2.5 -2.5
      vertex -5 2.5 2.5
    endloop
  endfacet
  facet normal -0.995561 0 -0.0941229
    outer loop
      vertex 3.97804 -2.5 -2.5
      vertex 3.96846 2.5 -2.39867
      vertex 3.97804 2.5 -2.5
    endloop
  endfacet
  facet normal -0.995561 -0 -0.0941229
    outer loop
      vertex 3.96846 2.5 -2.39867
      vertex 3.97804 -2.5 -2.5
      vertex 3.96846 -2.5 -2.39867
    endloop
  endfacet
  facet normal 0.0313985 0 -0.999507
    outer loop
      vertex -0.251162 -2.5 1.09211
      vertex 0 2.5 1.1
      vertex 0 -2.5 1.1
    endloop
  endfacet
  facet normal 0.0313985 0 -0.999507
    outer loop
      vertex 0 2.5 1.1
      vertex -0.251162 -2.5 1.09211
      vertex -0.251162 2.5 1.09211
    endloop
  endfacet
  facet normal -0.707117 0 -0.707097
    outer loop
      vertex 2.73819 -2.5 0.0158739
      vertex 2.91587 2.5 -0.161811
      vertex 2.91587 -2.5 -0.161811
    endloop
  endfacet
  facet normal -0.707117 0 -0.707097
    outer loop
      vertex 2.91587 2.5 -0.161811
      vertex 2.73819 -2.5 0.0158739
      vertex 2.73819 2.5 0.0158739
    endloop
  endfacet
  facet normal 0.707117 0 -0.707097
    outer loop
      vertex -2.91587 -2.5 -0.161811
      vertex -2.73819 2.5 0.0158739
      vertex -2.73819 -2.5 0.0158739
    endloop
  endfacet
  facet normal 0.707117 0 -0.707097
    outer loop
      vertex -2.73819 2.5 0.0158739
      vertex -2.91587 -2.5 -0.161811
      vertex -2.91587 2.5 -0.161811
    endloop
  endfacet
  facet normal -0.917752 0 -0.397154
    outer loop
      vertex 3.71911 -2.5 -1.4275
      vertex 3.61931 2.5 -1.19688
      vertex 3.71911 2.5 -1.4275
    endloop
  endfacet
  facet normal -0.917752 -0 -0.397154
    outer loop
      vertex 3.61931 2.5 -1.19688
      vertex 3.71911 -2.5 -1.4275
      vertex 3.61931 -2.5 -1.19688
    endloop
  endfacet
  facet normal 0.827086 0 -0.562075
    outer loop
      vertex -3.23607 -2.5 -0.548859
      vertex -3.37731 2.5 -0.756692
      vertex -3.23607 2.5 -0.548859
    endloop
  endfacet
  facet normal 0.827086 0 -0.562075
    outer loop
      vertex -3.37731 2.5 -0.756692
      vertex -3.23607 -2.5 -0.548859
      vertex -3.37731 -2.5 -0.756692
    endloop
  endfacet
  facet normal -0.975913 0 -0.218161
    outer loop
      vertex 3.92915 -2.5 -2.15047
      vertex 3.87433 2.5 -1.90524
      vertex 3.92915 2.5 -2.15047
    endloop
  endfacet
  facet normal -0.975913 -0 -0.218161
    outer loop
      vertex 3.87433 2.5 -1.90524
      vertex 3.92915 -2.5 -2.15047
      vertex 3.87433 -2.5 -1.90524
    endloop
  endfacet
  facet normal -0.827086 0 -0.562075
    outer loop
      vertex 3.37731 -2.5 -0.756692
      vertex 3.23607 2.5 -0.548859
      vertex 3.37731 2.5 -0.756692
    endloop
  endfacet
  facet normal -0.827086 -0 -0.562075
    outer loop
      vertex 3.23607 2.5 -0.548859
      vertex 3.37731 -2.5 -0.756692
      vertex 3.23607 -2.5 -0.548859
    endloop
  endfacet
  facet normal -0.750109 0 -0.661314
    outer loop
      vertex 3.08205 -2.5 -0.350304
      vertex 2.91587 2.5 -0.161811
      vertex 3.08205 2.5 -0.350304
    endloop
  endfacet
  facet normal -0.750109 -0 -0.661314
    outer loop
      vertex 2.91587 2.5 -0.161811
      vertex 3.08205 -2.5 -0.350304
      vertex 2.91587 -2.5 -0.161811
    endloop
  endfacet
  facet normal -0.156435 0 -0.987688
    outer loop
      vertex 0.501332 -2.5 1.06846
      vertex 0.749525 2.5 1.02915
      vertex 0.749525 -2.5 1.02915
    endloop
  endfacet
  facet normal -0.156435 0 -0.987688
    outer loop
      vertex 0.749525 2.5 1.02915
      vertex 0.501332 -2.5 1.06846
      vertex 0.501332 2.5 1.06846
    endloop
  endfacet
  facet normal 0.975913 0 -0.218161
    outer loop
      vertex -3.87433 -2.5 -1.90524
      vertex -3.92915 2.5 -2.15047
      vertex -3.87433 2.5 -1.90524
    endloop
  endfacet
  facet normal 0.975913 0 -0.218161
    outer loop
      vertex -3.92915 2.5 -2.15047
      vertex -3.87433 -2.5 -1.90524
      vertex -3.92915 -2.5 -2.15047
    endloop
  endfacet
  facet normal 0.917752 0 -0.397154
    outer loop
      vertex -3.61931 -2.5 -1.19688
      vertex -3.71911 2.5 -1.4275
      vertex -3.61931 2.5 -1.19688
    endloop
  endfacet
  facet normal 0.917752 0 -0.397154
    outer loop
      vertex -3.71911 2.5 -1.4275
      vertex -3.61931 -2.5 -1.19688
      vertex -3.71911 -2.5 -1.4275
    endloop
  endfacet
  facet normal 0.860734 0 -0.509055
    outer loop
      vertex -3.37731 -2.5 -0.756692
      vertex -3.50523 2.5 -0.972985
      vertex -3.37731 2.5 -0.756692
    endloop
  endfacet
  facet normal 0.860734 0 -0.509055
    outer loop
      vertex -3.50523 2.5 -0.972985
      vertex -3.37731 -2.5 -0.756692
      vertex -3.50523 -2.5 -0.972985
    endloop
  endfacet
  facet normal 0.987689 0 -0.156431
    outer loop
      vertex -3.92915 -2.5 -2.15047
      vertex -3.96846 2.5 -2.39867
      vertex -3.92915 2.5 -2.15047
    endloop
  endfacet
  facet normal 0.987689 0 -0.156431
    outer loop
      vertex -3.96846 2.5 -2.39867
      vertex -3.92915 -2.5 -2.15047
      vertex -3.96846 -2.5 -2.39867
    endloop
  endfacet
  facet normal 0.562091 0 -0.827075
    outer loop
      vertex -2.35114 -2.5 0.336067
      vertex -2.14331 2.5 0.477311
      vertex -2.14331 -2.5 0.477311
    endloop
  endfacet
  facet normal 0.562091 0 -0.827075
    outer loop
      vertex -2.14331 2.5 0.477311
      vertex -2.35114 -2.5 0.336067
      vertex -2.35114 2.5 0.336067
    endloop
  endfacet
  facet normal 0.0941161 0 -0.995561
    outer loop
      vertex -0.501332 -2.5 1.06846
      vertex -0.251162 2.5 1.09211
      vertex -0.251162 -2.5 1.09211
    endloop
  endfacet
  facet normal 0.0941161 0 -0.995561
    outer loop
      vertex -0.251162 2.5 1.09211
      vertex -0.501332 -2.5 1.06846
      vertex -0.501332 2.5 1.06846
    endloop
  endfacet
  facet normal -0.987689 0 -0.156431
    outer loop
      vertex 3.96846 -2.5 -2.39867
      vertex 3.92915 2.5 -2.15047
      vertex 3.96846 2.5 -2.39867
    endloop
  endfacet
  facet normal -0.987689 -0 -0.156431
    outer loop
      vertex 3.92915 2.5 -2.15047
      vertex 3.96846 -2.5 -2.39867
      vertex 3.92915 -2.5 -2.15047
    endloop
  endfacet
  facet normal -0.940881 0 -0.338738
    outer loop
      vertex 3.80423 -2.5 -1.66393
      vertex 3.71911 2.5 -1.4275
      vertex 3.80423 2.5 -1.66393
    endloop
  endfacet
  facet normal -0.940881 -0 -0.338738
    outer loop
      vertex 3.71911 2.5 -1.4275
      vertex 3.80423 -2.5 -1.66393
      vertex 3.71911 -2.5 -1.4275
    endloop
  endfacet
  facet normal -0.960301 0 -0.278965
    outer loop
      vertex 3.87433 -2.5 -1.90524
      vertex 3.80423 2.5 -1.66393
      vertex 3.87433 2.5 -1.90524
    endloop
  endfacet
  facet normal -0.960301 -0 -0.278965
    outer loop
      vertex 3.80423 2.5 -1.66393
      vertex 3.87433 -2.5 -1.90524
      vertex 3.80423 -2.5 -1.66393
    endloop
  endfacet
  facet normal -0.790145 0 -0.612919
    outer loop
      vertex 3.23607 -2.5 -0.548859
      vertex 3.08205 2.5 -0.350304
      vertex 3.23607 2.5 -0.548859
    endloop
  endfacet
  facet normal -0.790145 -0 -0.612919
    outer loop
      vertex 3.08205 2.5 -0.350304
      vertex 3.23607 -2.5 -0.548859
      vertex 3.08205 -2.5 -0.350304
    endloop
  endfacet
  facet normal -0.0941161 0 -0.995561
    outer loop
      vertex 0.251162 -2.5 1.09211
      vertex 0.501332 2.5 1.06846
      vertex 0.501332 -2.5 1.06846
    endloop
  endfacet
  facet normal -0.0941161 0 -0.995561
    outer loop
      vertex 0.501332 2.5 1.06846
      vertex 0.251162 -2.5 1.09211
      vertex 0.251162 2.5 1.09211
    endloop
  endfacet
  facet normal -0.27899 0 -0.960294
    outer loop
      vertex 0.994759 -2.5 0.974332
      vertex 1.23607 2.5 0.904225
      vertex 1.23607 -2.5 0.904225
    endloop
  endfacet
  facet normal -0.27899 0 -0.960294
    outer loop
      vertex 1.23607 2.5 0.904225
      vertex 0.994759 -2.5 0.974332
      vertex 0.994759 2.5 0.974332
    endloop
  endfacet
  facet normal -0.338738 0 -0.940881
    outer loop
      vertex 1.23607 -2.5 0.904225
      vertex 1.4725 2.5 0.819105
      vertex 1.4725 -2.5 0.819105
    endloop
  endfacet
  facet normal -0.338738 0 -0.940881
    outer loop
      vertex 1.4725 2.5 0.819105
      vertex 1.23607 -2.5 0.904225
      vertex 1.23607 2.5 0.904225
    endloop
  endfacet
  facet normal -0.454001 0 -0.891001
    outer loop
      vertex 1.70312 -2.5 0.719308
      vertex 1.92701 2.5 0.605227
      vertex 1.92701 -2.5 0.605227
    endloop
  endfacet
  facet normal -0.454001 0 -0.891001
    outer loop
      vertex 1.92701 2.5 0.605227
      vertex 1.70312 -2.5 0.719308
      vertex 1.70312 2.5 0.719308
    endloop
  endfacet
  facet normal 0.790145 0 -0.612919
    outer loop
      vertex -3.08205 -2.5 -0.350304
      vertex -3.23607 2.5 -0.548859
      vertex -3.08205 2.5 -0.350304
    endloop
  endfacet
  facet normal 0.790145 0 -0.612919
    outer loop
      vertex -3.23607 2.5 -0.548859
      vertex -3.08205 -2.5 -0.350304
      vertex -3.23607 -2.5 -0.548859
    endloop
  endfacet
  facet normal 0.891007 0 -0.45399
    outer loop
      vertex -3.50523 -2.5 -0.972985
      vertex -3.61931 2.5 -1.19688
      vertex -3.50523 2.5 -0.972985
    endloop
  endfacet
  facet normal 0.891007 0 -0.45399
    outer loop
      vertex -3.61931 2.5 -1.19688
      vertex -3.50523 -2.5 -0.972985
      vertex -3.61931 -2.5 -1.19688
    endloop
  endfacet
  facet normal 0.960301 0 -0.278965
    outer loop
      vertex -3.80423 -2.5 -1.66393
      vertex -3.87433 2.5 -1.90524
      vertex -3.80423 2.5 -1.66393
    endloop
  endfacet
  facet normal 0.960301 0 -0.278965
    outer loop
      vertex -3.87433 2.5 -1.90524
      vertex -3.80423 -2.5 -1.66393
      vertex -3.87433 -2.5 -1.90524
    endloop
  endfacet
  facet normal 0.995561 0 -0.0941229
    outer loop
      vertex -3.96846 -2.5 -2.39867
      vertex -3.97804 2.5 -2.5
      vertex -3.96846 2.5 -2.39867
    endloop
  endfacet
  facet normal 0.995561 0 -0.0941229
    outer loop
      vertex -3.97804 2.5 -2.5
      vertex -3.96846 -2.5 -2.39867
      vertex -3.97804 -2.5 -2.5
    endloop
  endfacet
  facet normal 0.612895 0 -0.790165
    outer loop
      vertex -2.5497 -2.5 0.182053
      vertex -2.35114 2.5 0.336067
      vertex -2.35114 -2.5 0.336067
    endloop
  endfacet
  facet normal 0.612895 0 -0.790165
    outer loop
      vertex -2.35114 2.5 0.336067
      vertex -2.5497 -2.5 0.182053
      vertex -2.5497 2.5 0.182053
    endloop
  endfacet
  facet normal 0.454001 0 -0.891001
    outer loop
      vertex -1.92701 -2.5 0.605227
      vertex -1.70312 2.5 0.719308
      vertex -1.70312 -2.5 0.719308
    endloop
  endfacet
  facet normal 0.454001 0 -0.891001
    outer loop
      vertex -1.70312 2.5 0.719308
      vertex -1.92701 -2.5 0.605227
      vertex -1.92701 2.5 0.605227
    endloop
  endfacet
  facet normal 0.397144 0 -0.917756
    outer loop
      vertex -1.70312 -2.5 0.719308
      vertex -1.4725 2.5 0.819105
      vertex -1.4725 -2.5 0.819105
    endloop
  endfacet
  facet normal 0.397144 0 -0.917756
    outer loop
      vertex -1.4725 2.5 0.819105
      vertex -1.70312 -2.5 0.719308
      vertex -1.70312 2.5 0.719308
    endloop
  endfacet
  facet normal 0.27899 0 -0.960294
    outer loop
      vertex -1.23607 -2.5 0.904225
      vertex -0.994759 2.5 0.974332
      vertex -0.994759 -2.5 0.974332
    endloop
  endfacet
  facet normal 0.27899 0 -0.960294
    outer loop
      vertex -0.994759 2.5 0.974332
      vertex -1.23607 -2.5 0.904225
      vertex -1.23607 2.5 0.904225
    endloop
  endfacet
  facet normal 0.21815 0 -0.975915
    outer loop
      vertex -0.994759 -2.5 0.974332
      vertex -0.749525 2.5 1.02915
      vertex -0.749525 -2.5 1.02915
    endloop
  endfacet
  facet normal 0.21815 0 -0.975915
    outer loop
      vertex -0.749525 2.5 1.02915
      vertex -0.994759 -2.5 0.974332
      vertex -0.994759 2.5 0.974332
    endloop
  endfacet
  facet normal -0.891007 0 -0.45399
    outer loop
      vertex 3.61931 -2.5 -1.19688
      vertex 3.50523 2.5 -0.972985
      vertex 3.61931 2.5 -1.19688
    endloop
  endfacet
  facet normal -0.891007 -0 -0.45399
    outer loop
      vertex 3.50523 2.5 -0.972985
      vertex 3.61931 -2.5 -1.19688
      vertex 3.50523 -2.5 -0.972985
    endloop
  endfacet
  facet normal -0.860734 0 -0.509055
    outer loop
      vertex 3.50523 -2.5 -0.972985
      vertex 3.37731 2.5 -0.756692
      vertex 3.50523 2.5 -0.972985
    endloop
  endfacet
  facet normal -0.860734 -0 -0.509055
    outer loop
      vertex 3.37731 2.5 -0.756692
      vertex 3.50523 -2.5 -0.972985
      vertex 3.37731 -2.5 -0.756692
    endloop
  endfacet
  facet normal -0.21815 0 -0.975915
    outer loop
      vertex 0.749525 -2.5 1.02915
      vertex 0.994759 2.5 0.974332
      vertex 0.994759 -2.5 0.974332
    endloop
  endfacet
  facet normal -0.21815 0 -0.975915
    outer loop
      vertex 0.994759 2.5 0.974332
      vertex 0.749525 -2.5 1.02915
      vertex 0.749525 2.5 1.02915
    endloop
  endfacet
  facet normal -0.0313985 0 -0.999507
    outer loop
      vertex 0 -2.5 1.1
      vertex 0.251162 2.5 1.09211
      vertex 0.251162 -2.5 1.09211
    endloop
  endfacet
  facet normal -0.0313985 0 -0.999507
    outer loop
      vertex 0.251162 2.5 1.09211
      vertex 0 -2.5 1.1
      vertex 0 2.5 1.1
    endloop
  endfacet
  facet normal -0.397144 0 -0.917756
    outer loop
      vertex 1.4725 -2.5 0.819105
      vertex 1.70312 2.5 0.719308
      vertex 1.70312 -2.5 0.719308
    endloop
  endfacet
  facet normal -0.397144 0 -0.917756
    outer loop
      vertex 1.70312 2.5 0.719308
      vertex 1.4725 -2.5 0.819105
      vertex 1.4725 2.5 0.819105
    endloop
  endfacet
  facet normal -0.562091 0 -0.827075
    outer loop
      vertex 2.14331 -2.5 0.477311
      vertex 2.35114 2.5 0.336067
      vertex 2.35114 -2.5 0.336067
    endloop
  endfacet
  facet normal -0.562091 0 -0.827075
    outer loop
      vertex 2.35114 2.5 0.336067
      vertex 2.14331 -2.5 0.477311
      vertex 2.14331 2.5 0.477311
    endloop
  endfacet
  facet normal -0.509031 0 -0.860748
    outer loop
      vertex 1.92701 -2.5 0.605227
      vertex 2.14331 2.5 0.477311
      vertex 2.14331 -2.5 0.477311
    endloop
  endfacet
  facet normal -0.509031 0 -0.860748
    outer loop
      vertex 2.14331 2.5 0.477311
      vertex 1.92701 -2.5 0.605227
      vertex 1.92701 2.5 0.605227
    endloop
  endfacet
  facet normal -0.661318 0 -0.750106
    outer loop
      vertex 2.5497 -2.5 0.182053
      vertex 2.73819 2.5 0.0158739
      vertex 2.73819 -2.5 0.0158739
    endloop
  endfacet
  facet normal -0.661318 0 -0.750106
    outer loop
      vertex 2.73819 2.5 0.0158739
      vertex 2.5497 -2.5 0.182053
      vertex 2.5497 2.5 0.182053
    endloop
  endfacet
  facet normal -0.612895 0 -0.790165
    outer loop
      vertex 2.35114 -2.5 0.336067
      vertex 2.5497 2.5 0.182053
      vertex 2.5497 -2.5 0.182053
    endloop
  endfacet
  facet normal -0.612895 0 -0.790165
    outer loop
      vertex 2.5497 2.5 0.182053
      vertex 2.35114 -2.5 0.336067
      vertex 2.35114 2.5 0.336067
    endloop
  endfacet
  facet normal 0.750109 0 -0.661314
    outer loop
      vertex -2.91587 -2.5 -0.161811
      vertex -3.08205 2.5 -0.350304
      vertex -2.91587 2.5 -0.161811
    endloop
  endfacet
  facet normal 0.750109 0 -0.661314
    outer loop
      vertex -3.08205 2.5 -0.350304
      vertex -2.91587 -2.5 -0.161811
      vertex -3.08205 -2.5 -0.350304
    endloop
  endfacet
  facet normal 0.940881 0 -0.338738
    outer loop
      vertex -3.71911 -2.5 -1.4275
      vertex -3.80423 2.5 -1.66393
      vertex -3.71911 2.5 -1.4275
    endloop
  endfacet
  facet normal 0.940881 0 -0.338738
    outer loop
      vertex -3.80423 2.5 -1.66393
      vertex -3.71911 -2.5 -1.4275
      vertex -3.80423 -2.5 -1.66393
    endloop
  endfacet
  facet normal 0.661318 0 -0.750106
    outer loop
      vertex -2.73819 -2.5 0.0158739
      vertex -2.5497 2.5 0.182053
      vertex -2.5497 -2.5 0.182053
    endloop
  endfacet
  facet normal 0.661318 0 -0.750106
    outer loop
      vertex -2.5497 2.5 0.182053
      vertex -2.73819 -2.5 0.0158739
      vertex -2.73819 2.5 0.0158739
    endloop
  endfacet
  facet normal 0.509031 0 -0.860748
    outer loop
      vertex -2.14331 -2.5 0.477311
      vertex -1.92701 2.5 0.605227
      vertex -1.92701 -2.5 0.605227
    endloop
  endfacet
  facet normal 0.509031 0 -0.860748
    outer loop
      vertex -1.92701 2.5 0.605227
      vertex -2.14331 -2.5 0.477311
      vertex -2.14331 2.5 0.477311
    endloop
  endfacet
  facet normal 0.338738 0 -0.940881
    outer loop
      vertex -1.4725 -2.5 0.819105
      vertex -1.23607 2.5 0.904225
      vertex -1.23607 -2.5 0.904225
    endloop
  endfacet
  facet normal 0.338738 0 -0.940881
    outer loop
      vertex -1.23607 2.5 0.904225
      vertex -1.4725 -2.5 0.819105
      vertex -1.4725 2.5 0.819105
    endloop
  endfacet
  facet normal 0.156435 0 -0.987688
    outer loop
      vertex -0.749525 -2.5 1.02915
      vertex -0.501332 2.5 1.06846
      vertex -0.501332 -2.5 1.06846
    endloop
  endfacet
  facet normal 0.156435 0 -0.987688
    outer loop
      vertex -0.501332 2.5 1.06846
      vertex -0.749525 -2.5 1.02915
      vertex -0.749525 2.5 1.02915
    endloop
  endfacet
endsolid OpenSCAD_Model
