solid OpenSCAD_Model
  facet normal -1 0 0
    outer loop
      vertex -5 -2.5 -2.5
      vertex -5 2.5 2.5
      vertex -5 2.5 -2.5
    endloop
  endfacet
  facet normal -1 -0 0
    outer loop
      vertex -5 2.5 2.5
      vertex -5 -2.5 -2.5
      vertex -5 -2.5 2.5
    endloop
  endfacet
  facet normal -0 0 1
    outer loop
      vertex -5 2.5 2.5
      vertex 5 -2.5 2.5
      vertex 5 2.5 2.5
    endloop
  endfacet
  facet normal 0 0 1
    outer loop
      vertex 5 -2.5 2.5
      vertex -5 2.5 2.5
      vertex -5 -2.5 2.5
    endloop
  endfacet
  facet normal 1 -0 0
    outer loop
      vertex 5 -2.5 2.5
      vertex 5 2.5 -2.5
      vertex 5 2.5 2.5
    endloop
  endfacet
  facet normal 1 0 0
    outer loop
      vertex 5 2.5 -2.5
      vertex 5 -2.5 2.5
      vertex 5 -2.5 -2.5
    endloop
  endfacet
  facet normal 0 1 0
    outer loop
      vertex 5 2.5 2.5
      vertex 0 2.5 1.1
      vertex -5 2.5 2.5
    endloop
  endfacet
  facet normal 0 1 0
    outer loop
      vertex 5 2.5 2.5
      vertex 0.238604 2.5 1.0925
      vertex 0 2.5 1.1
    endloop
  endfacet
  facet normal 0 1 0
    outer loop
      vertex 5 2.5 2.5
      vertex 0.476266 2.5 1.07003
      vertex 0.238604 2.5 1.0925
    endloop
  endfacet
  facet normal 0 1 0
    outer loop
      vertex 5 2.5 2.5
      vertex 0.712049 2.5 1.03269
      vertex 0.476266 2.5 1.07003
    endloop
  endfacet
  facet normal 0 1 0
    outer loop
      vertex 5 2.5 2.5
      vertex 0.945021 2.5 0.980616
      vertex 0.712049 2.5 1.03269
    endloop
  endfacet
  facet normal 0 1 0
    outer loop
      vertex 5 2.5 2.5
      vertex 1.17426 2.5 0.914014
      vertex 0.945021 2.5 0.980616
    endloop
  endfacet
  facet normal 0 1 0
    outer loop
      vertex 5 2.5 2.5
      vertex 1.39887 2.5 0.83315
      vertex 1.17426 2.5 0.914014
    endloop
  endfacet
  facet normal 0 1 0
    outer loop
      vertex 5 2.5 2.5
      vertex 1.61796 2.5 0.738342
      vertex 1.39887 2.5 0.83315
    endloop
  endfacet
  facet normal 0 1 0
    outer loop
      vertex 5 2.5 2.5
      vertex 1.83066 2.5 0.629965
      vertex 1.61796 2.5 0.738342
    endloop
  endfacet
  facet normal 0 1 0
    outer loop
      vertex 5 2.5 2.5
      vertex 2.03614 2.5 0.508446
      vertex 1.83066 2.5 0.629965
    endloop
  endfacet
  facet normal 0 1 0
    outer loop
      vertex 5 2.5 2.5
      vertex 2.23358 2.5 0.374264
      vertex 2.03614 2.5 0.508446
    endloop
  endfacet
  facet normal 0 1 0
    outer loop
      vertex 5 2.5 2.5
      vertex 2.42221 2.5 0.22795
      vertex 2.23358 2.5 0.374264
    endloop
  endfacet
  facet normal 0 1 0
    outer loop
      vertex 5 2.5 2.5
      vertex 2.60128 2.5 0.0700808
      vertex 2.42221 2.5 0.22795
    endloop
  endfacet
  facet normal 0 1 0
    outer loop
      vertex 5 2.5 2.5
      vertex 2.77008 2.5 -0.0987206
      vertex 2.60128 2.5 0.0700808
    endloop
  endfacet
  facet normal 0 1 0
    outer loop
      vertex 5 2.5 2.5
      vertex 2.92795 2.5 -0.277788
      vertex 2.77008 2.5 -0.0987206
    endloop
  endfacet
  facet normal 0 1 0
    outer loop
      vertex 5 2.5 2.5
      vertex 3.07426 2.5 -0.466415
      vertex 2.92795 2.5 -0.277788
    endloop
  endfacet
  facet normal 0 1 0
    outer loop
      vertex 5 2.5 2.5
      vertex 3.20845 2.5 -0.663857
      vertex 3.07426 2.5 -0.466415
    endloop
  endfacet
  facet normal 0 1 0
    outer loop
      vertex 5 2.5 2.5
      vertex 3.32996 2.5 -0.869335
      vertex 3.20845 2.5 -0.663857
    endloop
  endfacet
  facet normal 0 1 0
    outer loop
      vertex 5 2.5 2.5
      vertex 3.43834 2.5 -1.08204
      vertex 3.32996 2.5 -0.869335
    endloop
  endfacet
  facet normal 0 1 -0
    outer loop
      vertex 5 2.5 -2.5
      vertex 3.43834 2.5 -1.08204
      vertex 5 2.5 2.5
    endloop
  endfacet
  facet normal 0 1 0
    outer loop
      vertex 3.43834 2.5 -1.08204
      vertex 5 2.5 -2.5
      vertex 3.53315 2.5 -1.30113
    endloop
  endfacet
  facet normal 0 1 0
    outer loop
      vertex 3.53315 2.5 -1.30113
      vertex 5 2.5 -2.5
      vertex 3.61401 2.5 -1.52573
    endloop
  endfacet
  facet normal 0 1 0
    outer loop
      vertex 3.61401 2.5 -1.52573
      vertex 5 2.5 -2.5
      vertex 3.68062 2.5 -1.75498
    endloop
  endfacet
  facet normal 0 1 0
    outer loop
      vertex 3.68062 2.5 -1.75498
      vertex 5 2.5 -2.5
      vertex 3.73269 2.5 -1.98795
    endloop
  endfacet
  facet normal 0 1 0
    outer loop
      vertex 3.73269 2.5 -1.98795
      vertex 5 2.5 -2.5
      vertex 3.77004 2.5 -2.22373
    endloop
  endfacet
  facet normal 0 1 0
    outer loop
      vertex 3.77004 2.5 -2.22373
      vertex 5 2.5 -2.5
      vertex 3.7925 2.5 -2.4614
    endloop
  endfacet
  facet normal 0 1 0
    outer loop
      vertex 3.7925 2.5 -2.4614
      vertex 5 2.5 -2.5
      vertex 3.79371 2.5 -2.5
    endloop
  endfacet
  facet normal 0 1 -0
    outer loop
      vertex -0.238604 2.5 1.0925
      vertex -5 2.5 2.5
      vertex 0 2.5 1.1
    endloop
  endfacet
  facet normal 0 1 -0
    outer loop
      vertex -0.476266 2.5 1.07003
      vertex -5 2.5 2.5
      vertex -0.238604 2.5 1.0925
    endloop
  endfacet
  facet normal 0 1 -0
    outer loop
      vertex -0.712049 2.5 1.03269
      vertex -5 2.5 2.5
      vertex -0.476266 2.5 1.07003
    endloop
  endfacet
  facet normal 0 1 -0
    outer loop
      vertex -0.945021 2.5 0.980616
      vertex -5 2.5 2.5
      vertex -0.712049 2.5 1.03269
    endloop
  endfacet
  facet normal 0 1 -0
    outer loop
      vertex -1.17426 2.5 0.914014
      vertex -5 2.5 2.5
      vertex -0.945021 2.5 0.980616
    endloop
  endfacet
  facet normal 0 1 -0
    outer loop
      vertex -1.39887 2.5 0.83315
      vertex -5 2.5 2.5
      vertex -1.17426 2.5 0.914014
    endloop
  endfacet
  facet normal 0 1 -0
    outer loop
      vertex -1.61796 2.5 0.738342
      vertex -5 2.5 2.5
      vertex -1.39887 2.5 0.83315
    endloop
  endfacet
  facet normal 0 1 -0
    outer loop
      vertex -1.83066 2.5 0.629965
      vertex -5 2.5 2.5
      vertex -1.61796 2.5 0.738342
    endloop
  endfacet
  facet normal 0 1 -0
    outer loop
      vertex -2.03614 2.5 0.508446
      vertex -5 2.5 2.5
      vertex -1.83066 2.5 0.629965
    endloop
  endfacet
  facet normal 0 1 -0
    outer loop
      vertex -2.23358 2.5 0.374264
      vertex -5 2.5 2.5
      vertex -2.03614 2.5 0.508446
    endloop
  endfacet
  facet normal 0 1 -0
    outer loop
      vertex -2.42221 2.5 0.22795
      vertex -5 2.5 2.5
      vertex -2.23358 2.5 0.374264
    endloop
  endfacet
  facet normal 0 1 -0
    outer loop
      vertex -2.60128 2.5 0.0700808
      vertex -5 2.5 2.5
      vertex -2.42221 2.5 0.22795
    endloop
  endfacet
  facet normal 0 1 -0
    outer loop
      vertex -2.77008 2.5 -0.0987206
      vertex -5 2.5 2.5
      vertex -2.60128 2.5 0.0700808
    endloop
  endfacet
  facet normal 0 1 -0
    outer loop
      vertex -2.92795 2.5 -0.277788
      vertex -5 2.5 2.5
      vertex -2.77008 2.5 -0.0987206
    endloop
  endfacet
  facet normal 0 1 -0
    outer loop
      vertex -3.07426 2.5 -0.466415
      vertex -5 2.5 2.5
      vertex -2.92795 2.5 -0.277788
    endloop
  endfacet
  facet normal 0 1 -0
    outer loop
      vertex -3.20845 2.5 -0.663857
      vertex -5 2.5 2.5
      vertex -3.07426 2.5 -0.466415
    endloop
  endfacet
  facet normal 0 1 -0
    outer loop
      vertex -3.32996 2.5 -0.869335
      vertex -5 2.5 2.5
      vertex -3.20845 2.5 -0.663857
    endloop
  endfacet
  facet normal 0 1 -0
    outer loop
      vertex -3.43834 2.5 -1.08204
      vertex -5 2.5 2.5
      vertex -3.32996 2.5 -0.869335
    endloop
  endfacet
  facet normal 0 1 0
    outer loop
      vertex -5 2.5 -2.5
      vertex -3.43834 2.5 -1.08204
      vertex -3.53315 2.5 -1.30113
    endloop
  endfacet
  facet normal 0 1 0
    outer loop
      vertex -5 2.5 -2.5
      vertex -3.53315 2.5 -1.30113
      vertex -3.61401 2.5 -1.52573
    endloop
  endfacet
  facet normal 0 1 0
    outer loop
      vertex -5 2.5 -2.5
      vertex -3.61401 2.5 -1.52573
      vertex -3.68062 2.5 -1.75498
    endloop
  endfacet
  facet normal 0 1 0
    outer loop
      vertex -5 2.5 -2.5
      vertex -3.68062 2.5 -1.75498
      vertex -3.73269 2.5 -1.98795
    endloop
  endfacet
  facet normal 0 1 0
    outer loop
      vertex -5 2.5 -2.5
      vertex -3.73269 2.5 -1.98795
      vertex -3.77004 2.5 -2.22373
    endloop
  endfacet
  facet normal 0 1 0
    outer loop
      vertex -5 2.5 -2.5
      vertex -3.77004 2.5 -2.22373
      vertex -3.7925 2.5 -2.4614
    endloop
  endfacet
  facet normal 0 1 0
    outer loop
      vertex -5 2.5 -2.5
      vertex -3.7925 2.5 -2.4614
      vertex -3.79371 2.5 -2.5
    endloop
  endfacet
  facet normal 0 1 0
    outer loop
      vertex -3.43834 2.5 -1.08204
      vertex -5 2.5 -2.5
      vertex -5 2.5 2.5
    endloop
  endfacet
  facet normal 0 0 -1
    outer loop
      vertex -5 -2.5 -2.5
      vertex -3.79371 2.5 -2.5
      vertex -3.79371 -2.5 -2.5
    endloop
  endfacet
  facet normal -0 0 -1
    outer loop
      vertex -3.79371 2.5 -2.5
      vertex -5 -2.5 -2.5
      vertex -5 2.5 -2.5
    endloop
  endfacet
  facet normal 0 0 -1
    outer loop
      vertex 3.79371 -2.5 -2.5
      vertex 5 2.5 -2.5
      vertex 5 -2.5 -2.5
    endloop
  endfacet
  facet normal -0 0 -1
    outer loop
      vertex 5 2.5 -2.5
      vertex 3.79371 -2.5 -2.5
      vertex 3.79371 2.5 -2.5
    endloop
  endfacet
  facet normal 0 -1 0
    outer loop
      vertex -5 -2.5 2.5
      vertex 0 -2.5 1.1
      vertex 5 -2.5 2.5
    endloop
  endfacet
  facet normal 0 -1 0
    outer loop
      vertex -5 -2.5 2.5
      vertex -0.238604 -2.5 1.0925
      vertex 0 -2.5 1.1
    endloop
  endfacet
  facet normal 0 -1 0
    outer loop
      vertex -5 -2.5 2.5
      vertex -0.476266 -2.5 1.07003
      vertex -0.238604 -2.5 1.0925
    endloop
  endfacet
  facet normal 0 -1 0
    outer loop
      vertex -5 -2.5 2.5
      vertex -0.712049 -2.5 1.03269
      vertex -0.476266 -2.5 1.07003
    endloop
  endfacet
  facet normal 0 -1 0
    outer loop
      vertex -5 -2.5 2.5
      vertex -0.945021 -2.5 0.980616
      vertex -0.712049 -2.5 1.03269
    endloop
  endfacet
  facet normal 0 -1 0
    outer loop
      vertex -5 -2.5 2.5
      vertex -1.17426 -2.5 0.914014
      vertex -0.945021 -2.5 0.980616
    endloop
  endfacet
  facet normal 0 -1 0
    outer loop
      vertex -5 -2.5 2.5
      vertex -1.39887 -2.5 0.83315
      vertex -1.17426 -2.5 0.914014
    endloop
  endfacet
  facet normal 0 -1 0
    outer loop
      vertex -5 -2.5 2.5
      vertex -1.61796 -2.5 0.738342
      vertex -1.39887 -2.5 0.83315
    endloop
  endfacet
  facet normal 0 -1 0
    outer loop
      vertex -5 -2.5 2.5
      vertex -1.83066 -2.5 0.629965
      vertex -1.61796 -2.5 0.738342
    endloop
  endfacet
  facet normal 0 -1 0
    outer loop
      vertex -5 -2.5 2.5
      vertex -2.03614 -2.5 0.508446
      vertex -1.83066 -2.5 0.629965
    endloop
  endfacet
  facet normal 0 -1 0
    outer loop
      vertex -5 -2.5 2.5
      vertex -2.23358 -2.5 0.374264
      vertex -2.03614 -2.5 0.508446
    endloop
  endfacet
  facet normal 0 -1 0
    outer loop
      vertex -5 -2.5 2.5
      vertex -2.42221 -2.5 0.22795
      vertex -2.23358 -2.5 0.374264
    endloop
  endfacet
  facet normal 0 -1 0
    outer loop
      vertex -5 -2.5 2.5
      vertex -2.60128 -2.5 0.0700808
      vertex -2.42221 -2.5 0.22795
    endloop
  endfacet
  facet normal 0 -1 0
    outer loop
      vertex -5 -2.5 2.5
      vertex -2.77008 -2.5 -0.0987206
      vertex -2.60128 -2.5 0.0700808
    endloop
  endfacet
  facet normal 0 -1 0
    outer loop
      vertex -5 -2.5 2.5
      vertex -2.92795 -2.5 -0.277788
      vertex -2.77008 -2.5 -0.0987206
    endloop
  endfacet
  facet normal 0 -1 0
    outer loop
      vertex -5 -2.5 2.5
      vertex -3.07426 -2.5 -0.466415
      vertex -2.92795 -2.5 -0.277788
    endloop
  endfacet
  facet normal 0 -1 0
    outer loop
      vertex -5 -2.5 2.5
      vertex -3.20845 -2.5 -0.663857
      vertex -3.07426 -2.5 -0.466415
    endloop
  endfacet
  facet normal 0 -1 0
    outer loop
      vertex -5 -2.5 2.5
      vertex -3.32996 -2.5 -0.869335
      vertex -3.20845 -2.5 -0.663857
    endloop
  endfacet
  facet normal 0 -1 0
    outer loop
      vertex -5 -2.5 2.5
      vertex -3.43834 -2.5 -1.08204
      vertex -3.32996 -2.5 -0.869335
    endloop
  endfacet
  facet normal 0 -1 0
    outer loop
      vertex -5 -2.5 -2.5
      vertex -3.43834 -2.5 -1.08204
      vertex -5 -2.5 2.5
    endloop
  endfacet
  facet normal 0 -1 0
    outer loop
      vertex -3.43834 -2.5 -1.08204
      vertex -5 -2.5 -2.5
      vertex -3.53315 -2.5 -1.30113
    endloop
  endfacet
  facet normal 0 -1 0
    outer loop
      vertex -3.53315 -2.5 -1.30113
      vertex -5 -2.5 -2.5
      vertex -3.61401 -2.5 -1.52573
    endloop
  endfacet
  facet normal 0 -1 0
    outer loop
      vertex -3.61401 -2.5 -1.52573
      vertex -5 -2.5 -2.5
      vertex -3.68062 -2.5 -1.75498
    endloop
  endfacet
  facet normal 0 -1 0
    outer loop
      vertex -3.68062 -2.5 -1.75498
      vertex -5 -2.5 -2.5
      vertex -3.73269 -2.5 -1.98795
    endloop
  endfacet
  facet normal 0 -1 0
    outer loop
      vertex -3.73269 -2.5 -1.98795
      vertex -5 -2.5 -2.5
      vertex -3.77004 -2.5 -2.22373
    endloop
  endfacet
  facet normal 0 -1 0
    outer loop
      vertex -3.77004 -2.5 -2.22373
      vertex -5 -2.5 -2.5
      vertex -3.7925 -2.5 -2.4614
    endloop
  endfacet
  facet normal 0 -1 0
    outer loop
      vertex -3.7925 -2.5 -2.4614
      vertex -5 -2.5 -2.5
      vertex -3.79371 -2.5 -2.5
    endloop
  endfacet
  facet normal 0 -1 0
    outer loop
      vertex 0.238604 -2.5 1.0925
      vertex 5 -2.5 2.5
      vertex 0 -2.5 1.1
    endloop
  endfacet
  facet normal 0 -1 0
    outer loop
      vertex 0.476266 -2.5 1.07003
      vertex 5 -2.5 2.5
      vertex 0.238604 -2.5 1.0925
    endloop
  endfacet
  facet normal 0 -1 0
    outer loop
      vertex 0.712049 -2.5 1.03269
      vertex 5 -2.5 2.5
      vertex 0.476266 -2.5 1.07003
    endloop
  endfacet
  facet normal 0 -1 0
    outer loop
      vertex 0.945021 -2.5 0.980616
      vertex 5 -2.5 2.5
      vertex 0.712049 -2.5 1.03269
    endloop
  endfacet
  facet normal 0 -1 0
    outer loop
      vertex 1.17426 -2.5 0.914014
      vertex 5 -2.5 2.5
      vertex 0.945021 -2.5 0.980616
    endloop
  endfacet
  facet normal 0 -1 0
    outer loop
      vertex 1.39887 -2.5 0.83315
      vertex 5 -2.5 2.5
      vertex 1.17426 -2.5 0.914014
    endloop
  endfacet
  facet normal 0 -1 0
    outer loop
      vertex 1.61796 -2.5 0.738342
      vertex 5 -2.5 2.5
      vertex 1.39887 -2.5 0.83315
    endloop
  endfacet
  facet normal 0 -1 0
    outer loop
      vertex 1.83066 -2.5 0.629965
      vertex 5 -2.5 2.5
      vertex 1.61796 -2.5 0.738342
    endloop
  endfacet
  facet normal 0 -1 0
    outer loop
      vertex 2.03614 -2.5 0.508446
      vertex 5 -2.5 2.5
      vertex 1.83066 -2.5 0.629965
    endloop
  endfacet
  facet normal 0 -1 0
    outer loop
      vertex 2.23358 -2.5 0.374264
      vertex 5 -2.5 2.5
      vertex 2.03614 -2.5 0.508446
    endloop
  endfacet
  facet normal 0 -1 0
    outer loop
      vertex 2.42221 -2.5 0.22795
      vertex 5 -2.5 2.5
      vertex 2.23358 -2.5 0.374264
    endloop
  endfacet
  facet normal 0 -1 0
    outer loop
      vertex 2.60128 -2.5 0.0700808
      vertex 5 -2.5 2.5
      vertex 2.42221 -2.5 0.22795
    endloop
  endfacet
  facet normal 0 -1 0
    outer loop
      vertex 2.77008 -2.5 -0.0987206
      vertex 5 -2.5 2.5
      vertex 2.60128 -2.5 0.0700808
    endloop
  endfacet
  facet normal 0 -1 0
    outer loop
      vertex 2.92795 -2.5 -0.277788
      vertex 5 -2.5 2.5
      vertex 2.77008 -2.5 -0.0987206
    endloop
  endfacet
  facet normal 0 -1 0
    outer loop
      vertex 3.07426 -2.5 -0.466415
      vertex 5 -2.5 2.5
      vertex 2.92795 -2.5 -0.277788
    endloop
  endfacet
  facet normal 0 -1 0
    outer loop
      vertex 3.20845 -2.5 -0.663857
      vertex 5 -2.5 2.5
      vertex 3.07426 -2.5 -0.466415
    endloop
  endfacet
  facet normal 0 -1 0
    outer loop
      vertex 3.32996 -2.5 -0.869335
      vertex 5 -2.5 2.5
      vertex 3.20845 -2.5 -0.663857
    endloop
  endfacet
  facet normal 0 -1 0
    outer loop
      vertex 3.43834 -2.5 -1.08204
      vertex 5 -2.5 2.5
      vertex 3.32996 -2.5 -0.869335
    endloop
  endfacet
  facet normal 0 -1 0
    outer loop
      vertex 5 -2.5 -2.5
      vertex 3.43834 -2.5 -1.08204
      vertex 3.53315 -2.5 -1.30113
    endloop
  endfacet
  facet normal 0 -1 0
    outer loop
      vertex 5 -2.5 -2.5
      vertex 3.53315 -2.5 -1.30113
      vertex 3.61401 -2.5 -1.52573
    endloop
  endfacet
  facet normal 0 -1 0
    outer loop
      vertex 5 -2.5 -2.5
      vertex 3.61401 -2.5 -1.52573
      vertex 3.68062 -2.5 -1.75498
    endloop
  endfacet
  facet normal 0 -1 0
    outer loop
      vertex 5 -2.5 -2.5
      vertex 3.68062 -2.5 -1.75498
      vertex 3.73269 -2.5 -1.98795
    endloop
  endfacet
  facet normal 0 -1 0
    outer loop
      vertex 5 -2.5 -2.5
      vertex 3.73269 -2.5 -1.98795
      vertex 3.77004 -2.5 -2.22373
    endloop
  endfacet
  facet normal 0 -1 0
    outer loop
      vertex 5 -2.5 -2.5
      vertex 3.77004 -2.5 -2.22373
      vertex 3.7925 -2.5 -2.4614
    endloop
  endfacet
  facet normal 0 -1 0
    outer loop
      vertex 5 -2.5 -2.5
      vertex 3.7925 -2.5 -2.4614
      vertex 3.79371 -2.5 -2.5
    endloop
  endfacet
  facet normal 0 -1 0
    outer loop
      vertex 3.43834 -2.5 -1.08204
      vertex 5 -2.5 -2.5
      vertex 5 -2.5 2.5
    endloop
  endfacet
  facet normal -0.999509 0 -0.0313318
    outer loop
      vertex 3.79371 -2.5 -2.5
      vertex 3.7925 2.5 -2.4614
      vertex 3.79371 2.5 -2.5
    endloop
  endfacet
  facet normal -0.999509 -0 -0.0313318
    outer loop
      vertex 3.7925 2.5 -2.4614
      vertex 3.79371 -2.5 -2.5
      vertex 3.7925 -2.5 -2.4614
    endloop
  endfacet
  facet normal -0.995564 0 -0.0940816
    outer loop
      vertex 3.7925 -2.5 -2.4614
      vertex 3.77004 2.5 -2.22373
      vertex 3.7925 2.5 -2.4614
    endloop
  endfacet
  facet normal -0.995564 -0 -0.0940816
    outer loop
      vertex 3.77004 2.5 -2.22373
      vertex 3.7925 -2.5 -2.4614
      vertex 3.77004 -2.5 -2.22373
    endloop
  endfacet
  facet normal 0.999509 0 -0.0313318
    outer loop
      vertex -3.7925 -2.5 -2.4614
      vertex -3.79371 2.5 -2.5
      vertex -3.7925 2.5 -2.4614
    endloop
  endfacet
  facet normal 0.999509 0 -0.0313318
    outer loop
      vertex -3.79371 2.5 -2.5
      vertex -3.7925 -2.5 -2.4614
      vertex -3.79371 -2.5 -2.5
    endloop
  endfacet
  facet normal -0.0314173 0 -0.999506
    outer loop
      vertex 0 -2.5 1.1
      vertex 0.238604 2.5 1.0925
      vertex 0.238604 -2.5 1.0925
    endloop
  endfacet
  facet normal -0.0314173 0 -0.999506
    outer loop
      vertex 0.238604 2.5 1.0925
      vertex 0 -2.5 1.1
      vertex 0 2.5 1.1
    endloop
  endfacet
  facet normal -0.70711 0 -0.707104
    outer loop
      vertex 2.60128 -2.5 0.0700808
      vertex 2.77008 2.5 -0.0987206
      vertex 2.77008 -2.5 -0.0987206
    endloop
  endfacet
  facet normal -0.70711 0 -0.707104
    outer loop
      vertex 2.77008 2.5 -0.0987206
      vertex 2.60128 -2.5 0.0700808
      vertex 2.60128 2.5 0.0700808
    endloop
  endfacet
  facet normal 0.70711 0 -0.707104
    outer loop
      vertex -2.77008 -2.5 -0.0987206
      vertex -2.60128 2.5 0.0700808
      vertex -2.60128 -2.5 0.0700808
    endloop
  endfacet
  facet normal 0.70711 0 -0.707104
    outer loop
      vertex -2.60128 2.5 0.0700808
      vertex -2.77008 -2.5 -0.0987206
      vertex -2.77008 2.5 -0.0987206
    endloop
  endfacet
  facet normal 0.397145 0 -0.917756
    outer loop
      vertex -1.61796 -2.5 0.738342
      vertex -1.39887 2.5 0.83315
      vertex -1.39887 -2.5 0.83315
    endloop
  endfacet
  facet normal 0.397145 0 -0.917756
    outer loop
      vertex -1.39887 2.5 0.83315
      vertex -1.61796 -2.5 0.738342
      vertex -1.61796 2.5 0.738342
    endloop
  endfacet
  facet normal -0.917753 0 -0.397152
    outer loop
      vertex 3.53315 -2.5 -1.30113
      vertex 3.43834 2.5 -1.08204
      vertex 3.53315 2.5 -1.30113
    endloop
  endfacet
  facet normal -0.917753 -0 -0.397152
    outer loop
      vertex 3.43834 2.5 -1.08204
      vertex 3.53315 -2.5 -1.30113
      vertex 3.43834 -2.5 -1.08204
    endloop
  endfacet
  facet normal -0.397145 0 -0.917756
    outer loop
      vertex 1.39887 -2.5 0.83315
      vertex 1.61796 2.5 0.738342
      vertex 1.61796 -2.5 0.738342
    endloop
  endfacet
  facet normal -0.397145 0 -0.917756
    outer loop
      vertex 1.61796 2.5 0.738342
      vertex 1.39887 -2.5 0.83315
      vertex 1.39887 2.5 0.83315
    endloop
  endfacet
  facet normal 0.827064 0 -0.562108
    outer loop
      vertex -3.07426 -2.5 -0.466415
      vertex -3.20845 2.5 -0.663857
      vertex -3.07426 2.5 -0.466415
    endloop
  endfacet
  facet normal 0.827064 0 -0.562108
    outer loop
      vertex -3.20845 2.5 -0.663857
      vertex -3.07426 -2.5 -0.466415
      vertex -3.20845 -2.5 -0.663857
    endloop
  endfacet
  facet normal -0.960286 0 -0.279017
    outer loop
      vertex 3.68062 -2.5 -1.75498
      vertex 3.61401 2.5 -1.52573
      vertex 3.68062 2.5 -1.75498
    endloop
  endfacet
  facet normal -0.960286 -0 -0.279017
    outer loop
      vertex 3.61401 2.5 -1.52573
      vertex 3.68062 -2.5 -1.75498
      vertex 3.61401 -2.5 -1.52573
    endloop
  endfacet
  facet normal -0.891004 0 -0.453995
    outer loop
      vertex 3.43834 -2.5 -1.08204
      vertex 3.32996 2.5 -0.869335
      vertex 3.43834 2.5 -1.08204
    endloop
  endfacet
  facet normal -0.891004 -0 -0.453995
    outer loop
      vertex 3.32996 2.5 -0.869335
      vertex 3.43834 -2.5 -1.08204
      vertex 3.32996 -2.5 -0.869335
    endloop
  endfacet
  facet normal -0.750109 0 -0.661314
    outer loop
      vertex 2.92795 -2.5 -0.277788
      vertex 2.77008 2.5 -0.0987206
      vertex 2.92795 2.5 -0.277788
    endloop
  endfacet
  facet normal -0.750109 -0 -0.661314
    outer loop
      vertex 2.77008 2.5 -0.0987206
      vertex 2.92795 -2.5 -0.277788
      vertex 2.77008 -2.5 -0.0987206
    endloop
  endfacet
  facet normal -0.218138 0 -0.975918
    outer loop
      vertex 0.712049 -2.5 1.03269
      vertex 0.945021 2.5 0.980616
      vertex 0.945021 -2.5 0.980616
    endloop
  endfacet
  facet normal -0.218138 0 -0.975918
    outer loop
      vertex 0.945021 2.5 0.980616
      vertex 0.712049 -2.5 1.03269
      vertex 0.712049 2.5 1.03269
    endloop
  endfacet
  facet normal -0.661307 0 -0.750116
    outer loop
      vertex 2.42221 -2.5 0.22795
      vertex 2.60128 2.5 0.0700808
      vertex 2.60128 -2.5 0.0700808
    endloop
  endfacet
  facet normal -0.661307 0 -0.750116
    outer loop
      vertex 2.60128 2.5 0.0700808
      vertex 2.42221 -2.5 0.22795
      vertex 2.42221 2.5 0.22795
    endloop
  endfacet
  facet normal -0.453994 0 -0.891005
    outer loop
      vertex 1.61796 -2.5 0.738342
      vertex 1.83066 2.5 0.629965
      vertex 1.83066 -2.5 0.629965
    endloop
  endfacet
  facet normal -0.453994 0 -0.891005
    outer loop
      vertex 1.83066 2.5 0.629965
      vertex 1.61796 -2.5 0.738342
      vertex 1.61796 2.5 0.738342
    endloop
  endfacet
  facet normal 0.917753 0 -0.397152
    outer loop
      vertex -3.43834 -2.5 -1.08204
      vertex -3.53315 2.5 -1.30113
      vertex -3.43834 2.5 -1.08204
    endloop
  endfacet
  facet normal 0.917753 0 -0.397152
    outer loop
      vertex -3.53315 2.5 -1.30113
      vertex -3.43834 -2.5 -1.08204
      vertex -3.53315 -2.5 -1.30113
    endloop
  endfacet
  facet normal 0.860759 0 -0.509012
    outer loop
      vertex -3.20845 -2.5 -0.663857
      vertex -3.32996 2.5 -0.869335
      vertex -3.20845 2.5 -0.663857
    endloop
  endfacet
  facet normal 0.860759 0 -0.509012
    outer loop
      vertex -3.32996 2.5 -0.869335
      vertex -3.20845 -2.5 -0.663857
      vertex -3.32996 -2.5 -0.869335
    endloop
  endfacet
  facet normal 0.975921 0 -0.218123
    outer loop
      vertex -3.68062 -2.5 -1.75498
      vertex -3.73269 2.5 -1.98795
      vertex -3.68062 2.5 -1.75498
    endloop
  endfacet
  facet normal 0.975921 0 -0.218123
    outer loop
      vertex -3.73269 2.5 -1.98795
      vertex -3.68062 -2.5 -1.75498
      vertex -3.73269 -2.5 -1.98795
    endloop
  endfacet
  facet normal 0.987684 0 -0.156459
    outer loop
      vertex -3.73269 -2.5 -1.98795
      vertex -3.77004 2.5 -2.22373
      vertex -3.73269 2.5 -1.98795
    endloop
  endfacet
  facet normal 0.987684 0 -0.156459
    outer loop
      vertex -3.77004 2.5 -2.22373
      vertex -3.73269 -2.5 -1.98795
      vertex -3.77004 -2.5 -2.22373
    endloop
  endfacet
  facet normal 0.562089 0 -0.827077
    outer loop
      vertex -2.23358 -2.5 0.374264
      vertex -2.03614 2.5 0.508446
      vertex -2.03614 -2.5 0.508446
    endloop
  endfacet
  facet normal 0.562089 0 -0.827077
    outer loop
      vertex -2.03614 2.5 0.508446
      vertex -2.23358 -2.5 0.374264
      vertex -2.23358 2.5 0.374264
    endloop
  endfacet
  facet normal 0.0941263 0 -0.99556
    outer loop
      vertex -0.476266 -2.5 1.07003
      vertex -0.238604 2.5 1.0925
      vertex -0.238604 -2.5 1.0925
    endloop
  endfacet
  facet normal 0.0941263 0 -0.99556
    outer loop
      vertex -0.238604 2.5 1.0925
      vertex -0.476266 -2.5 1.07003
      vertex -0.476266 2.5 1.07003
    endloop
  endfacet
  facet normal -0.790163 0 -0.612896
    outer loop
      vertex 3.07426 -2.5 -0.466415
      vertex 2.92795 2.5 -0.277788
      vertex 3.07426 2.5 -0.466415
    endloop
  endfacet
  facet normal -0.790163 -0 -0.612896
    outer loop
      vertex 2.92795 2.5 -0.277788
      vertex 3.07426 -2.5 -0.466415
      vertex 2.92795 -2.5 -0.277788
    endloop
  endfacet
  facet normal -0.156417 0 -0.987691
    outer loop
      vertex 0.476266 -2.5 1.07003
      vertex 0.712049 2.5 1.03269
      vertex 0.712049 -2.5 1.03269
    endloop
  endfacet
  facet normal -0.156417 0 -0.987691
    outer loop
      vertex 0.712049 2.5 1.03269
      vertex 0.476266 -2.5 1.07003
      vertex 0.476266 2.5 1.07003
    endloop
  endfacet
  facet normal -0.278998 0 -0.960292
    outer loop
      vertex 0.945021 -2.5 0.980616
      vertex 1.17426 2.5 0.914014
      vertex 1.17426 -2.5 0.914014
    endloop
  endfacet
  facet normal -0.278998 0 -0.960292
    outer loop
      vertex 1.17426 2.5 0.914014
      vertex 0.945021 -2.5 0.980616
      vertex 0.945021 2.5 0.980616
    endloop
  endfacet
  facet normal -0.509037 0 -0.860745
    outer loop
      vertex 1.83066 -2.5 0.629965
      vertex 2.03614 2.5 0.508446
      vertex 2.03614 -2.5 0.508446
    endloop
  endfacet
  facet normal -0.509037 0 -0.860745
    outer loop
      vertex 2.03614 2.5 0.508446
      vertex 1.83066 -2.5 0.629965
      vertex 1.83066 2.5 0.629965
    endloop
  endfacet
  facet normal 0.790163 0 -0.612896
    outer loop
      vertex -2.92795 -2.5 -0.277788
      vertex -3.07426 2.5 -0.466415
      vertex -2.92795 2.5 -0.277788
    endloop
  endfacet
  facet normal 0.790163 0 -0.612896
    outer loop
      vertex -3.07426 2.5 -0.466415
      vertex -2.92795 -2.5 -0.277788
      vertex -3.07426 -2.5 -0.466415
    endloop
  endfacet
  facet normal 0.891004 0 -0.453995
    outer loop
      vertex -3.32996 -2.5 -0.869335
      vertex -3.43834 2.5 -1.08204
      vertex -3.32996 2.5 -0.869335
    endloop
  endfacet
  facet normal 0.891004 0 -0.453995
    outer loop
      vertex -3.43834 2.5 -1.08204
      vertex -3.32996 -2.5 -0.869335
      vertex -3.43834 -2.5 -1.08204
    endloop
  endfacet
  facet normal 0.940882 0 -0.338734
    outer loop
      vertex -3.53315 -2.5 -1.30113
      vertex -3.61401 2.5 -1.52573
      vertex -3.53315 2.5 -1.30113
    endloop
  endfacet
  facet normal 0.940882 0 -0.338734
    outer loop
      vertex -3.61401 2.5 -1.52573
      vertex -3.53315 -2.5 -1.30113
      vertex -3.61401 -2.5 -1.52573
    endloop
  endfacet
  facet normal 0.995564 0 -0.0940816
    outer loop
      vertex -3.77004 -2.5 -2.22373
      vertex -3.7925 2.5 -2.4614
      vertex -3.77004 2.5 -2.22373
    endloop
  endfacet
  facet normal 0.995564 0 -0.0940816
    outer loop
      vertex -3.7925 2.5 -2.4614
      vertex -3.77004 -2.5 -2.22373
      vertex -3.7925 -2.5 -2.4614
    endloop
  endfacet
  facet normal 0.612901 0 -0.79016
    outer loop
      vertex -2.42221 -2.5 0.22795
      vertex -2.23358 2.5 0.374264
      vertex -2.23358 -2.5 0.374264
    endloop
  endfacet
  facet normal 0.612901 0 -0.79016
    outer loop
      vertex -2.23358 2.5 0.374264
      vertex -2.42221 -2.5 0.22795
      vertex -2.42221 2.5 0.22795
    endloop
  endfacet
  facet normal 0.509037 0 -0.860745
    outer loop
      vertex -2.03614 -2.5 0.508446
      vertex -1.83066 2.5 0.629965
      vertex -1.83066 -2.5 0.629965
    endloop
  endfacet
  facet normal 0.509037 0 -0.860745
    outer loop
      vertex -1.83066 2.5 0.629965
      vertex -2.03614 -2.5 0.508446
      vertex -2.03614 2.5 0.508446
    endloop
  endfacet
  facet normal 0.278998 0 -0.960292
    outer loop
      vertex -1.17426 -2.5 0.914014
      vertex -0.945021 2.5 0.980616
      vertex -0.945021 -2.5 0.980616
    endloop
  endfacet
  facet normal 0.278998 0 -0.960292
    outer loop
      vertex -0.945021 2.5 0.980616
      vertex -1.17426 -2.5 0.914014
      vertex -1.17426 2.5 0.914014
    endloop
  endfacet
  facet normal 0.338736 0 -0.940882
    outer loop
      vertex -1.39887 -2.5 0.83315
      vertex -1.17426 2.5 0.914014
      vertex -1.17426 -2.5 0.914014
    endloop
  endfacet
  facet normal 0.338736 0 -0.940882
    outer loop
      vertex -1.17426 2.5 0.914014
      vertex -1.39887 -2.5 0.83315
      vertex -1.39887 2.5 0.83315
    endloop
  endfacet
  facet normal 0.0314173 0 -0.999506
    outer loop
      vertex -0.238604 -2.5 1.0925
      vertex 0 2.5 1.1
      vertex 0 -2.5 1.1
    endloop
  endfacet
  facet normal 0.0314173 0 -0.999506
    outer loop
      vertex 0 2.5 1.1
      vertex -0.238604 -2.5 1.0925
      vertex -0.238604 2.5 1.0925
    endloop
  endfacet
  facet normal -0.987684 0 -0.156459
    outer loop
      vertex 3.77004 -2.5 -2.22373
      vertex 3.73269 2.5 -1.98795
      vertex 3.77004 2.5 -2.22373
    endloop
  endfacet
  facet normal -0.987684 -0 -0.156459
    outer loop
      vertex 3.73269 2.5 -1.98795
      vertex 3.77004 -2.5 -2.22373
      vertex 3.73269 -2.5 -1.98795
    endloop
  endfacet
  facet normal -0.975921 0 -0.218123
    outer loop
      vertex 3.73269 -2.5 -1.98795
      vertex 3.68062 2.5 -1.75498
      vertex 3.73269 2.5 -1.98795
    endloop
  endfacet
  facet normal -0.975921 -0 -0.218123
    outer loop
      vertex 3.68062 2.5 -1.75498
      vertex 3.73269 -2.5 -1.98795
      vertex 3.68062 -2.5 -1.75498
    endloop
  endfacet
  facet normal -0.940882 0 -0.338734
    outer loop
      vertex 3.61401 -2.5 -1.52573
      vertex 3.53315 2.5 -1.30113
      vertex 3.61401 2.5 -1.52573
    endloop
  endfacet
  facet normal -0.940882 -0 -0.338734
    outer loop
      vertex 3.53315 2.5 -1.30113
      vertex 3.61401 -2.5 -1.52573
      vertex 3.53315 -2.5 -1.30113
    endloop
  endfacet
  facet normal -0.860759 0 -0.509012
    outer loop
      vertex 3.32996 -2.5 -0.869335
      vertex 3.20845 2.5 -0.663857
      vertex 3.32996 2.5 -0.869335
    endloop
  endfacet
  facet normal -0.860759 -0 -0.509012
    outer loop
      vertex 3.20845 2.5 -0.663857
      vertex 3.32996 -2.5 -0.869335
      vertex 3.20845 -2.5 -0.663857
    endloop
  endfacet
  facet normal -0.827064 0 -0.562108
    outer loop
      vertex 3.20845 -2.5 -0.663857
      vertex 3.07426 2.5 -0.466415
      vertex 3.20845 2.5 -0.663857
    endloop
  endfacet
  facet normal -0.827064 -0 -0.562108
    outer loop
      vertex 3.07426 2.5 -0.466415
      vertex 3.20845 -2.5 -0.663857
      vertex 3.07426 -2.5 -0.466415
    endloop
  endfacet
  facet normal -0.338736 0 -0.940882
    outer loop
      vertex 1.17426 -2.5 0.914014
      vertex 1.39887 2.5 0.83315
      vertex 1.39887 -2.5 0.83315
    endloop
  endfacet
  facet normal -0.338736 0 -0.940882
    outer loop
      vertex 1.39887 2.5 0.83315
      vertex 1.17426 -2.5 0.914014
      vertex 1.17426 2.5 0.914014
    endloop
  endfacet
  facet normal -0.0941263 0 -0.99556
    outer loop
      vertex 0.238604 -2.5 1.0925
      vertex 0.476266 2.5 1.07003
      vertex 0.476266 -2.5 1.07003
    endloop
  endfacet
  facet normal -0.0941263 0 -0.99556
    outer loop
      vertex 0.476266 2.5 1.07003
      vertex 0.238604 -2.5 1.0925
      vertex 0.238604 2.5 1.0925
    endloop
  endfacet
  facet normal -0.612901 0 -0.79016
    outer loop
      vertex 2.23358 -2.5 0.374264
      vertex 2.42221 2.5 0.22795
      vertex 2.42221 -2.5 0.22795
    endloop
  endfacet
  facet normal -0.612901 0 -0.79016
    outer loop
      vertex 2.42221 2.5 0.22795
      vertex 2.23358 -2.5 0.374264
      vertex 2.23358 2.5 0.374264
    endloop
  endfacet
  facet normal -0.562089 0 -0.827077
    outer loop
      vertex 2.03614 -2.5 0.508446
      vertex 2.23358 2.5 0.374264
      vertex 2.23358 -2.5 0.374264
    endloop
  endfacet
  facet normal -0.562089 0 -0.827077
    outer loop
      vertex 2.23358 2.5 0.374264
      vertex 2.03614 -2.5 0.508446
      vertex 2.03614 2.5 0.508446
    endloop
  endfacet
  facet normal 0.750109 0 -0.661314
    outer loop
      vertex -2.77008 -2.5 -0.0987206
      vertex -2.92795 2.5 -0.277788
      vertex -2.77008 2.5 -0.0987206
    endloop
  endfacet
  facet normal 0.750109 0 -0.661314
    outer loop
      vertex -2.92795 2.5 -0.277788
      vertex -2.77008 -2.5 -0.0987206
      vertex -2.92795 -2.5 -0.277788
    endloop
  endfacet
  facet normal 0.960286 0 -0.279017
    outer loop
      vertex -3.61401 -2.5 -1.52573
      vertex -3.68062 2.5 -1.75498
      vertex -3.61401 2.5 -1.52573
    endloop
  endfacet
  facet normal 0.960286 0 -0.279017
    outer loop
      vertex -3.68062 2.5 -1.75498
      vertex -3.61401 -2.5 -1.52573
      vertex -3.68062 -2.5 -1.75498
    endloop
  endfacet
  facet normal 0.661307 0 -0.750116
    outer loop
      vertex -2.60128 -2.5 0.0700808
      vertex -2.42221 2.5 0.22795
      vertex -2.42221 -2.5 0.22795
    endloop
  endfacet
  facet normal 0.661307 0 -0.750116
    outer loop
      vertex -2.42221 2.5 0.22795
      vertex -2.60128 -2.5 0.0700808
      vertex -2.60128 2.5 0.0700808
    endloop
  endfacet
  facet normal 0.453994 0 -0.891005
    outer loop
      vertex -1.83066 -2.5 0.629965
      vertex -1.61796 2.5 0.738342
      vertex -1.61796 -2.5 0.738342
    endloop
  endfacet
  facet normal 0.453994 0 -0.891005
    outer loop
      vertex -1.61796 2.5 0.738342
      vertex -1.83066 -2.5 0.629965
      vertex -1.83066 2.5 0.629965
    endloop
  endfacet
  facet normal 0.156417 0 -0.987691
    outer loop
      vertex -0.712049 -2.5 1.03269
      vertex -0.476266 2.5 1.07003
      vertex -0.476266 -2.5 1.07003
    endloop
  endfacet
  facet normal 0.156417 0 -0.987691
    outer loop
      vertex -0.476266 2.5 1.07003
      vertex -0.712049 -2.5 1.03269
      vertex -0.712049 2.5 1.03269
    endloop
  endfacet
  facet normal 0.218138 0 -0.975918
    outer loop
      vertex -0.945021 -2.5 0.980616
      vertex -0.712049 2.5 1.03269
      vertex -0.712049 -2.5 1.03269
    endloop
  endfacet
  facet normal 0.218138 0 -0.975918
    outer loop
      vertex -0.712049 2.5 1.03269
      vertex -0.945021 -2.5 0.980616
      vertex -0.945021 2.5 0.980616
    endloop
  endfacet
endsolid OpenSCAD_Model
