solid OpenSCAD_Model
  facet normal -1 0 0
    outer loop
      vertex -5 -2.5 -2.5
      vertex -5 2.5 2.5
      vertex -5 2.5 -2.5
    endloop
  endfacet
  facet normal -1 -0 0
    outer loop
      vertex -5 2.5 2.5
      vertex -5 -2.5 -2.5
      vertex -5 -2.5 2.5
    endloop
  endfacet
  facet normal -0 0 1
    outer loop
      vertex -5 2.5 2.5
      vertex 5 -2.5 2.5
      vertex 5 2.5 2.5
    endloop
  endfacet
  facet normal 0 0 1
    outer loop
      vertex 5 -2.5 2.5
      vertex -5 2.5 2.5
      vertex -5 -2.5 2.5
    endloop
  endfacet
  facet normal 1 -0 0
    outer loop
      vertex 5 -2.5 2.5
      vertex 5 2.5 -2.5
      vertex 5 2.5 2.5
    endloop
  endfacet
  facet normal 1 0 0
    outer loop
      vertex 5 2.5 -2.5
      vertex 5 -2.5 2.5
      vertex 5 -2.5 -2.5
    endloop
  endfacet
  facet normal 0 1 0
    outer loop
      vertex 5 2.5 2.5
      vertex 0 2.5 0.9
      vertex -5 2.5 2.5
    endloop
  endfacet
  facet normal 0 1 0
    outer loop
      vertex 5 2.5 2.5
      vertex 0.226046 2.5 0.892896
      vertex 0 2.5 0.9
    endloop
  endfacet
  facet normal 0 1 0
    outer loop
      vertex 5 2.5 2.5
      vertex 0.4512 2.5 0.871613
      vertex 0.226046 2.5 0.892896
    endloop
  endfacet
  facet normal 0 1 0
    outer loop
      vertex 5 2.5 2.5
      vertex 0.674572 2.5 0.836234
      vertex 0.4512 2.5 0.871613
    endloop
  endfacet
  facet normal 0 1 0
    outer loop
      vertex 5 2.5 2.5
      vertex 0.895283 2.5 0.786899
      vertex 0.674572 2.5 0.836234
    endloop
  endfacet
  facet normal 0 1 0
    outer loop
      vertex 5 2.5 2.5
      vertex 1.11246 2.5 0.723803
      vertex 0.895283 2.5 0.786899
    endloop
  endfacet
  facet normal 0 1 0
    outer loop
      vertex 5 2.5 2.5
      vertex 1.32525 2.5 0.647195
      vertex 1.11246 2.5 0.723803
    endloop
  endfacet
  facet normal 0 1 0
    outer loop
      vertex 5 2.5 2.5
      vertex 1.53281 2.5 0.557377
      vertex 1.32525 2.5 0.647195
    endloop
  endfacet
  facet normal 0 1 0
    outer loop
      vertex 5 2.5 2.5
      vertex 1.73431 2.5 0.454703
      vertex 1.53281 2.5 0.557377
    endloop
  endfacet
  facet normal 0 1 0
    outer loop
      vertex 5 2.5 2.5
      vertex 1.92898 2.5 0.33958
      vertex 1.73431 2.5 0.454703
    endloop
  endfacet
  facet normal 0 1 0
    outer loop
      vertex 5 2.5 2.5
      vertex 2.11603 2.5 0.212461
      vertex 1.92898 2.5 0.33958
    endloop
  endfacet
  facet normal 0 1 0
    outer loop
      vertex 5 2.5 2.5
      vertex 2.29473 2.5 0.0738468
      vertex 2.11603 2.5 0.212461
    endloop
  endfacet
  facet normal 0 1 0
    outer loop
      vertex 5 2.5 2.5
      vertex 2.46437 2.5 -0.0757122
      vertex 2.29473 2.5 0.0738468
    endloop
  endfacet
  facet normal 0 1 0
    outer loop
      vertex 5 2.5 2.5
      vertex 2.62429 2.5 -0.23563
      vertex 2.46437 2.5 -0.0757122
    endloop
  endfacet
  facet normal 0 1 0
    outer loop
      vertex 5 2.5 2.5
      vertex 2.77385 2.5 -0.405273
      vertex 2.62429 2.5 -0.23563
    endloop
  endfacet
  facet normal 0 1 0
    outer loop
      vertex 5 2.5 2.5
      vertex 2.91246 2.5 -0.583973
      vertex 2.77385 2.5 -0.405273
    endloop
  endfacet
  facet normal 0 1 0
    outer loop
      vertex 5 2.5 2.5
      vertex 3.03958 2.5 -0.771023
      vertex 2.91246 2.5 -0.583973
    endloop
  endfacet
  facet normal 0 1 0
    outer loop
      vertex 5 2.5 2.5
      vertex 3.1547 2.5 -0.965686
      vertex 3.03958 2.5 -0.771023
    endloop
  endfacet
  facet normal 0 1 0
    outer loop
      vertex 5 2.5 2.5
      vertex 3.25738 2.5 -1.16719
      vertex 3.1547 2.5 -0.965686
    endloop
  endfacet
  facet normal 0 1 -0
    outer loop
      vertex 5 2.5 -2.5
      vertex 3.25738 2.5 -1.16719
      vertex 5 2.5 2.5
    endloop
  endfacet
  facet normal 0 1 0
    outer loop
      vertex 3.25738 2.5 -1.16719
      vertex 5 2.5 -2.5
      vertex 3.34719 2.5 -1.37475
    endloop
  endfacet
  facet normal 0 1 0
    outer loop
      vertex 3.34719 2.5 -1.37475
      vertex 5 2.5 -2.5
      vertex 3.4238 2.5 -1.58754
    endloop
  endfacet
  facet normal 0 1 0
    outer loop
      vertex 3.4238 2.5 -1.58754
      vertex 5 2.5 -2.5
      vertex 3.4869 2.5 -1.80472
    endloop
  endfacet
  facet normal 0 1 0
    outer loop
      vertex 3.4869 2.5 -1.80472
      vertex 5 2.5 -2.5
      vertex 3.53623 2.5 -2.02543
    endloop
  endfacet
  facet normal 0 1 0
    outer loop
      vertex 3.53623 2.5 -2.02543
      vertex 5 2.5 -2.5
      vertex 3.57161 2.5 -2.2488
    endloop
  endfacet
  facet normal 0 1 0
    outer loop
      vertex 3.57161 2.5 -2.2488
      vertex 5 2.5 -2.5
      vertex 3.5929 2.5 -2.47395
    endloop
  endfacet
  facet normal 0 1 0
    outer loop
      vertex 3.5929 2.5 -2.47395
      vertex 5 2.5 -2.5
      vertex 3.59371 2.5 -2.5
    endloop
  endfacet
  facet normal 0 1 -0
    outer loop
      vertex -0.226046 2.5 0.892896
      vertex -5 2.5 2.5
      vertex 0 2.5 0.9
    endloop
  endfacet
  facet normal 0 1 -0
    outer loop
      vertex -0.4512 2.5 0.871613
      vertex -5 2.5 2.5
      vertex -0.226046 2.5 0.892896
    endloop
  endfacet
  facet normal 0 1 -0
    outer loop
      vertex -0.674572 2.5 0.836234
      vertex -5 2.5 2.5
      vertex -0.4512 2.5 0.871613
    endloop
  endfacet
  facet normal 0 1 -0
    outer loop
      vertex -0.895283 2.5 0.786899
      vertex -5 2.5 2.5
      vertex -0.674572 2.5 0.836234
    endloop
  endfacet
  facet normal 0 1 -0
    outer loop
      vertex -1.11246 2.5 0.723803
      vertex -5 2.5 2.5
      vertex -0.895283 2.5 0.786899
    endloop
  endfacet
  facet normal 0 1 -0
    outer loop
      vertex -1.32525 2.5 0.647195
      vertex -5 2.5 2.5
      vertex -1.11246 2.5 0.723803
    endloop
  endfacet
  facet normal 0 1 -0
    outer loop
      vertex -1.53281 2.5 0.557377
      vertex -5 2.5 2.5
      vertex -1.32525 2.5 0.647195
    endloop
  endfacet
  facet normal 0 1 -0
    outer loop
      vertex -1.73431 2.5 0.454703
      vertex -5 2.5 2.5
      vertex -1.53281 2.5 0.557377
    endloop
  endfacet
  facet normal 0 1 -0
    outer loop
      vertex -1.92898 2.5 0.33958
      vertex -5 2.5 2.5
      vertex -1.73431 2.5 0.454703
    endloop
  endfacet
  facet normal 0 1 -0
    outer loop
      vertex -2.11603 2.5 0.212461
      vertex -5 2.5 2.5
      vertex -1.92898 2.5 0.33958
    endloop
  endfacet
  facet normal 0 1 -0
    outer loop
      vertex -2.29473 2.5 0.0738468
      vertex -5 2.5 2.5
      vertex -2.11603 2.5 0.212461
    endloop
  endfacet
  facet normal 0 1 -0
    outer loop
      vertex -2.46437 2.5 -0.0757122
      vertex -5 2.5 2.5
      vertex -2.29473 2.5 0.0738468
    endloop
  endfacet
  facet normal 0 1 -0
    outer loop
      vertex -2.62429 2.5 -0.23563
      vertex -5 2.5 2.5
      vertex -2.46437 2.5 -0.0757122
    endloop
  endfacet
  facet normal 0 1 -0
    outer loop
      vertex -2.77385 2.5 -0.405273
      vertex -5 2.5 2.5
      vertex -2.62429 2.5 -0.23563
    endloop
  endfacet
  facet normal 0 1 -0
    outer loop
      vertex -2.91246 2.5 -0.583973
      vertex -5 2.5 2.5
      vertex -2.77385 2.5 -0.405273
    endloop
  endfacet
  facet normal 0 1 -0
    outer loop
      vertex -3.03958 2.5 -0.771023
      vertex -5 2.5 2.5
      vertex -2.91246 2.5 -0.583973
    endloop
  endfacet
  facet normal 0 1 -0
    outer loop
      vertex -3.1547 2.5 -0.965686
      vertex -5 2.5 2.5
      vertex -3.03958 2.5 -0.771023
    endloop
  endfacet
  facet normal 0 1 -0
    outer loop
      vertex -3.25738 2.5 -1.16719
      vertex -5 2.5 2.5
      vertex -3.1547 2.5 -0.965686
    endloop
  endfacet
  facet normal 0 1 0
    outer loop
      vertex -5 2.5 -2.5
      vertex -3.25738 2.5 -1.16719
      vertex -3.34719 2.5 -1.37475
    endloop
  endfacet
  facet normal 0 1 0
    outer loop
      vertex -5 2.5 -2.5
      vertex -3.34719 2.5 -1.37475
      vertex -3.4238 2.5 -1.58754
    endloop
  endfacet
  facet normal 0 1 0
    outer loop
      vertex -5 2.5 -2.5
      vertex -3.4238 2.5 -1.58754
      vertex -3.4869 2.5 -1.80472
    endloop
  endfacet
  facet normal 0 1 0
    outer loop
      vertex -5 2.5 -2.5
      vertex -3.4869 2.5 -1.80472
      vertex -3.53623 2.5 -2.02543
    endloop
  endfacet
  facet normal 0 1 0
    outer loop
      vertex -5 2.5 -2.5
      vertex -3.53623 2.5 -2.02543
      vertex -3.57161 2.5 -2.2488
    endloop
  endfacet
  facet normal 0 1 0
    outer loop
      vertex -5 2.5 -2.5
      vertex -3.57161 2.5 -2.2488
      vertex -3.5929 2.5 -2.47395
    endloop
  endfacet
  facet normal 0 1 0
    outer loop
      vertex -5 2.5 -2.5
      vertex -3.5929 2.5 -2.47395
      vertex -3.59371 2.5 -2.5
    endloop
  endfacet
  facet normal 0 1 0
    outer loop
      vertex -3.25738 2.5 -1.16719
      vertex -5 2.5 -2.5
      vertex -5 2.5 2.5
    endloop
  endfacet
  facet normal 0 0 -1
    outer loop
      vertex -5 -2.5 -2.5
      vertex -3.59371 2.5 -2.5
      vertex -3.59371 -2.5 -2.5
    endloop
  endfacet
  facet normal -0 0 -1
    outer loop
      vertex -3.59371 2.5 -2.5
      vertex -5 -2.5 -2.5
      vertex -5 2.5 -2.5
    endloop
  endfacet
  facet normal 0 0 -1
    outer loop
      vertex 3.59371 -2.5 -2.5
      vertex 5 2.5 -2.5
      vertex 5 -2.5 -2.5
    endloop
  endfacet
  facet normal -0 0 -1
    outer loop
      vertex 5 2.5 -2.5
      vertex 3.59371 -2.5 -2.5
      vertex 3.59371 2.5 -2.5
    endloop
  endfacet
  facet normal 0 -1 0
    outer loop
      vertex -5 -2.5 2.5
      vertex 0 -2.5 0.9
      vertex 5 -2.5 2.5
    endloop
  endfacet
  facet normal 0 -1 0
    outer loop
      vertex -5 -2.5 2.5
      vertex -0.226046 -2.5 0.892896
      vertex 0 -2.5 0.9
    endloop
  endfacet
  facet normal 0 -1 0
    outer loop
      vertex -5 -2.5 2.5
      vertex -0.4512 -2.5 0.871613
      vertex -0.226046 -2.5 0.892896
    endloop
  endfacet
  facet normal 0 -1 0
    outer loop
      vertex -5 -2.5 2.5
      vertex -0.674572 -2.5 0.836234
      vertex -0.4512 -2.5 0.871613
    endloop
  endfacet
  facet normal 0 -1 0
    outer loop
      vertex -5 -2.5 2.5
      vertex -0.895283 -2.5 0.786899
      vertex -0.674572 -2.5 0.836234
    endloop
  endfacet
  facet normal 0 -1 0
    outer loop
      vertex -5 -2.5 2.5
      vertex -1.11246 -2.5 0.723803
      vertex -0.895283 -2.5 0.786899
    endloop
  endfacet
  facet normal 0 -1 0
    outer loop
      vertex -5 -2.5 2.5
      vertex -1.32525 -2.5 0.647195
      vertex -1.11246 -2.5 0.723803
    endloop
  endfacet
  facet normal 0 -1 0
    outer loop
      vertex -5 -2.5 2.5
      vertex -1.53281 -2.5 0.557377
      vertex -1.32525 -2.5 0.647195
    endloop
  endfacet
  facet normal 0 -1 0
    outer loop
      vertex -5 -2.5 2.5
      vertex -1.73431 -2.5 0.454703
      vertex -1.53281 -2.5 0.557377
    endloop
  endfacet
  facet normal 0 -1 0
    outer loop
      vertex -5 -2.5 2.5
      vertex -1.92898 -2.5 0.33958
      vertex -1.73431 -2.5 0.454703
    endloop
  endfacet
  facet normal 0 -1 0
    outer loop
      vertex -5 -2.5 2.5
      vertex -2.11603 -2.5 0.212461
      vertex -1.92898 -2.5 0.33958
    endloop
  endfacet
  facet normal 0 -1 0
    outer loop
      vertex -5 -2.5 2.5
      vertex -2.29473 -2.5 0.0738468
      vertex -2.11603 -2.5 0.212461
    endloop
  endfacet
  facet normal 0 -1 0
    outer loop
      vertex -5 -2.5 2.5
      vertex -2.46437 -2.5 -0.0757122
      vertex -2.29473 -2.5 0.0738468
    endloop
  endfacet
  facet normal 0 -1 0
    outer loop
      vertex -5 -2.5 2.5
      vertex -2.62429 -2.5 -0.23563
      vertex -2.46437 -2.5 -0.0757122
    endloop
  endfacet
  facet normal 0 -1 0
    outer loop
      vertex -5 -2.5 2.5
      vertex -2.77385 -2.5 -0.405273
      vertex -2.62429 -2.5 -0.23563
    endloop
  endfacet
  facet normal 0 -1 0
    outer loop
      vertex -5 -2.5 2.5
      vertex -2.91246 -2.5 -0.583973
      vertex -2.77385 -2.5 -0.405273
    endloop
  endfacet
  facet normal 0 -1 0
    outer loop
      vertex -5 -2.5 2.5
      vertex -3.03958 -2.5 -0.771023
      vertex -2.91246 -2.5 -0.583973
    endloop
  endfacet
  facet normal 0 -1 0
    outer loop
      vertex -5 -2.5 2.5
      vertex -3.1547 -2.5 -0.965686
      vertex -3.03958 -2.5 -0.771023
    endloop
  endfacet
  facet normal 0 -1 0
    outer loop
      vertex -5 -2.5 2.5
      vertex -3.25738 -2.5 -1.16719
      vertex -3.1547 -2.5 -0.965686
    endloop
  endfacet
  facet normal 0 -1 0
    outer loop
      vertex -5 -2.5 -2.5
      vertex -3.25738 -2.5 -1.16719
      vertex -5 -2.5 2.5
    endloop
  endfacet
  facet normal 0 -1 0
    outer loop
      vertex -3.25738 -2.5 -1.16719
      vertex -5 -2.5 -2.5
      vertex -3.34719 -2.5 -1.37475
    endloop
  endfacet
  facet normal 0 -1 0
    outer loop
      vertex -3.34719 -2.5 -1.37475
      vertex -5 -2.5 -2.5
      vertex -3.4238 -2.5 -1.58754
    endloop
  endfacet
  facet normal 0 -1 0
    outer loop
      vertex -3.4238 -2.5 -1.58754
      vertex -5 -2.5 -2.5
      vertex -3.4869 -2.5 -1.80472
    endloop
  endfacet
  facet normal 0 -1 0
    outer loop
      vertex -3.4869 -2.5 -1.80472
      vertex -5 -2.5 -2.5
      vertex -3.53623 -2.5 -2.02543
    endloop
  endfacet
  facet normal 0 -1 0
    outer loop
      vertex -3.53623 -2.5 -2.02543
      vertex -5 -2.5 -2.5
      vertex -3.57161 -2.5 -2.2488
    endloop
  endfacet
  facet normal 0 -1 0
    outer loop
      vertex -3.57161 -2.5 -2.2488
      vertex -5 -2.5 -2.5
      vertex -3.5929 -2.5 -2.47395
    endloop
  endfacet
  facet normal 0 -1 0
    outer loop
      vertex -3.5929 -2.5 -2.47395
      vertex -5 -2.5 -2.5
      vertex -3.59371 -2.5 -2.5
    endloop
  endfacet
  facet normal 0 -1 0
    outer loop
      vertex 0.226046 -2.5 0.892896
      vertex 5 -2.5 2.5
      vertex 0 -2.5 0.9
    endloop
  endfacet
  facet normal 0 -1 0
    outer loop
      vertex 0.4512 -2.5 0.871613
      vertex 5 -2.5 2.5
      vertex 0.226046 -2.5 0.892896
    endloop
  endfacet
  facet normal 0 -1 0
    outer loop
      vertex 0.674572 -2.5 0.836234
      vertex 5 -2.5 2.5
      vertex 0.4512 -2.5 0.871613
    endloop
  endfacet
  facet normal 0 -1 0
    outer loop
      vertex 0.895283 -2.5 0.786899
      vertex 5 -2.5 2.5
      vertex 0.674572 -2.5 0.836234
    endloop
  endfacet
  facet normal 0 -1 0
    outer loop
      vertex 1.11246 -2.5 0.723803
      vertex 5 -2.5 2.5
      vertex 0.895283 -2.5 0.786899
    endloop
  endfacet
  facet normal 0 -1 0
    outer loop
      vertex 1.32525 -2.5 0.647195
      vertex 5 -2.5 2.5
      vertex 1.11246 -2.5 0.723803
    endloop
  endfacet
  facet normal 0 -1 0
    outer loop
      vertex 1.53281 -2.5 0.557377
      vertex 5 -2.5 2.5
      vertex 1.32525 -2.5 0.647195
    endloop
  endfacet
  facet normal 0 -1 0
    outer loop
      vertex 1.73431 -2.5 0.454703
      vertex 5 -2.5 2.5
      vertex 1.53281 -2.5 0.557377
    endloop
  endfacet
  facet normal 0 -1 0
    outer loop
      vertex 1.92898 -2.5 0.33958
      vertex 5 -2.5 2.5
      vertex 1.73431 -2.5 0.454703
    endloop
  endfacet
  facet normal 0 -1 0
    outer loop
      vertex 2.11603 -2.5 0.212461
      vertex 5 -2.5 2.5
      vertex 1.92898 -2.5 0.33958
    endloop
  endfacet
  facet normal 0 -1 0
    outer loop
      vertex 2.29473 -2.5 0.0738468
      vertex 5 -2.5 2.5
      vertex 2.11603 -2.5 0.212461
    endloop
  endfacet
  facet normal 0 -1 0
    outer loop
      vertex 2.46437 -2.5 -0.0757122
      vertex 5 -2.5 2.5
      vertex 2.29473 -2.5 0.0738468
    endloop
  endfacet
  facet normal 0 -1 0
    outer loop
      vertex 2.62429 -2.5 -0.23563
      vertex 5 -2.5 2.5
      vertex 2.46437 -2.5 -0.0757122
    endloop
  endfacet
  facet normal 0 -1 0
    outer loop
      vertex 2.77385 -2.5 -0.405273
      vertex 5 -2.5 2.5
      vertex 2.62429 -2.5 -0.23563
    endloop
  endfacet
  facet normal 0 -1 0
    outer loop
      vertex 2.91246 -2.5 -0.583973
      vertex 5 -2.5 2.5
      vertex 2.77385 -2.5 -0.405273
    endloop
  endfacet
  facet normal 0 -1 0
    outer loop
      vertex 3.03958 -2.5 -0.771023
      vertex 5 -2.5 2.5
      vertex 2.91246 -2.5 -0.583973
    endloop
  endfacet
  facet normal 0 -1 0
    outer loop
      vertex 3.1547 -2.5 -0.965686
      vertex 5 -2.5 2.5
      vertex 3.03958 -2.5 -0.771023
    endloop
  endfacet
  facet normal 0 -1 0
    outer loop
      vertex 3.25738 -2.5 -1.16719
      vertex 5 -2.5 2.5
      vertex 3.1547 -2.5 -0.965686
    endloop
  endfacet
  facet normal 0 -1 0
    outer loop
      vertex 5 -2.5 -2.5
      vertex 3.25738 -2.5 -1.16719
      vertex 3.34719 -2.5 -1.37475
    endloop
  endfacet
  facet normal 0 -1 0
    outer loop
      vertex 5 -2.5 -2.5
      vertex 3.34719 -2.5 -1.37475
      vertex 3.4238 -2.5 -1.58754
    endloop
  endfacet
  facet normal 0 -1 0
    outer loop
      vertex 5 -2.5 -2.5
      vertex 3.4238 -2.5 -1.58754
      vertex 3.4869 -2.5 -1.80472
    endloop
  endfacet
  facet normal 0 -1 0
    outer loop
      vertex 5 -2.5 -2.5
      vertex 3.4869 -2.5 -1.80472
      vertex 3.53623 -2.5 -2.02543
    endloop
  endfacet
  facet normal 0 -1 0
    outer loop
      vertex 5 -2.5 -2.5
      vertex 3.53623 -2.5 -2.02543
      vertex 3.57161 -2.5 -2.2488
    endloop
  endfacet
  facet normal 0 -1 0
    outer loop
      vertex 5 -2.5 -2.5
      vertex 3.57161 -2.5 -2.2488
      vertex 3.5929 -2.5 -2.47395
    endloop
  endfacet
  facet normal 0 -1 0
    outer loop
      vertex 5 -2.5 -2.5
      vertex 3.5929 -2.5 -2.47395
      vertex 3.59371 -2.5 -2.5
    endloop
  endfacet
  facet normal 0 -1 0
    outer loop
      vertex 3.25738 -2.5 -1.16719
      vertex 5 -2.5 -2.5
      vertex 5 -2.5 2.5
    endloop
  endfacet
  facet normal -0.999517 0 -0.031079
    outer loop
      vertex 3.59371 -2.5 -2.5
      vertex 3.5929 2.5 -2.47395
      vertex 3.59371 2.5 -2.5
    endloop
  endfacet
  facet normal -0.999517 -0 -0.031079
    outer loop
      vertex 3.5929 2.5 -2.47395
      vertex 3.59371 -2.5 -2.5
      vertex 3.5929 -2.5 -2.47395
    endloop
  endfacet
  facet normal -0.995559 0 -0.0941392
    outer loop
      vertex 3.5929 -2.5 -2.47395
      vertex 3.57161 2.5 -2.2488
      vertex 3.5929 2.5 -2.47395
    endloop
  endfacet
  facet normal -0.995559 -0 -0.0941392
    outer loop
      vertex 3.57161 2.5 -2.2488
      vertex 3.5929 -2.5 -2.47395
      vertex 3.57161 -2.5 -2.2488
    endloop
  endfacet
  facet normal 0.999517 0 -0.031079
    outer loop
      vertex -3.5929 -2.5 -2.47395
      vertex -3.59371 2.5 -2.5
      vertex -3.5929 2.5 -2.47395
    endloop
  endfacet
  facet normal 0.999517 0 -0.031079
    outer loop
      vertex -3.59371 2.5 -2.5
      vertex -3.5929 -2.5 -2.47395
      vertex -3.59371 -2.5 -2.5
    endloop
  endfacet
  facet normal -0.0314117 0 -0.999507
    outer loop
      vertex 0 -2.5 0.9
      vertex 0.226046 2.5 0.892896
      vertex 0.226046 -2.5 0.892896
    endloop
  endfacet
  facet normal -0.0314117 0 -0.999507
    outer loop
      vertex 0.226046 2.5 0.892896
      vertex 0 -2.5 0.9
      vertex 0 2.5 0.9
    endloop
  endfacet
  facet normal -0.707102 0 -0.707112
    outer loop
      vertex 2.62429 -2.5 -0.23563
      vertex 2.46437 2.5 -0.0757122
      vertex 2.62429 2.5 -0.23563
    endloop
  endfacet
  facet normal -0.707102 -0 -0.707112
    outer loop
      vertex 2.46437 2.5 -0.0757122
      vertex 2.62429 -2.5 -0.23563
      vertex 2.46437 -2.5 -0.0757122
    endloop
  endfacet
  facet normal 0.661315 0 -0.750108
    outer loop
      vertex -2.46437 -2.5 -0.0757122
      vertex -2.29473 2.5 0.0738468
      vertex -2.29473 -2.5 0.0738468
    endloop
  endfacet
  facet normal 0.661315 0 -0.750108
    outer loop
      vertex -2.29473 2.5 0.0738468
      vertex -2.46437 -2.5 -0.0757122
      vertex -2.46437 2.5 -0.0757122
    endloop
  endfacet
  facet normal 0.338734 0 -0.940882
    outer loop
      vertex -1.32525 -2.5 0.647195
      vertex -1.11246 2.5 0.723803
      vertex -1.11246 -2.5 0.723803
    endloop
  endfacet
  facet normal 0.338734 0 -0.940882
    outer loop
      vertex -1.11246 2.5 0.723803
      vertex -1.32525 -2.5 0.647195
      vertex -1.32525 2.5 0.647195
    endloop
  endfacet
  facet normal -0.91777 0 -0.397114
    outer loop
      vertex 3.34719 -2.5 -1.37475
      vertex 3.25738 2.5 -1.16719
      vertex 3.34719 2.5 -1.37475
    endloop
  endfacet
  facet normal -0.91777 -0 -0.397114
    outer loop
      vertex 3.25738 2.5 -1.16719
      vertex 3.34719 -2.5 -1.37475
      vertex 3.25738 -2.5 -1.16719
    endloop
  endfacet
  facet normal -0.397143 0 -0.917757
    outer loop
      vertex 1.32525 -2.5 0.647195
      vertex 1.53281 2.5 0.557377
      vertex 1.53281 -2.5 0.557377
    endloop
  endfacet
  facet normal -0.397143 0 -0.917757
    outer loop
      vertex 1.53281 2.5 0.557377
      vertex 1.32525 -2.5 0.647195
      vertex 1.32525 2.5 0.647195
    endloop
  endfacet
  facet normal 0.156436 0 -0.987688
    outer loop
      vertex -0.674572 -2.5 0.836234
      vertex -0.4512 2.5 0.871613
      vertex -0.4512 -2.5 0.871613
    endloop
  endfacet
  facet normal 0.156436 0 -0.987688
    outer loop
      vertex -0.4512 2.5 0.871613
      vertex -0.674572 -2.5 0.836234
      vertex -0.674572 2.5 0.836234
    endloop
  endfacet
  facet normal -0.975921 0 -0.218124
    outer loop
      vertex 3.53623 -2.5 -2.02543
      vertex 3.4869 2.5 -1.80472
      vertex 3.53623 2.5 -2.02543
    endloop
  endfacet
  facet normal -0.975921 -0 -0.218124
    outer loop
      vertex 3.4869 2.5 -1.80472
      vertex 3.53623 -2.5 -2.02543
      vertex 3.4869 -2.5 -1.80472
    endloop
  endfacet
  facet normal -0.96029 0 -0.279005
    outer loop
      vertex 3.4869 -2.5 -1.80472
      vertex 3.4238 2.5 -1.58754
      vertex 3.4869 2.5 -1.80472
    endloop
  endfacet
  facet normal -0.96029 -0 -0.279005
    outer loop
      vertex 3.4238 2.5 -1.58754
      vertex 3.4869 -2.5 -1.80472
      vertex 3.4238 -2.5 -1.58754
    endloop
  endfacet
  facet normal -0.218144 0 -0.975917
    outer loop
      vertex 0.674572 -2.5 0.836234
      vertex 0.895283 2.5 0.786899
      vertex 0.895283 -2.5 0.786899
    endloop
  endfacet
  facet normal -0.218144 0 -0.975917
    outer loop
      vertex 0.895283 2.5 0.786899
      vertex 0.674572 -2.5 0.836234
      vertex 0.674572 2.5 0.836234
    endloop
  endfacet
  facet normal -0.562083 0 -0.827081
    outer loop
      vertex 1.92898 -2.5 0.33958
      vertex 2.11603 2.5 0.212461
      vertex 2.11603 -2.5 0.212461
    endloop
  endfacet
  facet normal -0.562083 0 -0.827081
    outer loop
      vertex 2.11603 2.5 0.212461
      vertex 1.92898 -2.5 0.33958
      vertex 1.92898 2.5 0.33958
    endloop
  endfacet
  facet normal -0.454007 0 -0.890998
    outer loop
      vertex 1.53281 -2.5 0.557377
      vertex 1.73431 2.5 0.454703
      vertex 1.73431 -2.5 0.454703
    endloop
  endfacet
  facet normal -0.454007 0 -0.890998
    outer loop
      vertex 1.73431 2.5 0.454703
      vertex 1.53281 -2.5 0.557377
      vertex 1.53281 2.5 0.557377
    endloop
  endfacet
  facet normal 0.975921 0 -0.218124
    outer loop
      vertex -3.4869 -2.5 -1.80472
      vertex -3.53623 2.5 -2.02543
      vertex -3.4869 2.5 -1.80472
    endloop
  endfacet
  facet normal 0.975921 0 -0.218124
    outer loop
      vertex -3.53623 2.5 -2.02543
      vertex -3.4869 -2.5 -1.80472
      vertex -3.53623 -2.5 -2.02543
    endloop
  endfacet
  facet normal 0.827079 0 -0.562086
    outer loop
      vertex -2.91246 -2.5 -0.583973
      vertex -3.03958 2.5 -0.771023
      vertex -2.91246 2.5 -0.583973
    endloop
  endfacet
  facet normal 0.827079 0 -0.562086
    outer loop
      vertex -3.03958 2.5 -0.771023
      vertex -2.91246 -2.5 -0.583973
      vertex -3.03958 -2.5 -0.771023
    endloop
  endfacet
  facet normal 0.91777 0 -0.397114
    outer loop
      vertex -3.25738 -2.5 -1.16719
      vertex -3.34719 2.5 -1.37475
      vertex -3.25738 2.5 -1.16719
    endloop
  endfacet
  facet normal 0.91777 0 -0.397114
    outer loop
      vertex -3.34719 2.5 -1.37475
      vertex -3.25738 -2.5 -1.16719
      vertex -3.34719 -2.5 -1.37475
    endloop
  endfacet
  facet normal 0.860749 0 -0.50903
    outer loop
      vertex -3.03958 -2.5 -0.771023
      vertex -3.1547 2.5 -0.965686
      vertex -3.03958 2.5 -0.771023
    endloop
  endfacet
  facet normal 0.860749 0 -0.50903
    outer loop
      vertex -3.1547 2.5 -0.965686
      vertex -3.03958 -2.5 -0.771023
      vertex -3.1547 -2.5 -0.965686
    endloop
  endfacet
  facet normal 0.987687 0 -0.156442
    outer loop
      vertex -3.53623 -2.5 -2.02543
      vertex -3.57161 2.5 -2.2488
      vertex -3.53623 2.5 -2.02543
    endloop
  endfacet
  facet normal 0.987687 0 -0.156442
    outer loop
      vertex -3.57161 2.5 -2.2488
      vertex -3.53623 -2.5 -2.02543
      vertex -3.57161 -2.5 -2.2488
    endloop
  endfacet
  facet normal 0.509027 0 -0.860751
    outer loop
      vertex -1.92898 -2.5 0.33958
      vertex -1.73431 2.5 0.454703
      vertex -1.73431 -2.5 0.454703
    endloop
  endfacet
  facet normal 0.509027 0 -0.860751
    outer loop
      vertex -1.73431 2.5 0.454703
      vertex -1.92898 -2.5 0.33958
      vertex -1.92898 2.5 0.33958
    endloop
  endfacet
  facet normal 0.0941069 0 -0.995562
    outer loop
      vertex -0.4512 -2.5 0.871613
      vertex -0.226046 2.5 0.892896
      vertex -0.226046 -2.5 0.892896
    endloop
  endfacet
  facet normal 0.0941069 0 -0.995562
    outer loop
      vertex -0.226046 2.5 0.892896
      vertex -0.4512 -2.5 0.871613
      vertex -0.4512 2.5 0.871613
    endloop
  endfacet
  facet normal -0.987687 0 -0.156442
    outer loop
      vertex 3.57161 -2.5 -2.2488
      vertex 3.53623 2.5 -2.02543
      vertex 3.57161 2.5 -2.2488
    endloop
  endfacet
  facet normal -0.987687 -0 -0.156442
    outer loop
      vertex 3.53623 2.5 -2.02543
      vertex 3.57161 -2.5 -2.2488
      vertex 3.53623 -2.5 -2.02543
    endloop
  endfacet
  facet normal -0.790163 0 -0.612896
    outer loop
      vertex 2.91246 -2.5 -0.583973
      vertex 2.77385 2.5 -0.405273
      vertex 2.91246 2.5 -0.583973
    endloop
  endfacet
  facet normal -0.790163 -0 -0.612896
    outer loop
      vertex 2.77385 2.5 -0.405273
      vertex 2.91246 -2.5 -0.583973
      vertex 2.77385 -2.5 -0.405273
    endloop
  endfacet
  facet normal -0.827079 0 -0.562086
    outer loop
      vertex 3.03958 -2.5 -0.771023
      vertex 2.91246 2.5 -0.583973
      vertex 3.03958 2.5 -0.771023
    endloop
  endfacet
  facet normal -0.827079 -0 -0.562086
    outer loop
      vertex 2.91246 2.5 -0.583973
      vertex 3.03958 -2.5 -0.771023
      vertex 2.91246 -2.5 -0.583973
    endloop
  endfacet
  facet normal -0.156436 0 -0.987688
    outer loop
      vertex 0.4512 -2.5 0.871613
      vertex 0.674572 2.5 0.836234
      vertex 0.674572 -2.5 0.836234
    endloop
  endfacet
  facet normal -0.156436 0 -0.987688
    outer loop
      vertex 0.674572 2.5 0.836234
      vertex 0.4512 -2.5 0.871613
      vertex 0.4512 2.5 0.871613
    endloop
  endfacet
  facet normal -0.338734 0 -0.940882
    outer loop
      vertex 1.11246 -2.5 0.723803
      vertex 1.32525 2.5 0.647195
      vertex 1.32525 -2.5 0.647195
    endloop
  endfacet
  facet normal -0.338734 0 -0.940882
    outer loop
      vertex 1.32525 2.5 0.647195
      vertex 1.11246 -2.5 0.723803
      vertex 1.11246 2.5 0.723803
    endloop
  endfacet
  facet normal -0.509027 0 -0.860751
    outer loop
      vertex 1.73431 -2.5 0.454703
      vertex 1.92898 2.5 0.33958
      vertex 1.92898 -2.5 0.33958
    endloop
  endfacet
  facet normal -0.509027 0 -0.860751
    outer loop
      vertex 1.92898 2.5 0.33958
      vertex 1.73431 -2.5 0.454703
      vertex 1.73431 2.5 0.454703
    endloop
  endfacet
  facet normal 0.890991 0 -0.454021
    outer loop
      vertex -3.1547 -2.5 -0.965686
      vertex -3.25738 2.5 -1.16719
      vertex -3.1547 2.5 -0.965686
    endloop
  endfacet
  facet normal 0.890991 0 -0.454021
    outer loop
      vertex -3.25738 2.5 -1.16719
      vertex -3.1547 -2.5 -0.965686
      vertex -3.25738 -2.5 -1.16719
    endloop
  endfacet
  facet normal 0.96029 0 -0.279005
    outer loop
      vertex -3.4238 -2.5 -1.58754
      vertex -3.4869 2.5 -1.80472
      vertex -3.4238 2.5 -1.58754
    endloop
  endfacet
  facet normal 0.96029 0 -0.279005
    outer loop
      vertex -3.4869 2.5 -1.80472
      vertex -3.4238 -2.5 -1.58754
      vertex -3.4869 -2.5 -1.80472
    endloop
  endfacet
  facet normal 0.995559 0 -0.0941392
    outer loop
      vertex -3.57161 -2.5 -2.2488
      vertex -3.5929 2.5 -2.47395
      vertex -3.57161 2.5 -2.2488
    endloop
  endfacet
  facet normal 0.995559 0 -0.0941392
    outer loop
      vertex -3.5929 2.5 -2.47395
      vertex -3.57161 -2.5 -2.2488
      vertex -3.5929 -2.5 -2.47395
    endloop
  endfacet
  facet normal 0.562083 0 -0.827081
    outer loop
      vertex -2.11603 -2.5 0.212461
      vertex -1.92898 2.5 0.33958
      vertex -1.92898 -2.5 0.33958
    endloop
  endfacet
  facet normal 0.562083 0 -0.827081
    outer loop
      vertex -1.92898 2.5 0.33958
      vertex -2.11603 -2.5 0.212461
      vertex -2.11603 2.5 0.212461
    endloop
  endfacet
  facet normal 0.397143 0 -0.917757
    outer loop
      vertex -1.53281 -2.5 0.557377
      vertex -1.32525 2.5 0.647195
      vertex -1.32525 -2.5 0.647195
    endloop
  endfacet
  facet normal 0.397143 0 -0.917757
    outer loop
      vertex -1.32525 2.5 0.647195
      vertex -1.53281 -2.5 0.557377
      vertex -1.53281 2.5 0.557377
    endloop
  endfacet
  facet normal 0.218144 0 -0.975917
    outer loop
      vertex -0.895283 -2.5 0.786899
      vertex -0.674572 2.5 0.836234
      vertex -0.674572 -2.5 0.836234
    endloop
  endfacet
  facet normal 0.218144 0 -0.975917
    outer loop
      vertex -0.674572 2.5 0.836234
      vertex -0.895283 -2.5 0.786899
      vertex -0.895283 2.5 0.786899
    endloop
  endfacet
  facet normal 0.278992 0 -0.960293
    outer loop
      vertex -1.11246 -2.5 0.723803
      vertex -0.895283 2.5 0.786899
      vertex -0.895283 -2.5 0.786899
    endloop
  endfacet
  facet normal 0.278992 0 -0.960293
    outer loop
      vertex -0.895283 2.5 0.786899
      vertex -1.11246 -2.5 0.723803
      vertex -1.11246 2.5 0.723803
    endloop
  endfacet
  facet normal 0.0314117 0 -0.999507
    outer loop
      vertex -0.226046 -2.5 0.892896
      vertex 0 2.5 0.9
      vertex 0 -2.5 0.9
    endloop
  endfacet
  facet normal 0.0314117 0 -0.999507
    outer loop
      vertex 0 2.5 0.9
      vertex -0.226046 -2.5 0.892896
      vertex -0.226046 2.5 0.892896
    endloop
  endfacet
  facet normal -0.94088 0 -0.338741
    outer loop
      vertex 3.4238 -2.5 -1.58754
      vertex 3.34719 2.5 -1.37475
      vertex 3.4238 2.5 -1.58754
    endloop
  endfacet
  facet normal -0.94088 -0 -0.338741
    outer loop
      vertex 3.34719 2.5 -1.37475
      vertex 3.4238 -2.5 -1.58754
      vertex 3.34719 -2.5 -1.37475
    endloop
  endfacet
  facet normal -0.750112 0 -0.661311
    outer loop
      vertex 2.77385 -2.5 -0.405273
      vertex 2.62429 2.5 -0.23563
      vertex 2.77385 2.5 -0.405273
    endloop
  endfacet
  facet normal -0.750112 -0 -0.661311
    outer loop
      vertex 2.62429 2.5 -0.23563
      vertex 2.77385 -2.5 -0.405273
      vertex 2.62429 -2.5 -0.23563
    endloop
  endfacet
  facet normal -0.890991 0 -0.454021
    outer loop
      vertex 3.25738 -2.5 -1.16719
      vertex 3.1547 2.5 -0.965686
      vertex 3.25738 2.5 -1.16719
    endloop
  endfacet
  facet normal -0.890991 -0 -0.454021
    outer loop
      vertex 3.1547 2.5 -0.965686
      vertex 3.25738 -2.5 -1.16719
      vertex 3.1547 -2.5 -0.965686
    endloop
  endfacet
  facet normal -0.860749 0 -0.50903
    outer loop
      vertex 3.1547 -2.5 -0.965686
      vertex 3.03958 2.5 -0.771023
      vertex 3.1547 2.5 -0.965686
    endloop
  endfacet
  facet normal -0.860749 -0 -0.50903
    outer loop
      vertex 3.03958 2.5 -0.771023
      vertex 3.1547 -2.5 -0.965686
      vertex 3.03958 -2.5 -0.771023
    endloop
  endfacet
  facet normal -0.278992 0 -0.960293
    outer loop
      vertex 0.895283 -2.5 0.786899
      vertex 1.11246 2.5 0.723803
      vertex 1.11246 -2.5 0.723803
    endloop
  endfacet
  facet normal -0.278992 0 -0.960293
    outer loop
      vertex 1.11246 2.5 0.723803
      vertex 0.895283 -2.5 0.786899
      vertex 0.895283 2.5 0.786899
    endloop
  endfacet
  facet normal -0.0941069 0 -0.995562
    outer loop
      vertex 0.226046 -2.5 0.892896
      vertex 0.4512 2.5 0.871613
      vertex 0.4512 -2.5 0.871613
    endloop
  endfacet
  facet normal -0.0941069 0 -0.995562
    outer loop
      vertex 0.4512 2.5 0.871613
      vertex 0.226046 -2.5 0.892896
      vertex 0.226046 2.5 0.892896
    endloop
  endfacet
  facet normal -0.661315 0 -0.750108
    outer loop
      vertex 2.29473 -2.5 0.0738468
      vertex 2.46437 2.5 -0.0757122
      vertex 2.46437 -2.5 -0.0757122
    endloop
  endfacet
  facet normal -0.661315 0 -0.750108
    outer loop
      vertex 2.46437 2.5 -0.0757122
      vertex 2.29473 -2.5 0.0738468
      vertex 2.29473 2.5 0.0738468
    endloop
  endfacet
  facet normal -0.612908 0 -0.790154
    outer loop
      vertex 2.11603 -2.5 0.212461
      vertex 2.29473 2.5 0.0738468
      vertex 2.29473 -2.5 0.0738468
    endloop
  endfacet
  facet normal -0.612908 0 -0.790154
    outer loop
      vertex 2.29473 2.5 0.0738468
      vertex 2.11603 -2.5 0.212461
      vertex 2.11603 2.5 0.212461
    endloop
  endfacet
  facet normal 0.790163 0 -0.612896
    outer loop
      vertex -2.77385 -2.5 -0.405273
      vertex -2.91246 2.5 -0.583973
      vertex -2.77385 2.5 -0.405273
    endloop
  endfacet
  facet normal 0.790163 0 -0.612896
    outer loop
      vertex -2.91246 2.5 -0.583973
      vertex -2.77385 -2.5 -0.405273
      vertex -2.91246 -2.5 -0.583973
    endloop
  endfacet
  facet normal 0.750112 0 -0.661311
    outer loop
      vertex -2.62429 -2.5 -0.23563
      vertex -2.77385 2.5 -0.405273
      vertex -2.62429 2.5 -0.23563
    endloop
  endfacet
  facet normal 0.750112 0 -0.661311
    outer loop
      vertex -2.77385 2.5 -0.405273
      vertex -2.62429 -2.5 -0.23563
      vertex -2.77385 -2.5 -0.405273
    endloop
  endfacet
  facet normal 0.94088 0 -0.338741
    outer loop
      vertex -3.34719 -2.5 -1.37475
      vertex -3.4238 2.5 -1.58754
      vertex -3.34719 2.5 -1.37475
    endloop
  endfacet
  facet normal 0.94088 0 -0.338741
    outer loop
      vertex -3.4238 2.5 -1.58754
      vertex -3.34719 -2.5 -1.37475
      vertex -3.4238 -2.5 -1.58754
    endloop
  endfacet
  facet normal 0.612908 0 -0.790154
    outer loop
      vertex -2.29473 -2.5 0.0738468
      vertex -2.11603 2.5 0.212461
      vertex -2.11603 -2.5 0.212461
    endloop
  endfacet
  facet normal 0.612908 0 -0.790154
    outer loop
      vertex -2.11603 2.5 0.212461
      vertex -2.29473 -2.5 0.0738468
      vertex -2.29473 2.5 0.0738468
    endloop
  endfacet
  facet normal 0.454007 0 -0.890998
    outer loop
      vertex -1.73431 -2.5 0.454703
      vertex -1.53281 2.5 0.557377
      vertex -1.53281 -2.5 0.557377
    endloop
  endfacet
  facet normal 0.454007 0 -0.890998
    outer loop
      vertex -1.53281 2.5 0.557377
      vertex -1.73431 -2.5 0.454703
      vertex -1.73431 2.5 0.454703
    endloop
  endfacet
  facet normal 0.707102 0 -0.707112
    outer loop
      vertex -2.46437 -2.5 -0.0757122
      vertex -2.62429 2.5 -0.23563
      vertex -2.46437 2.5 -0.0757122
    endloop
  endfacet
  facet normal 0.707102 0 -0.707112
    outer loop
      vertex -2.62429 2.5 -0.23563
      vertex -2.46437 -2.5 -0.0757122
      vertex -2.62429 -2.5 -0.23563
    endloop
  endfacet
endsolid OpenSCAD_Model
