solid OpenSCAD_Model
  facet normal -1 0 0
    outer loop
      vertex -5 -2.5 -2.5
      vertex -5 2.5 2.5
      vertex -5 2.5 -2.5
    endloop
  endfacet
  facet normal -1 -0 0
    outer loop
      vertex -5 2.5 2.5
      vertex -5 -2.5 -2.5
      vertex -5 -2.5 2.5
    endloop
  endfacet
  facet normal -0 0 1
    outer loop
      vertex -5 2.5 2.5
      vertex 5 -2.5 2.5
      vertex 5 2.5 2.5
    endloop
  endfacet
  facet normal 0 0 1
    outer loop
      vertex 5 -2.5 2.5
      vertex -5 2.5 2.5
      vertex -5 -2.5 2.5
    endloop
  endfacet
  facet normal 1 -0 0
    outer loop
      vertex 5 -2.5 2.5
      vertex 5 2.5 -2.5
      vertex 5 2.5 2.5
    endloop
  endfacet
  facet normal 1 0 0
    outer loop
      vertex 5 2.5 -2.5
      vertex 5 -2.5 2.5
      vertex 5 -2.5 -2.5
    endloop
  endfacet
  facet normal 0 1 0
    outer loop
      vertex 5 2.5 2.5
      vertex 0 2.5 1.5
      vertex -5 2.5 2.5
    endloop
  endfacet
  facet normal 0 1 0
    outer loop
      vertex 5 2.5 2.5
      vertex 0.232325 2.5 1.4927
      vertex 0 2.5 1.5
    endloop
  endfacet
  facet normal 0 1 0
    outer loop
      vertex 5 2.5 2.5
      vertex 0.463733 2.5 1.47082
      vertex 0.232325 2.5 1.4927
    endloop
  endfacet
  facet normal 0 1 0
    outer loop
      vertex 5 2.5 2.5
      vertex 0.693311 2.5 1.43446
      vertex 0.463733 2.5 1.47082
    endloop
  endfacet
  facet normal 0 1 0
    outer loop
      vertex 5 2.5 2.5
      vertex 0.920152 2.5 1.38376
      vertex 0.693311 2.5 1.43446
    endloop
  endfacet
  facet normal 0 1 0
    outer loop
      vertex 5 2.5 2.5
      vertex 1.14336 2.5 1.31891
      vertex 0.920152 2.5 1.38376
    endloop
  endfacet
  facet normal 0 1 0
    outer loop
      vertex 5 2.5 2.5
      vertex 1.36206 2.5 1.24017
      vertex 1.14336 2.5 1.31891
    endloop
  endfacet
  facet normal 0 1 0
    outer loop
      vertex 5 2.5 2.5
      vertex 1.57538 2.5 1.14786
      vertex 1.36206 2.5 1.24017
    endloop
  endfacet
  facet normal 0 1 0
    outer loop
      vertex 5 2.5 2.5
      vertex 1.78249 2.5 1.04233
      vertex 1.57538 2.5 1.14786
    endloop
  endfacet
  facet normal 0 1 0
    outer loop
      vertex 5 2.5 2.5
      vertex 1.98256 2.5 0.924013
      vertex 1.78249 2.5 1.04233
    endloop
  endfacet
  facet normal 0 1 0
    outer loop
      vertex 5 2.5 2.5
      vertex 2.1748 2.5 0.793363
      vertex 1.98256 2.5 0.924013
    endloop
  endfacet
  facet normal 0 1 0
    outer loop
      vertex 5 2.5 2.5
      vertex 2.35847 2.5 0.650899
      vertex 2.1748 2.5 0.793363
    endloop
  endfacet
  facet normal 0 1 0
    outer loop
      vertex 5 2.5 2.5
      vertex 2.53282 2.5 0.497184
      vertex 2.35847 2.5 0.650899
    endloop
  endfacet
  facet normal 0 1 0
    outer loop
      vertex 5 2.5 2.5
      vertex 2.69718 2.5 0.332824
      vertex 2.53282 2.5 0.497184
    endloop
  endfacet
  facet normal 0 1 0
    outer loop
      vertex 5 2.5 2.5
      vertex 2.8509 2.5 0.158468
      vertex 2.69718 2.5 0.332824
    endloop
  endfacet
  facet normal 0 1 0
    outer loop
      vertex 5 2.5 2.5
      vertex 2.99336 2.5 -0.0251942
      vertex 2.8509 2.5 0.158468
    endloop
  endfacet
  facet normal 0 1 0
    outer loop
      vertex 5 2.5 2.5
      vertex 3.12401 2.5 -0.217441
      vertex 2.99336 2.5 -0.0251942
    endloop
  endfacet
  facet normal 0 1 0
    outer loop
      vertex 5 2.5 2.5
      vertex 3.24233 2.5 -0.417511
      vertex 3.12401 2.5 -0.217441
    endloop
  endfacet
  facet normal 0 1 0
    outer loop
      vertex 5 2.5 2.5
      vertex 3.34786 2.5 -0.624616
      vertex 3.24233 2.5 -0.417511
    endloop
  endfacet
  facet normal 0 1 0
    outer loop
      vertex 5 2.5 2.5
      vertex 3.44017 2.5 -0.837938
      vertex 3.34786 2.5 -0.624616
    endloop
  endfacet
  facet normal 0 1 -0
    outer loop
      vertex 5 2.5 -2.5
      vertex 3.44017 2.5 -0.837938
      vertex 5 2.5 2.5
    endloop
  endfacet
  facet normal 0 1 0
    outer loop
      vertex 3.44017 2.5 -0.837938
      vertex 5 2.5 -2.5
      vertex 3.51891 2.5 -1.05664
    endloop
  endfacet
  facet normal 0 1 0
    outer loop
      vertex 3.51891 2.5 -1.05664
      vertex 5 2.5 -2.5
      vertex 3.58376 2.5 -1.27985
    endloop
  endfacet
  facet normal 0 1 0
    outer loop
      vertex 3.58376 2.5 -1.27985
      vertex 5 2.5 -2.5
      vertex 3.63446 2.5 -1.50669
    endloop
  endfacet
  facet normal 0 1 0
    outer loop
      vertex 3.63446 2.5 -1.50669
      vertex 5 2.5 -2.5
      vertex 3.67082 2.5 -1.73627
    endloop
  endfacet
  facet normal 0 1 0
    outer loop
      vertex 3.67082 2.5 -1.73627
      vertex 5 2.5 -2.5
      vertex 3.6927 2.5 -1.96767
    endloop
  endfacet
  facet normal 0 1 0
    outer loop
      vertex 3.6927 2.5 -1.96767
      vertex 5 2.5 -2.5
      vertex 3.7 2.5 -2.2
    endloop
  endfacet
  facet normal 0 1 0
    outer loop
      vertex 3.7 2.5 -2.2
      vertex 5 2.5 -2.5
      vertex 3.6927 2.5 -2.43232
    endloop
  endfacet
  facet normal 0 1 0
    outer loop
      vertex 3.6927 2.5 -2.43232
      vertex 5 2.5 -2.5
      vertex 3.6863 2.5 -2.5
    endloop
  endfacet
  facet normal 0 1 -0
    outer loop
      vertex -0.232325 2.5 1.4927
      vertex -5 2.5 2.5
      vertex 0 2.5 1.5
    endloop
  endfacet
  facet normal 0 1 -0
    outer loop
      vertex -0.463733 2.5 1.47082
      vertex -5 2.5 2.5
      vertex -0.232325 2.5 1.4927
    endloop
  endfacet
  facet normal 0 1 -0
    outer loop
      vertex -0.693311 2.5 1.43446
      vertex -5 2.5 2.5
      vertex -0.463733 2.5 1.47082
    endloop
  endfacet
  facet normal 0 1 -0
    outer loop
      vertex -0.920152 2.5 1.38376
      vertex -5 2.5 2.5
      vertex -0.693311 2.5 1.43446
    endloop
  endfacet
  facet normal 0 1 -0
    outer loop
      vertex -1.14336 2.5 1.31891
      vertex -5 2.5 2.5
      vertex -0.920152 2.5 1.38376
    endloop
  endfacet
  facet normal 0 1 -0
    outer loop
      vertex -1.36206 2.5 1.24017
      vertex -5 2.5 2.5
      vertex -1.14336 2.5 1.31891
    endloop
  endfacet
  facet normal 0 1 -0
    outer loop
      vertex -1.57538 2.5 1.14786
      vertex -5 2.5 2.5
      vertex -1.36206 2.5 1.24017
    endloop
  endfacet
  facet normal 0 1 -0
    outer loop
      vertex -1.78249 2.5 1.04233
      vertex -5 2.5 2.5
      vertex -1.57538 2.5 1.14786
    endloop
  endfacet
  facet normal 0 1 -0
    outer loop
      vertex -1.98256 2.5 0.924013
      vertex -5 2.5 2.5
      vertex -1.78249 2.5 1.04233
    endloop
  endfacet
  facet normal 0 1 -0
    outer loop
      vertex -2.1748 2.5 0.793363
      vertex -5 2.5 2.5
      vertex -1.98256 2.5 0.924013
    endloop
  endfacet
  facet normal 0 1 -0
    outer loop
      vertex -2.35847 2.5 0.650899
      vertex -5 2.5 2.5
      vertex -2.1748 2.5 0.793363
    endloop
  endfacet
  facet normal 0 1 -0
    outer loop
      vertex -2.53282 2.5 0.497184
      vertex -5 2.5 2.5
      vertex -2.35847 2.5 0.650899
    endloop
  endfacet
  facet normal 0 1 -0
    outer loop
      vertex -2.69718 2.5 0.332824
      vertex -5 2.5 2.5
      vertex -2.53282 2.5 0.497184
    endloop
  endfacet
  facet normal 0 1 -0
    outer loop
      vertex -2.8509 2.5 0.158468
      vertex -5 2.5 2.5
      vertex -2.69718 2.5 0.332824
    endloop
  endfacet
  facet normal 0 1 -0
    outer loop
      vertex -2.99336 2.5 -0.0251942
      vertex -5 2.5 2.5
      vertex -2.8509 2.5 0.158468
    endloop
  endfacet
  facet normal 0 1 -0
    outer loop
      vertex -3.12401 2.5 -0.217441
      vertex -5 2.5 2.5
      vertex -2.99336 2.5 -0.0251942
    endloop
  endfacet
  facet normal 0 1 -0
    outer loop
      vertex -3.24233 2.5 -0.417511
      vertex -5 2.5 2.5
      vertex -3.12401 2.5 -0.217441
    endloop
  endfacet
  facet normal 0 1 -0
    outer loop
      vertex -3.34786 2.5 -0.624616
      vertex -5 2.5 2.5
      vertex -3.24233 2.5 -0.417511
    endloop
  endfacet
  facet normal 0 1 -0
    outer loop
      vertex -3.44017 2.5 -0.837938
      vertex -5 2.5 2.5
      vertex -3.34786 2.5 -0.624616
    endloop
  endfacet
  facet normal 0 1 0
    outer loop
      vertex -5 2.5 -2.5
      vertex -3.44017 2.5 -0.837938
      vertex -3.51891 2.5 -1.05664
    endloop
  endfacet
  facet normal 0 1 0
    outer loop
      vertex -5 2.5 -2.5
      vertex -3.51891 2.5 -1.05664
      vertex -3.58376 2.5 -1.27985
    endloop
  endfacet
  facet normal 0 1 0
    outer loop
      vertex -5 2.5 -2.5
      vertex -3.58376 2.5 -1.27985
      vertex -3.63446 2.5 -1.50669
    endloop
  endfacet
  facet normal 0 1 0
    outer loop
      vertex -5 2.5 -2.5
      vertex -3.63446 2.5 -1.50669
      vertex -3.67082 2.5 -1.73627
    endloop
  endfacet
  facet normal 0 1 0
    outer loop
      vertex -5 2.5 -2.5
      vertex -3.67082 2.5 -1.73627
      vertex -3.6927 2.5 -1.96767
    endloop
  endfacet
  facet normal 0 1 0
    outer loop
      vertex -5 2.5 -2.5
      vertex -3.6927 2.5 -1.96767
      vertex -3.7 2.5 -2.2
    endloop
  endfacet
  facet normal 0 1 0
    outer loop
      vertex -5 2.5 -2.5
      vertex -3.7 2.5 -2.2
      vertex -3.6927 2.5 -2.43232
    endloop
  endfacet
  facet normal 0 1 0
    outer loop
      vertex -5 2.5 -2.5
      vertex -3.6927 2.5 -2.43232
      vertex -3.6863 2.5 -2.5
    endloop
  endfacet
  facet normal 0 1 0
    outer loop
      vertex -3.44017 2.5 -0.837938
      vertex -5 2.5 -2.5
      vertex -5 2.5 2.5
    endloop
  endfacet
  facet normal 0 0 -1
    outer loop
      vertex -5 -2.5 -2.5
      vertex -3.6863 2.5 -2.5
      vertex -3.6863 -2.5 -2.5
    endloop
  endfacet
  facet normal -0 0 -1
    outer loop
      vertex -3.6863 2.5 -2.5
      vertex -5 -2.5 -2.5
      vertex -5 2.5 -2.5
    endloop
  endfacet
  facet normal 0 0 -1
    outer loop
      vertex 3.6863 -2.5 -2.5
      vertex 5 2.5 -2.5
      vertex 5 -2.5 -2.5
    endloop
  endfacet
  facet normal -0 0 -1
    outer loop
      vertex 5 2.5 -2.5
      vertex 3.6863 -2.5 -2.5
      vertex 3.6863 2.5 -2.5
    endloop
  endfacet
  facet normal 0 -1 0
    outer loop
      vertex -5 -2.5 2.5
      vertex 0 -2.5 1.5
      vertex 5 -2.5 2.5
    endloop
  endfacet
  facet normal 0 -1 0
    outer loop
      vertex -5 -2.5 2.5
      vertex -0.232325 -2.5 1.4927
      vertex 0 -2.5 1.5
    endloop
  endfacet
  facet normal 0 -1 0
    outer loop
      vertex -5 -2.5 2.5
      vertex -0.463733 -2.5 1.47082
      vertex -0.232325 -2.5 1.4927
    endloop
  endfacet
  facet normal 0 -1 0
    outer loop
      vertex -5 -2.5 2.5
      vertex -0.693311 -2.5 1.43446
      vertex -0.463733 -2.5 1.47082
    endloop
  endfacet
  facet normal 0 -1 0
    outer loop
      vertex -5 -2.5 2.5
      vertex -0.920152 -2.5 1.38376
      vertex -0.693311 -2.5 1.43446
    endloop
  endfacet
  facet normal 0 -1 0
    outer loop
      vertex -5 -2.5 2.5
      vertex -1.14336 -2.5 1.31891
      vertex -0.920152 -2.5 1.38376
    endloop
  endfacet
  facet normal 0 -1 0
    outer loop
      vertex -5 -2.5 2.5
      vertex -1.36206 -2.5 1.24017
      vertex -1.14336 -2.5 1.31891
    endloop
  endfacet
  facet normal 0 -1 0
    outer loop
      vertex -5 -2.5 2.5
      vertex -1.57538 -2.5 1.14786
      vertex -1.36206 -2.5 1.24017
    endloop
  endfacet
  facet normal 0 -1 0
    outer loop
      vertex -5 -2.5 2.5
      vertex -1.78249 -2.5 1.04233
      vertex -1.57538 -2.5 1.14786
    endloop
  endfacet
  facet normal 0 -1 0
    outer loop
      vertex -5 -2.5 2.5
      vertex -1.98256 -2.5 0.924013
      vertex -1.78249 -2.5 1.04233
    endloop
  endfacet
  facet normal 0 -1 0
    outer loop
      vertex -5 -2.5 2.5
      vertex -2.1748 -2.5 0.793363
      vertex -1.98256 -2.5 0.924013
    endloop
  endfacet
  facet normal 0 -1 0
    outer loop
      vertex -5 -2.5 2.5
      vertex -2.35847 -2.5 0.650899
      vertex -2.1748 -2.5 0.793363
    endloop
  endfacet
  facet normal 0 -1 0
    outer loop
      vertex -5 -2.5 2.5
      vertex -2.53282 -2.5 0.497184
      vertex -2.35847 -2.5 0.650899
    endloop
  endfacet
  facet normal 0 -1 0
    outer loop
      vertex -5 -2.5 2.5
      vertex -2.69718 -2.5 0.332824
      vertex -2.53282 -2.5 0.497184
    endloop
  endfacet
  facet normal 0 -1 0
    outer loop
      vertex -5 -2.5 2.5
      vertex -2.8509 -2.5 0.158468
      vertex -2.69718 -2.5 0.332824
    endloop
  endfacet
  facet normal 0 -1 0
    outer loop
      vertex -5 -2.5 2.5
      vertex -2.99336 -2.5 -0.0251942
      vertex -2.8509 -2.5 0.158468
    endloop
  endfacet
  facet normal 0 -1 0
    outer loop
      vertex -5 -2.5 2.5
      vertex -3.12401 -2.5 -0.217441
      vertex -2.99336 -2.5 -0.0251942
    endloop
  endfacet
  facet normal 0 -1 0
    outer loop
      vertex -5 -2.5 2.5
      vertex -3.24233 -2.5 -0.417511
      vertex -3.12401 -2.5 -0.217441
    endloop
  endfacet
  facet normal 0 -1 0
    outer loop
      vertex -5 -2.5 2.5
      vertex -3.34786 -2.5 -0.624616
      vertex -3.24233 -2.5 -0.417511
    endloop
  endfacet
  facet normal 0 -1 0
    outer loop
      vertex -5 -2.5 2.5
      vertex -3.44017 -2.5 -0.837938
      vertex -3.34786 -2.5 -0.624616
    endloop
  endfacet
  facet normal 0 -1 0
    outer loop
      vertex -5 -2.5 -2.5
      vertex -3.44017 -2.5 -0.837938
      vertex -5 -2.5 2.5
    endloop
  endfacet
  facet normal 0 -1 0
    outer loop
      vertex -3.44017 -2.5 -0.837938
      vertex -5 -2.5 -2.5
      vertex -3.51891 -2.5 -1.05664
    endloop
  endfacet
  facet normal 0 -1 0
    outer loop
      vertex -3.51891 -2.5 -1.05664
      vertex -5 -2.5 -2.5
      vertex -3.58376 -2.5 -1.27985
    endloop
  endfacet
  facet normal 0 -1 0
    outer loop
      vertex -3.58376 -2.5 -1.27985
      vertex -5 -2.5 -2.5
      vertex -3.63446 -2.5 -1.50669
    endloop
  endfacet
  facet normal 0 -1 0
    outer loop
      vertex -3.63446 -2.5 -1.50669
      vertex -5 -2.5 -2.5
      vertex -3.67082 -2.5 -1.73627
    endloop
  endfacet
  facet normal 0 -1 0
    outer loop
      vertex -3.67082 -2.5 -1.73627
      vertex -5 -2.5 -2.5
      vertex -3.6927 -2.5 -1.96767
    endloop
  endfacet
  facet normal 0 -1 0
    outer loop
      vertex -3.6927 -2.5 -1.96767
      vertex -5 -2.5 -2.5
      vertex -3.7 -2.5 -2.2
    endloop
  endfacet
  facet normal 0 -1 -0
    outer loop
      vertex -3.7 -2.5 -2.2
      vertex -5 -2.5 -2.5
      vertex -3.6927 -2.5 -2.43232
    endloop
  endfacet
  facet normal 0 -1 -0
    outer loop
      vertex -3.6927 -2.5 -2.43232
      vertex -5 -2.5 -2.5
      vertex -3.6863 -2.5 -2.5
    endloop
  endfacet
  facet normal 0 -1 0
    outer loop
      vertex 0.232325 -2.5 1.4927
      vertex 5 -2.5 2.5
      vertex 0 -2.5 1.5
    endloop
  endfacet
  facet normal 0 -1 0
    outer loop
      vertex 0.463733 -2.5 1.47082
      vertex 5 -2.5 2.5
      vertex 0.232325 -2.5 1.4927
    endloop
  endfacet
  facet normal 0 -1 0
    outer loop
      vertex 0.693311 -2.5 1.43446
      vertex 5 -2.5 2.5
      vertex 0.463733 -2.5 1.47082
    endloop
  endfacet
  facet normal 0 -1 0
    outer loop
      vertex 0.920152 -2.5 1.38376
      vertex 5 -2.5 2.5
      vertex 0.693311 -2.5 1.43446
    endloop
  endfacet
  facet normal 0 -1 0
    outer loop
      vertex 1.14336 -2.5 1.31891
      vertex 5 -2.5 2.5
      vertex 0.920152 -2.5 1.38376
    endloop
  endfacet
  facet normal 0 -1 0
    outer loop
      vertex 1.36206 -2.5 1.24017
      vertex 5 -2.5 2.5
      vertex 1.14336 -2.5 1.31891
    endloop
  endfacet
  facet normal 0 -1 0
    outer loop
      vertex 1.57538 -2.5 1.14786
      vertex 5 -2.5 2.5
      vertex 1.36206 -2.5 1.24017
    endloop
  endfacet
  facet normal 0 -1 0
    outer loop
      vertex 1.78249 -2.5 1.04233
      vertex 5 -2.5 2.5
      vertex 1.57538 -2.5 1.14786
    endloop
  endfacet
  facet normal 0 -1 0
    outer loop
      vertex 1.98256 -2.5 0.924013
      vertex 5 -2.5 2.5
      vertex 1.78249 -2.5 1.04233
    endloop
  endfacet
  facet normal 0 -1 0
    outer loop
      vertex 2.1748 -2.5 0.793363
      vertex 5 -2.5 2.5
      vertex 1.98256 -2.5 0.924013
    endloop
  endfacet
  facet normal 0 -1 0
    outer loop
      vertex 2.35847 -2.5 0.650899
      vertex 5 -2.5 2.5
      vertex 2.1748 -2.5 0.793363
    endloop
  endfacet
  facet normal 0 -1 0
    outer loop
      vertex 2.53282 -2.5 0.497184
      vertex 5 -2.5 2.5
      vertex 2.35847 -2.5 0.650899
    endloop
  endfacet
  facet normal 0 -1 0
    outer loop
      vertex 2.69718 -2.5 0.332824
      vertex 5 -2.5 2.5
      vertex 2.53282 -2.5 0.497184
    endloop
  endfacet
  facet normal 0 -1 0
    outer loop
      vertex 2.8509 -2.5 0.158468
      vertex 5 -2.5 2.5
      vertex 2.69718 -2.5 0.332824
    endloop
  endfacet
  facet normal 0 -1 0
    outer loop
      vertex 2.99336 -2.5 -0.0251942
      vertex 5 -2.5 2.5
      vertex 2.8509 -2.5 0.158468
    endloop
  endfacet
  facet normal 0 -1 0
    outer loop
      vertex 3.12401 -2.5 -0.217441
      vertex 5 -2.5 2.5
      vertex 2.99336 -2.5 -0.0251942
    endloop
  endfacet
  facet normal 0 -1 0
    outer loop
      vertex 3.24233 -2.5 -0.417511
      vertex 5 -2.5 2.5
      vertex 3.12401 -2.5 -0.217441
    endloop
  endfacet
  facet normal 0 -1 0
    outer loop
      vertex 3.34786 -2.5 -0.624616
      vertex 5 -2.5 2.5
      vertex 3.24233 -2.5 -0.417511
    endloop
  endfacet
  facet normal 0 -1 0
    outer loop
      vertex 3.44017 -2.5 -0.837938
      vertex 5 -2.5 2.5
      vertex 3.34786 -2.5 -0.624616
    endloop
  endfacet
  facet normal 0 -1 0
    outer loop
      vertex 5 -2.5 -2.5
      vertex 3.44017 -2.5 -0.837938
      vertex 3.51891 -2.5 -1.05664
    endloop
  endfacet
  facet normal 0 -1 0
    outer loop
      vertex 5 -2.5 -2.5
      vertex 3.51891 -2.5 -1.05664
      vertex 3.58376 -2.5 -1.27985
    endloop
  endfacet
  facet normal 0 -1 0
    outer loop
      vertex 5 -2.5 -2.5
      vertex 3.58376 -2.5 -1.27985
      vertex 3.63446 -2.5 -1.50669
    endloop
  endfacet
  facet normal 0 -1 0
    outer loop
      vertex 5 -2.5 -2.5
      vertex 3.63446 -2.5 -1.50669
      vertex 3.67082 -2.5 -1.73627
    endloop
  endfacet
  facet normal 0 -1 0
    outer loop
      vertex 5 -2.5 -2.5
      vertex 3.67082 -2.5 -1.73627
      vertex 3.6927 -2.5 -1.96767
    endloop
  endfacet
  facet normal 0 -1 0
    outer loop
      vertex 5 -2.5 -2.5
      vertex 3.6927 -2.5 -1.96767
      vertex 3.7 -2.5 -2.2
    endloop
  endfacet
  facet normal 0 -1 0
    outer loop
      vertex 5 -2.5 -2.5
      vertex 3.7 -2.5 -2.2
      vertex 3.6927 -2.5 -2.43232
    endloop
  endfacet
  facet normal 0 -1 0
    outer loop
      vertex 5 -2.5 -2.5
      vertex 3.6927 -2.5 -2.43232
      vertex 3.6863 -2.5 -2.5
    endloop
  endfacet
  facet normal 0 -1 0
    outer loop
      vertex 3.44017 -2.5 -0.837938
      vertex 5 -2.5 -2.5
      vertex 5 -2.5 2.5
    endloop
  endfacet
  facet normal -0.999507 0 -0.0314053
    outer loop
      vertex 3.7 -2.5 -2.2
      vertex 3.6927 2.5 -1.96767
      vertex 3.7 2.5 -2.2
    endloop
  endfacet
  facet normal -0.999507 -0 -0.0314053
    outer loop
      vertex 3.6927 2.5 -1.96767
      vertex 3.7 -2.5 -2.2
      vertex 3.6927 -2.5 -1.96767
    endloop
  endfacet
  facet normal -0.995559 0 -0.094135
    outer loop
      vertex 3.6927 -2.5 -1.96767
      vertex 3.67082 2.5 -1.73627
      vertex 3.6927 2.5 -1.96767
    endloop
  endfacet
  facet normal -0.995559 -0 -0.094135
    outer loop
      vertex 3.67082 2.5 -1.73627
      vertex 3.6927 -2.5 -1.96767
      vertex 3.67082 -2.5 -1.73627
    endloop
  endfacet
  facet normal 0.999507 0 -0.0314053
    outer loop
      vertex -3.6927 -2.5 -1.96767
      vertex -3.7 2.5 -2.2
      vertex -3.6927 2.5 -1.96767
    endloop
  endfacet
  facet normal 0.999507 0 -0.0314053
    outer loop
      vertex -3.7 2.5 -2.2
      vertex -3.6927 -2.5 -1.96767
      vertex -3.7 -2.5 -2.2
    endloop
  endfacet
  facet normal -0.031406 0 -0.999507
    outer loop
      vertex 0 -2.5 1.5
      vertex 0.232325 2.5 1.4927
      vertex 0.232325 -2.5 1.4927
    endloop
  endfacet
  facet normal -0.031406 0 -0.999507
    outer loop
      vertex 0.232325 2.5 1.4927
      vertex 0 -2.5 1.5
      vertex 0 2.5 1.5
    endloop
  endfacet
  facet normal -0.707107 0 -0.707107
    outer loop
      vertex 2.69718 -2.5 0.332824
      vertex 2.53282 2.5 0.497184
      vertex 2.69718 2.5 0.332824
    endloop
  endfacet
  facet normal -0.707107 -0 -0.707107
    outer loop
      vertex 2.53282 2.5 0.497184
      vertex 2.69718 -2.5 0.332824
      vertex 2.53282 -2.5 0.497184
    endloop
  endfacet
  facet normal 0.661323 0 -0.750101
    outer loop
      vertex -2.53282 -2.5 0.497184
      vertex -2.35847 2.5 0.650899
      vertex -2.35847 -2.5 0.650899
    endloop
  endfacet
  facet normal 0.661323 0 -0.750101
    outer loop
      vertex -2.35847 2.5 0.650899
      vertex -2.53282 -2.5 0.497184
      vertex -2.53282 2.5 0.497184
    endloop
  endfacet
  facet normal -0.917759 0 -0.397138
    outer loop
      vertex 3.44017 -2.5 -0.837938
      vertex 3.34786 2.5 -0.624616
      vertex 3.44017 2.5 -0.837938
    endloop
  endfacet
  facet normal -0.917759 -0 -0.397138
    outer loop
      vertex 3.34786 2.5 -0.624616
      vertex 3.44017 -2.5 -0.837938
      vertex 3.34786 -2.5 -0.624616
    endloop
  endfacet
  facet normal 0.156428 0 -0.987689
    outer loop
      vertex -0.693311 -2.5 1.43446
      vertex -0.463733 2.5 1.47082
      vertex -0.463733 -2.5 1.47082
    endloop
  endfacet
  facet normal 0.156428 0 -0.987689
    outer loop
      vertex -0.463733 2.5 1.47082
      vertex -0.693311 -2.5 1.43446
      vertex -0.693311 2.5 1.43446
    endloop
  endfacet
  facet normal -0.890998 0 -0.454007
    outer loop
      vertex 3.34786 -2.5 -0.624616
      vertex 3.24233 2.5 -0.417511
      vertex 3.34786 2.5 -0.624616
    endloop
  endfacet
  facet normal -0.890998 -0 -0.454007
    outer loop
      vertex 3.24233 2.5 -0.417511
      vertex 3.34786 -2.5 -0.624616
      vertex 3.24233 -2.5 -0.417511
    endloop
  endfacet
  facet normal -0.750101 0 -0.661323
    outer loop
      vertex 2.8509 -2.5 0.158468
      vertex 2.69718 2.5 0.332824
      vertex 2.8509 2.5 0.158468
    endloop
  endfacet
  facet normal -0.750101 -0 -0.661323
    outer loop
      vertex 2.69718 2.5 0.332824
      vertex 2.8509 -2.5 0.158468
      vertex 2.69718 -2.5 0.332824
    endloop
  endfacet
  facet normal -0.218123 0 -0.975921
    outer loop
      vertex 0.693311 -2.5 1.43446
      vertex 0.920152 2.5 1.38376
      vertex 0.920152 -2.5 1.38376
    endloop
  endfacet
  facet normal -0.218123 0 -0.975921
    outer loop
      vertex 0.920152 2.5 1.38376
      vertex 0.693311 -2.5 1.43446
      vertex 0.693311 2.5 1.43446
    endloop
  endfacet
  facet normal -0.661323 0 -0.750101
    outer loop
      vertex 2.35847 -2.5 0.650899
      vertex 2.53282 2.5 0.497184
      vertex 2.53282 -2.5 0.497184
    endloop
  endfacet
  facet normal -0.661323 0 -0.750101
    outer loop
      vertex 2.53282 2.5 0.497184
      vertex 2.35847 -2.5 0.650899
      vertex 2.35847 2.5 0.650899
    endloop
  endfacet
  facet normal 0.790161 0 -0.612899
    outer loop
      vertex -2.8509 -2.5 0.158468
      vertex -2.99336 2.5 -0.0251942
      vertex -2.8509 2.5 0.158468
    endloop
  endfacet
  facet normal 0.790161 0 -0.612899
    outer loop
      vertex -2.99336 2.5 -0.0251942
      vertex -2.8509 -2.5 0.158468
      vertex -2.99336 -2.5 -0.0251942
    endloop
  endfacet
  facet normal 0.890998 0 -0.454007
    outer loop
      vertex -3.24233 -2.5 -0.417511
      vertex -3.34786 2.5 -0.624616
      vertex -3.24233 2.5 -0.417511
    endloop
  endfacet
  facet normal 0.890998 0 -0.454007
    outer loop
      vertex -3.34786 2.5 -0.624616
      vertex -3.24233 -2.5 -0.417511
      vertex -3.34786 -2.5 -0.624616
    endloop
  endfacet
  facet normal 0.827082 0 -0.562081
    outer loop
      vertex -2.99336 -2.5 -0.0251942
      vertex -3.12401 2.5 -0.217441
      vertex -2.99336 2.5 -0.0251942
    endloop
  endfacet
  facet normal 0.827082 0 -0.562081
    outer loop
      vertex -3.12401 2.5 -0.217441
      vertex -2.99336 -2.5 -0.0251942
      vertex -3.12401 -2.5 -0.217441
    endloop
  endfacet
  facet normal 0.960292 0 -0.278997
    outer loop
      vertex -3.51891 -2.5 -1.05664
      vertex -3.58376 2.5 -1.27985
      vertex -3.51891 2.5 -1.05664
    endloop
  endfacet
  facet normal 0.960292 0 -0.278997
    outer loop
      vertex -3.58376 2.5 -1.27985
      vertex -3.51891 -2.5 -1.05664
      vertex -3.58376 -2.5 -1.27985
    endloop
  endfacet
  facet normal 0.975921 0 -0.218124
    outer loop
      vertex -3.58376 -2.5 -1.27985
      vertex -3.63446 2.5 -1.50669
      vertex -3.58376 2.5 -1.27985
    endloop
  endfacet
  facet normal 0.975921 0 -0.218124
    outer loop
      vertex -3.63446 2.5 -1.50669
      vertex -3.58376 -2.5 -1.27985
      vertex -3.63446 -2.5 -1.50669
    endloop
  endfacet
  facet normal 0.509028 0 -0.86075
    outer loop
      vertex -1.98256 -2.5 0.924013
      vertex -1.78249 2.5 1.04233
      vertex -1.78249 -2.5 1.04233
    endloop
  endfacet
  facet normal 0.509028 0 -0.86075
    outer loop
      vertex -1.78249 2.5 1.04233
      vertex -1.98256 -2.5 0.924013
      vertex -1.98256 2.5 0.924013
    endloop
  endfacet
  facet normal 0.612893 0 -0.790166
    outer loop
      vertex -2.35847 -2.5 0.650899
      vertex -2.1748 2.5 0.793363
      vertex -2.1748 -2.5 0.793363
    endloop
  endfacet
  facet normal 0.612893 0 -0.790166
    outer loop
      vertex -2.1748 2.5 0.793363
      vertex -2.35847 -2.5 0.650899
      vertex -2.35847 2.5 0.650899
    endloop
  endfacet
  facet normal 0.0941318 0 -0.99556
    outer loop
      vertex -0.463733 -2.5 1.47082
      vertex -0.232325 2.5 1.4927
      vertex -0.232325 -2.5 1.4927
    endloop
  endfacet
  facet normal 0.0941318 0 -0.99556
    outer loop
      vertex -0.232325 2.5 1.4927
      vertex -0.463733 -2.5 1.47082
      vertex -0.463733 2.5 1.47082
    endloop
  endfacet
  facet normal -0.975921 0 -0.218124
    outer loop
      vertex 3.63446 -2.5 -1.50669
      vertex 3.58376 2.5 -1.27985
      vertex 3.63446 2.5 -1.50669
    endloop
  endfacet
  facet normal -0.975921 -0 -0.218124
    outer loop
      vertex 3.58376 2.5 -1.27985
      vertex 3.63446 -2.5 -1.50669
      vertex 3.58376 -2.5 -1.27985
    endloop
  endfacet
  facet normal -0.940877 0 -0.338747
    outer loop
      vertex 3.51891 -2.5 -1.05664
      vertex 3.44017 2.5 -0.837938
      vertex 3.51891 2.5 -1.05664
    endloop
  endfacet
  facet normal -0.940877 -0 -0.338747
    outer loop
      vertex 3.44017 2.5 -0.837938
      vertex 3.51891 -2.5 -1.05664
      vertex 3.44017 -2.5 -0.837938
    endloop
  endfacet
  facet normal -0.960292 0 -0.278997
    outer loop
      vertex 3.58376 -2.5 -1.27985
      vertex 3.51891 2.5 -1.05664
      vertex 3.58376 2.5 -1.27985
    endloop
  endfacet
  facet normal -0.960292 -0 -0.278997
    outer loop
      vertex 3.51891 2.5 -1.05664
      vertex 3.58376 -2.5 -1.27985
      vertex 3.51891 -2.5 -1.05664
    endloop
  endfacet
  facet normal -0.790161 0 -0.612899
    outer loop
      vertex 2.99336 -2.5 -0.0251942
      vertex 2.8509 2.5 0.158468
      vertex 2.99336 2.5 -0.0251942
    endloop
  endfacet
  facet normal -0.790161 -0 -0.612899
    outer loop
      vertex 2.8509 2.5 0.158468
      vertex 2.99336 -2.5 -0.0251942
      vertex 2.8509 -2.5 0.158468
    endloop
  endfacet
  facet normal -0.156428 0 -0.987689
    outer loop
      vertex 0.463733 -2.5 1.47082
      vertex 0.693311 2.5 1.43446
      vertex 0.693311 -2.5 1.43446
    endloop
  endfacet
  facet normal -0.156428 0 -0.987689
    outer loop
      vertex 0.693311 2.5 1.43446
      vertex 0.463733 -2.5 1.47082
      vertex 0.463733 2.5 1.47082
    endloop
  endfacet
  facet normal -0.278999 0 -0.960291
    outer loop
      vertex 0.920152 -2.5 1.38376
      vertex 1.14336 2.5 1.31891
      vertex 1.14336 -2.5 1.31891
    endloop
  endfacet
  facet normal -0.278999 0 -0.960291
    outer loop
      vertex 1.14336 2.5 1.31891
      vertex 0.920152 -2.5 1.38376
      vertex 0.920152 2.5 1.38376
    endloop
  endfacet
  facet normal -0.397141 0 -0.917757
    outer loop
      vertex 1.36206 -2.5 1.24017
      vertex 1.57538 2.5 1.14786
      vertex 1.57538 -2.5 1.14786
    endloop
  endfacet
  facet normal -0.397141 0 -0.917757
    outer loop
      vertex 1.57538 2.5 1.14786
      vertex 1.36206 -2.5 1.24017
      vertex 1.36206 2.5 1.24017
    endloop
  endfacet
  facet normal -0.509028 0 -0.86075
    outer loop
      vertex 1.78249 -2.5 1.04233
      vertex 1.98256 2.5 0.924013
      vertex 1.98256 -2.5 0.924013
    endloop
  endfacet
  facet normal -0.509028 0 -0.86075
    outer loop
      vertex 1.98256 2.5 0.924013
      vertex 1.78249 -2.5 1.04233
      vertex 1.78249 2.5 1.04233
    endloop
  endfacet
  facet normal 0.98769 0 -0.156426
    outer loop
      vertex -3.63446 -2.5 -1.50669
      vertex -3.67082 2.5 -1.73627
      vertex -3.63446 2.5 -1.50669
    endloop
  endfacet
  facet normal 0.98769 0 -0.156426
    outer loop
      vertex -3.67082 2.5 -1.73627
      vertex -3.63446 -2.5 -1.50669
      vertex -3.67082 -2.5 -1.73627
    endloop
  endfacet
  facet normal 0.860744 0 -0.509038
    outer loop
      vertex -3.12401 -2.5 -0.217441
      vertex -3.24233 2.5 -0.417511
      vertex -3.12401 2.5 -0.217441
    endloop
  endfacet
  facet normal 0.860744 0 -0.509038
    outer loop
      vertex -3.24233 2.5 -0.417511
      vertex -3.12401 -2.5 -0.217441
      vertex -3.24233 -2.5 -0.417511
    endloop
  endfacet
  facet normal 0.917759 0 -0.397138
    outer loop
      vertex -3.34786 -2.5 -0.624616
      vertex -3.44017 2.5 -0.837938
      vertex -3.34786 2.5 -0.624616
    endloop
  endfacet
  facet normal 0.917759 0 -0.397138
    outer loop
      vertex -3.44017 2.5 -0.837938
      vertex -3.34786 -2.5 -0.624616
      vertex -3.44017 -2.5 -0.837938
    endloop
  endfacet
  facet normal 0.562095 0 -0.827073
    outer loop
      vertex -2.1748 -2.5 0.793363
      vertex -1.98256 2.5 0.924013
      vertex -1.98256 -2.5 0.924013
    endloop
  endfacet
  facet normal 0.562095 0 -0.827073
    outer loop
      vertex -1.98256 2.5 0.924013
      vertex -2.1748 -2.5 0.793363
      vertex -2.1748 2.5 0.793363
    endloop
  endfacet
  facet normal 0.453998 0 -0.891003
    outer loop
      vertex -1.78249 -2.5 1.04233
      vertex -1.57538 2.5 1.14786
      vertex -1.57538 -2.5 1.14786
    endloop
  endfacet
  facet normal 0.453998 0 -0.891003
    outer loop
      vertex -1.57538 2.5 1.14786
      vertex -1.78249 -2.5 1.04233
      vertex -1.78249 2.5 1.04233
    endloop
  endfacet
  facet normal 0.33875 0 -0.940876
    outer loop
      vertex -1.36206 -2.5 1.24017
      vertex -1.14336 2.5 1.31891
      vertex -1.14336 -2.5 1.31891
    endloop
  endfacet
  facet normal 0.33875 0 -0.940876
    outer loop
      vertex -1.14336 2.5 1.31891
      vertex -1.36206 -2.5 1.24017
      vertex -1.36206 2.5 1.24017
    endloop
  endfacet
  facet normal 0.218123 0 -0.975921
    outer loop
      vertex -0.920152 -2.5 1.38376
      vertex -0.693311 2.5 1.43446
      vertex -0.693311 -2.5 1.43446
    endloop
  endfacet
  facet normal 0.218123 0 -0.975921
    outer loop
      vertex -0.693311 2.5 1.43446
      vertex -0.920152 -2.5 1.38376
      vertex -0.920152 2.5 1.38376
    endloop
  endfacet
  facet normal 0.031406 0 -0.999507
    outer loop
      vertex -0.232325 -2.5 1.4927
      vertex 0 2.5 1.5
      vertex 0 -2.5 1.5
    endloop
  endfacet
  facet normal 0.031406 0 -0.999507
    outer loop
      vertex 0 2.5 1.5
      vertex -0.232325 -2.5 1.4927
      vertex -0.232325 2.5 1.4927
    endloop
  endfacet
  facet normal 0.999507 -0 0.0314067
    outer loop
      vertex -3.7 -2.5 -2.2
      vertex -3.6927 2.5 -2.43232
      vertex -3.7 2.5 -2.2
    endloop
  endfacet
  facet normal 0.999507 0 0.0314067
    outer loop
      vertex -3.6927 2.5 -2.43232
      vertex -3.7 -2.5 -2.2
      vertex -3.6927 -2.5 -2.43232
    endloop
  endfacet
  facet normal -0.98769 0 -0.156426
    outer loop
      vertex 3.67082 -2.5 -1.73627
      vertex 3.63446 2.5 -1.50669
      vertex 3.67082 2.5 -1.73627
    endloop
  endfacet
  facet normal -0.98769 -0 -0.156426
    outer loop
      vertex 3.63446 2.5 -1.50669
      vertex 3.67082 -2.5 -1.73627
      vertex 3.63446 -2.5 -1.50669
    endloop
  endfacet
  facet normal -0.860744 0 -0.509038
    outer loop
      vertex 3.24233 -2.5 -0.417511
      vertex 3.12401 2.5 -0.217441
      vertex 3.24233 2.5 -0.417511
    endloop
  endfacet
  facet normal -0.860744 -0 -0.509038
    outer loop
      vertex 3.12401 2.5 -0.217441
      vertex 3.24233 -2.5 -0.417511
      vertex 3.12401 -2.5 -0.217441
    endloop
  endfacet
  facet normal -0.827082 0 -0.562081
    outer loop
      vertex 3.12401 -2.5 -0.217441
      vertex 2.99336 2.5 -0.0251942
      vertex 3.12401 2.5 -0.217441
    endloop
  endfacet
  facet normal -0.827082 -0 -0.562081
    outer loop
      vertex 2.99336 2.5 -0.0251942
      vertex 3.12401 -2.5 -0.217441
      vertex 2.99336 -2.5 -0.0251942
    endloop
  endfacet
  facet normal -0.33875 0 -0.940876
    outer loop
      vertex 1.14336 -2.5 1.31891
      vertex 1.36206 2.5 1.24017
      vertex 1.36206 -2.5 1.24017
    endloop
  endfacet
  facet normal -0.33875 0 -0.940876
    outer loop
      vertex 1.36206 2.5 1.24017
      vertex 1.14336 -2.5 1.31891
      vertex 1.14336 2.5 1.31891
    endloop
  endfacet
  facet normal -0.0941318 0 -0.99556
    outer loop
      vertex 0.232325 -2.5 1.4927
      vertex 0.463733 2.5 1.47082
      vertex 0.463733 -2.5 1.47082
    endloop
  endfacet
  facet normal -0.0941318 0 -0.99556
    outer loop
      vertex 0.463733 2.5 1.47082
      vertex 0.232325 -2.5 1.4927
      vertex 0.232325 2.5 1.4927
    endloop
  endfacet
  facet normal -0.453998 0 -0.891003
    outer loop
      vertex 1.57538 -2.5 1.14786
      vertex 1.78249 2.5 1.04233
      vertex 1.78249 -2.5 1.04233
    endloop
  endfacet
  facet normal -0.453998 0 -0.891003
    outer loop
      vertex 1.78249 2.5 1.04233
      vertex 1.57538 -2.5 1.14786
      vertex 1.57538 2.5 1.14786
    endloop
  endfacet
  facet normal -0.612893 0 -0.790166
    outer loop
      vertex 2.1748 -2.5 0.793363
      vertex 2.35847 2.5 0.650899
      vertex 2.35847 -2.5 0.650899
    endloop
  endfacet
  facet normal -0.612893 0 -0.790166
    outer loop
      vertex 2.35847 2.5 0.650899
      vertex 2.1748 -2.5 0.793363
      vertex 2.1748 2.5 0.793363
    endloop
  endfacet
  facet normal -0.562095 0 -0.827073
    outer loop
      vertex 1.98256 -2.5 0.924013
      vertex 2.1748 2.5 0.793363
      vertex 2.1748 -2.5 0.793363
    endloop
  endfacet
  facet normal -0.562095 0 -0.827073
    outer loop
      vertex 2.1748 2.5 0.793363
      vertex 1.98256 -2.5 0.924013
      vertex 1.98256 2.5 0.924013
    endloop
  endfacet
  facet normal 0.750101 0 -0.661323
    outer loop
      vertex -2.69718 -2.5 0.332824
      vertex -2.8509 2.5 0.158468
      vertex -2.69718 2.5 0.332824
    endloop
  endfacet
  facet normal 0.750101 0 -0.661323
    outer loop
      vertex -2.8509 2.5 0.158468
      vertex -2.69718 -2.5 0.332824
      vertex -2.8509 -2.5 0.158468
    endloop
  endfacet
  facet normal 0.707107 0 -0.707107
    outer loop
      vertex -2.53282 -2.5 0.497184
      vertex -2.69718 2.5 0.332824
      vertex -2.53282 2.5 0.497184
    endloop
  endfacet
  facet normal 0.707107 0 -0.707107
    outer loop
      vertex -2.69718 2.5 0.332824
      vertex -2.53282 -2.5 0.497184
      vertex -2.69718 -2.5 0.332824
    endloop
  endfacet
  facet normal 0.940877 0 -0.338747
    outer loop
      vertex -3.44017 -2.5 -0.837938
      vertex -3.51891 2.5 -1.05664
      vertex -3.44017 2.5 -0.837938
    endloop
  endfacet
  facet normal 0.940877 0 -0.338747
    outer loop
      vertex -3.51891 2.5 -1.05664
      vertex -3.44017 -2.5 -0.837938
      vertex -3.51891 -2.5 -1.05664
    endloop
  endfacet
  facet normal 0.995559 0 -0.094135
    outer loop
      vertex -3.67082 -2.5 -1.73627
      vertex -3.6927 2.5 -1.96767
      vertex -3.67082 2.5 -1.73627
    endloop
  endfacet
  facet normal 0.995559 0 -0.094135
    outer loop
      vertex -3.6927 2.5 -1.96767
      vertex -3.67082 -2.5 -1.73627
      vertex -3.6927 -2.5 -1.96767
    endloop
  endfacet
  facet normal 0.397141 0 -0.917757
    outer loop
      vertex -1.57538 -2.5 1.14786
      vertex -1.36206 2.5 1.24017
      vertex -1.36206 -2.5 1.24017
    endloop
  endfacet
  facet normal 0.397141 0 -0.917757
    outer loop
      vertex -1.36206 2.5 1.24017
      vertex -1.57538 -2.5 1.14786
      vertex -1.57538 2.5 1.14786
    endloop
  endfacet
  facet normal 0.278999 0 -0.960291
    outer loop
      vertex -1.14336 -2.5 1.31891
      vertex -0.920152 2.5 1.38376
      vertex -0.920152 -2.5 1.38376
    endloop
  endfacet
  facet normal 0.278999 0 -0.960291
    outer loop
      vertex -0.920152 2.5 1.38376
      vertex -1.14336 -2.5 1.31891
      vertex -1.14336 2.5 1.31891
    endloop
  endfacet
  facet normal -0.995559 0 0.0941427
    outer loop
      vertex 3.6863 -2.5 -2.5
      vertex 3.6927 2.5 -2.43232
      vertex 3.6863 2.5 -2.5
    endloop
  endfacet
  facet normal -0.995559 0 0.0941427
    outer loop
      vertex 3.6927 2.5 -2.43232
      vertex 3.6863 -2.5 -2.5
      vertex 3.6927 -2.5 -2.43232
    endloop
  endfacet
  facet normal -0.999507 0 0.0314067
    outer loop
      vertex 3.6927 -2.5 -2.43232
      vertex 3.7 2.5 -2.2
      vertex 3.6927 2.5 -2.43232
    endloop
  endfacet
  facet normal -0.999507 0 0.0314067
    outer loop
      vertex 3.7 2.5 -2.2
      vertex 3.6927 -2.5 -2.43232
      vertex 3.7 -2.5 -2.2
    endloop
  endfacet
  facet normal 0.995559 -0 0.0941427
    outer loop
      vertex -3.6927 -2.5 -2.43232
      vertex -3.6863 2.5 -2.5
      vertex -3.6927 2.5 -2.43232
    endloop
  endfacet
  facet normal 0.995559 0 0.0941427
    outer loop
      vertex -3.6863 2.5 -2.5
      vertex -3.6927 -2.5 -2.43232
      vertex -3.6863 -2.5 -2.5
    endloop
  endfacet
endsolid OpenSCAD_Model
