solid OpenSCAD_Model
  facet normal -1 0 0
    outer loop
      vertex -5 -2.5 -2.5
      vertex -5 2.5 2.5
      vertex -5 2.5 -2.5
    endloop
  endfacet
  facet normal -1 -0 0
    outer loop
      vertex -5 2.5 2.5
      vertex -5 -2.5 -2.5
      vertex -5 -2.5 2.5
    endloop
  endfacet
  facet normal -0 0 1
    outer loop
      vertex -5 2.5 2.5
      vertex 5 -2.5 2.5
      vertex 5 2.5 2.5
    endloop
  endfacet
  facet normal 0 0 1
    outer loop
      vertex 5 -2.5 2.5
      vertex -5 2.5 2.5
      vertex -5 -2.5 2.5
    endloop
  endfacet
  facet normal 1 -0 0
    outer loop
      vertex 5 -2.5 2.5
      vertex 5 2.5 -2.5
      vertex 5 2.5 2.5
    endloop
  endfacet
  facet normal 1 0 0
    outer loop
      vertex 5 2.5 -2.5
      vertex 5 -2.5 2.5
      vertex 5 -2.5 -2.5
    endloop
  endfacet
  facet normal 0 1 0
    outer loop
      vertex 5 2.5 2.5
      vertex 0 2.5 0.4
      vertex -5 2.5 2.5
    endloop
  endfacet
  facet normal 0 1 0
    outer loop
      vertex 5 2.5 2.5
      vertex 0.188371 2.5 0.39408
      vertex 0 2.5 0.4
    endloop
  endfacet
  facet normal 0 1 0
    outer loop
      vertex 5 2.5 2.5
      vertex 0.375999 2.5 0.376344
      vertex 0.188371 2.5 0.39408
    endloop
  endfacet
  facet normal 0 1 0
    outer loop
      vertex 5 2.5 2.5
      vertex 0.562143 2.5 0.346861
      vertex 0.375999 2.5 0.376344
    endloop
  endfacet
  facet normal 0 1 0
    outer loop
      vertex 5 2.5 2.5
      vertex 0.746069 2.5 0.305749
      vertex 0.562143 2.5 0.346861
    endloop
  endfacet
  facet normal 0 1 0
    outer loop
      vertex 5 2.5 2.5
      vertex 0.927051 2.5 0.253169
      vertex 0.746069 2.5 0.305749
    endloop
  endfacet
  facet normal 0 1 0
    outer loop
      vertex 5 2.5 2.5
      vertex 1.10437 2.5 0.189329
      vertex 0.927051 2.5 0.253169
    endloop
  endfacet
  facet normal 0 1 0
    outer loop
      vertex 5 2.5 2.5
      vertex 1.27734 2.5 0.114481
      vertex 1.10437 2.5 0.189329
    endloop
  endfacet
  facet normal 0 1 0
    outer loop
      vertex 5 2.5 2.5
      vertex 1.44526 2.5 0.0289192
      vertex 1.27734 2.5 0.114481
    endloop
  endfacet
  facet normal 0 1 0
    outer loop
      vertex 5 2.5 2.5
      vertex 1.60748 2.5 -0.0670156
      vertex 1.44526 2.5 0.0289192
    endloop
  endfacet
  facet normal 0 1 0
    outer loop
      vertex 5 2.5 2.5
      vertex 1.76336 2.5 -0.172949
      vertex 1.60748 2.5 -0.0670156
    endloop
  endfacet
  facet normal 0 1 0
    outer loop
      vertex 5 2.5 2.5
      vertex 1.91227 2.5 -0.28846
      vertex 1.76336 2.5 -0.172949
    endloop
  endfacet
  facet normal 0 1 0
    outer loop
      vertex 5 2.5 2.5
      vertex 2.05364 2.5 -0.413094
      vertex 1.91227 2.5 -0.28846
    endloop
  endfacet
  facet normal 0 1 0
    outer loop
      vertex 5 2.5 2.5
      vertex 2.18691 2.5 -0.546358
      vertex 2.05364 2.5 -0.413094
    endloop
  endfacet
  facet normal 0 1 0
    outer loop
      vertex 5 2.5 2.5
      vertex 2.31154 2.5 -0.687728
      vertex 2.18691 2.5 -0.546358
    endloop
  endfacet
  facet normal 0 1 0
    outer loop
      vertex 5 2.5 2.5
      vertex 2.42705 2.5 -0.836644
      vertex 2.31154 2.5 -0.687728
    endloop
  endfacet
  facet normal 0 1 0
    outer loop
      vertex 5 2.5 2.5
      vertex 2.53298 2.5 -0.992519
      vertex 2.42705 2.5 -0.836644
    endloop
  endfacet
  facet normal 0 1 0
    outer loop
      vertex 5 2.5 2.5
      vertex 2.62892 2.5 -1.15474
      vertex 2.53298 2.5 -0.992519
    endloop
  endfacet
  facet normal 0 1 -0
    outer loop
      vertex 5 2.5 -2.5
      vertex 2.62892 2.5 -1.15474
      vertex 5 2.5 2.5
    endloop
  endfacet
  facet normal 0 1 0
    outer loop
      vertex 2.62892 2.5 -1.15474
      vertex 5 2.5 -2.5
      vertex 2.71448 2.5 -1.32266
    endloop
  endfacet
  facet normal 0 1 0
    outer loop
      vertex 2.71448 2.5 -1.32266
      vertex 5 2.5 -2.5
      vertex 2.78933 2.5 -1.49563
    endloop
  endfacet
  facet normal 0 1 0
    outer loop
      vertex 2.78933 2.5 -1.49563
      vertex 5 2.5 -2.5
      vertex 2.85317 2.5 -1.67295
    endloop
  endfacet
  facet normal 0 1 0
    outer loop
      vertex 2.85317 2.5 -1.67295
      vertex 5 2.5 -2.5
      vertex 2.90575 2.5 -1.85393
    endloop
  endfacet
  facet normal 0 1 0
    outer loop
      vertex 2.90575 2.5 -1.85393
      vertex 5 2.5 -2.5
      vertex 2.94686 2.5 -2.03786
    endloop
  endfacet
  facet normal 0 1 0
    outer loop
      vertex 2.94686 2.5 -2.03786
      vertex 5 2.5 -2.5
      vertex 2.97634 2.5 -2.224
    endloop
  endfacet
  facet normal 0 1 0
    outer loop
      vertex 2.97634 2.5 -2.224
      vertex 5 2.5 -2.5
      vertex 2.99408 2.5 -2.41163
    endloop
  endfacet
  facet normal 0 1 0
    outer loop
      vertex 2.99408 2.5 -2.41163
      vertex 5 2.5 -2.5
      vertex 2.99686 2.5 -2.5
    endloop
  endfacet
  facet normal 0 1 -0
    outer loop
      vertex -0.188371 2.5 0.39408
      vertex -5 2.5 2.5
      vertex 0 2.5 0.4
    endloop
  endfacet
  facet normal 0 1 -0
    outer loop
      vertex -0.375999 2.5 0.376344
      vertex -5 2.5 2.5
      vertex -0.188371 2.5 0.39408
    endloop
  endfacet
  facet normal 0 1 -0
    outer loop
      vertex -0.562143 2.5 0.346861
      vertex -5 2.5 2.5
      vertex -0.375999 2.5 0.376344
    endloop
  endfacet
  facet normal 0 1 -0
    outer loop
      vertex -0.746069 2.5 0.305749
      vertex -5 2.5 2.5
      vertex -0.562143 2.5 0.346861
    endloop
  endfacet
  facet normal 0 1 -0
    outer loop
      vertex -0.927051 2.5 0.253169
      vertex -5 2.5 2.5
      vertex -0.746069 2.5 0.305749
    endloop
  endfacet
  facet normal 0 1 -0
    outer loop
      vertex -1.10437 2.5 0.189329
      vertex -5 2.5 2.5
      vertex -0.927051 2.5 0.253169
    endloop
  endfacet
  facet normal 0 1 -0
    outer loop
      vertex -1.27734 2.5 0.114481
      vertex -5 2.5 2.5
      vertex -1.10437 2.5 0.189329
    endloop
  endfacet
  facet normal 0 1 -0
    outer loop
      vertex -1.44526 2.5 0.0289192
      vertex -5 2.5 2.5
      vertex -1.27734 2.5 0.114481
    endloop
  endfacet
  facet normal 0 1 -0
    outer loop
      vertex -1.60748 2.5 -0.0670156
      vertex -5 2.5 2.5
      vertex -1.44526 2.5 0.0289192
    endloop
  endfacet
  facet normal 0 1 -0
    outer loop
      vertex -1.76336 2.5 -0.172949
      vertex -5 2.5 2.5
      vertex -1.60748 2.5 -0.0670156
    endloop
  endfacet
  facet normal 0 1 -0
    outer loop
      vertex -1.91227 2.5 -0.28846
      vertex -5 2.5 2.5
      vertex -1.76336 2.5 -0.172949
    endloop
  endfacet
  facet normal 0 1 -0
    outer loop
      vertex -2.05364 2.5 -0.413094
      vertex -5 2.5 2.5
      vertex -1.91227 2.5 -0.28846
    endloop
  endfacet
  facet normal 0 1 -0
    outer loop
      vertex -2.18691 2.5 -0.546358
      vertex -5 2.5 2.5
      vertex -2.05364 2.5 -0.413094
    endloop
  endfacet
  facet normal 0 1 -0
    outer loop
      vertex -2.31154 2.5 -0.687728
      vertex -5 2.5 2.5
      vertex -2.18691 2.5 -0.546358
    endloop
  endfacet
  facet normal 0 1 -0
    outer loop
      vertex -2.42705 2.5 -0.836644
      vertex -5 2.5 2.5
      vertex -2.31154 2.5 -0.687728
    endloop
  endfacet
  facet normal 0 1 -0
    outer loop
      vertex -2.53298 2.5 -0.992519
      vertex -5 2.5 2.5
      vertex -2.42705 2.5 -0.836644
    endloop
  endfacet
  facet normal 0 1 -0
    outer loop
      vertex -2.62892 2.5 -1.15474
      vertex -5 2.5 2.5
      vertex -2.53298 2.5 -0.992519
    endloop
  endfacet
  facet normal 0 1 0
    outer loop
      vertex -5 2.5 -2.5
      vertex -2.62892 2.5 -1.15474
      vertex -2.71448 2.5 -1.32266
    endloop
  endfacet
  facet normal 0 1 0
    outer loop
      vertex -5 2.5 -2.5
      vertex -2.71448 2.5 -1.32266
      vertex -2.78933 2.5 -1.49563
    endloop
  endfacet
  facet normal 0 1 0
    outer loop
      vertex -5 2.5 -2.5
      vertex -2.78933 2.5 -1.49563
      vertex -2.85317 2.5 -1.67295
    endloop
  endfacet
  facet normal 0 1 0
    outer loop
      vertex -5 2.5 -2.5
      vertex -2.85317 2.5 -1.67295
      vertex -2.90575 2.5 -1.85393
    endloop
  endfacet
  facet normal 0 1 0
    outer loop
      vertex -5 2.5 -2.5
      vertex -2.90575 2.5 -1.85393
      vertex -2.94686 2.5 -2.03786
    endloop
  endfacet
  facet normal 0 1 0
    outer loop
      vertex -5 2.5 -2.5
      vertex -2.94686 2.5 -2.03786
      vertex -2.97634 2.5 -2.224
    endloop
  endfacet
  facet normal 0 1 0
    outer loop
      vertex -5 2.5 -2.5
      vertex -2.97634 2.5 -2.224
      vertex -2.99408 2.5 -2.41163
    endloop
  endfacet
  facet normal 0 1 0
    outer loop
      vertex -5 2.5 -2.5
      vertex -2.99408 2.5 -2.41163
      vertex -2.99686 2.5 -2.5
    endloop
  endfacet
  facet normal 0 1 0
    outer loop
      vertex -2.62892 2.5 -1.15474
      vertex -5 2.5 -2.5
      vertex -5 2.5 2.5
    endloop
  endfacet
  facet normal 0 0 -1
    outer loop
      vertex -5 -2.5 -2.5
      vertex -2.99686 2.5 -2.5
      vertex -2.99686 -2.5 -2.5
    endloop
  endfacet
  facet normal -0 0 -1
    outer loop
      vertex -2.99686 2.5 -2.5
      vertex -5 -2.5 -2.5
      vertex -5 2.5 -2.5
    endloop
  endfacet
  facet normal 0 0 -1
    outer loop
      vertex 2.99686 -2.5 -2.5
      vertex 5 2.5 -2.5
      vertex 5 -2.5 -2.5
    endloop
  endfacet
  facet normal -0 0 -1
    outer loop
      vertex 5 2.5 -2.5
      vertex 2.99686 -2.5 -2.5
      vertex 2.99686 2.5 -2.5
    endloop
  endfacet
  facet normal 0 -1 0
    outer loop
      vertex -5 -2.5 2.5
      vertex 0 -2.5 0.4
      vertex 5 -2.5 2.5
    endloop
  endfacet
  facet normal 0 -1 0
    outer loop
      vertex -5 -2.5 2.5
      vertex -0.188371 -2.5 0.39408
      vertex 0 -2.5 0.4
    endloop
  endfacet
  facet normal 0 -1 0
    outer loop
      vertex -5 -2.5 2.5
      vertex -0.375999 -2.5 0.376344
      vertex -0.188371 -2.5 0.39408
    endloop
  endfacet
  facet normal 0 -1 0
    outer loop
      vertex -5 -2.5 2.5
      vertex -0.562143 -2.5 0.346861
      vertex -0.375999 -2.5 0.376344
    endloop
  endfacet
  facet normal 0 -1 0
    outer loop
      vertex -5 -2.5 2.5
      vertex -0.746069 -2.5 0.305749
      vertex -0.562143 -2.5 0.346861
    endloop
  endfacet
  facet normal 0 -1 0
    outer loop
      vertex -5 -2.5 2.5
      vertex -0.927051 -2.5 0.253169
      vertex -0.746069 -2.5 0.305749
    endloop
  endfacet
  facet normal 0 -1 0
    outer loop
      vertex -5 -2.5 2.5
      vertex -1.10437 -2.5 0.189329
      vertex -0.927051 -2.5 0.253169
    endloop
  endfacet
  facet normal 0 -1 0
    outer loop
      vertex -5 -2.5 2.5
      vertex -1.27734 -2.5 0.114481
      vertex -1.10437 -2.5 0.189329
    endloop
  endfacet
  facet normal 0 -1 0
    outer loop
      vertex -5 -2.5 2.5
      vertex -1.44526 -2.5 0.0289192
      vertex -1.27734 -2.5 0.114481
    endloop
  endfacet
  facet normal 0 -1 0
    outer loop
      vertex -5 -2.5 2.5
      vertex -1.60748 -2.5 -0.0670156
      vertex -1.44526 -2.5 0.0289192
    endloop
  endfacet
  facet normal 0 -1 0
    outer loop
      vertex -5 -2.5 2.5
      vertex -1.76336 -2.5 -0.172949
      vertex -1.60748 -2.5 -0.0670156
    endloop
  endfacet
  facet normal 0 -1 0
    outer loop
      vertex -5 -2.5 2.5
      vertex -1.91227 -2.5 -0.28846
      vertex -1.76336 -2.5 -0.172949
    endloop
  endfacet
  facet normal 0 -1 0
    outer loop
      vertex -5 -2.5 2.5
      vertex -2.05364 -2.5 -0.413094
      vertex -1.91227 -2.5 -0.28846
    endloop
  endfacet
  facet normal 0 -1 0
    outer loop
      vertex -5 -2.5 2.5
      vertex -2.18691 -2.5 -0.546358
      vertex -2.05364 -2.5 -0.413094
    endloop
  endfacet
  facet normal 0 -1 0
    outer loop
      vertex -5 -2.5 2.5
      vertex -2.31154 -2.5 -0.687728
      vertex -2.18691 -2.5 -0.546358
    endloop
  endfacet
  facet normal 0 -1 0
    outer loop
      vertex -5 -2.5 2.5
      vertex -2.42705 -2.5 -0.836644
      vertex -2.31154 -2.5 -0.687728
    endloop
  endfacet
  facet normal 0 -1 0
    outer loop
      vertex -5 -2.5 2.5
      vertex -2.53298 -2.5 -0.992519
      vertex -2.42705 -2.5 -0.836644
    endloop
  endfacet
  facet normal 0 -1 0
    outer loop
      vertex -5 -2.5 2.5
      vertex -2.62892 -2.5 -1.15474
      vertex -2.53298 -2.5 -0.992519
    endloop
  endfacet
  facet normal 0 -1 0
    outer loop
      vertex -5 -2.5 -2.5
      vertex -2.62892 -2.5 -1.15474
      vertex -5 -2.5 2.5
    endloop
  endfacet
  facet normal 0 -1 0
    outer loop
      vertex -2.62892 -2.5 -1.15474
      vertex -5 -2.5 -2.5
      vertex -2.71448 -2.5 -1.32266
    endloop
  endfacet
  facet normal 0 -1 0
    outer loop
      vertex -2.71448 -2.5 -1.32266
      vertex -5 -2.5 -2.5
      vertex -2.78933 -2.5 -1.49563
    endloop
  endfacet
  facet normal 0 -1 0
    outer loop
      vertex -2.78933 -2.5 -1.49563
      vertex -5 -2.5 -2.5
      vertex -2.85317 -2.5 -1.67295
    endloop
  endfacet
  facet normal 0 -1 0
    outer loop
      vertex -2.85317 -2.5 -1.67295
      vertex -5 -2.5 -2.5
      vertex -2.90575 -2.5 -1.85393
    endloop
  endfacet
  facet normal 0 -1 0
    outer loop
      vertex -2.90575 -2.5 -1.85393
      vertex -5 -2.5 -2.5
      vertex -2.94686 -2.5 -2.03786
    endloop
  endfacet
  facet normal 0 -1 0
    outer loop
      vertex -2.94686 -2.5 -2.03786
      vertex -5 -2.5 -2.5
      vertex -2.97634 -2.5 -2.224
    endloop
  endfacet
  facet normal 0 -1 0
    outer loop
      vertex -2.97634 -2.5 -2.224
      vertex -5 -2.5 -2.5
      vertex -2.99408 -2.5 -2.41163
    endloop
  endfacet
  facet normal 0 -1 0
    outer loop
      vertex -2.99408 -2.5 -2.41163
      vertex -5 -2.5 -2.5
      vertex -2.99686 -2.5 -2.5
    endloop
  endfacet
  facet normal 0 -1 0
    outer loop
      vertex 0.188371 -2.5 0.39408
      vertex 5 -2.5 2.5
      vertex 0 -2.5 0.4
    endloop
  endfacet
  facet normal 0 -1 0
    outer loop
      vertex 0.375999 -2.5 0.376344
      vertex 5 -2.5 2.5
      vertex 0.188371 -2.5 0.39408
    endloop
  endfacet
  facet normal 0 -1 0
    outer loop
      vertex 0.562143 -2.5 0.346861
      vertex 5 -2.5 2.5
      vertex 0.375999 -2.5 0.376344
    endloop
  endfacet
  facet normal 0 -1 0
    outer loop
      vertex 0.746069 -2.5 0.305749
      vertex 5 -2.5 2.5
      vertex 0.562143 -2.5 0.346861
    endloop
  endfacet
  facet normal 0 -1 0
    outer loop
      vertex 0.927051 -2.5 0.253169
      vertex 5 -2.5 2.5
      vertex 0.746069 -2.5 0.305749
    endloop
  endfacet
  facet normal 0 -1 0
    outer loop
      vertex 1.10437 -2.5 0.189329
      vertex 5 -2.5 2.5
      vertex 0.927051 -2.5 0.253169
    endloop
  endfacet
  facet normal 0 -1 0
    outer loop
      vertex 1.27734 -2.5 0.114481
      vertex 5 -2.5 2.5
      vertex 1.10437 -2.5 0.189329
    endloop
  endfacet
  facet normal 0 -1 0
    outer loop
      vertex 1.44526 -2.5 0.0289192
      vertex 5 -2.5 2.5
      vertex 1.27734 -2.5 0.114481
    endloop
  endfacet
  facet normal 0 -1 0
    outer loop
      vertex 1.60748 -2.5 -0.0670156
      vertex 5 -2.5 2.5
      vertex 1.44526 -2.5 0.0289192
    endloop
  endfacet
  facet normal 0 -1 0
    outer loop
      vertex 1.76336 -2.5 -0.172949
      vertex 5 -2.5 2.5
      vertex 1.60748 -2.5 -0.0670156
    endloop
  endfacet
  facet normal 0 -1 0
    outer loop
      vertex 1.91227 -2.5 -0.28846
      vertex 5 -2.5 2.5
      vertex 1.76336 -2.5 -0.172949
    endloop
  endfacet
  facet normal 0 -1 0
    outer loop
      vertex 2.05364 -2.5 -0.413094
      vertex 5 -2.5 2.5
      vertex 1.91227 -2.5 -0.28846
    endloop
  endfacet
  facet normal 0 -1 0
    outer loop
      vertex 2.18691 -2.5 -0.546358
      vertex 5 -2.5 2.5
      vertex 2.05364 -2.5 -0.413094
    endloop
  endfacet
  facet normal 0 -1 0
    outer loop
      vertex 2.31154 -2.5 -0.687728
      vertex 5 -2.5 2.5
      vertex 2.18691 -2.5 -0.546358
    endloop
  endfacet
  facet normal 0 -1 0
    outer loop
      vertex 2.42705 -2.5 -0.836644
      vertex 5 -2.5 2.5
      vertex 2.31154 -2.5 -0.687728
    endloop
  endfacet
  facet normal 0 -1 0
    outer loop
      vertex 2.53298 -2.5 -0.992519
      vertex 5 -2.5 2.5
      vertex 2.42705 -2.5 -0.836644
    endloop
  endfacet
  facet normal 0 -1 0
    outer loop
      vertex 2.62892 -2.5 -1.15474
      vertex 5 -2.5 2.5
      vertex 2.53298 -2.5 -0.992519
    endloop
  endfacet
  facet normal 0 -1 0
    outer loop
      vertex 5 -2.5 -2.5
      vertex 2.62892 -2.5 -1.15474
      vertex 2.71448 -2.5 -1.32266
    endloop
  endfacet
  facet normal 0 -1 0
    outer loop
      vertex 5 -2.5 -2.5
      vertex 2.71448 -2.5 -1.32266
      vertex 2.78933 -2.5 -1.49563
    endloop
  endfacet
  facet normal 0 -1 0
    outer loop
      vertex 5 -2.5 -2.5
      vertex 2.78933 -2.5 -1.49563
      vertex 2.85317 -2.5 -1.67295
    endloop
  endfacet
  facet normal 0 -1 0
    outer loop
      vertex 5 -2.5 -2.5
      vertex 2.85317 -2.5 -1.67295
      vertex 2.90575 -2.5 -1.85393
    endloop
  endfacet
  facet normal 0 -1 0
    outer loop
      vertex 5 -2.5 -2.5
      vertex 2.90575 -2.5 -1.85393
      vertex 2.94686 -2.5 -2.03786
    endloop
  endfacet
  facet normal 0 -1 0
    outer loop
      vertex 5 -2.5 -2.5
      vertex 2.94686 -2.5 -2.03786
      vertex 2.97634 -2.5 -2.224
    endloop
  endfacet
  facet normal 0 -1 0
    outer loop
      vertex 5 -2.5 -2.5
      vertex 2.97634 -2.5 -2.224
      vertex 2.99408 -2.5 -2.41163
    endloop
  endfacet
  facet normal 0 -1 0
    outer loop
      vertex 5 -2.5 -2.5
      vertex 2.99408 -2.5 -2.41163
      vertex 2.99686 -2.5 -2.5
    endloop
  endfacet
  facet normal 0 -1 0
    outer loop
      vertex 2.62892 -2.5 -1.15474
      vertex 5 -2.5 -2.5
      vertex 5 -2.5 2.5
    endloop
  endfacet
  facet normal -0.999506 0 -0.0314431
    outer loop
      vertex 2.99686 -2.5 -2.5
      vertex 2.99408 2.5 -2.41163
      vertex 2.99686 2.5 -2.5
    endloop
  endfacet
  facet normal -0.999506 -0 -0.0314431
    outer loop
      vertex 2.99408 2.5 -2.41163
      vertex 2.99686 -2.5 -2.5
      vertex 2.99408 -2.5 -2.41163
    endloop
  endfacet
  facet normal -0.99556 0 -0.094128
    outer loop
      vertex 2.99408 -2.5 -2.41163
      vertex 2.97634 2.5 -2.224
      vertex 2.99408 2.5 -2.41163
    endloop
  endfacet
  facet normal -0.99556 -0 -0.094128
    outer loop
      vertex 2.97634 2.5 -2.224
      vertex 2.99408 -2.5 -2.41163
      vertex 2.97634 -2.5 -2.224
    endloop
  endfacet
  facet normal 0.999506 0 -0.0314431
    outer loop
      vertex -2.99408 -2.5 -2.41163
      vertex -2.99686 2.5 -2.5
      vertex -2.99408 2.5 -2.41163
    endloop
  endfacet
  facet normal 0.999506 0 -0.0314431
    outer loop
      vertex -2.99686 2.5 -2.5
      vertex -2.99408 -2.5 -2.41163
      vertex -2.99686 -2.5 -2.5
    endloop
  endfacet
  facet normal 0.0314118 0 -0.999507
    outer loop
      vertex -0.188371 -2.5 0.39408
      vertex 0 2.5 0.4
      vertex 0 -2.5 0.4
    endloop
  endfacet
  facet normal 0.0314118 0 -0.999507
    outer loop
      vertex 0 2.5 0.4
      vertex -0.188371 -2.5 0.39408
      vertex -0.188371 2.5 0.39408
    endloop
  endfacet
  facet normal -0.661311 0 -0.750112
    outer loop
      vertex 1.91227 -2.5 -0.28846
      vertex 2.05364 2.5 -0.413094
      vertex 2.05364 -2.5 -0.413094
    endloop
  endfacet
  facet normal -0.661311 0 -0.750112
    outer loop
      vertex 2.05364 2.5 -0.413094
      vertex 1.91227 -2.5 -0.28846
      vertex 1.91227 2.5 -0.28846
    endloop
  endfacet
  facet normal 0.707091 0 -0.707123
    outer loop
      vertex -2.18691 -2.5 -0.546358
      vertex -2.05364 2.5 -0.413094
      vertex -2.05364 -2.5 -0.413094
    endloop
  endfacet
  facet normal 0.707091 0 -0.707123
    outer loop
      vertex -2.05364 2.5 -0.413094
      vertex -2.18691 -2.5 -0.546358
      vertex -2.18691 2.5 -0.546358
    endloop
  endfacet
  facet normal -0.891005 0 -0.453993
    outer loop
      vertex 2.71448 -2.5 -1.32266
      vertex 2.62892 2.5 -1.15474
      vertex 2.71448 2.5 -1.32266
    endloop
  endfacet
  facet normal -0.891005 -0 -0.453993
    outer loop
      vertex 2.62892 2.5 -1.15474
      vertex 2.71448 -2.5 -1.32266
      vertex 2.62892 -2.5 -1.15474
    endloop
  endfacet
  facet normal -0.509034 0 -0.860746
    outer loop
      vertex 1.44526 -2.5 0.0289192
      vertex 1.60748 2.5 -0.0670156
      vertex 1.60748 -2.5 -0.0670156
    endloop
  endfacet
  facet normal -0.509034 0 -0.860746
    outer loop
      vertex 1.60748 2.5 -0.0670156
      vertex 1.44526 -2.5 0.0289192
      vertex 1.44526 2.5 0.0289192
    endloop
  endfacet
  facet normal 0.827087 0 -0.562074
    outer loop
      vertex -2.42705 -2.5 -0.836644
      vertex -2.53298 2.5 -0.992519
      vertex -2.42705 2.5 -0.836644
    endloop
  endfacet
  facet normal 0.827087 0 -0.562074
    outer loop
      vertex -2.53298 2.5 -0.992519
      vertex -2.42705 -2.5 -0.836644
      vertex -2.53298 -2.5 -0.992519
    endloop
  endfacet
  facet normal -0.97592 0 -0.218127
    outer loop
      vertex 2.94686 -2.5 -2.03786
      vertex 2.90575 2.5 -1.85393
      vertex 2.94686 2.5 -2.03786
    endloop
  endfacet
  facet normal -0.97592 -0 -0.218127
    outer loop
      vertex 2.90575 2.5 -1.85393
      vertex 2.94686 -2.5 -2.03786
      vertex 2.90575 -2.5 -1.85393
    endloop
  endfacet
  facet normal -0.790158 0 -0.612903
    outer loop
      vertex 2.42705 -2.5 -0.836644
      vertex 2.31154 2.5 -0.687728
      vertex 2.42705 2.5 -0.836644
    endloop
  endfacet
  facet normal -0.790158 -0 -0.612903
    outer loop
      vertex 2.31154 2.5 -0.687728
      vertex 2.42705 -2.5 -0.836644
      vertex 2.31154 -2.5 -0.687728
    endloop
  endfacet
  facet normal -0.156438 0 -0.987688
    outer loop
      vertex 0.375999 -2.5 0.376344
      vertex 0.562143 2.5 0.346861
      vertex 0.562143 -2.5 0.346861
    endloop
  endfacet
  facet normal -0.156438 0 -0.987688
    outer loop
      vertex 0.562143 2.5 0.346861
      vertex 0.375999 -2.5 0.376344
      vertex 0.375999 2.5 0.376344
    endloop
  endfacet
  facet normal -0.562074 0 -0.827087
    outer loop
      vertex 1.60748 -2.5 -0.0670156
      vertex 1.76336 2.5 -0.172949
      vertex 1.76336 -2.5 -0.172949
    endloop
  endfacet
  facet normal -0.562074 0 -0.827087
    outer loop
      vertex 1.76336 2.5 -0.172949
      vertex 1.60748 -2.5 -0.0670156
      vertex 1.60748 2.5 -0.0670156
    endloop
  endfacet
  facet normal 0.860736 0 -0.509052
    outer loop
      vertex -2.53298 -2.5 -0.992519
      vertex -2.62892 2.5 -1.15474
      vertex -2.53298 2.5 -0.992519
    endloop
  endfacet
  facet normal 0.860736 0 -0.509052
    outer loop
      vertex -2.62892 2.5 -1.15474
      vertex -2.53298 -2.5 -0.992519
      vertex -2.62892 -2.5 -1.15474
    endloop
  endfacet
  facet normal 0.97592 0 -0.218127
    outer loop
      vertex -2.90575 -2.5 -1.85393
      vertex -2.94686 2.5 -2.03786
      vertex -2.90575 2.5 -1.85393
    endloop
  endfacet
  facet normal 0.97592 0 -0.218127
    outer loop
      vertex -2.94686 2.5 -2.03786
      vertex -2.90575 -2.5 -1.85393
      vertex -2.94686 -2.5 -2.03786
    endloop
  endfacet
  facet normal 0.98769 0 -0.156426
    outer loop
      vertex -2.94686 -2.5 -2.03786
      vertex -2.97634 2.5 -2.224
      vertex -2.94686 2.5 -2.03786
    endloop
  endfacet
  facet normal 0.98769 0 -0.156426
    outer loop
      vertex -2.97634 2.5 -2.224
      vertex -2.94686 -2.5 -2.03786
      vertex -2.97634 -2.5 -2.224
    endloop
  endfacet
  facet normal 0.562074 0 -0.827087
    outer loop
      vertex -1.76336 -2.5 -0.172949
      vertex -1.60748 2.5 -0.0670156
      vertex -1.60748 -2.5 -0.0670156
    endloop
  endfacet
  facet normal 0.562074 0 -0.827087
    outer loop
      vertex -1.60748 2.5 -0.0670156
      vertex -1.76336 -2.5 -0.172949
      vertex -1.76336 2.5 -0.172949
    endloop
  endfacet
  facet normal 0.094108 0 -0.995562
    outer loop
      vertex -0.375999 -2.5 0.376344
      vertex -0.188371 2.5 0.39408
      vertex -0.188371 -2.5 0.39408
    endloop
  endfacet
  facet normal 0.094108 0 -0.995562
    outer loop
      vertex -0.188371 2.5 0.39408
      vertex -0.375999 -2.5 0.376344
      vertex -0.375999 2.5 0.376344
    endloop
  endfacet
  facet normal -0.98769 0 -0.156426
    outer loop
      vertex 2.97634 -2.5 -2.224
      vertex 2.94686 2.5 -2.03786
      vertex 2.97634 2.5 -2.224
    endloop
  endfacet
  facet normal -0.98769 -0 -0.156426
    outer loop
      vertex 2.94686 2.5 -2.03786
      vertex 2.97634 -2.5 -2.224
      vertex 2.94686 -2.5 -2.03786
    endloop
  endfacet
  facet normal -0.750123 0 -0.661299
    outer loop
      vertex 2.31154 -2.5 -0.687728
      vertex 2.18691 2.5 -0.546358
      vertex 2.31154 2.5 -0.687728
    endloop
  endfacet
  facet normal -0.750123 -0 -0.661299
    outer loop
      vertex 2.18691 2.5 -0.546358
      vertex 2.31154 -2.5 -0.687728
      vertex 2.18691 -2.5 -0.546358
    endloop
  endfacet
  facet normal -0.094108 0 -0.995562
    outer loop
      vertex 0.188371 -2.5 0.39408
      vertex 0.375999 2.5 0.376344
      vertex 0.375999 -2.5 0.376344
    endloop
  endfacet
  facet normal -0.094108 0 -0.995562
    outer loop
      vertex 0.375999 2.5 0.376344
      vertex 0.188371 -2.5 0.39408
      vertex 0.188371 2.5 0.39408
    endloop
  endfacet
  facet normal -0.27899 0 -0.960294
    outer loop
      vertex 0.746069 -2.5 0.305749
      vertex 0.927051 2.5 0.253169
      vertex 0.927051 -2.5 0.253169
    endloop
  endfacet
  facet normal -0.27899 0 -0.960294
    outer loop
      vertex 0.927051 2.5 0.253169
      vertex 0.746069 -2.5 0.305749
      vertex 0.746069 2.5 0.305749
    endloop
  endfacet
  facet normal -0.338744 0 -0.940879
    outer loop
      vertex 0.927051 -2.5 0.253169
      vertex 1.10437 2.5 0.189329
      vertex 1.10437 -2.5 0.189329
    endloop
  endfacet
  facet normal -0.338744 0 -0.940879
    outer loop
      vertex 1.10437 2.5 0.189329
      vertex 0.927051 -2.5 0.253169
      vertex 0.927051 2.5 0.253169
    endloop
  endfacet
  facet normal -0.454 0 -0.891002
    outer loop
      vertex 1.27734 -2.5 0.114481
      vertex 1.44526 2.5 0.0289192
      vertex 1.44526 -2.5 0.0289192
    endloop
  endfacet
  facet normal -0.454 0 -0.891002
    outer loop
      vertex 1.44526 2.5 0.0289192
      vertex 1.27734 -2.5 0.114481
      vertex 1.27734 2.5 0.114481
    endloop
  endfacet
  facet normal -0.612922 0 -0.790143
    outer loop
      vertex 1.76336 -2.5 -0.172949
      vertex 1.91227 2.5 -0.28846
      vertex 1.91227 -2.5 -0.28846
    endloop
  endfacet
  facet normal -0.612922 0 -0.790143
    outer loop
      vertex 1.91227 2.5 -0.28846
      vertex 1.76336 -2.5 -0.172949
      vertex 1.76336 2.5 -0.172949
    endloop
  endfacet
  facet normal 0.790158 0 -0.612903
    outer loop
      vertex -2.31154 -2.5 -0.687728
      vertex -2.42705 2.5 -0.836644
      vertex -2.31154 2.5 -0.687728
    endloop
  endfacet
  facet normal 0.790158 0 -0.612903
    outer loop
      vertex -2.42705 2.5 -0.836644
      vertex -2.31154 -2.5 -0.687728
      vertex -2.42705 -2.5 -0.836644
    endloop
  endfacet
  facet normal 0.917756 0 -0.397144
    outer loop
      vertex -2.71448 -2.5 -1.32266
      vertex -2.78933 2.5 -1.49563
      vertex -2.71448 2.5 -1.32266
    endloop
  endfacet
  facet normal 0.917756 0 -0.397144
    outer loop
      vertex -2.78933 2.5 -1.49563
      vertex -2.71448 -2.5 -1.32266
      vertex -2.78933 -2.5 -1.49563
    endloop
  endfacet
  facet normal 0.940879 0 -0.338742
    outer loop
      vertex -2.78933 -2.5 -1.49563
      vertex -2.85317 2.5 -1.67295
      vertex -2.78933 2.5 -1.49563
    endloop
  endfacet
  facet normal 0.940879 0 -0.338742
    outer loop
      vertex -2.85317 2.5 -1.67295
      vertex -2.78933 -2.5 -1.49563
      vertex -2.85317 -2.5 -1.67295
    endloop
  endfacet
  facet normal 0.99556 0 -0.094128
    outer loop
      vertex -2.97634 -2.5 -2.224
      vertex -2.99408 2.5 -2.41163
      vertex -2.97634 2.5 -2.224
    endloop
  endfacet
  facet normal 0.99556 0 -0.094128
    outer loop
      vertex -2.99408 2.5 -2.41163
      vertex -2.97634 -2.5 -2.224
      vertex -2.99408 -2.5 -2.41163
    endloop
  endfacet
  facet normal 0.612922 0 -0.790143
    outer loop
      vertex -1.91227 -2.5 -0.28846
      vertex -1.76336 2.5 -0.172949
      vertex -1.76336 -2.5 -0.172949
    endloop
  endfacet
  facet normal 0.612922 0 -0.790143
    outer loop
      vertex -1.76336 2.5 -0.172949
      vertex -1.91227 -2.5 -0.28846
      vertex -1.91227 2.5 -0.28846
    endloop
  endfacet
  facet normal 0.509034 0 -0.860746
    outer loop
      vertex -1.60748 -2.5 -0.0670156
      vertex -1.44526 2.5 0.0289192
      vertex -1.44526 -2.5 0.0289192
    endloop
  endfacet
  facet normal 0.509034 0 -0.860746
    outer loop
      vertex -1.44526 2.5 0.0289192
      vertex -1.60748 -2.5 -0.0670156
      vertex -1.60748 2.5 -0.0670156
    endloop
  endfacet
  facet normal 0.397135 0 -0.91776
    outer loop
      vertex -1.27734 -2.5 0.114481
      vertex -1.10437 2.5 0.189329
      vertex -1.10437 -2.5 0.189329
    endloop
  endfacet
  facet normal 0.397135 0 -0.91776
    outer loop
      vertex -1.10437 2.5 0.189329
      vertex -1.27734 -2.5 0.114481
      vertex -1.27734 2.5 0.114481
    endloop
  endfacet
  facet normal 0.27899 0 -0.960294
    outer loop
      vertex -0.927051 -2.5 0.253169
      vertex -0.746069 2.5 0.305749
      vertex -0.746069 -2.5 0.305749
    endloop
  endfacet
  facet normal 0.27899 0 -0.960294
    outer loop
      vertex -0.746069 2.5 0.305749
      vertex -0.927051 -2.5 0.253169
      vertex -0.927051 2.5 0.253169
    endloop
  endfacet
  facet normal 0.218142 0 -0.975917
    outer loop
      vertex -0.746069 -2.5 0.305749
      vertex -0.562143 2.5 0.346861
      vertex -0.562143 -2.5 0.346861
    endloop
  endfacet
  facet normal 0.218142 0 -0.975917
    outer loop
      vertex -0.562143 2.5 0.346861
      vertex -0.746069 -2.5 0.305749
      vertex -0.746069 2.5 0.305749
    endloop
  endfacet
  facet normal -0.917756 0 -0.397144
    outer loop
      vertex 2.78933 -2.5 -1.49563
      vertex 2.71448 2.5 -1.32266
      vertex 2.78933 2.5 -1.49563
    endloop
  endfacet
  facet normal -0.917756 -0 -0.397144
    outer loop
      vertex 2.71448 2.5 -1.32266
      vertex 2.78933 -2.5 -1.49563
      vertex 2.71448 -2.5 -1.32266
    endloop
  endfacet
  facet normal -0.960293 0 -0.278993
    outer loop
      vertex 2.90575 -2.5 -1.85393
      vertex 2.85317 2.5 -1.67295
      vertex 2.90575 2.5 -1.85393
    endloop
  endfacet
  facet normal -0.960293 -0 -0.278993
    outer loop
      vertex 2.85317 2.5 -1.67295
      vertex 2.90575 -2.5 -1.85393
      vertex 2.85317 -2.5 -1.67295
    endloop
  endfacet
  facet normal -0.940879 0 -0.338742
    outer loop
      vertex 2.85317 -2.5 -1.67295
      vertex 2.78933 2.5 -1.49563
      vertex 2.85317 2.5 -1.67295
    endloop
  endfacet
  facet normal -0.940879 -0 -0.338742
    outer loop
      vertex 2.78933 2.5 -1.49563
      vertex 2.85317 -2.5 -1.67295
      vertex 2.78933 -2.5 -1.49563
    endloop
  endfacet
  facet normal -0.707091 0 -0.707123
    outer loop
      vertex 2.05364 -2.5 -0.413094
      vertex 2.18691 2.5 -0.546358
      vertex 2.18691 -2.5 -0.546358
    endloop
  endfacet
  facet normal -0.707091 0 -0.707123
    outer loop
      vertex 2.18691 2.5 -0.546358
      vertex 2.05364 -2.5 -0.413094
      vertex 2.05364 2.5 -0.413094
    endloop
  endfacet
  facet normal -0.860736 0 -0.509052
    outer loop
      vertex 2.62892 -2.5 -1.15474
      vertex 2.53298 2.5 -0.992519
      vertex 2.62892 2.5 -1.15474
    endloop
  endfacet
  facet normal -0.860736 -0 -0.509052
    outer loop
      vertex 2.53298 2.5 -0.992519
      vertex 2.62892 -2.5 -1.15474
      vertex 2.53298 -2.5 -0.992519
    endloop
  endfacet
  facet normal -0.827087 0 -0.562074
    outer loop
      vertex 2.53298 -2.5 -0.992519
      vertex 2.42705 2.5 -0.836644
      vertex 2.53298 2.5 -0.992519
    endloop
  endfacet
  facet normal -0.827087 -0 -0.562074
    outer loop
      vertex 2.42705 2.5 -0.836644
      vertex 2.53298 -2.5 -0.992519
      vertex 2.42705 -2.5 -0.836644
    endloop
  endfacet
  facet normal -0.218142 0 -0.975917
    outer loop
      vertex 0.562143 -2.5 0.346861
      vertex 0.746069 2.5 0.305749
      vertex 0.746069 -2.5 0.305749
    endloop
  endfacet
  facet normal -0.218142 0 -0.975917
    outer loop
      vertex 0.746069 2.5 0.305749
      vertex 0.562143 -2.5 0.346861
      vertex 0.562143 2.5 0.346861
    endloop
  endfacet
  facet normal -0.0314118 0 -0.999507
    outer loop
      vertex 0 -2.5 0.4
      vertex 0.188371 2.5 0.39408
      vertex 0.188371 -2.5 0.39408
    endloop
  endfacet
  facet normal -0.0314118 0 -0.999507
    outer loop
      vertex 0.188371 2.5 0.39408
      vertex 0 -2.5 0.4
      vertex 0 2.5 0.4
    endloop
  endfacet
  facet normal -0.397135 0 -0.91776
    outer loop
      vertex 1.10437 -2.5 0.189329
      vertex 1.27734 2.5 0.114481
      vertex 1.27734 -2.5 0.114481
    endloop
  endfacet
  facet normal -0.397135 0 -0.91776
    outer loop
      vertex 1.27734 2.5 0.114481
      vertex 1.10437 -2.5 0.189329
      vertex 1.10437 2.5 0.189329
    endloop
  endfacet
  facet normal 0.750123 0 -0.661299
    outer loop
      vertex -2.18691 -2.5 -0.546358
      vertex -2.31154 2.5 -0.687728
      vertex -2.18691 2.5 -0.546358
    endloop
  endfacet
  facet normal 0.750123 0 -0.661299
    outer loop
      vertex -2.31154 2.5 -0.687728
      vertex -2.18691 -2.5 -0.546358
      vertex -2.31154 -2.5 -0.687728
    endloop
  endfacet
  facet normal 0.891005 0 -0.453993
    outer loop
      vertex -2.62892 -2.5 -1.15474
      vertex -2.71448 2.5 -1.32266
      vertex -2.62892 2.5 -1.15474
    endloop
  endfacet
  facet normal 0.891005 0 -0.453993
    outer loop
      vertex -2.71448 2.5 -1.32266
      vertex -2.62892 -2.5 -1.15474
      vertex -2.71448 -2.5 -1.32266
    endloop
  endfacet
  facet normal 0.960293 0 -0.278993
    outer loop
      vertex -2.85317 -2.5 -1.67295
      vertex -2.90575 2.5 -1.85393
      vertex -2.85317 2.5 -1.67295
    endloop
  endfacet
  facet normal 0.960293 0 -0.278993
    outer loop
      vertex -2.90575 2.5 -1.85393
      vertex -2.85317 -2.5 -1.67295
      vertex -2.90575 -2.5 -1.85393
    endloop
  endfacet
  facet normal 0.661311 0 -0.750112
    outer loop
      vertex -2.05364 -2.5 -0.413094
      vertex -1.91227 2.5 -0.28846
      vertex -1.91227 -2.5 -0.28846
    endloop
  endfacet
  facet normal 0.661311 0 -0.750112
    outer loop
      vertex -1.91227 2.5 -0.28846
      vertex -2.05364 -2.5 -0.413094
      vertex -2.05364 2.5 -0.413094
    endloop
  endfacet
  facet normal 0.454 0 -0.891002
    outer loop
      vertex -1.44526 -2.5 0.0289192
      vertex -1.27734 2.5 0.114481
      vertex -1.27734 -2.5 0.114481
    endloop
  endfacet
  facet normal 0.454 0 -0.891002
    outer loop
      vertex -1.27734 2.5 0.114481
      vertex -1.44526 -2.5 0.0289192
      vertex -1.44526 2.5 0.0289192
    endloop
  endfacet
  facet normal 0.338744 0 -0.940879
    outer loop
      vertex -1.10437 -2.5 0.189329
      vertex -0.927051 2.5 0.253169
      vertex -0.927051 -2.5 0.253169
    endloop
  endfacet
  facet normal 0.338744 0 -0.940879
    outer loop
      vertex -0.927051 2.5 0.253169
      vertex -1.10437 -2.5 0.189329
      vertex -1.10437 2.5 0.189329
    endloop
  endfacet
  facet normal 0.156438 0 -0.987688
    outer loop
      vertex -0.562143 -2.5 0.346861
      vertex -0.375999 2.5 0.376344
      vertex -0.375999 -2.5 0.376344
    endloop
  endfacet
  facet normal 0.156438 0 -0.987688
    outer loop
      vertex -0.375999 2.5 0.376344
      vertex -0.562143 -2.5 0.346861
      vertex -0.562143 2.5 0.346861
    endloop
  endfacet
endsolid OpenSCAD_Model
