solid OpenSCAD_Model
  facet normal -1 0 0
    outer loop
      vertex -5 -2.5 -2.5
      vertex -5 2.5 2.5
      vertex -5 2.5 -2.5
    endloop
  endfacet
  facet normal -1 -0 0
    outer loop
      vertex -5 2.5 2.5
      vertex -5 -2.5 -2.5
      vertex -5 -2.5 2.5
    endloop
  endfacet
  facet normal -0 0 1
    outer loop
      vertex -5 2.5 2.5
      vertex 5 -2.5 2.5
      vertex 5 2.5 2.5
    endloop
  endfacet
  facet normal 0 0 1
    outer loop
      vertex 5 -2.5 2.5
      vertex -5 2.5 2.5
      vertex -5 -2.5 2.5
    endloop
  endfacet
  facet normal 1 -0 0
    outer loop
      vertex 5 -2.5 2.5
      vertex 5 2.5 -2.5
      vertex 5 2.5 2.5
    endloop
  endfacet
  facet normal 1 0 0
    outer loop
      vertex 5 2.5 -2.5
      vertex 5 -2.5 2.5
      vertex 5 -2.5 -2.5
    endloop
  endfacet
  facet normal 0 1 0
    outer loop
      vertex 5 2.5 2.5
      vertex 0 2.5 0.7
      vertex -5 2.5 2.5
    endloop
  endfacet
  facet normal 0 1 0
    outer loop
      vertex 5 2.5 2.5
      vertex 0.19465 2.5 0.693882
      vertex 0 2.5 0.7
    endloop
  endfacet
  facet normal 0 1 0
    outer loop
      vertex 5 2.5 2.5
      vertex 0.388533 2.5 0.675555
      vertex 0.19465 2.5 0.693882
    endloop
  endfacet
  facet normal 0 1 0
    outer loop
      vertex 5 2.5 2.5
      vertex 0.580882 2.5 0.64509
      vertex 0.388533 2.5 0.675555
    endloop
  endfacet
  facet normal 0 1 0
    outer loop
      vertex 5 2.5 2.5
      vertex 0.770938 2.5 0.602608
      vertex 0.580882 2.5 0.64509
    endloop
  endfacet
  facet normal 0 1 0
    outer loop
      vertex 5 2.5 2.5
      vertex 0.957952 2.5 0.548275
      vertex 0.770938 2.5 0.602608
    endloop
  endfacet
  facet normal 0 1 0
    outer loop
      vertex 5 2.5 2.5
      vertex 1.14119 2.5 0.482306
      vertex 0.957952 2.5 0.548275
    endloop
  endfacet
  facet normal 0 1 0
    outer loop
      vertex 5 2.5 2.5
      vertex 1.31992 2.5 0.404963
      vertex 1.14119 2.5 0.482306
    endloop
  endfacet
  facet normal 0 1 0
    outer loop
      vertex 5 2.5 2.5
      vertex 1.49344 2.5 0.31655
      vertex 1.31992 2.5 0.404963
    endloop
  endfacet
  facet normal 0 1 0
    outer loop
      vertex 5 2.5 2.5
      vertex 1.66106 2.5 0.217416
      vertex 1.49344 2.5 0.31655
    endloop
  endfacet
  facet normal 0 1 0
    outer loop
      vertex 5 2.5 2.5
      vertex 1.82213 2.5 0.107952
      vertex 1.66106 2.5 0.217416
    endloop
  endfacet
  facet normal 0 1 0
    outer loop
      vertex 5 2.5 2.5
      vertex 1.97601 2.5 -0.0114088
      vertex 1.82213 2.5 0.107952
    endloop
  endfacet
  facet normal 0 1 0
    outer loop
      vertex 5 2.5 2.5
      vertex 2.1221 2.5 -0.140197
      vertex 1.97601 2.5 -0.0114088
    endloop
  endfacet
  facet normal 0 1 0
    outer loop
      vertex 5 2.5 2.5
      vertex 2.2598 2.5 -0.277904
      vertex 2.1221 2.5 -0.140197
    endloop
  endfacet
  facet normal 0 1 0
    outer loop
      vertex 5 2.5 2.5
      vertex 2.38859 2.5 -0.423985
      vertex 2.2598 2.5 -0.277904
    endloop
  endfacet
  facet normal 0 1 0
    outer loop
      vertex 5 2.5 2.5
      vertex 2.50795 2.5 -0.577866
      vertex 2.38859 2.5 -0.423985
    endloop
  endfacet
  facet normal 0 1 0
    outer loop
      vertex 5 2.5 2.5
      vertex 2.61742 2.5 -0.738936
      vertex 2.50795 2.5 -0.577866
    endloop
  endfacet
  facet normal 0 1 0
    outer loop
      vertex 5 2.5 2.5
      vertex 2.71655 2.5 -0.906563
      vertex 2.61742 2.5 -0.738936
    endloop
  endfacet
  facet normal 0 1 0
    outer loop
      vertex 5 2.5 2.5
      vertex 2.80496 2.5 -1.08008
      vertex 2.71655 2.5 -0.906563
    endloop
  endfacet
  facet normal 0 1 -0
    outer loop
      vertex 5 2.5 -2.5
      vertex 2.80496 2.5 -1.08008
      vertex 5 2.5 2.5
    endloop
  endfacet
  facet normal 0 1 0
    outer loop
      vertex 2.80496 2.5 -1.08008
      vertex 5 2.5 -2.5
      vertex 2.88231 2.5 -1.25881
    endloop
  endfacet
  facet normal 0 1 0
    outer loop
      vertex 2.88231 2.5 -1.25881
      vertex 5 2.5 -2.5
      vertex 2.94827 2.5 -1.44205
    endloop
  endfacet
  facet normal 0 1 0
    outer loop
      vertex 2.94827 2.5 -1.44205
      vertex 5 2.5 -2.5
      vertex 3.00261 2.5 -1.62906
    endloop
  endfacet
  facet normal 0 1 0
    outer loop
      vertex 3.00261 2.5 -1.62906
      vertex 5 2.5 -2.5
      vertex 3.04509 2.5 -1.81912
    endloop
  endfacet
  facet normal 0 1 0
    outer loop
      vertex 3.04509 2.5 -1.81912
      vertex 5 2.5 -2.5
      vertex 3.07555 2.5 -2.01147
    endloop
  endfacet
  facet normal 0 1 0
    outer loop
      vertex 3.07555 2.5 -2.01147
      vertex 5 2.5 -2.5
      vertex 3.09388 2.5 -2.20535
    endloop
  endfacet
  facet normal 0 1 0
    outer loop
      vertex 3.09388 2.5 -2.20535
      vertex 5 2.5 -2.5
      vertex 3.1 2.5 -2.4
    endloop
  endfacet
  facet normal 0 1 0
    outer loop
      vertex 3.1 2.5 -2.4
      vertex 5 2.5 -2.5
      vertex 3.09686 2.5 -2.5
    endloop
  endfacet
  facet normal 0 1 -0
    outer loop
      vertex -0.19465 2.5 0.693882
      vertex -5 2.5 2.5
      vertex 0 2.5 0.7
    endloop
  endfacet
  facet normal 0 1 -0
    outer loop
      vertex -0.388533 2.5 0.675555
      vertex -5 2.5 2.5
      vertex -0.19465 2.5 0.693882
    endloop
  endfacet
  facet normal 0 1 -0
    outer loop
      vertex -0.580882 2.5 0.64509
      vertex -5 2.5 2.5
      vertex -0.388533 2.5 0.675555
    endloop
  endfacet
  facet normal 0 1 -0
    outer loop
      vertex -0.770938 2.5 0.602608
      vertex -5 2.5 2.5
      vertex -0.580882 2.5 0.64509
    endloop
  endfacet
  facet normal 0 1 -0
    outer loop
      vertex -0.957952 2.5 0.548275
      vertex -5 2.5 2.5
      vertex -0.770938 2.5 0.602608
    endloop
  endfacet
  facet normal 0 1 -0
    outer loop
      vertex -1.14119 2.5 0.482306
      vertex -5 2.5 2.5
      vertex -0.957952 2.5 0.548275
    endloop
  endfacet
  facet normal 0 1 -0
    outer loop
      vertex -1.31992 2.5 0.404963
      vertex -5 2.5 2.5
      vertex -1.14119 2.5 0.482306
    endloop
  endfacet
  facet normal 0 1 -0
    outer loop
      vertex -1.49344 2.5 0.31655
      vertex -5 2.5 2.5
      vertex -1.31992 2.5 0.404963
    endloop
  endfacet
  facet normal 0 1 -0
    outer loop
      vertex -1.66106 2.5 0.217416
      vertex -5 2.5 2.5
      vertex -1.49344 2.5 0.31655
    endloop
  endfacet
  facet normal 0 1 -0
    outer loop
      vertex -1.82213 2.5 0.107952
      vertex -5 2.5 2.5
      vertex -1.66106 2.5 0.217416
    endloop
  endfacet
  facet normal 0 1 -0
    outer loop
      vertex -1.97601 2.5 -0.0114088
      vertex -5 2.5 2.5
      vertex -1.82213 2.5 0.107952
    endloop
  endfacet
  facet normal 0 1 -0
    outer loop
      vertex -2.1221 2.5 -0.140197
      vertex -5 2.5 2.5
      vertex -1.97601 2.5 -0.0114088
    endloop
  endfacet
  facet normal 0 1 -0
    outer loop
      vertex -2.2598 2.5 -0.277904
      vertex -5 2.5 2.5
      vertex -2.1221 2.5 -0.140197
    endloop
  endfacet
  facet normal 0 1 -0
    outer loop
      vertex -2.38859 2.5 -0.423985
      vertex -5 2.5 2.5
      vertex -2.2598 2.5 -0.277904
    endloop
  endfacet
  facet normal 0 1 -0
    outer loop
      vertex -2.50795 2.5 -0.577866
      vertex -5 2.5 2.5
      vertex -2.38859 2.5 -0.423985
    endloop
  endfacet
  facet normal 0 1 -0
    outer loop
      vertex -2.61742 2.5 -0.738936
      vertex -5 2.5 2.5
      vertex -2.50795 2.5 -0.577866
    endloop
  endfacet
  facet normal 0 1 -0
    outer loop
      vertex -2.71655 2.5 -0.906563
      vertex -5 2.5 2.5
      vertex -2.61742 2.5 -0.738936
    endloop
  endfacet
  facet normal 0 1 -0
    outer loop
      vertex -2.80496 2.5 -1.08008
      vertex -5 2.5 2.5
      vertex -2.71655 2.5 -0.906563
    endloop
  endfacet
  facet normal 0 1 0
    outer loop
      vertex -5 2.5 -2.5
      vertex -2.80496 2.5 -1.08008
      vertex -2.88231 2.5 -1.25881
    endloop
  endfacet
  facet normal 0 1 0
    outer loop
      vertex -5 2.5 -2.5
      vertex -2.88231 2.5 -1.25881
      vertex -2.94827 2.5 -1.44205
    endloop
  endfacet
  facet normal 0 1 0
    outer loop
      vertex -5 2.5 -2.5
      vertex -2.94827 2.5 -1.44205
      vertex -3.00261 2.5 -1.62906
    endloop
  endfacet
  facet normal 0 1 0
    outer loop
      vertex -5 2.5 -2.5
      vertex -3.00261 2.5 -1.62906
      vertex -3.04509 2.5 -1.81912
    endloop
  endfacet
  facet normal 0 1 0
    outer loop
      vertex -5 2.5 -2.5
      vertex -3.04509 2.5 -1.81912
      vertex -3.07555 2.5 -2.01147
    endloop
  endfacet
  facet normal 0 1 0
    outer loop
      vertex -5 2.5 -2.5
      vertex -3.07555 2.5 -2.01147
      vertex -3.09388 2.5 -2.20535
    endloop
  endfacet
  facet normal 0 1 0
    outer loop
      vertex -5 2.5 -2.5
      vertex -3.09388 2.5 -2.20535
      vertex -3.1 2.5 -2.4
    endloop
  endfacet
  facet normal 0 1 0
    outer loop
      vertex -5 2.5 -2.5
      vertex -3.1 2.5 -2.4
      vertex -3.09686 2.5 -2.5
    endloop
  endfacet
  facet normal 0 1 0
    outer loop
      vertex -2.80496 2.5 -1.08008
      vertex -5 2.5 -2.5
      vertex -5 2.5 2.5
    endloop
  endfacet
  facet normal 0 0 -1
    outer loop
      vertex -5 -2.5 -2.5
      vertex -3.09686 2.5 -2.5
      vertex -3.09686 -2.5 -2.5
    endloop
  endfacet
  facet normal -0 0 -1
    outer loop
      vertex -3.09686 2.5 -2.5
      vertex -5 -2.5 -2.5
      vertex -5 2.5 -2.5
    endloop
  endfacet
  facet normal 0 0 -1
    outer loop
      vertex 3.09686 -2.5 -2.5
      vertex 5 2.5 -2.5
      vertex 5 -2.5 -2.5
    endloop
  endfacet
  facet normal -0 0 -1
    outer loop
      vertex 5 2.5 -2.5
      vertex 3.09686 -2.5 -2.5
      vertex 3.09686 2.5 -2.5
    endloop
  endfacet
  facet normal 0 -1 0
    outer loop
      vertex -5 -2.5 2.5
      vertex 0 -2.5 0.7
      vertex 5 -2.5 2.5
    endloop
  endfacet
  facet normal 0 -1 0
    outer loop
      vertex -5 -2.5 2.5
      vertex -0.19465 -2.5 0.693882
      vertex 0 -2.5 0.7
    endloop
  endfacet
  facet normal 0 -1 0
    outer loop
      vertex -5 -2.5 2.5
      vertex -0.388533 -2.5 0.675555
      vertex -0.19465 -2.5 0.693882
    endloop
  endfacet
  facet normal 0 -1 0
    outer loop
      vertex -5 -2.5 2.5
      vertex -0.580882 -2.5 0.64509
      vertex -0.388533 -2.5 0.675555
    endloop
  endfacet
  facet normal 0 -1 0
    outer loop
      vertex -5 -2.5 2.5
      vertex -0.770938 -2.5 0.602608
      vertex -0.580882 -2.5 0.64509
    endloop
  endfacet
  facet normal 0 -1 0
    outer loop
      vertex -5 -2.5 2.5
      vertex -0.957952 -2.5 0.548275
      vertex -0.770938 -2.5 0.602608
    endloop
  endfacet
  facet normal 0 -1 0
    outer loop
      vertex -5 -2.5 2.5
      vertex -1.14119 -2.5 0.482306
      vertex -0.957952 -2.5 0.548275
    endloop
  endfacet
  facet normal 0 -1 0
    outer loop
      vertex -5 -2.5 2.5
      vertex -1.31992 -2.5 0.404963
      vertex -1.14119 -2.5 0.482306
    endloop
  endfacet
  facet normal 0 -1 0
    outer loop
      vertex -5 -2.5 2.5
      vertex -1.49344 -2.5 0.31655
      vertex -1.31992 -2.5 0.404963
    endloop
  endfacet
  facet normal 0 -1 0
    outer loop
      vertex -5 -2.5 2.5
      vertex -1.66106 -2.5 0.217416
      vertex -1.49344 -2.5 0.31655
    endloop
  endfacet
  facet normal 0 -1 0
    outer loop
      vertex -5 -2.5 2.5
      vertex -1.82213 -2.5 0.107952
      vertex -1.66106 -2.5 0.217416
    endloop
  endfacet
  facet normal 0 -1 0
    outer loop
      vertex -5 -2.5 2.5
      vertex -1.97601 -2.5 -0.0114088
      vertex -1.82213 -2.5 0.107952
    endloop
  endfacet
  facet normal 0 -1 0
    outer loop
      vertex -5 -2.5 2.5
      vertex -2.1221 -2.5 -0.140197
      vertex -1.97601 -2.5 -0.0114088
    endloop
  endfacet
  facet normal 0 -1 0
    outer loop
      vertex -5 -2.5 2.5
      vertex -2.2598 -2.5 -0.277904
      vertex -2.1221 -2.5 -0.140197
    endloop
  endfacet
  facet normal 0 -1 0
    outer loop
      vertex -5 -2.5 2.5
      vertex -2.38859 -2.5 -0.423985
      vertex -2.2598 -2.5 -0.277904
    endloop
  endfacet
  facet normal 0 -1 0
    outer loop
      vertex -5 -2.5 2.5
      vertex -2.50795 -2.5 -0.577866
      vertex -2.38859 -2.5 -0.423985
    endloop
  endfacet
  facet normal 0 -1 0
    outer loop
      vertex -5 -2.5 2.5
      vertex -2.61742 -2.5 -0.738936
      vertex -2.50795 -2.5 -0.577866
    endloop
  endfacet
  facet normal 0 -1 0
    outer loop
      vertex -5 -2.5 2.5
      vertex -2.71655 -2.5 -0.906563
      vertex -2.61742 -2.5 -0.738936
    endloop
  endfacet
  facet normal 0 -1 0
    outer loop
      vertex -5 -2.5 2.5
      vertex -2.80496 -2.5 -1.08008
      vertex -2.71655 -2.5 -0.906563
    endloop
  endfacet
  facet normal 0 -1 0
    outer loop
      vertex -5 -2.5 -2.5
      vertex -2.80496 -2.5 -1.08008
      vertex -5 -2.5 2.5
    endloop
  endfacet
  facet normal 0 -1 0
    outer loop
      vertex -2.80496 -2.5 -1.08008
      vertex -5 -2.5 -2.5
      vertex -2.88231 -2.5 -1.25881
    endloop
  endfacet
  facet normal 0 -1 0
    outer loop
      vertex -2.88231 -2.5 -1.25881
      vertex -5 -2.5 -2.5
      vertex -2.94827 -2.5 -1.44205
    endloop
  endfacet
  facet normal 0 -1 0
    outer loop
      vertex -2.94827 -2.5 -1.44205
      vertex -5 -2.5 -2.5
      vertex -3.00261 -2.5 -1.62906
    endloop
  endfacet
  facet normal 0 -1 0
    outer loop
      vertex -3.00261 -2.5 -1.62906
      vertex -5 -2.5 -2.5
      vertex -3.04509 -2.5 -1.81912
    endloop
  endfacet
  facet normal 0 -1 0
    outer loop
      vertex -3.04509 -2.5 -1.81912
      vertex -5 -2.5 -2.5
      vertex -3.07555 -2.5 -2.01147
    endloop
  endfacet
  facet normal 0 -1 0
    outer loop
      vertex -3.07555 -2.5 -2.01147
      vertex -5 -2.5 -2.5
      vertex -3.09388 -2.5 -2.20535
    endloop
  endfacet
  facet normal 0 -1 0
    outer loop
      vertex -3.09388 -2.5 -2.20535
      vertex -5 -2.5 -2.5
      vertex -3.1 -2.5 -2.4
    endloop
  endfacet
  facet normal 0 -1 -0
    outer loop
      vertex -3.1 -2.5 -2.4
      vertex -5 -2.5 -2.5
      vertex -3.09686 -2.5 -2.5
    endloop
  endfacet
  facet normal 0 -1 0
    outer loop
      vertex 0.19465 -2.5 0.693882
      vertex 5 -2.5 2.5
      vertex 0 -2.5 0.7
    endloop
  endfacet
  facet normal 0 -1 0
    outer loop
      vertex 0.388533 -2.5 0.675555
      vertex 5 -2.5 2.5
      vertex 0.19465 -2.5 0.693882
    endloop
  endfacet
  facet normal 0 -1 0
    outer loop
      vertex 0.580882 -2.5 0.64509
      vertex 5 -2.5 2.5
      vertex 0.388533 -2.5 0.675555
    endloop
  endfacet
  facet normal 0 -1 0
    outer loop
      vertex 0.770938 -2.5 0.602608
      vertex 5 -2.5 2.5
      vertex 0.580882 -2.5 0.64509
    endloop
  endfacet
  facet normal 0 -1 0
    outer loop
      vertex 0.957952 -2.5 0.548275
      vertex 5 -2.5 2.5
      vertex 0.770938 -2.5 0.602608
    endloop
  endfacet
  facet normal 0 -1 0
    outer loop
      vertex 1.14119 -2.5 0.482306
      vertex 5 -2.5 2.5
      vertex 0.957952 -2.5 0.548275
    endloop
  endfacet
  facet normal 0 -1 0
    outer loop
      vertex 1.31992 -2.5 0.404963
      vertex 5 -2.5 2.5
      vertex 1.14119 -2.5 0.482306
    endloop
  endfacet
  facet normal 0 -1 0
    outer loop
      vertex 1.49344 -2.5 0.31655
      vertex 5 -2.5 2.5
      vertex 1.31992 -2.5 0.404963
    endloop
  endfacet
  facet normal 0 -1 0
    outer loop
      vertex 1.66106 -2.5 0.217416
      vertex 5 -2.5 2.5
      vertex 1.49344 -2.5 0.31655
    endloop
  endfacet
  facet normal 0 -1 0
    outer loop
      vertex 1.82213 -2.5 0.107952
      vertex 5 -2.5 2.5
      vertex 1.66106 -2.5 0.217416
    endloop
  endfacet
  facet normal 0 -1 0
    outer loop
      vertex 1.97601 -2.5 -0.0114088
      vertex 5 -2.5 2.5
      vertex 1.82213 -2.5 0.107952
    endloop
  endfacet
  facet normal 0 -1 0
    outer loop
      vertex 2.1221 -2.5 -0.140197
      vertex 5 -2.5 2.5
      vertex 1.97601 -2.5 -0.0114088
    endloop
  endfacet
  facet normal 0 -1 0
    outer loop
      vertex 2.2598 -2.5 -0.277904
      vertex 5 -2.5 2.5
      vertex 2.1221 -2.5 -0.140197
    endloop
  endfacet
  facet normal 0 -1 0
    outer loop
      vertex 2.38859 -2.5 -0.423985
      vertex 5 -2.5 2.5
      vertex 2.2598 -2.5 -0.277904
    endloop
  endfacet
  facet normal 0 -1 0
    outer loop
      vertex 2.50795 -2.5 -0.577866
      vertex 5 -2.5 2.5
      vertex 2.38859 -2.5 -0.423985
    endloop
  endfacet
  facet normal 0 -1 0
    outer loop
      vertex 2.61742 -2.5 -0.738936
      vertex 5 -2.5 2.5
      vertex 2.50795 -2.5 -0.577866
    endloop
  endfacet
  facet normal 0 -1 0
    outer loop
      vertex 2.71655 -2.5 -0.906563
      vertex 5 -2.5 2.5
      vertex 2.61742 -2.5 -0.738936
    endloop
  endfacet
  facet normal 0 -1 0
    outer loop
      vertex 2.80496 -2.5 -1.08008
      vertex 5 -2.5 2.5
      vertex 2.71655 -2.5 -0.906563
    endloop
  endfacet
  facet normal 0 -1 0
    outer loop
      vertex 5 -2.5 -2.5
      vertex 2.80496 -2.5 -1.08008
      vertex 2.88231 -2.5 -1.25881
    endloop
  endfacet
  facet normal 0 -1 0
    outer loop
      vertex 5 -2.5 -2.5
      vertex 2.88231 -2.5 -1.25881
      vertex 2.94827 -2.5 -1.44205
    endloop
  endfacet
  facet normal 0 -1 0
    outer loop
      vertex 5 -2.5 -2.5
      vertex 2.94827 -2.5 -1.44205
      vertex 3.00261 -2.5 -1.62906
    endloop
  endfacet
  facet normal 0 -1 0
    outer loop
      vertex 5 -2.5 -2.5
      vertex 3.00261 -2.5 -1.62906
      vertex 3.04509 -2.5 -1.81912
    endloop
  endfacet
  facet normal 0 -1 0
    outer loop
      vertex 5 -2.5 -2.5
      vertex 3.04509 -2.5 -1.81912
      vertex 3.07555 -2.5 -2.01147
    endloop
  endfacet
  facet normal 0 -1 0
    outer loop
      vertex 5 -2.5 -2.5
      vertex 3.07555 -2.5 -2.01147
      vertex 3.09388 -2.5 -2.20535
    endloop
  endfacet
  facet normal 0 -1 0
    outer loop
      vertex 5 -2.5 -2.5
      vertex 3.09388 -2.5 -2.20535
      vertex 3.1 -2.5 -2.4
    endloop
  endfacet
  facet normal 0 -1 0
    outer loop
      vertex 5 -2.5 -2.5
      vertex 3.1 -2.5 -2.4
      vertex 3.09686 -2.5 -2.5
    endloop
  endfacet
  facet normal 0 -1 0
    outer loop
      vertex 2.80496 -2.5 -1.08008
      vertex 5 -2.5 -2.5
      vertex 5 -2.5 2.5
    endloop
  endfacet
  facet normal -0.999506 0 -0.0314255
    outer loop
      vertex 3.1 -2.5 -2.4
      vertex 3.09388 2.5 -2.20535
      vertex 3.1 2.5 -2.4
    endloop
  endfacet
  facet normal -0.999506 -0 -0.0314255
    outer loop
      vertex 3.09388 2.5 -2.20535
      vertex 3.1 -2.5 -2.4
      vertex 3.09388 -2.5 -2.20535
    endloop
  endfacet
  facet normal -0.995561 0 -0.0941233
    outer loop
      vertex 3.09388 -2.5 -2.20535
      vertex 3.07555 2.5 -2.01147
      vertex 3.09388 2.5 -2.20535
    endloop
  endfacet
  facet normal -0.995561 -0 -0.0941233
    outer loop
      vertex 3.07555 2.5 -2.01147
      vertex 3.09388 -2.5 -2.20535
      vertex 3.07555 -2.5 -2.01147
    endloop
  endfacet
  facet normal 0.999506 0 -0.0314255
    outer loop
      vertex -3.09388 -2.5 -2.20535
      vertex -3.1 2.5 -2.4
      vertex -3.09388 2.5 -2.20535
    endloop
  endfacet
  facet normal 0.999506 0 -0.0314255
    outer loop
      vertex -3.1 2.5 -2.4
      vertex -3.09388 -2.5 -2.20535
      vertex -3.1 -2.5 -2.4
    endloop
  endfacet
  facet normal -0.0314153 0 -0.999506
    outer loop
      vertex 0 -2.5 0.7
      vertex 0.19465 2.5 0.693882
      vertex 0.19465 -2.5 0.693882
    endloop
  endfacet
  facet normal -0.0314153 0 -0.999506
    outer loop
      vertex 0.19465 2.5 0.693882
      vertex 0 -2.5 0.7
      vertex 0 2.5 0.7
    endloop
  endfacet
  facet normal -0.707125 0 -0.707089
    outer loop
      vertex 2.2598 -2.5 -0.277904
      vertex 2.1221 2.5 -0.140197
      vertex 2.2598 2.5 -0.277904
    endloop
  endfacet
  facet normal -0.707125 -0 -0.707089
    outer loop
      vertex 2.1221 2.5 -0.140197
      vertex 2.2598 -2.5 -0.277904
      vertex 2.1221 -2.5 -0.140197
    endloop
  endfacet
  facet normal 0.66129 0 -0.75013
    outer loop
      vertex -2.1221 -2.5 -0.140197
      vertex -1.97601 2.5 -0.0114088
      vertex -1.97601 -2.5 -0.0114088
    endloop
  endfacet
  facet normal 0.66129 0 -0.75013
    outer loop
      vertex -1.97601 2.5 -0.0114088
      vertex -2.1221 -2.5 -0.140197
      vertex -2.1221 2.5 -0.140197
    endloop
  endfacet
  facet normal 0.338735 0 -0.940882
    outer loop
      vertex -1.14119 -2.5 0.482306
      vertex -0.957952 2.5 0.548275
      vertex -0.957952 -2.5 0.548275
    endloop
  endfacet
  facet normal 0.338735 0 -0.940882
    outer loop
      vertex -0.957952 2.5 0.548275
      vertex -1.14119 -2.5 0.482306
      vertex -1.14119 2.5 0.482306
    endloop
  endfacet
  facet normal -0.917742 0 -0.397177
    outer loop
      vertex 2.88231 -2.5 -1.25881
      vertex 2.80496 2.5 -1.08008
      vertex 2.88231 2.5 -1.25881
    endloop
  endfacet
  facet normal -0.917742 -0 -0.397177
    outer loop
      vertex 2.80496 2.5 -1.08008
      vertex 2.88231 -2.5 -1.25881
      vertex 2.80496 -2.5 -1.08008
    endloop
  endfacet
  facet normal -0.397146 0 -0.917755
    outer loop
      vertex 1.14119 -2.5 0.482306
      vertex 1.31992 2.5 0.404963
      vertex 1.31992 -2.5 0.404963
    endloop
  endfacet
  facet normal -0.397146 0 -0.917755
    outer loop
      vertex 1.31992 2.5 0.404963
      vertex 1.14119 -2.5 0.482306
      vertex 1.14119 2.5 0.482306
    endloop
  endfacet
  facet normal 0.156434 0 -0.987688
    outer loop
      vertex -0.580882 -2.5 0.64509
      vertex -0.388533 2.5 0.675555
      vertex -0.388533 -2.5 0.675555
    endloop
  endfacet
  facet normal 0.156434 0 -0.987688
    outer loop
      vertex -0.388533 2.5 0.675555
      vertex -0.580882 -2.5 0.64509
      vertex -0.580882 2.5 0.64509
    endloop
  endfacet
  facet normal -0.218141 0 -0.975917
    outer loop
      vertex 0.580882 -2.5 0.64509
      vertex 0.770938 2.5 0.602608
      vertex 0.770938 -2.5 0.602608
    endloop
  endfacet
  facet normal -0.218141 0 -0.975917
    outer loop
      vertex 0.770938 2.5 0.602608
      vertex 0.580882 -2.5 0.64509
      vertex 0.580882 2.5 0.64509
    endloop
  endfacet
  facet normal -0.66129 0 -0.75013
    outer loop
      vertex 1.97601 -2.5 -0.0114088
      vertex 2.1221 2.5 -0.140197
      vertex 2.1221 -2.5 -0.140197
    endloop
  endfacet
  facet normal -0.66129 0 -0.75013
    outer loop
      vertex 2.1221 2.5 -0.140197
      vertex 1.97601 -2.5 -0.0114088
      vertex 1.97601 2.5 -0.0114088
    endloop
  endfacet
  facet normal -0.453991 0 -0.891006
    outer loop
      vertex 1.31992 -2.5 0.404963
      vertex 1.49344 2.5 0.31655
      vertex 1.49344 -2.5 0.31655
    endloop
  endfacet
  facet normal -0.453991 0 -0.891006
    outer loop
      vertex 1.49344 2.5 0.31655
      vertex 1.31992 -2.5 0.404963
      vertex 1.31992 2.5 0.404963
    endloop
  endfacet
  facet normal 0.975921 0 -0.218126
    outer loop
      vertex -3.00261 -2.5 -1.62906
      vertex -3.04509 2.5 -1.81912
      vertex -3.00261 2.5 -1.62906
    endloop
  endfacet
  facet normal 0.975921 0 -0.218126
    outer loop
      vertex -3.04509 2.5 -1.81912
      vertex -3.00261 -2.5 -1.62906
      vertex -3.04509 -2.5 -1.81912
    endloop
  endfacet
  facet normal 0.827064 0 -0.562108
    outer loop
      vertex -2.50795 -2.5 -0.577866
      vertex -2.61742 2.5 -0.738936
      vertex -2.50795 2.5 -0.577866
    endloop
  endfacet
  facet normal 0.827064 0 -0.562108
    outer loop
      vertex -2.61742 2.5 -0.738936
      vertex -2.50795 -2.5 -0.577866
      vertex -2.61742 -2.5 -0.738936
    endloop
  endfacet
  facet normal 0.860752 0 -0.509025
    outer loop
      vertex -2.61742 -2.5 -0.738936
      vertex -2.71655 2.5 -0.906563
      vertex -2.61742 2.5 -0.738936
    endloop
  endfacet
  facet normal 0.860752 0 -0.509025
    outer loop
      vertex -2.71655 2.5 -0.906563
      vertex -2.61742 -2.5 -0.738936
      vertex -2.71655 -2.5 -0.906563
    endloop
  endfacet
  facet normal 0.987693 0 -0.156408
    outer loop
      vertex -3.04509 -2.5 -1.81912
      vertex -3.07555 2.5 -2.01147
      vertex -3.04509 2.5 -1.81912
    endloop
  endfacet
  facet normal 0.987693 0 -0.156408
    outer loop
      vertex -3.07555 2.5 -2.01147
      vertex -3.04509 -2.5 -1.81912
      vertex -3.07555 -2.5 -2.01147
    endloop
  endfacet
  facet normal 0.509056 0 -0.860733
    outer loop
      vertex -1.66106 -2.5 0.217416
      vertex -1.49344 2.5 0.31655
      vertex -1.49344 -2.5 0.31655
    endloop
  endfacet
  facet normal 0.509056 0 -0.860733
    outer loop
      vertex -1.49344 2.5 0.31655
      vertex -1.66106 -2.5 0.217416
      vertex -1.66106 2.5 0.217416
    endloop
  endfacet
  facet normal 0.612905 0 -0.790157
    outer loop
      vertex -1.97601 -2.5 -0.0114088
      vertex -1.82213 2.5 0.107952
      vertex -1.82213 -2.5 0.107952
    endloop
  endfacet
  facet normal 0.612905 0 -0.790157
    outer loop
      vertex -1.82213 2.5 0.107952
      vertex -1.97601 -2.5 -0.0114088
      vertex -1.97601 2.5 -0.0114088
    endloop
  endfacet
  facet normal 0.0941066 0 -0.995562
    outer loop
      vertex -0.388533 -2.5 0.675555
      vertex -0.19465 2.5 0.693882
      vertex -0.19465 -2.5 0.693882
    endloop
  endfacet
  facet normal 0.0941066 0 -0.995562
    outer loop
      vertex -0.19465 2.5 0.693882
      vertex -0.388533 -2.5 0.675555
      vertex -0.388533 2.5 0.675555
    endloop
  endfacet
  facet normal 0.999507 -0 0.0313845
    outer loop
      vertex -3.1 -2.5 -2.4
      vertex -3.09686 2.5 -2.5
      vertex -3.1 2.5 -2.4
    endloop
  endfacet
  facet normal 0.999507 0 0.0313845
    outer loop
      vertex -3.09686 2.5 -2.5
      vertex -3.1 -2.5 -2.4
      vertex -3.09686 -2.5 -2.5
    endloop
  endfacet
  facet normal -0.975921 0 -0.218126
    outer loop
      vertex 3.04509 -2.5 -1.81912
      vertex 3.00261 2.5 -1.62906
      vertex 3.04509 2.5 -1.81912
    endloop
  endfacet
  facet normal -0.975921 -0 -0.218126
    outer loop
      vertex 3.00261 2.5 -1.62906
      vertex 3.04509 -2.5 -1.81912
      vertex 3.00261 -2.5 -1.62906
    endloop
  endfacet
  facet normal -0.940898 0 -0.33869
    outer loop
      vertex 2.94827 -2.5 -1.44205
      vertex 2.88231 2.5 -1.25881
      vertex 2.94827 2.5 -1.44205
    endloop
  endfacet
  facet normal -0.940898 -0 -0.33869
    outer loop
      vertex 2.88231 2.5 -1.25881
      vertex 2.94827 -2.5 -1.44205
      vertex 2.88231 -2.5 -1.25881
    endloop
  endfacet
  facet normal -0.960282 0 -0.279032
    outer loop
      vertex 3.00261 -2.5 -1.62906
      vertex 2.94827 2.5 -1.44205
      vertex 3.00261 2.5 -1.62906
    endloop
  endfacet
  facet normal -0.960282 -0 -0.279032
    outer loop
      vertex 2.94827 2.5 -1.44205
      vertex 3.00261 -2.5 -1.62906
      vertex 2.94827 -2.5 -1.44205
    endloop
  endfacet
  facet normal -0.790161 0 -0.6129
    outer loop
      vertex 2.50795 -2.5 -0.577866
      vertex 2.38859 2.5 -0.423985
      vertex 2.50795 2.5 -0.577866
    endloop
  endfacet
  facet normal -0.790161 -0 -0.6129
    outer loop
      vertex 2.38859 2.5 -0.423985
      vertex 2.50795 -2.5 -0.577866
      vertex 2.38859 -2.5 -0.423985
    endloop
  endfacet
  facet normal -0.827064 0 -0.562108
    outer loop
      vertex 2.61742 -2.5 -0.738936
      vertex 2.50795 2.5 -0.577866
      vertex 2.61742 2.5 -0.738936
    endloop
  endfacet
  facet normal -0.827064 -0 -0.562108
    outer loop
      vertex 2.50795 2.5 -0.577866
      vertex 2.61742 -2.5 -0.738936
      vertex 2.50795 -2.5 -0.577866
    endloop
  endfacet
  facet normal -0.156434 0 -0.987688
    outer loop
      vertex 0.388533 -2.5 0.675555
      vertex 0.580882 2.5 0.64509
      vertex 0.580882 -2.5 0.64509
    endloop
  endfacet
  facet normal -0.156434 0 -0.987688
    outer loop
      vertex 0.580882 2.5 0.64509
      vertex 0.388533 -2.5 0.675555
      vertex 0.388533 2.5 0.675555
    endloop
  endfacet
  facet normal -0.338735 0 -0.940882
    outer loop
      vertex 0.957952 -2.5 0.548275
      vertex 1.14119 2.5 0.482306
      vertex 1.14119 -2.5 0.482306
    endloop
  endfacet
  facet normal -0.338735 0 -0.940882
    outer loop
      vertex 1.14119 2.5 0.482306
      vertex 0.957952 -2.5 0.548275
      vertex 0.957952 2.5 0.548275
    endloop
  endfacet
  facet normal -0.509056 0 -0.860733
    outer loop
      vertex 1.49344 -2.5 0.31655
      vertex 1.66106 2.5 0.217416
      vertex 1.66106 -2.5 0.217416
    endloop
  endfacet
  facet normal -0.509056 0 -0.860733
    outer loop
      vertex 1.66106 2.5 0.217416
      vertex 1.49344 -2.5 0.31655
      vertex 1.49344 2.5 0.31655
    endloop
  endfacet
  facet normal 0.917742 0 -0.397177
    outer loop
      vertex -2.80496 -2.5 -1.08008
      vertex -2.88231 2.5 -1.25881
      vertex -2.80496 2.5 -1.08008
    endloop
  endfacet
  facet normal 0.917742 0 -0.397177
    outer loop
      vertex -2.88231 2.5 -1.25881
      vertex -2.80496 -2.5 -1.08008
      vertex -2.88231 -2.5 -1.25881
    endloop
  endfacet
  facet normal 0.960282 0 -0.279032
    outer loop
      vertex -2.94827 -2.5 -1.44205
      vertex -3.00261 2.5 -1.62906
      vertex -2.94827 2.5 -1.44205
    endloop
  endfacet
  facet normal 0.960282 0 -0.279032
    outer loop
      vertex -3.00261 2.5 -1.62906
      vertex -2.94827 -2.5 -1.44205
      vertex -3.00261 -2.5 -1.62906
    endloop
  endfacet
  facet normal 0.995561 0 -0.0941233
    outer loop
      vertex -3.07555 -2.5 -2.01147
      vertex -3.09388 2.5 -2.20535
      vertex -3.07555 2.5 -2.01147
    endloop
  endfacet
  facet normal 0.995561 0 -0.0941233
    outer loop
      vertex -3.09388 2.5 -2.20535
      vertex -3.07555 -2.5 -2.01147
      vertex -3.09388 -2.5 -2.20535
    endloop
  endfacet
  facet normal 0.562087 0 -0.827078
    outer loop
      vertex -1.82213 -2.5 0.107952
      vertex -1.66106 2.5 0.217416
      vertex -1.66106 -2.5 0.217416
    endloop
  endfacet
  facet normal 0.562087 0 -0.827078
    outer loop
      vertex -1.66106 2.5 0.217416
      vertex -1.82213 -2.5 0.107952
      vertex -1.82213 2.5 0.107952
    endloop
  endfacet
  facet normal 0.397146 0 -0.917755
    outer loop
      vertex -1.31992 -2.5 0.404963
      vertex -1.14119 2.5 0.482306
      vertex -1.14119 -2.5 0.482306
    endloop
  endfacet
  facet normal 0.397146 0 -0.917755
    outer loop
      vertex -1.14119 2.5 0.482306
      vertex -1.31992 -2.5 0.404963
      vertex -1.31992 2.5 0.404963
    endloop
  endfacet
  facet normal 0.218141 0 -0.975917
    outer loop
      vertex -0.770938 -2.5 0.602608
      vertex -0.580882 2.5 0.64509
      vertex -0.580882 -2.5 0.64509
    endloop
  endfacet
  facet normal 0.218141 0 -0.975917
    outer loop
      vertex -0.580882 2.5 0.64509
      vertex -0.770938 -2.5 0.602608
      vertex -0.770938 2.5 0.602608
    endloop
  endfacet
  facet normal 0.278993 0 -0.960293
    outer loop
      vertex -0.957952 -2.5 0.548275
      vertex -0.770938 2.5 0.602608
      vertex -0.770938 -2.5 0.602608
    endloop
  endfacet
  facet normal 0.278993 0 -0.960293
    outer loop
      vertex -0.770938 2.5 0.602608
      vertex -0.957952 -2.5 0.548275
      vertex -0.957952 2.5 0.548275
    endloop
  endfacet
  facet normal 0.0314153 0 -0.999506
    outer loop
      vertex -0.19465 -2.5 0.693882
      vertex 0 2.5 0.7
      vertex 0 -2.5 0.7
    endloop
  endfacet
  facet normal 0.0314153 0 -0.999506
    outer loop
      vertex 0 2.5 0.7
      vertex -0.19465 -2.5 0.693882
      vertex -0.19465 2.5 0.693882
    endloop
  endfacet
  facet normal -0.999507 0 0.0313845
    outer loop
      vertex 3.09686 -2.5 -2.5
      vertex 3.1 2.5 -2.4
      vertex 3.09686 2.5 -2.5
    endloop
  endfacet
  facet normal -0.999507 0 0.0313845
    outer loop
      vertex 3.1 2.5 -2.4
      vertex 3.09686 -2.5 -2.5
      vertex 3.1 -2.5 -2.4
    endloop
  endfacet
  facet normal -0.987693 0 -0.156408
    outer loop
      vertex 3.07555 -2.5 -2.01147
      vertex 3.04509 2.5 -1.81912
      vertex 3.07555 2.5 -2.01147
    endloop
  endfacet
  facet normal -0.987693 -0 -0.156408
    outer loop
      vertex 3.04509 2.5 -1.81912
      vertex 3.07555 -2.5 -2.01147
      vertex 3.04509 -2.5 -1.81912
    endloop
  endfacet
  facet normal -0.750105 0 -0.661318
    outer loop
      vertex 2.38859 -2.5 -0.423985
      vertex 2.2598 2.5 -0.277904
      vertex 2.38859 2.5 -0.423985
    endloop
  endfacet
  facet normal -0.750105 -0 -0.661318
    outer loop
      vertex 2.2598 2.5 -0.277904
      vertex 2.38859 -2.5 -0.423985
      vertex 2.2598 -2.5 -0.277904
    endloop
  endfacet
  facet normal -0.891009 0 -0.453985
    outer loop
      vertex 2.80496 -2.5 -1.08008
      vertex 2.71655 2.5 -0.906563
      vertex 2.80496 2.5 -1.08008
    endloop
  endfacet
  facet normal -0.891009 -0 -0.453985
    outer loop
      vertex 2.71655 2.5 -0.906563
      vertex 2.80496 -2.5 -1.08008
      vertex 2.71655 -2.5 -0.906563
    endloop
  endfacet
  facet normal -0.860752 0 -0.509025
    outer loop
      vertex 2.71655 -2.5 -0.906563
      vertex 2.61742 2.5 -0.738936
      vertex 2.71655 2.5 -0.906563
    endloop
  endfacet
  facet normal -0.860752 -0 -0.509025
    outer loop
      vertex 2.61742 2.5 -0.738936
      vertex 2.71655 -2.5 -0.906563
      vertex 2.61742 -2.5 -0.738936
    endloop
  endfacet
  facet normal -0.278993 0 -0.960293
    outer loop
      vertex 0.770938 -2.5 0.602608
      vertex 0.957952 2.5 0.548275
      vertex 0.957952 -2.5 0.548275
    endloop
  endfacet
  facet normal -0.278993 0 -0.960293
    outer loop
      vertex 0.957952 2.5 0.548275
      vertex 0.770938 -2.5 0.602608
      vertex 0.770938 2.5 0.602608
    endloop
  endfacet
  facet normal -0.0941066 0 -0.995562
    outer loop
      vertex 0.19465 -2.5 0.693882
      vertex 0.388533 2.5 0.675555
      vertex 0.388533 -2.5 0.675555
    endloop
  endfacet
  facet normal -0.0941066 0 -0.995562
    outer loop
      vertex 0.388533 2.5 0.675555
      vertex 0.19465 -2.5 0.693882
      vertex 0.19465 2.5 0.693882
    endloop
  endfacet
  facet normal -0.612905 0 -0.790157
    outer loop
      vertex 1.82213 -2.5 0.107952
      vertex 1.97601 2.5 -0.0114088
      vertex 1.97601 -2.5 -0.0114088
    endloop
  endfacet
  facet normal -0.612905 0 -0.790157
    outer loop
      vertex 1.97601 2.5 -0.0114088
      vertex 1.82213 -2.5 0.107952
      vertex 1.82213 2.5 0.107952
    endloop
  endfacet
  facet normal -0.562087 0 -0.827078
    outer loop
      vertex 1.66106 -2.5 0.217416
      vertex 1.82213 2.5 0.107952
      vertex 1.82213 -2.5 0.107952
    endloop
  endfacet
  facet normal -0.562087 0 -0.827078
    outer loop
      vertex 1.82213 2.5 0.107952
      vertex 1.66106 -2.5 0.217416
      vertex 1.66106 2.5 0.217416
    endloop
  endfacet
  facet normal 0.790161 0 -0.6129
    outer loop
      vertex -2.38859 -2.5 -0.423985
      vertex -2.50795 2.5 -0.577866
      vertex -2.38859 2.5 -0.423985
    endloop
  endfacet
  facet normal 0.790161 0 -0.6129
    outer loop
      vertex -2.50795 2.5 -0.577866
      vertex -2.38859 -2.5 -0.423985
      vertex -2.50795 -2.5 -0.577866
    endloop
  endfacet
  facet normal 0.750105 0 -0.661318
    outer loop
      vertex -2.2598 -2.5 -0.277904
      vertex -2.38859 2.5 -0.423985
      vertex -2.2598 2.5 -0.277904
    endloop
  endfacet
  facet normal 0.750105 0 -0.661318
    outer loop
      vertex -2.38859 2.5 -0.423985
      vertex -2.2598 -2.5 -0.277904
      vertex -2.38859 -2.5 -0.423985
    endloop
  endfacet
  facet normal 0.891009 0 -0.453985
    outer loop
      vertex -2.71655 -2.5 -0.906563
      vertex -2.80496 2.5 -1.08008
      vertex -2.71655 2.5 -0.906563
    endloop
  endfacet
  facet normal 0.891009 0 -0.453985
    outer loop
      vertex -2.80496 2.5 -1.08008
      vertex -2.71655 -2.5 -0.906563
      vertex -2.80496 -2.5 -1.08008
    endloop
  endfacet
  facet normal 0.940898 0 -0.33869
    outer loop
      vertex -2.88231 -2.5 -1.25881
      vertex -2.94827 2.5 -1.44205
      vertex -2.88231 2.5 -1.25881
    endloop
  endfacet
  facet normal 0.940898 0 -0.33869
    outer loop
      vertex -2.94827 2.5 -1.44205
      vertex -2.88231 -2.5 -1.25881
      vertex -2.94827 -2.5 -1.44205
    endloop
  endfacet
  facet normal 0.453991 0 -0.891006
    outer loop
      vertex -1.49344 -2.5 0.31655
      vertex -1.31992 2.5 0.404963
      vertex -1.31992 -2.5 0.404963
    endloop
  endfacet
  facet normal 0.453991 0 -0.891006
    outer loop
      vertex -1.31992 2.5 0.404963
      vertex -1.49344 -2.5 0.31655
      vertex -1.49344 2.5 0.31655
    endloop
  endfacet
  facet normal 0.707125 0 -0.707089
    outer loop
      vertex -2.1221 -2.5 -0.140197
      vertex -2.2598 2.5 -0.277904
      vertex -2.1221 2.5 -0.140197
    endloop
  endfacet
  facet normal 0.707125 0 -0.707089
    outer loop
      vertex -2.2598 2.5 -0.277904
      vertex -2.1221 -2.5 -0.140197
      vertex -2.2598 -2.5 -0.277904
    endloop
  endfacet
endsolid OpenSCAD_Model
