solid OpenSCAD_Model
  facet normal -1 0 0
    outer loop
      vertex -5 -2.5 -2.5
      vertex -5 2.5 2.5
      vertex -5 2.5 -2.5
    endloop
  endfacet
  facet normal -1 -0 0
    outer loop
      vertex -5 2.5 2.5
      vertex -5 -2.5 -2.5
      vertex -5 -2.5 2.5
    endloop
  endfacet
  facet normal -0 0 1
    outer loop
      vertex -5 2.5 2.5
      vertex 5 -2.5 2.5
      vertex 5 2.5 2.5
    endloop
  endfacet
  facet normal 0 0 1
    outer loop
      vertex 5 -2.5 2.5
      vertex -5 2.5 2.5
      vertex -5 -2.5 2.5
    endloop
  endfacet
  facet normal 1 -0 0
    outer loop
      vertex 5 -2.5 2.5
      vertex 5 2.5 -2.5
      vertex 5 2.5 2.5
    endloop
  endfacet
  facet normal 1 0 0
    outer loop
      vertex 5 2.5 -2.5
      vertex 5 -2.5 2.5
      vertex 5 -2.5 -2.5
    endloop
  endfacet
  facet normal 0 0 -1
    outer loop
      vertex -5 -2.5 -2.5
      vertex -3.36149 2.5 -2.5
      vertex -3.36149 -2.5 -2.5
    endloop
  endfacet
  facet normal -0 0 -1
    outer loop
      vertex -3.36149 2.5 -2.5
      vertex -5 -2.5 -2.5
      vertex -5 2.5 -2.5
    endloop
  endfacet
  facet normal 0 0 -1
    outer loop
      vertex 3.36149 -2.5 -2.5
      vertex 5 2.5 -2.5
      vertex 5 -2.5 -2.5
    endloop
  endfacet
  facet normal -0 0 -1
    outer loop
      vertex 5 2.5 -2.5
      vertex 3.36149 -2.5 -2.5
      vertex 3.36149 2.5 -2.5
    endloop
  endfacet
  facet normal 0 -1 0
    outer loop
      vertex -5 -2.5 2.5
      vertex 0 -2.5 1.4
      vertex 5 -2.5 2.5
    endloop
  endfacet
  facet normal 0 -1 0
    outer loop
      vertex -5 -2.5 2.5
      vertex -0.213488 -2.5 1.39329
      vertex 0 -2.5 1.4
    endloop
  endfacet
  facet normal 0 -1 0
    outer loop
      vertex -5 -2.5 2.5
      vertex -0.426132 -2.5 1.37319
      vertex -0.213488 -2.5 1.39329
    endloop
  endfacet
  facet normal 0 -1 0
    outer loop
      vertex -5 -2.5 2.5
      vertex -0.637096 -2.5 1.33978
      vertex -0.426132 -2.5 1.37319
    endloop
  endfacet
  facet normal 0 -1 0
    outer loop
      vertex -5 -2.5 2.5
      vertex -0.845545 -2.5 1.29318
      vertex -0.637096 -2.5 1.33978
    endloop
  endfacet
  facet normal 0 -1 0
    outer loop
      vertex -5 -2.5 2.5
      vertex -1.05066 -2.5 1.23359
      vertex -0.845545 -2.5 1.29318
    endloop
  endfacet
  facet normal 0 -1 0
    outer loop
      vertex -5 -2.5 2.5
      vertex -1.25162 -2.5 1.16124
      vertex -1.05066 -2.5 1.23359
    endloop
  endfacet
  facet normal 0 -1 0
    outer loop
      vertex -5 -2.5 2.5
      vertex -1.44765 -2.5 1.07641
      vertex -1.25162 -2.5 1.16124
    endloop
  endfacet
  facet normal 0 -1 0
    outer loop
      vertex -5 -2.5 2.5
      vertex -1.63796 -2.5 0.979443
      vertex -1.44765 -2.5 1.07641
    endloop
  endfacet
  facet normal 0 -1 0
    outer loop
      vertex -5 -2.5 2.5
      vertex -1.82181 -2.5 0.870714
      vertex -1.63796 -2.5 0.979443
    endloop
  endfacet
  facet normal 0 -1 0
    outer loop
      vertex -5 -2.5 2.5
      vertex -1.99847 -2.5 0.750657
      vertex -1.82181 -2.5 0.870714
    endloop
  endfacet
  facet normal 0 -1 0
    outer loop
      vertex -5 -2.5 2.5
      vertex -2.16724 -2.5 0.619744
      vertex -1.99847 -2.5 0.750657
    endloop
  endfacet
  facet normal 0 -1 0
    outer loop
      vertex -5 -2.5 2.5
      vertex -2.32746 -2.5 0.478493
      vertex -2.16724 -2.5 0.619744
    endloop
  endfacet
  facet normal 0 -1 0
    outer loop
      vertex -5 -2.5 2.5
      vertex -2.47849 -2.5 0.327459
      vertex -2.32746 -2.5 0.478493
    endloop
  endfacet
  facet normal 0 -1 0
    outer loop
      vertex -5 -2.5 2.5
      vertex -2.61974 -2.5 0.167241
      vertex -2.47849 -2.5 0.327459
    endloop
  endfacet
  facet normal 0 -1 0
    outer loop
      vertex -5 -2.5 2.5
      vertex -2.75066 -2.5 -0.00152969
      vertex -2.61974 -2.5 0.167241
    endloop
  endfacet
  facet normal 0 -1 0
    outer loop
      vertex -5 -2.5 2.5
      vertex -2.87071 -2.5 -0.178188
      vertex -2.75066 -2.5 -0.00152969
    endloop
  endfacet
  facet normal 0 -1 0
    outer loop
      vertex -5 -2.5 2.5
      vertex -2.97944 -2.5 -0.362037
      vertex -2.87071 -2.5 -0.178188
    endloop
  endfacet
  facet normal 0 -1 0
    outer loop
      vertex -5 -2.5 2.5
      vertex -3.07641 -2.5 -0.55235
      vertex -2.97944 -2.5 -0.362037
    endloop
  endfacet
  facet normal 0 -1 0
    outer loop
      vertex -5 -2.5 2.5
      vertex -3.16124 -2.5 -0.748376
      vertex -3.07641 -2.5 -0.55235
    endloop
  endfacet
  facet normal 0 -1 0
    outer loop
      vertex -5 -2.5 2.5
      vertex -3.23359 -2.5 -0.949342
      vertex -3.16124 -2.5 -0.748376
    endloop
  endfacet
  facet normal 0 -1 0
    outer loop
      vertex -5 -2.5 -2.5
      vertex -3.23359 -2.5 -0.949342
      vertex -5 -2.5 2.5
    endloop
  endfacet
  facet normal 0 -1 0
    outer loop
      vertex -3.23359 -2.5 -0.949342
      vertex -5 -2.5 -2.5
      vertex -3.29318 -2.5 -1.15445
    endloop
  endfacet
  facet normal 0 -1 0
    outer loop
      vertex -3.29318 -2.5 -1.15445
      vertex -5 -2.5 -2.5
      vertex -3.33978 -2.5 -1.3629
    endloop
  endfacet
  facet normal 0 -1 0
    outer loop
      vertex -3.33978 -2.5 -1.3629
      vertex -5 -2.5 -2.5
      vertex -3.37319 -2.5 -1.57387
    endloop
  endfacet
  facet normal 0 -1 0
    outer loop
      vertex -3.37319 -2.5 -1.57387
      vertex -5 -2.5 -2.5
      vertex -3.39329 -2.5 -1.78651
    endloop
  endfacet
  facet normal 0 -1 0
    outer loop
      vertex -3.39329 -2.5 -1.78651
      vertex -5 -2.5 -2.5
      vertex -3.4 -2.5 -2
    endloop
  endfacet
  facet normal 0 -1 -0
    outer loop
      vertex -3.4 -2.5 -2
      vertex -5 -2.5 -2.5
      vertex -3.39329 -2.5 -2.21349
    endloop
  endfacet
  facet normal 0 -1 -0
    outer loop
      vertex -3.39329 -2.5 -2.21349
      vertex -5 -2.5 -2.5
      vertex -3.37319 -2.5 -2.42613
    endloop
  endfacet
  facet normal 0 -1 -0
    outer loop
      vertex -3.37319 -2.5 -2.42613
      vertex -5 -2.5 -2.5
      vertex -3.36149 -2.5 -2.5
    endloop
  endfacet
  facet normal 0 -1 0
    outer loop
      vertex 0.213488 -2.5 1.39329
      vertex 5 -2.5 2.5
      vertex 0 -2.5 1.4
    endloop
  endfacet
  facet normal 0 -1 0
    outer loop
      vertex 0.426132 -2.5 1.37319
      vertex 5 -2.5 2.5
      vertex 0.213488 -2.5 1.39329
    endloop
  endfacet
  facet normal 0 -1 0
    outer loop
      vertex 0.637096 -2.5 1.33978
      vertex 5 -2.5 2.5
      vertex 0.426132 -2.5 1.37319
    endloop
  endfacet
  facet normal 0 -1 0
    outer loop
      vertex 0.845545 -2.5 1.29318
      vertex 5 -2.5 2.5
      vertex 0.637096 -2.5 1.33978
    endloop
  endfacet
  facet normal 0 -1 0
    outer loop
      vertex 1.05066 -2.5 1.23359
      vertex 5 -2.5 2.5
      vertex 0.845545 -2.5 1.29318
    endloop
  endfacet
  facet normal 0 -1 0
    outer loop
      vertex 1.25162 -2.5 1.16124
      vertex 5 -2.5 2.5
      vertex 1.05066 -2.5 1.23359
    endloop
  endfacet
  facet normal 0 -1 0
    outer loop
      vertex 1.44765 -2.5 1.07641
      vertex 5 -2.5 2.5
      vertex 1.25162 -2.5 1.16124
    endloop
  endfacet
  facet normal 0 -1 0
    outer loop
      vertex 1.63796 -2.5 0.979443
      vertex 5 -2.5 2.5
      vertex 1.44765 -2.5 1.07641
    endloop
  endfacet
  facet normal 0 -1 0
    outer loop
      vertex 1.82181 -2.5 0.870714
      vertex 5 -2.5 2.5
      vertex 1.63796 -2.5 0.979443
    endloop
  endfacet
  facet normal 0 -1 0
    outer loop
      vertex 1.99847 -2.5 0.750657
      vertex 5 -2.5 2.5
      vertex 1.82181 -2.5 0.870714
    endloop
  endfacet
  facet normal 0 -1 0
    outer loop
      vertex 2.16724 -2.5 0.619744
      vertex 5 -2.5 2.5
      vertex 1.99847 -2.5 0.750657
    endloop
  endfacet
  facet normal 0 -1 0
    outer loop
      vertex 2.32746 -2.5 0.478493
      vertex 5 -2.5 2.5
      vertex 2.16724 -2.5 0.619744
    endloop
  endfacet
  facet normal 0 -1 0
    outer loop
      vertex 2.47849 -2.5 0.327459
      vertex 5 -2.5 2.5
      vertex 2.32746 -2.5 0.478493
    endloop
  endfacet
  facet normal 0 -1 0
    outer loop
      vertex 2.61974 -2.5 0.167241
      vertex 5 -2.5 2.5
      vertex 2.47849 -2.5 0.327459
    endloop
  endfacet
  facet normal 0 -1 0
    outer loop
      vertex 2.75066 -2.5 -0.00152969
      vertex 5 -2.5 2.5
      vertex 2.61974 -2.5 0.167241
    endloop
  endfacet
  facet normal 0 -1 0
    outer loop
      vertex 2.87071 -2.5 -0.178188
      vertex 5 -2.5 2.5
      vertex 2.75066 -2.5 -0.00152969
    endloop
  endfacet
  facet normal 0 -1 0
    outer loop
      vertex 2.97944 -2.5 -0.362037
      vertex 5 -2.5 2.5
      vertex 2.87071 -2.5 -0.178188
    endloop
  endfacet
  facet normal 0 -1 0
    outer loop
      vertex 3.07641 -2.5 -0.55235
      vertex 5 -2.5 2.5
      vertex 2.97944 -2.5 -0.362037
    endloop
  endfacet
  facet normal 0 -1 0
    outer loop
      vertex 3.16124 -2.5 -0.748376
      vertex 5 -2.5 2.5
      vertex 3.07641 -2.5 -0.55235
    endloop
  endfacet
  facet normal 0 -1 0
    outer loop
      vertex 3.23359 -2.5 -0.949342
      vertex 5 -2.5 2.5
      vertex 3.16124 -2.5 -0.748376
    endloop
  endfacet
  facet normal 0 -1 0
    outer loop
      vertex 5 -2.5 -2.5
      vertex 3.23359 -2.5 -0.949342
      vertex 3.29318 -2.5 -1.15445
    endloop
  endfacet
  facet normal 0 -1 0
    outer loop
      vertex 5 -2.5 -2.5
      vertex 3.29318 -2.5 -1.15445
      vertex 3.33978 -2.5 -1.3629
    endloop
  endfacet
  facet normal 0 -1 0
    outer loop
      vertex 5 -2.5 -2.5
      vertex 3.33978 -2.5 -1.3629
      vertex 3.37319 -2.5 -1.57387
    endloop
  endfacet
  facet normal 0 -1 0
    outer loop
      vertex 5 -2.5 -2.5
      vertex 3.37319 -2.5 -1.57387
      vertex 3.39329 -2.5 -1.78651
    endloop
  endfacet
  facet normal 0 -1 0
    outer loop
      vertex 5 -2.5 -2.5
      vertex 3.39329 -2.5 -1.78651
      vertex 3.4 -2.5 -2
    endloop
  endfacet
  facet normal 0 -1 0
    outer loop
      vertex 5 -2.5 -2.5
      vertex 3.4 -2.5 -2
      vertex 3.39329 -2.5 -2.21349
    endloop
  endfacet
  facet normal 0 -1 0
    outer loop
      vertex 5 -2.5 -2.5
      vertex 3.39329 -2.5 -2.21349
      vertex 3.37319 -2.5 -2.42613
    endloop
  endfacet
  facet normal 0 -1 0
    outer loop
      vertex 5 -2.5 -2.5
      vertex 3.37319 -2.5 -2.42613
      vertex 3.36149 -2.5 -2.5
    endloop
  endfacet
  facet normal 0 -1 0
    outer loop
      vertex 3.23359 -2.5 -0.949342
      vertex 5 -2.5 -2.5
      vertex 5 -2.5 2.5
    endloop
  endfacet
  facet normal 0 1 0
    outer loop
      vertex 5 2.5 2.5
      vertex 0 2.5 1.4
      vertex -5 2.5 2.5
    endloop
  endfacet
  facet normal 0 1 0
    outer loop
      vertex 5 2.5 2.5
      vertex 0.213488 2.5 1.39329
      vertex 0 2.5 1.4
    endloop
  endfacet
  facet normal 0 1 0
    outer loop
      vertex 5 2.5 2.5
      vertex 0.426132 2.5 1.37319
      vertex 0.213488 2.5 1.39329
    endloop
  endfacet
  facet normal 0 1 0
    outer loop
      vertex 5 2.5 2.5
      vertex 0.637096 2.5 1.33978
      vertex 0.426132 2.5 1.37319
    endloop
  endfacet
  facet normal 0 1 0
    outer loop
      vertex 5 2.5 2.5
      vertex 0.845545 2.5 1.29318
      vertex 0.637096 2.5 1.33978
    endloop
  endfacet
  facet normal 0 1 0
    outer loop
      vertex 5 2.5 2.5
      vertex 1.05066 2.5 1.23359
      vertex 0.845545 2.5 1.29318
    endloop
  endfacet
  facet normal 0 1 0
    outer loop
      vertex 5 2.5 2.5
      vertex 1.25162 2.5 1.16124
      vertex 1.05066 2.5 1.23359
    endloop
  endfacet
  facet normal 0 1 0
    outer loop
      vertex 5 2.5 2.5
      vertex 1.44765 2.5 1.07641
      vertex 1.25162 2.5 1.16124
    endloop
  endfacet
  facet normal 0 1 0
    outer loop
      vertex 5 2.5 2.5
      vertex 1.63796 2.5 0.979443
      vertex 1.44765 2.5 1.07641
    endloop
  endfacet
  facet normal 0 1 0
    outer loop
      vertex 5 2.5 2.5
      vertex 1.82181 2.5 0.870714
      vertex 1.63796 2.5 0.979443
    endloop
  endfacet
  facet normal 0 1 0
    outer loop
      vertex 5 2.5 2.5
      vertex 1.99847 2.5 0.750657
      vertex 1.82181 2.5 0.870714
    endloop
  endfacet
  facet normal 0 1 0
    outer loop
      vertex 5 2.5 2.5
      vertex 2.16724 2.5 0.619744
      vertex 1.99847 2.5 0.750657
    endloop
  endfacet
  facet normal 0 1 0
    outer loop
      vertex 5 2.5 2.5
      vertex 2.32746 2.5 0.478493
      vertex 2.16724 2.5 0.619744
    endloop
  endfacet
  facet normal 0 1 0
    outer loop
      vertex 5 2.5 2.5
      vertex 2.47849 2.5 0.327459
      vertex 2.32746 2.5 0.478493
    endloop
  endfacet
  facet normal 0 1 0
    outer loop
      vertex 5 2.5 2.5
      vertex 2.61974 2.5 0.167241
      vertex 2.47849 2.5 0.327459
    endloop
  endfacet
  facet normal 0 1 0
    outer loop
      vertex 5 2.5 2.5
      vertex 2.75066 2.5 -0.00152969
      vertex 2.61974 2.5 0.167241
    endloop
  endfacet
  facet normal 0 1 0
    outer loop
      vertex 5 2.5 2.5
      vertex 2.87071 2.5 -0.178188
      vertex 2.75066 2.5 -0.00152969
    endloop
  endfacet
  facet normal 0 1 0
    outer loop
      vertex 5 2.5 2.5
      vertex 2.97944 2.5 -0.362037
      vertex 2.87071 2.5 -0.178188
    endloop
  endfacet
  facet normal 0 1 0
    outer loop
      vertex 5 2.5 2.5
      vertex 3.07641 2.5 -0.55235
      vertex 2.97944 2.5 -0.362037
    endloop
  endfacet
  facet normal 0 1 0
    outer loop
      vertex 5 2.5 2.5
      vertex 3.16124 2.5 -0.748376
      vertex 3.07641 2.5 -0.55235
    endloop
  endfacet
  facet normal 0 1 0
    outer loop
      vertex 5 2.5 2.5
      vertex 3.23359 2.5 -0.949342
      vertex 3.16124 2.5 -0.748376
    endloop
  endfacet
  facet normal 0 1 -0
    outer loop
      vertex 5 2.5 -2.5
      vertex 3.23359 2.5 -0.949342
      vertex 5 2.5 2.5
    endloop
  endfacet
  facet normal 0 1 0
    outer loop
      vertex 3.23359 2.5 -0.949342
      vertex 5 2.5 -2.5
      vertex 3.29318 2.5 -1.15445
    endloop
  endfacet
  facet normal 0 1 0
    outer loop
      vertex 3.29318 2.5 -1.15445
      vertex 5 2.5 -2.5
      vertex 3.33978 2.5 -1.3629
    endloop
  endfacet
  facet normal 0 1 0
    outer loop
      vertex 3.33978 2.5 -1.3629
      vertex 5 2.5 -2.5
      vertex 3.37319 2.5 -1.57387
    endloop
  endfacet
  facet normal 0 1 0
    outer loop
      vertex 3.37319 2.5 -1.57387
      vertex 5 2.5 -2.5
      vertex 3.39329 2.5 -1.78651
    endloop
  endfacet
  facet normal 0 1 0
    outer loop
      vertex 3.39329 2.5 -1.78651
      vertex 5 2.5 -2.5
      vertex 3.4 2.5 -2
    endloop
  endfacet
  facet normal 0 1 0
    outer loop
      vertex 3.4 2.5 -2
      vertex 5 2.5 -2.5
      vertex 3.39329 2.5 -2.21349
    endloop
  endfacet
  facet normal 0 1 0
    outer loop
      vertex 3.39329 2.5 -2.21349
      vertex 5 2.5 -2.5
      vertex 3.37319 2.5 -2.42613
    endloop
  endfacet
  facet normal 0 1 0
    outer loop
      vertex 3.37319 2.5 -2.42613
      vertex 5 2.5 -2.5
      vertex 3.36149 2.5 -2.5
    endloop
  endfacet
  facet normal 0 1 -0
    outer loop
      vertex -0.213488 2.5 1.39329
      vertex -5 2.5 2.5
      vertex 0 2.5 1.4
    endloop
  endfacet
  facet normal 0 1 -0
    outer loop
      vertex -0.426132 2.5 1.37319
      vertex -5 2.5 2.5
      vertex -0.213488 2.5 1.39329
    endloop
  endfacet
  facet normal 0 1 -0
    outer loop
      vertex -0.637096 2.5 1.33978
      vertex -5 2.5 2.5
      vertex -0.426132 2.5 1.37319
    endloop
  endfacet
  facet normal 0 1 -0
    outer loop
      vertex -0.845545 2.5 1.29318
      vertex -5 2.5 2.5
      vertex -0.637096 2.5 1.33978
    endloop
  endfacet
  facet normal 0 1 -0
    outer loop
      vertex -1.05066 2.5 1.23359
      vertex -5 2.5 2.5
      vertex -0.845545 2.5 1.29318
    endloop
  endfacet
  facet normal 0 1 -0
    outer loop
      vertex -1.25162 2.5 1.16124
      vertex -5 2.5 2.5
      vertex -1.05066 2.5 1.23359
    endloop
  endfacet
  facet normal 0 1 -0
    outer loop
      vertex -1.44765 2.5 1.07641
      vertex -5 2.5 2.5
      vertex -1.25162 2.5 1.16124
    endloop
  endfacet
  facet normal 0 1 -0
    outer loop
      vertex -1.63796 2.5 0.979443
      vertex -5 2.5 2.5
      vertex -1.44765 2.5 1.07641
    endloop
  endfacet
  facet normal 0 1 -0
    outer loop
      vertex -1.82181 2.5 0.870714
      vertex -5 2.5 2.5
      vertex -1.63796 2.5 0.979443
    endloop
  endfacet
  facet normal 0 1 -0
    outer loop
      vertex -1.99847 2.5 0.750657
      vertex -5 2.5 2.5
      vertex -1.82181 2.5 0.870714
    endloop
  endfacet
  facet normal 0 1 -0
    outer loop
      vertex -2.16724 2.5 0.619744
      vertex -5 2.5 2.5
      vertex -1.99847 2.5 0.750657
    endloop
  endfacet
  facet normal 0 1 -0
    outer loop
      vertex -2.32746 2.5 0.478493
      vertex -5 2.5 2.5
      vertex -2.16724 2.5 0.619744
    endloop
  endfacet
  facet normal 0 1 -0
    outer loop
      vertex -2.47849 2.5 0.327459
      vertex -5 2.5 2.5
      vertex -2.32746 2.5 0.478493
    endloop
  endfacet
  facet normal 0 1 -0
    outer loop
      vertex -2.61974 2.5 0.167241
      vertex -5 2.5 2.5
      vertex -2.47849 2.5 0.327459
    endloop
  endfacet
  facet normal 0 1 -0
    outer loop
      vertex -2.75066 2.5 -0.00152969
      vertex -5 2.5 2.5
      vertex -2.61974 2.5 0.167241
    endloop
  endfacet
  facet normal 0 1 -0
    outer loop
      vertex -2.87071 2.5 -0.178188
      vertex -5 2.5 2.5
      vertex -2.75066 2.5 -0.00152969
    endloop
  endfacet
  facet normal 0 1 -0
    outer loop
      vertex -2.97944 2.5 -0.362037
      vertex -5 2.5 2.5
      vertex -2.87071 2.5 -0.178188
    endloop
  endfacet
  facet normal 0 1 -0
    outer loop
      vertex -3.07641 2.5 -0.55235
      vertex -5 2.5 2.5
      vertex -2.97944 2.5 -0.362037
    endloop
  endfacet
  facet normal 0 1 -0
    outer loop
      vertex -3.16124 2.5 -0.748376
      vertex -5 2.5 2.5
      vertex -3.07641 2.5 -0.55235
    endloop
  endfacet
  facet normal 0 1 -0
    outer loop
      vertex -3.23359 2.5 -0.949342
      vertex -5 2.5 2.5
      vertex -3.16124 2.5 -0.748376
    endloop
  endfacet
  facet normal 0 1 0
    outer loop
      vertex -5 2.5 -2.5
      vertex -3.23359 2.5 -0.949342
      vertex -3.29318 2.5 -1.15445
    endloop
  endfacet
  facet normal 0 1 0
    outer loop
      vertex -5 2.5 -2.5
      vertex -3.29318 2.5 -1.15445
      vertex -3.33978 2.5 -1.3629
    endloop
  endfacet
  facet normal 0 1 0
    outer loop
      vertex -5 2.5 -2.5
      vertex -3.33978 2.5 -1.3629
      vertex -3.37319 2.5 -1.57387
    endloop
  endfacet
  facet normal 0 1 0
    outer loop
      vertex -5 2.5 -2.5
      vertex -3.37319 2.5 -1.57387
      vertex -3.39329 2.5 -1.78651
    endloop
  endfacet
  facet normal 0 1 0
    outer loop
      vertex -5 2.5 -2.5
      vertex -3.39329 2.5 -1.78651
      vertex -3.4 2.5 -2
    endloop
  endfacet
  facet normal 0 1 0
    outer loop
      vertex -5 2.5 -2.5
      vertex -3.4 2.5 -2
      vertex -3.39329 2.5 -2.21349
    endloop
  endfacet
  facet normal 0 1 0
    outer loop
      vertex -5 2.5 -2.5
      vertex -3.39329 2.5 -2.21349
      vertex -3.37319 2.5 -2.42613
    endloop
  endfacet
  facet normal 0 1 0
    outer loop
      vertex -5 2.5 -2.5
      vertex -3.37319 2.5 -2.42613
      vertex -3.36149 2.5 -2.5
    endloop
  endfacet
  facet normal 0 1 0
    outer loop
      vertex -3.23359 2.5 -0.949342
      vertex -5 2.5 -2.5
      vertex -5 2.5 2.5
    endloop
  endfacet
  facet normal -0.999506 0 -0.0314145
    outer loop
      vertex 3.4 -2.5 -2
      vertex 3.39329 2.5 -1.78651
      vertex 3.4 2.5 -2
    endloop
  endfacet
  facet normal -0.999506 -0 -0.0314145
    outer loop
      vertex 3.39329 2.5 -1.78651
      vertex 3.4 -2.5 -2
      vertex 3.39329 -2.5 -1.78651
    endloop
  endfacet
  facet normal -0.995562 0 -0.0941065
    outer loop
      vertex 3.39329 -2.5 -1.78651
      vertex 3.37319 2.5 -1.57387
      vertex 3.39329 2.5 -1.78651
    endloop
  endfacet
  facet normal -0.995562 -0 -0.0941065
    outer loop
      vertex 3.37319 2.5 -1.57387
      vertex 3.39329 -2.5 -1.78651
      vertex 3.37319 -2.5 -1.57387
    endloop
  endfacet
  facet normal 0.999506 0 -0.0314145
    outer loop
      vertex -3.39329 -2.5 -1.78651
      vertex -3.4 2.5 -2
      vertex -3.39329 2.5 -1.78651
    endloop
  endfacet
  facet normal 0.999506 0 -0.0314145
    outer loop
      vertex -3.4 2.5 -2
      vertex -3.39329 -2.5 -1.78651
      vertex -3.4 -2.5 -2
    endloop
  endfacet
  facet normal 0.0314148 0 -0.999506
    outer loop
      vertex -0.213488 -2.5 1.39329
      vertex 0 2.5 1.4
      vertex 0 -2.5 1.4
    endloop
  endfacet
  facet normal 0.0314148 0 -0.999506
    outer loop
      vertex 0 2.5 1.4
      vertex -0.213488 -2.5 1.39329
      vertex -0.213488 2.5 1.39329
    endloop
  endfacet
  facet normal -0.661307 0 -0.750116
    outer loop
      vertex 2.16724 -2.5 0.619744
      vertex 2.32746 2.5 0.478493
      vertex 2.32746 -2.5 0.478493
    endloop
  endfacet
  facet normal -0.661307 0 -0.750116
    outer loop
      vertex 2.32746 2.5 0.478493
      vertex 2.16724 -2.5 0.619744
      vertex 2.16724 2.5 0.619744
    endloop
  endfacet
  facet normal 0.707116 0 -0.707097
    outer loop
      vertex -2.32746 -2.5 0.478493
      vertex -2.47849 2.5 0.327459
      vertex -2.32746 2.5 0.478493
    endloop
  endfacet
  facet normal 0.707116 0 -0.707097
    outer loop
      vertex -2.47849 2.5 0.327459
      vertex -2.32746 -2.5 0.478493
      vertex -2.47849 -2.5 0.327459
    endloop
  endfacet
  facet normal -0.891005 0 -0.453993
    outer loop
      vertex 3.07641 -2.5 -0.55235
      vertex 2.97944 2.5 -0.362037
      vertex 3.07641 2.5 -0.55235
    endloop
  endfacet
  facet normal -0.891005 -0 -0.453993
    outer loop
      vertex 2.97944 2.5 -0.362037
      vertex 3.07641 -2.5 -0.55235
      vertex 2.97944 -2.5 -0.362037
    endloop
  endfacet
  facet normal -0.338738 0 -0.940881
    outer loop
      vertex 1.05066 -2.5 1.23359
      vertex 1.25162 2.5 1.16124
      vertex 1.25162 -2.5 1.16124
    endloop
  endfacet
  facet normal -0.338738 0 -0.940881
    outer loop
      vertex 1.25162 2.5 1.16124
      vertex 1.05066 -2.5 1.23359
      vertex 1.05066 2.5 1.23359
    endloop
  endfacet
  facet normal 0.827096 0 -0.562061
    outer loop
      vertex -2.75066 -2.5 -0.00152969
      vertex -2.87071 2.5 -0.178188
      vertex -2.75066 2.5 -0.00152969
    endloop
  endfacet
  facet normal 0.827096 0 -0.562061
    outer loop
      vertex -2.87071 2.5 -0.178188
      vertex -2.75066 -2.5 -0.00152969
      vertex -2.87071 -2.5 -0.178188
    endloop
  endfacet
  facet normal -0.790137 0 -0.612931
    outer loop
      vertex 2.75066 -2.5 -0.00152969
      vertex 2.61974 2.5 0.167241
      vertex 2.75066 2.5 -0.00152969
    endloop
  endfacet
  facet normal -0.790137 -0 -0.612931
    outer loop
      vertex 2.61974 2.5 0.167241
      vertex 2.75066 -2.5 -0.00152969
      vertex 2.61974 -2.5 0.167241
    endloop
  endfacet
  facet normal -0.156419 0 -0.987691
    outer loop
      vertex 0.426132 -2.5 1.37319
      vertex 0.637096 2.5 1.33978
      vertex 0.637096 -2.5 1.33978
    endloop
  endfacet
  facet normal -0.156419 0 -0.987691
    outer loop
      vertex 0.637096 2.5 1.33978
      vertex 0.426132 -2.5 1.37319
      vertex 0.426132 2.5 1.37319
    endloop
  endfacet
  facet normal -0.0941047 0 -0.995562
    outer loop
      vertex 0.213488 -2.5 1.39329
      vertex 0.426132 2.5 1.37319
      vertex 0.426132 -2.5 1.37319
    endloop
  endfacet
  facet normal -0.0941047 0 -0.995562
    outer loop
      vertex 0.426132 2.5 1.37319
      vertex 0.213488 -2.5 1.39329
      vertex 0.213488 2.5 1.39329
    endloop
  endfacet
  facet normal -0.612912 0 -0.790151
    outer loop
      vertex 1.99847 -2.5 0.750657
      vertex 2.16724 2.5 0.619744
      vertex 2.16724 -2.5 0.619744
    endloop
  endfacet
  facet normal -0.612912 0 -0.790151
    outer loop
      vertex 2.16724 2.5 0.619744
      vertex 1.99847 -2.5 0.750657
      vertex 1.99847 2.5 0.750657
    endloop
  endfacet
  facet normal 0.860738 0 -0.509048
    outer loop
      vertex -2.87071 -2.5 -0.178188
      vertex -2.97944 2.5 -0.362037
      vertex -2.87071 2.5 -0.178188
    endloop
  endfacet
  facet normal 0.860738 0 -0.509048
    outer loop
      vertex -2.97944 2.5 -0.362037
      vertex -2.87071 -2.5 -0.178188
      vertex -2.97944 -2.5 -0.362037
    endloop
  endfacet
  facet normal 0.975911 0 -0.21817
    outer loop
      vertex -3.29318 -2.5 -1.15445
      vertex -3.33978 2.5 -1.3629
      vertex -3.29318 2.5 -1.15445
    endloop
  endfacet
  facet normal 0.975911 0 -0.21817
    outer loop
      vertex -3.33978 2.5 -1.3629
      vertex -3.29318 -2.5 -1.15445
      vertex -3.33978 -2.5 -1.3629
    endloop
  endfacet
  facet normal 0.56208 0 -0.827083
    outer loop
      vertex -1.99847 -2.5 0.750657
      vertex -1.82181 2.5 0.870714
      vertex -1.82181 -2.5 0.870714
    endloop
  endfacet
  facet normal 0.56208 0 -0.827083
    outer loop
      vertex -1.82181 2.5 0.870714
      vertex -1.99847 -2.5 0.750657
      vertex -1.99847 2.5 0.750657
    endloop
  endfacet
  facet normal 0.0941047 0 -0.995562
    outer loop
      vertex -0.426132 -2.5 1.37319
      vertex -0.213488 2.5 1.39329
      vertex -0.213488 -2.5 1.39329
    endloop
  endfacet
  facet normal 0.0941047 0 -0.995562
    outer loop
      vertex -0.213488 2.5 1.39329
      vertex -0.426132 -2.5 1.37319
      vertex -0.426132 2.5 1.37319
    endloop
  endfacet
  facet normal -0.987688 0 0.156436
    outer loop
      vertex 3.36149 -2.5 -2.5
      vertex 3.37319 2.5 -2.42613
      vertex 3.36149 2.5 -2.5
    endloop
  endfacet
  facet normal -0.987688 0 0.156436
    outer loop
      vertex 3.37319 2.5 -2.42613
      vertex 3.36149 -2.5 -2.5
      vertex 3.37319 -2.5 -2.42613
    endloop
  endfacet
  facet normal -0.987691 0 -0.156415
    outer loop
      vertex 3.37319 -2.5 -1.57387
      vertex 3.33978 2.5 -1.3629
      vertex 3.37319 2.5 -1.57387
    endloop
  endfacet
  facet normal -0.987691 -0 -0.156415
    outer loop
      vertex 3.33978 2.5 -1.3629
      vertex 3.37319 -2.5 -1.57387
      vertex 3.33978 -2.5 -1.3629
    endloop
  endfacet
  facet normal -0.960293 0 -0.278994
    outer loop
      vertex 3.29318 -2.5 -1.15445
      vertex 3.23359 2.5 -0.949342
      vertex 3.29318 2.5 -1.15445
    endloop
  endfacet
  facet normal -0.960293 -0 -0.278994
    outer loop
      vertex 3.23359 2.5 -0.949342
      vertex 3.29318 -2.5 -1.15445
      vertex 3.23359 -2.5 -0.949342
    endloop
  endfacet
  facet normal -0.975911 0 -0.21817
    outer loop
      vertex 3.33978 -2.5 -1.3629
      vertex 3.29318 2.5 -1.15445
      vertex 3.33978 2.5 -1.3629
    endloop
  endfacet
  facet normal -0.975911 -0 -0.21817
    outer loop
      vertex 3.29318 2.5 -1.15445
      vertex 3.33978 -2.5 -1.3629
      vertex 3.29318 -2.5 -1.15445
    endloop
  endfacet
  facet normal -0.940884 0 -0.338729
    outer loop
      vertex 3.23359 -2.5 -0.949342
      vertex 3.16124 2.5 -0.748376
      vertex 3.23359 2.5 -0.949342
    endloop
  endfacet
  facet normal -0.940884 -0 -0.338729
    outer loop
      vertex 3.16124 2.5 -0.748376
      vertex 3.23359 -2.5 -0.949342
      vertex 3.16124 -2.5 -0.748376
    endloop
  endfacet
  facet normal -0.750114 0 -0.661309
    outer loop
      vertex 2.61974 -2.5 0.167241
      vertex 2.47849 2.5 0.327459
      vertex 2.61974 2.5 0.167241
    endloop
  endfacet
  facet normal -0.750114 -0 -0.661309
    outer loop
      vertex 2.47849 2.5 0.327459
      vertex 2.61974 -2.5 0.167241
      vertex 2.47849 -2.5 0.327459
    endloop
  endfacet
  facet normal -0.278985 0 -0.960295
    outer loop
      vertex 0.845545 -2.5 1.29318
      vertex 1.05066 2.5 1.23359
      vertex 1.05066 -2.5 1.23359
    endloop
  endfacet
  facet normal -0.278985 0 -0.960295
    outer loop
      vertex 1.05066 2.5 1.23359
      vertex 0.845545 -2.5 1.29318
      vertex 0.845545 2.5 1.29318
    endloop
  endfacet
  facet normal -0.0314148 0 -0.999506
    outer loop
      vertex 0 -2.5 1.4
      vertex 0.213488 2.5 1.39329
      vertex 0.213488 -2.5 1.39329
    endloop
  endfacet
  facet normal -0.0314148 0 -0.999506
    outer loop
      vertex 0.213488 2.5 1.39329
      vertex 0 -2.5 1.4
      vertex 0 2.5 1.4
    endloop
  endfacet
  facet normal -0.453988 0 -0.891008
    outer loop
      vertex 1.44765 -2.5 1.07641
      vertex 1.63796 2.5 0.979443
      vertex 1.63796 -2.5 0.979443
    endloop
  endfacet
  facet normal -0.453988 0 -0.891008
    outer loop
      vertex 1.63796 2.5 0.979443
      vertex 1.44765 -2.5 1.07641
      vertex 1.44765 2.5 1.07641
    endloop
  endfacet
  facet normal -0.397149 0 -0.917754
    outer loop
      vertex 1.25162 -2.5 1.16124
      vertex 1.44765 2.5 1.07641
      vertex 1.44765 -2.5 1.07641
    endloop
  endfacet
  facet normal -0.397149 0 -0.917754
    outer loop
      vertex 1.44765 2.5 1.07641
      vertex 1.25162 -2.5 1.16124
      vertex 1.25162 2.5 1.16124
    endloop
  endfacet
  facet normal -0.509043 0 -0.860741
    outer loop
      vertex 1.63796 -2.5 0.979443
      vertex 1.82181 2.5 0.870714
      vertex 1.82181 -2.5 0.870714
    endloop
  endfacet
  facet normal -0.509043 0 -0.860741
    outer loop
      vertex 1.82181 2.5 0.870714
      vertex 1.63796 -2.5 0.979443
      vertex 1.63796 2.5 0.979443
    endloop
  endfacet
  facet normal 0.987691 0 -0.156415
    outer loop
      vertex -3.33978 -2.5 -1.3629
      vertex -3.37319 2.5 -1.57387
      vertex -3.33978 2.5 -1.3629
    endloop
  endfacet
  facet normal 0.987691 0 -0.156415
    outer loop
      vertex -3.37319 2.5 -1.57387
      vertex -3.33978 -2.5 -1.3629
      vertex -3.37319 -2.5 -1.57387
    endloop
  endfacet
  facet normal 0.790137 0 -0.612931
    outer loop
      vertex -2.61974 -2.5 0.167241
      vertex -2.75066 2.5 -0.00152969
      vertex -2.61974 2.5 0.167241
    endloop
  endfacet
  facet normal 0.790137 0 -0.612931
    outer loop
      vertex -2.75066 2.5 -0.00152969
      vertex -2.61974 -2.5 0.167241
      vertex -2.75066 -2.5 -0.00152969
    endloop
  endfacet
  facet normal 0.917751 0 -0.397156
    outer loop
      vertex -3.07641 -2.5 -0.55235
      vertex -3.16124 2.5 -0.748376
      vertex -3.07641 2.5 -0.55235
    endloop
  endfacet
  facet normal 0.917751 0 -0.397156
    outer loop
      vertex -3.16124 2.5 -0.748376
      vertex -3.07641 -2.5 -0.55235
      vertex -3.16124 -2.5 -0.748376
    endloop
  endfacet
  facet normal 0.940884 0 -0.338729
    outer loop
      vertex -3.16124 -2.5 -0.748376
      vertex -3.23359 2.5 -0.949342
      vertex -3.16124 2.5 -0.748376
    endloop
  endfacet
  facet normal 0.940884 0 -0.338729
    outer loop
      vertex -3.23359 2.5 -0.949342
      vertex -3.16124 -2.5 -0.748376
      vertex -3.23359 -2.5 -0.949342
    endloop
  endfacet
  facet normal 0.612912 0 -0.790151
    outer loop
      vertex -2.16724 -2.5 0.619744
      vertex -1.99847 2.5 0.750657
      vertex -1.99847 -2.5 0.750657
    endloop
  endfacet
  facet normal 0.612912 0 -0.790151
    outer loop
      vertex -1.99847 2.5 0.750657
      vertex -2.16724 -2.5 0.619744
      vertex -2.16724 2.5 0.619744
    endloop
  endfacet
  facet normal 0.453988 0 -0.891008
    outer loop
      vertex -1.63796 -2.5 0.979443
      vertex -1.44765 2.5 1.07641
      vertex -1.44765 -2.5 1.07641
    endloop
  endfacet
  facet normal 0.453988 0 -0.891008
    outer loop
      vertex -1.44765 2.5 1.07641
      vertex -1.63796 -2.5 0.979443
      vertex -1.63796 2.5 0.979443
    endloop
  endfacet
  facet normal 0.397149 0 -0.917754
    outer loop
      vertex -1.44765 -2.5 1.07641
      vertex -1.25162 2.5 1.16124
      vertex -1.25162 -2.5 1.16124
    endloop
  endfacet
  facet normal 0.397149 0 -0.917754
    outer loop
      vertex -1.25162 2.5 1.16124
      vertex -1.44765 -2.5 1.07641
      vertex -1.44765 2.5 1.07641
    endloop
  endfacet
  facet normal 0.278985 0 -0.960295
    outer loop
      vertex -1.05066 -2.5 1.23359
      vertex -0.845545 2.5 1.29318
      vertex -0.845545 -2.5 1.29318
    endloop
  endfacet
  facet normal 0.278985 0 -0.960295
    outer loop
      vertex -0.845545 2.5 1.29318
      vertex -1.05066 -2.5 1.23359
      vertex -1.05066 2.5 1.23359
    endloop
  endfacet
  facet normal 0.987688 -0 0.156436
    outer loop
      vertex -3.37319 -2.5 -2.42613
      vertex -3.36149 2.5 -2.5
      vertex -3.37319 2.5 -2.42613
    endloop
  endfacet
  facet normal 0.987688 0 0.156436
    outer loop
      vertex -3.36149 2.5 -2.5
      vertex -3.37319 -2.5 -2.42613
      vertex -3.36149 -2.5 -2.5
    endloop
  endfacet
  facet normal -0.917751 0 -0.397156
    outer loop
      vertex 3.16124 -2.5 -0.748376
      vertex 3.07641 2.5 -0.55235
      vertex 3.16124 2.5 -0.748376
    endloop
  endfacet
  facet normal -0.917751 -0 -0.397156
    outer loop
      vertex 3.07641 2.5 -0.55235
      vertex 3.16124 -2.5 -0.748376
      vertex 3.07641 -2.5 -0.55235
    endloop
  endfacet
  facet normal -0.707116 0 -0.707097
    outer loop
      vertex 2.47849 -2.5 0.327459
      vertex 2.32746 2.5 0.478493
      vertex 2.47849 2.5 0.327459
    endloop
  endfacet
  facet normal -0.707116 -0 -0.707097
    outer loop
      vertex 2.32746 2.5 0.478493
      vertex 2.47849 -2.5 0.327459
      vertex 2.32746 -2.5 0.478493
    endloop
  endfacet
  facet normal -0.860738 0 -0.509048
    outer loop
      vertex 2.97944 -2.5 -0.362037
      vertex 2.87071 2.5 -0.178188
      vertex 2.97944 2.5 -0.362037
    endloop
  endfacet
  facet normal -0.860738 -0 -0.509048
    outer loop
      vertex 2.87071 2.5 -0.178188
      vertex 2.97944 -2.5 -0.362037
      vertex 2.87071 -2.5 -0.178188
    endloop
  endfacet
  facet normal -0.827096 0 -0.562061
    outer loop
      vertex 2.87071 -2.5 -0.178188
      vertex 2.75066 2.5 -0.00152969
      vertex 2.87071 2.5 -0.178188
    endloop
  endfacet
  facet normal -0.827096 -0 -0.562061
    outer loop
      vertex 2.75066 2.5 -0.00152969
      vertex 2.87071 -2.5 -0.178188
      vertex 2.75066 -2.5 -0.00152969
    endloop
  endfacet
  facet normal -0.218171 0 -0.975911
    outer loop
      vertex 0.637096 -2.5 1.33978
      vertex 0.845545 2.5 1.29318
      vertex 0.845545 -2.5 1.29318
    endloop
  endfacet
  facet normal -0.218171 0 -0.975911
    outer loop
      vertex 0.845545 2.5 1.29318
      vertex 0.637096 -2.5 1.33978
      vertex 0.637096 2.5 1.33978
    endloop
  endfacet
  facet normal -0.56208 0 -0.827083
    outer loop
      vertex 1.82181 -2.5 0.870714
      vertex 1.99847 2.5 0.750657
      vertex 1.99847 -2.5 0.750657
    endloop
  endfacet
  facet normal -0.56208 0 -0.827083
    outer loop
      vertex 1.99847 2.5 0.750657
      vertex 1.82181 -2.5 0.870714
      vertex 1.82181 2.5 0.870714
    endloop
  endfacet
  facet normal 0.750114 0 -0.661309
    outer loop
      vertex -2.47849 -2.5 0.327459
      vertex -2.61974 2.5 0.167241
      vertex -2.47849 2.5 0.327459
    endloop
  endfacet
  facet normal 0.750114 0 -0.661309
    outer loop
      vertex -2.61974 2.5 0.167241
      vertex -2.47849 -2.5 0.327459
      vertex -2.61974 -2.5 0.167241
    endloop
  endfacet
  facet normal 0.891005 0 -0.453993
    outer loop
      vertex -2.97944 -2.5 -0.362037
      vertex -3.07641 2.5 -0.55235
      vertex -2.97944 2.5 -0.362037
    endloop
  endfacet
  facet normal 0.891005 0 -0.453993
    outer loop
      vertex -3.07641 2.5 -0.55235
      vertex -2.97944 -2.5 -0.362037
      vertex -3.07641 -2.5 -0.55235
    endloop
  endfacet
  facet normal 0.960293 0 -0.278994
    outer loop
      vertex -3.23359 -2.5 -0.949342
      vertex -3.29318 2.5 -1.15445
      vertex -3.23359 2.5 -0.949342
    endloop
  endfacet
  facet normal 0.960293 0 -0.278994
    outer loop
      vertex -3.29318 2.5 -1.15445
      vertex -3.23359 -2.5 -0.949342
      vertex -3.29318 -2.5 -1.15445
    endloop
  endfacet
  facet normal 0.995562 0 -0.0941065
    outer loop
      vertex -3.37319 -2.5 -1.57387
      vertex -3.39329 2.5 -1.78651
      vertex -3.37319 2.5 -1.57387
    endloop
  endfacet
  facet normal 0.995562 0 -0.0941065
    outer loop
      vertex -3.39329 2.5 -1.78651
      vertex -3.37319 -2.5 -1.57387
      vertex -3.39329 -2.5 -1.78651
    endloop
  endfacet
  facet normal 0.661307 0 -0.750116
    outer loop
      vertex -2.32746 -2.5 0.478493
      vertex -2.16724 2.5 0.619744
      vertex -2.16724 -2.5 0.619744
    endloop
  endfacet
  facet normal 0.661307 0 -0.750116
    outer loop
      vertex -2.16724 2.5 0.619744
      vertex -2.32746 -2.5 0.478493
      vertex -2.32746 2.5 0.478493
    endloop
  endfacet
  facet normal 0.509043 0 -0.860741
    outer loop
      vertex -1.82181 -2.5 0.870714
      vertex -1.63796 2.5 0.979443
      vertex -1.63796 -2.5 0.979443
    endloop
  endfacet
  facet normal 0.509043 0 -0.860741
    outer loop
      vertex -1.63796 2.5 0.979443
      vertex -1.82181 -2.5 0.870714
      vertex -1.82181 2.5 0.870714
    endloop
  endfacet
  facet normal 0.338738 0 -0.940881
    outer loop
      vertex -1.25162 -2.5 1.16124
      vertex -1.05066 2.5 1.23359
      vertex -1.05066 -2.5 1.23359
    endloop
  endfacet
  facet normal 0.338738 0 -0.940881
    outer loop
      vertex -1.05066 2.5 1.23359
      vertex -1.25162 -2.5 1.16124
      vertex -1.25162 2.5 1.16124
    endloop
  endfacet
  facet normal 0.156419 0 -0.987691
    outer loop
      vertex -0.637096 -2.5 1.33978
      vertex -0.426132 2.5 1.37319
      vertex -0.426132 -2.5 1.37319
    endloop
  endfacet
  facet normal 0.156419 0 -0.987691
    outer loop
      vertex -0.426132 2.5 1.37319
      vertex -0.637096 -2.5 1.33978
      vertex -0.637096 2.5 1.33978
    endloop
  endfacet
  facet normal 0.218171 0 -0.975911
    outer loop
      vertex -0.845545 -2.5 1.29318
      vertex -0.637096 2.5 1.33978
      vertex -0.637096 -2.5 1.33978
    endloop
  endfacet
  facet normal 0.218171 0 -0.975911
    outer loop
      vertex -0.637096 2.5 1.33978
      vertex -0.845545 -2.5 1.29318
      vertex -0.845545 2.5 1.29318
    endloop
  endfacet
  facet normal -0.995562 0 0.0941065
    outer loop
      vertex 3.37319 -2.5 -2.42613
      vertex 3.39329 2.5 -2.21349
      vertex 3.37319 2.5 -2.42613
    endloop
  endfacet
  facet normal -0.995562 0 0.0941065
    outer loop
      vertex 3.39329 2.5 -2.21349
      vertex 3.37319 -2.5 -2.42613
      vertex 3.39329 -2.5 -2.21349
    endloop
  endfacet
  facet normal -0.999506 0 0.0314145
    outer loop
      vertex 3.39329 -2.5 -2.21349
      vertex 3.4 2.5 -2
      vertex 3.39329 2.5 -2.21349
    endloop
  endfacet
  facet normal -0.999506 0 0.0314145
    outer loop
      vertex 3.4 2.5 -2
      vertex 3.39329 -2.5 -2.21349
      vertex 3.4 -2.5 -2
    endloop
  endfacet
  facet normal 0.995562 -0 0.0941065
    outer loop
      vertex -3.39329 -2.5 -2.21349
      vertex -3.37319 2.5 -2.42613
      vertex -3.39329 2.5 -2.21349
    endloop
  endfacet
  facet normal 0.995562 0 0.0941065
    outer loop
      vertex -3.37319 2.5 -2.42613
      vertex -3.39329 -2.5 -2.21349
      vertex -3.37319 -2.5 -2.42613
    endloop
  endfacet
  facet normal 0.999506 -0 0.0314145
    outer loop
      vertex -3.4 -2.5 -2
      vertex -3.39329 2.5 -2.21349
      vertex -3.4 2.5 -2
    endloop
  endfacet
  facet normal 0.999506 0 0.0314145
    outer loop
      vertex -3.39329 2.5 -2.21349
      vertex -3.4 -2.5 -2
      vertex -3.39329 -2.5 -2.21349
    endloop
  endfacet
endsolid OpenSCAD_Model
