solid OpenSCAD_Model
  facet normal -1 0 0
    outer loop
      vertex -5 -2.5 -2.5
      vertex -5 2.5 2.5
      vertex -5 2.5 -2.5
    endloop
  endfacet
  facet normal -1 -0 0
    outer loop
      vertex -5 2.5 2.5
      vertex -5 -2.5 -2.5
      vertex -5 -2.5 2.5
    endloop
  endfacet
  facet normal -0 0 1
    outer loop
      vertex -5 2.5 2.5
      vertex 5 -2.5 2.5
      vertex 5 2.5 2.5
    endloop
  endfacet
  facet normal 0 0 1
    outer loop
      vertex 5 -2.5 2.5
      vertex -5 2.5 2.5
      vertex -5 -2.5 2.5
    endloop
  endfacet
  facet normal 1 -0 0
    outer loop
      vertex 5 -2.5 2.5
      vertex 5 2.5 -2.5
      vertex 5 2.5 2.5
    endloop
  endfacet
  facet normal 1 0 0
    outer loop
      vertex 5 2.5 -2.5
      vertex 5 -2.5 2.5
      vertex 5 -2.5 -2.5
    endloop
  endfacet
  facet normal 0 0 -1
    outer loop
      vertex -5 -2.5 -2.5
      vertex -3.26029 2.5 -2.5
      vertex -3.26029 -2.5 -2.5
    endloop
  endfacet
  facet normal -0 0 -1
    outer loop
      vertex -3.26029 2.5 -2.5
      vertex -5 -2.5 -2.5
      vertex -5 2.5 -2.5
    endloop
  endfacet
  facet normal 0 0 -1
    outer loop
      vertex 3.26029 -2.5 -2.5
      vertex 5 2.5 -2.5
      vertex 5 -2.5 -2.5
    endloop
  endfacet
  facet normal -0 0 -1
    outer loop
      vertex 5 2.5 -2.5
      vertex 3.26029 -2.5 -2.5
      vertex 3.26029 2.5 -2.5
    endloop
  endfacet
  facet normal 0 -1 0
    outer loop
      vertex -5 -2.5 2.5
      vertex 0 -2.5 1.3
      vertex 5 -2.5 2.5
    endloop
  endfacet
  facet normal 0 -1 0
    outer loop
      vertex -5 -2.5 2.5
      vertex -0.207209 -2.5 1.29349
      vertex 0 -2.5 1.3
    endloop
  endfacet
  facet normal 0 -1 0
    outer loop
      vertex -5 -2.5 2.5
      vertex -0.413599 -2.5 1.27398
      vertex -0.207209 -2.5 1.29349
    endloop
  endfacet
  facet normal 0 -1 0
    outer loop
      vertex -5 -2.5 2.5
      vertex -0.618358 -2.5 1.24155
      vertex -0.413599 -2.5 1.27398
    endloop
  endfacet
  facet normal 0 -1 0
    outer loop
      vertex -5 -2.5 2.5
      vertex -0.820676 -2.5 1.19632
      vertex -0.618358 -2.5 1.24155
    endloop
  endfacet
  facet normal 0 -1 0
    outer loop
      vertex -5 -2.5 2.5
      vertex -1.01976 -2.5 1.13849
      vertex -0.820676 -2.5 1.19632
    endloop
  endfacet
  facet normal 0 -1 0
    outer loop
      vertex -5 -2.5 2.5
      vertex -1.21481 -2.5 1.06826
      vertex -1.01976 -2.5 1.13849
    endloop
  endfacet
  facet normal 0 -1 0
    outer loop
      vertex -5 -2.5 2.5
      vertex -1.40507 -2.5 0.985929
      vertex -1.21481 -2.5 1.06826
    endloop
  endfacet
  facet normal 0 -1 0
    outer loop
      vertex -5 -2.5 2.5
      vertex -1.58979 -2.5 0.891811
      vertex -1.40507 -2.5 0.985929
    endloop
  endfacet
  facet normal 0 -1 0
    outer loop
      vertex -5 -2.5 2.5
      vertex -1.76823 -2.5 0.786282
      vertex -1.58979 -2.5 0.891811
    endloop
  endfacet
  facet normal 0 -1 0
    outer loop
      vertex -5 -2.5 2.5
      vertex -1.93969 -2.5 0.669756
      vertex -1.76823 -2.5 0.786282
    endloop
  endfacet
  facet normal 0 -1 0
    outer loop
      vertex -5 -2.5 2.5
      vertex -2.1035 -2.5 0.542693
      vertex -1.93969 -2.5 0.669756
    endloop
  endfacet
  facet normal 0 -1 0
    outer loop
      vertex -5 -2.5 2.5
      vertex -2.259 -2.5 0.405596
      vertex -2.1035 -2.5 0.542693
    endloop
  endfacet
  facet normal 0 -1 0
    outer loop
      vertex -5 -2.5 2.5
      vertex -2.4056 -2.5 0.259005
      vertex -2.259 -2.5 0.405596
    endloop
  endfacet
  facet normal 0 -1 0
    outer loop
      vertex -5 -2.5 2.5
      vertex -2.54269 -2.5 0.103498
      vertex -2.4056 -2.5 0.259005
    endloop
  endfacet
  facet normal 0 -1 0
    outer loop
      vertex -5 -2.5 2.5
      vertex -2.66976 -2.5 -0.0603085
      vertex -2.54269 -2.5 0.103498
    endloop
  endfacet
  facet normal 0 -1 0
    outer loop
      vertex -5 -2.5 2.5
      vertex -2.78628 -2.5 -0.231771
      vertex -2.66976 -2.5 -0.0603085
    endloop
  endfacet
  facet normal 0 -1 0
    outer loop
      vertex -5 -2.5 2.5
      vertex -2.89181 -2.5 -0.410213
      vertex -2.78628 -2.5 -0.231771
    endloop
  endfacet
  facet normal 0 -1 0
    outer loop
      vertex -5 -2.5 2.5
      vertex -2.98593 -2.5 -0.594928
      vertex -2.89181 -2.5 -0.410213
    endloop
  endfacet
  facet normal 0 -1 0
    outer loop
      vertex -5 -2.5 2.5
      vertex -3.06826 -2.5 -0.785189
      vertex -2.98593 -2.5 -0.594928
    endloop
  endfacet
  facet normal 0 -1 0
    outer loop
      vertex -5 -2.5 2.5
      vertex -3.13849 -2.5 -0.980244
      vertex -3.06826 -2.5 -0.785189
    endloop
  endfacet
  facet normal 0 -1 0
    outer loop
      vertex -5 -2.5 -2.5
      vertex -3.13849 -2.5 -0.980244
      vertex -5 -2.5 2.5
    endloop
  endfacet
  facet normal 0 -1 0
    outer loop
      vertex -3.13849 -2.5 -0.980244
      vertex -5 -2.5 -2.5
      vertex -3.19632 -2.5 -1.17932
    endloop
  endfacet
  facet normal 0 -1 0
    outer loop
      vertex -3.19632 -2.5 -1.17932
      vertex -5 -2.5 -2.5
      vertex -3.24155 -2.5 -1.38164
    endloop
  endfacet
  facet normal 0 -1 0
    outer loop
      vertex -3.24155 -2.5 -1.38164
      vertex -5 -2.5 -2.5
      vertex -3.27398 -2.5 -1.5864
    endloop
  endfacet
  facet normal 0 -1 0
    outer loop
      vertex -3.27398 -2.5 -1.5864
      vertex -5 -2.5 -2.5
      vertex -3.29349 -2.5 -1.79279
    endloop
  endfacet
  facet normal 0 -1 0
    outer loop
      vertex -3.29349 -2.5 -1.79279
      vertex -5 -2.5 -2.5
      vertex -3.3 -2.5 -2
    endloop
  endfacet
  facet normal 0 -1 -0
    outer loop
      vertex -3.3 -2.5 -2
      vertex -5 -2.5 -2.5
      vertex -3.29349 -2.5 -2.20721
    endloop
  endfacet
  facet normal 0 -1 -0
    outer loop
      vertex -3.29349 -2.5 -2.20721
      vertex -5 -2.5 -2.5
      vertex -3.27398 -2.5 -2.4136
    endloop
  endfacet
  facet normal 0 -1 -0
    outer loop
      vertex -3.27398 -2.5 -2.4136
      vertex -5 -2.5 -2.5
      vertex -3.26029 -2.5 -2.5
    endloop
  endfacet
  facet normal 0 -1 0
    outer loop
      vertex 0.207209 -2.5 1.29349
      vertex 5 -2.5 2.5
      vertex 0 -2.5 1.3
    endloop
  endfacet
  facet normal 0 -1 0
    outer loop
      vertex 0.413599 -2.5 1.27398
      vertex 5 -2.5 2.5
      vertex 0.207209 -2.5 1.29349
    endloop
  endfacet
  facet normal 0 -1 0
    outer loop
      vertex 0.618358 -2.5 1.24155
      vertex 5 -2.5 2.5
      vertex 0.413599 -2.5 1.27398
    endloop
  endfacet
  facet normal 0 -1 0
    outer loop
      vertex 0.820676 -2.5 1.19632
      vertex 5 -2.5 2.5
      vertex 0.618358 -2.5 1.24155
    endloop
  endfacet
  facet normal 0 -1 0
    outer loop
      vertex 1.01976 -2.5 1.13849
      vertex 5 -2.5 2.5
      vertex 0.820676 -2.5 1.19632
    endloop
  endfacet
  facet normal 0 -1 0
    outer loop
      vertex 1.21481 -2.5 1.06826
      vertex 5 -2.5 2.5
      vertex 1.01976 -2.5 1.13849
    endloop
  endfacet
  facet normal 0 -1 0
    outer loop
      vertex 1.40507 -2.5 0.985929
      vertex 5 -2.5 2.5
      vertex 1.21481 -2.5 1.06826
    endloop
  endfacet
  facet normal 0 -1 0
    outer loop
      vertex 1.58979 -2.5 0.891811
      vertex 5 -2.5 2.5
      vertex 1.40507 -2.5 0.985929
    endloop
  endfacet
  facet normal 0 -1 0
    outer loop
      vertex 1.76823 -2.5 0.786282
      vertex 5 -2.5 2.5
      vertex 1.58979 -2.5 0.891811
    endloop
  endfacet
  facet normal 0 -1 0
    outer loop
      vertex 1.93969 -2.5 0.669756
      vertex 5 -2.5 2.5
      vertex 1.76823 -2.5 0.786282
    endloop
  endfacet
  facet normal 0 -1 0
    outer loop
      vertex 2.1035 -2.5 0.542693
      vertex 5 -2.5 2.5
      vertex 1.93969 -2.5 0.669756
    endloop
  endfacet
  facet normal 0 -1 0
    outer loop
      vertex 2.259 -2.5 0.405596
      vertex 5 -2.5 2.5
      vertex 2.1035 -2.5 0.542693
    endloop
  endfacet
  facet normal 0 -1 0
    outer loop
      vertex 2.4056 -2.5 0.259005
      vertex 5 -2.5 2.5
      vertex 2.259 -2.5 0.405596
    endloop
  endfacet
  facet normal 0 -1 0
    outer loop
      vertex 2.54269 -2.5 0.103498
      vertex 5 -2.5 2.5
      vertex 2.4056 -2.5 0.259005
    endloop
  endfacet
  facet normal 0 -1 0
    outer loop
      vertex 2.66976 -2.5 -0.0603085
      vertex 5 -2.5 2.5
      vertex 2.54269 -2.5 0.103498
    endloop
  endfacet
  facet normal 0 -1 0
    outer loop
      vertex 2.78628 -2.5 -0.231771
      vertex 5 -2.5 2.5
      vertex 2.66976 -2.5 -0.0603085
    endloop
  endfacet
  facet normal 0 -1 0
    outer loop
      vertex 2.89181 -2.5 -0.410213
      vertex 5 -2.5 2.5
      vertex 2.78628 -2.5 -0.231771
    endloop
  endfacet
  facet normal 0 -1 0
    outer loop
      vertex 2.98593 -2.5 -0.594928
      vertex 5 -2.5 2.5
      vertex 2.89181 -2.5 -0.410213
    endloop
  endfacet
  facet normal 0 -1 0
    outer loop
      vertex 3.06826 -2.5 -0.785189
      vertex 5 -2.5 2.5
      vertex 2.98593 -2.5 -0.594928
    endloop
  endfacet
  facet normal 0 -1 0
    outer loop
      vertex 3.13849 -2.5 -0.980244
      vertex 5 -2.5 2.5
      vertex 3.06826 -2.5 -0.785189
    endloop
  endfacet
  facet normal 0 -1 0
    outer loop
      vertex 5 -2.5 -2.5
      vertex 3.13849 -2.5 -0.980244
      vertex 3.19632 -2.5 -1.17932
    endloop
  endfacet
  facet normal 0 -1 0
    outer loop
      vertex 5 -2.5 -2.5
      vertex 3.19632 -2.5 -1.17932
      vertex 3.24155 -2.5 -1.38164
    endloop
  endfacet
  facet normal 0 -1 0
    outer loop
      vertex 5 -2.5 -2.5
      vertex 3.24155 -2.5 -1.38164
      vertex 3.27398 -2.5 -1.5864
    endloop
  endfacet
  facet normal 0 -1 0
    outer loop
      vertex 5 -2.5 -2.5
      vertex 3.27398 -2.5 -1.5864
      vertex 3.29349 -2.5 -1.79279
    endloop
  endfacet
  facet normal 0 -1 0
    outer loop
      vertex 5 -2.5 -2.5
      vertex 3.29349 -2.5 -1.79279
      vertex 3.3 -2.5 -2
    endloop
  endfacet
  facet normal 0 -1 0
    outer loop
      vertex 5 -2.5 -2.5
      vertex 3.3 -2.5 -2
      vertex 3.29349 -2.5 -2.20721
    endloop
  endfacet
  facet normal 0 -1 0
    outer loop
      vertex 5 -2.5 -2.5
      vertex 3.29349 -2.5 -2.20721
      vertex 3.27398 -2.5 -2.4136
    endloop
  endfacet
  facet normal 0 -1 0
    outer loop
      vertex 5 -2.5 -2.5
      vertex 3.27398 -2.5 -2.4136
      vertex 3.26029 -2.5 -2.5
    endloop
  endfacet
  facet normal 0 -1 0
    outer loop
      vertex 3.13849 -2.5 -0.980244
      vertex 5 -2.5 -2.5
      vertex 5 -2.5 2.5
    endloop
  endfacet
  facet normal 0 1 0
    outer loop
      vertex 5 2.5 2.5
      vertex 0 2.5 1.3
      vertex -5 2.5 2.5
    endloop
  endfacet
  facet normal 0 1 0
    outer loop
      vertex 5 2.5 2.5
      vertex 0.207209 2.5 1.29349
      vertex 0 2.5 1.3
    endloop
  endfacet
  facet normal 0 1 0
    outer loop
      vertex 5 2.5 2.5
      vertex 0.413599 2.5 1.27398
      vertex 0.207209 2.5 1.29349
    endloop
  endfacet
  facet normal 0 1 0
    outer loop
      vertex 5 2.5 2.5
      vertex 0.618358 2.5 1.24155
      vertex 0.413599 2.5 1.27398
    endloop
  endfacet
  facet normal 0 1 0
    outer loop
      vertex 5 2.5 2.5
      vertex 0.820676 2.5 1.19632
      vertex 0.618358 2.5 1.24155
    endloop
  endfacet
  facet normal 0 1 0
    outer loop
      vertex 5 2.5 2.5
      vertex 1.01976 2.5 1.13849
      vertex 0.820676 2.5 1.19632
    endloop
  endfacet
  facet normal 0 1 0
    outer loop
      vertex 5 2.5 2.5
      vertex 1.21481 2.5 1.06826
      vertex 1.01976 2.5 1.13849
    endloop
  endfacet
  facet normal 0 1 0
    outer loop
      vertex 5 2.5 2.5
      vertex 1.40507 2.5 0.985929
      vertex 1.21481 2.5 1.06826
    endloop
  endfacet
  facet normal 0 1 0
    outer loop
      vertex 5 2.5 2.5
      vertex 1.58979 2.5 0.891811
      vertex 1.40507 2.5 0.985929
    endloop
  endfacet
  facet normal 0 1 0
    outer loop
      vertex 5 2.5 2.5
      vertex 1.76823 2.5 0.786282
      vertex 1.58979 2.5 0.891811
    endloop
  endfacet
  facet normal 0 1 0
    outer loop
      vertex 5 2.5 2.5
      vertex 1.93969 2.5 0.669756
      vertex 1.76823 2.5 0.786282
    endloop
  endfacet
  facet normal 0 1 0
    outer loop
      vertex 5 2.5 2.5
      vertex 2.1035 2.5 0.542693
      vertex 1.93969 2.5 0.669756
    endloop
  endfacet
  facet normal 0 1 0
    outer loop
      vertex 5 2.5 2.5
      vertex 2.259 2.5 0.405596
      vertex 2.1035 2.5 0.542693
    endloop
  endfacet
  facet normal 0 1 0
    outer loop
      vertex 5 2.5 2.5
      vertex 2.4056 2.5 0.259005
      vertex 2.259 2.5 0.405596
    endloop
  endfacet
  facet normal 0 1 0
    outer loop
      vertex 5 2.5 2.5
      vertex 2.54269 2.5 0.103498
      vertex 2.4056 2.5 0.259005
    endloop
  endfacet
  facet normal 0 1 0
    outer loop
      vertex 5 2.5 2.5
      vertex 2.66976 2.5 -0.0603085
      vertex 2.54269 2.5 0.103498
    endloop
  endfacet
  facet normal 0 1 0
    outer loop
      vertex 5 2.5 2.5
      vertex 2.78628 2.5 -0.231771
      vertex 2.66976 2.5 -0.0603085
    endloop
  endfacet
  facet normal 0 1 0
    outer loop
      vertex 5 2.5 2.5
      vertex 2.89181 2.5 -0.410213
      vertex 2.78628 2.5 -0.231771
    endloop
  endfacet
  facet normal 0 1 0
    outer loop
      vertex 5 2.5 2.5
      vertex 2.98593 2.5 -0.594928
      vertex 2.89181 2.5 -0.410213
    endloop
  endfacet
  facet normal 0 1 0
    outer loop
      vertex 5 2.5 2.5
      vertex 3.06826 2.5 -0.785189
      vertex 2.98593 2.5 -0.594928
    endloop
  endfacet
  facet normal 0 1 0
    outer loop
      vertex 5 2.5 2.5
      vertex 3.13849 2.5 -0.980244
      vertex 3.06826 2.5 -0.785189
    endloop
  endfacet
  facet normal 0 1 -0
    outer loop
      vertex 5 2.5 -2.5
      vertex 3.13849 2.5 -0.980244
      vertex 5 2.5 2.5
    endloop
  endfacet
  facet normal 0 1 0
    outer loop
      vertex 3.13849 2.5 -0.980244
      vertex 5 2.5 -2.5
      vertex 3.19632 2.5 -1.17932
    endloop
  endfacet
  facet normal 0 1 0
    outer loop
      vertex 3.19632 2.5 -1.17932
      vertex 5 2.5 -2.5
      vertex 3.24155 2.5 -1.38164
    endloop
  endfacet
  facet normal 0 1 0
    outer loop
      vertex 3.24155 2.5 -1.38164
      vertex 5 2.5 -2.5
      vertex 3.27398 2.5 -1.5864
    endloop
  endfacet
  facet normal 0 1 0
    outer loop
      vertex 3.27398 2.5 -1.5864
      vertex 5 2.5 -2.5
      vertex 3.29349 2.5 -1.79279
    endloop
  endfacet
  facet normal 0 1 0
    outer loop
      vertex 3.29349 2.5 -1.79279
      vertex 5 2.5 -2.5
      vertex 3.3 2.5 -2
    endloop
  endfacet
  facet normal 0 1 0
    outer loop
      vertex 3.3 2.5 -2
      vertex 5 2.5 -2.5
      vertex 3.29349 2.5 -2.20721
    endloop
  endfacet
  facet normal 0 1 0
    outer loop
      vertex 3.29349 2.5 -2.20721
      vertex 5 2.5 -2.5
      vertex 3.27398 2.5 -2.4136
    endloop
  endfacet
  facet normal 0 1 0
    outer loop
      vertex 3.27398 2.5 -2.4136
      vertex 5 2.5 -2.5
      vertex 3.26029 2.5 -2.5
    endloop
  endfacet
  facet normal 0 1 -0
    outer loop
      vertex -0.207209 2.5 1.29349
      vertex -5 2.5 2.5
      vertex 0 2.5 1.3
    endloop
  endfacet
  facet normal 0 1 -0
    outer loop
      vertex -0.413599 2.5 1.27398
      vertex -5 2.5 2.5
      vertex -0.207209 2.5 1.29349
    endloop
  endfacet
  facet normal 0 1 -0
    outer loop
      vertex -0.618358 2.5 1.24155
      vertex -5 2.5 2.5
      vertex -0.413599 2.5 1.27398
    endloop
  endfacet
  facet normal 0 1 -0
    outer loop
      vertex -0.820676 2.5 1.19632
      vertex -5 2.5 2.5
      vertex -0.618358 2.5 1.24155
    endloop
  endfacet
  facet normal 0 1 -0
    outer loop
      vertex -1.01976 2.5 1.13849
      vertex -5 2.5 2.5
      vertex -0.820676 2.5 1.19632
    endloop
  endfacet
  facet normal 0 1 -0
    outer loop
      vertex -1.21481 2.5 1.06826
      vertex -5 2.5 2.5
      vertex -1.01976 2.5 1.13849
    endloop
  endfacet
  facet normal 0 1 -0
    outer loop
      vertex -1.40507 2.5 0.985929
      vertex -5 2.5 2.5
      vertex -1.21481 2.5 1.06826
    endloop
  endfacet
  facet normal 0 1 -0
    outer loop
      vertex -1.58979 2.5 0.891811
      vertex -5 2.5 2.5
      vertex -1.40507 2.5 0.985929
    endloop
  endfacet
  facet normal 0 1 -0
    outer loop
      vertex -1.76823 2.5 0.786282
      vertex -5 2.5 2.5
      vertex -1.58979 2.5 0.891811
    endloop
  endfacet
  facet normal 0 1 -0
    outer loop
      vertex -1.93969 2.5 0.669756
      vertex -5 2.5 2.5
      vertex -1.76823 2.5 0.786282
    endloop
  endfacet
  facet normal 0 1 -0
    outer loop
      vertex -2.1035 2.5 0.542693
      vertex -5 2.5 2.5
      vertex -1.93969 2.5 0.669756
    endloop
  endfacet
  facet normal 0 1 -0
    outer loop
      vertex -2.259 2.5 0.405596
      vertex -5 2.5 2.5
      vertex -2.1035 2.5 0.542693
    endloop
  endfacet
  facet normal 0 1 -0
    outer loop
      vertex -2.4056 2.5 0.259005
      vertex -5 2.5 2.5
      vertex -2.259 2.5 0.405596
    endloop
  endfacet
  facet normal 0 1 -0
    outer loop
      vertex -2.54269 2.5 0.103498
      vertex -5 2.5 2.5
      vertex -2.4056 2.5 0.259005
    endloop
  endfacet
  facet normal 0 1 -0
    outer loop
      vertex -2.66976 2.5 -0.0603085
      vertex -5 2.5 2.5
      vertex -2.54269 2.5 0.103498
    endloop
  endfacet
  facet normal 0 1 -0
    outer loop
      vertex -2.78628 2.5 -0.231771
      vertex -5 2.5 2.5
      vertex -2.66976 2.5 -0.0603085
    endloop
  endfacet
  facet normal 0 1 -0
    outer loop
      vertex -2.89181 2.5 -0.410213
      vertex -5 2.5 2.5
      vertex -2.78628 2.5 -0.231771
    endloop
  endfacet
  facet normal 0 1 -0
    outer loop
      vertex -2.98593 2.5 -0.594928
      vertex -5 2.5 2.5
      vertex -2.89181 2.5 -0.410213
    endloop
  endfacet
  facet normal 0 1 -0
    outer loop
      vertex -3.06826 2.5 -0.785189
      vertex -5 2.5 2.5
      vertex -2.98593 2.5 -0.594928
    endloop
  endfacet
  facet normal 0 1 -0
    outer loop
      vertex -3.13849 2.5 -0.980244
      vertex -5 2.5 2.5
      vertex -3.06826 2.5 -0.785189
    endloop
  endfacet
  facet normal 0 1 0
    outer loop
      vertex -5 2.5 -2.5
      vertex -3.13849 2.5 -0.980244
      vertex -3.19632 2.5 -1.17932
    endloop
  endfacet
  facet normal 0 1 0
    outer loop
      vertex -5 2.5 -2.5
      vertex -3.19632 2.5 -1.17932
      vertex -3.24155 2.5 -1.38164
    endloop
  endfacet
  facet normal 0 1 0
    outer loop
      vertex -5 2.5 -2.5
      vertex -3.24155 2.5 -1.38164
      vertex -3.27398 2.5 -1.5864
    endloop
  endfacet
  facet normal 0 1 0
    outer loop
      vertex -5 2.5 -2.5
      vertex -3.27398 2.5 -1.5864
      vertex -3.29349 2.5 -1.79279
    endloop
  endfacet
  facet normal 0 1 0
    outer loop
      vertex -5 2.5 -2.5
      vertex -3.29349 2.5 -1.79279
      vertex -3.3 2.5 -2
    endloop
  endfacet
  facet normal 0 1 0
    outer loop
      vertex -5 2.5 -2.5
      vertex -3.3 2.5 -2
      vertex -3.29349 2.5 -2.20721
    endloop
  endfacet
  facet normal 0 1 0
    outer loop
      vertex -5 2.5 -2.5
      vertex -3.29349 2.5 -2.20721
      vertex -3.27398 2.5 -2.4136
    endloop
  endfacet
  facet normal 0 1 0
    outer loop
      vertex -5 2.5 -2.5
      vertex -3.27398 2.5 -2.4136
      vertex -3.26029 2.5 -2.5
    endloop
  endfacet
  facet normal 0 1 0
    outer loop
      vertex -3.13849 2.5 -0.980244
      vertex -5 2.5 -2.5
      vertex -5 2.5 2.5
    endloop
  endfacet
  facet normal -0.999507 0 -0.0314019
    outer loop
      vertex 3.3 -2.5 -2
      vertex 3.29349 2.5 -1.79279
      vertex 3.3 2.5 -2
    endloop
  endfacet
  facet normal -0.999507 -0 -0.0314019
    outer loop
      vertex 3.29349 2.5 -1.79279
      vertex 3.3 -2.5 -2
      vertex 3.29349 -2.5 -1.79279
    endloop
  endfacet
  facet normal -0.995562 0 -0.0941102
    outer loop
      vertex 3.29349 -2.5 -1.79279
      vertex 3.27398 2.5 -1.5864
      vertex 3.29349 2.5 -1.79279
    endloop
  endfacet
  facet normal -0.995562 -0 -0.0941102
    outer loop
      vertex 3.27398 2.5 -1.5864
      vertex 3.29349 -2.5 -1.79279
      vertex 3.27398 -2.5 -1.5864
    endloop
  endfacet
  facet normal 0.999507 0 -0.0314019
    outer loop
      vertex -3.29349 -2.5 -1.79279
      vertex -3.3 2.5 -2
      vertex -3.29349 2.5 -1.79279
    endloop
  endfacet
  facet normal 0.999507 0 -0.0314019
    outer loop
      vertex -3.3 2.5 -2
      vertex -3.29349 -2.5 -1.79279
      vertex -3.3 -2.5 -2
    endloop
  endfacet
  facet normal 0.0314021 0 -0.999507
    outer loop
      vertex -0.207209 -2.5 1.29349
      vertex 0 2.5 1.3
      vertex 0 -2.5 1.3
    endloop
  endfacet
  facet normal 0.0314021 0 -0.999507
    outer loop
      vertex 0 2.5 1.3
      vertex -0.207209 -2.5 1.29349
      vertex -0.207209 2.5 1.29349
    endloop
  endfacet
  facet normal -0.661326 0 -0.750098
    outer loop
      vertex 2.1035 -2.5 0.542693
      vertex 2.259 2.5 0.405596
      vertex 2.259 -2.5 0.405596
    endloop
  endfacet
  facet normal -0.661326 0 -0.750098
    outer loop
      vertex 2.259 2.5 0.405596
      vertex 2.1035 -2.5 0.542693
      vertex 2.1035 2.5 0.542693
    endloop
  endfacet
  facet normal 0.707085 0 -0.707128
    outer loop
      vertex -2.259 -2.5 0.405596
      vertex -2.4056 2.5 0.259005
      vertex -2.259 2.5 0.405596
    endloop
  endfacet
  facet normal 0.707085 0 -0.707128
    outer loop
      vertex -2.4056 2.5 0.259005
      vertex -2.259 -2.5 0.405596
      vertex -2.4056 -2.5 0.259005
    endloop
  endfacet
  facet normal 0.39714 0 -0.917758
    outer loop
      vertex -1.40507 -2.5 0.985929
      vertex -1.21481 2.5 1.06826
      vertex -1.21481 -2.5 1.06826
    endloop
  endfacet
  facet normal 0.39714 0 -0.917758
    outer loop
      vertex -1.21481 2.5 1.06826
      vertex -1.40507 -2.5 0.985929
      vertex -1.40507 2.5 0.985929
    endloop
  endfacet
  facet normal -0.891001 0 -0.454002
    outer loop
      vertex 2.98593 -2.5 -0.594928
      vertex 2.89181 2.5 -0.410213
      vertex 2.98593 2.5 -0.594928
    endloop
  endfacet
  facet normal -0.891001 -0 -0.454002
    outer loop
      vertex 2.89181 2.5 -0.410213
      vertex 2.98593 -2.5 -0.594928
      vertex 2.89181 -2.5 -0.410213
    endloop
  endfacet
  facet normal -0.338771 0 -0.940869
    outer loop
      vertex 1.01976 -2.5 1.13849
      vertex 1.21481 2.5 1.06826
      vertex 1.21481 -2.5 1.06826
    endloop
  endfacet
  facet normal -0.338771 0 -0.940869
    outer loop
      vertex 1.21481 2.5 1.06826
      vertex 1.01976 -2.5 1.13849
      vertex 1.01976 2.5 1.13849
    endloop
  endfacet
  facet normal 0.827094 0 -0.562064
    outer loop
      vertex -2.66976 -2.5 -0.0603085
      vertex -2.78628 2.5 -0.231771
      vertex -2.66976 2.5 -0.0603085
    endloop
  endfacet
  facet normal 0.827094 0 -0.562064
    outer loop
      vertex -2.78628 2.5 -0.231771
      vertex -2.66976 -2.5 -0.0603085
      vertex -2.78628 -2.5 -0.231771
    endloop
  endfacet
  facet normal -0.790135 0 -0.612933
    outer loop
      vertex 2.66976 -2.5 -0.0603085
      vertex 2.54269 2.5 0.103498
      vertex 2.66976 2.5 -0.0603085
    endloop
  endfacet
  facet normal -0.790135 -0 -0.612933
    outer loop
      vertex 2.54269 2.5 0.103498
      vertex 2.66976 -2.5 -0.0603085
      vertex 2.54269 -2.5 0.103498
    endloop
  endfacet
  facet normal -0.156431 0 -0.987689
    outer loop
      vertex 0.413599 -2.5 1.27398
      vertex 0.618358 2.5 1.24155
      vertex 0.618358 -2.5 1.24155
    endloop
  endfacet
  facet normal -0.156431 0 -0.987689
    outer loop
      vertex 0.618358 2.5 1.24155
      vertex 0.413599 -2.5 1.27398
      vertex 0.413599 2.5 1.27398
    endloop
  endfacet
  facet normal -0.0941102 0 -0.995562
    outer loop
      vertex 0.207209 -2.5 1.29349
      vertex 0.413599 2.5 1.27398
      vertex 0.413599 -2.5 1.27398
    endloop
  endfacet
  facet normal -0.0941102 0 -0.995562
    outer loop
      vertex 0.413599 2.5 1.27398
      vertex 0.207209 -2.5 1.29349
      vertex 0.207209 2.5 1.29349
    endloop
  endfacet
  facet normal -0.612904 0 -0.790157
    outer loop
      vertex 1.93969 -2.5 0.669756
      vertex 2.1035 2.5 0.542693
      vertex 2.1035 -2.5 0.542693
    endloop
  endfacet
  facet normal -0.612904 0 -0.790157
    outer loop
      vertex 2.1035 2.5 0.542693
      vertex 1.93969 -2.5 0.669756
      vertex 1.93969 2.5 0.669756
    endloop
  endfacet
  facet normal 0.97591 0 -0.218171
    outer loop
      vertex -3.19632 -2.5 -1.17932
      vertex -3.24155 2.5 -1.38164
      vertex -3.19632 2.5 -1.17932
    endloop
  endfacet
  facet normal 0.97591 0 -0.218171
    outer loop
      vertex -3.24155 2.5 -1.38164
      vertex -3.19632 -2.5 -1.17932
      vertex -3.24155 -2.5 -1.38164
    endloop
  endfacet
  facet normal 0.860743 0 -0.50904
    outer loop
      vertex -2.78628 -2.5 -0.231771
      vertex -2.89181 2.5 -0.410213
      vertex -2.78628 2.5 -0.231771
    endloop
  endfacet
  facet normal 0.860743 0 -0.50904
    outer loop
      vertex -2.89181 2.5 -0.410213
      vertex -2.78628 -2.5 -0.231771
      vertex -2.89181 -2.5 -0.410213
    endloop
  endfacet
  facet normal 0.56209 0 -0.827076
    outer loop
      vertex -1.93969 -2.5 0.669756
      vertex -1.76823 2.5 0.786282
      vertex -1.76823 -2.5 0.786282
    endloop
  endfacet
  facet normal 0.56209 0 -0.827076
    outer loop
      vertex -1.76823 2.5 0.786282
      vertex -1.93969 -2.5 0.669756
      vertex -1.93969 2.5 0.669756
    endloop
  endfacet
  facet normal 0.0941102 0 -0.995562
    outer loop
      vertex -0.413599 -2.5 1.27398
      vertex -0.207209 2.5 1.29349
      vertex -0.207209 -2.5 1.29349
    endloop
  endfacet
  facet normal 0.0941102 0 -0.995562
    outer loop
      vertex -0.207209 2.5 1.29349
      vertex -0.413599 -2.5 1.27398
      vertex -0.413599 2.5 1.27398
    endloop
  endfacet
  facet normal -0.97591 0 -0.218171
    outer loop
      vertex 3.24155 -2.5 -1.38164
      vertex 3.19632 2.5 -1.17932
      vertex 3.24155 2.5 -1.38164
    endloop
  endfacet
  facet normal -0.97591 -0 -0.218171
    outer loop
      vertex 3.19632 2.5 -1.17932
      vertex 3.24155 -2.5 -1.38164
      vertex 3.19632 -2.5 -1.17932
    endloop
  endfacet
  facet normal -0.987689 0 -0.156431
    outer loop
      vertex 3.27398 -2.5 -1.5864
      vertex 3.24155 2.5 -1.38164
      vertex 3.27398 2.5 -1.5864
    endloop
  endfacet
  facet normal -0.987689 -0 -0.156431
    outer loop
      vertex 3.24155 2.5 -1.38164
      vertex 3.27398 -2.5 -1.5864
      vertex 3.24155 -2.5 -1.38164
    endloop
  endfacet
  facet normal -0.940872 0 -0.338763
    outer loop
      vertex 3.13849 -2.5 -0.980244
      vertex 3.06826 2.5 -0.785189
      vertex 3.13849 2.5 -0.980244
    endloop
  endfacet
  facet normal -0.940872 -0 -0.338763
    outer loop
      vertex 3.06826 2.5 -0.785189
      vertex 3.13849 -2.5 -0.980244
      vertex 3.06826 -2.5 -0.785189
    endloop
  endfacet
  facet normal -0.75013 0 -0.661291
    outer loop
      vertex 2.54269 -2.5 0.103498
      vertex 2.4056 2.5 0.259005
      vertex 2.54269 2.5 0.103498
    endloop
  endfacet
  facet normal -0.75013 -0 -0.661291
    outer loop
      vertex 2.4056 2.5 0.259005
      vertex 2.54269 -2.5 0.103498
      vertex 2.4056 -2.5 0.259005
    endloop
  endfacet
  facet normal -0.27895 0 -0.960306
    outer loop
      vertex 0.820676 -2.5 1.19632
      vertex 1.01976 2.5 1.13849
      vertex 1.01976 -2.5 1.13849
    endloop
  endfacet
  facet normal -0.27895 0 -0.960306
    outer loop
      vertex 1.01976 2.5 1.13849
      vertex 0.820676 -2.5 1.19632
      vertex 0.820676 2.5 1.19632
    endloop
  endfacet
  facet normal -0.0314021 0 -0.999507
    outer loop
      vertex 0 -2.5 1.3
      vertex 0.207209 2.5 1.29349
      vertex 0.207209 -2.5 1.29349
    endloop
  endfacet
  facet normal -0.0314021 0 -0.999507
    outer loop
      vertex 0.207209 2.5 1.29349
      vertex 0 -2.5 1.3
      vertex 0 2.5 1.3
    endloop
  endfacet
  facet normal -0.453985 0 -0.89101
    outer loop
      vertex 1.40507 -2.5 0.985929
      vertex 1.58979 2.5 0.891811
      vertex 1.58979 -2.5 0.891811
    endloop
  endfacet
  facet normal -0.453985 0 -0.89101
    outer loop
      vertex 1.58979 2.5 0.891811
      vertex 1.40507 -2.5 0.985929
      vertex 1.40507 2.5 0.985929
    endloop
  endfacet
  facet normal -0.39714 0 -0.917758
    outer loop
      vertex 1.21481 -2.5 1.06826
      vertex 1.40507 2.5 0.985929
      vertex 1.40507 -2.5 0.985929
    endloop
  endfacet
  facet normal -0.39714 0 -0.917758
    outer loop
      vertex 1.40507 2.5 0.985929
      vertex 1.21481 -2.5 1.06826
      vertex 1.21481 2.5 1.06826
    endloop
  endfacet
  facet normal 0.987689 0 -0.156431
    outer loop
      vertex -3.24155 -2.5 -1.38164
      vertex -3.27398 2.5 -1.5864
      vertex -3.24155 2.5 -1.38164
    endloop
  endfacet
  facet normal 0.987689 0 -0.156431
    outer loop
      vertex -3.27398 2.5 -1.5864
      vertex -3.24155 -2.5 -1.38164
      vertex -3.27398 -2.5 -1.5864
    endloop
  endfacet
  facet normal 0.790135 0 -0.612933
    outer loop
      vertex -2.54269 -2.5 0.103498
      vertex -2.66976 2.5 -0.0603085
      vertex -2.54269 2.5 0.103498
    endloop
  endfacet
  facet normal 0.790135 0 -0.612933
    outer loop
      vertex -2.66976 2.5 -0.0603085
      vertex -2.54269 -2.5 0.103498
      vertex -2.66976 -2.5 -0.0603085
    endloop
  endfacet
  facet normal 0.91776 0 -0.397135
    outer loop
      vertex -2.98593 -2.5 -0.594928
      vertex -3.06826 2.5 -0.785189
      vertex -2.98593 2.5 -0.594928
    endloop
  endfacet
  facet normal 0.91776 0 -0.397135
    outer loop
      vertex -3.06826 2.5 -0.785189
      vertex -2.98593 -2.5 -0.594928
      vertex -3.06826 -2.5 -0.785189
    endloop
  endfacet
  facet normal 0.960303 0 -0.27896
    outer loop
      vertex -3.13849 -2.5 -0.980244
      vertex -3.19632 2.5 -1.17932
      vertex -3.13849 2.5 -0.980244
    endloop
  endfacet
  facet normal 0.960303 0 -0.27896
    outer loop
      vertex -3.19632 2.5 -1.17932
      vertex -3.13849 -2.5 -0.980244
      vertex -3.19632 -2.5 -1.17932
    endloop
  endfacet
  facet normal 0.612904 0 -0.790157
    outer loop
      vertex -2.1035 -2.5 0.542693
      vertex -1.93969 2.5 0.669756
      vertex -1.93969 -2.5 0.669756
    endloop
  endfacet
  facet normal 0.612904 0 -0.790157
    outer loop
      vertex -1.93969 2.5 0.669756
      vertex -2.1035 -2.5 0.542693
      vertex -2.1035 2.5 0.542693
    endloop
  endfacet
  facet normal 0.453985 0 -0.89101
    outer loop
      vertex -1.58979 -2.5 0.891811
      vertex -1.40507 2.5 0.985929
      vertex -1.40507 -2.5 0.985929
    endloop
  endfacet
  facet normal 0.453985 0 -0.89101
    outer loop
      vertex -1.40507 2.5 0.985929
      vertex -1.58979 -2.5 0.891811
      vertex -1.58979 2.5 0.891811
    endloop
  endfacet
  facet normal 0.27895 0 -0.960306
    outer loop
      vertex -1.01976 -2.5 1.13849
      vertex -0.820676 2.5 1.19632
      vertex -0.820676 -2.5 1.19632
    endloop
  endfacet
  facet normal 0.27895 0 -0.960306
    outer loop
      vertex -0.820676 2.5 1.19632
      vertex -1.01976 -2.5 1.13849
      vertex -1.01976 2.5 1.13849
    endloop
  endfacet
  facet normal 0.338771 0 -0.940869
    outer loop
      vertex -1.21481 -2.5 1.06826
      vertex -1.01976 2.5 1.13849
      vertex -1.01976 -2.5 1.13849
    endloop
  endfacet
  facet normal 0.338771 0 -0.940869
    outer loop
      vertex -1.01976 2.5 1.13849
      vertex -1.21481 -2.5 1.06826
      vertex -1.21481 2.5 1.06826
    endloop
  endfacet
  facet normal 0.218173 0 -0.97591
    outer loop
      vertex -0.820676 -2.5 1.19632
      vertex -0.618358 2.5 1.24155
      vertex -0.618358 -2.5 1.24155
    endloop
  endfacet
  facet normal 0.218173 0 -0.97591
    outer loop
      vertex -0.618358 2.5 1.24155
      vertex -0.820676 -2.5 1.19632
      vertex -0.820676 2.5 1.19632
    endloop
  endfacet
  facet normal 0.987678 -0 0.156497
    outer loop
      vertex -3.27398 -2.5 -2.4136
      vertex -3.26029 2.5 -2.5
      vertex -3.27398 2.5 -2.4136
    endloop
  endfacet
  facet normal 0.987678 0 0.156497
    outer loop
      vertex -3.26029 2.5 -2.5
      vertex -3.27398 -2.5 -2.4136
      vertex -3.26029 -2.5 -2.5
    endloop
  endfacet
  facet normal -0.91776 0 -0.397135
    outer loop
      vertex 3.06826 -2.5 -0.785189
      vertex 2.98593 2.5 -0.594928
      vertex 3.06826 2.5 -0.785189
    endloop
  endfacet
  facet normal -0.91776 -0 -0.397135
    outer loop
      vertex 2.98593 2.5 -0.594928
      vertex 3.06826 -2.5 -0.785189
      vertex 2.98593 -2.5 -0.594928
    endloop
  endfacet
  facet normal -0.960303 0 -0.27896
    outer loop
      vertex 3.19632 -2.5 -1.17932
      vertex 3.13849 2.5 -0.980244
      vertex 3.19632 2.5 -1.17932
    endloop
  endfacet
  facet normal -0.960303 -0 -0.27896
    outer loop
      vertex 3.13849 2.5 -0.980244
      vertex 3.19632 -2.5 -1.17932
      vertex 3.13849 -2.5 -0.980244
    endloop
  endfacet
  facet normal -0.707085 0 -0.707128
    outer loop
      vertex 2.4056 -2.5 0.259005
      vertex 2.259 2.5 0.405596
      vertex 2.4056 2.5 0.259005
    endloop
  endfacet
  facet normal -0.707085 -0 -0.707128
    outer loop
      vertex 2.259 2.5 0.405596
      vertex 2.4056 -2.5 0.259005
      vertex 2.259 -2.5 0.405596
    endloop
  endfacet
  facet normal -0.860743 0 -0.50904
    outer loop
      vertex 2.89181 -2.5 -0.410213
      vertex 2.78628 2.5 -0.231771
      vertex 2.89181 2.5 -0.410213
    endloop
  endfacet
  facet normal -0.860743 -0 -0.50904
    outer loop
      vertex 2.78628 2.5 -0.231771
      vertex 2.89181 -2.5 -0.410213
      vertex 2.78628 -2.5 -0.231771
    endloop
  endfacet
  facet normal -0.827094 0 -0.562064
    outer loop
      vertex 2.78628 -2.5 -0.231771
      vertex 2.66976 2.5 -0.0603085
      vertex 2.78628 2.5 -0.231771
    endloop
  endfacet
  facet normal -0.827094 -0 -0.562064
    outer loop
      vertex 2.66976 2.5 -0.0603085
      vertex 2.78628 -2.5 -0.231771
      vertex 2.66976 -2.5 -0.0603085
    endloop
  endfacet
  facet normal -0.218173 0 -0.97591
    outer loop
      vertex 0.618358 -2.5 1.24155
      vertex 0.820676 2.5 1.19632
      vertex 0.820676 -2.5 1.19632
    endloop
  endfacet
  facet normal -0.218173 0 -0.97591
    outer loop
      vertex 0.820676 2.5 1.19632
      vertex 0.618358 -2.5 1.24155
      vertex 0.618358 2.5 1.24155
    endloop
  endfacet
  facet normal -0.56209 0 -0.827076
    outer loop
      vertex 1.76823 -2.5 0.786282
      vertex 1.93969 2.5 0.669756
      vertex 1.93969 -2.5 0.669756
    endloop
  endfacet
  facet normal -0.56209 0 -0.827076
    outer loop
      vertex 1.93969 2.5 0.669756
      vertex 1.76823 -2.5 0.786282
      vertex 1.76823 2.5 0.786282
    endloop
  endfacet
  facet normal -0.509041 0 -0.860742
    outer loop
      vertex 1.58979 -2.5 0.891811
      vertex 1.76823 2.5 0.786282
      vertex 1.76823 -2.5 0.786282
    endloop
  endfacet
  facet normal -0.509041 0 -0.860742
    outer loop
      vertex 1.76823 2.5 0.786282
      vertex 1.58979 -2.5 0.891811
      vertex 1.58979 2.5 0.891811
    endloop
  endfacet
  facet normal 0.75013 0 -0.661291
    outer loop
      vertex -2.4056 -2.5 0.259005
      vertex -2.54269 2.5 0.103498
      vertex -2.4056 2.5 0.259005
    endloop
  endfacet
  facet normal 0.75013 0 -0.661291
    outer loop
      vertex -2.54269 2.5 0.103498
      vertex -2.4056 -2.5 0.259005
      vertex -2.54269 -2.5 0.103498
    endloop
  endfacet
  facet normal 0.891001 0 -0.454002
    outer loop
      vertex -2.89181 -2.5 -0.410213
      vertex -2.98593 2.5 -0.594928
      vertex -2.89181 2.5 -0.410213
    endloop
  endfacet
  facet normal 0.891001 0 -0.454002
    outer loop
      vertex -2.98593 2.5 -0.594928
      vertex -2.89181 -2.5 -0.410213
      vertex -2.98593 -2.5 -0.594928
    endloop
  endfacet
  facet normal 0.940872 0 -0.338763
    outer loop
      vertex -3.06826 -2.5 -0.785189
      vertex -3.13849 2.5 -0.980244
      vertex -3.06826 2.5 -0.785189
    endloop
  endfacet
  facet normal 0.940872 0 -0.338763
    outer loop
      vertex -3.13849 2.5 -0.980244
      vertex -3.06826 -2.5 -0.785189
      vertex -3.13849 -2.5 -0.980244
    endloop
  endfacet
  facet normal 0.995562 0 -0.0941102
    outer loop
      vertex -3.27398 -2.5 -1.5864
      vertex -3.29349 2.5 -1.79279
      vertex -3.27398 2.5 -1.5864
    endloop
  endfacet
  facet normal 0.995562 0 -0.0941102
    outer loop
      vertex -3.29349 2.5 -1.79279
      vertex -3.27398 -2.5 -1.5864
      vertex -3.29349 -2.5 -1.79279
    endloop
  endfacet
  facet normal 0.661326 0 -0.750098
    outer loop
      vertex -2.259 -2.5 0.405596
      vertex -2.1035 2.5 0.542693
      vertex -2.1035 -2.5 0.542693
    endloop
  endfacet
  facet normal 0.661326 0 -0.750098
    outer loop
      vertex -2.1035 2.5 0.542693
      vertex -2.259 -2.5 0.405596
      vertex -2.259 2.5 0.405596
    endloop
  endfacet
  facet normal 0.509041 0 -0.860742
    outer loop
      vertex -1.76823 -2.5 0.786282
      vertex -1.58979 2.5 0.891811
      vertex -1.58979 -2.5 0.891811
    endloop
  endfacet
  facet normal 0.509041 0 -0.860742
    outer loop
      vertex -1.58979 2.5 0.891811
      vertex -1.76823 -2.5 0.786282
      vertex -1.76823 2.5 0.786282
    endloop
  endfacet
  facet normal 0.156431 0 -0.987689
    outer loop
      vertex -0.618358 -2.5 1.24155
      vertex -0.413599 2.5 1.27398
      vertex -0.413599 -2.5 1.27398
    endloop
  endfacet
  facet normal 0.156431 0 -0.987689
    outer loop
      vertex -0.413599 2.5 1.27398
      vertex -0.618358 -2.5 1.24155
      vertex -0.618358 2.5 1.24155
    endloop
  endfacet
  facet normal -0.995562 0 0.0941102
    outer loop
      vertex 3.27398 -2.5 -2.4136
      vertex 3.29349 2.5 -2.20721
      vertex 3.27398 2.5 -2.4136
    endloop
  endfacet
  facet normal -0.995562 0 0.0941102
    outer loop
      vertex 3.29349 2.5 -2.20721
      vertex 3.27398 -2.5 -2.4136
      vertex 3.29349 -2.5 -2.20721
    endloop
  endfacet
  facet normal -0.999507 0 0.0314019
    outer loop
      vertex 3.29349 -2.5 -2.20721
      vertex 3.3 2.5 -2
      vertex 3.29349 2.5 -2.20721
    endloop
  endfacet
  facet normal -0.999507 0 0.0314019
    outer loop
      vertex 3.3 2.5 -2
      vertex 3.29349 -2.5 -2.20721
      vertex 3.3 -2.5 -2
    endloop
  endfacet
  facet normal 0.995562 -0 0.0941102
    outer loop
      vertex -3.29349 -2.5 -2.20721
      vertex -3.27398 2.5 -2.4136
      vertex -3.29349 2.5 -2.20721
    endloop
  endfacet
  facet normal 0.995562 0 0.0941102
    outer loop
      vertex -3.27398 2.5 -2.4136
      vertex -3.29349 -2.5 -2.20721
      vertex -3.27398 -2.5 -2.4136
    endloop
  endfacet
  facet normal 0.999507 -0 0.0314019
    outer loop
      vertex -3.3 -2.5 -2
      vertex -3.29349 2.5 -2.20721
      vertex -3.3 2.5 -2
    endloop
  endfacet
  facet normal 0.999507 0 0.0314019
    outer loop
      vertex -3.29349 2.5 -2.20721
      vertex -3.3 -2.5 -2
      vertex -3.29349 -2.5 -2.20721
    endloop
  endfacet
  facet normal -0.987678 0 0.156497
    outer loop
      vertex 3.26029 -2.5 -2.5
      vertex 3.27398 2.5 -2.4136
      vertex 3.26029 2.5 -2.5
    endloop
  endfacet
  facet normal -0.987678 0 0.156497
    outer loop
      vertex 3.27398 2.5 -2.4136
      vertex 3.26029 -2.5 -2.5
      vertex 3.27398 -2.5 -2.4136
    endloop
  endfacet
endsolid OpenSCAD_Model
