solid OpenSCAD_Model
  facet normal -1 0 0
    outer loop
      vertex -5 -2.5 -2.5
      vertex -5 2.5 2.5
      vertex -5 2.5 -2.5
    endloop
  endfacet
  facet normal -1 -0 0
    outer loop
      vertex -5 2.5 2.5
      vertex -5 -2.5 -2.5
      vertex -5 -2.5 2.5
    endloop
  endfacet
  facet normal -0 0 1
    outer loop
      vertex -5 2.5 2.5
      vertex 5 -2.5 2.5
      vertex 5 2.5 2.5
    endloop
  endfacet
  facet normal 0 0 1
    outer loop
      vertex 5 -2.5 2.5
      vertex -5 2.5 2.5
      vertex -5 -2.5 2.5
    endloop
  endfacet
  facet normal 1 -0 0
    outer loop
      vertex 5 -2.5 2.5
      vertex 5 2.5 -2.5
      vertex 5 2.5 2.5
    endloop
  endfacet
  facet normal 1 0 0
    outer loop
      vertex 5 2.5 -2.5
      vertex 5 -2.5 2.5
      vertex 5 -2.5 -2.5
    endloop
  endfacet
  facet normal 0 0 -1
    outer loop
      vertex -5 -2.5 -2.5
      vertex -3.28472 2.5 -2.5
      vertex -3.28472 -2.5 -2.5
    endloop
  endfacet
  facet normal -0 0 -1
    outer loop
      vertex -3.28472 2.5 -2.5
      vertex -5 -2.5 -2.5
      vertex -5 2.5 -2.5
    endloop
  endfacet
  facet normal 0 0 -1
    outer loop
      vertex 3.28472 -2.5 -2.5
      vertex 5 2.5 -2.5
      vertex 5 -2.5 -2.5
    endloop
  endfacet
  facet normal -0 0 -1
    outer loop
      vertex 5 2.5 -2.5
      vertex 3.28472 -2.5 -2.5
      vertex 3.28472 2.5 -2.5
    endloop
  endfacet
  facet normal 0 -1 0
    outer loop
      vertex -5 -2.5 2.5
      vertex 0 -2.5 1.1
      vertex 5 -2.5 2.5
    endloop
  endfacet
  facet normal 0 -1 0
    outer loop
      vertex -5 -2.5 2.5
      vertex -0.207209 -2.5 1.09349
      vertex 0 -2.5 1.1
    endloop
  endfacet
  facet normal 0 -1 0
    outer loop
      vertex -5 -2.5 2.5
      vertex -0.413599 -2.5 1.07398
      vertex -0.207209 -2.5 1.09349
    endloop
  endfacet
  facet normal 0 -1 0
    outer loop
      vertex -5 -2.5 2.5
      vertex -0.618358 -2.5 1.04155
      vertex -0.413599 -2.5 1.07398
    endloop
  endfacet
  facet normal 0 -1 0
    outer loop
      vertex -5 -2.5 2.5
      vertex -0.820676 -2.5 0.996324
      vertex -0.618358 -2.5 1.04155
    endloop
  endfacet
  facet normal 0 -1 0
    outer loop
      vertex -5 -2.5 2.5
      vertex -1.01976 -2.5 0.938486
      vertex -0.820676 -2.5 0.996324
    endloop
  endfacet
  facet normal 0 -1 0
    outer loop
      vertex -5 -2.5 2.5
      vertex -1.21481 -2.5 0.868262
      vertex -1.01976 -2.5 0.938486
    endloop
  endfacet
  facet normal 0 -1 0
    outer loop
      vertex -5 -2.5 2.5
      vertex -1.40507 -2.5 0.785929
      vertex -1.21481 -2.5 0.868262
    endloop
  endfacet
  facet normal 0 -1 0
    outer loop
      vertex -5 -2.5 2.5
      vertex -1.58979 -2.5 0.691812
      vertex -1.40507 -2.5 0.785929
    endloop
  endfacet
  facet normal 0 -1 0
    outer loop
      vertex -5 -2.5 2.5
      vertex -1.76823 -2.5 0.586282
      vertex -1.58979 -2.5 0.691812
    endloop
  endfacet
  facet normal 0 -1 0
    outer loop
      vertex -5 -2.5 2.5
      vertex -1.93969 -2.5 0.469755
      vertex -1.76823 -2.5 0.586282
    endloop
  endfacet
  facet normal 0 -1 0
    outer loop
      vertex -5 -2.5 2.5
      vertex -2.1035 -2.5 0.342693
      vertex -1.93969 -2.5 0.469755
    endloop
  endfacet
  facet normal 0 -1 0
    outer loop
      vertex -5 -2.5 2.5
      vertex -2.259 -2.5 0.205596
      vertex -2.1035 -2.5 0.342693
    endloop
  endfacet
  facet normal 0 -1 0
    outer loop
      vertex -5 -2.5 2.5
      vertex -2.4056 -2.5 0.0590048
      vertex -2.259 -2.5 0.205596
    endloop
  endfacet
  facet normal 0 -1 0
    outer loop
      vertex -5 -2.5 2.5
      vertex -2.54269 -2.5 -0.0965004
      vertex -2.4056 -2.5 0.0590048
    endloop
  endfacet
  facet normal 0 -1 0
    outer loop
      vertex -5 -2.5 2.5
      vertex -2.66976 -2.5 -0.260308
      vertex -2.54269 -2.5 -0.0965004
    endloop
  endfacet
  facet normal 0 -1 0
    outer loop
      vertex -5 -2.5 2.5
      vertex -2.78628 -2.5 -0.431771
      vertex -2.66976 -2.5 -0.260308
    endloop
  endfacet
  facet normal 0 -1 0
    outer loop
      vertex -5 -2.5 2.5
      vertex -2.89181 -2.5 -0.610212
      vertex -2.78628 -2.5 -0.431771
    endloop
  endfacet
  facet normal 0 -1 0
    outer loop
      vertex -5 -2.5 2.5
      vertex -2.98593 -2.5 -0.794928
      vertex -2.89181 -2.5 -0.610212
    endloop
  endfacet
  facet normal 0 -1 0
    outer loop
      vertex -5 -2.5 2.5
      vertex -3.06826 -2.5 -0.985188
      vertex -2.98593 -2.5 -0.794928
    endloop
  endfacet
  facet normal 0 -1 0
    outer loop
      vertex -5 -2.5 -2.5
      vertex -3.06826 -2.5 -0.985188
      vertex -5 -2.5 2.5
    endloop
  endfacet
  facet normal 0 -1 0
    outer loop
      vertex -3.06826 -2.5 -0.985188
      vertex -5 -2.5 -2.5
      vertex -3.13849 -2.5 -1.18024
    endloop
  endfacet
  facet normal 0 -1 0
    outer loop
      vertex -3.13849 -2.5 -1.18024
      vertex -5 -2.5 -2.5
      vertex -3.19632 -2.5 -1.37932
    endloop
  endfacet
  facet normal 0 -1 0
    outer loop
      vertex -3.19632 -2.5 -1.37932
      vertex -5 -2.5 -2.5
      vertex -3.24155 -2.5 -1.58164
    endloop
  endfacet
  facet normal 0 -1 0
    outer loop
      vertex -3.24155 -2.5 -1.58164
      vertex -5 -2.5 -2.5
      vertex -3.27398 -2.5 -1.7864
    endloop
  endfacet
  facet normal 0 -1 0
    outer loop
      vertex -3.27398 -2.5 -1.7864
      vertex -5 -2.5 -2.5
      vertex -3.29349 -2.5 -1.99279
    endloop
  endfacet
  facet normal 0 -1 0
    outer loop
      vertex -3.29349 -2.5 -1.99279
      vertex -5 -2.5 -2.5
      vertex -3.3 -2.5 -2.2
    endloop
  endfacet
  facet normal 0 -1 -0
    outer loop
      vertex -3.3 -2.5 -2.2
      vertex -5 -2.5 -2.5
      vertex -3.29349 -2.5 -2.40721
    endloop
  endfacet
  facet normal 0 -1 -0
    outer loop
      vertex -3.29349 -2.5 -2.40721
      vertex -5 -2.5 -2.5
      vertex -3.28472 -2.5 -2.5
    endloop
  endfacet
  facet normal 0 -1 0
    outer loop
      vertex 0.207209 -2.5 1.09349
      vertex 5 -2.5 2.5
      vertex 0 -2.5 1.1
    endloop
  endfacet
  facet normal 0 -1 0
    outer loop
      vertex 0.413599 -2.5 1.07398
      vertex 5 -2.5 2.5
      vertex 0.207209 -2.5 1.09349
    endloop
  endfacet
  facet normal 0 -1 0
    outer loop
      vertex 0.618358 -2.5 1.04155
      vertex 5 -2.5 2.5
      vertex 0.413599 -2.5 1.07398
    endloop
  endfacet
  facet normal 0 -1 0
    outer loop
      vertex 0.820676 -2.5 0.996324
      vertex 5 -2.5 2.5
      vertex 0.618358 -2.5 1.04155
    endloop
  endfacet
  facet normal 0 -1 0
    outer loop
      vertex 1.01976 -2.5 0.938486
      vertex 5 -2.5 2.5
      vertex 0.820676 -2.5 0.996324
    endloop
  endfacet
  facet normal 0 -1 0
    outer loop
      vertex 1.21481 -2.5 0.868262
      vertex 5 -2.5 2.5
      vertex 1.01976 -2.5 0.938486
    endloop
  endfacet
  facet normal 0 -1 0
    outer loop
      vertex 1.40507 -2.5 0.785929
      vertex 5 -2.5 2.5
      vertex 1.21481 -2.5 0.868262
    endloop
  endfacet
  facet normal 0 -1 0
    outer loop
      vertex 1.58979 -2.5 0.691812
      vertex 5 -2.5 2.5
      vertex 1.40507 -2.5 0.785929
    endloop
  endfacet
  facet normal 0 -1 0
    outer loop
      vertex 1.76823 -2.5 0.586282
      vertex 5 -2.5 2.5
      vertex 1.58979 -2.5 0.691812
    endloop
  endfacet
  facet normal 0 -1 0
    outer loop
      vertex 1.93969 -2.5 0.469755
      vertex 5 -2.5 2.5
      vertex 1.76823 -2.5 0.586282
    endloop
  endfacet
  facet normal 0 -1 0
    outer loop
      vertex 2.1035 -2.5 0.342693
      vertex 5 -2.5 2.5
      vertex 1.93969 -2.5 0.469755
    endloop
  endfacet
  facet normal 0 -1 0
    outer loop
      vertex 2.259 -2.5 0.205596
      vertex 5 -2.5 2.5
      vertex 2.1035 -2.5 0.342693
    endloop
  endfacet
  facet normal 0 -1 0
    outer loop
      vertex 2.4056 -2.5 0.0590048
      vertex 5 -2.5 2.5
      vertex 2.259 -2.5 0.205596
    endloop
  endfacet
  facet normal 0 -1 0
    outer loop
      vertex 2.54269 -2.5 -0.0965004
      vertex 5 -2.5 2.5
      vertex 2.4056 -2.5 0.0590048
    endloop
  endfacet
  facet normal 0 -1 0
    outer loop
      vertex 2.66976 -2.5 -0.260308
      vertex 5 -2.5 2.5
      vertex 2.54269 -2.5 -0.0965004
    endloop
  endfacet
  facet normal 0 -1 0
    outer loop
      vertex 2.78628 -2.5 -0.431771
      vertex 5 -2.5 2.5
      vertex 2.66976 -2.5 -0.260308
    endloop
  endfacet
  facet normal 0 -1 0
    outer loop
      vertex 2.89181 -2.5 -0.610212
      vertex 5 -2.5 2.5
      vertex 2.78628 -2.5 -0.431771
    endloop
  endfacet
  facet normal 0 -1 0
    outer loop
      vertex 2.98593 -2.5 -0.794928
      vertex 5 -2.5 2.5
      vertex 2.89181 -2.5 -0.610212
    endloop
  endfacet
  facet normal 0 -1 0
    outer loop
      vertex 3.06826 -2.5 -0.985188
      vertex 5 -2.5 2.5
      vertex 2.98593 -2.5 -0.794928
    endloop
  endfacet
  facet normal 0 -1 0
    outer loop
      vertex 5 -2.5 -2.5
      vertex 3.06826 -2.5 -0.985188
      vertex 3.13849 -2.5 -1.18024
    endloop
  endfacet
  facet normal 0 -1 0
    outer loop
      vertex 5 -2.5 -2.5
      vertex 3.13849 -2.5 -1.18024
      vertex 3.19632 -2.5 -1.37932
    endloop
  endfacet
  facet normal 0 -1 0
    outer loop
      vertex 5 -2.5 -2.5
      vertex 3.19632 -2.5 -1.37932
      vertex 3.24155 -2.5 -1.58164
    endloop
  endfacet
  facet normal 0 -1 0
    outer loop
      vertex 5 -2.5 -2.5
      vertex 3.24155 -2.5 -1.58164
      vertex 3.27398 -2.5 -1.7864
    endloop
  endfacet
  facet normal 0 -1 0
    outer loop
      vertex 5 -2.5 -2.5
      vertex 3.27398 -2.5 -1.7864
      vertex 3.29349 -2.5 -1.99279
    endloop
  endfacet
  facet normal 0 -1 0
    outer loop
      vertex 5 -2.5 -2.5
      vertex 3.29349 -2.5 -1.99279
      vertex 3.3 -2.5 -2.2
    endloop
  endfacet
  facet normal 0 -1 0
    outer loop
      vertex 5 -2.5 -2.5
      vertex 3.3 -2.5 -2.2
      vertex 3.29349 -2.5 -2.40721
    endloop
  endfacet
  facet normal 0 -1 0
    outer loop
      vertex 5 -2.5 -2.5
      vertex 3.29349 -2.5 -2.40721
      vertex 3.28472 -2.5 -2.5
    endloop
  endfacet
  facet normal 0 -1 0
    outer loop
      vertex 3.06826 -2.5 -0.985188
      vertex 5 -2.5 -2.5
      vertex 5 -2.5 2.5
    endloop
  endfacet
  facet normal 0 1 0
    outer loop
      vertex 5 2.5 2.5
      vertex 0 2.5 1.1
      vertex -5 2.5 2.5
    endloop
  endfacet
  facet normal 0 1 0
    outer loop
      vertex 5 2.5 2.5
      vertex 0.207209 2.5 1.09349
      vertex 0 2.5 1.1
    endloop
  endfacet
  facet normal 0 1 0
    outer loop
      vertex 5 2.5 2.5
      vertex 0.413599 2.5 1.07398
      vertex 0.207209 2.5 1.09349
    endloop
  endfacet
  facet normal 0 1 0
    outer loop
      vertex 5 2.5 2.5
      vertex 0.618358 2.5 1.04155
      vertex 0.413599 2.5 1.07398
    endloop
  endfacet
  facet normal 0 1 0
    outer loop
      vertex 5 2.5 2.5
      vertex 0.820676 2.5 0.996324
      vertex 0.618358 2.5 1.04155
    endloop
  endfacet
  facet normal 0 1 0
    outer loop
      vertex 5 2.5 2.5
      vertex 1.01976 2.5 0.938486
      vertex 0.820676 2.5 0.996324
    endloop
  endfacet
  facet normal 0 1 0
    outer loop
      vertex 5 2.5 2.5
      vertex 1.21481 2.5 0.868262
      vertex 1.01976 2.5 0.938486
    endloop
  endfacet
  facet normal 0 1 0
    outer loop
      vertex 5 2.5 2.5
      vertex 1.40507 2.5 0.785929
      vertex 1.21481 2.5 0.868262
    endloop
  endfacet
  facet normal 0 1 0
    outer loop
      vertex 5 2.5 2.5
      vertex 1.58979 2.5 0.691812
      vertex 1.40507 2.5 0.785929
    endloop
  endfacet
  facet normal 0 1 0
    outer loop
      vertex 5 2.5 2.5
      vertex 1.76823 2.5 0.586282
      vertex 1.58979 2.5 0.691812
    endloop
  endfacet
  facet normal 0 1 0
    outer loop
      vertex 5 2.5 2.5
      vertex 1.93969 2.5 0.469755
      vertex 1.76823 2.5 0.586282
    endloop
  endfacet
  facet normal 0 1 0
    outer loop
      vertex 5 2.5 2.5
      vertex 2.1035 2.5 0.342693
      vertex 1.93969 2.5 0.469755
    endloop
  endfacet
  facet normal 0 1 0
    outer loop
      vertex 5 2.5 2.5
      vertex 2.259 2.5 0.205596
      vertex 2.1035 2.5 0.342693
    endloop
  endfacet
  facet normal 0 1 0
    outer loop
      vertex 5 2.5 2.5
      vertex 2.4056 2.5 0.0590048
      vertex 2.259 2.5 0.205596
    endloop
  endfacet
  facet normal 0 1 0
    outer loop
      vertex 5 2.5 2.5
      vertex 2.54269 2.5 -0.0965004
      vertex 2.4056 2.5 0.0590048
    endloop
  endfacet
  facet normal 0 1 0
    outer loop
      vertex 5 2.5 2.5
      vertex 2.66976 2.5 -0.260308
      vertex 2.54269 2.5 -0.0965004
    endloop
  endfacet
  facet normal 0 1 0
    outer loop
      vertex 5 2.5 2.5
      vertex 2.78628 2.5 -0.431771
      vertex 2.66976 2.5 -0.260308
    endloop
  endfacet
  facet normal 0 1 0
    outer loop
      vertex 5 2.5 2.5
      vertex 2.89181 2.5 -0.610212
      vertex 2.78628 2.5 -0.431771
    endloop
  endfacet
  facet normal 0 1 0
    outer loop
      vertex 5 2.5 2.5
      vertex 2.98593 2.5 -0.794928
      vertex 2.89181 2.5 -0.610212
    endloop
  endfacet
  facet normal 0 1 0
    outer loop
      vertex 5 2.5 2.5
      vertex 3.06826 2.5 -0.985188
      vertex 2.98593 2.5 -0.794928
    endloop
  endfacet
  facet normal 0 1 -0
    outer loop
      vertex 5 2.5 -2.5
      vertex 3.06826 2.5 -0.985188
      vertex 5 2.5 2.5
    endloop
  endfacet
  facet normal 0 1 0
    outer loop
      vertex 3.06826 2.5 -0.985188
      vertex 5 2.5 -2.5
      vertex 3.13849 2.5 -1.18024
    endloop
  endfacet
  facet normal 0 1 0
    outer loop
      vertex 3.13849 2.5 -1.18024
      vertex 5 2.5 -2.5
      vertex 3.19632 2.5 -1.37932
    endloop
  endfacet
  facet normal 0 1 0
    outer loop
      vertex 3.19632 2.5 -1.37932
      vertex 5 2.5 -2.5
      vertex 3.24155 2.5 -1.58164
    endloop
  endfacet
  facet normal 0 1 0
    outer loop
      vertex 3.24155 2.5 -1.58164
      vertex 5 2.5 -2.5
      vertex 3.27398 2.5 -1.7864
    endloop
  endfacet
  facet normal 0 1 0
    outer loop
      vertex 3.27398 2.5 -1.7864
      vertex 5 2.5 -2.5
      vertex 3.29349 2.5 -1.99279
    endloop
  endfacet
  facet normal 0 1 0
    outer loop
      vertex 3.29349 2.5 -1.99279
      vertex 5 2.5 -2.5
      vertex 3.3 2.5 -2.2
    endloop
  endfacet
  facet normal 0 1 0
    outer loop
      vertex 3.3 2.5 -2.2
      vertex 5 2.5 -2.5
      vertex 3.29349 2.5 -2.40721
    endloop
  endfacet
  facet normal 0 1 0
    outer loop
      vertex 3.29349 2.5 -2.40721
      vertex 5 2.5 -2.5
      vertex 3.28472 2.5 -2.5
    endloop
  endfacet
  facet normal 0 1 -0
    outer loop
      vertex -0.207209 2.5 1.09349
      vertex -5 2.5 2.5
      vertex 0 2.5 1.1
    endloop
  endfacet
  facet normal 0 1 -0
    outer loop
      vertex -0.413599 2.5 1.07398
      vertex -5 2.5 2.5
      vertex -0.207209 2.5 1.09349
    endloop
  endfacet
  facet normal 0 1 -0
    outer loop
      vertex -0.618358 2.5 1.04155
      vertex -5 2.5 2.5
      vertex -0.413599 2.5 1.07398
    endloop
  endfacet
  facet normal 0 1 -0
    outer loop
      vertex -0.820676 2.5 0.996324
      vertex -5 2.5 2.5
      vertex -0.618358 2.5 1.04155
    endloop
  endfacet
  facet normal 0 1 -0
    outer loop
      vertex -1.01976 2.5 0.938486
      vertex -5 2.5 2.5
      vertex -0.820676 2.5 0.996324
    endloop
  endfacet
  facet normal 0 1 -0
    outer loop
      vertex -1.21481 2.5 0.868262
      vertex -5 2.5 2.5
      vertex -1.01976 2.5 0.938486
    endloop
  endfacet
  facet normal 0 1 -0
    outer loop
      vertex -1.40507 2.5 0.785929
      vertex -5 2.5 2.5
      vertex -1.21481 2.5 0.868262
    endloop
  endfacet
  facet normal 0 1 -0
    outer loop
      vertex -1.58979 2.5 0.691812
      vertex -5 2.5 2.5
      vertex -1.40507 2.5 0.785929
    endloop
  endfacet
  facet normal 0 1 -0
    outer loop
      vertex -1.76823 2.5 0.586282
      vertex -5 2.5 2.5
      vertex -1.58979 2.5 0.691812
    endloop
  endfacet
  facet normal 0 1 -0
    outer loop
      vertex -1.93969 2.5 0.469755
      vertex -5 2.5 2.5
      vertex -1.76823 2.5 0.586282
    endloop
  endfacet
  facet normal 0 1 -0
    outer loop
      vertex -2.1035 2.5 0.342693
      vertex -5 2.5 2.5
      vertex -1.93969 2.5 0.469755
    endloop
  endfacet
  facet normal 0 1 -0
    outer loop
      vertex -2.259 2.5 0.205596
      vertex -5 2.5 2.5
      vertex -2.1035 2.5 0.342693
    endloop
  endfacet
  facet normal 0 1 -0
    outer loop
      vertex -2.4056 2.5 0.0590048
      vertex -5 2.5 2.5
      vertex -2.259 2.5 0.205596
    endloop
  endfacet
  facet normal 0 1 -0
    outer loop
      vertex -2.54269 2.5 -0.0965004
      vertex -5 2.5 2.5
      vertex -2.4056 2.5 0.0590048
    endloop
  endfacet
  facet normal 0 1 -0
    outer loop
      vertex -2.66976 2.5 -0.260308
      vertex -5 2.5 2.5
      vertex -2.54269 2.5 -0.0965004
    endloop
  endfacet
  facet normal 0 1 -0
    outer loop
      vertex -2.78628 2.5 -0.431771
      vertex -5 2.5 2.5
      vertex -2.66976 2.5 -0.260308
    endloop
  endfacet
  facet normal 0 1 -0
    outer loop
      vertex -2.89181 2.5 -0.610212
      vertex -5 2.5 2.5
      vertex -2.78628 2.5 -0.431771
    endloop
  endfacet
  facet normal 0 1 -0
    outer loop
      vertex -2.98593 2.5 -0.794928
      vertex -5 2.5 2.5
      vertex -2.89181 2.5 -0.610212
    endloop
  endfacet
  facet normal 0 1 -0
    outer loop
      vertex -3.06826 2.5 -0.985188
      vertex -5 2.5 2.5
      vertex -2.98593 2.5 -0.794928
    endloop
  endfacet
  facet normal 0 1 0
    outer loop
      vertex -5 2.5 -2.5
      vertex -3.06826 2.5 -0.985188
      vertex -3.13849 2.5 -1.18024
    endloop
  endfacet
  facet normal 0 1 0
    outer loop
      vertex -5 2.5 -2.5
      vertex -3.13849 2.5 -1.18024
      vertex -3.19632 2.5 -1.37932
    endloop
  endfacet
  facet normal 0 1 0
    outer loop
      vertex -5 2.5 -2.5
      vertex -3.19632 2.5 -1.37932
      vertex -3.24155 2.5 -1.58164
    endloop
  endfacet
  facet normal 0 1 0
    outer loop
      vertex -5 2.5 -2.5
      vertex -3.24155 2.5 -1.58164
      vertex -3.27398 2.5 -1.7864
    endloop
  endfacet
  facet normal 0 1 0
    outer loop
      vertex -5 2.5 -2.5
      vertex -3.27398 2.5 -1.7864
      vertex -3.29349 2.5 -1.99279
    endloop
  endfacet
  facet normal 0 1 0
    outer loop
      vertex -5 2.5 -2.5
      vertex -3.29349 2.5 -1.99279
      vertex -3.3 2.5 -2.2
    endloop
  endfacet
  facet normal 0 1 0
    outer loop
      vertex -5 2.5 -2.5
      vertex -3.3 2.5 -2.2
      vertex -3.29349 2.5 -2.40721
    endloop
  endfacet
  facet normal 0 1 0
    outer loop
      vertex -5 2.5 -2.5
      vertex -3.29349 2.5 -2.40721
      vertex -3.28472 2.5 -2.5
    endloop
  endfacet
  facet normal 0 1 0
    outer loop
      vertex -3.06826 2.5 -0.985188
      vertex -5 2.5 -2.5
      vertex -5 2.5 2.5
    endloop
  endfacet
  facet normal -0.999507 0 -0.0314019
    outer loop
      vertex 3.3 -2.5 -2.2
      vertex 3.29349 2.5 -1.99279
      vertex 3.3 2.5 -2.2
    endloop
  endfacet
  facet normal -0.999507 -0 -0.0314019
    outer loop
      vertex 3.29349 2.5 -1.99279
      vertex 3.3 -2.5 -2.2
      vertex 3.29349 -2.5 -1.99279
    endloop
  endfacet
  facet normal -0.995562 0 -0.0941102
    outer loop
      vertex 3.29349 -2.5 -1.99279
      vertex 3.27398 2.5 -1.7864
      vertex 3.29349 2.5 -1.99279
    endloop
  endfacet
  facet normal -0.995562 -0 -0.0941102
    outer loop
      vertex 3.27398 2.5 -1.7864
      vertex 3.29349 -2.5 -1.99279
      vertex 3.27398 -2.5 -1.7864
    endloop
  endfacet
  facet normal 0.999507 0 -0.0314019
    outer loop
      vertex -3.29349 -2.5 -1.99279
      vertex -3.3 2.5 -2.2
      vertex -3.29349 2.5 -1.99279
    endloop
  endfacet
  facet normal 0.999507 0 -0.0314019
    outer loop
      vertex -3.3 2.5 -2.2
      vertex -3.29349 -2.5 -1.99279
      vertex -3.3 -2.5 -2.2
    endloop
  endfacet
  facet normal 0.0314021 0 -0.999507
    outer loop
      vertex -0.207209 -2.5 1.09349
      vertex 0 2.5 1.1
      vertex 0 -2.5 1.1
    endloop
  endfacet
  facet normal 0.0314021 0 -0.999507
    outer loop
      vertex 0 2.5 1.1
      vertex -0.207209 -2.5 1.09349
      vertex -0.207209 2.5 1.09349
    endloop
  endfacet
  facet normal -0.661326 0 -0.750098
    outer loop
      vertex 2.1035 -2.5 0.342693
      vertex 2.259 2.5 0.205596
      vertex 2.259 -2.5 0.205596
    endloop
  endfacet
  facet normal -0.661326 0 -0.750098
    outer loop
      vertex 2.259 2.5 0.205596
      vertex 2.1035 -2.5 0.342693
      vertex 2.1035 2.5 0.342693
    endloop
  endfacet
  facet normal 0.707086 0 -0.707128
    outer loop
      vertex -2.259 -2.5 0.205596
      vertex -2.4056 2.5 0.0590048
      vertex -2.259 2.5 0.205596
    endloop
  endfacet
  facet normal 0.707086 0 -0.707128
    outer loop
      vertex -2.4056 2.5 0.0590048
      vertex -2.259 -2.5 0.205596
      vertex -2.4056 -2.5 0.0590048
    endloop
  endfacet
  facet normal 0.397148 0 -0.917754
    outer loop
      vertex -1.40507 -2.5 0.785929
      vertex -1.21481 2.5 0.868262
      vertex -1.21481 -2.5 0.868262
    endloop
  endfacet
  facet normal 0.397148 0 -0.917754
    outer loop
      vertex -1.21481 2.5 0.868262
      vertex -1.40507 -2.5 0.785929
      vertex -1.40507 2.5 0.785929
    endloop
  endfacet
  facet normal -0.91776 0 -0.397136
    outer loop
      vertex 3.06826 -2.5 -0.985188
      vertex 2.98593 2.5 -0.794928
      vertex 3.06826 2.5 -0.985188
    endloop
  endfacet
  facet normal -0.91776 -0 -0.397136
    outer loop
      vertex 2.98593 2.5 -0.794928
      vertex 3.06826 -2.5 -0.985188
      vertex 2.98593 -2.5 -0.794928
    endloop
  endfacet
  facet normal -0.338745 0 -0.940878
    outer loop
      vertex 1.01976 -2.5 0.938486
      vertex 1.21481 2.5 0.868262
      vertex 1.21481 -2.5 0.868262
    endloop
  endfacet
  facet normal -0.338745 0 -0.940878
    outer loop
      vertex 1.21481 2.5 0.868262
      vertex 1.01976 -2.5 0.938486
      vertex 1.01976 2.5 0.938486
    endloop
  endfacet
  facet normal 0.827094 0 -0.562063
    outer loop
      vertex -2.66976 -2.5 -0.260308
      vertex -2.78628 2.5 -0.431771
      vertex -2.66976 2.5 -0.260308
    endloop
  endfacet
  facet normal 0.827094 0 -0.562063
    outer loop
      vertex -2.78628 2.5 -0.431771
      vertex -2.66976 -2.5 -0.260308
      vertex -2.78628 -2.5 -0.431771
    endloop
  endfacet
  facet normal 0.218155 0 -0.975914
    outer loop
      vertex -0.820676 -2.5 0.996324
      vertex -0.618358 2.5 1.04155
      vertex -0.618358 -2.5 1.04155
    endloop
  endfacet
  facet normal 0.218155 0 -0.975914
    outer loop
      vertex -0.618358 2.5 1.04155
      vertex -0.820676 -2.5 0.996324
      vertex -0.820676 2.5 0.996324
    endloop
  endfacet
  facet normal -0.891002 0 -0.454
    outer loop
      vertex 2.98593 -2.5 -0.794928
      vertex 2.89181 2.5 -0.610212
      vertex 2.98593 2.5 -0.794928
    endloop
  endfacet
  facet normal -0.891002 -0 -0.454
    outer loop
      vertex 2.89181 2.5 -0.610212
      vertex 2.98593 -2.5 -0.794928
      vertex 2.89181 -2.5 -0.610212
    endloop
  endfacet
  facet normal -0.750126 0 -0.661295
    outer loop
      vertex 2.54269 -2.5 -0.0965004
      vertex 2.4056 2.5 0.0590048
      vertex 2.54269 2.5 -0.0965004
    endloop
  endfacet
  facet normal -0.750126 -0 -0.661295
    outer loop
      vertex 2.4056 2.5 0.0590048
      vertex 2.54269 -2.5 -0.0965004
      vertex 2.4056 -2.5 0.0590048
    endloop
  endfacet
  facet normal -0.156431 0 -0.987689
    outer loop
      vertex 0.413599 -2.5 1.07398
      vertex 0.618358 2.5 1.04155
      vertex 0.618358 -2.5 1.04155
    endloop
  endfacet
  facet normal -0.156431 0 -0.987689
    outer loop
      vertex 0.618358 2.5 1.04155
      vertex 0.413599 -2.5 1.07398
      vertex 0.413599 2.5 1.07398
    endloop
  endfacet
  facet normal -0.0941102 0 -0.995562
    outer loop
      vertex 0.207209 -2.5 1.09349
      vertex 0.413599 2.5 1.07398
      vertex 0.413599 -2.5 1.07398
    endloop
  endfacet
  facet normal -0.0941102 0 -0.995562
    outer loop
      vertex 0.413599 2.5 1.07398
      vertex 0.207209 -2.5 1.09349
      vertex 0.207209 2.5 1.09349
    endloop
  endfacet
  facet normal -0.509045 0 -0.86074
    outer loop
      vertex 1.58979 -2.5 0.691812
      vertex 1.76823 2.5 0.586282
      vertex 1.76823 -2.5 0.586282
    endloop
  endfacet
  facet normal -0.509045 0 -0.86074
    outer loop
      vertex 1.76823 2.5 0.586282
      vertex 1.58979 -2.5 0.691812
      vertex 1.58979 2.5 0.691812
    endloop
  endfacet
  facet normal -0.397148 0 -0.917754
    outer loop
      vertex 1.21481 -2.5 0.868262
      vertex 1.40507 2.5 0.785929
      vertex 1.40507 -2.5 0.785929
    endloop
  endfacet
  facet normal -0.397148 0 -0.917754
    outer loop
      vertex 1.40507 2.5 0.785929
      vertex 1.21481 -2.5 0.868262
      vertex 1.21481 2.5 0.868262
    endloop
  endfacet
  facet normal 0.97591 0 -0.218171
    outer loop
      vertex -3.19632 -2.5 -1.37932
      vertex -3.24155 2.5 -1.58164
      vertex -3.19632 2.5 -1.37932
    endloop
  endfacet
  facet normal 0.97591 0 -0.218171
    outer loop
      vertex -3.24155 2.5 -1.58164
      vertex -3.19632 -2.5 -1.37932
      vertex -3.24155 -2.5 -1.58164
    endloop
  endfacet
  facet normal 0.860741 0 -0.509042
    outer loop
      vertex -2.78628 -2.5 -0.431771
      vertex -2.89181 2.5 -0.610212
      vertex -2.78628 2.5 -0.431771
    endloop
  endfacet
  facet normal 0.860741 0 -0.509042
    outer loop
      vertex -2.89181 2.5 -0.610212
      vertex -2.78628 -2.5 -0.431771
      vertex -2.89181 -2.5 -0.610212
    endloop
  endfacet
  facet normal 0.562093 0 -0.827074
    outer loop
      vertex -1.93969 -2.5 0.469755
      vertex -1.76823 2.5 0.586282
      vertex -1.76823 -2.5 0.586282
    endloop
  endfacet
  facet normal 0.562093 0 -0.827074
    outer loop
      vertex -1.76823 2.5 0.586282
      vertex -1.93969 -2.5 0.469755
      vertex -1.93969 2.5 0.469755
    endloop
  endfacet
  facet normal 0.156431 0 -0.987689
    outer loop
      vertex -0.618358 -2.5 1.04155
      vertex -0.413599 2.5 1.07398
      vertex -0.413599 -2.5 1.07398
    endloop
  endfacet
  facet normal 0.156431 0 -0.987689
    outer loop
      vertex -0.413599 2.5 1.07398
      vertex -0.618358 -2.5 1.04155
      vertex -0.618358 2.5 1.04155
    endloop
  endfacet
  facet normal -0.97591 0 -0.218171
    outer loop
      vertex 3.24155 -2.5 -1.58164
      vertex 3.19632 2.5 -1.37932
      vertex 3.24155 2.5 -1.58164
    endloop
  endfacet
  facet normal -0.97591 -0 -0.218171
    outer loop
      vertex 3.19632 2.5 -1.37932
      vertex 3.24155 -2.5 -1.58164
      vertex 3.19632 -2.5 -1.37932
    endloop
  endfacet
  facet normal -0.94087 0 -0.338768
    outer loop
      vertex 3.13849 -2.5 -1.18024
      vertex 3.06826 2.5 -0.985188
      vertex 3.13849 2.5 -1.18024
    endloop
  endfacet
  facet normal -0.94087 -0 -0.338768
    outer loop
      vertex 3.06826 2.5 -0.985188
      vertex 3.13849 -2.5 -1.18024
      vertex 3.06826 -2.5 -0.985188
    endloop
  endfacet
  facet normal -0.960304 0 -0.278955
    outer loop
      vertex 3.19632 -2.5 -1.37932
      vertex 3.13849 2.5 -1.18024
      vertex 3.19632 2.5 -1.37932
    endloop
  endfacet
  facet normal -0.960304 -0 -0.278955
    outer loop
      vertex 3.13849 2.5 -1.18024
      vertex 3.19632 -2.5 -1.37932
      vertex 3.13849 -2.5 -1.18024
    endloop
  endfacet
  facet normal -0.790137 0 -0.612931
    outer loop
      vertex 2.66976 -2.5 -0.260308
      vertex 2.54269 2.5 -0.0965004
      vertex 2.66976 2.5 -0.260308
    endloop
  endfacet
  facet normal -0.790137 -0 -0.612931
    outer loop
      vertex 2.54269 2.5 -0.0965004
      vertex 2.66976 -2.5 -0.260308
      vertex 2.54269 -2.5 -0.0965004
    endloop
  endfacet
  facet normal -0.218155 0 -0.975914
    outer loop
      vertex 0.618358 -2.5 1.04155
      vertex 0.820676 2.5 0.996324
      vertex 0.820676 -2.5 0.996324
    endloop
  endfacet
  facet normal -0.218155 0 -0.975914
    outer loop
      vertex 0.820676 2.5 0.996324
      vertex 0.618358 -2.5 1.04155
      vertex 0.618358 2.5 1.04155
    endloop
  endfacet
  facet normal -0.0314021 0 -0.999507
    outer loop
      vertex 0 -2.5 1.1
      vertex 0.207209 2.5 1.09349
      vertex 0.207209 -2.5 1.09349
    endloop
  endfacet
  facet normal -0.0314021 0 -0.999507
    outer loop
      vertex 0.207209 2.5 1.09349
      vertex 0 -2.5 1.1
      vertex 0 2.5 1.1
    endloop
  endfacet
  facet normal -0.453981 0 -0.891011
    outer loop
      vertex 1.40507 -2.5 0.785929
      vertex 1.58979 2.5 0.691812
      vertex 1.58979 -2.5 0.691812
    endloop
  endfacet
  facet normal -0.453981 0 -0.891011
    outer loop
      vertex 1.58979 2.5 0.691812
      vertex 1.40507 -2.5 0.785929
      vertex 1.40507 2.5 0.785929
    endloop
  endfacet
  facet normal 0.987689 0 -0.156431
    outer loop
      vertex -3.24155 -2.5 -1.58164
      vertex -3.27398 2.5 -1.7864
      vertex -3.24155 2.5 -1.58164
    endloop
  endfacet
  facet normal 0.987689 0 -0.156431
    outer loop
      vertex -3.27398 2.5 -1.7864
      vertex -3.24155 -2.5 -1.58164
      vertex -3.27398 -2.5 -1.7864
    endloop
  endfacet
  facet normal 0.790137 0 -0.612931
    outer loop
      vertex -2.54269 -2.5 -0.0965004
      vertex -2.66976 2.5 -0.260308
      vertex -2.54269 2.5 -0.0965004
    endloop
  endfacet
  facet normal 0.790137 0 -0.612931
    outer loop
      vertex -2.66976 2.5 -0.260308
      vertex -2.54269 -2.5 -0.0965004
      vertex -2.66976 -2.5 -0.260308
    endloop
  endfacet
  facet normal 0.91776 0 -0.397136
    outer loop
      vertex -2.98593 -2.5 -0.794928
      vertex -3.06826 2.5 -0.985188
      vertex -2.98593 2.5 -0.794928
    endloop
  endfacet
  facet normal 0.91776 0 -0.397136
    outer loop
      vertex -3.06826 2.5 -0.985188
      vertex -2.98593 -2.5 -0.794928
      vertex -3.06826 -2.5 -0.985188
    endloop
  endfacet
  facet normal 0.960304 0 -0.278955
    outer loop
      vertex -3.13849 -2.5 -1.18024
      vertex -3.19632 2.5 -1.37932
      vertex -3.13849 2.5 -1.18024
    endloop
  endfacet
  facet normal 0.960304 0 -0.278955
    outer loop
      vertex -3.19632 2.5 -1.37932
      vertex -3.13849 -2.5 -1.18024
      vertex -3.19632 -2.5 -1.37932
    endloop
  endfacet
  facet normal 0.612901 0 -0.79016
    outer loop
      vertex -2.1035 -2.5 0.342693
      vertex -1.93969 2.5 0.469755
      vertex -1.93969 -2.5 0.469755
    endloop
  endfacet
  facet normal 0.612901 0 -0.79016
    outer loop
      vertex -1.93969 2.5 0.469755
      vertex -2.1035 -2.5 0.342693
      vertex -2.1035 2.5 0.342693
    endloop
  endfacet
  facet normal 0.509045 0 -0.86074
    outer loop
      vertex -1.76823 -2.5 0.586282
      vertex -1.58979 2.5 0.691812
      vertex -1.58979 -2.5 0.691812
    endloop
  endfacet
  facet normal 0.509045 0 -0.86074
    outer loop
      vertex -1.58979 2.5 0.691812
      vertex -1.76823 -2.5 0.586282
      vertex -1.76823 2.5 0.586282
    endloop
  endfacet
  facet normal 0.278986 0 -0.960295
    outer loop
      vertex -1.01976 -2.5 0.938486
      vertex -0.820676 2.5 0.996324
      vertex -0.820676 -2.5 0.996324
    endloop
  endfacet
  facet normal 0.278986 0 -0.960295
    outer loop
      vertex -0.820676 2.5 0.996324
      vertex -1.01976 -2.5 0.938486
      vertex -1.01976 2.5 0.938486
    endloop
  endfacet
  facet normal 0.338745 0 -0.940878
    outer loop
      vertex -1.21481 -2.5 0.868262
      vertex -1.01976 2.5 0.938486
      vertex -1.01976 -2.5 0.938486
    endloop
  endfacet
  facet normal 0.338745 0 -0.940878
    outer loop
      vertex -1.01976 2.5 0.938486
      vertex -1.21481 -2.5 0.868262
      vertex -1.21481 2.5 0.868262
    endloop
  endfacet
  facet normal 0.0941102 0 -0.995562
    outer loop
      vertex -0.413599 -2.5 1.07398
      vertex -0.207209 2.5 1.09349
      vertex -0.207209 -2.5 1.09349
    endloop
  endfacet
  facet normal 0.0941102 0 -0.995562
    outer loop
      vertex -0.207209 2.5 1.09349
      vertex -0.413599 -2.5 1.07398
      vertex -0.413599 2.5 1.07398
    endloop
  endfacet
  facet normal 0.999507 -0 0.0314019
    outer loop
      vertex -3.3 -2.5 -2.2
      vertex -3.29349 2.5 -2.40721
      vertex -3.3 2.5 -2.2
    endloop
  endfacet
  facet normal 0.999507 0 0.0314019
    outer loop
      vertex -3.29349 2.5 -2.40721
      vertex -3.3 -2.5 -2.2
      vertex -3.29349 -2.5 -2.40721
    endloop
  endfacet
  facet normal -0.987689 0 -0.156431
    outer loop
      vertex 3.27398 -2.5 -1.7864
      vertex 3.24155 2.5 -1.58164
      vertex 3.27398 2.5 -1.7864
    endloop
  endfacet
  facet normal -0.987689 -0 -0.156431
    outer loop
      vertex 3.24155 2.5 -1.58164
      vertex 3.27398 -2.5 -1.7864
      vertex 3.24155 -2.5 -1.58164
    endloop
  endfacet
  facet normal -0.707086 0 -0.707128
    outer loop
      vertex 2.4056 -2.5 0.0590048
      vertex 2.259 2.5 0.205596
      vertex 2.4056 2.5 0.0590048
    endloop
  endfacet
  facet normal -0.707086 -0 -0.707128
    outer loop
      vertex 2.259 2.5 0.205596
      vertex 2.4056 -2.5 0.0590048
      vertex 2.259 -2.5 0.205596
    endloop
  endfacet
  facet normal -0.860741 0 -0.509042
    outer loop
      vertex 2.89181 -2.5 -0.610212
      vertex 2.78628 2.5 -0.431771
      vertex 2.89181 2.5 -0.610212
    endloop
  endfacet
  facet normal -0.860741 -0 -0.509042
    outer loop
      vertex 2.78628 2.5 -0.431771
      vertex 2.89181 -2.5 -0.610212
      vertex 2.78628 -2.5 -0.431771
    endloop
  endfacet
  facet normal -0.827094 0 -0.562063
    outer loop
      vertex 2.78628 -2.5 -0.431771
      vertex 2.66976 2.5 -0.260308
      vertex 2.78628 2.5 -0.431771
    endloop
  endfacet
  facet normal -0.827094 -0 -0.562063
    outer loop
      vertex 2.66976 2.5 -0.260308
      vertex 2.78628 -2.5 -0.431771
      vertex 2.66976 -2.5 -0.260308
    endloop
  endfacet
  facet normal -0.278986 0 -0.960295
    outer loop
      vertex 0.820676 -2.5 0.996324
      vertex 1.01976 2.5 0.938486
      vertex 1.01976 -2.5 0.938486
    endloop
  endfacet
  facet normal -0.278986 0 -0.960295
    outer loop
      vertex 1.01976 2.5 0.938486
      vertex 0.820676 -2.5 0.996324
      vertex 0.820676 2.5 0.996324
    endloop
  endfacet
  facet normal -0.612901 0 -0.79016
    outer loop
      vertex 1.93969 -2.5 0.469755
      vertex 2.1035 2.5 0.342693
      vertex 2.1035 -2.5 0.342693
    endloop
  endfacet
  facet normal -0.612901 0 -0.79016
    outer loop
      vertex 2.1035 2.5 0.342693
      vertex 1.93969 -2.5 0.469755
      vertex 1.93969 2.5 0.469755
    endloop
  endfacet
  facet normal -0.562093 0 -0.827074
    outer loop
      vertex 1.76823 -2.5 0.586282
      vertex 1.93969 2.5 0.469755
      vertex 1.93969 -2.5 0.469755
    endloop
  endfacet
  facet normal -0.562093 0 -0.827074
    outer loop
      vertex 1.93969 2.5 0.469755
      vertex 1.76823 -2.5 0.586282
      vertex 1.76823 2.5 0.586282
    endloop
  endfacet
  facet normal 0.750126 0 -0.661295
    outer loop
      vertex -2.4056 -2.5 0.0590048
      vertex -2.54269 2.5 -0.0965004
      vertex -2.4056 2.5 0.0590048
    endloop
  endfacet
  facet normal 0.750126 0 -0.661295
    outer loop
      vertex -2.54269 2.5 -0.0965004
      vertex -2.4056 -2.5 0.0590048
      vertex -2.54269 -2.5 -0.0965004
    endloop
  endfacet
  facet normal 0.891002 0 -0.454
    outer loop
      vertex -2.89181 -2.5 -0.610212
      vertex -2.98593 2.5 -0.794928
      vertex -2.89181 2.5 -0.610212
    endloop
  endfacet
  facet normal 0.891002 0 -0.454
    outer loop
      vertex -2.98593 2.5 -0.794928
      vertex -2.89181 -2.5 -0.610212
      vertex -2.98593 -2.5 -0.794928
    endloop
  endfacet
  facet normal 0.94087 0 -0.338768
    outer loop
      vertex -3.06826 -2.5 -0.985188
      vertex -3.13849 2.5 -1.18024
      vertex -3.06826 2.5 -0.985188
    endloop
  endfacet
  facet normal 0.94087 0 -0.338768
    outer loop
      vertex -3.13849 2.5 -1.18024
      vertex -3.06826 -2.5 -0.985188
      vertex -3.13849 -2.5 -1.18024
    endloop
  endfacet
  facet normal 0.995562 0 -0.0941102
    outer loop
      vertex -3.27398 -2.5 -1.7864
      vertex -3.29349 2.5 -1.99279
      vertex -3.27398 2.5 -1.7864
    endloop
  endfacet
  facet normal 0.995562 0 -0.0941102
    outer loop
      vertex -3.29349 2.5 -1.99279
      vertex -3.27398 -2.5 -1.7864
      vertex -3.29349 -2.5 -1.99279
    endloop
  endfacet
  facet normal 0.661326 0 -0.750098
    outer loop
      vertex -2.259 -2.5 0.205596
      vertex -2.1035 2.5 0.342693
      vertex -2.1035 -2.5 0.342693
    endloop
  endfacet
  facet normal 0.661326 0 -0.750098
    outer loop
      vertex -2.1035 2.5 0.342693
      vertex -2.259 -2.5 0.205596
      vertex -2.259 2.5 0.205596
    endloop
  endfacet
  facet normal 0.453981 0 -0.891011
    outer loop
      vertex -1.58979 -2.5 0.691812
      vertex -1.40507 2.5 0.785929
      vertex -1.40507 -2.5 0.785929
    endloop
  endfacet
  facet normal 0.453981 0 -0.891011
    outer loop
      vertex -1.40507 2.5 0.785929
      vertex -1.58979 -2.5 0.691812
      vertex -1.58979 2.5 0.691812
    endloop
  endfacet
  facet normal 0.995563 -0 0.0940952
    outer loop
      vertex -3.29349 -2.5 -2.40721
      vertex -3.28472 2.5 -2.5
      vertex -3.29349 2.5 -2.40721
    endloop
  endfacet
  facet normal 0.995563 0 0.0940952
    outer loop
      vertex -3.28472 2.5 -2.5
      vertex -3.29349 -2.5 -2.40721
      vertex -3.28472 -2.5 -2.5
    endloop
  endfacet
  facet normal -0.995563 0 0.0940952
    outer loop
      vertex 3.28472 -2.5 -2.5
      vertex 3.29349 2.5 -2.40721
      vertex 3.28472 2.5 -2.5
    endloop
  endfacet
  facet normal -0.995563 0 0.0940952
    outer loop
      vertex 3.29349 2.5 -2.40721
      vertex 3.28472 -2.5 -2.5
      vertex 3.29349 -2.5 -2.40721
    endloop
  endfacet
  facet normal -0.999507 0 0.0314019
    outer loop
      vertex 3.29349 -2.5 -2.40721
      vertex 3.3 2.5 -2.2
      vertex 3.29349 2.5 -2.40721
    endloop
  endfacet
  facet normal -0.999507 0 0.0314019
    outer loop
      vertex 3.3 2.5 -2.2
      vertex 3.29349 -2.5 -2.40721
      vertex 3.3 -2.5 -2.2
    endloop
  endfacet
endsolid OpenSCAD_Model
