solid OpenSCAD_Model
  facet normal -1 0 0
    outer loop
      vertex -5 -2.5 -2.5
      vertex -5 2.5 2.5
      vertex -5 2.5 -2.5
    endloop
  endfacet
  facet normal -1 -0 0
    outer loop
      vertex -5 2.5 2.5
      vertex -5 -2.5 -2.5
      vertex -5 -2.5 2.5
    endloop
  endfacet
  facet normal -0 0 1
    outer loop
      vertex -5 2.5 2.5
      vertex 5 -2.5 2.5
      vertex 5 2.5 2.5
    endloop
  endfacet
  facet normal 0 0 1
    outer loop
      vertex 5 -2.5 2.5
      vertex -5 2.5 2.5
      vertex -5 -2.5 2.5
    endloop
  endfacet
  facet normal 1 -0 0
    outer loop
      vertex 5 -2.5 2.5
      vertex 5 2.5 -2.5
      vertex 5 2.5 2.5
    endloop
  endfacet
  facet normal 1 0 0
    outer loop
      vertex 5 2.5 -2.5
      vertex 5 -2.5 2.5
      vertex 5 -2.5 -2.5
    endloop
  endfacet
  facet normal 0 0 -1
    outer loop
      vertex -5 -2.5 -2.5
      vertex -3.48551 2.5 -2.5
      vertex -3.48551 -2.5 -2.5
    endloop
  endfacet
  facet normal -0 0 -1
    outer loop
      vertex -3.48551 2.5 -2.5
      vertex -5 -2.5 -2.5
      vertex -5 2.5 -2.5
    endloop
  endfacet
  facet normal 0 0 -1
    outer loop
      vertex 3.48551 -2.5 -2.5
      vertex 5 2.5 -2.5
      vertex 5 -2.5 -2.5
    endloop
  endfacet
  facet normal -0 0 -1
    outer loop
      vertex 5 2.5 -2.5
      vertex 3.48551 -2.5 -2.5
      vertex 3.48551 2.5 -2.5
    endloop
  endfacet
  facet normal 0 -1 0
    outer loop
      vertex -5 -2.5 2.5
      vertex 0 -2.5 1.3
      vertex 5 -2.5 2.5
    endloop
  endfacet
  facet normal 0 -1 0
    outer loop
      vertex -5 -2.5 2.5
      vertex -0.219767 -2.5 1.29309
      vertex 0 -2.5 1.3
    endloop
  endfacet
  facet normal 0 -1 0
    outer loop
      vertex -5 -2.5 2.5
      vertex -0.438665 -2.5 1.2724
      vertex -0.219767 -2.5 1.29309
    endloop
  endfacet
  facet normal 0 -1 0
    outer loop
      vertex -5 -2.5 2.5
      vertex -0.655834 -2.5 1.238
      vertex -0.438665 -2.5 1.2724
    endloop
  endfacet
  facet normal 0 -1 0
    outer loop
      vertex -5 -2.5 2.5
      vertex -0.870414 -2.5 1.19004
      vertex -0.655834 -2.5 1.238
    endloop
  endfacet
  facet normal 0 -1 0
    outer loop
      vertex -5 -2.5 2.5
      vertex -1.08156 -2.5 1.1287
      vertex -0.870414 -2.5 1.19004
    endloop
  endfacet
  facet normal 0 -1 0
    outer loop
      vertex -5 -2.5 2.5
      vertex -1.28843 -2.5 1.05422
      vertex -1.08156 -2.5 1.1287
    endloop
  endfacet
  facet normal 0 -1 0
    outer loop
      vertex -5 -2.5 2.5
      vertex -1.49023 -2.5 0.966894
      vertex -1.28843 -2.5 1.05422
    endloop
  endfacet
  facet normal 0 -1 0
    outer loop
      vertex -5 -2.5 2.5
      vertex -1.68614 -2.5 0.867073
      vertex -1.49023 -2.5 0.966894
    endloop
  endfacet
  facet normal 0 -1 0
    outer loop
      vertex -5 -2.5 2.5
      vertex -1.87539 -2.5 0.755147
      vertex -1.68614 -2.5 0.867073
    endloop
  endfacet
  facet normal 0 -1 0
    outer loop
      vertex -5 -2.5 2.5
      vertex -2.05725 -2.5 0.631559
      vertex -1.87539 -2.5 0.755147
    endloop
  endfacet
  facet normal 0 -1 0
    outer loop
      vertex -5 -2.5 2.5
      vertex -2.23098 -2.5 0.496796
      vertex -2.05725 -2.5 0.631559
    endloop
  endfacet
  facet normal 0 -1 0
    outer loop
      vertex -5 -2.5 2.5
      vertex -2.39591 -2.5 0.35139
      vertex -2.23098 -2.5 0.496796
    endloop
  endfacet
  facet normal 0 -1 0
    outer loop
      vertex -5 -2.5 2.5
      vertex -2.55139 -2.5 0.195914
      vertex -2.39591 -2.5 0.35139
    endloop
  endfacet
  facet normal 0 -1 0
    outer loop
      vertex -5 -2.5 2.5
      vertex -2.6968 -2.5 0.0309839
      vertex -2.55139 -2.5 0.195914
    endloop
  endfacet
  facet normal 0 -1 0
    outer loop
      vertex -5 -2.5 2.5
      vertex -2.83156 -2.5 -0.142751
      vertex -2.6968 -2.5 0.0309839
    endloop
  endfacet
  facet normal 0 -1 0
    outer loop
      vertex -5 -2.5 2.5
      vertex -2.95515 -2.5 -0.324606
      vertex -2.83156 -2.5 -0.142751
    endloop
  endfacet
  facet normal 0 -1 0
    outer loop
      vertex -5 -2.5 2.5
      vertex -3.06707 -2.5 -0.513862
      vertex -2.95515 -2.5 -0.324606
    endloop
  endfacet
  facet normal 0 -1 0
    outer loop
      vertex -5 -2.5 2.5
      vertex -3.16689 -2.5 -0.709772
      vertex -3.06707 -2.5 -0.513862
    endloop
  endfacet
  facet normal 0 -1 0
    outer loop
      vertex -5 -2.5 2.5
      vertex -3.25422 -2.5 -0.911564
      vertex -3.16689 -2.5 -0.709772
    endloop
  endfacet
  facet normal 0 -1 0
    outer loop
      vertex -5 -2.5 -2.5
      vertex -3.25422 -2.5 -0.911564
      vertex -5 -2.5 2.5
    endloop
  endfacet
  facet normal 0 -1 0
    outer loop
      vertex -3.25422 -2.5 -0.911564
      vertex -5 -2.5 -2.5
      vertex -3.3287 -2.5 -1.11844
    endloop
  endfacet
  facet normal 0 -1 0
    outer loop
      vertex -3.3287 -2.5 -1.11844
      vertex -5 -2.5 -2.5
      vertex -3.39004 -2.5 -1.32959
    endloop
  endfacet
  facet normal 0 -1 0
    outer loop
      vertex -3.39004 -2.5 -1.32959
      vertex -5 -2.5 -2.5
      vertex -3.438 -2.5 -1.54416
    endloop
  endfacet
  facet normal 0 -1 0
    outer loop
      vertex -3.438 -2.5 -1.54416
      vertex -5 -2.5 -2.5
      vertex -3.4724 -2.5 -1.76133
    endloop
  endfacet
  facet normal 0 -1 0
    outer loop
      vertex -3.4724 -2.5 -1.76133
      vertex -5 -2.5 -2.5
      vertex -3.49309 -2.5 -1.98023
    endloop
  endfacet
  facet normal 0 -1 0
    outer loop
      vertex -3.49309 -2.5 -1.98023
      vertex -5 -2.5 -2.5
      vertex -3.5 -2.5 -2.2
    endloop
  endfacet
  facet normal 0 -1 -0
    outer loop
      vertex -3.5 -2.5 -2.2
      vertex -5 -2.5 -2.5
      vertex -3.49309 -2.5 -2.41977
    endloop
  endfacet
  facet normal 0 -1 -0
    outer loop
      vertex -3.49309 -2.5 -2.41977
      vertex -5 -2.5 -2.5
      vertex -3.48551 -2.5 -2.5
    endloop
  endfacet
  facet normal 0 -1 0
    outer loop
      vertex 0.219767 -2.5 1.29309
      vertex 5 -2.5 2.5
      vertex 0 -2.5 1.3
    endloop
  endfacet
  facet normal 0 -1 0
    outer loop
      vertex 0.438665 -2.5 1.2724
      vertex 5 -2.5 2.5
      vertex 0.219767 -2.5 1.29309
    endloop
  endfacet
  facet normal 0 -1 0
    outer loop
      vertex 0.655834 -2.5 1.238
      vertex 5 -2.5 2.5
      vertex 0.438665 -2.5 1.2724
    endloop
  endfacet
  facet normal 0 -1 0
    outer loop
      vertex 0.870414 -2.5 1.19004
      vertex 5 -2.5 2.5
      vertex 0.655834 -2.5 1.238
    endloop
  endfacet
  facet normal 0 -1 0
    outer loop
      vertex 1.08156 -2.5 1.1287
      vertex 5 -2.5 2.5
      vertex 0.870414 -2.5 1.19004
    endloop
  endfacet
  facet normal 0 -1 0
    outer loop
      vertex 1.28843 -2.5 1.05422
      vertex 5 -2.5 2.5
      vertex 1.08156 -2.5 1.1287
    endloop
  endfacet
  facet normal 0 -1 0
    outer loop
      vertex 1.49023 -2.5 0.966894
      vertex 5 -2.5 2.5
      vertex 1.28843 -2.5 1.05422
    endloop
  endfacet
  facet normal 0 -1 0
    outer loop
      vertex 1.68614 -2.5 0.867073
      vertex 5 -2.5 2.5
      vertex 1.49023 -2.5 0.966894
    endloop
  endfacet
  facet normal 0 -1 0
    outer loop
      vertex 1.87539 -2.5 0.755147
      vertex 5 -2.5 2.5
      vertex 1.68614 -2.5 0.867073
    endloop
  endfacet
  facet normal 0 -1 0
    outer loop
      vertex 2.05725 -2.5 0.631559
      vertex 5 -2.5 2.5
      vertex 1.87539 -2.5 0.755147
    endloop
  endfacet
  facet normal 0 -1 0
    outer loop
      vertex 2.23098 -2.5 0.496796
      vertex 5 -2.5 2.5
      vertex 2.05725 -2.5 0.631559
    endloop
  endfacet
  facet normal 0 -1 0
    outer loop
      vertex 2.39591 -2.5 0.35139
      vertex 5 -2.5 2.5
      vertex 2.23098 -2.5 0.496796
    endloop
  endfacet
  facet normal 0 -1 0
    outer loop
      vertex 2.55139 -2.5 0.195914
      vertex 5 -2.5 2.5
      vertex 2.39591 -2.5 0.35139
    endloop
  endfacet
  facet normal 0 -1 0
    outer loop
      vertex 2.6968 -2.5 0.0309839
      vertex 5 -2.5 2.5
      vertex 2.55139 -2.5 0.195914
    endloop
  endfacet
  facet normal 0 -1 0
    outer loop
      vertex 2.83156 -2.5 -0.142751
      vertex 5 -2.5 2.5
      vertex 2.6968 -2.5 0.0309839
    endloop
  endfacet
  facet normal 0 -1 0
    outer loop
      vertex 2.95515 -2.5 -0.324606
      vertex 5 -2.5 2.5
      vertex 2.83156 -2.5 -0.142751
    endloop
  endfacet
  facet normal 0 -1 0
    outer loop
      vertex 3.06707 -2.5 -0.513862
      vertex 5 -2.5 2.5
      vertex 2.95515 -2.5 -0.324606
    endloop
  endfacet
  facet normal 0 -1 0
    outer loop
      vertex 3.16689 -2.5 -0.709772
      vertex 5 -2.5 2.5
      vertex 3.06707 -2.5 -0.513862
    endloop
  endfacet
  facet normal 0 -1 0
    outer loop
      vertex 3.25422 -2.5 -0.911564
      vertex 5 -2.5 2.5
      vertex 3.16689 -2.5 -0.709772
    endloop
  endfacet
  facet normal 0 -1 0
    outer loop
      vertex 5 -2.5 -2.5
      vertex 3.25422 -2.5 -0.911564
      vertex 3.3287 -2.5 -1.11844
    endloop
  endfacet
  facet normal 0 -1 0
    outer loop
      vertex 5 -2.5 -2.5
      vertex 3.3287 -2.5 -1.11844
      vertex 3.39004 -2.5 -1.32959
    endloop
  endfacet
  facet normal 0 -1 0
    outer loop
      vertex 5 -2.5 -2.5
      vertex 3.39004 -2.5 -1.32959
      vertex 3.438 -2.5 -1.54416
    endloop
  endfacet
  facet normal 0 -1 0
    outer loop
      vertex 5 -2.5 -2.5
      vertex 3.438 -2.5 -1.54416
      vertex 3.4724 -2.5 -1.76133
    endloop
  endfacet
  facet normal 0 -1 0
    outer loop
      vertex 5 -2.5 -2.5
      vertex 3.4724 -2.5 -1.76133
      vertex 3.49309 -2.5 -1.98023
    endloop
  endfacet
  facet normal 0 -1 0
    outer loop
      vertex 5 -2.5 -2.5
      vertex 3.49309 -2.5 -1.98023
      vertex 3.5 -2.5 -2.2
    endloop
  endfacet
  facet normal 0 -1 0
    outer loop
      vertex 5 -2.5 -2.5
      vertex 3.5 -2.5 -2.2
      vertex 3.49309 -2.5 -2.41977
    endloop
  endfacet
  facet normal 0 -1 0
    outer loop
      vertex 5 -2.5 -2.5
      vertex 3.49309 -2.5 -2.41977
      vertex 3.48551 -2.5 -2.5
    endloop
  endfacet
  facet normal 0 -1 0
    outer loop
      vertex 3.25422 -2.5 -0.911564
      vertex 5 -2.5 -2.5
      vertex 5 -2.5 2.5
    endloop
  endfacet
  facet normal 0 1 0
    outer loop
      vertex 5 2.5 2.5
      vertex 0 2.5 1.3
      vertex -5 2.5 2.5
    endloop
  endfacet
  facet normal 0 1 0
    outer loop
      vertex 5 2.5 2.5
      vertex 0.219767 2.5 1.29309
      vertex 0 2.5 1.3
    endloop
  endfacet
  facet normal 0 1 0
    outer loop
      vertex 5 2.5 2.5
      vertex 0.438665 2.5 1.2724
      vertex 0.219767 2.5 1.29309
    endloop
  endfacet
  facet normal 0 1 0
    outer loop
      vertex 5 2.5 2.5
      vertex 0.655834 2.5 1.238
      vertex 0.438665 2.5 1.2724
    endloop
  endfacet
  facet normal 0 1 0
    outer loop
      vertex 5 2.5 2.5
      vertex 0.870414 2.5 1.19004
      vertex 0.655834 2.5 1.238
    endloop
  endfacet
  facet normal 0 1 0
    outer loop
      vertex 5 2.5 2.5
      vertex 1.08156 2.5 1.1287
      vertex 0.870414 2.5 1.19004
    endloop
  endfacet
  facet normal 0 1 0
    outer loop
      vertex 5 2.5 2.5
      vertex 1.28843 2.5 1.05422
      vertex 1.08156 2.5 1.1287
    endloop
  endfacet
  facet normal 0 1 0
    outer loop
      vertex 5 2.5 2.5
      vertex 1.49023 2.5 0.966894
      vertex 1.28843 2.5 1.05422
    endloop
  endfacet
  facet normal 0 1 0
    outer loop
      vertex 5 2.5 2.5
      vertex 1.68614 2.5 0.867073
      vertex 1.49023 2.5 0.966894
    endloop
  endfacet
  facet normal 0 1 0
    outer loop
      vertex 5 2.5 2.5
      vertex 1.87539 2.5 0.755147
      vertex 1.68614 2.5 0.867073
    endloop
  endfacet
  facet normal 0 1 0
    outer loop
      vertex 5 2.5 2.5
      vertex 2.05725 2.5 0.631559
      vertex 1.87539 2.5 0.755147
    endloop
  endfacet
  facet normal 0 1 0
    outer loop
      vertex 5 2.5 2.5
      vertex 2.23098 2.5 0.496796
      vertex 2.05725 2.5 0.631559
    endloop
  endfacet
  facet normal 0 1 0
    outer loop
      vertex 5 2.5 2.5
      vertex 2.39591 2.5 0.35139
      vertex 2.23098 2.5 0.496796
    endloop
  endfacet
  facet normal 0 1 0
    outer loop
      vertex 5 2.5 2.5
      vertex 2.55139 2.5 0.195914
      vertex 2.39591 2.5 0.35139
    endloop
  endfacet
  facet normal 0 1 0
    outer loop
      vertex 5 2.5 2.5
      vertex 2.6968 2.5 0.0309839
      vertex 2.55139 2.5 0.195914
    endloop
  endfacet
  facet normal 0 1 0
    outer loop
      vertex 5 2.5 2.5
      vertex 2.83156 2.5 -0.142751
      vertex 2.6968 2.5 0.0309839
    endloop
  endfacet
  facet normal 0 1 0
    outer loop
      vertex 5 2.5 2.5
      vertex 2.95515 2.5 -0.324606
      vertex 2.83156 2.5 -0.142751
    endloop
  endfacet
  facet normal 0 1 0
    outer loop
      vertex 5 2.5 2.5
      vertex 3.06707 2.5 -0.513862
      vertex 2.95515 2.5 -0.324606
    endloop
  endfacet
  facet normal 0 1 0
    outer loop
      vertex 5 2.5 2.5
      vertex 3.16689 2.5 -0.709772
      vertex 3.06707 2.5 -0.513862
    endloop
  endfacet
  facet normal 0 1 0
    outer loop
      vertex 5 2.5 2.5
      vertex 3.25422 2.5 -0.911564
      vertex 3.16689 2.5 -0.709772
    endloop
  endfacet
  facet normal 0 1 -0
    outer loop
      vertex 5 2.5 -2.5
      vertex 3.25422 2.5 -0.911564
      vertex 5 2.5 2.5
    endloop
  endfacet
  facet normal 0 1 0
    outer loop
      vertex 3.25422 2.5 -0.911564
      vertex 5 2.5 -2.5
      vertex 3.3287 2.5 -1.11844
    endloop
  endfacet
  facet normal 0 1 0
    outer loop
      vertex 3.3287 2.5 -1.11844
      vertex 5 2.5 -2.5
      vertex 3.39004 2.5 -1.32959
    endloop
  endfacet
  facet normal 0 1 0
    outer loop
      vertex 3.39004 2.5 -1.32959
      vertex 5 2.5 -2.5
      vertex 3.438 2.5 -1.54416
    endloop
  endfacet
  facet normal 0 1 0
    outer loop
      vertex 3.438 2.5 -1.54416
      vertex 5 2.5 -2.5
      vertex 3.4724 2.5 -1.76133
    endloop
  endfacet
  facet normal 0 1 0
    outer loop
      vertex 3.4724 2.5 -1.76133
      vertex 5 2.5 -2.5
      vertex 3.49309 2.5 -1.98023
    endloop
  endfacet
  facet normal 0 1 0
    outer loop
      vertex 3.49309 2.5 -1.98023
      vertex 5 2.5 -2.5
      vertex 3.5 2.5 -2.2
    endloop
  endfacet
  facet normal 0 1 0
    outer loop
      vertex 3.5 2.5 -2.2
      vertex 5 2.5 -2.5
      vertex 3.49309 2.5 -2.41977
    endloop
  endfacet
  facet normal 0 1 0
    outer loop
      vertex 3.49309 2.5 -2.41977
      vertex 5 2.5 -2.5
      vertex 3.48551 2.5 -2.5
    endloop
  endfacet
  facet normal 0 1 -0
    outer loop
      vertex -0.219767 2.5 1.29309
      vertex -5 2.5 2.5
      vertex 0 2.5 1.3
    endloop
  endfacet
  facet normal 0 1 -0
    outer loop
      vertex -0.438665 2.5 1.2724
      vertex -5 2.5 2.5
      vertex -0.219767 2.5 1.29309
    endloop
  endfacet
  facet normal 0 1 -0
    outer loop
      vertex -0.655834 2.5 1.238
      vertex -5 2.5 2.5
      vertex -0.438665 2.5 1.2724
    endloop
  endfacet
  facet normal 0 1 -0
    outer loop
      vertex -0.870414 2.5 1.19004
      vertex -5 2.5 2.5
      vertex -0.655834 2.5 1.238
    endloop
  endfacet
  facet normal 0 1 -0
    outer loop
      vertex -1.08156 2.5 1.1287
      vertex -5 2.5 2.5
      vertex -0.870414 2.5 1.19004
    endloop
  endfacet
  facet normal 0 1 -0
    outer loop
      vertex -1.28843 2.5 1.05422
      vertex -5 2.5 2.5
      vertex -1.08156 2.5 1.1287
    endloop
  endfacet
  facet normal 0 1 -0
    outer loop
      vertex -1.49023 2.5 0.966894
      vertex -5 2.5 2.5
      vertex -1.28843 2.5 1.05422
    endloop
  endfacet
  facet normal 0 1 -0
    outer loop
      vertex -1.68614 2.5 0.867073
      vertex -5 2.5 2.5
      vertex -1.49023 2.5 0.966894
    endloop
  endfacet
  facet normal 0 1 -0
    outer loop
      vertex -1.87539 2.5 0.755147
      vertex -5 2.5 2.5
      vertex -1.68614 2.5 0.867073
    endloop
  endfacet
  facet normal 0 1 -0
    outer loop
      vertex -2.05725 2.5 0.631559
      vertex -5 2.5 2.5
      vertex -1.87539 2.5 0.755147
    endloop
  endfacet
  facet normal 0 1 -0
    outer loop
      vertex -2.23098 2.5 0.496796
      vertex -5 2.5 2.5
      vertex -2.05725 2.5 0.631559
    endloop
  endfacet
  facet normal 0 1 -0
    outer loop
      vertex -2.39591 2.5 0.35139
      vertex -5 2.5 2.5
      vertex -2.23098 2.5 0.496796
    endloop
  endfacet
  facet normal 0 1 -0
    outer loop
      vertex -2.55139 2.5 0.195914
      vertex -5 2.5 2.5
      vertex -2.39591 2.5 0.35139
    endloop
  endfacet
  facet normal 0 1 -0
    outer loop
      vertex -2.6968 2.5 0.0309839
      vertex -5 2.5 2.5
      vertex -2.55139 2.5 0.195914
    endloop
  endfacet
  facet normal 0 1 -0
    outer loop
      vertex -2.83156 2.5 -0.142751
      vertex -5 2.5 2.5
      vertex -2.6968 2.5 0.0309839
    endloop
  endfacet
  facet normal 0 1 -0
    outer loop
      vertex -2.95515 2.5 -0.324606
      vertex -5 2.5 2.5
      vertex -2.83156 2.5 -0.142751
    endloop
  endfacet
  facet normal 0 1 -0
    outer loop
      vertex -3.06707 2.5 -0.513862
      vertex -5 2.5 2.5
      vertex -2.95515 2.5 -0.324606
    endloop
  endfacet
  facet normal 0 1 -0
    outer loop
      vertex -3.16689 2.5 -0.709772
      vertex -5 2.5 2.5
      vertex -3.06707 2.5 -0.513862
    endloop
  endfacet
  facet normal 0 1 -0
    outer loop
      vertex -3.25422 2.5 -0.911564
      vertex -5 2.5 2.5
      vertex -3.16689 2.5 -0.709772
    endloop
  endfacet
  facet normal 0 1 0
    outer loop
      vertex -5 2.5 -2.5
      vertex -3.25422 2.5 -0.911564
      vertex -3.3287 2.5 -1.11844
    endloop
  endfacet
  facet normal 0 1 0
    outer loop
      vertex -5 2.5 -2.5
      vertex -3.3287 2.5 -1.11844
      vertex -3.39004 2.5 -1.32959
    endloop
  endfacet
  facet normal 0 1 0
    outer loop
      vertex -5 2.5 -2.5
      vertex -3.39004 2.5 -1.32959
      vertex -3.438 2.5 -1.54416
    endloop
  endfacet
  facet normal 0 1 0
    outer loop
      vertex -5 2.5 -2.5
      vertex -3.438 2.5 -1.54416
      vertex -3.4724 2.5 -1.76133
    endloop
  endfacet
  facet normal 0 1 0
    outer loop
      vertex -5 2.5 -2.5
      vertex -3.4724 2.5 -1.76133
      vertex -3.49309 2.5 -1.98023
    endloop
  endfacet
  facet normal 0 1 0
    outer loop
      vertex -5 2.5 -2.5
      vertex -3.49309 2.5 -1.98023
      vertex -3.5 2.5 -2.2
    endloop
  endfacet
  facet normal 0 1 0
    outer loop
      vertex -5 2.5 -2.5
      vertex -3.5 2.5 -2.2
      vertex -3.49309 2.5 -2.41977
    endloop
  endfacet
  facet normal 0 1 0
    outer loop
      vertex -5 2.5 -2.5
      vertex -3.49309 2.5 -2.41977
      vertex -3.48551 2.5 -2.5
    endloop
  endfacet
  facet normal 0 1 0
    outer loop
      vertex -3.25422 2.5 -0.911564
      vertex -5 2.5 -2.5
      vertex -5 2.5 2.5
    endloop
  endfacet
  facet normal -0.999506 0 -0.0314264
    outer loop
      vertex 3.5 -2.5 -2.2
      vertex 3.49309 2.5 -1.98023
      vertex 3.5 2.5 -2.2
    endloop
  endfacet
  facet normal -0.999506 -0 -0.0314264
    outer loop
      vertex 3.49309 2.5 -1.98023
      vertex 3.5 -2.5 -2.2
      vertex 3.49309 -2.5 -1.98023
    endloop
  endfacet
  facet normal -0.995563 0 -0.0940987
    outer loop
      vertex 3.49309 -2.5 -1.98023
      vertex 3.4724 2.5 -1.76133
      vertex 3.49309 2.5 -1.98023
    endloop
  endfacet
  facet normal -0.995563 -0 -0.0940987
    outer loop
      vertex 3.4724 2.5 -1.76133
      vertex 3.49309 -2.5 -1.98023
      vertex 3.4724 -2.5 -1.76133
    endloop
  endfacet
  facet normal 0.999506 0 -0.0314264
    outer loop
      vertex -3.49309 -2.5 -1.98023
      vertex -3.5 2.5 -2.2
      vertex -3.49309 2.5 -1.98023
    endloop
  endfacet
  facet normal 0.999506 0 -0.0314264
    outer loop
      vertex -3.5 2.5 -2.2
      vertex -3.49309 -2.5 -1.98023
      vertex -3.5 -2.5 -2.2
    endloop
  endfacet
  facet normal -0.0314269 0 -0.999506
    outer loop
      vertex 0 -2.5 1.3
      vertex 0.219767 2.5 1.29309
      vertex 0.219767 -2.5 1.29309
    endloop
  endfacet
  facet normal -0.0314269 0 -0.999506
    outer loop
      vertex 0.219767 2.5 1.29309
      vertex 0 -2.5 1.3
      vertex 0 2.5 1.3
    endloop
  endfacet
  facet normal -0.707098 0 -0.707116
    outer loop
      vertex 2.55139 -2.5 0.195914
      vertex 2.39591 2.5 0.35139
      vertex 2.55139 2.5 0.195914
    endloop
  endfacet
  facet normal -0.707098 -0 -0.707116
    outer loop
      vertex 2.39591 2.5 0.35139
      vertex 2.55139 -2.5 0.195914
      vertex 2.39591 -2.5 0.35139
    endloop
  endfacet
  facet normal 0.661314 0 -0.75011
    outer loop
      vertex -2.39591 -2.5 0.35139
      vertex -2.23098 2.5 0.496796
      vertex -2.23098 -2.5 0.496796
    endloop
  endfacet
  facet normal 0.661314 0 -0.75011
    outer loop
      vertex -2.23098 2.5 0.496796
      vertex -2.39591 -2.5 0.35139
      vertex -2.39591 2.5 0.35139
    endloop
  endfacet
  facet normal 0.338747 0 -0.940878
    outer loop
      vertex -1.28843 -2.5 1.05422
      vertex -1.08156 2.5 1.1287
      vertex -1.08156 -2.5 1.1287
    endloop
  endfacet
  facet normal 0.338747 0 -0.940878
    outer loop
      vertex -1.08156 2.5 1.1287
      vertex -1.28843 -2.5 1.05422
      vertex -1.28843 2.5 1.05422
    endloop
  endfacet
  facet normal -0.917743 0 -0.397174
    outer loop
      vertex 3.25422 -2.5 -0.911564
      vertex 3.16689 2.5 -0.709772
      vertex 3.25422 2.5 -0.911564
    endloop
  endfacet
  facet normal -0.917743 -0 -0.397174
    outer loop
      vertex 3.16689 2.5 -0.709772
      vertex 3.25422 -2.5 -0.911564
      vertex 3.16689 -2.5 -0.709772
    endloop
  endfacet
  facet normal 0.156451 0 -0.987686
    outer loop
      vertex -0.655834 -2.5 1.238
      vertex -0.438665 2.5 1.2724
      vertex -0.438665 -2.5 1.2724
    endloop
  endfacet
  facet normal 0.156451 0 -0.987686
    outer loop
      vertex -0.438665 2.5 1.2724
      vertex -0.655834 -2.5 1.238
      vertex -0.655834 2.5 1.238
    endloop
  endfacet
  facet normal -0.975919 0 -0.218134
    outer loop
      vertex 3.438 -2.5 -1.54416
      vertex 3.39004 2.5 -1.32959
      vertex 3.438 2.5 -1.54416
    endloop
  endfacet
  facet normal -0.975919 -0 -0.218134
    outer loop
      vertex 3.39004 2.5 -1.32959
      vertex 3.438 -2.5 -1.54416
      vertex 3.39004 -2.5 -1.32959
    endloop
  endfacet
  facet normal -0.960299 0 -0.278971
    outer loop
      vertex 3.39004 -2.5 -1.32959
      vertex 3.3287 2.5 -1.11844
      vertex 3.39004 2.5 -1.32959
    endloop
  endfacet
  facet normal -0.960299 -0 -0.278971
    outer loop
      vertex 3.3287 2.5 -1.11844
      vertex 3.39004 -2.5 -1.32959
      vertex 3.3287 -2.5 -1.11844
    endloop
  endfacet
  facet normal -0.891009 0 -0.453986
    outer loop
      vertex 3.16689 -2.5 -0.709772
      vertex 3.06707 2.5 -0.513862
      vertex 3.16689 2.5 -0.709772
    endloop
  endfacet
  facet normal -0.891009 -0 -0.453986
    outer loop
      vertex 3.06707 2.5 -0.513862
      vertex 3.16689 -2.5 -0.709772
      vertex 3.06707 -2.5 -0.513862
    endloop
  endfacet
  facet normal -0.750101 0 -0.661324
    outer loop
      vertex 2.6968 -2.5 0.0309839
      vertex 2.55139 2.5 0.195914
      vertex 2.6968 2.5 0.0309839
    endloop
  endfacet
  facet normal -0.750101 -0 -0.661324
    outer loop
      vertex 2.55139 2.5 0.195914
      vertex 2.6968 -2.5 0.0309839
      vertex 2.55139 -2.5 0.195914
    endloop
  endfacet
  facet normal -0.218125 0 -0.975921
    outer loop
      vertex 0.655834 -2.5 1.238
      vertex 0.870414 2.5 1.19004
      vertex 0.870414 -2.5 1.19004
    endloop
  endfacet
  facet normal -0.218125 0 -0.975921
    outer loop
      vertex 0.870414 2.5 1.19004
      vertex 0.655834 -2.5 1.238
      vertex 0.655834 2.5 1.238
    endloop
  endfacet
  facet normal 0.790161 0 -0.6129
    outer loop
      vertex -2.6968 -2.5 0.0309839
      vertex -2.83156 2.5 -0.142751
      vertex -2.6968 2.5 0.0309839
    endloop
  endfacet
  facet normal 0.790161 0 -0.6129
    outer loop
      vertex -2.83156 2.5 -0.142751
      vertex -2.6968 -2.5 0.0309839
      vertex -2.83156 -2.5 -0.142751
    endloop
  endfacet
  facet normal 0.827077 0 -0.562088
    outer loop
      vertex -2.83156 -2.5 -0.142751
      vertex -2.95515 2.5 -0.324606
      vertex -2.83156 2.5 -0.142751
    endloop
  endfacet
  facet normal 0.827077 0 -0.562088
    outer loop
      vertex -2.95515 2.5 -0.324606
      vertex -2.83156 -2.5 -0.142751
      vertex -2.95515 -2.5 -0.324606
    endloop
  endfacet
  facet normal 0.975919 0 -0.218134
    outer loop
      vertex -3.39004 -2.5 -1.32959
      vertex -3.438 2.5 -1.54416
      vertex -3.39004 2.5 -1.32959
    endloop
  endfacet
  facet normal 0.975919 0 -0.218134
    outer loop
      vertex -3.438 2.5 -1.54416
      vertex -3.39004 -2.5 -1.32959
      vertex -3.438 -2.5 -1.54416
    endloop
  endfacet
  facet normal 0.987686 0 -0.156451
    outer loop
      vertex -3.438 -2.5 -1.54416
      vertex -3.4724 2.5 -1.76133
      vertex -3.438 2.5 -1.54416
    endloop
  endfacet
  facet normal 0.987686 0 -0.156451
    outer loop
      vertex -3.4724 2.5 -1.76133
      vertex -3.438 -2.5 -1.54416
      vertex -3.4724 -2.5 -1.76133
    endloop
  endfacet
  facet normal 0.509054 0 -0.860734
    outer loop
      vertex -1.87539 -2.5 0.755147
      vertex -1.68614 2.5 0.867073
      vertex -1.68614 -2.5 0.867073
    endloop
  endfacet
  facet normal 0.509054 0 -0.860734
    outer loop
      vertex -1.68614 2.5 0.867073
      vertex -1.87539 -2.5 0.755147
      vertex -1.87539 2.5 0.755147
    endloop
  endfacet
  facet normal 0.0940995 0 -0.995563
    outer loop
      vertex -0.438665 -2.5 1.2724
      vertex -0.219767 2.5 1.29309
      vertex -0.219767 -2.5 1.29309
    endloop
  endfacet
  facet normal 0.0940995 0 -0.995563
    outer loop
      vertex -0.219767 2.5 1.29309
      vertex -0.438665 -2.5 1.2724
      vertex -0.438665 2.5 1.2724
    endloop
  endfacet
  facet normal 0.999506 -0 0.0314264
    outer loop
      vertex -3.5 -2.5 -2.2
      vertex -3.49309 2.5 -2.41977
      vertex -3.5 2.5 -2.2
    endloop
  endfacet
  facet normal 0.999506 0 0.0314264
    outer loop
      vertex -3.49309 2.5 -2.41977
      vertex -3.5 -2.5 -2.2
      vertex -3.49309 -2.5 -2.41977
    endloop
  endfacet
  facet normal -0.987686 0 -0.156451
    outer loop
      vertex 3.4724 -2.5 -1.76133
      vertex 3.438 2.5 -1.54416
      vertex 3.4724 2.5 -1.76133
    endloop
  endfacet
  facet normal -0.987686 -0 -0.156451
    outer loop
      vertex 3.438 2.5 -1.54416
      vertex 3.4724 -2.5 -1.76133
      vertex 3.438 -2.5 -1.54416
    endloop
  endfacet
  facet normal -0.790161 0 -0.6129
    outer loop
      vertex 2.83156 -2.5 -0.142751
      vertex 2.6968 2.5 0.0309839
      vertex 2.83156 2.5 -0.142751
    endloop
  endfacet
  facet normal -0.790161 -0 -0.6129
    outer loop
      vertex 2.6968 2.5 0.0309839
      vertex 2.83156 -2.5 -0.142751
      vertex 2.6968 -2.5 0.0309839
    endloop
  endfacet
  facet normal -0.156451 0 -0.987686
    outer loop
      vertex 0.438665 -2.5 1.2724
      vertex 0.655834 2.5 1.238
      vertex 0.655834 -2.5 1.238
    endloop
  endfacet
  facet normal -0.156451 0 -0.987686
    outer loop
      vertex 0.655834 2.5 1.238
      vertex 0.438665 -2.5 1.2724
      vertex 0.438665 2.5 1.2724
    endloop
  endfacet
  facet normal -0.338747 0 -0.940878
    outer loop
      vertex 1.08156 -2.5 1.1287
      vertex 1.28843 2.5 1.05422
      vertex 1.28843 -2.5 1.05422
    endloop
  endfacet
  facet normal -0.338747 0 -0.940878
    outer loop
      vertex 1.28843 2.5 1.05422
      vertex 1.08156 -2.5 1.1287
      vertex 1.08156 2.5 1.1287
    endloop
  endfacet
  facet normal -0.397145 0 -0.917756
    outer loop
      vertex 1.28843 -2.5 1.05422
      vertex 1.49023 2.5 0.966894
      vertex 1.49023 -2.5 0.966894
    endloop
  endfacet
  facet normal -0.397145 0 -0.917756
    outer loop
      vertex 1.49023 2.5 0.966894
      vertex 1.28843 -2.5 1.05422
      vertex 1.28843 2.5 1.05422
    endloop
  endfacet
  facet normal -0.509054 0 -0.860734
    outer loop
      vertex 1.68614 -2.5 0.867073
      vertex 1.87539 2.5 0.755147
      vertex 1.87539 -2.5 0.755147
    endloop
  endfacet
  facet normal -0.509054 0 -0.860734
    outer loop
      vertex 1.87539 2.5 0.755147
      vertex 1.68614 -2.5 0.867073
      vertex 1.68614 2.5 0.867073
    endloop
  endfacet
  facet normal -0.562071 0 -0.827089
    outer loop
      vertex 1.87539 -2.5 0.755147
      vertex 2.05725 2.5 0.631559
      vertex 2.05725 -2.5 0.631559
    endloop
  endfacet
  facet normal -0.562071 0 -0.827089
    outer loop
      vertex 2.05725 2.5 0.631559
      vertex 1.87539 -2.5 0.755147
      vertex 1.87539 2.5 0.755147
    endloop
  endfacet
  facet normal 0.860753 0 -0.509022
    outer loop
      vertex -2.95515 -2.5 -0.324606
      vertex -3.06707 2.5 -0.513862
      vertex -2.95515 2.5 -0.324606
    endloop
  endfacet
  facet normal 0.860753 0 -0.509022
    outer loop
      vertex -3.06707 2.5 -0.513862
      vertex -2.95515 -2.5 -0.324606
      vertex -3.06707 -2.5 -0.513862
    endloop
  endfacet
  facet normal 0.917743 0 -0.397174
    outer loop
      vertex -3.16689 -2.5 -0.709772
      vertex -3.25422 2.5 -0.911564
      vertex -3.16689 2.5 -0.709772
    endloop
  endfacet
  facet normal 0.917743 0 -0.397174
    outer loop
      vertex -3.25422 2.5 -0.911564
      vertex -3.16689 -2.5 -0.709772
      vertex -3.25422 -2.5 -0.911564
    endloop
  endfacet
  facet normal 0.940881 0 -0.338738
    outer loop
      vertex -3.25422 -2.5 -0.911564
      vertex -3.3287 2.5 -1.11844
      vertex -3.25422 2.5 -0.911564
    endloop
  endfacet
  facet normal 0.940881 0 -0.338738
    outer loop
      vertex -3.3287 2.5 -1.11844
      vertex -3.25422 -2.5 -0.911564
      vertex -3.3287 -2.5 -1.11844
    endloop
  endfacet
  facet normal 0.995563 0 -0.0940987
    outer loop
      vertex -3.4724 -2.5 -1.76133
      vertex -3.49309 2.5 -1.98023
      vertex -3.4724 2.5 -1.76133
    endloop
  endfacet
  facet normal 0.995563 0 -0.0940987
    outer loop
      vertex -3.49309 2.5 -1.98023
      vertex -3.4724 -2.5 -1.76133
      vertex -3.49309 -2.5 -1.98023
    endloop
  endfacet
  facet normal 0.562071 0 -0.827089
    outer loop
      vertex -2.05725 -2.5 0.631559
      vertex -1.87539 2.5 0.755147
      vertex -1.87539 -2.5 0.755147
    endloop
  endfacet
  facet normal 0.562071 0 -0.827089
    outer loop
      vertex -1.87539 2.5 0.755147
      vertex -2.05725 -2.5 0.631559
      vertex -2.05725 2.5 0.631559
    endloop
  endfacet
  facet normal 0.45399 0 -0.891007
    outer loop
      vertex -1.68614 -2.5 0.867073
      vertex -1.49023 2.5 0.966894
      vertex -1.49023 -2.5 0.966894
    endloop
  endfacet
  facet normal 0.45399 0 -0.891007
    outer loop
      vertex -1.49023 2.5 0.966894
      vertex -1.68614 -2.5 0.867073
      vertex -1.68614 2.5 0.867073
    endloop
  endfacet
  facet normal 0.218125 0 -0.975921
    outer loop
      vertex -0.870414 -2.5 1.19004
      vertex -0.655834 2.5 1.238
      vertex -0.655834 -2.5 1.238
    endloop
  endfacet
  facet normal 0.218125 0 -0.975921
    outer loop
      vertex -0.655834 2.5 1.238
      vertex -0.870414 -2.5 1.19004
      vertex -0.870414 2.5 1.19004
    endloop
  endfacet
  facet normal 0.278976 0 -0.960298
    outer loop
      vertex -1.08156 -2.5 1.1287
      vertex -0.870414 2.5 1.19004
      vertex -0.870414 -2.5 1.19004
    endloop
  endfacet
  facet normal 0.278976 0 -0.960298
    outer loop
      vertex -0.870414 2.5 1.19004
      vertex -1.08156 -2.5 1.1287
      vertex -1.08156 2.5 1.1287
    endloop
  endfacet
  facet normal 0.0314269 0 -0.999506
    outer loop
      vertex -0.219767 -2.5 1.29309
      vertex 0 2.5 1.3
      vertex 0 -2.5 1.3
    endloop
  endfacet
  facet normal 0.0314269 0 -0.999506
    outer loop
      vertex 0 2.5 1.3
      vertex -0.219767 -2.5 1.29309
      vertex -0.219767 2.5 1.29309
    endloop
  endfacet
  facet normal -0.999506 0 0.0314264
    outer loop
      vertex 3.49309 -2.5 -2.41977
      vertex 3.5 2.5 -2.2
      vertex 3.49309 2.5 -2.41977
    endloop
  endfacet
  facet normal -0.999506 0 0.0314264
    outer loop
      vertex 3.5 2.5 -2.2
      vertex 3.49309 -2.5 -2.41977
      vertex 3.5 -2.5 -2.2
    endloop
  endfacet
  facet normal -0.940881 0 -0.338738
    outer loop
      vertex 3.3287 -2.5 -1.11844
      vertex 3.25422 2.5 -0.911564
      vertex 3.3287 2.5 -1.11844
    endloop
  endfacet
  facet normal -0.940881 -0 -0.338738
    outer loop
      vertex 3.25422 2.5 -0.911564
      vertex 3.3287 -2.5 -1.11844
      vertex 3.25422 -2.5 -0.911564
    endloop
  endfacet
  facet normal -0.860753 0 -0.509022
    outer loop
      vertex 3.06707 -2.5 -0.513862
      vertex 2.95515 2.5 -0.324606
      vertex 3.06707 2.5 -0.513862
    endloop
  endfacet
  facet normal -0.860753 -0 -0.509022
    outer loop
      vertex 2.95515 2.5 -0.324606
      vertex 3.06707 -2.5 -0.513862
      vertex 2.95515 -2.5 -0.324606
    endloop
  endfacet
  facet normal -0.827077 0 -0.562088
    outer loop
      vertex 2.95515 -2.5 -0.324606
      vertex 2.83156 2.5 -0.142751
      vertex 2.95515 2.5 -0.324606
    endloop
  endfacet
  facet normal -0.827077 -0 -0.562088
    outer loop
      vertex 2.83156 2.5 -0.142751
      vertex 2.95515 -2.5 -0.324606
      vertex 2.83156 -2.5 -0.142751
    endloop
  endfacet
  facet normal -0.278976 0 -0.960298
    outer loop
      vertex 0.870414 -2.5 1.19004
      vertex 1.08156 2.5 1.1287
      vertex 1.08156 -2.5 1.1287
    endloop
  endfacet
  facet normal -0.278976 0 -0.960298
    outer loop
      vertex 1.08156 2.5 1.1287
      vertex 0.870414 -2.5 1.19004
      vertex 0.870414 2.5 1.19004
    endloop
  endfacet
  facet normal -0.0940995 0 -0.995563
    outer loop
      vertex 0.219767 -2.5 1.29309
      vertex 0.438665 2.5 1.2724
      vertex 0.438665 -2.5 1.2724
    endloop
  endfacet
  facet normal -0.0940995 0 -0.995563
    outer loop
      vertex 0.438665 2.5 1.2724
      vertex 0.219767 -2.5 1.29309
      vertex 0.219767 2.5 1.29309
    endloop
  endfacet
  facet normal -0.45399 0 -0.891007
    outer loop
      vertex 1.49023 -2.5 0.966894
      vertex 1.68614 2.5 0.867073
      vertex 1.68614 -2.5 0.867073
    endloop
  endfacet
  facet normal -0.45399 0 -0.891007
    outer loop
      vertex 1.68614 2.5 0.867073
      vertex 1.49023 -2.5 0.966894
      vertex 1.49023 2.5 0.966894
    endloop
  endfacet
  facet normal -0.661314 0 -0.75011
    outer loop
      vertex 2.23098 -2.5 0.496796
      vertex 2.39591 2.5 0.35139
      vertex 2.39591 -2.5 0.35139
    endloop
  endfacet
  facet normal -0.661314 0 -0.75011
    outer loop
      vertex 2.39591 2.5 0.35139
      vertex 2.23098 -2.5 0.496796
      vertex 2.23098 2.5 0.496796
    endloop
  endfacet
  facet normal -0.612919 0 -0.790146
    outer loop
      vertex 2.05725 -2.5 0.631559
      vertex 2.23098 2.5 0.496796
      vertex 2.23098 -2.5 0.496796
    endloop
  endfacet
  facet normal -0.612919 0 -0.790146
    outer loop
      vertex 2.23098 2.5 0.496796
      vertex 2.05725 -2.5 0.631559
      vertex 2.05725 2.5 0.631559
    endloop
  endfacet
  facet normal 0.750101 0 -0.661324
    outer loop
      vertex -2.55139 -2.5 0.195914
      vertex -2.6968 2.5 0.0309839
      vertex -2.55139 2.5 0.195914
    endloop
  endfacet
  facet normal 0.750101 0 -0.661324
    outer loop
      vertex -2.6968 2.5 0.0309839
      vertex -2.55139 -2.5 0.195914
      vertex -2.6968 -2.5 0.0309839
    endloop
  endfacet
  facet normal 0.707098 0 -0.707116
    outer loop
      vertex -2.39591 -2.5 0.35139
      vertex -2.55139 2.5 0.195914
      vertex -2.39591 2.5 0.35139
    endloop
  endfacet
  facet normal 0.707098 0 -0.707116
    outer loop
      vertex -2.55139 2.5 0.195914
      vertex -2.39591 -2.5 0.35139
      vertex -2.55139 -2.5 0.195914
    endloop
  endfacet
  facet normal 0.891009 0 -0.453986
    outer loop
      vertex -3.06707 -2.5 -0.513862
      vertex -3.16689 2.5 -0.709772
      vertex -3.06707 2.5 -0.513862
    endloop
  endfacet
  facet normal 0.891009 0 -0.453986
    outer loop
      vertex -3.16689 2.5 -0.709772
      vertex -3.06707 -2.5 -0.513862
      vertex -3.16689 -2.5 -0.709772
    endloop
  endfacet
  facet normal 0.960299 0 -0.278971
    outer loop
      vertex -3.3287 -2.5 -1.11844
      vertex -3.39004 2.5 -1.32959
      vertex -3.3287 2.5 -1.11844
    endloop
  endfacet
  facet normal 0.960299 0 -0.278971
    outer loop
      vertex -3.39004 2.5 -1.32959
      vertex -3.3287 -2.5 -1.11844
      vertex -3.39004 -2.5 -1.32959
    endloop
  endfacet
  facet normal 0.612919 0 -0.790146
    outer loop
      vertex -2.23098 -2.5 0.496796
      vertex -2.05725 2.5 0.631559
      vertex -2.05725 -2.5 0.631559
    endloop
  endfacet
  facet normal 0.612919 0 -0.790146
    outer loop
      vertex -2.05725 2.5 0.631559
      vertex -2.23098 -2.5 0.496796
      vertex -2.23098 2.5 0.496796
    endloop
  endfacet
  facet normal 0.397145 0 -0.917756
    outer loop
      vertex -1.49023 -2.5 0.966894
      vertex -1.28843 2.5 1.05422
      vertex -1.28843 -2.5 1.05422
    endloop
  endfacet
  facet normal 0.397145 0 -0.917756
    outer loop
      vertex -1.28843 2.5 1.05422
      vertex -1.49023 -2.5 0.966894
      vertex -1.49023 2.5 0.966894
    endloop
  endfacet
  facet normal 0.995567 -0 0.0940595
    outer loop
      vertex -3.49309 -2.5 -2.41977
      vertex -3.48551 2.5 -2.5
      vertex -3.49309 2.5 -2.41977
    endloop
  endfacet
  facet normal 0.995567 0 0.0940595
    outer loop
      vertex -3.48551 2.5 -2.5
      vertex -3.49309 -2.5 -2.41977
      vertex -3.48551 -2.5 -2.5
    endloop
  endfacet
  facet normal -0.995567 0 0.0940595
    outer loop
      vertex 3.48551 -2.5 -2.5
      vertex 3.49309 2.5 -2.41977
      vertex 3.48551 2.5 -2.5
    endloop
  endfacet
  facet normal -0.995567 0 0.0940595
    outer loop
      vertex 3.49309 2.5 -2.41977
      vertex 3.48551 -2.5 -2.5
      vertex 3.49309 -2.5 -2.41977
    endloop
  endfacet
endsolid OpenSCAD_Model
