solid OpenSCAD_Model
  facet normal -1 0 0
    outer loop
      vertex -5 -2.5 -2.5
      vertex -5 2.5 2.5
      vertex -5 2.5 -2.5
    endloop
  endfacet
  facet normal -1 -0 0
    outer loop
      vertex -5 2.5 2.5
      vertex -5 -2.5 -2.5
      vertex -5 -2.5 2.5
    endloop
  endfacet
  facet normal -0 0 1
    outer loop
      vertex -5 2.5 2.5
      vertex 5 -2.5 2.5
      vertex 5 2.5 2.5
    endloop
  endfacet
  facet normal 0 0 1
    outer loop
      vertex 5 -2.5 2.5
      vertex -5 2.5 2.5
      vertex -5 -2.5 2.5
    endloop
  endfacet
  facet normal 1 -0 0
    outer loop
      vertex 5 -2.5 2.5
      vertex 5 2.5 -2.5
      vertex 5 2.5 2.5
    endloop
  endfacet
  facet normal 1 0 0
    outer loop
      vertex 5 2.5 -2.5
      vertex 5 -2.5 2.5
      vertex 5 -2.5 -2.5
    endloop
  endfacet
  facet normal 0 1 0
    outer loop
      vertex 5 2.5 2.5
      vertex 0 2.5 1.3
      vertex -5 2.5 2.5
    endloop
  endfacet
  facet normal 0 1 0
    outer loop
      vertex 5 2.5 2.5
      vertex 0.226046 2.5 1.2929
      vertex 0 2.5 1.3
    endloop
  endfacet
  facet normal 0 1 0
    outer loop
      vertex 5 2.5 2.5
      vertex 0.4512 2.5 1.27161
      vertex 0.226046 2.5 1.2929
    endloop
  endfacet
  facet normal 0 1 0
    outer loop
      vertex 5 2.5 2.5
      vertex 0.674572 2.5 1.23623
      vertex 0.4512 2.5 1.27161
    endloop
  endfacet
  facet normal 0 1 0
    outer loop
      vertex 5 2.5 2.5
      vertex 0.895283 2.5 1.1869
      vertex 0.674572 2.5 1.23623
    endloop
  endfacet
  facet normal 0 1 0
    outer loop
      vertex 5 2.5 2.5
      vertex 1.11246 2.5 1.1238
      vertex 0.895283 2.5 1.1869
    endloop
  endfacet
  facet normal 0 1 0
    outer loop
      vertex 5 2.5 2.5
      vertex 1.32525 2.5 1.04719
      vertex 1.11246 2.5 1.1238
    endloop
  endfacet
  facet normal 0 1 0
    outer loop
      vertex 5 2.5 2.5
      vertex 1.53281 2.5 0.957376
      vertex 1.32525 2.5 1.04719
    endloop
  endfacet
  facet normal 0 1 0
    outer loop
      vertex 5 2.5 2.5
      vertex 1.73431 2.5 0.854704
      vertex 1.53281 2.5 0.957376
    endloop
  endfacet
  facet normal 0 1 0
    outer loop
      vertex 5 2.5 2.5
      vertex 1.92898 2.5 0.73958
      vertex 1.73431 2.5 0.854704
    endloop
  endfacet
  facet normal 0 1 0
    outer loop
      vertex 5 2.5 2.5
      vertex 2.11603 2.5 0.612461
      vertex 1.92898 2.5 0.73958
    endloop
  endfacet
  facet normal 0 1 0
    outer loop
      vertex 5 2.5 2.5
      vertex 2.29473 2.5 0.473847
      vertex 2.11603 2.5 0.612461
    endloop
  endfacet
  facet normal 0 1 0
    outer loop
      vertex 5 2.5 2.5
      vertex 2.46437 2.5 0.324286
      vertex 2.29473 2.5 0.473847
    endloop
  endfacet
  facet normal 0 1 0
    outer loop
      vertex 5 2.5 2.5
      vertex 2.62429 2.5 0.164369
      vertex 2.46437 2.5 0.324286
    endloop
  endfacet
  facet normal 0 1 0
    outer loop
      vertex 5 2.5 2.5
      vertex 2.77385 2.5 -0.00527287
      vertex 2.62429 2.5 0.164369
    endloop
  endfacet
  facet normal 0 1 0
    outer loop
      vertex 5 2.5 2.5
      vertex 2.91246 2.5 -0.183972
      vertex 2.77385 2.5 -0.00527287
    endloop
  endfacet
  facet normal 0 1 0
    outer loop
      vertex 5 2.5 2.5
      vertex 3.03958 2.5 -0.371023
      vertex 2.91246 2.5 -0.183972
    endloop
  endfacet
  facet normal 0 1 0
    outer loop
      vertex 5 2.5 2.5
      vertex 3.1547 2.5 -0.565686
      vertex 3.03958 2.5 -0.371023
    endloop
  endfacet
  facet normal 0 1 0
    outer loop
      vertex 5 2.5 2.5
      vertex 3.25738 2.5 -0.767194
      vertex 3.1547 2.5 -0.565686
    endloop
  endfacet
  facet normal 0 1 0
    outer loop
      vertex 5 2.5 2.5
      vertex 3.34719 2.5 -0.974751
      vertex 3.25738 2.5 -0.767194
    endloop
  endfacet
  facet normal 0 1 -0
    outer loop
      vertex 5 2.5 -2.5
      vertex 3.34719 2.5 -0.974751
      vertex 5 2.5 2.5
    endloop
  endfacet
  facet normal 0 1 0
    outer loop
      vertex 3.34719 2.5 -0.974751
      vertex 5 2.5 -2.5
      vertex 3.4238 2.5 -1.18754
    endloop
  endfacet
  facet normal 0 1 0
    outer loop
      vertex 3.4238 2.5 -1.18754
      vertex 5 2.5 -2.5
      vertex 3.4869 2.5 -1.40472
    endloop
  endfacet
  facet normal 0 1 0
    outer loop
      vertex 3.4869 2.5 -1.40472
      vertex 5 2.5 -2.5
      vertex 3.53623 2.5 -1.62543
    endloop
  endfacet
  facet normal 0 1 0
    outer loop
      vertex 3.53623 2.5 -1.62543
      vertex 5 2.5 -2.5
      vertex 3.57161 2.5 -1.8488
    endloop
  endfacet
  facet normal 0 1 0
    outer loop
      vertex 3.57161 2.5 -1.8488
      vertex 5 2.5 -2.5
      vertex 3.5929 2.5 -2.07395
    endloop
  endfacet
  facet normal 0 1 0
    outer loop
      vertex 3.5929 2.5 -2.07395
      vertex 5 2.5 -2.5
      vertex 3.6 2.5 -2.3
    endloop
  endfacet
  facet normal 0 1 0
    outer loop
      vertex 3.6 2.5 -2.3
      vertex 5 2.5 -2.5
      vertex 3.59371 2.5 -2.5
    endloop
  endfacet
  facet normal 0 1 -0
    outer loop
      vertex -0.226046 2.5 1.2929
      vertex -5 2.5 2.5
      vertex 0 2.5 1.3
    endloop
  endfacet
  facet normal 0 1 -0
    outer loop
      vertex -0.4512 2.5 1.27161
      vertex -5 2.5 2.5
      vertex -0.226046 2.5 1.2929
    endloop
  endfacet
  facet normal 0 1 -0
    outer loop
      vertex -0.674572 2.5 1.23623
      vertex -5 2.5 2.5
      vertex -0.4512 2.5 1.27161
    endloop
  endfacet
  facet normal 0 1 -0
    outer loop
      vertex -0.895283 2.5 1.1869
      vertex -5 2.5 2.5
      vertex -0.674572 2.5 1.23623
    endloop
  endfacet
  facet normal 0 1 -0
    outer loop
      vertex -1.11246 2.5 1.1238
      vertex -5 2.5 2.5
      vertex -0.895283 2.5 1.1869
    endloop
  endfacet
  facet normal 0 1 -0
    outer loop
      vertex -1.32525 2.5 1.04719
      vertex -5 2.5 2.5
      vertex -1.11246 2.5 1.1238
    endloop
  endfacet
  facet normal 0 1 -0
    outer loop
      vertex -1.53281 2.5 0.957376
      vertex -5 2.5 2.5
      vertex -1.32525 2.5 1.04719
    endloop
  endfacet
  facet normal 0 1 -0
    outer loop
      vertex -1.73431 2.5 0.854704
      vertex -5 2.5 2.5
      vertex -1.53281 2.5 0.957376
    endloop
  endfacet
  facet normal 0 1 -0
    outer loop
      vertex -1.92898 2.5 0.73958
      vertex -5 2.5 2.5
      vertex -1.73431 2.5 0.854704
    endloop
  endfacet
  facet normal 0 1 -0
    outer loop
      vertex -2.11603 2.5 0.612461
      vertex -5 2.5 2.5
      vertex -1.92898 2.5 0.73958
    endloop
  endfacet
  facet normal 0 1 -0
    outer loop
      vertex -2.29473 2.5 0.473847
      vertex -5 2.5 2.5
      vertex -2.11603 2.5 0.612461
    endloop
  endfacet
  facet normal 0 1 -0
    outer loop
      vertex -2.46437 2.5 0.324286
      vertex -5 2.5 2.5
      vertex -2.29473 2.5 0.473847
    endloop
  endfacet
  facet normal 0 1 -0
    outer loop
      vertex -2.62429 2.5 0.164369
      vertex -5 2.5 2.5
      vertex -2.46437 2.5 0.324286
    endloop
  endfacet
  facet normal 0 1 -0
    outer loop
      vertex -2.77385 2.5 -0.00527287
      vertex -5 2.5 2.5
      vertex -2.62429 2.5 0.164369
    endloop
  endfacet
  facet normal 0 1 -0
    outer loop
      vertex -2.91246 2.5 -0.183972
      vertex -5 2.5 2.5
      vertex -2.77385 2.5 -0.00527287
    endloop
  endfacet
  facet normal 0 1 -0
    outer loop
      vertex -3.03958 2.5 -0.371023
      vertex -5 2.5 2.5
      vertex -2.91246 2.5 -0.183972
    endloop
  endfacet
  facet normal 0 1 -0
    outer loop
      vertex -3.1547 2.5 -0.565686
      vertex -5 2.5 2.5
      vertex -3.03958 2.5 -0.371023
    endloop
  endfacet
  facet normal 0 1 -0
    outer loop
      vertex -3.25738 2.5 -0.767194
      vertex -5 2.5 2.5
      vertex -3.1547 2.5 -0.565686
    endloop
  endfacet
  facet normal 0 1 -0
    outer loop
      vertex -3.34719 2.5 -0.974751
      vertex -5 2.5 2.5
      vertex -3.25738 2.5 -0.767194
    endloop
  endfacet
  facet normal 0 1 0
    outer loop
      vertex -5 2.5 -2.5
      vertex -3.34719 2.5 -0.974751
      vertex -3.4238 2.5 -1.18754
    endloop
  endfacet
  facet normal 0 1 0
    outer loop
      vertex -5 2.5 -2.5
      vertex -3.4238 2.5 -1.18754
      vertex -3.4869 2.5 -1.40472
    endloop
  endfacet
  facet normal 0 1 0
    outer loop
      vertex -5 2.5 -2.5
      vertex -3.4869 2.5 -1.40472
      vertex -3.53623 2.5 -1.62543
    endloop
  endfacet
  facet normal 0 1 0
    outer loop
      vertex -5 2.5 -2.5
      vertex -3.53623 2.5 -1.62543
      vertex -3.57161 2.5 -1.8488
    endloop
  endfacet
  facet normal 0 1 0
    outer loop
      vertex -5 2.5 -2.5
      vertex -3.57161 2.5 -1.8488
      vertex -3.5929 2.5 -2.07395
    endloop
  endfacet
  facet normal 0 1 0
    outer loop
      vertex -5 2.5 -2.5
      vertex -3.5929 2.5 -2.07395
      vertex -3.6 2.5 -2.3
    endloop
  endfacet
  facet normal 0 1 0
    outer loop
      vertex -5 2.5 -2.5
      vertex -3.6 2.5 -2.3
      vertex -3.59371 2.5 -2.5
    endloop
  endfacet
  facet normal 0 1 0
    outer loop
      vertex -3.34719 2.5 -0.974751
      vertex -5 2.5 -2.5
      vertex -5 2.5 2.5
    endloop
  endfacet
  facet normal 0 0 -1
    outer loop
      vertex -5 -2.5 -2.5
      vertex -3.59371 2.5 -2.5
      vertex -3.59371 -2.5 -2.5
    endloop
  endfacet
  facet normal -0 0 -1
    outer loop
      vertex -3.59371 2.5 -2.5
      vertex -5 -2.5 -2.5
      vertex -5 2.5 -2.5
    endloop
  endfacet
  facet normal 0 0 -1
    outer loop
      vertex 3.59371 -2.5 -2.5
      vertex 5 2.5 -2.5
      vertex 5 -2.5 -2.5
    endloop
  endfacet
  facet normal -0 0 -1
    outer loop
      vertex 5 2.5 -2.5
      vertex 3.59371 -2.5 -2.5
      vertex 3.59371 2.5 -2.5
    endloop
  endfacet
  facet normal 0 -1 0
    outer loop
      vertex -5 -2.5 2.5
      vertex 0 -2.5 1.3
      vertex 5 -2.5 2.5
    endloop
  endfacet
  facet normal 0 -1 0
    outer loop
      vertex -5 -2.5 2.5
      vertex -0.226046 -2.5 1.2929
      vertex 0 -2.5 1.3
    endloop
  endfacet
  facet normal 0 -1 0
    outer loop
      vertex -5 -2.5 2.5
      vertex -0.4512 -2.5 1.27161
      vertex -0.226046 -2.5 1.2929
    endloop
  endfacet
  facet normal 0 -1 0
    outer loop
      vertex -5 -2.5 2.5
      vertex -0.674572 -2.5 1.23623
      vertex -0.4512 -2.5 1.27161
    endloop
  endfacet
  facet normal 0 -1 0
    outer loop
      vertex -5 -2.5 2.5
      vertex -0.895283 -2.5 1.1869
      vertex -0.674572 -2.5 1.23623
    endloop
  endfacet
  facet normal 0 -1 0
    outer loop
      vertex -5 -2.5 2.5
      vertex -1.11246 -2.5 1.1238
      vertex -0.895283 -2.5 1.1869
    endloop
  endfacet
  facet normal 0 -1 0
    outer loop
      vertex -5 -2.5 2.5
      vertex -1.32525 -2.5 1.04719
      vertex -1.11246 -2.5 1.1238
    endloop
  endfacet
  facet normal 0 -1 0
    outer loop
      vertex -5 -2.5 2.5
      vertex -1.53281 -2.5 0.957376
      vertex -1.32525 -2.5 1.04719
    endloop
  endfacet
  facet normal 0 -1 0
    outer loop
      vertex -5 -2.5 2.5
      vertex -1.73431 -2.5 0.854704
      vertex -1.53281 -2.5 0.957376
    endloop
  endfacet
  facet normal 0 -1 0
    outer loop
      vertex -5 -2.5 2.5
      vertex -1.92898 -2.5 0.73958
      vertex -1.73431 -2.5 0.854704
    endloop
  endfacet
  facet normal 0 -1 0
    outer loop
      vertex -5 -2.5 2.5
      vertex -2.11603 -2.5 0.612461
      vertex -1.92898 -2.5 0.73958
    endloop
  endfacet
  facet normal 0 -1 0
    outer loop
      vertex -5 -2.5 2.5
      vertex -2.29473 -2.5 0.473847
      vertex -2.11603 -2.5 0.612461
    endloop
  endfacet
  facet normal 0 -1 0
    outer loop
      vertex -5 -2.5 2.5
      vertex -2.46437 -2.5 0.324286
      vertex -2.29473 -2.5 0.473847
    endloop
  endfacet
  facet normal 0 -1 0
    outer loop
      vertex -5 -2.5 2.5
      vertex -2.62429 -2.5 0.164369
      vertex -2.46437 -2.5 0.324286
    endloop
  endfacet
  facet normal 0 -1 0
    outer loop
      vertex -5 -2.5 2.5
      vertex -2.77385 -2.5 -0.00527287
      vertex -2.62429 -2.5 0.164369
    endloop
  endfacet
  facet normal 0 -1 0
    outer loop
      vertex -5 -2.5 2.5
      vertex -2.91246 -2.5 -0.183972
      vertex -2.77385 -2.5 -0.00527287
    endloop
  endfacet
  facet normal 0 -1 0
    outer loop
      vertex -5 -2.5 2.5
      vertex -3.03958 -2.5 -0.371023
      vertex -2.91246 -2.5 -0.183972
    endloop
  endfacet
  facet normal 0 -1 0
    outer loop
      vertex -5 -2.5 2.5
      vertex -3.1547 -2.5 -0.565686
      vertex -3.03958 -2.5 -0.371023
    endloop
  endfacet
  facet normal 0 -1 0
    outer loop
      vertex -5 -2.5 2.5
      vertex -3.25738 -2.5 -0.767194
      vertex -3.1547 -2.5 -0.565686
    endloop
  endfacet
  facet normal 0 -1 0
    outer loop
      vertex -5 -2.5 2.5
      vertex -3.34719 -2.5 -0.974751
      vertex -3.25738 -2.5 -0.767194
    endloop
  endfacet
  facet normal 0 -1 0
    outer loop
      vertex -5 -2.5 -2.5
      vertex -3.34719 -2.5 -0.974751
      vertex -5 -2.5 2.5
    endloop
  endfacet
  facet normal 0 -1 0
    outer loop
      vertex -3.34719 -2.5 -0.974751
      vertex -5 -2.5 -2.5
      vertex -3.4238 -2.5 -1.18754
    endloop
  endfacet
  facet normal 0 -1 0
    outer loop
      vertex -3.4238 -2.5 -1.18754
      vertex -5 -2.5 -2.5
      vertex -3.4869 -2.5 -1.40472
    endloop
  endfacet
  facet normal 0 -1 0
    outer loop
      vertex -3.4869 -2.5 -1.40472
      vertex -5 -2.5 -2.5
      vertex -3.53623 -2.5 -1.62543
    endloop
  endfacet
  facet normal 0 -1 0
    outer loop
      vertex -3.53623 -2.5 -1.62543
      vertex -5 -2.5 -2.5
      vertex -3.57161 -2.5 -1.8488
    endloop
  endfacet
  facet normal 0 -1 0
    outer loop
      vertex -3.57161 -2.5 -1.8488
      vertex -5 -2.5 -2.5
      vertex -3.5929 -2.5 -2.07395
    endloop
  endfacet
  facet normal 0 -1 0
    outer loop
      vertex -3.5929 -2.5 -2.07395
      vertex -5 -2.5 -2.5
      vertex -3.6 -2.5 -2.3
    endloop
  endfacet
  facet normal 0 -1 -0
    outer loop
      vertex -3.6 -2.5 -2.3
      vertex -5 -2.5 -2.5
      vertex -3.59371 -2.5 -2.5
    endloop
  endfacet
  facet normal 0 -1 0
    outer loop
      vertex 0.226046 -2.5 1.2929
      vertex 5 -2.5 2.5
      vertex 0 -2.5 1.3
    endloop
  endfacet
  facet normal 0 -1 0
    outer loop
      vertex 0.4512 -2.5 1.27161
      vertex 5 -2.5 2.5
      vertex 0.226046 -2.5 1.2929
    endloop
  endfacet
  facet normal 0 -1 0
    outer loop
      vertex 0.674572 -2.5 1.23623
      vertex 5 -2.5 2.5
      vertex 0.4512 -2.5 1.27161
    endloop
  endfacet
  facet normal 0 -1 0
    outer loop
      vertex 0.895283 -2.5 1.1869
      vertex 5 -2.5 2.5
      vertex 0.674572 -2.5 1.23623
    endloop
  endfacet
  facet normal 0 -1 0
    outer loop
      vertex 1.11246 -2.5 1.1238
      vertex 5 -2.5 2.5
      vertex 0.895283 -2.5 1.1869
    endloop
  endfacet
  facet normal 0 -1 0
    outer loop
      vertex 1.32525 -2.5 1.04719
      vertex 5 -2.5 2.5
      vertex 1.11246 -2.5 1.1238
    endloop
  endfacet
  facet normal 0 -1 0
    outer loop
      vertex 1.53281 -2.5 0.957376
      vertex 5 -2.5 2.5
      vertex 1.32525 -2.5 1.04719
    endloop
  endfacet
  facet normal 0 -1 0
    outer loop
      vertex 1.73431 -2.5 0.854704
      vertex 5 -2.5 2.5
      vertex 1.53281 -2.5 0.957376
    endloop
  endfacet
  facet normal 0 -1 0
    outer loop
      vertex 1.92898 -2.5 0.73958
      vertex 5 -2.5 2.5
      vertex 1.73431 -2.5 0.854704
    endloop
  endfacet
  facet normal 0 -1 0
    outer loop
      vertex 2.11603 -2.5 0.612461
      vertex 5 -2.5 2.5
      vertex 1.92898 -2.5 0.73958
    endloop
  endfacet
  facet normal 0 -1 0
    outer loop
      vertex 2.29473 -2.5 0.473847
      vertex 5 -2.5 2.5
      vertex 2.11603 -2.5 0.612461
    endloop
  endfacet
  facet normal 0 -1 0
    outer loop
      vertex 2.46437 -2.5 0.324286
      vertex 5 -2.5 2.5
      vertex 2.29473 -2.5 0.473847
    endloop
  endfacet
  facet normal 0 -1 0
    outer loop
      vertex 2.62429 -2.5 0.164369
      vertex 5 -2.5 2.5
      vertex 2.46437 -2.5 0.324286
    endloop
  endfacet
  facet normal 0 -1 0
    outer loop
      vertex 2.77385 -2.5 -0.00527287
      vertex 5 -2.5 2.5
      vertex 2.62429 -2.5 0.164369
    endloop
  endfacet
  facet normal 0 -1 0
    outer loop
      vertex 2.91246 -2.5 -0.183972
      vertex 5 -2.5 2.5
      vertex 2.77385 -2.5 -0.00527287
    endloop
  endfacet
  facet normal 0 -1 0
    outer loop
      vertex 3.03958 -2.5 -0.371023
      vertex 5 -2.5 2.5
      vertex 2.91246 -2.5 -0.183972
    endloop
  endfacet
  facet normal 0 -1 0
    outer loop
      vertex 3.1547 -2.5 -0.565686
      vertex 5 -2.5 2.5
      vertex 3.03958 -2.5 -0.371023
    endloop
  endfacet
  facet normal 0 -1 0
    outer loop
      vertex 3.25738 -2.5 -0.767194
      vertex 5 -2.5 2.5
      vertex 3.1547 -2.5 -0.565686
    endloop
  endfacet
  facet normal 0 -1 0
    outer loop
      vertex 3.34719 -2.5 -0.974751
      vertex 5 -2.5 2.5
      vertex 3.25738 -2.5 -0.767194
    endloop
  endfacet
  facet normal 0 -1 0
    outer loop
      vertex 5 -2.5 -2.5
      vertex 3.34719 -2.5 -0.974751
      vertex 3.4238 -2.5 -1.18754
    endloop
  endfacet
  facet normal 0 -1 0
    outer loop
      vertex 5 -2.5 -2.5
      vertex 3.4238 -2.5 -1.18754
      vertex 3.4869 -2.5 -1.40472
    endloop
  endfacet
  facet normal 0 -1 0
    outer loop
      vertex 5 -2.5 -2.5
      vertex 3.4869 -2.5 -1.40472
      vertex 3.53623 -2.5 -1.62543
    endloop
  endfacet
  facet normal 0 -1 0
    outer loop
      vertex 5 -2.5 -2.5
      vertex 3.53623 -2.5 -1.62543
      vertex 3.57161 -2.5 -1.8488
    endloop
  endfacet
  facet normal 0 -1 0
    outer loop
      vertex 5 -2.5 -2.5
      vertex 3.57161 -2.5 -1.8488
      vertex 3.5929 -2.5 -2.07395
    endloop
  endfacet
  facet normal 0 -1 0
    outer loop
      vertex 5 -2.5 -2.5
      vertex 3.5929 -2.5 -2.07395
      vertex 3.6 -2.5 -2.3
    endloop
  endfacet
  facet normal 0 -1 0
    outer loop
      vertex 5 -2.5 -2.5
      vertex 3.6 -2.5 -2.3
      vertex 3.59371 -2.5 -2.5
    endloop
  endfacet
  facet normal 0 -1 0
    outer loop
      vertex 3.34719 -2.5 -0.974751
      vertex 5 -2.5 -2.5
      vertex 5 -2.5 2.5
    endloop
  endfacet
  facet normal -0.999507 0 -0.0313935
    outer loop
      vertex 3.6 -2.5 -2.3
      vertex 3.5929 2.5 -2.07395
      vertex 3.6 2.5 -2.3
    endloop
  endfacet
  facet normal -0.999507 -0 -0.0313935
    outer loop
      vertex 3.5929 2.5 -2.07395
      vertex 3.6 -2.5 -2.3
      vertex 3.5929 -2.5 -2.07395
    endloop
  endfacet
  facet normal -0.995559 0 -0.0941392
    outer loop
      vertex 3.5929 -2.5 -2.07395
      vertex 3.57161 2.5 -1.8488
      vertex 3.5929 2.5 -2.07395
    endloop
  endfacet
  facet normal -0.995559 -0 -0.0941392
    outer loop
      vertex 3.57161 2.5 -1.8488
      vertex 3.5929 -2.5 -2.07395
      vertex 3.57161 -2.5 -1.8488
    endloop
  endfacet
  facet normal 0.0313941 0 -0.999507
    outer loop
      vertex -0.226046 -2.5 1.2929
      vertex 0 2.5 1.3
      vertex 0 -2.5 1.3
    endloop
  endfacet
  facet normal 0.0313941 0 -0.999507
    outer loop
      vertex 0 2.5 1.3
      vertex -0.226046 -2.5 1.2929
      vertex -0.226046 2.5 1.2929
    endloop
  endfacet
  facet normal -0.66132 0 -0.750104
    outer loop
      vertex 2.29473 -2.5 0.473847
      vertex 2.46437 2.5 0.324286
      vertex 2.46437 -2.5 0.324286
    endloop
  endfacet
  facet normal -0.66132 0 -0.750104
    outer loop
      vertex 2.46437 2.5 0.324286
      vertex 2.29473 -2.5 0.473847
      vertex 2.29473 2.5 0.473847
    endloop
  endfacet
  facet normal 0.75011 0 -0.661313
    outer loop
      vertex -2.62429 -2.5 0.164369
      vertex -2.77385 2.5 -0.00527287
      vertex -2.62429 2.5 0.164369
    endloop
  endfacet
  facet normal 0.75011 0 -0.661313
    outer loop
      vertex -2.77385 2.5 -0.00527287
      vertex -2.62429 -2.5 0.164369
      vertex -2.77385 -2.5 -0.00527287
    endloop
  endfacet
  facet normal -0.917767 0 -0.397118
    outer loop
      vertex 3.34719 -2.5 -0.974751
      vertex 3.25738 2.5 -0.767194
      vertex 3.34719 2.5 -0.974751
    endloop
  endfacet
  facet normal -0.917767 -0 -0.397118
    outer loop
      vertex 3.25738 2.5 -0.767194
      vertex 3.34719 -2.5 -0.974751
      vertex 3.25738 -2.5 -0.767194
    endloop
  endfacet
  facet normal 0.860749 0 -0.50903
    outer loop
      vertex -3.03958 -2.5 -0.371023
      vertex -3.1547 2.5 -0.565686
      vertex -3.03958 2.5 -0.371023
    endloop
  endfacet
  facet normal 0.860749 0 -0.50903
    outer loop
      vertex -3.1547 2.5 -0.565686
      vertex -3.03958 -2.5 -0.371023
      vertex -3.1547 -2.5 -0.565686
    endloop
  endfacet
  facet normal 0.218123 0 -0.975921
    outer loop
      vertex -0.895283 -2.5 1.1869
      vertex -0.674572 2.5 1.23623
      vertex -0.674572 -2.5 1.23623
    endloop
  endfacet
  facet normal 0.218123 0 -0.975921
    outer loop
      vertex -0.674572 2.5 1.23623
      vertex -0.895283 -2.5 1.1869
      vertex -0.895283 2.5 1.1869
    endloop
  endfacet
  facet normal -0.975921 0 -0.218124
    outer loop
      vertex 3.53623 -2.5 -1.62543
      vertex 3.4869 2.5 -1.40472
      vertex 3.53623 2.5 -1.62543
    endloop
  endfacet
  facet normal -0.975921 -0 -0.218124
    outer loop
      vertex 3.4869 2.5 -1.40472
      vertex 3.53623 -2.5 -1.62543
      vertex 3.4869 -2.5 -1.40472
    endloop
  endfacet
  facet normal -0.15644 0 -0.987687
    outer loop
      vertex 0.4512 -2.5 1.27161
      vertex 0.674572 2.5 1.23623
      vertex 0.674572 -2.5 1.23623
    endloop
  endfacet
  facet normal -0.15644 0 -0.987687
    outer loop
      vertex 0.674572 2.5 1.23623
      vertex 0.4512 -2.5 1.27161
      vertex 0.4512 2.5 1.27161
    endloop
  endfacet
  facet normal -0.0941376 0 -0.995559
    outer loop
      vertex 0.226046 -2.5 1.2929
      vertex 0.4512 2.5 1.27161
      vertex 0.4512 -2.5 1.27161
    endloop
  endfacet
  facet normal -0.0941376 0 -0.995559
    outer loop
      vertex 0.4512 2.5 1.27161
      vertex 0.226046 -2.5 1.2929
      vertex 0.226046 2.5 1.2929
    endloop
  endfacet
  facet normal -0.612907 0 -0.790155
    outer loop
      vertex 2.11603 -2.5 0.612461
      vertex 2.29473 2.5 0.473847
      vertex 2.29473 -2.5 0.473847
    endloop
  endfacet
  facet normal -0.612907 0 -0.790155
    outer loop
      vertex 2.29473 2.5 0.473847
      vertex 2.11603 -2.5 0.612461
      vertex 2.11603 2.5 0.612461
    endloop
  endfacet
  facet normal 0.890995 0 -0.454013
    outer loop
      vertex -3.1547 -2.5 -0.565686
      vertex -3.25738 2.5 -0.767194
      vertex -3.1547 2.5 -0.565686
    endloop
  endfacet
  facet normal 0.890995 0 -0.454013
    outer loop
      vertex -3.25738 2.5 -0.767194
      vertex -3.1547 -2.5 -0.565686
      vertex -3.25738 -2.5 -0.767194
    endloop
  endfacet
  facet normal 0.987687 0 -0.156442
    outer loop
      vertex -3.53623 -2.5 -1.62543
      vertex -3.57161 2.5 -1.8488
      vertex -3.53623 2.5 -1.62543
    endloop
  endfacet
  facet normal 0.987687 0 -0.156442
    outer loop
      vertex -3.57161 2.5 -1.8488
      vertex -3.53623 -2.5 -1.62543
      vertex -3.57161 -2.5 -1.8488
    endloop
  endfacet
  facet normal 0.995559 0 -0.0941392
    outer loop
      vertex -3.57161 -2.5 -1.8488
      vertex -3.5929 2.5 -2.07395
      vertex -3.57161 2.5 -1.8488
    endloop
  endfacet
  facet normal 0.995559 0 -0.0941392
    outer loop
      vertex -3.5929 2.5 -2.07395
      vertex -3.57161 -2.5 -1.8488
      vertex -3.5929 -2.5 -2.07395
    endloop
  endfacet
  facet normal 0.612907 0 -0.790155
    outer loop
      vertex -2.29473 -2.5 0.473847
      vertex -2.11603 2.5 0.612461
      vertex -2.11603 -2.5 0.612461
    endloop
  endfacet
  facet normal 0.612907 0 -0.790155
    outer loop
      vertex -2.11603 2.5 0.612461
      vertex -2.29473 -2.5 0.473847
      vertex -2.29473 2.5 0.473847
    endloop
  endfacet
  facet normal 0.15644 0 -0.987687
    outer loop
      vertex -0.674572 -2.5 1.23623
      vertex -0.4512 2.5 1.27161
      vertex -0.4512 -2.5 1.27161
    endloop
  endfacet
  facet normal 0.15644 0 -0.987687
    outer loop
      vertex -0.4512 2.5 1.27161
      vertex -0.674572 -2.5 1.23623
      vertex -0.674572 2.5 1.23623
    endloop
  endfacet
  facet normal -0.987687 0 -0.156442
    outer loop
      vertex 3.57161 -2.5 -1.8488
      vertex 3.53623 2.5 -1.62543
      vertex 3.57161 2.5 -1.8488
    endloop
  endfacet
  facet normal -0.987687 -0 -0.156442
    outer loop
      vertex 3.53623 2.5 -1.62543
      vertex 3.57161 -2.5 -1.8488
      vertex 3.53623 -2.5 -1.62543
    endloop
  endfacet
  facet normal -0.96029 0 -0.279005
    outer loop
      vertex 3.4869 -2.5 -1.40472
      vertex 3.4238 2.5 -1.18754
      vertex 3.4869 2.5 -1.40472
    endloop
  endfacet
  facet normal -0.96029 -0 -0.279005
    outer loop
      vertex 3.4238 2.5 -1.18754
      vertex 3.4869 -2.5 -1.40472
      vertex 3.4238 -2.5 -1.18754
    endloop
  endfacet
  facet normal -0.7071 0 -0.707113
    outer loop
      vertex 2.62429 -2.5 0.164369
      vertex 2.46437 2.5 0.324286
      vertex 2.62429 2.5 0.164369
    endloop
  endfacet
  facet normal -0.7071 -0 -0.707113
    outer loop
      vertex 2.46437 2.5 0.324286
      vertex 2.62429 -2.5 0.164369
      vertex 2.46437 -2.5 0.324286
    endloop
  endfacet
  facet normal -0.790162 0 -0.612898
    outer loop
      vertex 2.91246 -2.5 -0.183972
      vertex 2.77385 2.5 -0.00527287
      vertex 2.91246 2.5 -0.183972
    endloop
  endfacet
  facet normal -0.790162 -0 -0.612898
    outer loop
      vertex 2.77385 2.5 -0.00527287
      vertex 2.91246 -2.5 -0.183972
      vertex 2.77385 -2.5 -0.00527287
    endloop
  endfacet
  facet normal -0.279008 0 -0.960289
    outer loop
      vertex 0.895283 -2.5 1.1869
      vertex 1.11246 2.5 1.1238
      vertex 1.11246 -2.5 1.1238
    endloop
  endfacet
  facet normal -0.279008 0 -0.960289
    outer loop
      vertex 1.11246 2.5 1.1238
      vertex 0.895283 -2.5 1.1869
      vertex 0.895283 2.5 1.1869
    endloop
  endfacet
  facet normal -0.0313941 0 -0.999507
    outer loop
      vertex 0 -2.5 1.3
      vertex 0.226046 2.5 1.2929
      vertex 0.226046 -2.5 1.2929
    endloop
  endfacet
  facet normal -0.0313941 0 -0.999507
    outer loop
      vertex 0.226046 2.5 1.2929
      vertex 0 -2.5 1.3
      vertex 0 2.5 1.3
    endloop
  endfacet
  facet normal -0.338741 0 -0.94088
    outer loop
      vertex 1.11246 -2.5 1.1238
      vertex 1.32525 2.5 1.04719
      vertex 1.32525 -2.5 1.04719
    endloop
  endfacet
  facet normal -0.338741 0 -0.94088
    outer loop
      vertex 1.32525 2.5 1.04719
      vertex 1.11246 -2.5 1.1238
      vertex 1.11246 2.5 1.1238
    endloop
  endfacet
  facet normal -0.454 0 -0.891002
    outer loop
      vertex 1.53281 -2.5 0.957376
      vertex 1.73431 2.5 0.854704
      vertex 1.73431 -2.5 0.854704
    endloop
  endfacet
  facet normal -0.454 0 -0.891002
    outer loop
      vertex 1.73431 2.5 0.854704
      vertex 1.53281 -2.5 0.957376
      vertex 1.53281 2.5 0.957376
    endloop
  endfacet
  facet normal -0.50903 0 -0.860749
    outer loop
      vertex 1.73431 -2.5 0.854704
      vertex 1.92898 2.5 0.73958
      vertex 1.92898 -2.5 0.73958
    endloop
  endfacet
  facet normal -0.50903 0 -0.860749
    outer loop
      vertex 1.92898 2.5 0.73958
      vertex 1.73431 -2.5 0.854704
      vertex 1.73431 2.5 0.854704
    endloop
  endfacet
  facet normal 0.82708 0 -0.562084
    outer loop
      vertex -2.91246 -2.5 -0.183972
      vertex -3.03958 2.5 -0.371023
      vertex -2.91246 2.5 -0.183972
    endloop
  endfacet
  facet normal 0.82708 0 -0.562084
    outer loop
      vertex -3.03958 2.5 -0.371023
      vertex -2.91246 -2.5 -0.183972
      vertex -3.03958 -2.5 -0.371023
    endloop
  endfacet
  facet normal 0.940879 0 -0.338743
    outer loop
      vertex -3.34719 -2.5 -0.974751
      vertex -3.4238 2.5 -1.18754
      vertex -3.34719 2.5 -0.974751
    endloop
  endfacet
  facet normal 0.940879 0 -0.338743
    outer loop
      vertex -3.4238 2.5 -1.18754
      vertex -3.34719 -2.5 -0.974751
      vertex -3.4238 -2.5 -1.18754
    endloop
  endfacet
  facet normal 0.96029 0 -0.279005
    outer loop
      vertex -3.4238 -2.5 -1.18754
      vertex -3.4869 2.5 -1.40472
      vertex -3.4238 2.5 -1.18754
    endloop
  endfacet
  facet normal 0.96029 0 -0.279005
    outer loop
      vertex -3.4869 2.5 -1.40472
      vertex -3.4238 -2.5 -1.18754
      vertex -3.4869 -2.5 -1.40472
    endloop
  endfacet
  facet normal 0.999507 0 -0.0313935
    outer loop
      vertex -3.5929 -2.5 -2.07395
      vertex -3.6 2.5 -2.3
      vertex -3.5929 2.5 -2.07395
    endloop
  endfacet
  facet normal 0.999507 0 -0.0313935
    outer loop
      vertex -3.6 2.5 -2.3
      vertex -3.5929 -2.5 -2.07395
      vertex -3.6 -2.5 -2.3
    endloop
  endfacet
  facet normal 0.999506 -0 0.0314345
    outer loop
      vertex -3.6 -2.5 -2.3
      vertex -3.59371 2.5 -2.5
      vertex -3.6 2.5 -2.3
    endloop
  endfacet
  facet normal 0.999506 0 0.0314345
    outer loop
      vertex -3.59371 2.5 -2.5
      vertex -3.6 -2.5 -2.3
      vertex -3.59371 -2.5 -2.5
    endloop
  endfacet
  facet normal 0.66132 0 -0.750104
    outer loop
      vertex -2.46437 -2.5 0.324286
      vertex -2.29473 2.5 0.473847
      vertex -2.29473 -2.5 0.473847
    endloop
  endfacet
  facet normal 0.66132 0 -0.750104
    outer loop
      vertex -2.29473 2.5 0.473847
      vertex -2.46437 -2.5 0.324286
      vertex -2.46437 2.5 0.324286
    endloop
  endfacet
  facet normal 0.562083 0 -0.827081
    outer loop
      vertex -2.11603 -2.5 0.612461
      vertex -1.92898 2.5 0.73958
      vertex -1.92898 -2.5 0.73958
    endloop
  endfacet
  facet normal 0.562083 0 -0.827081
    outer loop
      vertex -1.92898 2.5 0.73958
      vertex -2.11603 -2.5 0.612461
      vertex -2.11603 2.5 0.612461
    endloop
  endfacet
  facet normal 0.454 0 -0.891002
    outer loop
      vertex -1.73431 -2.5 0.854704
      vertex -1.53281 2.5 0.957376
      vertex -1.53281 -2.5 0.957376
    endloop
  endfacet
  facet normal 0.454 0 -0.891002
    outer loop
      vertex -1.53281 2.5 0.957376
      vertex -1.73431 -2.5 0.854704
      vertex -1.73431 2.5 0.854704
    endloop
  endfacet
  facet normal 0.279008 0 -0.960289
    outer loop
      vertex -1.11246 -2.5 1.1238
      vertex -0.895283 2.5 1.1869
      vertex -0.895283 -2.5 1.1869
    endloop
  endfacet
  facet normal 0.279008 0 -0.960289
    outer loop
      vertex -0.895283 2.5 1.1869
      vertex -1.11246 -2.5 1.1238
      vertex -1.11246 2.5 1.1238
    endloop
  endfacet
  facet normal 0.338741 0 -0.94088
    outer loop
      vertex -1.32525 -2.5 1.04719
      vertex -1.11246 2.5 1.1238
      vertex -1.11246 -2.5 1.1238
    endloop
  endfacet
  facet normal 0.338741 0 -0.94088
    outer loop
      vertex -1.11246 2.5 1.1238
      vertex -1.32525 -2.5 1.04719
      vertex -1.32525 2.5 1.04719
    endloop
  endfacet
  facet normal 0.0941376 0 -0.995559
    outer loop
      vertex -0.4512 -2.5 1.27161
      vertex -0.226046 2.5 1.2929
      vertex -0.226046 -2.5 1.2929
    endloop
  endfacet
  facet normal 0.0941376 0 -0.995559
    outer loop
      vertex -0.226046 2.5 1.2929
      vertex -0.4512 -2.5 1.27161
      vertex -0.4512 2.5 1.27161
    endloop
  endfacet
  facet normal -0.940879 0 -0.338743
    outer loop
      vertex 3.4238 -2.5 -1.18754
      vertex 3.34719 2.5 -0.974751
      vertex 3.4238 2.5 -1.18754
    endloop
  endfacet
  facet normal -0.940879 -0 -0.338743
    outer loop
      vertex 3.34719 2.5 -0.974751
      vertex 3.4238 -2.5 -1.18754
      vertex 3.34719 -2.5 -0.974751
    endloop
  endfacet
  facet normal -0.75011 0 -0.661313
    outer loop
      vertex 2.77385 -2.5 -0.00527287
      vertex 2.62429 2.5 0.164369
      vertex 2.77385 2.5 -0.00527287
    endloop
  endfacet
  facet normal -0.75011 -0 -0.661313
    outer loop
      vertex 2.62429 2.5 0.164369
      vertex 2.77385 -2.5 -0.00527287
      vertex 2.62429 -2.5 0.164369
    endloop
  endfacet
  facet normal -0.82708 0 -0.562084
    outer loop
      vertex 3.03958 -2.5 -0.371023
      vertex 2.91246 2.5 -0.183972
      vertex 3.03958 2.5 -0.371023
    endloop
  endfacet
  facet normal -0.82708 -0 -0.562084
    outer loop
      vertex 2.91246 2.5 -0.183972
      vertex 3.03958 -2.5 -0.371023
      vertex 2.91246 -2.5 -0.183972
    endloop
  endfacet
  facet normal -0.890995 0 -0.454013
    outer loop
      vertex 3.25738 -2.5 -0.767194
      vertex 3.1547 2.5 -0.565686
      vertex 3.25738 2.5 -0.767194
    endloop
  endfacet
  facet normal -0.890995 -0 -0.454013
    outer loop
      vertex 3.1547 2.5 -0.565686
      vertex 3.25738 -2.5 -0.767194
      vertex 3.1547 -2.5 -0.565686
    endloop
  endfacet
  facet normal -0.860749 0 -0.50903
    outer loop
      vertex 3.1547 -2.5 -0.565686
      vertex 3.03958 2.5 -0.371023
      vertex 3.1547 2.5 -0.565686
    endloop
  endfacet
  facet normal -0.860749 -0 -0.50903
    outer loop
      vertex 3.03958 2.5 -0.371023
      vertex 3.1547 -2.5 -0.565686
      vertex 3.03958 -2.5 -0.371023
    endloop
  endfacet
  facet normal -0.218123 0 -0.975921
    outer loop
      vertex 0.674572 -2.5 1.23623
      vertex 0.895283 2.5 1.1869
      vertex 0.895283 -2.5 1.1869
    endloop
  endfacet
  facet normal -0.218123 0 -0.975921
    outer loop
      vertex 0.895283 2.5 1.1869
      vertex 0.674572 -2.5 1.23623
      vertex 0.674572 2.5 1.23623
    endloop
  endfacet
  facet normal -0.397128 0 -0.917763
    outer loop
      vertex 1.32525 -2.5 1.04719
      vertex 1.53281 2.5 0.957376
      vertex 1.53281 -2.5 0.957376
    endloop
  endfacet
  facet normal -0.397128 0 -0.917763
    outer loop
      vertex 1.53281 2.5 0.957376
      vertex 1.32525 -2.5 1.04719
      vertex 1.32525 2.5 1.04719
    endloop
  endfacet
  facet normal -0.562083 0 -0.827081
    outer loop
      vertex 1.92898 -2.5 0.73958
      vertex 2.11603 2.5 0.612461
      vertex 2.11603 -2.5 0.612461
    endloop
  endfacet
  facet normal -0.562083 0 -0.827081
    outer loop
      vertex 2.11603 2.5 0.612461
      vertex 1.92898 -2.5 0.73958
      vertex 1.92898 2.5 0.73958
    endloop
  endfacet
  facet normal 0.790162 0 -0.612898
    outer loop
      vertex -2.77385 -2.5 -0.00527287
      vertex -2.91246 2.5 -0.183972
      vertex -2.77385 2.5 -0.00527287
    endloop
  endfacet
  facet normal 0.790162 0 -0.612898
    outer loop
      vertex -2.91246 2.5 -0.183972
      vertex -2.77385 -2.5 -0.00527287
      vertex -2.91246 -2.5 -0.183972
    endloop
  endfacet
  facet normal 0.917767 0 -0.397118
    outer loop
      vertex -3.25738 -2.5 -0.767194
      vertex -3.34719 2.5 -0.974751
      vertex -3.25738 2.5 -0.767194
    endloop
  endfacet
  facet normal 0.917767 0 -0.397118
    outer loop
      vertex -3.34719 2.5 -0.974751
      vertex -3.25738 -2.5 -0.767194
      vertex -3.34719 -2.5 -0.974751
    endloop
  endfacet
  facet normal 0.975921 0 -0.218124
    outer loop
      vertex -3.4869 -2.5 -1.40472
      vertex -3.53623 2.5 -1.62543
      vertex -3.4869 2.5 -1.40472
    endloop
  endfacet
  facet normal 0.975921 0 -0.218124
    outer loop
      vertex -3.53623 2.5 -1.62543
      vertex -3.4869 -2.5 -1.40472
      vertex -3.53623 -2.5 -1.62543
    endloop
  endfacet
  facet normal 0.7071 0 -0.707113
    outer loop
      vertex -2.46437 -2.5 0.324286
      vertex -2.62429 2.5 0.164369
      vertex -2.46437 2.5 0.324286
    endloop
  endfacet
  facet normal 0.7071 0 -0.707113
    outer loop
      vertex -2.62429 2.5 0.164369
      vertex -2.46437 -2.5 0.324286
      vertex -2.62429 -2.5 0.164369
    endloop
  endfacet
  facet normal 0.50903 0 -0.860749
    outer loop
      vertex -1.92898 -2.5 0.73958
      vertex -1.73431 2.5 0.854704
      vertex -1.73431 -2.5 0.854704
    endloop
  endfacet
  facet normal 0.50903 0 -0.860749
    outer loop
      vertex -1.73431 2.5 0.854704
      vertex -1.92898 -2.5 0.73958
      vertex -1.92898 2.5 0.73958
    endloop
  endfacet
  facet normal 0.397128 0 -0.917763
    outer loop
      vertex -1.53281 -2.5 0.957376
      vertex -1.32525 2.5 1.04719
      vertex -1.32525 -2.5 1.04719
    endloop
  endfacet
  facet normal 0.397128 0 -0.917763
    outer loop
      vertex -1.32525 2.5 1.04719
      vertex -1.53281 -2.5 0.957376
      vertex -1.53281 2.5 0.957376
    endloop
  endfacet
  facet normal -0.999506 0 0.0314345
    outer loop
      vertex 3.59371 -2.5 -2.5
      vertex 3.6 2.5 -2.3
      vertex 3.59371 2.5 -2.5
    endloop
  endfacet
  facet normal -0.999506 0 0.0314345
    outer loop
      vertex 3.6 2.5 -2.3
      vertex 3.59371 -2.5 -2.5
      vertex 3.6 -2.5 -2.3
    endloop
  endfacet
endsolid OpenSCAD_Model
