solid OpenSCAD_Model
  facet normal -1 0 0
    outer loop
      vertex -5 -2.5 -2.5
      vertex -5 2.5 2.5
      vertex -5 2.5 -2.5
    endloop
  endfacet
  facet normal -1 -0 0
    outer loop
      vertex -5 2.5 2.5
      vertex -5 -2.5 -2.5
      vertex -5 -2.5 2.5
    endloop
  endfacet
  facet normal -0 0 1
    outer loop
      vertex -5 2.5 2.5
      vertex 5 -2.5 2.5
      vertex 5 2.5 2.5
    endloop
  endfacet
  facet normal 0 0 1
    outer loop
      vertex 5 -2.5 2.5
      vertex -5 2.5 2.5
      vertex -5 -2.5 2.5
    endloop
  endfacet
  facet normal 1 -0 0
    outer loop
      vertex 5 -2.5 2.5
      vertex 5 2.5 -2.5
      vertex 5 2.5 2.5
    endloop
  endfacet
  facet normal 1 0 0
    outer loop
      vertex 5 2.5 -2.5
      vertex 5 -2.5 2.5
      vertex 5 -2.5 -2.5
    endloop
  endfacet
  facet normal 0 0 -1
    outer loop
      vertex -5 -2.5 -2.5
      vertex -3.79686 2.5 -2.5
      vertex -3.79686 -2.5 -2.5
    endloop
  endfacet
  facet normal -0 0 -1
    outer loop
      vertex -3.79686 2.5 -2.5
      vertex -5 -2.5 -2.5
      vertex -5 2.5 -2.5
    endloop
  endfacet
  facet normal 0 0 -1
    outer loop
      vertex 3.79686 -2.5 -2.5
      vertex 5 2.5 -2.5
      vertex 5 -2.5 -2.5
    endloop
  endfacet
  facet normal -0 0 -1
    outer loop
      vertex 5 2.5 -2.5
      vertex 3.79686 -2.5 -2.5
      vertex 3.79686 2.5 -2.5
    endloop
  endfacet
  facet normal 0 -1 0
    outer loop
      vertex -5 -2.5 2.5
      vertex 0 -2.5 1.4
      vertex 5 -2.5 2.5
    endloop
  endfacet
  facet normal 0 -1 0
    outer loop
      vertex -5 -2.5 2.5
      vertex -0.238604 -2.5 1.3925
      vertex 0 -2.5 1.4
    endloop
  endfacet
  facet normal 0 -1 0
    outer loop
      vertex -5 -2.5 2.5
      vertex -0.476266 -2.5 1.37004
      vertex -0.238604 -2.5 1.3925
    endloop
  endfacet
  facet normal 0 -1 0
    outer loop
      vertex -5 -2.5 2.5
      vertex -0.712049 -2.5 1.33269
      vertex -0.476266 -2.5 1.37004
    endloop
  endfacet
  facet normal 0 -1 0
    outer loop
      vertex -5 -2.5 2.5
      vertex -0.945021 -2.5 1.28062
      vertex -0.712049 -2.5 1.33269
    endloop
  endfacet
  facet normal 0 -1 0
    outer loop
      vertex -5 -2.5 2.5
      vertex -1.17426 -2.5 1.21401
      vertex -0.945021 -2.5 1.28062
    endloop
  endfacet
  facet normal 0 -1 0
    outer loop
      vertex -5 -2.5 2.5
      vertex -1.39887 -2.5 1.13315
      vertex -1.17426 -2.5 1.21401
    endloop
  endfacet
  facet normal 0 -1 0
    outer loop
      vertex -5 -2.5 2.5
      vertex -1.61796 -2.5 1.03834
      vertex -1.39887 -2.5 1.13315
    endloop
  endfacet
  facet normal 0 -1 0
    outer loop
      vertex -5 -2.5 2.5
      vertex -1.83066 -2.5 0.929965
      vertex -1.61796 -2.5 1.03834
    endloop
  endfacet
  facet normal 0 -1 0
    outer loop
      vertex -5 -2.5 2.5
      vertex -2.03614 -2.5 0.808446
      vertex -1.83066 -2.5 0.929965
    endloop
  endfacet
  facet normal 0 -1 0
    outer loop
      vertex -5 -2.5 2.5
      vertex -2.23358 -2.5 0.674264
      vertex -2.03614 -2.5 0.808446
    endloop
  endfacet
  facet normal 0 -1 0
    outer loop
      vertex -5 -2.5 2.5
      vertex -2.42221 -2.5 0.52795
      vertex -2.23358 -2.5 0.674264
    endloop
  endfacet
  facet normal 0 -1 0
    outer loop
      vertex -5 -2.5 2.5
      vertex -2.60128 -2.5 0.37008
      vertex -2.42221 -2.5 0.52795
    endloop
  endfacet
  facet normal 0 -1 0
    outer loop
      vertex -5 -2.5 2.5
      vertex -2.77008 -2.5 0.201279
      vertex -2.60128 -2.5 0.37008
    endloop
  endfacet
  facet normal 0 -1 0
    outer loop
      vertex -5 -2.5 2.5
      vertex -2.92795 -2.5 0.0222111
      vertex -2.77008 -2.5 0.201279
    endloop
  endfacet
  facet normal 0 -1 0
    outer loop
      vertex -5 -2.5 2.5
      vertex -3.07426 -2.5 -0.166415
      vertex -2.92795 -2.5 0.0222111
    endloop
  endfacet
  facet normal 0 -1 0
    outer loop
      vertex -5 -2.5 2.5
      vertex -3.20845 -2.5 -0.363857
      vertex -3.07426 -2.5 -0.166415
    endloop
  endfacet
  facet normal 0 -1 0
    outer loop
      vertex -5 -2.5 2.5
      vertex -3.32996 -2.5 -0.569336
      vertex -3.20845 -2.5 -0.363857
    endloop
  endfacet
  facet normal 0 -1 0
    outer loop
      vertex -5 -2.5 2.5
      vertex -3.43834 -2.5 -0.782039
      vertex -3.32996 -2.5 -0.569336
    endloop
  endfacet
  facet normal 0 -1 0
    outer loop
      vertex -5 -2.5 2.5
      vertex -3.53315 -2.5 -1.00113
      vertex -3.43834 -2.5 -0.782039
    endloop
  endfacet
  facet normal 0 -1 0
    outer loop
      vertex -5 -2.5 -2.5
      vertex -3.53315 -2.5 -1.00113
      vertex -5 -2.5 2.5
    endloop
  endfacet
  facet normal 0 -1 0
    outer loop
      vertex -3.53315 -2.5 -1.00113
      vertex -5 -2.5 -2.5
      vertex -3.61401 -2.5 -1.22573
    endloop
  endfacet
  facet normal 0 -1 0
    outer loop
      vertex -3.61401 -2.5 -1.22573
      vertex -5 -2.5 -2.5
      vertex -3.68062 -2.5 -1.45498
    endloop
  endfacet
  facet normal 0 -1 0
    outer loop
      vertex -3.68062 -2.5 -1.45498
      vertex -5 -2.5 -2.5
      vertex -3.73269 -2.5 -1.68795
    endloop
  endfacet
  facet normal 0 -1 0
    outer loop
      vertex -3.73269 -2.5 -1.68795
      vertex -5 -2.5 -2.5
      vertex -3.77004 -2.5 -1.92373
    endloop
  endfacet
  facet normal 0 -1 0
    outer loop
      vertex -3.77004 -2.5 -1.92373
      vertex -5 -2.5 -2.5
      vertex -3.7925 -2.5 -2.1614
    endloop
  endfacet
  facet normal 0 -1 0
    outer loop
      vertex -3.7925 -2.5 -2.1614
      vertex -5 -2.5 -2.5
      vertex -3.8 -2.5 -2.4
    endloop
  endfacet
  facet normal 0 -1 -0
    outer loop
      vertex -3.8 -2.5 -2.4
      vertex -5 -2.5 -2.5
      vertex -3.79686 -2.5 -2.5
    endloop
  endfacet
  facet normal 0 -1 0
    outer loop
      vertex 0.238604 -2.5 1.3925
      vertex 5 -2.5 2.5
      vertex 0 -2.5 1.4
    endloop
  endfacet
  facet normal 0 -1 0
    outer loop
      vertex 0.476266 -2.5 1.37004
      vertex 5 -2.5 2.5
      vertex 0.238604 -2.5 1.3925
    endloop
  endfacet
  facet normal 0 -1 0
    outer loop
      vertex 0.712049 -2.5 1.33269
      vertex 5 -2.5 2.5
      vertex 0.476266 -2.5 1.37004
    endloop
  endfacet
  facet normal 0 -1 0
    outer loop
      vertex 0.945021 -2.5 1.28062
      vertex 5 -2.5 2.5
      vertex 0.712049 -2.5 1.33269
    endloop
  endfacet
  facet normal 0 -1 0
    outer loop
      vertex 1.17426 -2.5 1.21401
      vertex 5 -2.5 2.5
      vertex 0.945021 -2.5 1.28062
    endloop
  endfacet
  facet normal 0 -1 0
    outer loop
      vertex 1.39887 -2.5 1.13315
      vertex 5 -2.5 2.5
      vertex 1.17426 -2.5 1.21401
    endloop
  endfacet
  facet normal 0 -1 0
    outer loop
      vertex 1.61796 -2.5 1.03834
      vertex 5 -2.5 2.5
      vertex 1.39887 -2.5 1.13315
    endloop
  endfacet
  facet normal 0 -1 0
    outer loop
      vertex 1.83066 -2.5 0.929965
      vertex 5 -2.5 2.5
      vertex 1.61796 -2.5 1.03834
    endloop
  endfacet
  facet normal 0 -1 0
    outer loop
      vertex 2.03614 -2.5 0.808446
      vertex 5 -2.5 2.5
      vertex 1.83066 -2.5 0.929965
    endloop
  endfacet
  facet normal 0 -1 0
    outer loop
      vertex 2.23358 -2.5 0.674264
      vertex 5 -2.5 2.5
      vertex 2.03614 -2.5 0.808446
    endloop
  endfacet
  facet normal 0 -1 0
    outer loop
      vertex 2.42221 -2.5 0.52795
      vertex 5 -2.5 2.5
      vertex 2.23358 -2.5 0.674264
    endloop
  endfacet
  facet normal 0 -1 0
    outer loop
      vertex 2.60128 -2.5 0.37008
      vertex 5 -2.5 2.5
      vertex 2.42221 -2.5 0.52795
    endloop
  endfacet
  facet normal 0 -1 0
    outer loop
      vertex 2.77008 -2.5 0.201279
      vertex 5 -2.5 2.5
      vertex 2.60128 -2.5 0.37008
    endloop
  endfacet
  facet normal 0 -1 0
    outer loop
      vertex 2.92795 -2.5 0.0222111
      vertex 5 -2.5 2.5
      vertex 2.77008 -2.5 0.201279
    endloop
  endfacet
  facet normal 0 -1 0
    outer loop
      vertex 3.07426 -2.5 -0.166415
      vertex 5 -2.5 2.5
      vertex 2.92795 -2.5 0.0222111
    endloop
  endfacet
  facet normal 0 -1 0
    outer loop
      vertex 3.20845 -2.5 -0.363857
      vertex 5 -2.5 2.5
      vertex 3.07426 -2.5 -0.166415
    endloop
  endfacet
  facet normal 0 -1 0
    outer loop
      vertex 3.32996 -2.5 -0.569336
      vertex 5 -2.5 2.5
      vertex 3.20845 -2.5 -0.363857
    endloop
  endfacet
  facet normal 0 -1 0
    outer loop
      vertex 3.43834 -2.5 -0.782039
      vertex 5 -2.5 2.5
      vertex 3.32996 -2.5 -0.569336
    endloop
  endfacet
  facet normal 0 -1 0
    outer loop
      vertex 3.53315 -2.5 -1.00113
      vertex 5 -2.5 2.5
      vertex 3.43834 -2.5 -0.782039
    endloop
  endfacet
  facet normal 0 -1 0
    outer loop
      vertex 5 -2.5 -2.5
      vertex 3.53315 -2.5 -1.00113
      vertex 3.61401 -2.5 -1.22573
    endloop
  endfacet
  facet normal 0 -1 0
    outer loop
      vertex 5 -2.5 -2.5
      vertex 3.61401 -2.5 -1.22573
      vertex 3.68062 -2.5 -1.45498
    endloop
  endfacet
  facet normal 0 -1 0
    outer loop
      vertex 5 -2.5 -2.5
      vertex 3.68062 -2.5 -1.45498
      vertex 3.73269 -2.5 -1.68795
    endloop
  endfacet
  facet normal 0 -1 0
    outer loop
      vertex 5 -2.5 -2.5
      vertex 3.73269 -2.5 -1.68795
      vertex 3.77004 -2.5 -1.92373
    endloop
  endfacet
  facet normal 0 -1 0
    outer loop
      vertex 5 -2.5 -2.5
      vertex 3.77004 -2.5 -1.92373
      vertex 3.7925 -2.5 -2.1614
    endloop
  endfacet
  facet normal 0 -1 0
    outer loop
      vertex 5 -2.5 -2.5
      vertex 3.7925 -2.5 -2.1614
      vertex 3.8 -2.5 -2.4
    endloop
  endfacet
  facet normal 0 -1 0
    outer loop
      vertex 5 -2.5 -2.5
      vertex 3.8 -2.5 -2.4
      vertex 3.79686 -2.5 -2.5
    endloop
  endfacet
  facet normal 0 -1 0
    outer loop
      vertex 3.53315 -2.5 -1.00113
      vertex 5 -2.5 -2.5
      vertex 5 -2.5 2.5
    endloop
  endfacet
  facet normal 0 1 0
    outer loop
      vertex 5 2.5 2.5
      vertex 0 2.5 1.4
      vertex -5 2.5 2.5
    endloop
  endfacet
  facet normal 0 1 0
    outer loop
      vertex 5 2.5 2.5
      vertex 0.238604 2.5 1.3925
      vertex 0 2.5 1.4
    endloop
  endfacet
  facet normal 0 1 0
    outer loop
      vertex 5 2.5 2.5
      vertex 0.476266 2.5 1.37004
      vertex 0.238604 2.5 1.3925
    endloop
  endfacet
  facet normal 0 1 0
    outer loop
      vertex 5 2.5 2.5
      vertex 0.712049 2.5 1.33269
      vertex 0.476266 2.5 1.37004
    endloop
  endfacet
  facet normal 0 1 0
    outer loop
      vertex 5 2.5 2.5
      vertex 0.945021 2.5 1.28062
      vertex 0.712049 2.5 1.33269
    endloop
  endfacet
  facet normal 0 1 0
    outer loop
      vertex 5 2.5 2.5
      vertex 1.17426 2.5 1.21401
      vertex 0.945021 2.5 1.28062
    endloop
  endfacet
  facet normal 0 1 0
    outer loop
      vertex 5 2.5 2.5
      vertex 1.39887 2.5 1.13315
      vertex 1.17426 2.5 1.21401
    endloop
  endfacet
  facet normal 0 1 0
    outer loop
      vertex 5 2.5 2.5
      vertex 1.61796 2.5 1.03834
      vertex 1.39887 2.5 1.13315
    endloop
  endfacet
  facet normal 0 1 0
    outer loop
      vertex 5 2.5 2.5
      vertex 1.83066 2.5 0.929965
      vertex 1.61796 2.5 1.03834
    endloop
  endfacet
  facet normal 0 1 0
    outer loop
      vertex 5 2.5 2.5
      vertex 2.03614 2.5 0.808446
      vertex 1.83066 2.5 0.929965
    endloop
  endfacet
  facet normal 0 1 0
    outer loop
      vertex 5 2.5 2.5
      vertex 2.23358 2.5 0.674264
      vertex 2.03614 2.5 0.808446
    endloop
  endfacet
  facet normal 0 1 0
    outer loop
      vertex 5 2.5 2.5
      vertex 2.42221 2.5 0.52795
      vertex 2.23358 2.5 0.674264
    endloop
  endfacet
  facet normal 0 1 0
    outer loop
      vertex 5 2.5 2.5
      vertex 2.60128 2.5 0.37008
      vertex 2.42221 2.5 0.52795
    endloop
  endfacet
  facet normal 0 1 0
    outer loop
      vertex 5 2.5 2.5
      vertex 2.77008 2.5 0.201279
      vertex 2.60128 2.5 0.37008
    endloop
  endfacet
  facet normal 0 1 0
    outer loop
      vertex 5 2.5 2.5
      vertex 2.92795 2.5 0.0222111
      vertex 2.77008 2.5 0.201279
    endloop
  endfacet
  facet normal 0 1 0
    outer loop
      vertex 5 2.5 2.5
      vertex 3.07426 2.5 -0.166415
      vertex 2.92795 2.5 0.0222111
    endloop
  endfacet
  facet normal 0 1 0
    outer loop
      vertex 5 2.5 2.5
      vertex 3.20845 2.5 -0.363857
      vertex 3.07426 2.5 -0.166415
    endloop
  endfacet
  facet normal 0 1 0
    outer loop
      vertex 5 2.5 2.5
      vertex 3.32996 2.5 -0.569336
      vertex 3.20845 2.5 -0.363857
    endloop
  endfacet
  facet normal 0 1 0
    outer loop
      vertex 5 2.5 2.5
      vertex 3.43834 2.5 -0.782039
      vertex 3.32996 2.5 -0.569336
    endloop
  endfacet
  facet normal 0 1 0
    outer loop
      vertex 5 2.5 2.5
      vertex 3.53315 2.5 -1.00113
      vertex 3.43834 2.5 -0.782039
    endloop
  endfacet
  facet normal 0 1 -0
    outer loop
      vertex 5 2.5 -2.5
      vertex 3.53315 2.5 -1.00113
      vertex 5 2.5 2.5
    endloop
  endfacet
  facet normal 0 1 0
    outer loop
      vertex 3.53315 2.5 -1.00113
      vertex 5 2.5 -2.5
      vertex 3.61401 2.5 -1.22573
    endloop
  endfacet
  facet normal 0 1 0
    outer loop
      vertex 3.61401 2.5 -1.22573
      vertex 5 2.5 -2.5
      vertex 3.68062 2.5 -1.45498
    endloop
  endfacet
  facet normal 0 1 0
    outer loop
      vertex 3.68062 2.5 -1.45498
      vertex 5 2.5 -2.5
      vertex 3.73269 2.5 -1.68795
    endloop
  endfacet
  facet normal 0 1 0
    outer loop
      vertex 3.73269 2.5 -1.68795
      vertex 5 2.5 -2.5
      vertex 3.77004 2.5 -1.92373
    endloop
  endfacet
  facet normal 0 1 0
    outer loop
      vertex 3.77004 2.5 -1.92373
      vertex 5 2.5 -2.5
      vertex 3.7925 2.5 -2.1614
    endloop
  endfacet
  facet normal 0 1 0
    outer loop
      vertex 3.7925 2.5 -2.1614
      vertex 5 2.5 -2.5
      vertex 3.8 2.5 -2.4
    endloop
  endfacet
  facet normal 0 1 0
    outer loop
      vertex 3.8 2.5 -2.4
      vertex 5 2.5 -2.5
      vertex 3.79686 2.5 -2.5
    endloop
  endfacet
  facet normal 0 1 -0
    outer loop
      vertex -0.238604 2.5 1.3925
      vertex -5 2.5 2.5
      vertex 0 2.5 1.4
    endloop
  endfacet
  facet normal 0 1 -0
    outer loop
      vertex -0.476266 2.5 1.37004
      vertex -5 2.5 2.5
      vertex -0.238604 2.5 1.3925
    endloop
  endfacet
  facet normal 0 1 -0
    outer loop
      vertex -0.712049 2.5 1.33269
      vertex -5 2.5 2.5
      vertex -0.476266 2.5 1.37004
    endloop
  endfacet
  facet normal 0 1 -0
    outer loop
      vertex -0.945021 2.5 1.28062
      vertex -5 2.5 2.5
      vertex -0.712049 2.5 1.33269
    endloop
  endfacet
  facet normal 0 1 -0
    outer loop
      vertex -1.17426 2.5 1.21401
      vertex -5 2.5 2.5
      vertex -0.945021 2.5 1.28062
    endloop
  endfacet
  facet normal 0 1 -0
    outer loop
      vertex -1.39887 2.5 1.13315
      vertex -5 2.5 2.5
      vertex -1.17426 2.5 1.21401
    endloop
  endfacet
  facet normal 0 1 -0
    outer loop
      vertex -1.61796 2.5 1.03834
      vertex -5 2.5 2.5
      vertex -1.39887 2.5 1.13315
    endloop
  endfacet
  facet normal 0 1 -0
    outer loop
      vertex -1.83066 2.5 0.929965
      vertex -5 2.5 2.5
      vertex -1.61796 2.5 1.03834
    endloop
  endfacet
  facet normal 0 1 -0
    outer loop
      vertex -2.03614 2.5 0.808446
      vertex -5 2.5 2.5
      vertex -1.83066 2.5 0.929965
    endloop
  endfacet
  facet normal 0 1 -0
    outer loop
      vertex -2.23358 2.5 0.674264
      vertex -5 2.5 2.5
      vertex -2.03614 2.5 0.808446
    endloop
  endfacet
  facet normal 0 1 -0
    outer loop
      vertex -2.42221 2.5 0.52795
      vertex -5 2.5 2.5
      vertex -2.23358 2.5 0.674264
    endloop
  endfacet
  facet normal 0 1 -0
    outer loop
      vertex -2.60128 2.5 0.37008
      vertex -5 2.5 2.5
      vertex -2.42221 2.5 0.52795
    endloop
  endfacet
  facet normal 0 1 -0
    outer loop
      vertex -2.77008 2.5 0.201279
      vertex -5 2.5 2.5
      vertex -2.60128 2.5 0.37008
    endloop
  endfacet
  facet normal 0 1 -0
    outer loop
      vertex -2.92795 2.5 0.0222111
      vertex -5 2.5 2.5
      vertex -2.77008 2.5 0.201279
    endloop
  endfacet
  facet normal 0 1 -0
    outer loop
      vertex -3.07426 2.5 -0.166415
      vertex -5 2.5 2.5
      vertex -2.92795 2.5 0.0222111
    endloop
  endfacet
  facet normal 0 1 -0
    outer loop
      vertex -3.20845 2.5 -0.363857
      vertex -5 2.5 2.5
      vertex -3.07426 2.5 -0.166415
    endloop
  endfacet
  facet normal 0 1 -0
    outer loop
      vertex -3.32996 2.5 -0.569336
      vertex -5 2.5 2.5
      vertex -3.20845 2.5 -0.363857
    endloop
  endfacet
  facet normal 0 1 -0
    outer loop
      vertex -3.43834 2.5 -0.782039
      vertex -5 2.5 2.5
      vertex -3.32996 2.5 -0.569336
    endloop
  endfacet
  facet normal 0 1 -0
    outer loop
      vertex -3.53315 2.5 -1.00113
      vertex -5 2.5 2.5
      vertex -3.43834 2.5 -0.782039
    endloop
  endfacet
  facet normal 0 1 0
    outer loop
      vertex -5 2.5 -2.5
      vertex -3.53315 2.5 -1.00113
      vertex -3.61401 2.5 -1.22573
    endloop
  endfacet
  facet normal 0 1 0
    outer loop
      vertex -5 2.5 -2.5
      vertex -3.61401 2.5 -1.22573
      vertex -3.68062 2.5 -1.45498
    endloop
  endfacet
  facet normal 0 1 0
    outer loop
      vertex -5 2.5 -2.5
      vertex -3.68062 2.5 -1.45498
      vertex -3.73269 2.5 -1.68795
    endloop
  endfacet
  facet normal 0 1 0
    outer loop
      vertex -5 2.5 -2.5
      vertex -3.73269 2.5 -1.68795
      vertex -3.77004 2.5 -1.92373
    endloop
  endfacet
  facet normal 0 1 0
    outer loop
      vertex -5 2.5 -2.5
      vertex -3.77004 2.5 -1.92373
      vertex -3.7925 2.5 -2.1614
    endloop
  endfacet
  facet normal 0 1 0
    outer loop
      vertex -5 2.5 -2.5
      vertex -3.7925 2.5 -2.1614
      vertex -3.8 2.5 -2.4
    endloop
  endfacet
  facet normal 0 1 0
    outer loop
      vertex -5 2.5 -2.5
      vertex -3.8 2.5 -2.4
      vertex -3.79686 2.5 -2.5
    endloop
  endfacet
  facet normal 0 1 0
    outer loop
      vertex -3.53315 2.5 -1.00113
      vertex -5 2.5 -2.5
      vertex -5 2.5 2.5
    endloop
  endfacet
  facet normal -0.999506 0 -0.0314178
    outer loop
      vertex 3.8 -2.5 -2.4
      vertex 3.7925 2.5 -2.1614
      vertex 3.8 2.5 -2.4
    endloop
  endfacet
  facet normal -0.999506 -0 -0.0314178
    outer loop
      vertex 3.7925 2.5 -2.1614
      vertex 3.8 -2.5 -2.4
      vertex 3.7925 -2.5 -2.1614
    endloop
  endfacet
  facet normal -0.995564 0 -0.0940816
    outer loop
      vertex 3.7925 -2.5 -2.1614
      vertex 3.77004 2.5 -1.92373
      vertex 3.7925 2.5 -2.1614
    endloop
  endfacet
  facet normal -0.995564 -0 -0.0940816
    outer loop
      vertex 3.77004 2.5 -1.92373
      vertex 3.7925 -2.5 -2.1614
      vertex 3.77004 -2.5 -1.92373
    endloop
  endfacet
  facet normal 0.999506 0 -0.0314178
    outer loop
      vertex -3.7925 -2.5 -2.1614
      vertex -3.8 2.5 -2.4
      vertex -3.7925 2.5 -2.1614
    endloop
  endfacet
  facet normal 0.999506 0 -0.0314178
    outer loop
      vertex -3.8 2.5 -2.4
      vertex -3.7925 -2.5 -2.1614
      vertex -3.8 -2.5 -2.4
    endloop
  endfacet
  facet normal -0.0314173 0 -0.999506
    outer loop
      vertex 0 -2.5 1.4
      vertex 0.238604 2.5 1.3925
      vertex 0.238604 -2.5 1.3925
    endloop
  endfacet
  facet normal -0.0314173 0 -0.999506
    outer loop
      vertex 0.238604 2.5 1.3925
      vertex 0 -2.5 1.4
      vertex 0 2.5 1.4
    endloop
  endfacet
  facet normal -0.707109 0 -0.707105
    outer loop
      vertex 2.60128 -2.5 0.37008
      vertex 2.77008 2.5 0.201279
      vertex 2.77008 -2.5 0.201279
    endloop
  endfacet
  facet normal -0.707109 0 -0.707105
    outer loop
      vertex 2.77008 2.5 0.201279
      vertex 2.60128 -2.5 0.37008
      vertex 2.60128 2.5 0.37008
    endloop
  endfacet
  facet normal 0.707109 0 -0.707105
    outer loop
      vertex -2.77008 -2.5 0.201279
      vertex -2.60128 2.5 0.37008
      vertex -2.60128 -2.5 0.37008
    endloop
  endfacet
  facet normal 0.707109 0 -0.707105
    outer loop
      vertex -2.60128 2.5 0.37008
      vertex -2.77008 -2.5 0.201279
      vertex -2.77008 2.5 0.201279
    endloop
  endfacet
  facet normal 0.397152 0 -0.917753
    outer loop
      vertex -1.61796 -2.5 1.03834
      vertex -1.39887 2.5 1.13315
      vertex -1.39887 -2.5 1.13315
    endloop
  endfacet
  facet normal 0.397152 0 -0.917753
    outer loop
      vertex -1.39887 2.5 1.13315
      vertex -1.61796 -2.5 1.03834
      vertex -1.61796 2.5 1.03834
    endloop
  endfacet
  facet normal -0.917753 0 -0.397151
    outer loop
      vertex 3.53315 -2.5 -1.00113
      vertex 3.43834 2.5 -0.782039
      vertex 3.53315 2.5 -1.00113
    endloop
  endfacet
  facet normal -0.917753 -0 -0.397151
    outer loop
      vertex 3.43834 2.5 -0.782039
      vertex 3.53315 -2.5 -1.00113
      vertex 3.43834 -2.5 -0.782039
    endloop
  endfacet
  facet normal -0.397152 0 -0.917753
    outer loop
      vertex 1.39887 -2.5 1.13315
      vertex 1.61796 2.5 1.03834
      vertex 1.61796 -2.5 1.03834
    endloop
  endfacet
  facet normal -0.397152 0 -0.917753
    outer loop
      vertex 1.61796 2.5 1.03834
      vertex 1.39887 -2.5 1.13315
      vertex 1.39887 2.5 1.13315
    endloop
  endfacet
  facet normal 0.827064 0 -0.562108
    outer loop
      vertex -3.07426 -2.5 -0.166415
      vertex -3.20845 2.5 -0.363857
      vertex -3.07426 2.5 -0.166415
    endloop
  endfacet
  facet normal 0.827064 0 -0.562108
    outer loop
      vertex -3.20845 2.5 -0.363857
      vertex -3.07426 -2.5 -0.166415
      vertex -3.20845 -2.5 -0.363857
    endloop
  endfacet
  facet normal -0.960286 0 -0.279017
    outer loop
      vertex 3.68062 -2.5 -1.45498
      vertex 3.61401 2.5 -1.22573
      vertex 3.68062 2.5 -1.45498
    endloop
  endfacet
  facet normal -0.960286 -0 -0.279017
    outer loop
      vertex 3.61401 2.5 -1.22573
      vertex 3.68062 -2.5 -1.45498
      vertex 3.61401 -2.5 -1.22573
    endloop
  endfacet
  facet normal -0.827064 0 -0.562108
    outer loop
      vertex 3.20845 -2.5 -0.363857
      vertex 3.07426 2.5 -0.166415
      vertex 3.20845 2.5 -0.363857
    endloop
  endfacet
  facet normal -0.827064 -0 -0.562108
    outer loop
      vertex 3.07426 2.5 -0.166415
      vertex 3.20845 -2.5 -0.363857
      vertex 3.07426 -2.5 -0.166415
    endloop
  endfacet
  facet normal -0.75011 0 -0.661313
    outer loop
      vertex 2.92795 -2.5 0.0222111
      vertex 2.77008 2.5 0.201279
      vertex 2.92795 2.5 0.0222111
    endloop
  endfacet
  facet normal -0.75011 -0 -0.661313
    outer loop
      vertex 2.77008 2.5 0.201279
      vertex 2.92795 -2.5 0.0222111
      vertex 2.77008 -2.5 0.201279
    endloop
  endfacet
  facet normal -0.218122 0 -0.975922
    outer loop
      vertex 0.712049 -2.5 1.33269
      vertex 0.945021 2.5 1.28062
      vertex 0.945021 -2.5 1.28062
    endloop
  endfacet
  facet normal -0.218122 0 -0.975922
    outer loop
      vertex 0.945021 2.5 1.28062
      vertex 0.712049 -2.5 1.33269
      vertex 0.712049 2.5 1.33269
    endloop
  endfacet
  facet normal -0.661308 0 -0.750114
    outer loop
      vertex 2.42221 -2.5 0.52795
      vertex 2.60128 2.5 0.37008
      vertex 2.60128 -2.5 0.37008
    endloop
  endfacet
  facet normal -0.661308 0 -0.750114
    outer loop
      vertex 2.60128 2.5 0.37008
      vertex 2.42221 -2.5 0.52795
      vertex 2.42221 2.5 0.52795
    endloop
  endfacet
  facet normal -0.453987 0 -0.891008
    outer loop
      vertex 1.61796 -2.5 1.03834
      vertex 1.83066 2.5 0.929965
      vertex 1.83066 -2.5 0.929965
    endloop
  endfacet
  facet normal -0.453987 0 -0.891008
    outer loop
      vertex 1.83066 2.5 0.929965
      vertex 1.61796 -2.5 1.03834
      vertex 1.61796 2.5 1.03834
    endloop
  endfacet
  facet normal 0.917753 0 -0.397151
    outer loop
      vertex -3.43834 -2.5 -0.782039
      vertex -3.53315 2.5 -1.00113
      vertex -3.43834 2.5 -0.782039
    endloop
  endfacet
  facet normal 0.917753 0 -0.397151
    outer loop
      vertex -3.53315 2.5 -1.00113
      vertex -3.43834 -2.5 -0.782039
      vertex -3.53315 -2.5 -1.00113
    endloop
  endfacet
  facet normal 0.86076 0 -0.509011
    outer loop
      vertex -3.20845 -2.5 -0.363857
      vertex -3.32996 2.5 -0.569336
      vertex -3.20845 2.5 -0.363857
    endloop
  endfacet
  facet normal 0.86076 0 -0.509011
    outer loop
      vertex -3.32996 2.5 -0.569336
      vertex -3.20845 -2.5 -0.363857
      vertex -3.32996 -2.5 -0.569336
    endloop
  endfacet
  facet normal 0.975921 0 -0.218123
    outer loop
      vertex -3.68062 -2.5 -1.45498
      vertex -3.73269 2.5 -1.68795
      vertex -3.68062 2.5 -1.45498
    endloop
  endfacet
  facet normal 0.975921 0 -0.218123
    outer loop
      vertex -3.73269 2.5 -1.68795
      vertex -3.68062 -2.5 -1.45498
      vertex -3.73269 -2.5 -1.68795
    endloop
  endfacet
  facet normal 0.987684 0 -0.156459
    outer loop
      vertex -3.73269 -2.5 -1.68795
      vertex -3.77004 2.5 -1.92373
      vertex -3.73269 2.5 -1.68795
    endloop
  endfacet
  facet normal 0.987684 0 -0.156459
    outer loop
      vertex -3.77004 2.5 -1.92373
      vertex -3.73269 -2.5 -1.68795
      vertex -3.77004 -2.5 -1.92373
    endloop
  endfacet
  facet normal 0.562089 0 -0.827077
    outer loop
      vertex -2.23358 -2.5 0.674264
      vertex -2.03614 2.5 0.808446
      vertex -2.03614 -2.5 0.808446
    endloop
  endfacet
  facet normal 0.562089 0 -0.827077
    outer loop
      vertex -2.03614 2.5 0.808446
      vertex -2.23358 -2.5 0.674264
      vertex -2.23358 2.5 0.674264
    endloop
  endfacet
  facet normal 0.0940848 0 -0.995564
    outer loop
      vertex -0.476266 -2.5 1.37004
      vertex -0.238604 2.5 1.3925
      vertex -0.238604 -2.5 1.3925
    endloop
  endfacet
  facet normal 0.0940848 0 -0.995564
    outer loop
      vertex -0.238604 2.5 1.3925
      vertex -0.476266 -2.5 1.37004
      vertex -0.476266 2.5 1.37004
    endloop
  endfacet
  facet normal -0.975921 0 -0.218123
    outer loop
      vertex 3.73269 -2.5 -1.68795
      vertex 3.68062 2.5 -1.45498
      vertex 3.73269 2.5 -1.68795
    endloop
  endfacet
  facet normal -0.975921 -0 -0.218123
    outer loop
      vertex 3.68062 2.5 -1.45498
      vertex 3.73269 -2.5 -1.68795
      vertex 3.68062 -2.5 -1.45498
    endloop
  endfacet
  facet normal -0.790162 0 -0.612898
    outer loop
      vertex 3.07426 -2.5 -0.166415
      vertex 2.92795 2.5 0.0222111
      vertex 3.07426 2.5 -0.166415
    endloop
  endfacet
  facet normal -0.790162 -0 -0.612898
    outer loop
      vertex 2.92795 2.5 0.0222111
      vertex 3.07426 -2.5 -0.166415
      vertex 2.92795 -2.5 0.0222111
    endloop
  endfacet
  facet normal -0.156458 0 -0.987685
    outer loop
      vertex 0.476266 -2.5 1.37004
      vertex 0.712049 2.5 1.33269
      vertex 0.712049 -2.5 1.33269
    endloop
  endfacet
  facet normal -0.156458 0 -0.987685
    outer loop
      vertex 0.712049 2.5 1.33269
      vertex 0.476266 -2.5 1.37004
      vertex 0.476266 2.5 1.37004
    endloop
  endfacet
  facet normal -0.279029 0 -0.960283
    outer loop
      vertex 0.945021 -2.5 1.28062
      vertex 1.17426 2.5 1.21401
      vertex 1.17426 -2.5 1.21401
    endloop
  endfacet
  facet normal -0.279029 0 -0.960283
    outer loop
      vertex 1.17426 2.5 1.21401
      vertex 0.945021 -2.5 1.28062
      vertex 0.945021 2.5 1.28062
    endloop
  endfacet
  facet normal -0.509037 0 -0.860745
    outer loop
      vertex 1.83066 -2.5 0.929965
      vertex 2.03614 2.5 0.808446
      vertex 2.03614 -2.5 0.808446
    endloop
  endfacet
  facet normal -0.509037 0 -0.860745
    outer loop
      vertex 2.03614 2.5 0.808446
      vertex 1.83066 -2.5 0.929965
      vertex 1.83066 2.5 0.929965
    endloop
  endfacet
  facet normal 0.790162 0 -0.612898
    outer loop
      vertex -2.92795 -2.5 0.0222111
      vertex -3.07426 2.5 -0.166415
      vertex -2.92795 2.5 0.0222111
    endloop
  endfacet
  facet normal 0.790162 0 -0.612898
    outer loop
      vertex -3.07426 2.5 -0.166415
      vertex -2.92795 -2.5 0.0222111
      vertex -3.07426 -2.5 -0.166415
    endloop
  endfacet
  facet normal 0.891002 0 -0.453999
    outer loop
      vertex -3.32996 -2.5 -0.569336
      vertex -3.43834 2.5 -0.782039
      vertex -3.32996 2.5 -0.569336
    endloop
  endfacet
  facet normal 0.891002 0 -0.453999
    outer loop
      vertex -3.43834 2.5 -0.782039
      vertex -3.32996 -2.5 -0.569336
      vertex -3.43834 -2.5 -0.782039
    endloop
  endfacet
  facet normal 0.940882 0 -0.338734
    outer loop
      vertex -3.53315 -2.5 -1.00113
      vertex -3.61401 2.5 -1.22573
      vertex -3.53315 2.5 -1.00113
    endloop
  endfacet
  facet normal 0.940882 0 -0.338734
    outer loop
      vertex -3.61401 2.5 -1.22573
      vertex -3.53315 -2.5 -1.00113
      vertex -3.61401 -2.5 -1.22573
    endloop
  endfacet
  facet normal 0.995564 0 -0.0940816
    outer loop
      vertex -3.77004 -2.5 -1.92373
      vertex -3.7925 2.5 -2.1614
      vertex -3.77004 2.5 -1.92373
    endloop
  endfacet
  facet normal 0.995564 0 -0.0940816
    outer loop
      vertex -3.7925 2.5 -2.1614
      vertex -3.77004 -2.5 -1.92373
      vertex -3.7925 -2.5 -2.1614
    endloop
  endfacet
  facet normal 0.612901 0 -0.79016
    outer loop
      vertex -2.42221 -2.5 0.52795
      vertex -2.23358 2.5 0.674264
      vertex -2.23358 -2.5 0.674264
    endloop
  endfacet
  facet normal 0.612901 0 -0.79016
    outer loop
      vertex -2.23358 2.5 0.674264
      vertex -2.42221 -2.5 0.52795
      vertex -2.42221 2.5 0.52795
    endloop
  endfacet
  facet normal 0.509037 0 -0.860745
    outer loop
      vertex -2.03614 -2.5 0.808446
      vertex -1.83066 2.5 0.929965
      vertex -1.83066 -2.5 0.929965
    endloop
  endfacet
  facet normal 0.509037 0 -0.860745
    outer loop
      vertex -1.83066 2.5 0.929965
      vertex -2.03614 -2.5 0.808446
      vertex -2.03614 2.5 0.808446
    endloop
  endfacet
  facet normal 0.279029 0 -0.960283
    outer loop
      vertex -1.17426 -2.5 1.21401
      vertex -0.945021 2.5 1.28062
      vertex -0.945021 -2.5 1.28062
    endloop
  endfacet
  facet normal 0.279029 0 -0.960283
    outer loop
      vertex -0.945021 2.5 1.28062
      vertex -1.17426 -2.5 1.21401
      vertex -1.17426 2.5 1.21401
    endloop
  endfacet
  facet normal 0.338721 0 -0.940887
    outer loop
      vertex -1.39887 -2.5 1.13315
      vertex -1.17426 2.5 1.21401
      vertex -1.17426 -2.5 1.21401
    endloop
  endfacet
  facet normal 0.338721 0 -0.940887
    outer loop
      vertex -1.17426 2.5 1.21401
      vertex -1.39887 -2.5 1.13315
      vertex -1.39887 2.5 1.13315
    endloop
  endfacet
  facet normal 0.0314173 0 -0.999506
    outer loop
      vertex -0.238604 -2.5 1.3925
      vertex 0 2.5 1.4
      vertex 0 -2.5 1.4
    endloop
  endfacet
  facet normal 0.0314173 0 -0.999506
    outer loop
      vertex 0 2.5 1.4
      vertex -0.238604 -2.5 1.3925
      vertex -0.238604 2.5 1.3925
    endloop
  endfacet
  facet normal -0.999507 0 0.0313845
    outer loop
      vertex 3.79686 -2.5 -2.5
      vertex 3.8 2.5 -2.4
      vertex 3.79686 2.5 -2.5
    endloop
  endfacet
  facet normal -0.999507 0 0.0313845
    outer loop
      vertex 3.8 2.5 -2.4
      vertex 3.79686 -2.5 -2.5
      vertex 3.8 -2.5 -2.4
    endloop
  endfacet
  facet normal 0.999507 -0 0.0313845
    outer loop
      vertex -3.8 -2.5 -2.4
      vertex -3.79686 2.5 -2.5
      vertex -3.8 2.5 -2.4
    endloop
  endfacet
  facet normal 0.999507 0 0.0313845
    outer loop
      vertex -3.79686 2.5 -2.5
      vertex -3.8 -2.5 -2.4
      vertex -3.79686 -2.5 -2.5
    endloop
  endfacet
  facet normal -0.987684 0 -0.156459
    outer loop
      vertex 3.77004 -2.5 -1.92373
      vertex 3.73269 2.5 -1.68795
      vertex 3.77004 2.5 -1.92373
    endloop
  endfacet
  facet normal -0.987684 -0 -0.156459
    outer loop
      vertex 3.73269 2.5 -1.68795
      vertex 3.77004 -2.5 -1.92373
      vertex 3.73269 -2.5 -1.68795
    endloop
  endfacet
  facet normal -0.940882 0 -0.338734
    outer loop
      vertex 3.61401 -2.5 -1.22573
      vertex 3.53315 2.5 -1.00113
      vertex 3.61401 2.5 -1.22573
    endloop
  endfacet
  facet normal -0.940882 -0 -0.338734
    outer loop
      vertex 3.53315 2.5 -1.00113
      vertex 3.61401 -2.5 -1.22573
      vertex 3.53315 -2.5 -1.00113
    endloop
  endfacet
  facet normal -0.891002 0 -0.453999
    outer loop
      vertex 3.43834 -2.5 -0.782039
      vertex 3.32996 2.5 -0.569336
      vertex 3.43834 2.5 -0.782039
    endloop
  endfacet
  facet normal -0.891002 -0 -0.453999
    outer loop
      vertex 3.32996 2.5 -0.569336
      vertex 3.43834 -2.5 -0.782039
      vertex 3.32996 -2.5 -0.569336
    endloop
  endfacet
  facet normal -0.86076 0 -0.509011
    outer loop
      vertex 3.32996 -2.5 -0.569336
      vertex 3.20845 2.5 -0.363857
      vertex 3.32996 2.5 -0.569336
    endloop
  endfacet
  facet normal -0.86076 -0 -0.509011
    outer loop
      vertex 3.20845 2.5 -0.363857
      vertex 3.32996 -2.5 -0.569336
      vertex 3.20845 -2.5 -0.363857
    endloop
  endfacet
  facet normal -0.338721 0 -0.940887
    outer loop
      vertex 1.17426 -2.5 1.21401
      vertex 1.39887 2.5 1.13315
      vertex 1.39887 -2.5 1.13315
    endloop
  endfacet
  facet normal -0.338721 0 -0.940887
    outer loop
      vertex 1.39887 2.5 1.13315
      vertex 1.17426 -2.5 1.21401
      vertex 1.17426 2.5 1.21401
    endloop
  endfacet
  facet normal -0.0940848 0 -0.995564
    outer loop
      vertex 0.238604 -2.5 1.3925
      vertex 0.476266 2.5 1.37004
      vertex 0.476266 -2.5 1.37004
    endloop
  endfacet
  facet normal -0.0940848 0 -0.995564
    outer loop
      vertex 0.476266 2.5 1.37004
      vertex 0.238604 -2.5 1.3925
      vertex 0.238604 2.5 1.3925
    endloop
  endfacet
  facet normal -0.612901 0 -0.79016
    outer loop
      vertex 2.23358 -2.5 0.674264
      vertex 2.42221 2.5 0.52795
      vertex 2.42221 -2.5 0.52795
    endloop
  endfacet
  facet normal -0.612901 0 -0.79016
    outer loop
      vertex 2.42221 2.5 0.52795
      vertex 2.23358 -2.5 0.674264
      vertex 2.23358 2.5 0.674264
    endloop
  endfacet
  facet normal -0.562089 0 -0.827077
    outer loop
      vertex 2.03614 -2.5 0.808446
      vertex 2.23358 2.5 0.674264
      vertex 2.23358 -2.5 0.674264
    endloop
  endfacet
  facet normal -0.562089 0 -0.827077
    outer loop
      vertex 2.23358 2.5 0.674264
      vertex 2.03614 -2.5 0.808446
      vertex 2.03614 2.5 0.808446
    endloop
  endfacet
  facet normal 0.75011 0 -0.661313
    outer loop
      vertex -2.77008 -2.5 0.201279
      vertex -2.92795 2.5 0.0222111
      vertex -2.77008 2.5 0.201279
    endloop
  endfacet
  facet normal 0.75011 0 -0.661313
    outer loop
      vertex -2.92795 2.5 0.0222111
      vertex -2.77008 -2.5 0.201279
      vertex -2.92795 -2.5 0.0222111
    endloop
  endfacet
  facet normal 0.960286 0 -0.279017
    outer loop
      vertex -3.61401 -2.5 -1.22573
      vertex -3.68062 2.5 -1.45498
      vertex -3.61401 2.5 -1.22573
    endloop
  endfacet
  facet normal 0.960286 0 -0.279017
    outer loop
      vertex -3.68062 2.5 -1.45498
      vertex -3.61401 -2.5 -1.22573
      vertex -3.68062 -2.5 -1.45498
    endloop
  endfacet
  facet normal 0.661308 0 -0.750114
    outer loop
      vertex -2.60128 -2.5 0.37008
      vertex -2.42221 2.5 0.52795
      vertex -2.42221 -2.5 0.52795
    endloop
  endfacet
  facet normal 0.661308 0 -0.750114
    outer loop
      vertex -2.42221 2.5 0.52795
      vertex -2.60128 -2.5 0.37008
      vertex -2.60128 2.5 0.37008
    endloop
  endfacet
  facet normal 0.453987 0 -0.891008
    outer loop
      vertex -1.83066 -2.5 0.929965
      vertex -1.61796 2.5 1.03834
      vertex -1.61796 -2.5 1.03834
    endloop
  endfacet
  facet normal 0.453987 0 -0.891008
    outer loop
      vertex -1.61796 2.5 1.03834
      vertex -1.83066 -2.5 0.929965
      vertex -1.83066 2.5 0.929965
    endloop
  endfacet
  facet normal 0.156458 0 -0.987685
    outer loop
      vertex -0.712049 -2.5 1.33269
      vertex -0.476266 2.5 1.37004
      vertex -0.476266 -2.5 1.37004
    endloop
  endfacet
  facet normal 0.156458 0 -0.987685
    outer loop
      vertex -0.476266 2.5 1.37004
      vertex -0.712049 -2.5 1.33269
      vertex -0.712049 2.5 1.33269
    endloop
  endfacet
  facet normal 0.218122 0 -0.975922
    outer loop
      vertex -0.945021 -2.5 1.28062
      vertex -0.712049 2.5 1.33269
      vertex -0.712049 -2.5 1.33269
    endloop
  endfacet
  facet normal 0.218122 0 -0.975922
    outer loop
      vertex -0.712049 2.5 1.33269
      vertex -0.945021 -2.5 1.28062
      vertex -0.945021 2.5 1.28062
    endloop
  endfacet
endsolid OpenSCAD_Model
