solid OpenSCAD_Model
  facet normal -1 0 0
    outer loop
      vertex -5 -2.5 -2.5
      vertex -5 2.5 2.5
      vertex -5 2.5 -2.5
    endloop
  endfacet
  facet normal -1 -0 0
    outer loop
      vertex -5 2.5 2.5
      vertex -5 -2.5 -2.5
      vertex -5 -2.5 2.5
    endloop
  endfacet
  facet normal -0 0 1
    outer loop
      vertex -5 2.5 2.5
      vertex 5 -2.5 2.5
      vertex 5 2.5 2.5
    endloop
  endfacet
  facet normal 0 0 1
    outer loop
      vertex 5 -2.5 2.5
      vertex -5 2.5 2.5
      vertex -5 -2.5 2.5
    endloop
  endfacet
  facet normal 1 -0 0
    outer loop
      vertex 5 -2.5 2.5
      vertex 5 2.5 -2.5
      vertex 5 2.5 2.5
    endloop
  endfacet
  facet normal 1 0 0
    outer loop
      vertex 5 2.5 -2.5
      vertex 5 -2.5 2.5
      vertex 5 -2.5 -2.5
    endloop
  endfacet
  facet normal 0 1 0
    outer loop
      vertex 5 2.5 2.5
      vertex 0 2.5 1.5
      vertex -5 2.5 2.5
    endloop
  endfacet
  facet normal 0 1 0
    outer loop
      vertex 5 2.5 2.5
      vertex 0.226046 2.5 1.4929
      vertex 0 2.5 1.5
    endloop
  endfacet
  facet normal 0 1 0
    outer loop
      vertex 5 2.5 2.5
      vertex 0.4512 2.5 1.47161
      vertex 0.226046 2.5 1.4929
    endloop
  endfacet
  facet normal 0 1 0
    outer loop
      vertex 5 2.5 2.5
      vertex 0.674572 2.5 1.43623
      vertex 0.4512 2.5 1.47161
    endloop
  endfacet
  facet normal 0 1 0
    outer loop
      vertex 5 2.5 2.5
      vertex 0.895283 2.5 1.3869
      vertex 0.674572 2.5 1.43623
    endloop
  endfacet
  facet normal 0 1 0
    outer loop
      vertex 5 2.5 2.5
      vertex 1.11246 2.5 1.3238
      vertex 0.895283 2.5 1.3869
    endloop
  endfacet
  facet normal 0 1 0
    outer loop
      vertex 5 2.5 2.5
      vertex 1.32525 2.5 1.2472
      vertex 1.11246 2.5 1.3238
    endloop
  endfacet
  facet normal 0 1 0
    outer loop
      vertex 5 2.5 2.5
      vertex 1.53281 2.5 1.15738
      vertex 1.32525 2.5 1.2472
    endloop
  endfacet
  facet normal 0 1 0
    outer loop
      vertex 5 2.5 2.5
      vertex 1.73431 2.5 1.0547
      vertex 1.53281 2.5 1.15738
    endloop
  endfacet
  facet normal 0 1 0
    outer loop
      vertex 5 2.5 2.5
      vertex 1.92898 2.5 0.93958
      vertex 1.73431 2.5 1.0547
    endloop
  endfacet
  facet normal 0 1 0
    outer loop
      vertex 5 2.5 2.5
      vertex 2.11603 2.5 0.812461
      vertex 1.92898 2.5 0.93958
    endloop
  endfacet
  facet normal 0 1 0
    outer loop
      vertex 5 2.5 2.5
      vertex 2.29473 2.5 0.673847
      vertex 2.11603 2.5 0.812461
    endloop
  endfacet
  facet normal 0 1 0
    outer loop
      vertex 5 2.5 2.5
      vertex 2.46437 2.5 0.524286
      vertex 2.29473 2.5 0.673847
    endloop
  endfacet
  facet normal 0 1 0
    outer loop
      vertex 5 2.5 2.5
      vertex 2.62429 2.5 0.364369
      vertex 2.46437 2.5 0.524286
    endloop
  endfacet
  facet normal 0 1 0
    outer loop
      vertex 5 2.5 2.5
      vertex 2.77385 2.5 0.194726
      vertex 2.62429 2.5 0.364369
    endloop
  endfacet
  facet normal 0 1 0
    outer loop
      vertex 5 2.5 2.5
      vertex 2.91246 2.5 0.0160265
      vertex 2.77385 2.5 0.194726
    endloop
  endfacet
  facet normal 0 1 0
    outer loop
      vertex 5 2.5 2.5
      vertex 3.03958 2.5 -0.171023
      vertex 2.91246 2.5 0.0160265
    endloop
  endfacet
  facet normal 0 1 0
    outer loop
      vertex 5 2.5 2.5
      vertex 3.1547 2.5 -0.365686
      vertex 3.03958 2.5 -0.171023
    endloop
  endfacet
  facet normal 0 1 0
    outer loop
      vertex 5 2.5 2.5
      vertex 3.25738 2.5 -0.567194
      vertex 3.1547 2.5 -0.365686
    endloop
  endfacet
  facet normal 0 1 0
    outer loop
      vertex 5 2.5 2.5
      vertex 3.34719 2.5 -0.774751
      vertex 3.25738 2.5 -0.567194
    endloop
  endfacet
  facet normal 0 1 0
    outer loop
      vertex 5 2.5 2.5
      vertex 3.4238 2.5 -0.987538
      vertex 3.34719 2.5 -0.774751
    endloop
  endfacet
  facet normal 0 1 -0
    outer loop
      vertex 5 2.5 -2.5
      vertex 3.4238 2.5 -0.987538
      vertex 5 2.5 2.5
    endloop
  endfacet
  facet normal 0 1 0
    outer loop
      vertex 3.4238 2.5 -0.987538
      vertex 5 2.5 -2.5
      vertex 3.4869 2.5 -1.20472
    endloop
  endfacet
  facet normal 0 1 0
    outer loop
      vertex 3.4869 2.5 -1.20472
      vertex 5 2.5 -2.5
      vertex 3.53623 2.5 -1.42543
    endloop
  endfacet
  facet normal 0 1 0
    outer loop
      vertex 3.53623 2.5 -1.42543
      vertex 5 2.5 -2.5
      vertex 3.57161 2.5 -1.6488
    endloop
  endfacet
  facet normal 0 1 0
    outer loop
      vertex 3.57161 2.5 -1.6488
      vertex 5 2.5 -2.5
      vertex 3.5929 2.5 -1.87395
    endloop
  endfacet
  facet normal 0 1 0
    outer loop
      vertex 3.5929 2.5 -1.87395
      vertex 5 2.5 -2.5
      vertex 3.6 2.5 -2.1
    endloop
  endfacet
  facet normal 0 1 0
    outer loop
      vertex 3.6 2.5 -2.1
      vertex 5 2.5 -2.5
      vertex 3.5929 2.5 -2.32605
    endloop
  endfacet
  facet normal 0 1 0
    outer loop
      vertex 3.5929 2.5 -2.32605
      vertex 5 2.5 -2.5
      vertex 3.57645 2.5 -2.5
    endloop
  endfacet
  facet normal 0 1 -0
    outer loop
      vertex -0.226046 2.5 1.4929
      vertex -5 2.5 2.5
      vertex 0 2.5 1.5
    endloop
  endfacet
  facet normal 0 1 -0
    outer loop
      vertex -0.4512 2.5 1.47161
      vertex -5 2.5 2.5
      vertex -0.226046 2.5 1.4929
    endloop
  endfacet
  facet normal 0 1 -0
    outer loop
      vertex -0.674572 2.5 1.43623
      vertex -5 2.5 2.5
      vertex -0.4512 2.5 1.47161
    endloop
  endfacet
  facet normal 0 1 -0
    outer loop
      vertex -0.895283 2.5 1.3869
      vertex -5 2.5 2.5
      vertex -0.674572 2.5 1.43623
    endloop
  endfacet
  facet normal 0 1 -0
    outer loop
      vertex -1.11246 2.5 1.3238
      vertex -5 2.5 2.5
      vertex -0.895283 2.5 1.3869
    endloop
  endfacet
  facet normal 0 1 -0
    outer loop
      vertex -1.32525 2.5 1.2472
      vertex -5 2.5 2.5
      vertex -1.11246 2.5 1.3238
    endloop
  endfacet
  facet normal 0 1 -0
    outer loop
      vertex -1.53281 2.5 1.15738
      vertex -5 2.5 2.5
      vertex -1.32525 2.5 1.2472
    endloop
  endfacet
  facet normal 0 1 -0
    outer loop
      vertex -1.73431 2.5 1.0547
      vertex -5 2.5 2.5
      vertex -1.53281 2.5 1.15738
    endloop
  endfacet
  facet normal 0 1 -0
    outer loop
      vertex -1.92898 2.5 0.93958
      vertex -5 2.5 2.5
      vertex -1.73431 2.5 1.0547
    endloop
  endfacet
  facet normal 0 1 -0
    outer loop
      vertex -2.11603 2.5 0.812461
      vertex -5 2.5 2.5
      vertex -1.92898 2.5 0.93958
    endloop
  endfacet
  facet normal 0 1 -0
    outer loop
      vertex -2.29473 2.5 0.673847
      vertex -5 2.5 2.5
      vertex -2.11603 2.5 0.812461
    endloop
  endfacet
  facet normal 0 1 -0
    outer loop
      vertex -2.46437 2.5 0.524286
      vertex -5 2.5 2.5
      vertex -2.29473 2.5 0.673847
    endloop
  endfacet
  facet normal 0 1 -0
    outer loop
      vertex -2.62429 2.5 0.364369
      vertex -5 2.5 2.5
      vertex -2.46437 2.5 0.524286
    endloop
  endfacet
  facet normal 0 1 -0
    outer loop
      vertex -2.77385 2.5 0.194726
      vertex -5 2.5 2.5
      vertex -2.62429 2.5 0.364369
    endloop
  endfacet
  facet normal 0 1 -0
    outer loop
      vertex -2.91246 2.5 0.0160265
      vertex -5 2.5 2.5
      vertex -2.77385 2.5 0.194726
    endloop
  endfacet
  facet normal 0 1 -0
    outer loop
      vertex -3.03958 2.5 -0.171023
      vertex -5 2.5 2.5
      vertex -2.91246 2.5 0.0160265
    endloop
  endfacet
  facet normal 0 1 -0
    outer loop
      vertex -3.1547 2.5 -0.365686
      vertex -5 2.5 2.5
      vertex -3.03958 2.5 -0.171023
    endloop
  endfacet
  facet normal 0 1 -0
    outer loop
      vertex -3.25738 2.5 -0.567194
      vertex -5 2.5 2.5
      vertex -3.1547 2.5 -0.365686
    endloop
  endfacet
  facet normal 0 1 -0
    outer loop
      vertex -3.34719 2.5 -0.774751
      vertex -5 2.5 2.5
      vertex -3.25738 2.5 -0.567194
    endloop
  endfacet
  facet normal 0 1 -0
    outer loop
      vertex -3.4238 2.5 -0.987538
      vertex -5 2.5 2.5
      vertex -3.34719 2.5 -0.774751
    endloop
  endfacet
  facet normal 0 1 0
    outer loop
      vertex -5 2.5 -2.5
      vertex -3.4238 2.5 -0.987538
      vertex -3.4869 2.5 -1.20472
    endloop
  endfacet
  facet normal 0 1 0
    outer loop
      vertex -5 2.5 -2.5
      vertex -3.4869 2.5 -1.20472
      vertex -3.53623 2.5 -1.42543
    endloop
  endfacet
  facet normal 0 1 0
    outer loop
      vertex -5 2.5 -2.5
      vertex -3.53623 2.5 -1.42543
      vertex -3.57161 2.5 -1.6488
    endloop
  endfacet
  facet normal 0 1 0
    outer loop
      vertex -5 2.5 -2.5
      vertex -3.57161 2.5 -1.6488
      vertex -3.5929 2.5 -1.87395
    endloop
  endfacet
  facet normal 0 1 0
    outer loop
      vertex -5 2.5 -2.5
      vertex -3.5929 2.5 -1.87395
      vertex -3.6 2.5 -2.1
    endloop
  endfacet
  facet normal 0 1 0
    outer loop
      vertex -5 2.5 -2.5
      vertex -3.6 2.5 -2.1
      vertex -3.5929 2.5 -2.32605
    endloop
  endfacet
  facet normal 0 1 0
    outer loop
      vertex -5 2.5 -2.5
      vertex -3.5929 2.5 -2.32605
      vertex -3.57645 2.5 -2.5
    endloop
  endfacet
  facet normal 0 1 0
    outer loop
      vertex -3.4238 2.5 -0.987538
      vertex -5 2.5 -2.5
      vertex -5 2.5 2.5
    endloop
  endfacet
  facet normal 0 0 -1
    outer loop
      vertex -5 -2.5 -2.5
      vertex -3.57645 2.5 -2.5
      vertex -3.57645 -2.5 -2.5
    endloop
  endfacet
  facet normal -0 0 -1
    outer loop
      vertex -3.57645 2.5 -2.5
      vertex -5 -2.5 -2.5
      vertex -5 2.5 -2.5
    endloop
  endfacet
  facet normal 0 0 -1
    outer loop
      vertex 3.57645 -2.5 -2.5
      vertex 5 2.5 -2.5
      vertex 5 -2.5 -2.5
    endloop
  endfacet
  facet normal -0 0 -1
    outer loop
      vertex 5 2.5 -2.5
      vertex 3.57645 -2.5 -2.5
      vertex 3.57645 2.5 -2.5
    endloop
  endfacet
  facet normal 0 -1 0
    outer loop
      vertex -5 -2.5 2.5
      vertex 0 -2.5 1.5
      vertex 5 -2.5 2.5
    endloop
  endfacet
  facet normal 0 -1 0
    outer loop
      vertex -5 -2.5 2.5
      vertex -0.226046 -2.5 1.4929
      vertex 0 -2.5 1.5
    endloop
  endfacet
  facet normal 0 -1 0
    outer loop
      vertex -5 -2.5 2.5
      vertex -0.4512 -2.5 1.47161
      vertex -0.226046 -2.5 1.4929
    endloop
  endfacet
  facet normal 0 -1 0
    outer loop
      vertex -5 -2.5 2.5
      vertex -0.674572 -2.5 1.43623
      vertex -0.4512 -2.5 1.47161
    endloop
  endfacet
  facet normal 0 -1 0
    outer loop
      vertex -5 -2.5 2.5
      vertex -0.895283 -2.5 1.3869
      vertex -0.674572 -2.5 1.43623
    endloop
  endfacet
  facet normal 0 -1 0
    outer loop
      vertex -5 -2.5 2.5
      vertex -1.11246 -2.5 1.3238
      vertex -0.895283 -2.5 1.3869
    endloop
  endfacet
  facet normal 0 -1 0
    outer loop
      vertex -5 -2.5 2.5
      vertex -1.32525 -2.5 1.2472
      vertex -1.11246 -2.5 1.3238
    endloop
  endfacet
  facet normal 0 -1 0
    outer loop
      vertex -5 -2.5 2.5
      vertex -1.53281 -2.5 1.15738
      vertex -1.32525 -2.5 1.2472
    endloop
  endfacet
  facet normal 0 -1 0
    outer loop
      vertex -5 -2.5 2.5
      vertex -1.73431 -2.5 1.0547
      vertex -1.53281 -2.5 1.15738
    endloop
  endfacet
  facet normal 0 -1 0
    outer loop
      vertex -5 -2.5 2.5
      vertex -1.92898 -2.5 0.93958
      vertex -1.73431 -2.5 1.0547
    endloop
  endfacet
  facet normal 0 -1 0
    outer loop
      vertex -5 -2.5 2.5
      vertex -2.11603 -2.5 0.812461
      vertex -1.92898 -2.5 0.93958
    endloop
  endfacet
  facet normal 0 -1 0
    outer loop
      vertex -5 -2.5 2.5
      vertex -2.29473 -2.5 0.673847
      vertex -2.11603 -2.5 0.812461
    endloop
  endfacet
  facet normal 0 -1 0
    outer loop
      vertex -5 -2.5 2.5
      vertex -2.46437 -2.5 0.524286
      vertex -2.29473 -2.5 0.673847
    endloop
  endfacet
  facet normal 0 -1 0
    outer loop
      vertex -5 -2.5 2.5
      vertex -2.62429 -2.5 0.364369
      vertex -2.46437 -2.5 0.524286
    endloop
  endfacet
  facet normal 0 -1 0
    outer loop
      vertex -5 -2.5 2.5
      vertex -2.77385 -2.5 0.194726
      vertex -2.62429 -2.5 0.364369
    endloop
  endfacet
  facet normal 0 -1 0
    outer loop
      vertex -5 -2.5 2.5
      vertex -2.91246 -2.5 0.0160265
      vertex -2.77385 -2.5 0.194726
    endloop
  endfacet
  facet normal 0 -1 0
    outer loop
      vertex -5 -2.5 2.5
      vertex -3.03958 -2.5 -0.171023
      vertex -2.91246 -2.5 0.0160265
    endloop
  endfacet
  facet normal 0 -1 0
    outer loop
      vertex -5 -2.5 2.5
      vertex -3.1547 -2.5 -0.365686
      vertex -3.03958 -2.5 -0.171023
    endloop
  endfacet
  facet normal 0 -1 0
    outer loop
      vertex -5 -2.5 2.5
      vertex -3.25738 -2.5 -0.567194
      vertex -3.1547 -2.5 -0.365686
    endloop
  endfacet
  facet normal 0 -1 0
    outer loop
      vertex -5 -2.5 2.5
      vertex -3.34719 -2.5 -0.774751
      vertex -3.25738 -2.5 -0.567194
    endloop
  endfacet
  facet normal 0 -1 0
    outer loop
      vertex -5 -2.5 2.5
      vertex -3.4238 -2.5 -0.987538
      vertex -3.34719 -2.5 -0.774751
    endloop
  endfacet
  facet normal 0 -1 0
    outer loop
      vertex -5 -2.5 -2.5
      vertex -3.4238 -2.5 -0.987538
      vertex -5 -2.5 2.5
    endloop
  endfacet
  facet normal 0 -1 0
    outer loop
      vertex -3.4238 -2.5 -0.987538
      vertex -5 -2.5 -2.5
      vertex -3.4869 -2.5 -1.20472
    endloop
  endfacet
  facet normal 0 -1 0
    outer loop
      vertex -3.4869 -2.5 -1.20472
      vertex -5 -2.5 -2.5
      vertex -3.53623 -2.5 -1.42543
    endloop
  endfacet
  facet normal 0 -1 0
    outer loop
      vertex -3.53623 -2.5 -1.42543
      vertex -5 -2.5 -2.5
      vertex -3.57161 -2.5 -1.6488
    endloop
  endfacet
  facet normal 0 -1 0
    outer loop
      vertex -3.57161 -2.5 -1.6488
      vertex -5 -2.5 -2.5
      vertex -3.5929 -2.5 -1.87395
    endloop
  endfacet
  facet normal 0 -1 0
    outer loop
      vertex -3.5929 -2.5 -1.87395
      vertex -5 -2.5 -2.5
      vertex -3.6 -2.5 -2.1
    endloop
  endfacet
  facet normal 0 -1 -0
    outer loop
      vertex -3.6 -2.5 -2.1
      vertex -5 -2.5 -2.5
      vertex -3.5929 -2.5 -2.32605
    endloop
  endfacet
  facet normal 0 -1 -0
    outer loop
      vertex -3.5929 -2.5 -2.32605
      vertex -5 -2.5 -2.5
      vertex -3.57645 -2.5 -2.5
    endloop
  endfacet
  facet normal 0 -1 0
    outer loop
      vertex 0.226046 -2.5 1.4929
      vertex 5 -2.5 2.5
      vertex 0 -2.5 1.5
    endloop
  endfacet
  facet normal 0 -1 0
    outer loop
      vertex 0.4512 -2.5 1.47161
      vertex 5 -2.5 2.5
      vertex 0.226046 -2.5 1.4929
    endloop
  endfacet
  facet normal 0 -1 0
    outer loop
      vertex 0.674572 -2.5 1.43623
      vertex 5 -2.5 2.5
      vertex 0.4512 -2.5 1.47161
    endloop
  endfacet
  facet normal 0 -1 0
    outer loop
      vertex 0.895283 -2.5 1.3869
      vertex 5 -2.5 2.5
      vertex 0.674572 -2.5 1.43623
    endloop
  endfacet
  facet normal 0 -1 0
    outer loop
      vertex 1.11246 -2.5 1.3238
      vertex 5 -2.5 2.5
      vertex 0.895283 -2.5 1.3869
    endloop
  endfacet
  facet normal 0 -1 0
    outer loop
      vertex 1.32525 -2.5 1.2472
      vertex 5 -2.5 2.5
      vertex 1.11246 -2.5 1.3238
    endloop
  endfacet
  facet normal 0 -1 0
    outer loop
      vertex 1.53281 -2.5 1.15738
      vertex 5 -2.5 2.5
      vertex 1.32525 -2.5 1.2472
    endloop
  endfacet
  facet normal 0 -1 0
    outer loop
      vertex 1.73431 -2.5 1.0547
      vertex 5 -2.5 2.5
      vertex 1.53281 -2.5 1.15738
    endloop
  endfacet
  facet normal 0 -1 0
    outer loop
      vertex 1.92898 -2.5 0.93958
      vertex 5 -2.5 2.5
      vertex 1.73431 -2.5 1.0547
    endloop
  endfacet
  facet normal 0 -1 0
    outer loop
      vertex 2.11603 -2.5 0.812461
      vertex 5 -2.5 2.5
      vertex 1.92898 -2.5 0.93958
    endloop
  endfacet
  facet normal 0 -1 0
    outer loop
      vertex 2.29473 -2.5 0.673847
      vertex 5 -2.5 2.5
      vertex 2.11603 -2.5 0.812461
    endloop
  endfacet
  facet normal 0 -1 0
    outer loop
      vertex 2.46437 -2.5 0.524286
      vertex 5 -2.5 2.5
      vertex 2.29473 -2.5 0.673847
    endloop
  endfacet
  facet normal 0 -1 0
    outer loop
      vertex 2.62429 -2.5 0.364369
      vertex 5 -2.5 2.5
      vertex 2.46437 -2.5 0.524286
    endloop
  endfacet
  facet normal 0 -1 0
    outer loop
      vertex 2.77385 -2.5 0.194726
      vertex 5 -2.5 2.5
      vertex 2.62429 -2.5 0.364369
    endloop
  endfacet
  facet normal 0 -1 0
    outer loop
      vertex 2.91246 -2.5 0.0160265
      vertex 5 -2.5 2.5
      vertex 2.77385 -2.5 0.194726
    endloop
  endfacet
  facet normal 0 -1 0
    outer loop
      vertex 3.03958 -2.5 -0.171023
      vertex 5 -2.5 2.5
      vertex 2.91246 -2.5 0.0160265
    endloop
  endfacet
  facet normal 0 -1 0
    outer loop
      vertex 3.1547 -2.5 -0.365686
      vertex 5 -2.5 2.5
      vertex 3.03958 -2.5 -0.171023
    endloop
  endfacet
  facet normal 0 -1 0
    outer loop
      vertex 3.25738 -2.5 -0.567194
      vertex 5 -2.5 2.5
      vertex 3.1547 -2.5 -0.365686
    endloop
  endfacet
  facet normal 0 -1 0
    outer loop
      vertex 3.34719 -2.5 -0.774751
      vertex 5 -2.5 2.5
      vertex 3.25738 -2.5 -0.567194
    endloop
  endfacet
  facet normal 0 -1 0
    outer loop
      vertex 3.4238 -2.5 -0.987538
      vertex 5 -2.5 2.5
      vertex 3.34719 -2.5 -0.774751
    endloop
  endfacet
  facet normal 0 -1 0
    outer loop
      vertex 5 -2.5 -2.5
      vertex 3.4238 -2.5 -0.987538
      vertex 3.4869 -2.5 -1.20472
    endloop
  endfacet
  facet normal 0 -1 0
    outer loop
      vertex 5 -2.5 -2.5
      vertex 3.4869 -2.5 -1.20472
      vertex 3.53623 -2.5 -1.42543
    endloop
  endfacet
  facet normal 0 -1 0
    outer loop
      vertex 5 -2.5 -2.5
      vertex 3.53623 -2.5 -1.42543
      vertex 3.57161 -2.5 -1.6488
    endloop
  endfacet
  facet normal 0 -1 0
    outer loop
      vertex 5 -2.5 -2.5
      vertex 3.57161 -2.5 -1.6488
      vertex 3.5929 -2.5 -1.87395
    endloop
  endfacet
  facet normal 0 -1 0
    outer loop
      vertex 5 -2.5 -2.5
      vertex 3.5929 -2.5 -1.87395
      vertex 3.6 -2.5 -2.1
    endloop
  endfacet
  facet normal 0 -1 0
    outer loop
      vertex 5 -2.5 -2.5
      vertex 3.6 -2.5 -2.1
      vertex 3.5929 -2.5 -2.32605
    endloop
  endfacet
  facet normal 0 -1 0
    outer loop
      vertex 5 -2.5 -2.5
      vertex 3.5929 -2.5 -2.32605
      vertex 3.57645 -2.5 -2.5
    endloop
  endfacet
  facet normal 0 -1 0
    outer loop
      vertex 3.4238 -2.5 -0.987538
      vertex 5 -2.5 -2.5
      vertex 5 -2.5 2.5
    endloop
  endfacet
  facet normal -0.999507 0 -0.0313935
    outer loop
      vertex 3.6 -2.5 -2.1
      vertex 3.5929 2.5 -1.87395
      vertex 3.6 2.5 -2.1
    endloop
  endfacet
  facet normal -0.999507 -0 -0.0313935
    outer loop
      vertex 3.5929 2.5 -1.87395
      vertex 3.6 -2.5 -2.1
      vertex 3.5929 -2.5 -1.87395
    endloop
  endfacet
  facet normal -0.995559 0 -0.0941392
    outer loop
      vertex 3.5929 -2.5 -1.87395
      vertex 3.57161 2.5 -1.6488
      vertex 3.5929 2.5 -1.87395
    endloop
  endfacet
  facet normal -0.995559 -0 -0.0941392
    outer loop
      vertex 3.57161 2.5 -1.6488
      vertex 3.5929 -2.5 -1.87395
      vertex 3.57161 -2.5 -1.6488
    endloop
  endfacet
  facet normal 0.999507 0 -0.0313935
    outer loop
      vertex -3.5929 -2.5 -1.87395
      vertex -3.6 2.5 -2.1
      vertex -3.5929 2.5 -1.87395
    endloop
  endfacet
  facet normal 0.999507 0 -0.0313935
    outer loop
      vertex -3.6 2.5 -2.1
      vertex -3.5929 -2.5 -1.87395
      vertex -3.6 -2.5 -2.1
    endloop
  endfacet
  facet normal -0.0313941 0 -0.999507
    outer loop
      vertex 0 -2.5 1.5
      vertex 0.226046 2.5 1.4929
      vertex 0.226046 -2.5 1.4929
    endloop
  endfacet
  facet normal -0.0313941 0 -0.999507
    outer loop
      vertex 0.226046 2.5 1.4929
      vertex 0 -2.5 1.5
      vertex 0 2.5 1.5
    endloop
  endfacet
  facet normal -0.7071 0 -0.707113
    outer loop
      vertex 2.46437 -2.5 0.524286
      vertex 2.62429 2.5 0.364369
      vertex 2.62429 -2.5 0.364369
    endloop
  endfacet
  facet normal -0.7071 0 -0.707113
    outer loop
      vertex 2.62429 2.5 0.364369
      vertex 2.46437 -2.5 0.524286
      vertex 2.46437 2.5 0.524286
    endloop
  endfacet
  facet normal 0.7071 0 -0.707113
    outer loop
      vertex -2.62429 -2.5 0.364369
      vertex -2.46437 2.5 0.524286
      vertex -2.46437 -2.5 0.524286
    endloop
  endfacet
  facet normal 0.7071 0 -0.707113
    outer loop
      vertex -2.46437 2.5 0.524286
      vertex -2.62429 -2.5 0.364369
      vertex -2.62429 2.5 0.364369
    endloop
  endfacet
  facet normal 0.397151 0 -0.917753
    outer loop
      vertex -1.53281 -2.5 1.15738
      vertex -1.32525 2.5 1.2472
      vertex -1.32525 -2.5 1.2472
    endloop
  endfacet
  facet normal 0.397151 0 -0.917753
    outer loop
      vertex -1.32525 2.5 1.2472
      vertex -1.53281 -2.5 1.15738
      vertex -1.53281 2.5 1.15738
    endloop
  endfacet
  facet normal -0.917767 0 -0.397118
    outer loop
      vertex 3.34719 -2.5 -0.774751
      vertex 3.25738 2.5 -0.567194
      vertex 3.34719 2.5 -0.774751
    endloop
  endfacet
  facet normal -0.917767 -0 -0.397118
    outer loop
      vertex 3.25738 2.5 -0.567194
      vertex 3.34719 -2.5 -0.774751
      vertex 3.25738 -2.5 -0.567194
    endloop
  endfacet
  facet normal -0.397151 0 -0.917753
    outer loop
      vertex 1.32525 -2.5 1.2472
      vertex 1.53281 2.5 1.15738
      vertex 1.53281 -2.5 1.15738
    endloop
  endfacet
  facet normal -0.397151 0 -0.917753
    outer loop
      vertex 1.53281 2.5 1.15738
      vertex 1.32525 -2.5 1.2472
      vertex 1.32525 2.5 1.2472
    endloop
  endfacet
  facet normal -0.975921 0 -0.218124
    outer loop
      vertex 3.53623 -2.5 -1.42543
      vertex 3.4869 2.5 -1.20472
      vertex 3.53623 2.5 -1.42543
    endloop
  endfacet
  facet normal -0.975921 -0 -0.218124
    outer loop
      vertex 3.4869 2.5 -1.20472
      vertex 3.53623 -2.5 -1.42543
      vertex 3.4869 -2.5 -1.20472
    endloop
  endfacet
  facet normal -0.96029 0 -0.279003
    outer loop
      vertex 3.4869 -2.5 -1.20472
      vertex 3.4238 2.5 -0.987538
      vertex 3.4869 2.5 -1.20472
    endloop
  endfacet
  facet normal -0.96029 -0 -0.279003
    outer loop
      vertex 3.4238 2.5 -0.987538
      vertex 3.4869 -2.5 -1.20472
      vertex 3.4238 -2.5 -0.987538
    endloop
  endfacet
  facet normal -0.218123 0 -0.975921
    outer loop
      vertex 0.674572 -2.5 1.43623
      vertex 0.895283 2.5 1.3869
      vertex 0.895283 -2.5 1.3869
    endloop
  endfacet
  facet normal -0.218123 0 -0.975921
    outer loop
      vertex 0.895283 2.5 1.3869
      vertex 0.674572 -2.5 1.43623
      vertex 0.674572 2.5 1.43623
    endloop
  endfacet
  facet normal -0.15644 0 -0.987687
    outer loop
      vertex 0.4512 -2.5 1.47161
      vertex 0.674572 2.5 1.43623
      vertex 0.674572 -2.5 1.43623
    endloop
  endfacet
  facet normal -0.15644 0 -0.987687
    outer loop
      vertex 0.674572 2.5 1.43623
      vertex 0.4512 -2.5 1.47161
      vertex 0.4512 2.5 1.47161
    endloop
  endfacet
  facet normal -0.562083 0 -0.827081
    outer loop
      vertex 1.92898 -2.5 0.93958
      vertex 2.11603 2.5 0.812461
      vertex 2.11603 -2.5 0.812461
    endloop
  endfacet
  facet normal -0.562083 0 -0.827081
    outer loop
      vertex 2.11603 2.5 0.812461
      vertex 1.92898 -2.5 0.93958
      vertex 1.92898 2.5 0.93958
    endloop
  endfacet
  facet normal -0.454028 0 -0.890988
    outer loop
      vertex 1.53281 -2.5 1.15738
      vertex 1.73431 2.5 1.0547
      vertex 1.73431 -2.5 1.0547
    endloop
  endfacet
  facet normal -0.454028 0 -0.890988
    outer loop
      vertex 1.73431 2.5 1.0547
      vertex 1.53281 -2.5 1.15738
      vertex 1.53281 2.5 1.15738
    endloop
  endfacet
  facet normal 0.975921 0 -0.218124
    outer loop
      vertex -3.4869 -2.5 -1.20472
      vertex -3.53623 2.5 -1.42543
      vertex -3.4869 2.5 -1.20472
    endloop
  endfacet
  facet normal 0.975921 0 -0.218124
    outer loop
      vertex -3.53623 2.5 -1.42543
      vertex -3.4869 -2.5 -1.20472
      vertex -3.53623 -2.5 -1.42543
    endloop
  endfacet
  facet normal 0.827078 0 -0.562087
    outer loop
      vertex -2.91246 -2.5 0.0160265
      vertex -3.03958 2.5 -0.171023
      vertex -2.91246 2.5 0.0160265
    endloop
  endfacet
  facet normal 0.827078 0 -0.562087
    outer loop
      vertex -3.03958 2.5 -0.171023
      vertex -2.91246 -2.5 0.0160265
      vertex -3.03958 -2.5 -0.171023
    endloop
  endfacet
  facet normal 0.917767 0 -0.397118
    outer loop
      vertex -3.25738 -2.5 -0.567194
      vertex -3.34719 2.5 -0.774751
      vertex -3.25738 2.5 -0.567194
    endloop
  endfacet
  facet normal 0.917767 0 -0.397118
    outer loop
      vertex -3.34719 2.5 -0.774751
      vertex -3.25738 -2.5 -0.567194
      vertex -3.34719 -2.5 -0.774751
    endloop
  endfacet
  facet normal 0.860749 0 -0.50903
    outer loop
      vertex -3.03958 -2.5 -0.171023
      vertex -3.1547 2.5 -0.365686
      vertex -3.03958 2.5 -0.171023
    endloop
  endfacet
  facet normal 0.860749 0 -0.50903
    outer loop
      vertex -3.1547 2.5 -0.365686
      vertex -3.03958 -2.5 -0.171023
      vertex -3.1547 -2.5 -0.365686
    endloop
  endfacet
  facet normal 0.562083 0 -0.827081
    outer loop
      vertex -2.11603 -2.5 0.812461
      vertex -1.92898 2.5 0.93958
      vertex -1.92898 -2.5 0.93958
    endloop
  endfacet
  facet normal 0.562083 0 -0.827081
    outer loop
      vertex -1.92898 2.5 0.93958
      vertex -2.11603 -2.5 0.812461
      vertex -2.11603 2.5 0.812461
    endloop
  endfacet
  facet normal 0.0941376 0 -0.995559
    outer loop
      vertex -0.4512 -2.5 1.47161
      vertex -0.226046 2.5 1.4929
      vertex -0.226046 -2.5 1.4929
    endloop
  endfacet
  facet normal 0.0941376 0 -0.995559
    outer loop
      vertex -0.226046 2.5 1.4929
      vertex -0.4512 -2.5 1.47161
      vertex -0.4512 2.5 1.47161
    endloop
  endfacet
  facet normal -0.987687 0 -0.156442
    outer loop
      vertex 3.57161 -2.5 -1.6488
      vertex 3.53623 2.5 -1.42543
      vertex 3.57161 2.5 -1.6488
    endloop
  endfacet
  facet normal -0.987687 -0 -0.156442
    outer loop
      vertex 3.53623 2.5 -1.42543
      vertex 3.57161 -2.5 -1.6488
      vertex 3.53623 -2.5 -1.42543
    endloop
  endfacet
  facet normal -0.790163 0 -0.612897
    outer loop
      vertex 2.91246 -2.5 0.0160265
      vertex 2.77385 2.5 0.194726
      vertex 2.91246 2.5 0.0160265
    endloop
  endfacet
  facet normal -0.790163 -0 -0.612897
    outer loop
      vertex 2.77385 2.5 0.194726
      vertex 2.91246 -2.5 0.0160265
      vertex 2.77385 -2.5 0.194726
    endloop
  endfacet
  facet normal -0.827078 0 -0.562087
    outer loop
      vertex 3.03958 -2.5 -0.171023
      vertex 2.91246 2.5 0.0160265
      vertex 3.03958 2.5 -0.171023
    endloop
  endfacet
  facet normal -0.827078 -0 -0.562087
    outer loop
      vertex 2.91246 2.5 0.0160265
      vertex 3.03958 -2.5 -0.171023
      vertex 2.91246 -2.5 0.0160265
    endloop
  endfacet
  facet normal -0.279008 0 -0.960289
    outer loop
      vertex 0.895283 -2.5 1.3869
      vertex 1.11246 2.5 1.3238
      vertex 1.11246 -2.5 1.3238
    endloop
  endfacet
  facet normal -0.279008 0 -0.960289
    outer loop
      vertex 1.11246 2.5 1.3238
      vertex 0.895283 -2.5 1.3869
      vertex 0.895283 2.5 1.3869
    endloop
  endfacet
  facet normal -0.0941376 0 -0.995559
    outer loop
      vertex 0.226046 -2.5 1.4929
      vertex 0.4512 2.5 1.47161
      vertex 0.4512 -2.5 1.47161
    endloop
  endfacet
  facet normal -0.0941376 0 -0.995559
    outer loop
      vertex 0.4512 2.5 1.47161
      vertex 0.226046 -2.5 1.4929
      vertex 0.226046 2.5 1.4929
    endloop
  endfacet
  facet normal -0.509017 0 -0.860757
    outer loop
      vertex 1.73431 -2.5 1.0547
      vertex 1.92898 2.5 0.93958
      vertex 1.92898 -2.5 0.93958
    endloop
  endfacet
  facet normal -0.509017 0 -0.860757
    outer loop
      vertex 1.92898 2.5 0.93958
      vertex 1.73431 -2.5 1.0547
      vertex 1.73431 2.5 1.0547
    endloop
  endfacet
  facet normal 0.987687 0 -0.156442
    outer loop
      vertex -3.53623 -2.5 -1.42543
      vertex -3.57161 2.5 -1.6488
      vertex -3.53623 2.5 -1.42543
    endloop
  endfacet
  facet normal 0.987687 0 -0.156442
    outer loop
      vertex -3.57161 2.5 -1.6488
      vertex -3.53623 -2.5 -1.42543
      vertex -3.57161 -2.5 -1.6488
    endloop
  endfacet
  facet normal 0.890995 0 -0.454013
    outer loop
      vertex -3.1547 -2.5 -0.365686
      vertex -3.25738 2.5 -0.567194
      vertex -3.1547 2.5 -0.365686
    endloop
  endfacet
  facet normal 0.890995 0 -0.454013
    outer loop
      vertex -3.25738 2.5 -0.567194
      vertex -3.1547 -2.5 -0.365686
      vertex -3.25738 -2.5 -0.567194
    endloop
  endfacet
  facet normal 0.96029 0 -0.279003
    outer loop
      vertex -3.4238 -2.5 -0.987538
      vertex -3.4869 2.5 -1.20472
      vertex -3.4238 2.5 -0.987538
    endloop
  endfacet
  facet normal 0.96029 0 -0.279003
    outer loop
      vertex -3.4869 2.5 -1.20472
      vertex -3.4238 -2.5 -0.987538
      vertex -3.4869 -2.5 -1.20472
    endloop
  endfacet
  facet normal 0.612907 0 -0.790155
    outer loop
      vertex -2.29473 -2.5 0.673847
      vertex -2.11603 2.5 0.812461
      vertex -2.11603 -2.5 0.812461
    endloop
  endfacet
  facet normal 0.612907 0 -0.790155
    outer loop
      vertex -2.11603 2.5 0.812461
      vertex -2.29473 -2.5 0.673847
      vertex -2.29473 2.5 0.673847
    endloop
  endfacet
  facet normal 0.454028 0 -0.890988
    outer loop
      vertex -1.73431 -2.5 1.0547
      vertex -1.53281 2.5 1.15738
      vertex -1.53281 -2.5 1.15738
    endloop
  endfacet
  facet normal 0.454028 0 -0.890988
    outer loop
      vertex -1.53281 2.5 1.15738
      vertex -1.73431 -2.5 1.0547
      vertex -1.73431 2.5 1.0547
    endloop
  endfacet
  facet normal 0.279008 0 -0.960289
    outer loop
      vertex -1.11246 -2.5 1.3238
      vertex -0.895283 2.5 1.3869
      vertex -0.895283 -2.5 1.3869
    endloop
  endfacet
  facet normal 0.279008 0 -0.960289
    outer loop
      vertex -0.895283 2.5 1.3869
      vertex -1.11246 -2.5 1.3238
      vertex -1.11246 2.5 1.3238
    endloop
  endfacet
  facet normal 0.338702 0 -0.940894
    outer loop
      vertex -1.32525 -2.5 1.2472
      vertex -1.11246 2.5 1.3238
      vertex -1.11246 -2.5 1.3238
    endloop
  endfacet
  facet normal 0.338702 0 -0.940894
    outer loop
      vertex -1.11246 2.5 1.3238
      vertex -1.32525 -2.5 1.2472
      vertex -1.32525 2.5 1.2472
    endloop
  endfacet
  facet normal 0.218123 0 -0.975921
    outer loop
      vertex -0.895283 -2.5 1.3869
      vertex -0.674572 2.5 1.43623
      vertex -0.674572 -2.5 1.43623
    endloop
  endfacet
  facet normal 0.218123 0 -0.975921
    outer loop
      vertex -0.674572 2.5 1.43623
      vertex -0.895283 -2.5 1.3869
      vertex -0.895283 2.5 1.3869
    endloop
  endfacet
  facet normal 0.0313941 0 -0.999507
    outer loop
      vertex -0.226046 -2.5 1.4929
      vertex 0 2.5 1.5
      vertex 0 -2.5 1.5
    endloop
  endfacet
  facet normal 0.0313941 0 -0.999507
    outer loop
      vertex 0 2.5 1.5
      vertex -0.226046 -2.5 1.4929
      vertex -0.226046 2.5 1.4929
    endloop
  endfacet
  facet normal 0.999507 -0 0.0313935
    outer loop
      vertex -3.6 -2.5 -2.1
      vertex -3.5929 2.5 -2.32605
      vertex -3.6 2.5 -2.1
    endloop
  endfacet
  facet normal 0.999507 0 0.0313935
    outer loop
      vertex -3.5929 2.5 -2.32605
      vertex -3.6 -2.5 -2.1
      vertex -3.5929 -2.5 -2.32605
    endloop
  endfacet
  facet normal -0.940878 0 -0.338746
    outer loop
      vertex 3.4238 -2.5 -0.987538
      vertex 3.34719 2.5 -0.774751
      vertex 3.4238 2.5 -0.987538
    endloop
  endfacet
  facet normal -0.940878 -0 -0.338746
    outer loop
      vertex 3.34719 2.5 -0.774751
      vertex 3.4238 -2.5 -0.987538
      vertex 3.34719 -2.5 -0.774751
    endloop
  endfacet
  facet normal -0.750112 0 -0.661311
    outer loop
      vertex 2.77385 -2.5 0.194726
      vertex 2.62429 2.5 0.364369
      vertex 2.77385 2.5 0.194726
    endloop
  endfacet
  facet normal -0.750112 -0 -0.661311
    outer loop
      vertex 2.62429 2.5 0.364369
      vertex 2.77385 -2.5 0.194726
      vertex 2.62429 -2.5 0.364369
    endloop
  endfacet
  facet normal -0.890995 0 -0.454013
    outer loop
      vertex 3.25738 -2.5 -0.567194
      vertex 3.1547 2.5 -0.365686
      vertex 3.25738 2.5 -0.567194
    endloop
  endfacet
  facet normal -0.890995 -0 -0.454013
    outer loop
      vertex 3.1547 2.5 -0.365686
      vertex 3.25738 -2.5 -0.567194
      vertex 3.1547 -2.5 -0.365686
    endloop
  endfacet
  facet normal -0.860749 0 -0.50903
    outer loop
      vertex 3.1547 -2.5 -0.365686
      vertex 3.03958 2.5 -0.171023
      vertex 3.1547 2.5 -0.365686
    endloop
  endfacet
  facet normal -0.860749 -0 -0.50903
    outer loop
      vertex 3.03958 2.5 -0.171023
      vertex 3.1547 -2.5 -0.365686
      vertex 3.03958 -2.5 -0.171023
    endloop
  endfacet
  facet normal -0.338702 0 -0.940894
    outer loop
      vertex 1.11246 -2.5 1.3238
      vertex 1.32525 2.5 1.2472
      vertex 1.32525 -2.5 1.2472
    endloop
  endfacet
  facet normal -0.338702 0 -0.940894
    outer loop
      vertex 1.32525 2.5 1.2472
      vertex 1.11246 -2.5 1.3238
      vertex 1.11246 2.5 1.3238
    endloop
  endfacet
  facet normal -0.66132 0 -0.750104
    outer loop
      vertex 2.29473 -2.5 0.673847
      vertex 2.46437 2.5 0.524286
      vertex 2.46437 -2.5 0.524286
    endloop
  endfacet
  facet normal -0.66132 0 -0.750104
    outer loop
      vertex 2.46437 2.5 0.524286
      vertex 2.29473 -2.5 0.673847
      vertex 2.29473 2.5 0.673847
    endloop
  endfacet
  facet normal -0.612907 0 -0.790155
    outer loop
      vertex 2.11603 -2.5 0.812461
      vertex 2.29473 2.5 0.673847
      vertex 2.29473 -2.5 0.673847
    endloop
  endfacet
  facet normal -0.612907 0 -0.790155
    outer loop
      vertex 2.29473 2.5 0.673847
      vertex 2.11603 -2.5 0.812461
      vertex 2.11603 2.5 0.812461
    endloop
  endfacet
  facet normal 0.790163 0 -0.612897
    outer loop
      vertex -2.77385 -2.5 0.194726
      vertex -2.91246 2.5 0.0160265
      vertex -2.77385 2.5 0.194726
    endloop
  endfacet
  facet normal 0.790163 0 -0.612897
    outer loop
      vertex -2.91246 2.5 0.0160265
      vertex -2.77385 -2.5 0.194726
      vertex -2.91246 -2.5 0.0160265
    endloop
  endfacet
  facet normal 0.750112 0 -0.661311
    outer loop
      vertex -2.62429 -2.5 0.364369
      vertex -2.77385 2.5 0.194726
      vertex -2.62429 2.5 0.364369
    endloop
  endfacet
  facet normal 0.750112 0 -0.661311
    outer loop
      vertex -2.77385 2.5 0.194726
      vertex -2.62429 -2.5 0.364369
      vertex -2.77385 -2.5 0.194726
    endloop
  endfacet
  facet normal 0.940878 0 -0.338746
    outer loop
      vertex -3.34719 -2.5 -0.774751
      vertex -3.4238 2.5 -0.987538
      vertex -3.34719 2.5 -0.774751
    endloop
  endfacet
  facet normal 0.940878 0 -0.338746
    outer loop
      vertex -3.4238 2.5 -0.987538
      vertex -3.34719 -2.5 -0.774751
      vertex -3.4238 -2.5 -0.987538
    endloop
  endfacet
  facet normal 0.995559 0 -0.0941392
    outer loop
      vertex -3.57161 -2.5 -1.6488
      vertex -3.5929 2.5 -1.87395
      vertex -3.57161 2.5 -1.6488
    endloop
  endfacet
  facet normal 0.995559 0 -0.0941392
    outer loop
      vertex -3.5929 2.5 -1.87395
      vertex -3.57161 -2.5 -1.6488
      vertex -3.5929 -2.5 -1.87395
    endloop
  endfacet
  facet normal 0.66132 0 -0.750104
    outer loop
      vertex -2.46437 -2.5 0.524286
      vertex -2.29473 2.5 0.673847
      vertex -2.29473 -2.5 0.673847
    endloop
  endfacet
  facet normal 0.66132 0 -0.750104
    outer loop
      vertex -2.29473 2.5 0.673847
      vertex -2.46437 -2.5 0.524286
      vertex -2.46437 2.5 0.524286
    endloop
  endfacet
  facet normal 0.509017 0 -0.860757
    outer loop
      vertex -1.92898 -2.5 0.93958
      vertex -1.73431 2.5 1.0547
      vertex -1.73431 -2.5 1.0547
    endloop
  endfacet
  facet normal 0.509017 0 -0.860757
    outer loop
      vertex -1.73431 2.5 1.0547
      vertex -1.92898 -2.5 0.93958
      vertex -1.92898 2.5 0.93958
    endloop
  endfacet
  facet normal 0.15644 0 -0.987687
    outer loop
      vertex -0.674572 -2.5 1.43623
      vertex -0.4512 2.5 1.47161
      vertex -0.4512 -2.5 1.47161
    endloop
  endfacet
  facet normal 0.15644 0 -0.987687
    outer loop
      vertex -0.4512 2.5 1.47161
      vertex -0.674572 -2.5 1.43623
      vertex -0.674572 2.5 1.43623
    endloop
  endfacet
  facet normal -0.995558 0 0.0941474
    outer loop
      vertex 3.57645 -2.5 -2.5
      vertex 3.5929 2.5 -2.32605
      vertex 3.57645 2.5 -2.5
    endloop
  endfacet
  facet normal -0.995558 0 0.0941474
    outer loop
      vertex 3.5929 2.5 -2.32605
      vertex 3.57645 -2.5 -2.5
      vertex 3.5929 -2.5 -2.32605
    endloop
  endfacet
  facet normal -0.999507 0 0.0313935
    outer loop
      vertex 3.5929 -2.5 -2.32605
      vertex 3.6 2.5 -2.1
      vertex 3.5929 2.5 -2.32605
    endloop
  endfacet
  facet normal -0.999507 0 0.0313935
    outer loop
      vertex 3.6 2.5 -2.1
      vertex 3.5929 -2.5 -2.32605
      vertex 3.6 -2.5 -2.1
    endloop
  endfacet
  facet normal 0.995558 -0 0.0941474
    outer loop
      vertex -3.5929 -2.5 -2.32605
      vertex -3.57645 2.5 -2.5
      vertex -3.5929 2.5 -2.32605
    endloop
  endfacet
  facet normal 0.995558 0 0.0941474
    outer loop
      vertex -3.57645 2.5 -2.5
      vertex -3.5929 -2.5 -2.32605
      vertex -3.57645 -2.5 -2.5
    endloop
  endfacet
endsolid OpenSCAD_Model
