solid OpenSCAD_Model
  facet normal -1 0 0
    outer loop
      vertex -5 -2.5 -2.5
      vertex -5 2.5 2.5
      vertex -5 2.5 -2.5
    endloop
  endfacet
  facet normal -1 -0 0
    outer loop
      vertex -5 2.5 2.5
      vertex -5 -2.5 -2.5
      vertex -5 -2.5 2.5
    endloop
  endfacet
  facet normal -0 0 1
    outer loop
      vertex -5 2.5 2.5
      vertex 5 -2.5 2.5
      vertex 5 2.5 2.5
    endloop
  endfacet
  facet normal 0 0 1
    outer loop
      vertex 5 -2.5 2.5
      vertex -5 2.5 2.5
      vertex -5 -2.5 2.5
    endloop
  endfacet
  facet normal 1 -0 0
    outer loop
      vertex 5 -2.5 2.5
      vertex 5 2.5 -2.5
      vertex 5 2.5 2.5
    endloop
  endfacet
  facet normal 1 0 0
    outer loop
      vertex 5 2.5 -2.5
      vertex 5 -2.5 2.5
      vertex 5 -2.5 -2.5
    endloop
  endfacet
  facet normal 0 1 0
    outer loop
      vertex 5 2.5 2.5
      vertex 0 2.5 0.7
      vertex -5 2.5 2.5
    endloop
  endfacet
  facet normal 0 1 0
    outer loop
      vertex 5 2.5 2.5
      vertex 0.226046 2.5 0.692896
      vertex 0 2.5 0.7
    endloop
  endfacet
  facet normal 0 1 0
    outer loop
      vertex 5 2.5 2.5
      vertex 0.4512 2.5 0.671613
      vertex 0.226046 2.5 0.692896
    endloop
  endfacet
  facet normal 0 1 0
    outer loop
      vertex 5 2.5 2.5
      vertex 0.674572 2.5 0.636233
      vertex 0.4512 2.5 0.671613
    endloop
  endfacet
  facet normal 0 1 0
    outer loop
      vertex 5 2.5 2.5
      vertex 0.895283 2.5 0.586899
      vertex 0.674572 2.5 0.636233
    endloop
  endfacet
  facet normal 0 1 0
    outer loop
      vertex 5 2.5 2.5
      vertex 1.11246 2.5 0.523803
      vertex 0.895283 2.5 0.586899
    endloop
  endfacet
  facet normal 0 1 0
    outer loop
      vertex 5 2.5 2.5
      vertex 1.32525 2.5 0.447195
      vertex 1.11246 2.5 0.523803
    endloop
  endfacet
  facet normal 0 1 0
    outer loop
      vertex 5 2.5 2.5
      vertex 1.53281 2.5 0.357377
      vertex 1.32525 2.5 0.447195
    endloop
  endfacet
  facet normal 0 1 0
    outer loop
      vertex 5 2.5 2.5
      vertex 1.73431 2.5 0.254704
      vertex 1.53281 2.5 0.357377
    endloop
  endfacet
  facet normal 0 1 0
    outer loop
      vertex 5 2.5 2.5
      vertex 1.92898 2.5 0.13958
      vertex 1.73431 2.5 0.254704
    endloop
  endfacet
  facet normal 0 1 0
    outer loop
      vertex 5 2.5 2.5
      vertex 2.11603 2.5 0.0124607
      vertex 1.92898 2.5 0.13958
    endloop
  endfacet
  facet normal 0 1 0
    outer loop
      vertex 5 2.5 2.5
      vertex 2.29473 2.5 -0.126152
      vertex 2.11603 2.5 0.0124607
    endloop
  endfacet
  facet normal 0 1 0
    outer loop
      vertex 5 2.5 2.5
      vertex 2.46437 2.5 -0.275712
      vertex 2.29473 2.5 -0.126152
    endloop
  endfacet
  facet normal 0 1 0
    outer loop
      vertex 5 2.5 2.5
      vertex 2.62429 2.5 -0.43563
      vertex 2.46437 2.5 -0.275712
    endloop
  endfacet
  facet normal 0 1 0
    outer loop
      vertex 5 2.5 2.5
      vertex 2.77385 2.5 -0.605273
      vertex 2.62429 2.5 -0.43563
    endloop
  endfacet
  facet normal 0 1 0
    outer loop
      vertex 5 2.5 2.5
      vertex 2.91246 2.5 -0.783973
      vertex 2.77385 2.5 -0.605273
    endloop
  endfacet
  facet normal 0 1 0
    outer loop
      vertex 5 2.5 2.5
      vertex 3.03958 2.5 -0.971023
      vertex 2.91246 2.5 -0.783973
    endloop
  endfacet
  facet normal 0 1 0
    outer loop
      vertex 5 2.5 2.5
      vertex 3.1547 2.5 -1.16569
      vertex 3.03958 2.5 -0.971023
    endloop
  endfacet
  facet normal 0 1 -0
    outer loop
      vertex 5 2.5 -2.5
      vertex 3.1547 2.5 -1.16569
      vertex 5 2.5 2.5
    endloop
  endfacet
  facet normal 0 1 0
    outer loop
      vertex 3.1547 2.5 -1.16569
      vertex 5 2.5 -2.5
      vertex 3.25738 2.5 -1.36719
    endloop
  endfacet
  facet normal 0 1 0
    outer loop
      vertex 3.25738 2.5 -1.36719
      vertex 5 2.5 -2.5
      vertex 3.34719 2.5 -1.57475
    endloop
  endfacet
  facet normal 0 1 0
    outer loop
      vertex 3.34719 2.5 -1.57475
      vertex 5 2.5 -2.5
      vertex 3.4238 2.5 -1.78754
    endloop
  endfacet
  facet normal 0 1 0
    outer loop
      vertex 3.4238 2.5 -1.78754
      vertex 5 2.5 -2.5
      vertex 3.4869 2.5 -2.00472
    endloop
  endfacet
  facet normal 0 1 0
    outer loop
      vertex 3.4869 2.5 -2.00472
      vertex 5 2.5 -2.5
      vertex 3.53623 2.5 -2.22543
    endloop
  endfacet
  facet normal 0 1 0
    outer loop
      vertex 3.53623 2.5 -2.22543
      vertex 5 2.5 -2.5
      vertex 3.57161 2.5 -2.4488
    endloop
  endfacet
  facet normal 0 1 0
    outer loop
      vertex 3.57161 2.5 -2.4488
      vertex 5 2.5 -2.5
      vertex 3.57645 2.5 -2.5
    endloop
  endfacet
  facet normal 0 1 -0
    outer loop
      vertex -0.226046 2.5 0.692896
      vertex -5 2.5 2.5
      vertex 0 2.5 0.7
    endloop
  endfacet
  facet normal 0 1 -0
    outer loop
      vertex -0.4512 2.5 0.671613
      vertex -5 2.5 2.5
      vertex -0.226046 2.5 0.692896
    endloop
  endfacet
  facet normal 0 1 -0
    outer loop
      vertex -0.674572 2.5 0.636233
      vertex -5 2.5 2.5
      vertex -0.4512 2.5 0.671613
    endloop
  endfacet
  facet normal 0 1 -0
    outer loop
      vertex -0.895283 2.5 0.586899
      vertex -5 2.5 2.5
      vertex -0.674572 2.5 0.636233
    endloop
  endfacet
  facet normal 0 1 -0
    outer loop
      vertex -1.11246 2.5 0.523803
      vertex -5 2.5 2.5
      vertex -0.895283 2.5 0.586899
    endloop
  endfacet
  facet normal 0 1 -0
    outer loop
      vertex -1.32525 2.5 0.447195
      vertex -5 2.5 2.5
      vertex -1.11246 2.5 0.523803
    endloop
  endfacet
  facet normal 0 1 -0
    outer loop
      vertex -1.53281 2.5 0.357377
      vertex -5 2.5 2.5
      vertex -1.32525 2.5 0.447195
    endloop
  endfacet
  facet normal 0 1 -0
    outer loop
      vertex -1.73431 2.5 0.254704
      vertex -5 2.5 2.5
      vertex -1.53281 2.5 0.357377
    endloop
  endfacet
  facet normal 0 1 -0
    outer loop
      vertex -1.92898 2.5 0.13958
      vertex -5 2.5 2.5
      vertex -1.73431 2.5 0.254704
    endloop
  endfacet
  facet normal 0 1 -0
    outer loop
      vertex -2.11603 2.5 0.0124607
      vertex -5 2.5 2.5
      vertex -1.92898 2.5 0.13958
    endloop
  endfacet
  facet normal 0 1 -0
    outer loop
      vertex -2.29473 2.5 -0.126152
      vertex -5 2.5 2.5
      vertex -2.11603 2.5 0.0124607
    endloop
  endfacet
  facet normal 0 1 -0
    outer loop
      vertex -2.46437 2.5 -0.275712
      vertex -5 2.5 2.5
      vertex -2.29473 2.5 -0.126152
    endloop
  endfacet
  facet normal 0 1 -0
    outer loop
      vertex -2.62429 2.5 -0.43563
      vertex -5 2.5 2.5
      vertex -2.46437 2.5 -0.275712
    endloop
  endfacet
  facet normal 0 1 -0
    outer loop
      vertex -2.77385 2.5 -0.605273
      vertex -5 2.5 2.5
      vertex -2.62429 2.5 -0.43563
    endloop
  endfacet
  facet normal 0 1 -0
    outer loop
      vertex -2.91246 2.5 -0.783973
      vertex -5 2.5 2.5
      vertex -2.77385 2.5 -0.605273
    endloop
  endfacet
  facet normal 0 1 -0
    outer loop
      vertex -3.03958 2.5 -0.971023
      vertex -5 2.5 2.5
      vertex -2.91246 2.5 -0.783973
    endloop
  endfacet
  facet normal 0 1 -0
    outer loop
      vertex -3.1547 2.5 -1.16569
      vertex -5 2.5 2.5
      vertex -3.03958 2.5 -0.971023
    endloop
  endfacet
  facet normal 0 1 0
    outer loop
      vertex -5 2.5 -2.5
      vertex -3.1547 2.5 -1.16569
      vertex -3.25738 2.5 -1.36719
    endloop
  endfacet
  facet normal 0 1 0
    outer loop
      vertex -5 2.5 -2.5
      vertex -3.25738 2.5 -1.36719
      vertex -3.34719 2.5 -1.57475
    endloop
  endfacet
  facet normal 0 1 0
    outer loop
      vertex -5 2.5 -2.5
      vertex -3.34719 2.5 -1.57475
      vertex -3.4238 2.5 -1.78754
    endloop
  endfacet
  facet normal 0 1 0
    outer loop
      vertex -5 2.5 -2.5
      vertex -3.4238 2.5 -1.78754
      vertex -3.4869 2.5 -2.00472
    endloop
  endfacet
  facet normal 0 1 0
    outer loop
      vertex -5 2.5 -2.5
      vertex -3.4869 2.5 -2.00472
      vertex -3.53623 2.5 -2.22543
    endloop
  endfacet
  facet normal 0 1 0
    outer loop
      vertex -5 2.5 -2.5
      vertex -3.53623 2.5 -2.22543
      vertex -3.57161 2.5 -2.4488
    endloop
  endfacet
  facet normal 0 1 0
    outer loop
      vertex -5 2.5 -2.5
      vertex -3.57161 2.5 -2.4488
      vertex -3.57645 2.5 -2.5
    endloop
  endfacet
  facet normal 0 1 0
    outer loop
      vertex -3.1547 2.5 -1.16569
      vertex -5 2.5 -2.5
      vertex -5 2.5 2.5
    endloop
  endfacet
  facet normal 0 0 -1
    outer loop
      vertex -5 -2.5 -2.5
      vertex -3.57645 2.5 -2.5
      vertex -3.57645 -2.5 -2.5
    endloop
  endfacet
  facet normal -0 0 -1
    outer loop
      vertex -3.57645 2.5 -2.5
      vertex -5 -2.5 -2.5
      vertex -5 2.5 -2.5
    endloop
  endfacet
  facet normal 0 0 -1
    outer loop
      vertex 3.57645 -2.5 -2.5
      vertex 5 2.5 -2.5
      vertex 5 -2.5 -2.5
    endloop
  endfacet
  facet normal -0 0 -1
    outer loop
      vertex 5 2.5 -2.5
      vertex 3.57645 -2.5 -2.5
      vertex 3.57645 2.5 -2.5
    endloop
  endfacet
  facet normal 0 -1 0
    outer loop
      vertex -5 -2.5 2.5
      vertex 0 -2.5 0.7
      vertex 5 -2.5 2.5
    endloop
  endfacet
  facet normal 0 -1 0
    outer loop
      vertex -5 -2.5 2.5
      vertex -0.226046 -2.5 0.692896
      vertex 0 -2.5 0.7
    endloop
  endfacet
  facet normal 0 -1 0
    outer loop
      vertex -5 -2.5 2.5
      vertex -0.4512 -2.5 0.671613
      vertex -0.226046 -2.5 0.692896
    endloop
  endfacet
  facet normal 0 -1 0
    outer loop
      vertex -5 -2.5 2.5
      vertex -0.674572 -2.5 0.636233
      vertex -0.4512 -2.5 0.671613
    endloop
  endfacet
  facet normal 0 -1 0
    outer loop
      vertex -5 -2.5 2.5
      vertex -0.895283 -2.5 0.586899
      vertex -0.674572 -2.5 0.636233
    endloop
  endfacet
  facet normal 0 -1 0
    outer loop
      vertex -5 -2.5 2.5
      vertex -1.11246 -2.5 0.523803
      vertex -0.895283 -2.5 0.586899
    endloop
  endfacet
  facet normal 0 -1 0
    outer loop
      vertex -5 -2.5 2.5
      vertex -1.32525 -2.5 0.447195
      vertex -1.11246 -2.5 0.523803
    endloop
  endfacet
  facet normal 0 -1 0
    outer loop
      vertex -5 -2.5 2.5
      vertex -1.53281 -2.5 0.357377
      vertex -1.32525 -2.5 0.447195
    endloop
  endfacet
  facet normal 0 -1 0
    outer loop
      vertex -5 -2.5 2.5
      vertex -1.73431 -2.5 0.254704
      vertex -1.53281 -2.5 0.357377
    endloop
  endfacet
  facet normal 0 -1 0
    outer loop
      vertex -5 -2.5 2.5
      vertex -1.92898 -2.5 0.13958
      vertex -1.73431 -2.5 0.254704
    endloop
  endfacet
  facet normal 0 -1 0
    outer loop
      vertex -5 -2.5 2.5
      vertex -2.11603 -2.5 0.0124607
      vertex -1.92898 -2.5 0.13958
    endloop
  endfacet
  facet normal 0 -1 0
    outer loop
      vertex -5 -2.5 2.5
      vertex -2.29473 -2.5 -0.126152
      vertex -2.11603 -2.5 0.0124607
    endloop
  endfacet
  facet normal 0 -1 0
    outer loop
      vertex -5 -2.5 2.5
      vertex -2.46437 -2.5 -0.275712
      vertex -2.29473 -2.5 -0.126152
    endloop
  endfacet
  facet normal 0 -1 0
    outer loop
      vertex -5 -2.5 2.5
      vertex -2.62429 -2.5 -0.43563
      vertex -2.46437 -2.5 -0.275712
    endloop
  endfacet
  facet normal 0 -1 0
    outer loop
      vertex -5 -2.5 2.5
      vertex -2.77385 -2.5 -0.605273
      vertex -2.62429 -2.5 -0.43563
    endloop
  endfacet
  facet normal 0 -1 0
    outer loop
      vertex -5 -2.5 2.5
      vertex -2.91246 -2.5 -0.783973
      vertex -2.77385 -2.5 -0.605273
    endloop
  endfacet
  facet normal 0 -1 0
    outer loop
      vertex -5 -2.5 2.5
      vertex -3.03958 -2.5 -0.971023
      vertex -2.91246 -2.5 -0.783973
    endloop
  endfacet
  facet normal 0 -1 0
    outer loop
      vertex -5 -2.5 2.5
      vertex -3.1547 -2.5 -1.16569
      vertex -3.03958 -2.5 -0.971023
    endloop
  endfacet
  facet normal 0 -1 0
    outer loop
      vertex -5 -2.5 -2.5
      vertex -3.1547 -2.5 -1.16569
      vertex -5 -2.5 2.5
    endloop
  endfacet
  facet normal 0 -1 0
    outer loop
      vertex -3.1547 -2.5 -1.16569
      vertex -5 -2.5 -2.5
      vertex -3.25738 -2.5 -1.36719
    endloop
  endfacet
  facet normal 0 -1 0
    outer loop
      vertex -3.25738 -2.5 -1.36719
      vertex -5 -2.5 -2.5
      vertex -3.34719 -2.5 -1.57475
    endloop
  endfacet
  facet normal 0 -1 0
    outer loop
      vertex -3.34719 -2.5 -1.57475
      vertex -5 -2.5 -2.5
      vertex -3.4238 -2.5 -1.78754
    endloop
  endfacet
  facet normal 0 -1 0
    outer loop
      vertex -3.4238 -2.5 -1.78754
      vertex -5 -2.5 -2.5
      vertex -3.4869 -2.5 -2.00472
    endloop
  endfacet
  facet normal 0 -1 0
    outer loop
      vertex -3.4869 -2.5 -2.00472
      vertex -5 -2.5 -2.5
      vertex -3.53623 -2.5 -2.22543
    endloop
  endfacet
  facet normal 0 -1 0
    outer loop
      vertex -3.53623 -2.5 -2.22543
      vertex -5 -2.5 -2.5
      vertex -3.57161 -2.5 -2.4488
    endloop
  endfacet
  facet normal 0 -1 0
    outer loop
      vertex -3.57161 -2.5 -2.4488
      vertex -5 -2.5 -2.5
      vertex -3.57645 -2.5 -2.5
    endloop
  endfacet
  facet normal 0 -1 0
    outer loop
      vertex 0.226046 -2.5 0.692896
      vertex 5 -2.5 2.5
      vertex 0 -2.5 0.7
    endloop
  endfacet
  facet normal 0 -1 0
    outer loop
      vertex 0.4512 -2.5 0.671613
      vertex 5 -2.5 2.5
      vertex 0.226046 -2.5 0.692896
    endloop
  endfacet
  facet normal 0 -1 0
    outer loop
      vertex 0.674572 -2.5 0.636233
      vertex 5 -2.5 2.5
      vertex 0.4512 -2.5 0.671613
    endloop
  endfacet
  facet normal 0 -1 0
    outer loop
      vertex 0.895283 -2.5 0.586899
      vertex 5 -2.5 2.5
      vertex 0.674572 -2.5 0.636233
    endloop
  endfacet
  facet normal 0 -1 0
    outer loop
      vertex 1.11246 -2.5 0.523803
      vertex 5 -2.5 2.5
      vertex 0.895283 -2.5 0.586899
    endloop
  endfacet
  facet normal 0 -1 0
    outer loop
      vertex 1.32525 -2.5 0.447195
      vertex 5 -2.5 2.5
      vertex 1.11246 -2.5 0.523803
    endloop
  endfacet
  facet normal 0 -1 0
    outer loop
      vertex 1.53281 -2.5 0.357377
      vertex 5 -2.5 2.5
      vertex 1.32525 -2.5 0.447195
    endloop
  endfacet
  facet normal 0 -1 0
    outer loop
      vertex 1.73431 -2.5 0.254704
      vertex 5 -2.5 2.5
      vertex 1.53281 -2.5 0.357377
    endloop
  endfacet
  facet normal 0 -1 0
    outer loop
      vertex 1.92898 -2.5 0.13958
      vertex 5 -2.5 2.5
      vertex 1.73431 -2.5 0.254704
    endloop
  endfacet
  facet normal 0 -1 0
    outer loop
      vertex 2.11603 -2.5 0.0124607
      vertex 5 -2.5 2.5
      vertex 1.92898 -2.5 0.13958
    endloop
  endfacet
  facet normal 0 -1 0
    outer loop
      vertex 2.29473 -2.5 -0.126152
      vertex 5 -2.5 2.5
      vertex 2.11603 -2.5 0.0124607
    endloop
  endfacet
  facet normal 0 -1 0
    outer loop
      vertex 2.46437 -2.5 -0.275712
      vertex 5 -2.5 2.5
      vertex 2.29473 -2.5 -0.126152
    endloop
  endfacet
  facet normal 0 -1 0
    outer loop
      vertex 2.62429 -2.5 -0.43563
      vertex 5 -2.5 2.5
      vertex 2.46437 -2.5 -0.275712
    endloop
  endfacet
  facet normal 0 -1 0
    outer loop
      vertex 2.77385 -2.5 -0.605273
      vertex 5 -2.5 2.5
      vertex 2.62429 -2.5 -0.43563
    endloop
  endfacet
  facet normal 0 -1 0
    outer loop
      vertex 2.91246 -2.5 -0.783973
      vertex 5 -2.5 2.5
      vertex 2.77385 -2.5 -0.605273
    endloop
  endfacet
  facet normal 0 -1 0
    outer loop
      vertex 3.03958 -2.5 -0.971023
      vertex 5 -2.5 2.5
      vertex 2.91246 -2.5 -0.783973
    endloop
  endfacet
  facet normal 0 -1 0
    outer loop
      vertex 3.1547 -2.5 -1.16569
      vertex 5 -2.5 2.5
      vertex 3.03958 -2.5 -0.971023
    endloop
  endfacet
  facet normal 0 -1 0
    outer loop
      vertex 5 -2.5 -2.5
      vertex 3.1547 -2.5 -1.16569
      vertex 3.25738 -2.5 -1.36719
    endloop
  endfacet
  facet normal 0 -1 0
    outer loop
      vertex 5 -2.5 -2.5
      vertex 3.25738 -2.5 -1.36719
      vertex 3.34719 -2.5 -1.57475
    endloop
  endfacet
  facet normal 0 -1 0
    outer loop
      vertex 5 -2.5 -2.5
      vertex 3.34719 -2.5 -1.57475
      vertex 3.4238 -2.5 -1.78754
    endloop
  endfacet
  facet normal 0 -1 0
    outer loop
      vertex 5 -2.5 -2.5
      vertex 3.4238 -2.5 -1.78754
      vertex 3.4869 -2.5 -2.00472
    endloop
  endfacet
  facet normal 0 -1 0
    outer loop
      vertex 5 -2.5 -2.5
      vertex 3.4869 -2.5 -2.00472
      vertex 3.53623 -2.5 -2.22543
    endloop
  endfacet
  facet normal 0 -1 0
    outer loop
      vertex 5 -2.5 -2.5
      vertex 3.53623 -2.5 -2.22543
      vertex 3.57161 -2.5 -2.4488
    endloop
  endfacet
  facet normal 0 -1 0
    outer loop
      vertex 5 -2.5 -2.5
      vertex 3.57161 -2.5 -2.4488
      vertex 3.57645 -2.5 -2.5
    endloop
  endfacet
  facet normal 0 -1 0
    outer loop
      vertex 3.1547 -2.5 -1.16569
      vertex 5 -2.5 -2.5
      vertex 5 -2.5 2.5
    endloop
  endfacet
  facet normal -0.995562 0 -0.0941117
    outer loop
      vertex 3.57645 -2.5 -2.5
      vertex 3.57161 2.5 -2.4488
      vertex 3.57645 2.5 -2.5
    endloop
  endfacet
  facet normal -0.995562 -0 -0.0941117
    outer loop
      vertex 3.57161 2.5 -2.4488
      vertex 3.57645 -2.5 -2.5
      vertex 3.57161 -2.5 -2.4488
    endloop
  endfacet
  facet normal -0.0314117 0 -0.999507
    outer loop
      vertex 0 -2.5 0.7
      vertex 0.226046 2.5 0.692896
      vertex 0.226046 -2.5 0.692896
    endloop
  endfacet
  facet normal -0.0314117 0 -0.999507
    outer loop
      vertex 0.226046 2.5 0.692896
      vertex 0 -2.5 0.7
      vertex 0 2.5 0.7
    endloop
  endfacet
  facet normal -0.707102 0 -0.707111
    outer loop
      vertex 2.62429 -2.5 -0.43563
      vertex 2.46437 2.5 -0.275712
      vertex 2.62429 2.5 -0.43563
    endloop
  endfacet
  facet normal -0.707102 -0 -0.707111
    outer loop
      vertex 2.46437 2.5 -0.275712
      vertex 2.62429 -2.5 -0.43563
      vertex 2.46437 -2.5 -0.275712
    endloop
  endfacet
  facet normal 0.661317 0 -0.750106
    outer loop
      vertex -2.46437 -2.5 -0.275712
      vertex -2.29473 2.5 -0.126152
      vertex -2.29473 -2.5 -0.126152
    endloop
  endfacet
  facet normal 0.661317 0 -0.750106
    outer loop
      vertex -2.29473 2.5 -0.126152
      vertex -2.46437 -2.5 -0.275712
      vertex -2.46437 2.5 -0.275712
    endloop
  endfacet
  facet normal -0.91777 0 -0.397114
    outer loop
      vertex 3.34719 -2.5 -1.57475
      vertex 3.25738 2.5 -1.36719
      vertex 3.34719 2.5 -1.57475
    endloop
  endfacet
  facet normal -0.91777 -0 -0.397114
    outer loop
      vertex 3.25738 2.5 -1.36719
      vertex 3.34719 -2.5 -1.57475
      vertex 3.25738 -2.5 -1.36719
    endloop
  endfacet
  facet normal -0.397143 0 -0.917757
    outer loop
      vertex 1.32525 -2.5 0.447195
      vertex 1.53281 2.5 0.357377
      vertex 1.53281 -2.5 0.357377
    endloop
  endfacet
  facet normal -0.397143 0 -0.917757
    outer loop
      vertex 1.53281 2.5 0.357377
      vertex 1.32525 -2.5 0.447195
      vertex 1.32525 2.5 0.447195
    endloop
  endfacet
  facet normal 0.15644 0 -0.987687
    outer loop
      vertex -0.674572 -2.5 0.636233
      vertex -0.4512 2.5 0.671613
      vertex -0.4512 -2.5 0.671613
    endloop
  endfacet
  facet normal 0.15644 0 -0.987687
    outer loop
      vertex -0.4512 2.5 0.671613
      vertex -0.674572 -2.5 0.636233
      vertex -0.674572 2.5 0.636233
    endloop
  endfacet
  facet normal -0.975921 0 -0.218124
    outer loop
      vertex 3.53623 -2.5 -2.22543
      vertex 3.4869 2.5 -2.00472
      vertex 3.53623 2.5 -2.22543
    endloop
  endfacet
  facet normal -0.975921 -0 -0.218124
    outer loop
      vertex 3.4869 2.5 -2.00472
      vertex 3.53623 -2.5 -2.22543
      vertex 3.4869 -2.5 -2.00472
    endloop
  endfacet
  facet normal -0.96029 0 -0.279005
    outer loop
      vertex 3.4869 -2.5 -2.00472
      vertex 3.4238 2.5 -1.78754
      vertex 3.4869 2.5 -2.00472
    endloop
  endfacet
  facet normal -0.96029 -0 -0.279005
    outer loop
      vertex 3.4238 2.5 -1.78754
      vertex 3.4869 -2.5 -2.00472
      vertex 3.4238 -2.5 -1.78754
    endloop
  endfacet
  facet normal -0.21814 0 -0.975917
    outer loop
      vertex 0.674572 -2.5 0.636233
      vertex 0.895283 2.5 0.586899
      vertex 0.895283 -2.5 0.586899
    endloop
  endfacet
  facet normal -0.21814 0 -0.975917
    outer loop
      vertex 0.895283 2.5 0.586899
      vertex 0.674572 -2.5 0.636233
      vertex 0.674572 2.5 0.636233
    endloop
  endfacet
  facet normal -0.562084 0 -0.82708
    outer loop
      vertex 1.92898 -2.5 0.13958
      vertex 2.11603 2.5 0.0124607
      vertex 2.11603 -2.5 0.0124607
    endloop
  endfacet
  facet normal -0.562084 0 -0.82708
    outer loop
      vertex 2.11603 2.5 0.0124607
      vertex 1.92898 -2.5 0.13958
      vertex 1.92898 2.5 0.13958
    endloop
  endfacet
  facet normal -0.454003 0 -0.891
    outer loop
      vertex 1.53281 -2.5 0.357377
      vertex 1.73431 2.5 0.254704
      vertex 1.73431 -2.5 0.254704
    endloop
  endfacet
  facet normal -0.454003 0 -0.891
    outer loop
      vertex 1.73431 2.5 0.254704
      vertex 1.53281 -2.5 0.357377
      vertex 1.53281 2.5 0.357377
    endloop
  endfacet
  facet normal 0.975921 0 -0.218124
    outer loop
      vertex -3.4869 -2.5 -2.00472
      vertex -3.53623 2.5 -2.22543
      vertex -3.4869 2.5 -2.00472
    endloop
  endfacet
  facet normal 0.975921 0 -0.218124
    outer loop
      vertex -3.53623 2.5 -2.22543
      vertex -3.4869 -2.5 -2.00472
      vertex -3.53623 -2.5 -2.22543
    endloop
  endfacet
  facet normal 0.827079 0 -0.562086
    outer loop
      vertex -2.91246 -2.5 -0.783973
      vertex -3.03958 2.5 -0.971023
      vertex -2.91246 2.5 -0.783973
    endloop
  endfacet
  facet normal 0.827079 0 -0.562086
    outer loop
      vertex -3.03958 2.5 -0.971023
      vertex -2.91246 -2.5 -0.783973
      vertex -3.03958 -2.5 -0.971023
    endloop
  endfacet
  facet normal 0.91777 0 -0.397114
    outer loop
      vertex -3.25738 -2.5 -1.36719
      vertex -3.34719 2.5 -1.57475
      vertex -3.25738 2.5 -1.36719
    endloop
  endfacet
  facet normal 0.91777 0 -0.397114
    outer loop
      vertex -3.34719 2.5 -1.57475
      vertex -3.25738 -2.5 -1.36719
      vertex -3.34719 -2.5 -1.57475
    endloop
  endfacet
  facet normal 0.860753 0 -0.509023
    outer loop
      vertex -3.03958 -2.5 -0.971023
      vertex -3.1547 2.5 -1.16569
      vertex -3.03958 2.5 -0.971023
    endloop
  endfacet
  facet normal 0.860753 0 -0.509023
    outer loop
      vertex -3.1547 2.5 -1.16569
      vertex -3.03958 -2.5 -0.971023
      vertex -3.1547 -2.5 -1.16569
    endloop
  endfacet
  facet normal 0.50903 0 -0.860749
    outer loop
      vertex -1.92898 -2.5 0.13958
      vertex -1.73431 2.5 0.254704
      vertex -1.73431 -2.5 0.254704
    endloop
  endfacet
  facet normal 0.50903 0 -0.860749
    outer loop
      vertex -1.73431 2.5 0.254704
      vertex -1.92898 -2.5 0.13958
      vertex -1.92898 2.5 0.13958
    endloop
  endfacet
  facet normal 0.0941069 0 -0.995562
    outer loop
      vertex -0.4512 -2.5 0.671613
      vertex -0.226046 2.5 0.692896
      vertex -0.226046 -2.5 0.692896
    endloop
  endfacet
  facet normal 0.0941069 0 -0.995562
    outer loop
      vertex -0.226046 2.5 0.692896
      vertex -0.4512 -2.5 0.671613
      vertex -0.4512 2.5 0.671613
    endloop
  endfacet
  facet normal -0.987687 0 -0.156442
    outer loop
      vertex 3.57161 -2.5 -2.4488
      vertex 3.53623 2.5 -2.22543
      vertex 3.57161 2.5 -2.4488
    endloop
  endfacet
  facet normal -0.987687 -0 -0.156442
    outer loop
      vertex 3.53623 2.5 -2.22543
      vertex 3.57161 -2.5 -2.4488
      vertex 3.53623 -2.5 -2.22543
    endloop
  endfacet
  facet normal -0.790163 0 -0.612896
    outer loop
      vertex 2.91246 -2.5 -0.783973
      vertex 2.77385 2.5 -0.605273
      vertex 2.91246 2.5 -0.783973
    endloop
  endfacet
  facet normal -0.790163 -0 -0.612896
    outer loop
      vertex 2.77385 2.5 -0.605273
      vertex 2.91246 -2.5 -0.783973
      vertex 2.77385 -2.5 -0.605273
    endloop
  endfacet
  facet normal -0.827079 0 -0.562086
    outer loop
      vertex 3.03958 -2.5 -0.971023
      vertex 2.91246 2.5 -0.783973
      vertex 3.03958 2.5 -0.971023
    endloop
  endfacet
  facet normal -0.827079 -0 -0.562086
    outer loop
      vertex 2.91246 2.5 -0.783973
      vertex 3.03958 -2.5 -0.971023
      vertex 2.91246 -2.5 -0.783973
    endloop
  endfacet
  facet normal -0.15644 0 -0.987687
    outer loop
      vertex 0.4512 -2.5 0.671613
      vertex 0.674572 2.5 0.636233
      vertex 0.674572 -2.5 0.636233
    endloop
  endfacet
  facet normal -0.15644 0 -0.987687
    outer loop
      vertex 0.674572 2.5 0.636233
      vertex 0.4512 -2.5 0.671613
      vertex 0.4512 2.5 0.671613
    endloop
  endfacet
  facet normal -0.278992 0 -0.960293
    outer loop
      vertex 0.895283 -2.5 0.586899
      vertex 1.11246 2.5 0.523803
      vertex 1.11246 -2.5 0.523803
    endloop
  endfacet
  facet normal -0.278992 0 -0.960293
    outer loop
      vertex 1.11246 2.5 0.523803
      vertex 0.895283 -2.5 0.586899
      vertex 0.895283 2.5 0.586899
    endloop
  endfacet
  facet normal -0.50903 0 -0.860749
    outer loop
      vertex 1.73431 -2.5 0.254704
      vertex 1.92898 2.5 0.13958
      vertex 1.92898 -2.5 0.13958
    endloop
  endfacet
  facet normal -0.50903 0 -0.860749
    outer loop
      vertex 1.92898 2.5 0.13958
      vertex 1.73431 -2.5 0.254704
      vertex 1.73431 2.5 0.254704
    endloop
  endfacet
  facet normal 0.987687 0 -0.156442
    outer loop
      vertex -3.53623 -2.5 -2.22543
      vertex -3.57161 2.5 -2.4488
      vertex -3.53623 2.5 -2.22543
    endloop
  endfacet
  facet normal 0.987687 0 -0.156442
    outer loop
      vertex -3.57161 2.5 -2.4488
      vertex -3.53623 -2.5 -2.22543
      vertex -3.57161 -2.5 -2.4488
    endloop
  endfacet
  facet normal 0.890988 0 -0.454028
    outer loop
      vertex -3.1547 -2.5 -1.16569
      vertex -3.25738 2.5 -1.36719
      vertex -3.1547 2.5 -1.16569
    endloop
  endfacet
  facet normal 0.890988 0 -0.454028
    outer loop
      vertex -3.25738 2.5 -1.36719
      vertex -3.1547 -2.5 -1.16569
      vertex -3.25738 -2.5 -1.36719
    endloop
  endfacet
  facet normal 0.96029 0 -0.279005
    outer loop
      vertex -3.4238 -2.5 -1.78754
      vertex -3.4869 2.5 -2.00472
      vertex -3.4238 2.5 -1.78754
    endloop
  endfacet
  facet normal 0.96029 0 -0.279005
    outer loop
      vertex -3.4869 2.5 -2.00472
      vertex -3.4238 -2.5 -1.78754
      vertex -3.4869 -2.5 -2.00472
    endloop
  endfacet
  facet normal 0.562084 0 -0.82708
    outer loop
      vertex -2.11603 -2.5 0.0124607
      vertex -1.92898 2.5 0.13958
      vertex -1.92898 -2.5 0.13958
    endloop
  endfacet
  facet normal 0.562084 0 -0.82708
    outer loop
      vertex -1.92898 2.5 0.13958
      vertex -2.11603 -2.5 0.0124607
      vertex -2.11603 2.5 0.0124607
    endloop
  endfacet
  facet normal 0.397143 0 -0.917757
    outer loop
      vertex -1.53281 -2.5 0.357377
      vertex -1.32525 2.5 0.447195
      vertex -1.32525 -2.5 0.447195
    endloop
  endfacet
  facet normal 0.397143 0 -0.917757
    outer loop
      vertex -1.32525 2.5 0.447195
      vertex -1.53281 -2.5 0.357377
      vertex -1.53281 2.5 0.357377
    endloop
  endfacet
  facet normal 0.338734 0 -0.940882
    outer loop
      vertex -1.32525 -2.5 0.447195
      vertex -1.11246 2.5 0.523803
      vertex -1.11246 -2.5 0.523803
    endloop
  endfacet
  facet normal 0.338734 0 -0.940882
    outer loop
      vertex -1.11246 2.5 0.523803
      vertex -1.32525 -2.5 0.447195
      vertex -1.32525 2.5 0.447195
    endloop
  endfacet
  facet normal 0.21814 0 -0.975917
    outer loop
      vertex -0.895283 -2.5 0.586899
      vertex -0.674572 2.5 0.636233
      vertex -0.674572 -2.5 0.636233
    endloop
  endfacet
  facet normal 0.21814 0 -0.975917
    outer loop
      vertex -0.674572 2.5 0.636233
      vertex -0.895283 -2.5 0.586899
      vertex -0.895283 2.5 0.586899
    endloop
  endfacet
  facet normal 0.0314117 0 -0.999507
    outer loop
      vertex -0.226046 -2.5 0.692896
      vertex 0 2.5 0.7
      vertex 0 -2.5 0.7
    endloop
  endfacet
  facet normal 0.0314117 0 -0.999507
    outer loop
      vertex 0 2.5 0.7
      vertex -0.226046 -2.5 0.692896
      vertex -0.226046 2.5 0.692896
    endloop
  endfacet
  facet normal -0.94088 0 -0.338741
    outer loop
      vertex 3.4238 -2.5 -1.78754
      vertex 3.34719 2.5 -1.57475
      vertex 3.4238 2.5 -1.78754
    endloop
  endfacet
  facet normal -0.94088 -0 -0.338741
    outer loop
      vertex 3.34719 2.5 -1.57475
      vertex 3.4238 -2.5 -1.78754
      vertex 3.34719 -2.5 -1.57475
    endloop
  endfacet
  facet normal -0.750112 0 -0.661311
    outer loop
      vertex 2.77385 -2.5 -0.605273
      vertex 2.62429 2.5 -0.43563
      vertex 2.77385 2.5 -0.605273
    endloop
  endfacet
  facet normal -0.750112 -0 -0.661311
    outer loop
      vertex 2.62429 2.5 -0.43563
      vertex 2.77385 -2.5 -0.605273
      vertex 2.62429 -2.5 -0.43563
    endloop
  endfacet
  facet normal -0.890988 0 -0.454028
    outer loop
      vertex 3.25738 -2.5 -1.36719
      vertex 3.1547 2.5 -1.16569
      vertex 3.25738 2.5 -1.36719
    endloop
  endfacet
  facet normal -0.890988 -0 -0.454028
    outer loop
      vertex 3.1547 2.5 -1.16569
      vertex 3.25738 -2.5 -1.36719
      vertex 3.1547 -2.5 -1.16569
    endloop
  endfacet
  facet normal -0.860753 0 -0.509023
    outer loop
      vertex 3.1547 -2.5 -1.16569
      vertex 3.03958 2.5 -0.971023
      vertex 3.1547 2.5 -1.16569
    endloop
  endfacet
  facet normal -0.860753 -0 -0.509023
    outer loop
      vertex 3.03958 2.5 -0.971023
      vertex 3.1547 -2.5 -1.16569
      vertex 3.03958 -2.5 -0.971023
    endloop
  endfacet
  facet normal -0.338734 0 -0.940882
    outer loop
      vertex 1.11246 -2.5 0.523803
      vertex 1.32525 2.5 0.447195
      vertex 1.32525 -2.5 0.447195
    endloop
  endfacet
  facet normal -0.338734 0 -0.940882
    outer loop
      vertex 1.32525 2.5 0.447195
      vertex 1.11246 -2.5 0.523803
      vertex 1.11246 2.5 0.523803
    endloop
  endfacet
  facet normal -0.0941069 0 -0.995562
    outer loop
      vertex 0.226046 -2.5 0.692896
      vertex 0.4512 2.5 0.671613
      vertex 0.4512 -2.5 0.671613
    endloop
  endfacet
  facet normal -0.0941069 0 -0.995562
    outer loop
      vertex 0.4512 2.5 0.671613
      vertex 0.226046 -2.5 0.692896
      vertex 0.226046 2.5 0.692896
    endloop
  endfacet
  facet normal -0.661317 0 -0.750106
    outer loop
      vertex 2.29473 -2.5 -0.126152
      vertex 2.46437 2.5 -0.275712
      vertex 2.46437 -2.5 -0.275712
    endloop
  endfacet
  facet normal -0.661317 0 -0.750106
    outer loop
      vertex 2.46437 2.5 -0.275712
      vertex 2.29473 -2.5 -0.126152
      vertex 2.29473 2.5 -0.126152
    endloop
  endfacet
  facet normal -0.612904 0 -0.790158
    outer loop
      vertex 2.11603 -2.5 0.0124607
      vertex 2.29473 2.5 -0.126152
      vertex 2.29473 -2.5 -0.126152
    endloop
  endfacet
  facet normal -0.612904 0 -0.790158
    outer loop
      vertex 2.29473 2.5 -0.126152
      vertex 2.11603 -2.5 0.0124607
      vertex 2.11603 2.5 0.0124607
    endloop
  endfacet
  facet normal 0.790163 0 -0.612896
    outer loop
      vertex -2.77385 -2.5 -0.605273
      vertex -2.91246 2.5 -0.783973
      vertex -2.77385 2.5 -0.605273
    endloop
  endfacet
  facet normal 0.790163 0 -0.612896
    outer loop
      vertex -2.91246 2.5 -0.783973
      vertex -2.77385 -2.5 -0.605273
      vertex -2.91246 -2.5 -0.783973
    endloop
  endfacet
  facet normal 0.750112 0 -0.661311
    outer loop
      vertex -2.62429 -2.5 -0.43563
      vertex -2.77385 2.5 -0.605273
      vertex -2.62429 2.5 -0.43563
    endloop
  endfacet
  facet normal 0.750112 0 -0.661311
    outer loop
      vertex -2.77385 2.5 -0.605273
      vertex -2.62429 -2.5 -0.43563
      vertex -2.77385 -2.5 -0.605273
    endloop
  endfacet
  facet normal 0.94088 0 -0.338741
    outer loop
      vertex -3.34719 -2.5 -1.57475
      vertex -3.4238 2.5 -1.78754
      vertex -3.34719 2.5 -1.57475
    endloop
  endfacet
  facet normal 0.94088 0 -0.338741
    outer loop
      vertex -3.4238 2.5 -1.78754
      vertex -3.34719 -2.5 -1.57475
      vertex -3.4238 -2.5 -1.78754
    endloop
  endfacet
  facet normal 0.995562 0 -0.0941117
    outer loop
      vertex -3.57161 -2.5 -2.4488
      vertex -3.57645 2.5 -2.5
      vertex -3.57161 2.5 -2.4488
    endloop
  endfacet
  facet normal 0.995562 0 -0.0941117
    outer loop
      vertex -3.57645 2.5 -2.5
      vertex -3.57161 -2.5 -2.4488
      vertex -3.57645 -2.5 -2.5
    endloop
  endfacet
  facet normal 0.612904 0 -0.790158
    outer loop
      vertex -2.29473 -2.5 -0.126152
      vertex -2.11603 2.5 0.0124607
      vertex -2.11603 -2.5 0.0124607
    endloop
  endfacet
  facet normal 0.612904 0 -0.790158
    outer loop
      vertex -2.11603 2.5 0.0124607
      vertex -2.29473 -2.5 -0.126152
      vertex -2.29473 2.5 -0.126152
    endloop
  endfacet
  facet normal 0.454003 0 -0.891
    outer loop
      vertex -1.73431 -2.5 0.254704
      vertex -1.53281 2.5 0.357377
      vertex -1.53281 -2.5 0.357377
    endloop
  endfacet
  facet normal 0.454003 0 -0.891
    outer loop
      vertex -1.53281 2.5 0.357377
      vertex -1.73431 -2.5 0.254704
      vertex -1.73431 2.5 0.254704
    endloop
  endfacet
  facet normal 0.278992 0 -0.960293
    outer loop
      vertex -1.11246 -2.5 0.523803
      vertex -0.895283 2.5 0.586899
      vertex -0.895283 -2.5 0.586899
    endloop
  endfacet
  facet normal 0.278992 0 -0.960293
    outer loop
      vertex -0.895283 2.5 0.586899
      vertex -1.11246 -2.5 0.523803
      vertex -1.11246 2.5 0.523803
    endloop
  endfacet
  facet normal 0.707102 0 -0.707111
    outer loop
      vertex -2.46437 -2.5 -0.275712
      vertex -2.62429 2.5 -0.43563
      vertex -2.46437 2.5 -0.275712
    endloop
  endfacet
  facet normal 0.707102 0 -0.707111
    outer loop
      vertex -2.62429 2.5 -0.43563
      vertex -2.46437 -2.5 -0.275712
      vertex -2.62429 -2.5 -0.43563
    endloop
  endfacet
endsolid OpenSCAD_Model
