solid OpenSCAD_Model
  facet normal -1 0 0
    outer loop
      vertex -5 -2.5 -2.5
      vertex -5 2.5 2.5
      vertex -5 2.5 -2.5
    endloop
  endfacet
  facet normal -1 -0 0
    outer loop
      vertex -5 2.5 2.5
      vertex -5 -2.5 -2.5
      vertex -5 -2.5 2.5
    endloop
  endfacet
  facet normal -0 0 1
    outer loop
      vertex -5 2.5 2.5
      vertex 5 -2.5 2.5
      vertex 5 2.5 2.5
    endloop
  endfacet
  facet normal 0 0 1
    outer loop
      vertex 5 -2.5 2.5
      vertex -5 2.5 2.5
      vertex -5 -2.5 2.5
    endloop
  endfacet
  facet normal 1 -0 0
    outer loop
      vertex 5 -2.5 2.5
      vertex 5 2.5 -2.5
      vertex 5 2.5 2.5
    endloop
  endfacet
  facet normal 1 0 0
    outer loop
      vertex 5 2.5 -2.5
      vertex 5 -2.5 2.5
      vertex 5 -2.5 -2.5
    endloop
  endfacet
  facet normal 0 0 -1
    outer loop
      vertex -5 -2.5 -2.5
      vertex -2.99686 2.5 -2.5
      vertex -2.99686 -2.5 -2.5
    endloop
  endfacet
  facet normal -0 0 -1
    outer loop
      vertex -2.99686 2.5 -2.5
      vertex -5 -2.5 -2.5
      vertex -5 2.5 -2.5
    endloop
  endfacet
  facet normal 0 0 -1
    outer loop
      vertex 2.99686 -2.5 -2.5
      vertex 5 2.5 -2.5
      vertex 5 -2.5 -2.5
    endloop
  endfacet
  facet normal -0 0 -1
    outer loop
      vertex 5 2.5 -2.5
      vertex 2.99686 -2.5 -2.5
      vertex 2.99686 2.5 -2.5
    endloop
  endfacet
  facet normal 0 -1 0
    outer loop
      vertex -5 -2.5 2.5
      vertex 0 -2.5 0.599999
      vertex 5 -2.5 2.5
    endloop
  endfacet
  facet normal 0 -1 0
    outer loop
      vertex -5 -2.5 2.5
      vertex -0.188371 -2.5 0.59408
      vertex 0 -2.5 0.599999
    endloop
  endfacet
  facet normal 0 -1 0
    outer loop
      vertex -5 -2.5 2.5
      vertex -0.375999 -2.5 0.576344
      vertex -0.188371 -2.5 0.59408
    endloop
  endfacet
  facet normal 0 -1 0
    outer loop
      vertex -5 -2.5 2.5
      vertex -0.562143 -2.5 0.546862
      vertex -0.375999 -2.5 0.576344
    endloop
  endfacet
  facet normal 0 -1 0
    outer loop
      vertex -5 -2.5 2.5
      vertex -0.746069 -2.5 0.505749
      vertex -0.562143 -2.5 0.546862
    endloop
  endfacet
  facet normal 0 -1 0
    outer loop
      vertex -5 -2.5 2.5
      vertex -0.927051 -2.5 0.453169
      vertex -0.746069 -2.5 0.505749
    endloop
  endfacet
  facet normal 0 -1 0
    outer loop
      vertex -5 -2.5 2.5
      vertex -1.10437 -2.5 0.389329
      vertex -0.927051 -2.5 0.453169
    endloop
  endfacet
  facet normal 0 -1 0
    outer loop
      vertex -5 -2.5 2.5
      vertex -1.27734 -2.5 0.314481
      vertex -1.10437 -2.5 0.389329
    endloop
  endfacet
  facet normal 0 -1 0
    outer loop
      vertex -5 -2.5 2.5
      vertex -1.44526 -2.5 0.22892
      vertex -1.27734 -2.5 0.314481
    endloop
  endfacet
  facet normal 0 -1 0
    outer loop
      vertex -5 -2.5 2.5
      vertex -1.60748 -2.5 0.132983
      vertex -1.44526 -2.5 0.22892
    endloop
  endfacet
  facet normal 0 -1 0
    outer loop
      vertex -5 -2.5 2.5
      vertex -1.76336 -2.5 0.027051
      vertex -1.60748 -2.5 0.132983
    endloop
  endfacet
  facet normal 0 -1 0
    outer loop
      vertex -5 -2.5 2.5
      vertex -1.91227 -2.5 -0.08846
      vertex -1.76336 -2.5 0.027051
    endloop
  endfacet
  facet normal 0 -1 0
    outer loop
      vertex -5 -2.5 2.5
      vertex -2.05364 -2.5 -0.213094
      vertex -1.91227 -2.5 -0.08846
    endloop
  endfacet
  facet normal 0 -1 0
    outer loop
      vertex -5 -2.5 2.5
      vertex -2.18691 -2.5 -0.346358
      vertex -2.05364 -2.5 -0.213094
    endloop
  endfacet
  facet normal 0 -1 0
    outer loop
      vertex -5 -2.5 2.5
      vertex -2.31154 -2.5 -0.487727
      vertex -2.18691 -2.5 -0.346358
    endloop
  endfacet
  facet normal 0 -1 0
    outer loop
      vertex -5 -2.5 2.5
      vertex -2.42705 -2.5 -0.636643
      vertex -2.31154 -2.5 -0.487727
    endloop
  endfacet
  facet normal 0 -1 0
    outer loop
      vertex -5 -2.5 2.5
      vertex -2.53298 -2.5 -0.79252
      vertex -2.42705 -2.5 -0.636643
    endloop
  endfacet
  facet normal 0 -1 0
    outer loop
      vertex -5 -2.5 2.5
      vertex -2.62892 -2.5 -0.954739
      vertex -2.53298 -2.5 -0.79252
    endloop
  endfacet
  facet normal 0 -1 0
    outer loop
      vertex -5 -2.5 2.5
      vertex -2.71448 -2.5 -1.12266
      vertex -2.62892 -2.5 -0.954739
    endloop
  endfacet
  facet normal 0 -1 0
    outer loop
      vertex -5 -2.5 -2.5
      vertex -2.71448 -2.5 -1.12266
      vertex -5 -2.5 2.5
    endloop
  endfacet
  facet normal 0 -1 0
    outer loop
      vertex -2.71448 -2.5 -1.12266
      vertex -5 -2.5 -2.5
      vertex -2.78933 -2.5 -1.29563
    endloop
  endfacet
  facet normal 0 -1 0
    outer loop
      vertex -2.78933 -2.5 -1.29563
      vertex -5 -2.5 -2.5
      vertex -2.85317 -2.5 -1.47295
    endloop
  endfacet
  facet normal 0 -1 0
    outer loop
      vertex -2.85317 -2.5 -1.47295
      vertex -5 -2.5 -2.5
      vertex -2.90575 -2.5 -1.65393
    endloop
  endfacet
  facet normal 0 -1 0
    outer loop
      vertex -2.90575 -2.5 -1.65393
      vertex -5 -2.5 -2.5
      vertex -2.94686 -2.5 -1.83786
    endloop
  endfacet
  facet normal 0 -1 0
    outer loop
      vertex -2.94686 -2.5 -1.83786
      vertex -5 -2.5 -2.5
      vertex -2.97634 -2.5 -2.024
    endloop
  endfacet
  facet normal 0 -1 0
    outer loop
      vertex -2.97634 -2.5 -2.024
      vertex -5 -2.5 -2.5
      vertex -2.99408 -2.5 -2.21163
    endloop
  endfacet
  facet normal 0 -1 0
    outer loop
      vertex -2.99408 -2.5 -2.21163
      vertex -5 -2.5 -2.5
      vertex -3 -2.5 -2.4
    endloop
  endfacet
  facet normal 0 -1 -0
    outer loop
      vertex -3 -2.5 -2.4
      vertex -5 -2.5 -2.5
      vertex -2.99686 -2.5 -2.5
    endloop
  endfacet
  facet normal 0 -1 0
    outer loop
      vertex 0.188371 -2.5 0.59408
      vertex 5 -2.5 2.5
      vertex 0 -2.5 0.599999
    endloop
  endfacet
  facet normal 0 -1 0
    outer loop
      vertex 0.375999 -2.5 0.576344
      vertex 5 -2.5 2.5
      vertex 0.188371 -2.5 0.59408
    endloop
  endfacet
  facet normal 0 -1 0
    outer loop
      vertex 0.562143 -2.5 0.546862
      vertex 5 -2.5 2.5
      vertex 0.375999 -2.5 0.576344
    endloop
  endfacet
  facet normal 0 -1 0
    outer loop
      vertex 0.746069 -2.5 0.505749
      vertex 5 -2.5 2.5
      vertex 0.562143 -2.5 0.546862
    endloop
  endfacet
  facet normal 0 -1 0
    outer loop
      vertex 0.927051 -2.5 0.453169
      vertex 5 -2.5 2.5
      vertex 0.746069 -2.5 0.505749
    endloop
  endfacet
  facet normal 0 -1 0
    outer loop
      vertex 1.10437 -2.5 0.389329
      vertex 5 -2.5 2.5
      vertex 0.927051 -2.5 0.453169
    endloop
  endfacet
  facet normal 0 -1 0
    outer loop
      vertex 1.27734 -2.5 0.314481
      vertex 5 -2.5 2.5
      vertex 1.10437 -2.5 0.389329
    endloop
  endfacet
  facet normal 0 -1 0
    outer loop
      vertex 1.44526 -2.5 0.22892
      vertex 5 -2.5 2.5
      vertex 1.27734 -2.5 0.314481
    endloop
  endfacet
  facet normal 0 -1 0
    outer loop
      vertex 1.60748 -2.5 0.132983
      vertex 5 -2.5 2.5
      vertex 1.44526 -2.5 0.22892
    endloop
  endfacet
  facet normal 0 -1 0
    outer loop
      vertex 1.76336 -2.5 0.027051
      vertex 5 -2.5 2.5
      vertex 1.60748 -2.5 0.132983
    endloop
  endfacet
  facet normal 0 -1 0
    outer loop
      vertex 1.91227 -2.5 -0.08846
      vertex 5 -2.5 2.5
      vertex 1.76336 -2.5 0.027051
    endloop
  endfacet
  facet normal 0 -1 0
    outer loop
      vertex 2.05364 -2.5 -0.213094
      vertex 5 -2.5 2.5
      vertex 1.91227 -2.5 -0.08846
    endloop
  endfacet
  facet normal 0 -1 0
    outer loop
      vertex 2.18691 -2.5 -0.346358
      vertex 5 -2.5 2.5
      vertex 2.05364 -2.5 -0.213094
    endloop
  endfacet
  facet normal 0 -1 0
    outer loop
      vertex 2.31154 -2.5 -0.487727
      vertex 5 -2.5 2.5
      vertex 2.18691 -2.5 -0.346358
    endloop
  endfacet
  facet normal 0 -1 0
    outer loop
      vertex 2.42705 -2.5 -0.636643
      vertex 5 -2.5 2.5
      vertex 2.31154 -2.5 -0.487727
    endloop
  endfacet
  facet normal 0 -1 0
    outer loop
      vertex 2.53298 -2.5 -0.79252
      vertex 5 -2.5 2.5
      vertex 2.42705 -2.5 -0.636643
    endloop
  endfacet
  facet normal 0 -1 0
    outer loop
      vertex 2.62892 -2.5 -0.954739
      vertex 5 -2.5 2.5
      vertex 2.53298 -2.5 -0.79252
    endloop
  endfacet
  facet normal 0 -1 0
    outer loop
      vertex 2.71448 -2.5 -1.12266
      vertex 5 -2.5 2.5
      vertex 2.62892 -2.5 -0.954739
    endloop
  endfacet
  facet normal 0 -1 0
    outer loop
      vertex 5 -2.5 -2.5
      vertex 2.71448 -2.5 -1.12266
      vertex 2.78933 -2.5 -1.29563
    endloop
  endfacet
  facet normal 0 -1 0
    outer loop
      vertex 5 -2.5 -2.5
      vertex 2.78933 -2.5 -1.29563
      vertex 2.85317 -2.5 -1.47295
    endloop
  endfacet
  facet normal 0 -1 0
    outer loop
      vertex 5 -2.5 -2.5
      vertex 2.85317 -2.5 -1.47295
      vertex 2.90575 -2.5 -1.65393
    endloop
  endfacet
  facet normal 0 -1 0
    outer loop
      vertex 5 -2.5 -2.5
      vertex 2.90575 -2.5 -1.65393
      vertex 2.94686 -2.5 -1.83786
    endloop
  endfacet
  facet normal 0 -1 0
    outer loop
      vertex 5 -2.5 -2.5
      vertex 2.94686 -2.5 -1.83786
      vertex 2.97634 -2.5 -2.024
    endloop
  endfacet
  facet normal 0 -1 0
    outer loop
      vertex 5 -2.5 -2.5
      vertex 2.97634 -2.5 -2.024
      vertex 2.99408 -2.5 -2.21163
    endloop
  endfacet
  facet normal 0 -1 0
    outer loop
      vertex 5 -2.5 -2.5
      vertex 2.99408 -2.5 -2.21163
      vertex 3 -2.5 -2.4
    endloop
  endfacet
  facet normal 0 -1 0
    outer loop
      vertex 5 -2.5 -2.5
      vertex 3 -2.5 -2.4
      vertex 2.99686 -2.5 -2.5
    endloop
  endfacet
  facet normal 0 -1 0
    outer loop
      vertex 2.71448 -2.5 -1.12266
      vertex 5 -2.5 -2.5
      vertex 5 -2.5 2.5
    endloop
  endfacet
  facet normal 0 1 0
    outer loop
      vertex 5 2.5 2.5
      vertex 0 2.5 0.599999
      vertex -5 2.5 2.5
    endloop
  endfacet
  facet normal 0 1 0
    outer loop
      vertex 5 2.5 2.5
      vertex 0.188371 2.5 0.59408
      vertex 0 2.5 0.599999
    endloop
  endfacet
  facet normal 0 1 0
    outer loop
      vertex 5 2.5 2.5
      vertex 0.375999 2.5 0.576344
      vertex 0.188371 2.5 0.59408
    endloop
  endfacet
  facet normal 0 1 0
    outer loop
      vertex 5 2.5 2.5
      vertex 0.562143 2.5 0.546862
      vertex 0.375999 2.5 0.576344
    endloop
  endfacet
  facet normal 0 1 0
    outer loop
      vertex 5 2.5 2.5
      vertex 0.746069 2.5 0.505749
      vertex 0.562143 2.5 0.546862
    endloop
  endfacet
  facet normal 0 1 0
    outer loop
      vertex 5 2.5 2.5
      vertex 0.927051 2.5 0.453169
      vertex 0.746069 2.5 0.505749
    endloop
  endfacet
  facet normal 0 1 0
    outer loop
      vertex 5 2.5 2.5
      vertex 1.10437 2.5 0.389329
      vertex 0.927051 2.5 0.453169
    endloop
  endfacet
  facet normal 0 1 0
    outer loop
      vertex 5 2.5 2.5
      vertex 1.27734 2.5 0.314481
      vertex 1.10437 2.5 0.389329
    endloop
  endfacet
  facet normal 0 1 0
    outer loop
      vertex 5 2.5 2.5
      vertex 1.44526 2.5 0.22892
      vertex 1.27734 2.5 0.314481
    endloop
  endfacet
  facet normal 0 1 0
    outer loop
      vertex 5 2.5 2.5
      vertex 1.60748 2.5 0.132983
      vertex 1.44526 2.5 0.22892
    endloop
  endfacet
  facet normal 0 1 0
    outer loop
      vertex 5 2.5 2.5
      vertex 1.76336 2.5 0.027051
      vertex 1.60748 2.5 0.132983
    endloop
  endfacet
  facet normal 0 1 0
    outer loop
      vertex 5 2.5 2.5
      vertex 1.91227 2.5 -0.08846
      vertex 1.76336 2.5 0.027051
    endloop
  endfacet
  facet normal 0 1 0
    outer loop
      vertex 5 2.5 2.5
      vertex 2.05364 2.5 -0.213094
      vertex 1.91227 2.5 -0.08846
    endloop
  endfacet
  facet normal 0 1 0
    outer loop
      vertex 5 2.5 2.5
      vertex 2.18691 2.5 -0.346358
      vertex 2.05364 2.5 -0.213094
    endloop
  endfacet
  facet normal 0 1 0
    outer loop
      vertex 5 2.5 2.5
      vertex 2.31154 2.5 -0.487727
      vertex 2.18691 2.5 -0.346358
    endloop
  endfacet
  facet normal 0 1 0
    outer loop
      vertex 5 2.5 2.5
      vertex 2.42705 2.5 -0.636643
      vertex 2.31154 2.5 -0.487727
    endloop
  endfacet
  facet normal 0 1 0
    outer loop
      vertex 5 2.5 2.5
      vertex 2.53298 2.5 -0.79252
      vertex 2.42705 2.5 -0.636643
    endloop
  endfacet
  facet normal 0 1 0
    outer loop
      vertex 5 2.5 2.5
      vertex 2.62892 2.5 -0.954739
      vertex 2.53298 2.5 -0.79252
    endloop
  endfacet
  facet normal 0 1 0
    outer loop
      vertex 5 2.5 2.5
      vertex 2.71448 2.5 -1.12266
      vertex 2.62892 2.5 -0.954739
    endloop
  endfacet
  facet normal 0 1 -0
    outer loop
      vertex 5 2.5 -2.5
      vertex 2.71448 2.5 -1.12266
      vertex 5 2.5 2.5
    endloop
  endfacet
  facet normal 0 1 0
    outer loop
      vertex 2.71448 2.5 -1.12266
      vertex 5 2.5 -2.5
      vertex 2.78933 2.5 -1.29563
    endloop
  endfacet
  facet normal 0 1 0
    outer loop
      vertex 2.78933 2.5 -1.29563
      vertex 5 2.5 -2.5
      vertex 2.85317 2.5 -1.47295
    endloop
  endfacet
  facet normal 0 1 0
    outer loop
      vertex 2.85317 2.5 -1.47295
      vertex 5 2.5 -2.5
      vertex 2.90575 2.5 -1.65393
    endloop
  endfacet
  facet normal 0 1 0
    outer loop
      vertex 2.90575 2.5 -1.65393
      vertex 5 2.5 -2.5
      vertex 2.94686 2.5 -1.83786
    endloop
  endfacet
  facet normal 0 1 0
    outer loop
      vertex 2.94686 2.5 -1.83786
      vertex 5 2.5 -2.5
      vertex 2.97634 2.5 -2.024
    endloop
  endfacet
  facet normal 0 1 0
    outer loop
      vertex 2.97634 2.5 -2.024
      vertex 5 2.5 -2.5
      vertex 2.99408 2.5 -2.21163
    endloop
  endfacet
  facet normal 0 1 0
    outer loop
      vertex 2.99408 2.5 -2.21163
      vertex 5 2.5 -2.5
      vertex 3 2.5 -2.4
    endloop
  endfacet
  facet normal 0 1 0
    outer loop
      vertex 3 2.5 -2.4
      vertex 5 2.5 -2.5
      vertex 2.99686 2.5 -2.5
    endloop
  endfacet
  facet normal 0 1 -0
    outer loop
      vertex -0.188371 2.5 0.59408
      vertex -5 2.5 2.5
      vertex 0 2.5 0.599999
    endloop
  endfacet
  facet normal 0 1 -0
    outer loop
      vertex -0.375999 2.5 0.576344
      vertex -5 2.5 2.5
      vertex -0.188371 2.5 0.59408
    endloop
  endfacet
  facet normal 0 1 -0
    outer loop
      vertex -0.562143 2.5 0.546862
      vertex -5 2.5 2.5
      vertex -0.375999 2.5 0.576344
    endloop
  endfacet
  facet normal 0 1 -0
    outer loop
      vertex -0.746069 2.5 0.505749
      vertex -5 2.5 2.5
      vertex -0.562143 2.5 0.546862
    endloop
  endfacet
  facet normal 0 1 -0
    outer loop
      vertex -0.927051 2.5 0.453169
      vertex -5 2.5 2.5
      vertex -0.746069 2.5 0.505749
    endloop
  endfacet
  facet normal 0 1 -0
    outer loop
      vertex -1.10437 2.5 0.389329
      vertex -5 2.5 2.5
      vertex -0.927051 2.5 0.453169
    endloop
  endfacet
  facet normal 0 1 -0
    outer loop
      vertex -1.27734 2.5 0.314481
      vertex -5 2.5 2.5
      vertex -1.10437 2.5 0.389329
    endloop
  endfacet
  facet normal 0 1 -0
    outer loop
      vertex -1.44526 2.5 0.22892
      vertex -5 2.5 2.5
      vertex -1.27734 2.5 0.314481
    endloop
  endfacet
  facet normal 0 1 -0
    outer loop
      vertex -1.60748 2.5 0.132983
      vertex -5 2.5 2.5
      vertex -1.44526 2.5 0.22892
    endloop
  endfacet
  facet normal 0 1 -0
    outer loop
      vertex -1.76336 2.5 0.027051
      vertex -5 2.5 2.5
      vertex -1.60748 2.5 0.132983
    endloop
  endfacet
  facet normal 0 1 -0
    outer loop
      vertex -1.91227 2.5 -0.08846
      vertex -5 2.5 2.5
      vertex -1.76336 2.5 0.027051
    endloop
  endfacet
  facet normal 0 1 -0
    outer loop
      vertex -2.05364 2.5 -0.213094
      vertex -5 2.5 2.5
      vertex -1.91227 2.5 -0.08846
    endloop
  endfacet
  facet normal 0 1 -0
    outer loop
      vertex -2.18691 2.5 -0.346358
      vertex -5 2.5 2.5
      vertex -2.05364 2.5 -0.213094
    endloop
  endfacet
  facet normal 0 1 -0
    outer loop
      vertex -2.31154 2.5 -0.487727
      vertex -5 2.5 2.5
      vertex -2.18691 2.5 -0.346358
    endloop
  endfacet
  facet normal 0 1 -0
    outer loop
      vertex -2.42705 2.5 -0.636643
      vertex -5 2.5 2.5
      vertex -2.31154 2.5 -0.487727
    endloop
  endfacet
  facet normal 0 1 -0
    outer loop
      vertex -2.53298 2.5 -0.79252
      vertex -5 2.5 2.5
      vertex -2.42705 2.5 -0.636643
    endloop
  endfacet
  facet normal 0 1 -0
    outer loop
      vertex -2.62892 2.5 -0.954739
      vertex -5 2.5 2.5
      vertex -2.53298 2.5 -0.79252
    endloop
  endfacet
  facet normal 0 1 -0
    outer loop
      vertex -2.71448 2.5 -1.12266
      vertex -5 2.5 2.5
      vertex -2.62892 2.5 -0.954739
    endloop
  endfacet
  facet normal 0 1 0
    outer loop
      vertex -5 2.5 -2.5
      vertex -2.71448 2.5 -1.12266
      vertex -2.78933 2.5 -1.29563
    endloop
  endfacet
  facet normal 0 1 0
    outer loop
      vertex -5 2.5 -2.5
      vertex -2.78933 2.5 -1.29563
      vertex -2.85317 2.5 -1.47295
    endloop
  endfacet
  facet normal 0 1 0
    outer loop
      vertex -5 2.5 -2.5
      vertex -2.85317 2.5 -1.47295
      vertex -2.90575 2.5 -1.65393
    endloop
  endfacet
  facet normal 0 1 0
    outer loop
      vertex -5 2.5 -2.5
      vertex -2.90575 2.5 -1.65393
      vertex -2.94686 2.5 -1.83786
    endloop
  endfacet
  facet normal 0 1 0
    outer loop
      vertex -5 2.5 -2.5
      vertex -2.94686 2.5 -1.83786
      vertex -2.97634 2.5 -2.024
    endloop
  endfacet
  facet normal 0 1 0
    outer loop
      vertex -5 2.5 -2.5
      vertex -2.97634 2.5 -2.024
      vertex -2.99408 2.5 -2.21163
    endloop
  endfacet
  facet normal 0 1 0
    outer loop
      vertex -5 2.5 -2.5
      vertex -2.99408 2.5 -2.21163
      vertex -3 2.5 -2.4
    endloop
  endfacet
  facet normal 0 1 0
    outer loop
      vertex -5 2.5 -2.5
      vertex -3 2.5 -2.4
      vertex -2.99686 2.5 -2.5
    endloop
  endfacet
  facet normal 0 1 0
    outer loop
      vertex -2.71448 2.5 -1.12266
      vertex -5 2.5 -2.5
      vertex -5 2.5 2.5
    endloop
  endfacet
  facet normal -0.999507 0 -0.031412
    outer loop
      vertex 3 -2.5 -2.4
      vertex 2.99408 2.5 -2.21163
      vertex 3 2.5 -2.4
    endloop
  endfacet
  facet normal -0.999507 -0 -0.031412
    outer loop
      vertex 2.99408 2.5 -2.21163
      vertex 3 -2.5 -2.4
      vertex 2.99408 -2.5 -2.21163
    endloop
  endfacet
  facet normal -0.99556 0 -0.094128
    outer loop
      vertex 2.99408 -2.5 -2.21163
      vertex 2.97634 2.5 -2.024
      vertex 2.99408 2.5 -2.21163
    endloop
  endfacet
  facet normal -0.99556 -0 -0.094128
    outer loop
      vertex 2.97634 2.5 -2.024
      vertex 2.99408 -2.5 -2.21163
      vertex 2.97634 -2.5 -2.024
    endloop
  endfacet
  facet normal 0.999507 0 -0.031412
    outer loop
      vertex -2.99408 -2.5 -2.21163
      vertex -3 2.5 -2.4
      vertex -2.99408 2.5 -2.21163
    endloop
  endfacet
  facet normal 0.999507 0 -0.031412
    outer loop
      vertex -3 2.5 -2.4
      vertex -2.99408 -2.5 -2.21163
      vertex -3 -2.5 -2.4
    endloop
  endfacet
  facet normal 0.0314065 0 -0.999507
    outer loop
      vertex -0.188371 -2.5 0.59408
      vertex 0 2.5 0.599999
      vertex 0 -2.5 0.599999
    endloop
  endfacet
  facet normal 0.0314065 0 -0.999507
    outer loop
      vertex 0 2.5 0.599999
      vertex -0.188371 -2.5 0.59408
      vertex -0.188371 2.5 0.59408
    endloop
  endfacet
  facet normal -0.661311 0 -0.750112
    outer loop
      vertex 1.91227 -2.5 -0.08846
      vertex 2.05364 2.5 -0.213094
      vertex 2.05364 -2.5 -0.213094
    endloop
  endfacet
  facet normal -0.661311 0 -0.750112
    outer loop
      vertex 2.05364 2.5 -0.213094
      vertex 1.91227 -2.5 -0.08846
      vertex 1.91227 2.5 -0.08846
    endloop
  endfacet
  facet normal 0.707091 0 -0.707123
    outer loop
      vertex -2.18691 -2.5 -0.346358
      vertex -2.05364 2.5 -0.213094
      vertex -2.05364 -2.5 -0.213094
    endloop
  endfacet
  facet normal 0.707091 0 -0.707123
    outer loop
      vertex -2.05364 2.5 -0.213094
      vertex -2.18691 -2.5 -0.346358
      vertex -2.18691 2.5 -0.346358
    endloop
  endfacet
  facet normal -0.891007 0 -0.45399
    outer loop
      vertex 2.71448 -2.5 -1.12266
      vertex 2.62892 2.5 -0.954739
      vertex 2.71448 2.5 -1.12266
    endloop
  endfacet
  facet normal -0.891007 -0 -0.45399
    outer loop
      vertex 2.62892 2.5 -0.954739
      vertex 2.71448 -2.5 -1.12266
      vertex 2.62892 -2.5 -0.954739
    endloop
  endfacet
  facet normal -0.338744 0 -0.940879
    outer loop
      vertex 0.927051 -2.5 0.453169
      vertex 1.10437 2.5 0.389329
      vertex 1.10437 -2.5 0.389329
    endloop
  endfacet
  facet normal -0.338744 0 -0.940879
    outer loop
      vertex 1.10437 2.5 0.389329
      vertex 0.927051 -2.5 0.453169
      vertex 0.927051 2.5 0.453169
    endloop
  endfacet
  facet normal 0.82709 0 -0.562069
    outer loop
      vertex -2.42705 -2.5 -0.636643
      vertex -2.53298 2.5 -0.79252
      vertex -2.42705 2.5 -0.636643
    endloop
  endfacet
  facet normal 0.82709 0 -0.562069
    outer loop
      vertex -2.53298 2.5 -0.79252
      vertex -2.42705 -2.5 -0.636643
      vertex -2.53298 -2.5 -0.79252
    endloop
  endfacet
  facet normal 0.218147 0 -0.975916
    outer loop
      vertex -0.746069 -2.5 0.505749
      vertex -0.562143 2.5 0.546862
      vertex -0.562143 -2.5 0.546862
    endloop
  endfacet
  facet normal 0.218147 0 -0.975916
    outer loop
      vertex -0.562143 2.5 0.546862
      vertex -0.746069 -2.5 0.505749
      vertex -0.746069 2.5 0.505749
    endloop
  endfacet
  facet normal -0.790158 0 -0.612903
    outer loop
      vertex 2.42705 -2.5 -0.636643
      vertex 2.31154 2.5 -0.487727
      vertex 2.42705 2.5 -0.636643
    endloop
  endfacet
  facet normal -0.790158 -0 -0.612903
    outer loop
      vertex 2.31154 2.5 -0.487727
      vertex 2.42705 -2.5 -0.636643
      vertex 2.31154 -2.5 -0.487727
    endloop
  endfacet
  facet normal -0.156433 0 -0.987689
    outer loop
      vertex 0.375999 -2.5 0.576344
      vertex 0.562143 2.5 0.546862
      vertex 0.562143 -2.5 0.546862
    endloop
  endfacet
  facet normal -0.156433 0 -0.987689
    outer loop
      vertex 0.562143 2.5 0.546862
      vertex 0.375999 -2.5 0.576344
      vertex 0.375999 2.5 0.576344
    endloop
  endfacet
  facet normal -0.612922 0 -0.790143
    outer loop
      vertex 1.76336 -2.5 0.027051
      vertex 1.91227 2.5 -0.08846
      vertex 1.91227 -2.5 -0.08846
    endloop
  endfacet
  facet normal -0.612922 0 -0.790143
    outer loop
      vertex 1.91227 2.5 -0.08846
      vertex 1.76336 -2.5 0.027051
      vertex 1.76336 2.5 0.027051
    endloop
  endfacet
  facet normal 0.860733 0 -0.509057
    outer loop
      vertex -2.53298 -2.5 -0.79252
      vertex -2.62892 2.5 -0.954739
      vertex -2.53298 2.5 -0.79252
    endloop
  endfacet
  facet normal 0.860733 0 -0.509057
    outer loop
      vertex -2.62892 2.5 -0.954739
      vertex -2.53298 -2.5 -0.79252
      vertex -2.62892 -2.5 -0.954739
    endloop
  endfacet
  facet normal 0.97592 0 -0.218127
    outer loop
      vertex -2.90575 -2.5 -1.65393
      vertex -2.94686 2.5 -1.83786
      vertex -2.90575 2.5 -1.65393
    endloop
  endfacet
  facet normal 0.97592 0 -0.218127
    outer loop
      vertex -2.94686 2.5 -1.83786
      vertex -2.90575 -2.5 -1.65393
      vertex -2.94686 -2.5 -1.83786
    endloop
  endfacet
  facet normal 0.98769 0 -0.156426
    outer loop
      vertex -2.94686 -2.5 -1.83786
      vertex -2.97634 2.5 -2.024
      vertex -2.94686 2.5 -1.83786
    endloop
  endfacet
  facet normal 0.98769 0 -0.156426
    outer loop
      vertex -2.97634 2.5 -2.024
      vertex -2.94686 -2.5 -1.83786
      vertex -2.97634 -2.5 -2.024
    endloop
  endfacet
  facet normal 0.562069 0 -0.82709
    outer loop
      vertex -1.76336 -2.5 0.027051
      vertex -1.60748 2.5 0.132983
      vertex -1.60748 -2.5 0.132983
    endloop
  endfacet
  facet normal 0.562069 0 -0.82709
    outer loop
      vertex -1.60748 2.5 0.132983
      vertex -1.76336 -2.5 0.027051
      vertex -1.76336 2.5 0.027051
    endloop
  endfacet
  facet normal 0.156433 0 -0.987689
    outer loop
      vertex -0.562143 -2.5 0.546862
      vertex -0.375999 2.5 0.576344
      vertex -0.375999 -2.5 0.576344
    endloop
  endfacet
  facet normal 0.156433 0 -0.987689
    outer loop
      vertex -0.375999 2.5 0.576344
      vertex -0.562143 -2.5 0.546862
      vertex -0.562143 2.5 0.546862
    endloop
  endfacet
  facet normal -0.98769 0 -0.156426
    outer loop
      vertex 2.97634 -2.5 -2.024
      vertex 2.94686 2.5 -1.83786
      vertex 2.97634 2.5 -2.024
    endloop
  endfacet
  facet normal -0.98769 -0 -0.156426
    outer loop
      vertex 2.94686 2.5 -1.83786
      vertex 2.97634 -2.5 -2.024
      vertex 2.94686 -2.5 -1.83786
    endloop
  endfacet
  facet normal -0.960293 0 -0.278993
    outer loop
      vertex 2.90575 -2.5 -1.65393
      vertex 2.85317 2.5 -1.47295
      vertex 2.90575 2.5 -1.65393
    endloop
  endfacet
  facet normal -0.960293 -0 -0.278993
    outer loop
      vertex 2.85317 2.5 -1.47295
      vertex 2.90575 -2.5 -1.65393
      vertex 2.85317 -2.5 -1.47295
    endloop
  endfacet
  facet normal -0.97592 0 -0.218127
    outer loop
      vertex 2.94686 -2.5 -1.83786
      vertex 2.90575 2.5 -1.65393
      vertex 2.94686 2.5 -1.83786
    endloop
  endfacet
  facet normal -0.97592 -0 -0.218127
    outer loop
      vertex 2.90575 2.5 -1.65393
      vertex 2.94686 -2.5 -1.83786
      vertex 2.90575 -2.5 -1.65393
    endloop
  endfacet
  facet normal -0.75012 0 -0.661301
    outer loop
      vertex 2.31154 -2.5 -0.487727
      vertex 2.18691 2.5 -0.346358
      vertex 2.31154 2.5 -0.487727
    endloop
  endfacet
  facet normal -0.75012 -0 -0.661301
    outer loop
      vertex 2.18691 2.5 -0.346358
      vertex 2.31154 -2.5 -0.487727
      vertex 2.18691 -2.5 -0.346358
    endloop
  endfacet
  facet normal -0.094108 0 -0.995562
    outer loop
      vertex 0.188371 -2.5 0.59408
      vertex 0.375999 2.5 0.576344
      vertex 0.375999 -2.5 0.576344
    endloop
  endfacet
  facet normal -0.094108 0 -0.995562
    outer loop
      vertex 0.375999 2.5 0.576344
      vertex 0.188371 -2.5 0.59408
      vertex 0.188371 2.5 0.59408
    endloop
  endfacet
  facet normal -0.218147 0 -0.975916
    outer loop
      vertex 0.562143 -2.5 0.546862
      vertex 0.746069 2.5 0.505749
      vertex 0.746069 -2.5 0.505749
    endloop
  endfacet
  facet normal -0.218147 0 -0.975916
    outer loop
      vertex 0.746069 2.5 0.505749
      vertex 0.562143 -2.5 0.546862
      vertex 0.562143 2.5 0.546862
    endloop
  endfacet
  facet normal -0.453997 0 -0.891003
    outer loop
      vertex 1.27734 -2.5 0.314481
      vertex 1.44526 2.5 0.22892
      vertex 1.44526 -2.5 0.22892
    endloop
  endfacet
  facet normal -0.453997 0 -0.891003
    outer loop
      vertex 1.44526 2.5 0.22892
      vertex 1.27734 -2.5 0.314481
      vertex 1.27734 2.5 0.314481
    endloop
  endfacet
  facet normal -0.397135 0 -0.91776
    outer loop
      vertex 1.10437 -2.5 0.389329
      vertex 1.27734 2.5 0.314481
      vertex 1.27734 -2.5 0.314481
    endloop
  endfacet
  facet normal -0.397135 0 -0.91776
    outer loop
      vertex 1.27734 2.5 0.314481
      vertex 1.10437 -2.5 0.389329
      vertex 1.10437 2.5 0.389329
    endloop
  endfacet
  facet normal -0.509043 0 -0.860741
    outer loop
      vertex 1.44526 -2.5 0.22892
      vertex 1.60748 2.5 0.132983
      vertex 1.60748 -2.5 0.132983
    endloop
  endfacet
  facet normal -0.509043 0 -0.860741
    outer loop
      vertex 1.60748 2.5 0.132983
      vertex 1.44526 -2.5 0.22892
      vertex 1.44526 2.5 0.22892
    endloop
  endfacet
  facet normal 0.790158 0 -0.612903
    outer loop
      vertex -2.31154 -2.5 -0.487727
      vertex -2.42705 2.5 -0.636643
      vertex -2.31154 2.5 -0.487727
    endloop
  endfacet
  facet normal 0.790158 0 -0.612903
    outer loop
      vertex -2.42705 2.5 -0.636643
      vertex -2.31154 -2.5 -0.487727
      vertex -2.42705 -2.5 -0.636643
    endloop
  endfacet
  facet normal 0.917756 0 -0.397144
    outer loop
      vertex -2.71448 -2.5 -1.12266
      vertex -2.78933 2.5 -1.29563
      vertex -2.71448 2.5 -1.12266
    endloop
  endfacet
  facet normal 0.917756 0 -0.397144
    outer loop
      vertex -2.78933 2.5 -1.29563
      vertex -2.71448 -2.5 -1.12266
      vertex -2.78933 -2.5 -1.29563
    endloop
  endfacet
  facet normal 0.940879 0 -0.338742
    outer loop
      vertex -2.78933 -2.5 -1.29563
      vertex -2.85317 2.5 -1.47295
      vertex -2.78933 2.5 -1.29563
    endloop
  endfacet
  facet normal 0.940879 0 -0.338742
    outer loop
      vertex -2.85317 2.5 -1.47295
      vertex -2.78933 -2.5 -1.29563
      vertex -2.85317 -2.5 -1.47295
    endloop
  endfacet
  facet normal 0.99556 0 -0.094128
    outer loop
      vertex -2.97634 -2.5 -2.024
      vertex -2.99408 2.5 -2.21163
      vertex -2.97634 2.5 -2.024
    endloop
  endfacet
  facet normal 0.99556 0 -0.094128
    outer loop
      vertex -2.99408 2.5 -2.21163
      vertex -2.97634 -2.5 -2.024
      vertex -2.99408 -2.5 -2.21163
    endloop
  endfacet
  facet normal 0.612922 0 -0.790143
    outer loop
      vertex -1.91227 -2.5 -0.08846
      vertex -1.76336 2.5 0.027051
      vertex -1.76336 -2.5 0.027051
    endloop
  endfacet
  facet normal 0.612922 0 -0.790143
    outer loop
      vertex -1.76336 2.5 0.027051
      vertex -1.91227 -2.5 -0.08846
      vertex -1.91227 2.5 -0.08846
    endloop
  endfacet
  facet normal 0.453997 0 -0.891003
    outer loop
      vertex -1.44526 -2.5 0.22892
      vertex -1.27734 2.5 0.314481
      vertex -1.27734 -2.5 0.314481
    endloop
  endfacet
  facet normal 0.453997 0 -0.891003
    outer loop
      vertex -1.27734 2.5 0.314481
      vertex -1.44526 -2.5 0.22892
      vertex -1.44526 2.5 0.22892
    endloop
  endfacet
  facet normal 0.397135 0 -0.91776
    outer loop
      vertex -1.27734 -2.5 0.314481
      vertex -1.10437 2.5 0.389329
      vertex -1.10437 -2.5 0.389329
    endloop
  endfacet
  facet normal 0.397135 0 -0.91776
    outer loop
      vertex -1.10437 2.5 0.389329
      vertex -1.27734 -2.5 0.314481
      vertex -1.27734 2.5 0.314481
    endloop
  endfacet
  facet normal 0.27899 0 -0.960294
    outer loop
      vertex -0.927051 -2.5 0.453169
      vertex -0.746069 2.5 0.505749
      vertex -0.746069 -2.5 0.505749
    endloop
  endfacet
  facet normal 0.27899 0 -0.960294
    outer loop
      vertex -0.746069 2.5 0.505749
      vertex -0.927051 -2.5 0.453169
      vertex -0.927051 2.5 0.453169
    endloop
  endfacet
  facet normal 0.094108 0 -0.995562
    outer loop
      vertex -0.375999 -2.5 0.576344
      vertex -0.188371 2.5 0.59408
      vertex -0.188371 -2.5 0.59408
    endloop
  endfacet
  facet normal 0.094108 0 -0.995562
    outer loop
      vertex -0.188371 2.5 0.59408
      vertex -0.375999 -2.5 0.576344
      vertex -0.375999 2.5 0.576344
    endloop
  endfacet
  facet normal 0.999507 -0 0.0313845
    outer loop
      vertex -3 -2.5 -2.4
      vertex -2.99686 2.5 -2.5
      vertex -3 2.5 -2.4
    endloop
  endfacet
  facet normal 0.999507 0 0.0313845
    outer loop
      vertex -2.99686 2.5 -2.5
      vertex -3 -2.5 -2.4
      vertex -2.99686 -2.5 -2.5
    endloop
  endfacet
  facet normal -0.940879 0 -0.338742
    outer loop
      vertex 2.85317 -2.5 -1.47295
      vertex 2.78933 2.5 -1.29563
      vertex 2.85317 2.5 -1.47295
    endloop
  endfacet
  facet normal -0.940879 -0 -0.338742
    outer loop
      vertex 2.78933 2.5 -1.29563
      vertex 2.85317 -2.5 -1.47295
      vertex 2.78933 -2.5 -1.29563
    endloop
  endfacet
  facet normal -0.917756 0 -0.397144
    outer loop
      vertex 2.78933 -2.5 -1.29563
      vertex 2.71448 2.5 -1.12266
      vertex 2.78933 2.5 -1.29563
    endloop
  endfacet
  facet normal -0.917756 -0 -0.397144
    outer loop
      vertex 2.71448 2.5 -1.12266
      vertex 2.78933 -2.5 -1.29563
      vertex 2.71448 -2.5 -1.12266
    endloop
  endfacet
  facet normal -0.707091 0 -0.707123
    outer loop
      vertex 2.05364 -2.5 -0.213094
      vertex 2.18691 2.5 -0.346358
      vertex 2.18691 -2.5 -0.346358
    endloop
  endfacet
  facet normal -0.707091 0 -0.707123
    outer loop
      vertex 2.18691 2.5 -0.346358
      vertex 2.05364 -2.5 -0.213094
      vertex 2.05364 2.5 -0.213094
    endloop
  endfacet
  facet normal -0.860733 0 -0.509057
    outer loop
      vertex 2.62892 -2.5 -0.954739
      vertex 2.53298 2.5 -0.79252
      vertex 2.62892 2.5 -0.954739
    endloop
  endfacet
  facet normal -0.860733 -0 -0.509057
    outer loop
      vertex 2.53298 2.5 -0.79252
      vertex 2.62892 -2.5 -0.954739
      vertex 2.53298 -2.5 -0.79252
    endloop
  endfacet
  facet normal -0.82709 0 -0.562069
    outer loop
      vertex 2.53298 -2.5 -0.79252
      vertex 2.42705 2.5 -0.636643
      vertex 2.53298 2.5 -0.79252
    endloop
  endfacet
  facet normal -0.82709 -0 -0.562069
    outer loop
      vertex 2.42705 2.5 -0.636643
      vertex 2.53298 -2.5 -0.79252
      vertex 2.42705 -2.5 -0.636643
    endloop
  endfacet
  facet normal -0.27899 0 -0.960294
    outer loop
      vertex 0.746069 -2.5 0.505749
      vertex 0.927051 2.5 0.453169
      vertex 0.927051 -2.5 0.453169
    endloop
  endfacet
  facet normal -0.27899 0 -0.960294
    outer loop
      vertex 0.927051 2.5 0.453169
      vertex 0.746069 -2.5 0.505749
      vertex 0.746069 2.5 0.505749
    endloop
  endfacet
  facet normal -0.0314065 0 -0.999507
    outer loop
      vertex 0 -2.5 0.599999
      vertex 0.188371 2.5 0.59408
      vertex 0.188371 -2.5 0.59408
    endloop
  endfacet
  facet normal -0.0314065 0 -0.999507
    outer loop
      vertex 0.188371 2.5 0.59408
      vertex 0 -2.5 0.599999
      vertex 0 2.5 0.599999
    endloop
  endfacet
  facet normal -0.562069 0 -0.82709
    outer loop
      vertex 1.60748 -2.5 0.132983
      vertex 1.76336 2.5 0.027051
      vertex 1.76336 -2.5 0.027051
    endloop
  endfacet
  facet normal -0.562069 0 -0.82709
    outer loop
      vertex 1.76336 2.5 0.027051
      vertex 1.60748 -2.5 0.132983
      vertex 1.60748 2.5 0.132983
    endloop
  endfacet
  facet normal 0.75012 0 -0.661301
    outer loop
      vertex -2.18691 -2.5 -0.346358
      vertex -2.31154 2.5 -0.487727
      vertex -2.18691 2.5 -0.346358
    endloop
  endfacet
  facet normal 0.75012 0 -0.661301
    outer loop
      vertex -2.31154 2.5 -0.487727
      vertex -2.18691 -2.5 -0.346358
      vertex -2.31154 -2.5 -0.487727
    endloop
  endfacet
  facet normal 0.891007 0 -0.45399
    outer loop
      vertex -2.62892 -2.5 -0.954739
      vertex -2.71448 2.5 -1.12266
      vertex -2.62892 2.5 -0.954739
    endloop
  endfacet
  facet normal 0.891007 0 -0.45399
    outer loop
      vertex -2.71448 2.5 -1.12266
      vertex -2.62892 -2.5 -0.954739
      vertex -2.71448 -2.5 -1.12266
    endloop
  endfacet
  facet normal 0.960293 0 -0.278993
    outer loop
      vertex -2.85317 -2.5 -1.47295
      vertex -2.90575 2.5 -1.65393
      vertex -2.85317 2.5 -1.47295
    endloop
  endfacet
  facet normal 0.960293 0 -0.278993
    outer loop
      vertex -2.90575 2.5 -1.65393
      vertex -2.85317 -2.5 -1.47295
      vertex -2.90575 -2.5 -1.65393
    endloop
  endfacet
  facet normal 0.661311 0 -0.750112
    outer loop
      vertex -2.05364 -2.5 -0.213094
      vertex -1.91227 2.5 -0.08846
      vertex -1.91227 -2.5 -0.08846
    endloop
  endfacet
  facet normal 0.661311 0 -0.750112
    outer loop
      vertex -1.91227 2.5 -0.08846
      vertex -2.05364 -2.5 -0.213094
      vertex -2.05364 2.5 -0.213094
    endloop
  endfacet
  facet normal 0.509043 0 -0.860741
    outer loop
      vertex -1.60748 -2.5 0.132983
      vertex -1.44526 2.5 0.22892
      vertex -1.44526 -2.5 0.22892
    endloop
  endfacet
  facet normal 0.509043 0 -0.860741
    outer loop
      vertex -1.44526 2.5 0.22892
      vertex -1.60748 -2.5 0.132983
      vertex -1.60748 2.5 0.132983
    endloop
  endfacet
  facet normal 0.338744 0 -0.940879
    outer loop
      vertex -1.10437 -2.5 0.389329
      vertex -0.927051 2.5 0.453169
      vertex -0.927051 -2.5 0.453169
    endloop
  endfacet
  facet normal 0.338744 0 -0.940879
    outer loop
      vertex -0.927051 2.5 0.453169
      vertex -1.10437 -2.5 0.389329
      vertex -1.10437 2.5 0.389329
    endloop
  endfacet
  facet normal -0.999507 0 0.0313845
    outer loop
      vertex 2.99686 -2.5 -2.5
      vertex 3 2.5 -2.4
      vertex 2.99686 2.5 -2.5
    endloop
  endfacet
  facet normal -0.999507 0 0.0313845
    outer loop
      vertex 3 2.5 -2.4
      vertex 2.99686 -2.5 -2.5
      vertex 3 -2.5 -2.4
    endloop
  endfacet
endsolid OpenSCAD_Model
