<?xml version="1.0" encoding="utf-8" ?>
<svg baseProfile="tiny" height="251.8461" version="1.2" width="294.198" xmlns="http://www.w3.org/2000/svg" xmlns:ev="http://www.w3.org/2001/xml-events" xmlns:xlink="http://www.w3.org/1999/xlink"><defs /><polygon fill="lightgray" points="112.19797429830092,249.84609690826534 132.19797429830092,209.84609690826534 172.19797429830092,209.84609690826534 152.19797429830092,249.84609690826534" stroke="black" stroke-width="1" /><polygon fill="lightgray" points="132.19797429830092,209.84609690826534 152.19797429830092,175.20508075688778 192.19797429830092,175.20508075688778 172.19797429830092,209.84609690826534" stroke="black" stroke-width="1" /><polygon fill="lightgray" points="152.19797429830092,175.20508075688778 172.1979742983009,140.56406460551023 212.1979742983009,140.56406460551023 192.19797429830092,175.20508075688778" stroke="black" stroke-width="1" /><polygon fill="lightgray" points="172.1979742983009,140.56406460551023 192.1979742983009,105.92304845413267 232.1979742983009,105.92304845413267 212.1979742983009,140.56406460551023" stroke="black" stroke-width="1" /><polygon fill="lightgray" points="192.1979742983009,105.92304845413267 212.1979742983009,71.28203230275511 252.19797429830092,71.28203230275511 232.1979742983009,105.92304845413267" stroke="black" stroke-width="1" /><polygon fill="lightgray" points="212.1979742983009,71.28203230275511 232.1979742983009,36.641016151377556 272.1979742983009,36.641016151377556 252.19797429830092,71.28203230275511" stroke="black" stroke-width="1" /><polygon fill="lightgray" points="232.1979742983009,36.641016151377556 252.1979742983009,2.0 292.1979742983009,2.0 272.1979742983009,36.641016151377556" stroke="black" stroke-width="1" /><polygon fill="lightgray" points="112.19797429830092,249.84609690826534 90.15837943864074,216.46561970343737 108.04692325863905,180.68853206344073 130.08651811829924,214.0690092682687" stroke="black" stroke-width="1" /><polygon fill="lightgray" points="90.15837943864074,216.46561970343737 68.11878457898055,183.08514249860937 86.00732839897887,147.30805485861273 108.04692325863905,180.68853206344073" stroke="black" stroke-width="1" /><polygon fill="lightgray" points="68.11878457898055,183.08514249860937 46.07918971932037,149.7046652937814 63.96773353931868,113.92757765378477 86.00732839897887,147.30805485861273" stroke="black" stroke-width="1" /><polygon fill="lightgray" points="46.07918971932037,149.7046652937814 24.039594859660184,116.32418808895343 41.9281386796585,80.5471004489568 63.96773353931868,113.92757765378477" stroke="black" stroke-width="1" /><polygon fill="lightgray" points="24.039594859660184,116.32418808895343 2.0,82.94371088412544 19.88854381999832,47.1666232441288 41.9281386796585,80.5471004489568" stroke="black" stroke-width="1" /></svg>